<svg width="26" height="26" viewBox="0 0 26 26" fill="none" xmlns="http://www.w3.org/2000/svg">
<g filter="url(#filter0_bdi_94_6799)">
<rect x="0.40625" width="24.88" height="25.1052" rx="12.44" fill="url(#paint0_radial_94_6799)" fill-opacity="0.19" shape-rendering="crispEdges"/>
<rect x="0.447348" y="0.0410979" width="24.7978" height="25.023" rx="12.3989" stroke="url(#paint1_linear_94_6799)" stroke-width="0.0821958" shape-rendering="crispEdges"/>
<path d="M14.0276 13.5264H11.7146L11.4863 15.2487H14.2453L14.0276 13.5264Z" fill="url(#paint2_linear_94_6799)"/>
<path d="M15.1462 6.95535L15.28 8.10421L15.3456 8.67157H13.4148L13.3433 8.10421L13.2362 7.25932C13.2256 7.17533 13.1847 7.0981 13.1212 7.04211C13.0577 6.98612 12.9759 6.95522 12.8912 6.9552C12.8069 6.95521 12.7255 6.98584 12.6621 7.04139C12.5987 7.09695 12.5577 7.17364 12.5466 7.2572L12.4343 8.10407L12.3594 8.67143H10.4277L10.4975 8.10407L10.639 6.9552L10.6424 6.92925C10.7134 6.39532 10.9759 5.90536 11.3811 5.55049C11.7863 5.19562 12.3066 4.99999 12.8453 5H12.94C13.4832 4.99999 14.0075 5.19889 14.414 5.55913C14.8205 5.91937 15.0809 6.41601 15.1462 6.9552V6.95535Z" fill="url(#paint3_linear_94_6799)"/>
<path d="M11.4894 10.3936H10.2179L9.8329 13.5272L9.62136 15.2495L9.23633 18.3832H11.0735L11.4889 15.2495L11.7172 13.5272L12.1327 10.3936H11.4894Z" fill="url(#paint4_linear_94_6799)"/>
<path d="M16.1153 15.2495L15.9143 13.5272L15.5485 10.3936H13.6338L14.0301 13.5272L14.2478 15.2495L14.6441 18.3832H16.4811L16.1153 15.2495Z" fill="url(#paint5_linear_94_6799)"/>
<path style="mix-blend-mode:multiply" d="M11.826 12.6951L12.1311 10.3936H10.2163L9.93359 12.6951H11.826Z" fill="url(#paint6_linear_94_6799)"/>
<path style="mix-blend-mode:multiply" d="M15.8172 12.6951L15.5485 10.3936H13.6338L13.9248 12.6951H15.8172Z" fill="url(#paint7_linear_94_6799)"/>
<path d="M19.0972 12.7657H19.6347V11.4301C19.6347 11.1189 19.614 10.7424 19.4095 10.3426C19.2027 9.93712 18.9013 9.5875 18.5308 9.32333C18.528 9.32163 18.5255 9.31964 18.5232 9.31739C17.9214 8.89233 17.1593 8.68022 16.4144 8.68022L16.3731 8.67188H8.85665L8.82298 8.68022C8.21428 8.67452 7.61492 8.83007 7.08582 9.13106C6.55672 9.43206 6.11673 9.86776 5.81057 10.3939C5.53906 10.8727 5.39964 11.415 5.40659 11.9653C5.40011 12.4008 5.48594 12.8326 5.65843 13.2325C5.83093 13.6323 6.08617 13.9911 6.40736 14.2851C6.7254 14.5988 7.10292 14.8458 7.51774 15.0116C7.93257 15.1774 8.37633 15.2586 8.82298 15.2505H9.62006L9.83224 13.5277H8.82298C8.40524 13.5353 8.00097 13.3798 7.69597 13.0942C7.68841 13.0875 7.68084 13.08 7.6732 13.073C7.52409 12.9286 7.40553 12.7558 7.32456 12.5647C7.24359 12.3736 7.20187 12.1682 7.20187 11.9607C7.20187 11.7532 7.24359 11.5478 7.32456 11.3567C7.40553 11.1656 7.52409 10.9928 7.6732 10.8484C7.82553 10.7008 8.0055 10.5846 8.2028 10.5066C8.4001 10.4286 8.61085 10.3903 8.82298 10.3939H16.4057C16.8956 10.3939 17.6034 10.5919 17.6034 11.2002V11.2719C17.6034 11.4681 17.642 11.6623 17.7171 11.8436C17.7922 12.0248 17.9022 12.1895 18.0409 12.3282C18.1796 12.4669 18.3443 12.577 18.5255 12.652C18.7068 12.7271 18.901 12.7657 19.0972 12.7657Z" fill="url(#paint8_linear_94_6799)" style="mix-blend-mode:multiply"/>
<path d="M19.3728 10.3612L19.3729 10.3613C19.5729 10.7523 19.5936 11.1209 19.5936 11.4301V12.7246H19.0972C18.9064 12.7246 18.7175 12.6871 18.5413 12.6141C18.365 12.5411 18.2049 12.434 18.07 12.2991C17.9351 12.1642 17.8281 12.0041 17.7551 11.8278C17.6821 11.6516 17.6445 11.4627 17.6445 11.2719V11.2002C17.6445 10.8763 17.4546 10.6629 17.2074 10.5326C16.9616 10.403 16.655 10.3528 16.4057 10.3528H8.82333C8.60592 10.3492 8.38991 10.3884 8.18769 10.4684C7.98536 10.5484 7.8008 10.6675 7.64459 10.8189C7.49154 10.9671 7.36984 11.1445 7.28672 11.3407C7.2036 11.5368 7.16077 11.7477 7.16077 11.9607C7.16077 12.1737 7.2036 12.3846 7.28672 12.5808C7.36984 12.7769 7.49155 12.9543 7.64462 13.1025L7.64461 13.1025L7.64528 13.1031C7.64743 13.1051 7.64994 13.1075 7.65262 13.11C7.65763 13.1148 7.66324 13.1201 7.66827 13.1246C7.98093 13.4171 8.39521 13.5764 8.82333 13.5688H9.78577L9.58371 15.2094L8.82298 15.2094L8.82224 15.2095C8.38106 15.2174 7.94274 15.1372 7.533 14.9735C7.12326 14.8097 6.75037 14.5657 6.43622 14.2559L6.43624 14.2559L6.43511 14.2548C6.11821 13.9647 5.86637 13.6107 5.69617 13.2162C5.52598 12.8217 5.44129 12.3956 5.4477 11.966L5.44769 11.9648C5.44083 11.4218 5.57836 10.8868 5.84621 10.4144C6.14871 9.89459 6.58341 9.46415 7.10614 9.16679C7.62894 8.86938 8.22115 8.71568 8.8226 8.72132L8.82259 8.72266L8.83287 8.72011L8.86167 8.71297H16.369L16.4062 8.7205L16.4061 8.72132H16.4144C17.1511 8.72132 17.9036 8.9309 18.4972 9.34936C18.5005 9.35232 18.5041 9.35502 18.5078 9.35743C18.8726 9.6177 19.1693 9.962 19.3728 10.3612Z" stroke="white" stroke-opacity="0.29" stroke-width="0.0821958"/>
<g style="mix-blend-mode:multiply">
<path d="M7.69609 13.0941C7.68852 13.0873 7.68095 13.0799 7.67339 13.0728C7.49069 12.8985 7.35407 12.6815 7.27577 12.4414H5.43945C5.46983 12.6642 5.52462 12.8831 5.60283 13.0939C5.77667 13.5471 6.05191 13.9545 6.40747 14.2849C6.72552 14.5986 7.10304 14.8456 7.51786 15.0113C7.93268 15.1771 8.37645 15.2584 8.8231 15.2503H9.62018L9.83235 13.5274H8.8231C8.40537 13.535 8.00111 13.3796 7.69609 13.0941Z" fill="url(#paint9_linear_94_6799)" style="mix-blend-mode:multiply"/>
<path d="M7.64501 13.1026L7.64501 13.1026L7.64533 13.1029C7.64733 13.1047 7.64956 13.1069 7.65194 13.1091C7.65712 13.114 7.66295 13.1196 7.66838 13.1244C7.98107 13.4169 8.39536 13.5762 8.82347 13.5685H9.78588L9.58383 15.2092H8.8231V15.2092L8.82236 15.2092C8.38118 15.2172 7.94285 15.1369 7.53311 14.9732C7.12337 14.8094 6.75048 14.5655 6.43633 14.2556L6.43635 14.2556L6.43545 14.2548C6.08454 13.9287 5.81288 13.5266 5.64128 13.0794C5.56963 12.8862 5.51791 12.6862 5.4869 12.4825H7.24624C7.32798 12.7178 7.46462 12.9304 7.64501 13.1026Z" stroke="white" stroke-opacity="0.29" stroke-width="0.0821958"/>
</g>
<path d="M19.2841 14.4917C18.9659 14.1782 18.5883 13.9314 18.1735 13.7657C17.7586 13.6 17.3149 13.5189 16.8683 13.5269H15.9121L16.1132 15.2492H16.8683C17.0804 15.2457 17.2912 15.284 17.4885 15.362C17.6859 15.4399 17.8659 15.5561 18.0183 15.7037C18.1675 15.848 18.2861 16.0209 18.3671 16.2119C18.4481 16.403 18.4899 16.6085 18.4899 16.816C18.4899 17.0236 18.4481 17.229 18.3671 17.4201C18.2861 17.6112 18.1675 17.7841 18.0183 17.9284C17.8659 18.076 17.6859 18.1922 17.4886 18.2702C17.2912 18.3482 17.0804 18.3865 16.8683 18.3829H8.77242C8.56008 18.3852 8.34868 18.3543 8.14586 18.2914C7.99045 18.238 7.85573 18.1372 7.76071 18.0031C7.66569 17.8691 7.61516 17.7086 7.61627 17.5443C7.61627 17.3481 7.57763 17.1538 7.50256 16.9726C7.42749 16.7914 7.31746 16.6267 7.17875 16.488C7.04003 16.3493 6.87536 16.2392 6.69412 16.1642C6.51289 16.0891 6.31864 16.0505 6.12247 16.0505H5.58496V17.6024C5.58496 18.3828 5.94382 19.0863 6.49216 19.4752C7.08788 19.8898 8.02796 20.0972 8.77263 20.0972L8.80566 20.1051H16.8351L16.8683 20.0972C17.3143 20.1055 17.7574 20.0252 18.1721 19.8609C18.5868 19.6967 18.9648 19.4517 19.2841 19.1403C19.9514 18.497 20.285 17.7209 20.2852 16.8119C20.2853 15.9029 19.9516 15.1295 19.2841 14.4917Z" fill="url(#paint10_linear_94_6799)" style="mix-blend-mode:multiply"/>
<path d="M19.2557 14.5214L19.2553 14.521C18.941 14.2113 18.568 13.9675 18.1582 13.8039C17.7485 13.6402 17.3102 13.56 16.869 13.568L16.8683 13.568L15.9583 13.568L16.1497 15.2081H16.8679C17.0854 15.2045 17.3014 15.2438 17.5036 15.3237C17.706 15.4037 17.8906 15.5228 18.0469 15.6742C18.2 15.8223 18.3218 15.9997 18.4049 16.1959C18.4881 16.3921 18.531 16.603 18.531 16.816C18.531 17.0291 18.4881 17.24 18.4049 17.4362C18.3218 17.6323 18.2 17.8098 18.0469 17.9579C17.8906 18.1093 17.706 18.2284 17.5037 18.3084C17.3014 18.3883 17.0854 18.4276 16.868 18.424H8.77263H8.77242V18.3829C8.56008 18.3852 8.34868 18.3543 8.14586 18.2914L19.2557 14.5214ZM19.2557 14.5214C19.9153 15.1516 20.2442 15.9143 20.2441 16.8119C20.2439 17.7095 19.915 18.475 19.2556 19.1107L19.2554 19.1109C18.94 19.4185 18.5666 19.6605 18.157 19.8227C17.7474 19.985 17.3096 20.0643 16.8691 20.0561L16.8691 20.0547L16.8587 20.0572L16.8303 20.064H8.81052L8.78221 20.0572L8.78248 20.0561H8.77263C8.03319 20.0561 7.10238 19.8497 6.51578 19.4416C5.97939 19.061 5.62606 18.3707 5.62606 17.6024V16.0916M19.2557 14.5214L5.62606 16.0916M5.62606 16.0916H6.12247C6.31325 16.0916 6.50215 16.1291 6.6784 16.2021C6.85465 16.2751 7.01479 16.3822 7.14968 16.517C7.28458 16.6519 7.39158 16.8121 7.46459 16.9883C7.53758 17.1645 7.57515 17.3534 7.57517 17.5441C7.57517 17.5442 7.57517 17.5442 7.57517 17.5443L5.62606 16.0916Z" stroke="white" stroke-opacity="0.29" stroke-width="0.0821958"/>
<g style="mix-blend-mode:multiply">
<path d="M18.4684 16.5616H20.2754C20.2189 15.7604 19.8884 15.0704 19.2841 14.4917C18.9659 14.1782 18.5883 13.9314 18.1734 13.7657C17.7586 13.6 17.3149 13.5189 16.8682 13.5269H15.9121L16.1131 15.2492H16.8682C17.0804 15.2457 17.2912 15.284 17.4885 15.362C17.6858 15.4399 17.8658 15.5561 18.0182 15.7037C18.2588 15.9322 18.4171 16.2338 18.4684 16.5616Z" fill="url(#paint11_linear_94_6799)" style="mix-blend-mode:multiply"/>
<path d="M19.2552 14.521L19.2552 14.521L19.2557 14.5214C19.8418 15.0827 20.1664 15.7486 20.2311 16.5205H18.5032C18.445 16.1973 18.2852 15.9006 18.0467 15.674C17.8904 15.5227 17.7059 15.4037 17.5036 15.3237C17.3014 15.2438 17.0853 15.2045 16.8679 15.2081H16.1497L15.9583 13.568H16.8682V13.568L16.869 13.568C17.3101 13.56 17.7484 13.6402 18.1582 13.8039C18.568 13.9675 18.9409 14.2113 19.2552 14.521Z" stroke="white" stroke-opacity="0.29" stroke-width="0.0821958"/>
</g>
<path style="mix-blend-mode:multiply" d="M18.0197 17.9285C18.0121 17.9352 18.0045 17.9426 17.9969 17.9497H20.0904C20.2231 17.5883 20.2896 17.206 20.2865 16.821V16.8034C20.2804 16.3877 20.1105 15.9912 19.8136 15.7002C19.5167 15.4091 19.1169 15.2471 18.7012 15.2493H16.8701C17.0822 15.2457 17.293 15.2839 17.4903 15.3619C17.6876 15.4399 17.8676 15.5561 18.0199 15.7037C18.169 15.8481 18.2876 16.0209 18.3685 16.212C18.4495 16.4031 18.4912 16.6085 18.4912 16.816C18.4912 17.0236 18.4495 17.229 18.3685 17.4201C18.2876 17.6111 18.169 17.784 18.0199 17.9283L18.0197 17.9285Z" fill="url(#paint12_linear_94_6799)"/>
<path d="M12.5787 19.0195C12.5787 19.0462 12.5858 19.0724 12.5991 19.0955L12.8706 19.566C12.9484 19.7008 13.1544 19.6456 13.1544 19.49L13.1544 7.56342C13.1544 7.40619 12.9449 7.35236 12.8691 7.4901L12.5976 7.98338C12.5852 8.00584 12.5787 8.03107 12.5787 8.0567L12.5787 19.0195Z" fill="#080721" stroke="white" stroke-width="0.0246587"/>
<path d="M13.2181 6.7058C13.2181 6.78253 13.161 6.84724 13.0848 6.8567L12.8137 6.89037C12.723 6.90164 12.6429 6.83089 12.6429 6.73947L12.6429 6.16863C12.6429 6.07685 12.7236 6.00599 12.8146 6.01785L13.0857 6.05315C13.1615 6.06302 13.2181 6.12755 13.2181 6.20394L13.2181 6.7058Z" fill="#080721" stroke="white" stroke-width="0.0246587"/>
<g style="mix-blend-mode:screen">
<path d="M17.7169 19.3266C17.9608 19.0791 18.1528 18.7853 18.2816 18.4627C18.4105 18.14 18.4736 17.7948 18.4673 17.4474L18.4673 16.7037L17.1277 16.8601L17.1277 17.4474C17.1305 17.6125 17.1007 17.7764 17.04 17.9299C16.9793 18.0834 16.889 18.2234 16.7742 18.342C16.6619 18.458 16.5275 18.5503 16.3788 18.6133C16.2302 18.6763 16.0704 18.7088 15.909 18.7088C15.7475 18.7088 15.5877 18.6763 15.4391 18.6133C15.2904 18.5503 15.156 18.458 15.0437 18.342C14.9289 18.2234 14.8386 18.0834 14.7779 17.9299C14.7172 17.7764 14.6874 17.6125 14.6902 17.4474L14.6902 11.1502C14.6884 10.985 14.7124 10.8206 14.7614 10.6628C14.8029 10.542 14.8813 10.4372 14.9856 10.3633C15.0899 10.2894 15.2147 10.2501 15.3425 10.2509C15.4951 10.2509 15.6462 10.2209 15.7872 10.1625C15.9281 10.1041 16.0562 10.0185 16.1641 9.9106C16.272 9.8027 16.3576 9.67461 16.416 9.53364C16.4744 9.39267 16.5044 9.24158 16.5044 9.08899L16.5044 8.6709L15.2973 8.6709C14.6903 8.6709 14.1431 8.95003 13.8406 9.37655C13.5181 9.83992 13.3568 10.5711 13.3568 11.1504L13.3506 11.1761L13.3506 17.4216L13.3568 17.4474C13.3503 17.7943 13.4128 18.1391 13.5405 18.4616C13.6683 18.7842 13.8588 19.0782 14.1011 19.3266C14.6014 19.8456 15.2051 20.1051 15.9122 20.1052C16.6192 20.1053 17.2208 19.8458 17.7169 19.3266Z" fill="url(#paint13_angular_94_6799)" style="mix-blend-mode:multiply"/>
<path d="M17.6872 19.2982L17.6876 19.2977C17.9277 19.0541 18.1166 18.765 18.2434 18.4474C18.3703 18.1298 18.4324 17.7901 18.4263 17.4482L18.4262 17.4474L18.4263 16.7499L17.1688 16.8967L17.1688 17.4471C17.1716 17.6174 17.1408 17.7866 17.0782 17.945C17.0156 18.1035 16.9223 18.2481 16.8037 18.3705M17.6872 19.2982L15.0437 18.342L15.0142 18.3705C15.1303 18.4905 15.2693 18.5859 15.423 18.6511C15.5767 18.7163 15.742 18.7499 15.909 18.7499C16.0759 18.7499 16.2412 18.7163 16.3949 18.6511C16.5486 18.586 16.6876 18.4905 16.8037 18.3705M17.6872 19.2982C17.1987 19.8094 16.6078 20.0642 15.9122 20.0641C15.2165 20.064 14.6234 19.8092 14.1306 19.298L14.1305 19.2979C13.892 19.0534 13.7045 18.764 13.5788 18.4465C13.453 18.129 13.3915 17.7897 13.3979 17.4482L13.3992 17.4482M17.6872 19.2982L13.3992 17.4482M16.8037 18.3705L16.7742 18.342L16.8037 18.3705C16.8037 18.3705 16.8037 18.3705 16.8037 18.3705ZM15.3427 10.2098C15.3427 10.2098 15.3427 10.2098 15.3428 10.2098L15.3425 10.2509L15.3425 10.2098C15.3426 10.2098 15.3426 10.2098 15.3427 10.2098ZM15.3427 10.2098C15.2063 10.2089 15.0731 10.2509 14.9618 10.3297C14.8505 10.4086 14.7668 10.5205 14.7225 10.6495L14.7225 10.6495L14.7221 10.6507C14.6719 10.8124 14.6473 10.9811 14.6491 11.1504M15.3427 10.2098L14.6491 11.1504M14.6491 11.1504L14.6491 11.1502L14.6902 11.1502L14.6491 11.1506C14.6491 11.1506 14.6491 11.1505 14.6491 11.1504ZM13.3992 17.4482L13.3968 17.4379L13.3992 17.4482ZM16.5044 8.712L16.5044 8.6709L16.4633 8.6709L16.4633 8.712L16.5044 8.712ZM14.6491 17.4468C14.6491 17.4469 14.6491 17.447 14.6491 17.4471L14.6491 17.4474L14.6902 17.4474L14.6491 17.4468ZM13.8742 9.40017C13.8742 9.40012 13.8743 9.40007 13.8743 9.40002L13.8406 9.37655L13.8741 9.40032C13.8741 9.40027 13.8742 9.40022 13.8742 9.40017ZM18.4673 16.7037L18.4263 16.7085L18.4673 16.7037ZM13.3506 11.1761L13.3906 11.1856L13.3917 11.1809L13.3917 11.1761L13.3506 11.1761ZM13.3917 17.4168L13.3906 17.4121L13.3506 17.4216L13.3917 17.4216L13.3917 17.4168Z" stroke="white" stroke-opacity="0.27" stroke-width="0.0821958"/>
</g>
</g>
<defs>
<filter id="filter0_bdi_94_6799" x="-1.08149" y="-1.48774" width="27.8554" height="28.081" filterUnits="userSpaceOnUse" color-interpolation-filters="sRGB">
<feFlood flood-opacity="0" result="BackgroundImageFix"/>
<feGaussianBlur in="BackgroundImageFix" stdDeviation="0.743872"/>
<feComposite in2="SourceAlpha" operator="in" result="effect1_backgroundBlur_94_6799"/>
<feColorMatrix in="SourceAlpha" type="matrix" values="0 0 0 0 0 0 0 0 0 0 0 0 0 0 0 0 0 0 127 0" result="hardAlpha"/>
<feOffset dy="0.328783"/>
<feGaussianBlur stdDeviation="0.164392"/>
<feComposite in2="hardAlpha" operator="out"/>
<feColorMatrix type="matrix" values="0 0 0 0 0 0 0 0 0 0 0 0 0 0 0 0 0 0 0.25 0"/>
<feBlend mode="normal" in2="effect1_backgroundBlur_94_6799" result="effect2_dropShadow_94_6799"/>
<feBlend mode="normal" in="SourceGraphic" in2="effect2_dropShadow_94_6799" result="shape"/>
<feColorMatrix in="SourceAlpha" type="matrix" values="0 0 0 0 0 0 0 0 0 0 0 0 0 0 0 0 0 0 127 0" result="hardAlpha"/>
<feOffset dy="0.328783"/>
<feGaussianBlur stdDeviation="0.164392"/>
<feComposite in2="hardAlpha" operator="arithmetic" k2="-1" k3="1"/>
<feColorMatrix type="matrix" values="0 0 0 0 0 0 0 0 0 0 0 0 0 0 0 0 0 0 0.25 0"/>
<feBlend mode="normal" in2="shape" result="effect3_innerShadow_94_6799"/>
</filter>
<radialGradient id="paint0_radial_94_6799" cx="0" cy="0" r="1" gradientUnits="userSpaceOnUse" gradientTransform="translate(12.8463 12.5526) rotate(90) scale(12.5526 12.44)">
<stop stop-color="#635DE5"/>
<stop offset="0.145" stop-color="#5C57D6"/>
<stop offset="0.325" stop-color="#A950C4"/>
<stop offset="0.465" stop-color="#894AB6"/>
<stop offset="0.705" stop-color="#7A409E"/>
<stop offset="1" stop-color="#37347F"/>
</radialGradient>
<linearGradient id="paint1_linear_94_6799" x1="12.8463" y1="0" x2="12.8463" y2="25.1052" gradientUnits="userSpaceOnUse">
<stop stop-color="white"/>
<stop offset="1" stop-color="#746FE5"/>
</linearGradient>
<linearGradient id="paint2_linear_94_6799" x1="12.9947" y1="15.3341" x2="12.9749" y2="12.3879" gradientUnits="userSpaceOnUse">
<stop stop-color="#4F4BAD"/>
<stop offset="1" stop-color="#4A0E98"/>
</linearGradient>
<linearGradient id="paint3_linear_94_6799" x1="13.1165" y1="8.85371" x2="13.0658" y2="2.57324" gradientUnits="userSpaceOnUse">
<stop stop-color="#4F4BAD"/>
<stop offset="1" stop-color="#4A0E98"/>
</linearGradient>
<linearGradient id="paint4_linear_94_6799" x1="10.8198" y1="18.7795" x2="10.4131" y2="5.12395" gradientUnits="userSpaceOnUse">
<stop stop-color="#4F4BAD"/>
<stop offset="1" stop-color="#4A0E98"/>
</linearGradient>
<linearGradient id="paint5_linear_94_6799" x1="15.1905" y1="18.7795" x2="14.7767" y2="5.12437" gradientUnits="userSpaceOnUse">
<stop stop-color="#4F4BAD"/>
<stop offset="1" stop-color="#4A0E98"/>
</linearGradient>
<linearGradient id="paint6_linear_94_6799" x1="11.0801" y1="9.15416" x2="11.0205" y2="12.1367" gradientUnits="userSpaceOnUse">
<stop stop-color="#831C8B"/>
<stop offset="0.143" stop-color="#88258F" stop-opacity="0.962"/>
<stop offset="0.321" stop-color="#953D9C" stop-opacity="0.853"/>
<stop offset="0.516" stop-color="#AC67B1" stop-opacity="0.672"/>
<stop offset="0.724" stop-color="#CBA0CE" stop-opacity="0.419"/>
<stop offset="0.94" stop-color="#F3E9F4" stop-opacity="0.098"/>
<stop offset="1" stop-color="white" stop-opacity="0"/>
</linearGradient>
<linearGradient id="paint7_linear_94_6799" x1="14.7718" y1="9.228" x2="14.7121" y2="12.2105" gradientUnits="userSpaceOnUse">
<stop stop-color="#831C8B"/>
<stop offset="0.143" stop-color="#88258F" stop-opacity="0.962"/>
<stop offset="0.321" stop-color="#953D9C" stop-opacity="0.853"/>
<stop offset="0.516" stop-color="#AC67B1" stop-opacity="0.672"/>
<stop offset="0.724" stop-color="#CBA0CE" stop-opacity="0.419"/>
<stop offset="0.94" stop-color="#F3E9F4" stop-opacity="0.098"/>
<stop offset="1" stop-color="white" stop-opacity="0"/>
</linearGradient>
<linearGradient id="paint8_linear_94_6799" x1="10.3027" y1="11.9389" x2="2.93597" y2="11.5333" gradientUnits="userSpaceOnUse">
<stop stop-color="white" stop-opacity="0"/>
<stop offset="0.102" stop-color="#E6EBEE" stop-opacity="0.14"/>
<stop offset="0.397" stop-color="#A4B7C2" stop-opacity="0.509"/>
<stop offset="0.656" stop-color="#A4C5D9" stop-opacity="0.776"/>
<stop offset="0.866" stop-color="#9BC7E2" stop-opacity="0.94"/>
<stop offset="1" stop-color="#83ADC7"/>
</linearGradient>
<linearGradient id="paint9_linear_94_6799" x1="6.9512" y1="13.8365" x2="4.67349" y2="13.7458" gradientUnits="userSpaceOnUse">
<stop stop-color="white" stop-opacity="0"/>
<stop offset="0.102" stop-color="#E6EBEE" stop-opacity="0.14"/>
<stop offset="0.397" stop-color="#A4B7C2" stop-opacity="0.509"/>
<stop offset="0.656" stop-color="#A4C5D9" stop-opacity="0.776"/>
<stop offset="0.866" stop-color="#9BC7E2" stop-opacity="0.94"/>
<stop offset="1" stop-color="#83ADC7"/>
</linearGradient>
<linearGradient id="paint10_linear_94_6799" x1="10.6438" y1="16.7932" x2="3.03433" y2="16.3603" gradientUnits="userSpaceOnUse">
<stop stop-color="white" stop-opacity="0"/>
<stop offset="0.102" stop-color="#E6EBEE" stop-opacity="0.14"/>
<stop offset="0.397" stop-color="#A4B7C2" stop-opacity="0.509"/>
<stop offset="0.656" stop-color="#A4C5D9" stop-opacity="0.776"/>
<stop offset="0.866" stop-color="#9BC7E2" stop-opacity="0.94"/>
<stop offset="1" stop-color="#83ADC7"/>
</linearGradient>
<linearGradient id="paint11_linear_94_6799" x1="17.4137" y1="15.0336" x2="15.1507" y2="14.9508" gradientUnits="userSpaceOnUse">
<stop stop-color="white" stop-opacity="0"/>
<stop offset="0.102" stop-color="#E6EBEE" stop-opacity="0.14"/>
<stop offset="0.397" stop-color="#A4B7C2" stop-opacity="0.509"/>
<stop offset="0.656" stop-color="#A4C5D9" stop-opacity="0.776"/>
<stop offset="0.866" stop-color="#9BC7E2" stop-opacity="0.94"/>
<stop offset="1" stop-color="#83ADC7"/>
</linearGradient>
<linearGradient id="paint12_linear_94_6799" x1="18.0458" y1="16.5901" x2="16.2734" y2="16.533" gradientUnits="userSpaceOnUse">
<stop stop-color="white" stop-opacity="0"/>
<stop offset="0.102" stop-color="#E6EBEE" stop-opacity="0.14"/>
<stop offset="0.397" stop-color="#A4B7C2" stop-opacity="0.509"/>
<stop offset="0.656" stop-color="#A4C5D9" stop-opacity="0.776"/>
<stop offset="0.866" stop-color="#9BC7E2" stop-opacity="0.94"/>
<stop offset="1" stop-color="#83ADC7"/>
</linearGradient>
<radialGradient id="paint13_angular_94_6799" cx="0" cy="0" r="1" gradientUnits="userSpaceOnUse" gradientTransform="translate(15.9092 14.3881) rotate(90) scale(5.71716 2.55857)">
<stop stop-color="#4F4BAD"/>
<stop offset="0.31" stop-color="#4F4BAD"/>
<stop offset="0.425" stop-color="#4F4BAD"/>
<stop offset="0.645" stop-color="#4F4BAD"/>
<stop offset="0.78" stop-color="#4F4BAD"/>
</radialGradient>
</defs>
</svg>
