<svg width="40" height="40" viewBox="0 0 40 40" fill="none" xmlns="http://www.w3.org/2000/svg">
<g clip-path="url(#clip0_94_6718)">
<path d="M32.3968 23.8175C32.3968 28.1664 30.687 32.1039 27.8989 35.0128C24.9546 38.0848 20.8043 40.0003 16.214 40.0003C7.27483 40.0003 0.03125 32.7567 0.03125 23.8175C0.03125 22.6115 0.166094 21.4337 0.414374 20.2986C2.02484 13.0551 8.481 7.63477 16.214 7.63477C19.0732 7.63477 21.755 8.37258 24.0819 9.67804C24.089 9.67804 24.096 9.67804 24.1032 9.68515L30.1193 15.5382C31.5667 17.9574 32.3968 20.7882 32.3968 23.8175Z" fill="#2F2E3C"/>
<path d="M27.8989 35.012C24.9546 38.0841 20.8043 39.9995 16.214 39.9995C7.27483 39.9995 0.03125 32.756 0.03125 23.8168C0.03125 22.6107 0.166094 21.433 0.414374 20.2979C3.08195 29.3718 11.4677 35.9911 21.4073 35.9911C23.6634 35.9911 25.8485 35.6505 27.8989 35.012Z" fill="#20202B"/>
<path d="M32.0045 13.6523L30.119 15.5377L30.1171 15.5358C29.5087 16.1441 27.6846 15.3062 26.0426 13.6641C24.4007 12.0222 23.5627 10.1979 24.171 9.58968L24.0816 9.67757L26.0521 7.70703" fill="#20202B"/>
<path d="M32.0001 13.6519C32.6083 13.0436 31.7705 11.2195 30.1286 9.57769C28.4868 7.93586 26.6628 7.09799 26.0545 7.70626C25.4462 8.31452 26.2841 10.1386 27.9259 11.7804C29.5678 13.4222 31.3918 14.2601 32.0001 13.6519Z" fill="#2F2E3C"/>
<path d="M34.0394 6.52111L29.4549 11.1056C29.3375 11.2231 29.1831 11.2825 29.0288 11.2825C28.8744 11.2825 28.7201 11.223 28.6019 11.1056C28.3671 10.8701 28.3671 10.4881 28.6019 10.2526L30.7695 8.08494C30.7703 8.08416 30.7719 8.08252 30.7727 8.08173L33.1864 5.66885C33.4219 5.4333 33.8039 5.4333 34.0394 5.66885C34.275 5.90439 34.275 6.28557 34.0394 6.52111Z" fill="#8FA3A9"/>
<path d="M34.0396 6.52111L31.6259 8.93478C31.5085 9.0522 31.3541 9.11165 31.1998 9.11165C31.0454 9.11165 30.8911 9.05212 30.7729 8.93478C30.5389 8.70001 30.5381 8.32048 30.7697 8.08494C30.7704 8.08416 30.7721 8.08251 30.7729 8.08173L33.1865 5.66885C33.4221 5.4333 33.804 5.4333 34.0396 5.66885C34.2752 5.90439 34.2752 6.28557 34.0396 6.52111Z" fill="#EC1422"/>
<path d="M13.2745 10.6473C9.6737 11.2099 20.0301 19.0762 25.9534 22.0452C26.7798 22.4594 27.7625 21.907 27.8562 20.9873C27.9595 19.9741 27.8741 18.5469 27.1681 16.7959C25.9237 13.7097 18.832 9.76041 13.2745 10.6473Z" fill="#525464"/>
<path d="M33.7818 4.06273C33.4486 4.06273 33.1787 3.79281 33.1787 3.45968V0.603046C33.1787 0.269921 33.4486 0 33.7818 0C34.1149 0 34.3848 0.269921 34.3848 0.603046V3.45976C34.3847 3.79281 34.1147 4.06273 33.7818 4.06273Z" fill="#F49F00"/>
<path d="M33.7818 12.5462C33.4486 12.5462 33.1787 12.2763 33.1787 11.9432V9.08644C33.1787 8.75332 33.4486 8.4834 33.7818 8.4834C34.1149 8.4834 34.3848 8.75332 34.3848 9.08644V11.9432C34.3847 12.2763 34.1147 12.5462 33.7818 12.5462Z" fill="#F49F00"/>
<path d="M31.9738 4.72079C31.8017 4.72079 31.6309 4.64751 31.5116 4.5054L29.6753 2.31689C29.4612 2.06165 29.4945 1.68142 29.7496 1.46736C30.0049 1.25306 30.3851 1.28657 30.5991 1.54165L32.4355 3.73009C32.6496 3.98532 32.6163 4.36555 32.3612 4.57962C32.2481 4.67454 32.1106 4.72079 31.9738 4.72079Z" fill="#F49F00"/>
<path d="M37.427 11.2195C37.2549 11.2195 37.0841 11.1462 36.9648 11.0041L35.1284 8.81578C34.9143 8.56055 34.9476 8.18031 35.2027 7.96625C35.4578 7.75227 35.8382 7.78547 36.0523 8.04055L37.8886 10.2289C38.1027 10.4841 38.0695 10.8644 37.8143 11.0784C37.7013 11.1733 37.5638 11.2195 37.427 11.2195Z" fill="#F49F00"/>
<path d="M31.0119 6.38777C30.977 6.38777 30.942 6.3848 30.9064 6.37855L28.0931 5.88246C27.7651 5.82465 27.5461 5.51191 27.604 5.18395C27.6619 4.85606 27.9742 4.63676 28.3025 4.69488L31.1159 5.19098C31.4438 5.24879 31.6628 5.56152 31.6049 5.88949C31.5535 6.18191 31.299 6.38777 31.0119 6.38777Z" fill="#F49F00"/>
<path d="M39.3663 7.86145C39.3315 7.86145 39.2964 7.85848 39.2608 7.85223L36.4476 7.35614C36.1196 7.29832 35.9006 6.98559 35.9585 6.65762C36.0164 6.32965 36.3288 6.11028 36.657 6.16856L39.4703 6.66465C39.7983 6.72247 40.0172 7.0352 39.9594 7.36317C39.9078 7.65559 39.6534 7.86145 39.3663 7.86145Z" fill="#F49F00"/>
<path d="M36.2189 5.46954C36.0105 5.46954 35.8079 5.36141 35.6961 5.16797C35.5296 4.87954 35.6284 4.51079 35.9168 4.34423L38.3909 2.91579C38.6792 2.74946 39.048 2.84798 39.2146 3.13649C39.3811 3.42493 39.2824 3.79368 38.9939 3.96024L36.5199 5.38868C36.425 5.44344 36.3213 5.46954 36.2189 5.46954Z" fill="#F49F00"/>
</g>
<defs>
<clipPath id="clip0_94_6718">
<rect width="40" height="40" fill="white"/>
</clipPath>
</defs>
</svg>
