<svg width="31" height="30" viewBox="0 0 31 30" fill="none" xmlns="http://www.w3.org/2000/svg">
<path d="M13.6747 21.2935C13.8438 24.1286 13.2337 25.251 11.1958 25.5668C9.15597 25.8827 7.18217 24.1831 6.78197 21.7673C6.59935 20.658 6.41674 18.4038 6.18361 17.4168L4.43322 12.649C4.3322 12.2279 3.17822 10.22 2.9956 9.34574C2.62454 7.56721 3.8096 5.83756 5.64353 5.47659C5.64353 5.47659 8.37111 4.94454 8.85097 4.85054C9.33082 4.75465 10.7626 4.66441 10.7626 4.66441C12.7286 4.66441 13.6767 5.64768 13.6767 7.55029C13.6767 8.65388 11.6563 10.3516 11.6563 10.3516C11.6563 10.3516 8.79657 13.0156 9.79707 14.9953C10.7937 16.975 13.0706 17.5465 13.6747 21.2935ZM11.392 4.17748C12.2041 4.17748 12.8646 3.23933 12.8646 2.08686C12.8646 0.934386 12.2041 0 11.392 0C10.5742 0 9.91363 0.936266 9.91363 2.08686C9.91558 3.23933 10.5742 4.17748 11.392 4.17748ZM8.25455 3.96503C8.77714 3.89359 9.11323 3.23557 9.0025 2.49483C8.8937 1.75409 8.38083 1.21263 7.85823 1.28596C7.33759 1.3574 7.00149 2.01542 7.11029 2.75616C7.21908 3.49502 7.73196 4.03647 8.25455 3.96503ZM6.01848 4.55161C6.39731 4.46513 6.59741 3.96127 6.46725 3.42734C6.33514 2.8934 5.92328 2.52867 5.5464 2.61515C5.16951 2.70164 4.96747 3.20361 5.09957 3.73942C5.22973 4.27336 5.63965 4.63809 6.01848 4.55161ZM4.2098 5.69844C4.54007 5.57248 4.65275 5.0893 4.46042 4.62117C4.26809 4.15304 3.84652 3.87479 3.51625 4.00263C3.18599 4.13048 3.07331 4.61177 3.26564 5.0799C3.45797 5.54804 3.87954 5.8244 4.2098 5.69844ZM2.23989 5.8338C2.02036 5.91653 1.94459 6.23614 2.07087 6.54822C2.19715 6.85843 2.47884 7.04268 2.69837 6.95995C2.9179 6.87723 2.99366 6.55574 2.86738 6.24553C2.73916 5.93345 2.45941 5.7492 2.23989 5.8338ZM25.4321 10.3553C25.4321 10.3553 22.7647 9.59767 22.2946 9.46607C21.8245 9.3307 20.4063 9.12202 20.4063 9.12202C18.4461 8.96033 17.4164 9.86276 17.2493 11.7578C17.1483 12.8539 19.0114 14.7133 19.0114 14.7133C19.0114 14.7133 21.6263 17.6048 20.4529 19.4924C19.2834 21.38 16.9657 21.7654 16.0351 25.4446C15.6155 28.2516 16.1265 29.4228 18.1236 29.9098C20.1304 30.3948 22.2441 28.8607 22.8599 26.4918C23.1416 25.3976 23.5205 23.1679 23.8429 22.2034L26.0071 17.5992C26.1451 17.1856 27.4719 15.2829 27.7323 14.4275C28.2568 12.6885 27.2272 10.8648 25.4321 10.3553ZM19.8196 8.58056C20.6316 8.64824 21.3718 7.77214 21.4748 6.62155C21.5777 5.47095 21.0027 4.48581 20.1887 4.41812C19.3766 4.35044 18.6364 5.22655 18.5335 6.37714C18.4305 7.52773 19.0075 8.51476 19.8196 8.58056ZM22.9648 8.62944C23.4777 8.74413 24.0353 8.24591 24.2101 7.52021C24.3811 6.79263 24.1072 6.11017 23.5943 5.99549C23.0814 5.8808 22.5238 6.37902 22.3509 7.10472C22.1761 7.8323 22.4539 8.51476 22.9648 8.62944ZM25.1407 9.39838C25.5079 9.51495 25.9489 9.18782 26.1276 8.66704C26.3063 8.14627 26.1509 7.62737 25.7837 7.51081C25.4165 7.39425 24.9736 7.72138 24.7949 8.24215C24.6161 8.76293 24.7716 9.28182 25.1407 9.39838ZM27.6818 9.06373C27.3612 8.90957 26.9144 9.14834 26.6832 9.59955C26.452 10.0508 26.522 10.5396 26.8425 10.6937C27.1611 10.8479 27.6099 10.6091 27.8411 10.1579C28.0722 9.70671 28.0004 9.21602 27.6818 9.06373ZM28.793 10.9889C28.5812 10.8874 28.284 11.0472 28.1286 11.3461C27.9771 11.645 28.0217 11.9722 28.2354 12.0737C28.4472 12.1771 28.7444 12.0173 28.8998 11.7165C29.0533 11.4176 29.0067 11.0923 28.793 10.9889Z" fill="white"/>
</svg>
