<svg width="43" height="42" viewBox="0 0 43 42" fill="none" xmlns="http://www.w3.org/2000/svg">
<g clip-path="url(#clip0_1_10885)">
<path d="M4.85869 25.1734C4.85869 25.1734 5.24456 23.581 3.91517 22.208C2.58446 20.8311 0.919418 20.8311 0.919418 20.8311C0.919418 20.8311 0.51373 22.7036 1.8114 24.0435C3.1104 25.3822 4.85869 25.1734 4.85869 25.1734Z" fill="white"/>
<path d="M25.1802 26.4667V11.8633H21.7392C21.7114 12.4659 21.5687 12.972 21.3084 13.3843C21.0493 13.7966 20.7177 14.1269 20.3133 14.3701C19.9063 14.6159 19.453 14.789 18.9482 14.8947C18.4447 14.9991 17.9281 15.0454 17.3955 15.0321V18.053H20.8168V26.4667H25.1802Z" fill="white"/>
<path d="M11.8076 18.7591C11.6993 18.1644 11.6358 17.5552 11.6358 16.9289C11.6358 11.2757 16.2094 6.67566 21.8507 6.62677V6.63205C27.5039 6.66905 32.0907 11.2757 32.0907 16.9355C32.0907 17.5619 32.026 18.1711 31.9189 18.7657H34.5051C34.5896 18.1658 34.6491 17.5592 34.6491 16.9355C34.6491 9.87227 28.9258 4.1226 21.8745 4.07238V4.06445C14.8113 4.10145 9.07617 9.85774 9.07617 16.9289C9.07617 17.5526 9.13564 18.1592 9.22153 18.7591H11.8076Z" fill="white"/>
<path d="M7.77956 24.8725C7.77956 24.8725 9.32434 24.0228 9.59921 22.1807C9.87407 20.3359 8.4535 19.0488 8.4535 19.0488C8.4535 19.0488 7.10165 20.0188 6.81885 21.9111C6.53738 23.8008 7.77956 24.8725 7.77956 24.8725Z" fill="white"/>
<path d="M8.79351 26.6929C8.7618 28.6037 10.1322 29.5036 10.1322 29.5036C10.1322 29.5036 11.5527 28.4596 11.5858 26.5964C11.6162 24.7331 10.041 23.6416 10.041 23.6416C10.041 23.6416 8.82523 24.7781 8.79351 26.6929Z" fill="white"/>
<path d="M12.9874 26.3379C12.9874 26.3379 11.8853 27.5853 12.032 29.4949C12.18 31.4017 13.6283 32.1655 13.6283 32.1655C13.6283 32.1655 14.9458 30.9947 14.8031 29.1354C14.6577 27.2775 12.9874 26.3379 12.9874 26.3379Z" fill="white"/>
<path d="M18.0198 34.4633C18.0198 34.4633 18.9449 32.9608 18.2722 31.2217C17.5983 29.4853 15.7271 29.0664 15.7271 29.0664C15.7271 29.0664 15.0307 30.5795 15.7218 32.3635C16.4129 34.1474 18.0198 34.4633 18.0198 34.4633Z" fill="white"/>
<path d="M5.48565 21.0941C5.48565 21.0941 6.69214 19.9841 6.34724 18.1023C6.00499 16.2219 4.62009 15.2969 4.62009 15.2969C4.62009 15.2969 3.24445 16.6302 3.5801 18.4657C3.91443 20.2986 5.48565 21.0941 5.48565 21.0941Z" fill="white"/>
<path d="M6.47663 28.7767C6.47663 28.7767 6.3762 27.1408 4.70059 26.2184C3.02366 25.2973 1.43262 25.7876 1.43262 25.7876C1.43262 25.7876 1.5978 27.6958 3.23245 28.5957C4.86445 29.4943 6.47663 28.7767 6.47663 28.7767Z" fill="white"/>
<path d="M9.31134 31.9437C9.31134 31.9437 8.85015 30.3725 7.012 29.8452C5.17121 29.3219 3.72949 30.1505 3.72949 30.1505C3.72949 30.1505 4.3149 31.9754 6.1068 32.4881C7.90002 32.9995 9.31134 31.9437 9.31134 31.9437Z" fill="white"/>
<path d="M12.4717 34.1942C12.4717 34.1942 11.5559 32.837 9.64379 32.8912C7.73032 32.9454 6.6084 34.1757 6.6084 34.1757C6.6084 34.1757 7.71843 35.739 9.58169 35.6848C11.4449 35.6293 12.4717 34.1942 12.4717 34.1942Z" fill="white"/>
<path d="M13.8239 35.114C11.9315 35.3981 10.9629 36.7499 10.9629 36.7499C10.9629 36.7499 12.2526 38.1692 14.0961 37.893C15.9408 37.6142 16.7866 36.0681 16.7866 36.0681C16.7866 36.0681 15.7122 34.8285 13.8239 35.114Z" fill="white"/>
<path d="M6.11305 22.0245L5.20256 21.9941C5.1986 22.0919 5.0202 31.9831 19.9606 36.365L20.217 35.4902C5.99015 31.317 6.09984 22.4038 6.11305 22.0245Z" fill="white"/>
<path d="M38.8626 25.1812C38.8626 25.1812 40.6135 25.39 41.9099 24.0513C43.2062 22.7114 42.8019 20.8389 42.8019 20.8389C42.8019 20.8389 41.1368 20.8389 39.8061 22.2145C38.4767 23.5862 38.8626 25.1812 38.8626 25.1812Z" fill="white"/>
<path d="M34.1232 22.1866C34.398 24.0313 35.9428 24.8784 35.9428 24.8784C35.9428 24.8784 37.1837 23.808 36.9035 21.917C36.6234 20.026 35.2702 19.0547 35.2702 19.0547C35.2702 19.0547 33.8483 20.3418 34.1232 22.1866Z" fill="white"/>
<path d="M32.1381 26.6036C32.1685 28.4655 33.5917 29.5095 33.5917 29.5095C33.5917 29.5095 34.9621 28.6109 34.9304 26.6987C34.9 24.7866 33.6856 23.6475 33.6856 23.6475C33.6856 23.6475 32.1077 24.7403 32.1381 26.6036Z" fill="white"/>
<path d="M28.9178 29.1432C28.7764 31.0025 30.0939 32.1733 30.0939 32.1733C30.0939 32.1733 31.5436 31.4095 31.6903 29.5027C31.8356 27.5958 30.7335 26.3457 30.7335 26.3457C30.7335 26.3457 29.0645 27.2853 28.9178 29.1432Z" fill="white"/>
<path d="M25.4504 31.2285C24.7791 32.9689 25.7041 34.4701 25.7041 34.4701C25.7041 34.4701 27.3123 34.1556 28.0021 32.3703C28.6906 30.585 27.9968 29.0732 27.9968 29.0732C27.9968 29.0732 26.1256 29.4921 25.4504 31.2285Z" fill="white"/>
<path d="M40.1445 18.4726C40.4802 16.6371 39.1045 15.3037 39.1045 15.3037C39.1045 15.3037 37.7197 16.2287 37.3761 18.1105C37.0325 19.9909 38.2377 21.1023 38.2377 21.1023C38.2377 21.1023 39.8102 20.3068 40.1445 18.4726Z" fill="white"/>
<path d="M39.0241 26.2272C37.3472 27.1482 37.248 28.7855 37.248 28.7855C37.248 28.7855 38.8589 29.5031 40.4936 28.6045C42.1256 27.7059 42.2921 25.7964 42.2921 25.7964C42.2921 25.7964 40.6997 25.3061 39.0241 26.2272Z" fill="white"/>
<path d="M36.7134 29.8523C34.8739 30.377 34.4141 31.9508 34.4141 31.9508C34.4141 31.9508 35.8254 33.0067 37.6186 32.4953C39.4105 31.9812 39.9959 30.1563 39.9959 30.1563C39.9959 30.1563 38.5529 29.3264 36.7134 29.8523Z" fill="white"/>
<path d="M34.0789 32.8961C32.1681 32.8419 31.251 34.2017 31.251 34.2017C31.251 34.2017 32.2751 35.6368 34.141 35.691C36.0043 35.7452 37.1143 34.1806 37.1143 34.1806C37.1143 34.1806 35.9924 32.9529 34.0789 32.8961Z" fill="white"/>
<path d="M29.9012 35.1204C28.0102 34.8363 26.9385 36.0771 26.9385 36.0771C26.9385 36.0771 27.7855 37.6233 29.629 37.9021C31.4737 38.1756 32.7622 36.7603 32.7622 36.7603C32.7622 36.7603 31.7935 35.4045 29.9012 35.1204Z" fill="white"/>
<path d="M38.5232 22.001L37.6127 22.0327C37.6246 22.4093 37.733 31.3226 23.5088 35.4971L23.7652 36.3732C38.7056 31.9899 38.5259 22.1001 38.5232 22.001Z" fill="white"/>
</g>
<defs>
<clipPath id="clip0_1_10885">
<rect width="42" height="42" fill="white" transform="translate(0.860352)"/>
</clipPath>
</defs>
</svg>
