<svg width="24" height="24" viewBox="0 0 24 24" fill="none" xmlns="http://www.w3.org/2000/svg">
<g clip-path="url(#clip0_145_3825)">
<path fill-rule="evenodd" clip-rule="evenodd" d="M18.9383 23.7615C16.1685 23.7615 13.9189 21.4979 13.9189 18.7C13.9189 15.9302 16.1685 13.6807 18.9383 13.6807C21.7221 13.6807 23.9998 15.9302 23.9998 18.7C23.9998 20.0638 23.4655 21.3292 22.5235 22.2852C21.5675 23.2413 20.288 23.7615 18.9383 23.7615ZM18.6008 21.5682C17.8838 21.4135 17.3355 20.7527 17.3355 19.9654C17.3355 19.7826 17.4901 19.642 17.6729 19.642C17.8557 19.642 17.9963 19.7826 17.9963 19.9654C17.9963 20.4996 18.4321 20.9496 18.9383 20.9496C19.4444 20.9496 19.8662 20.4996 19.8662 19.9654C19.8662 19.4452 19.4585 19.0234 18.9383 19.0234C18.0525 19.0234 17.3355 18.3063 17.3355 17.4346C17.3355 16.6754 17.8838 16.0286 18.6008 15.874V15.3257C18.6008 15.1429 18.7555 15.0023 18.9383 15.0023C19.1211 15.0023 19.2617 15.1429 19.2617 15.3257V15.874C19.9787 16.0286 20.527 16.6754 20.527 17.4346C20.527 17.6174 20.3864 17.758 20.2037 17.758C20.0209 17.758 19.8662 17.6174 19.8662 17.4346C19.8662 16.9144 19.4585 16.4926 18.9383 16.4926C18.404 16.4926 17.9963 16.9144 17.9963 17.4346C17.9963 17.9548 18.404 18.3766 18.9383 18.3766C19.81 18.3766 20.527 19.0937 20.527 19.9654C20.527 20.7527 19.9787 21.4135 19.2617 21.5682V22.1165C19.2617 22.2993 19.1211 22.454 18.9383 22.454C18.7555 22.454 18.6008 22.2993 18.6008 22.1165V21.5682Z" fill="#4F4BAD"/>
<path fill-rule="evenodd" clip-rule="evenodd" d="M5.06151 10.306C2.26362 10.306 0 8.05648 0 5.30077C0 3.93697 0.520211 2.6716 1.47627 1.71553C2.43234 0.759469 3.69772 0.239258 5.06151 0.239258C7.83128 0.239258 10.0808 2.50288 10.0808 5.30077C10.0808 8.05648 7.83128 10.306 5.06151 10.306ZM6.04569 5.01957H3.93673V5.62414H6.04569C6.22847 5.62414 6.36907 5.76474 6.36907 5.94752C6.36907 6.13029 6.22847 6.28495 6.04569 6.28495H3.93673V6.32713C3.93673 7.18478 4.62566 7.8737 5.4833 7.8737C6.32689 7.8737 6.9877 7.19884 6.9877 6.32713C6.9877 6.14435 7.1283 6.00376 7.31107 6.00376C7.49385 6.00376 7.63445 6.14435 7.63445 6.32713C7.63445 6.91764 7.42355 7.46597 7.01582 7.8737C6.60808 8.2955 6.07381 8.53451 5.4833 8.53451C4.27417 8.53451 3.27592 7.53627 3.27592 6.32713V6.28495H2.34798C2.1652 6.28495 2.01054 6.13029 2.01054 5.94752C2.01054 5.76474 2.1652 5.62414 2.34798 5.62414H3.27592V5.01957H2.34798C2.1652 5.01957 2.01054 4.86492 2.01054 4.68214C2.01054 4.49936 2.1652 4.35877 2.34798 4.35877H3.27592V4.31659C3.27592 3.09339 4.27417 2.10921 5.4833 2.10921C6.07381 2.10921 6.60808 2.33416 7.01582 2.75595C7.42355 3.17775 7.63445 3.72608 7.63445 4.31659C7.63445 4.49936 7.49385 4.63996 7.31107 4.63996C7.1283 4.63996 6.9877 4.49936 6.9877 4.31659C6.9877 3.44488 6.32689 2.77001 5.4833 2.77001C4.62566 2.77001 3.93673 3.45894 3.93673 4.31659V4.35877H6.04569C6.22847 4.35877 6.36907 4.49936 6.36907 4.68214C6.36907 4.86492 6.22847 5.01957 6.04569 5.01957Z" fill="#4F4BAD"/>
<path fill-rule="evenodd" clip-rule="evenodd" d="M11.9927 20.0076H5.01907C4.8363 20.0076 4.68164 19.867 4.68164 19.6842V10.9531C4.80818 10.9672 4.93472 10.9672 5.06125 10.9672H5.34245V19.3609H11.9927C12.1755 19.3609 12.3301 19.5015 12.3301 19.6842C12.3301 19.867 12.1755 20.0076 11.9927 20.0076Z" fill="#4F4BAD"/>
<path fill-rule="evenodd" clip-rule="evenodd" d="M18.6574 13.034V4.6403H12.0493C11.8666 4.6403 11.7119 4.4997 11.7119 4.31693C11.7119 4.13415 11.8666 3.97949 12.0493 3.97949H18.9808C19.1636 3.97949 19.3042 4.13415 19.3042 4.31693V13.048C19.1917 13.034 19.0652 13.034 18.9386 13.034C18.8402 13.034 18.7418 13.034 18.6574 13.034Z" fill="#4F4BAD"/>
<path fill-rule="evenodd" clip-rule="evenodd" d="M11.2903 20.9492C11.22 20.9492 11.1637 20.9211 11.0934 20.8789C10.9528 20.7805 10.9247 20.5696 11.0372 20.429L11.7402 19.487C11.8386 19.3464 12.0495 19.3182 12.1901 19.4167C12.3447 19.5291 12.3729 19.74 12.2604 19.8806L11.5574 20.8226C11.4871 20.907 11.3887 20.9492 11.2903 20.9492Z" fill="#4F4BAD"/>
<path fill-rule="evenodd" clip-rule="evenodd" d="M11.9932 20.0076C11.8948 20.0076 11.8105 19.9654 11.7402 19.8811L11.0372 18.9953C10.9247 18.8547 10.9528 18.6438 11.0934 18.5313C11.234 18.4188 11.4449 18.447 11.5574 18.5876L12.2604 19.4874C12.3729 19.628 12.3447 19.8248 12.2041 19.9373C12.1479 19.9935 12.0635 20.0076 11.9932 20.0076Z" fill="#4F4BAD"/>
<path fill-rule="evenodd" clip-rule="evenodd" d="M12.7941 5.52567C12.6957 5.52567 12.6113 5.49755 12.541 5.41319L11.7959 4.52742C11.6693 4.38683 11.6975 4.17593 11.824 4.06345C11.9646 3.93691 12.1755 3.96503 12.288 4.09157L13.0472 4.99139C13.1597 5.13199 13.1456 5.32883 13.005 5.45537C12.9488 5.51161 12.8644 5.52567 12.7941 5.52567Z" fill="#4F4BAD"/>
<path fill-rule="evenodd" clip-rule="evenodd" d="M12.0494 4.63962C11.9791 4.63962 11.8948 4.6115 11.8385 4.56932C11.6979 4.45684 11.6698 4.24594 11.7823 4.10534L12.5415 3.1774C12.654 3.0368 12.8508 3.00868 12.9914 3.12116C13.132 3.23364 13.1602 3.44454 13.0477 3.58513L12.3025 4.51308C12.2322 4.59744 12.1338 4.63962 12.0494 4.63962Z" fill="#4F4BAD"/>
</g>
<defs>
<clipPath id="clip0_145_3825">
<rect width="24" height="24" fill="white"/>
</clipPath>
</defs>
</svg>
