<svg width="32" height="33" viewBox="0 0 32 33" fill="none" xmlns="http://www.w3.org/2000/svg">
<path d="M19.18 26.5973V28.0073C19.135 28.2323 18.09 28.9173 16 28.9173C14.035 28.9173 12.88 28.2673 12.82 27.9973V26.5973C13.8065 27.0937 14.8956 27.3522 16 27.3522C17.1044 27.3522 18.1935 27.0937 19.18 26.5973ZM10.395 24.6323C9.9921 24.6847 9.58629 24.7114 9.18 24.7123C8.09019 24.731 7.00806 24.5268 6 24.1123V26.2423C6.045 26.4623 7.095 27.1623 9.18 27.1623C9.90431 27.1698 10.6257 27.0686 11.32 26.8623V25.5973C10.9842 25.3032 10.6747 24.9803 10.395 24.6323ZM8.845 20.1973C8.845 20.1973 8.845 20.1973 8.845 20.1673C7.86843 20.1519 6.90341 19.9535 6 19.5823V22.2923C6.05 22.5173 7.1 23.2123 9.18 23.2123H9.515C9.07344 22.2685 8.84472 21.2393 8.845 20.1973ZM9.18 15.6473C8.08052 15.6703 6.99108 15.4339 6 14.9573V17.7623C6.05 17.9773 7.05 18.6373 9 18.6723C9.25487 17.5032 9.8019 16.4177 10.59 15.5173C10.1247 15.6014 9.65288 15.6449 9.18 15.6473ZM9.18 11.7173C7.075 11.7173 6.04 12.4223 6 12.6423V12.9173C6 13.3423 7.21 14.1273 9.18 14.1273C9.90959 14.1368 10.6348 14.0131 11.32 13.7623V12.0223C10.6265 11.8117 9.90474 11.7088 9.18 11.7173ZM16 5.2373C13.9 5.2373 12.86 5.9373 12.82 6.1623V6.4523C12.82 6.8773 14.025 7.6623 15.995 7.6623C17.965 7.6623 19.18 6.8773 19.18 6.4523V6.1573C19.14 5.9173 18.105 5.2373 16 5.2373ZM16 9.1623C14.9017 9.18928 13.813 8.95268 12.825 8.4723V10.4723C12.825 10.9023 14.03 11.6873 16 11.6873C17.97 11.6873 19.185 10.9023 19.185 10.4723V8.4723C18.1928 8.95094 17.1013 9.18741 16 9.1623ZM12.825 12.4773V13.8023C13.5232 13.4514 14.2753 13.2198 15.05 13.1173C14.2733 13.0447 13.517 12.8276 12.82 12.4773H12.825ZM16.96 13.1173C17.7347 13.2198 18.4868 13.4514 19.185 13.8023V12.4773C18.4871 12.8253 17.7312 13.0423 16.955 13.1173H16.96ZM21.66 20.1973C21.66 21.3155 21.3285 22.4087 20.7073 23.3385C20.0861 24.2684 19.2033 24.9932 18.1702 25.4214C17.1372 25.8495 16.0004 25.9618 14.9036 25.744C13.8068 25.5262 12.7991 24.9881 12.0081 24.1978C11.217 23.4074 10.678 22.4002 10.4593 21.3036C10.2405 20.207 10.3518 19.0701 10.779 18.0367C11.2063 17.0033 11.9303 16.1198 12.8596 15.4978C13.7889 14.8758 14.8818 14.5433 16 14.5423C17.4994 14.5436 18.937 15.1398 19.9972 16.2001C21.0575 17.2603 21.6537 18.6979 21.655 20.1973H21.66ZM15.265 18.6423C15.2897 18.4635 15.3773 18.2994 15.5119 18.1792C15.6466 18.0591 15.8197 17.9908 16.0001 17.9866C16.1805 17.9824 16.3566 18.0425 16.4967 18.1563C16.6369 18.27 16.732 18.4299 16.765 18.6073C16.7771 18.7058 16.8086 18.8009 16.8575 18.8873C16.9064 18.9736 16.9718 19.0495 17.0501 19.1105C17.1283 19.1716 17.2178 19.2166 17.3134 19.2431C17.4091 19.2696 17.509 19.277 17.6075 19.2648C17.706 19.2527 17.8011 19.2212 17.8875 19.1723C17.9738 19.1234 18.0497 19.058 18.1107 18.9797C18.1718 18.9015 18.2168 18.812 18.2433 18.7164C18.2698 18.6207 18.2771 18.5208 18.265 18.4223C18.2267 18.1045 18.1208 17.7986 17.9543 17.5252C17.7879 17.2518 17.5648 17.0172 17.3 16.8373C17.1298 16.7272 16.9467 16.6382 16.755 16.5723V15.9973C16.755 15.7984 16.676 15.6076 16.5353 15.467C16.3947 15.3263 16.2039 15.2473 16.005 15.2473C15.8061 15.2473 15.6153 15.3263 15.4747 15.467C15.334 15.6076 15.255 15.7984 15.255 15.9973V16.5873C14.8397 16.733 14.4763 16.9973 14.2096 17.3474C13.943 17.6976 13.785 18.1182 13.755 18.5573C13.7306 19.0878 13.8913 19.6102 14.2096 20.0353C14.528 20.4603 14.9841 20.7615 15.5 20.8873C15.8024 20.9347 16.0979 21.0186 16.38 21.1373C16.4585 21.1906 16.5253 21.2593 16.5763 21.3394C16.6272 21.4194 16.6612 21.509 16.6762 21.6027C16.6912 21.6964 16.6868 21.7922 16.6634 21.8841C16.64 21.976 16.598 22.0622 16.54 22.1373C16.4575 22.2526 16.3444 22.3426 16.2135 22.397C16.0826 22.4514 15.9391 22.4681 15.7991 22.4452C15.6592 22.4223 15.5285 22.3608 15.4217 22.2675C15.315 22.1742 15.2364 22.0529 15.195 21.9173C15.1287 21.7283 14.99 21.5735 14.8095 21.4867C14.629 21.4 14.4215 21.3885 14.2325 21.4548C14.0435 21.5211 13.8886 21.6598 13.8019 21.8403C13.7152 22.0208 13.7037 22.2283 13.77 22.4173C13.8876 22.7593 14.085 23.0683 14.3459 23.3187C14.6067 23.5691 14.9235 23.7538 15.27 23.8573V24.4173C15.27 24.5158 15.2894 24.6133 15.3271 24.7043C15.3648 24.7953 15.42 24.878 15.4897 24.9476C15.5593 25.0173 15.642 25.0725 15.733 25.1102C15.824 25.1479 15.9215 25.1673 16.02 25.1673C16.1185 25.1673 16.216 25.1479 16.307 25.1102C16.398 25.0725 16.4807 25.0173 16.5503 24.9476C16.62 24.878 16.6752 24.7953 16.7129 24.7043C16.7506 24.6133 16.77 24.5158 16.77 24.4173V23.7823C17.1494 23.6314 17.4823 23.383 17.735 23.0623C17.937 22.7934 18.0771 22.4832 18.1454 22.1539C18.2137 21.8246 18.2084 21.4843 18.13 21.1573C18.0632 20.8849 17.9425 20.6286 17.7751 20.4037C17.6076 20.1787 17.3968 19.9895 17.155 19.8473C16.8666 19.685 16.5517 19.5749 16.225 19.5223C16.125 19.5223 16.025 19.4823 15.925 19.4523C15.7384 19.4142 15.5707 19.3127 15.4504 19.1651C15.3301 19.0175 15.2646 18.8328 15.265 18.6423ZM22.82 11.7173C22.0957 11.7098 21.3743 11.811 20.68 12.0173V13.7823C21.3652 14.0331 22.0904 14.1568 22.82 14.1473C23.6192 14.1636 24.413 14.012 25.15 13.7023C25.7 13.4523 26 13.1473 26 12.9373V12.6423C25.96 12.4173 24.925 11.7173 22.82 11.7173ZM22.82 15.6473C22.3421 15.6455 21.8653 15.602 21.395 15.5173C22.1885 16.4161 22.7408 17.5017 23 18.6723C24.97 18.6373 25.97 17.9773 26 17.7573V14.9573C25.0089 15.4339 23.9195 15.6703 22.82 15.6473ZM23.155 20.1473V20.1773C23.1531 21.2142 22.9244 22.2381 22.485 23.1773H22.82C24.905 23.1773 25.95 22.4773 26 22.2573V19.5823C25.0966 19.9536 24.1316 20.152 23.155 20.1673V20.1473ZM22.82 24.6923C22.4122 24.6928 22.0047 24.6678 21.6 24.6173C21.3234 24.9648 21.0154 25.2861 20.68 25.5773V26.8423C21.3743 27.0486 22.0957 27.1498 22.82 27.1423C24.905 27.1423 25.955 26.4423 26 26.2223V24.1123C24.9919 24.5268 23.9098 24.731 22.82 24.7123V24.6923Z" fill="#4F4BAD"/>
</svg>
