<svg width="34" height="34" viewBox="0 0 34 34" fill="none" xmlns="http://www.w3.org/2000/svg">
<path d="M16.9997 30.4701C20.572 30.4701 23.998 29.051 26.524 26.525C29.05 23.999 30.4691 20.573 30.4691 17.0007C30.4691 13.4283 29.05 10.0023 26.524 7.47635C23.998 4.95034 20.572 3.53125 16.9997 3.53125C13.4274 3.53125 10.0014 4.95034 7.47537 7.47635C4.94937 10.0023 3.53027 13.4283 3.53027 17.0007C3.53027 20.573 4.94937 23.999 7.47537 26.525C10.0014 29.051 13.4274 30.4701 16.9997 30.4701ZM16.9997 11.5287C15.8379 11.5287 14.8951 12.4716 14.8951 13.6333V13.8135C14.8951 14.1484 14.762 14.4695 14.5252 14.7064C14.2884 14.9432 13.9672 15.0762 13.6323 15.0762C13.2974 15.0762 12.9762 14.9432 12.7394 14.7064C12.5026 14.4695 12.3696 14.1484 12.3696 13.8135V13.6333C12.3696 12.4053 12.8574 11.2276 13.7257 10.3593C14.594 9.49101 15.7717 9.00319 16.9997 9.00319H17.195C18.1008 9.00361 18.9847 9.28137 19.7279 9.79911C20.4711 10.3168 21.038 11.0497 21.3522 11.8992C21.6665 12.7487 21.7131 13.6741 21.4858 14.5509C21.2585 15.4277 20.7682 16.2138 20.0808 16.8037L18.7844 17.9149C18.6217 18.0561 18.491 18.2303 18.401 18.426C18.311 18.6217 18.2638 18.8343 18.2624 19.0497V19.9471C18.2624 20.282 18.1294 20.6032 17.8926 20.84C17.6558 21.0768 17.3346 21.2098 16.9997 21.2098C16.6648 21.2098 16.3436 21.0768 16.1068 20.84C15.87 20.6032 15.7369 20.282 15.7369 19.9471V19.0497C15.7369 17.8762 16.2488 16.7616 17.1394 15.9989L18.4375 14.8876C18.7337 14.6338 18.9451 14.2952 19.0431 13.9176C19.1411 13.54 19.121 13.1415 18.9857 12.7756C18.8503 12.4097 18.6062 12.094 18.286 11.8711C17.9659 11.6482 17.5851 11.5287 17.195 11.5287H16.9997ZM18.6833 23.7354C18.6833 24.1819 18.506 24.6101 18.1902 24.9259C17.8745 25.2416 17.4462 25.419 16.9997 25.419C16.5531 25.419 16.1249 25.2416 15.8091 24.9259C15.4934 24.6101 15.316 24.1819 15.316 23.7354C15.316 23.2888 15.4934 22.8606 15.8091 22.5448C16.1249 22.2291 16.5531 22.0517 16.9997 22.0517C17.4462 22.0517 17.8745 22.2291 18.1902 22.5448C18.506 22.8606 18.6833 23.2888 18.6833 23.7354Z" fill="#4F4BAD"/>
</svg>
