<svg width="32" height="33" viewBox="0 0 32 33" fill="none" xmlns="http://www.w3.org/2000/svg">
<path d="M6.9925 17.4173C6.99422 16.289 7.41941 15.2024 8.18393 14.3726C8.94846 13.5428 9.99661 13.0302 11.121 12.9363C10.4847 12.337 9.7199 11.891 8.885 11.6323C9.62474 11.3135 10.2319 10.7494 10.6041 10.035C10.9762 9.32064 11.0906 8.49977 10.9278 7.71089C10.7651 6.922 10.3353 6.21339 9.71079 5.7046C9.08634 5.1958 8.30549 4.91797 7.5 4.91797C6.69451 4.91797 5.91366 5.1958 5.28921 5.7046C4.66475 6.21339 4.23489 6.922 4.07217 7.71089C3.90944 8.49977 4.0238 9.32064 4.39594 10.035C4.76809 10.7494 5.37526 11.3135 6.115 11.6323C3.42 12.4873 2 14.8223 2 17.9173H7.0235C7.00384 17.7513 6.99349 17.5844 6.9925 17.4173Z" fill="#4F4BAD"/>
<path d="M10.1072 20.633C9.28804 20.2786 8.63528 19.6245 8.28239 18.8047C7.9295 17.9849 7.90316 17.0612 8.20876 16.2226C8.51435 15.384 9.12879 14.6938 9.9264 14.2932C10.724 13.8926 11.6445 13.8119 12.4997 14.0675C12.0556 14.4617 11.6943 14.9402 11.4365 15.4751C11.1787 16.01 11.0297 16.5907 10.998 17.1837C10.9663 17.7766 11.0527 18.3699 11.252 18.9292C11.4513 19.4886 11.7597 20.0028 12.1592 20.442C10.1257 21.729 8.99219 24.005 8.99219 26.9175H5.99219C5.99219 23.823 7.41719 21.493 10.1072 20.633Z" fill="#4F4BAD"/>
<path d="M17.3855 20.6328C20.0755 21.4928 21.5 23.8228 21.5 26.9173H10.5C10.5 23.8223 11.92 21.4873 14.615 20.6323C13.8753 20.3135 13.2681 19.7494 12.8959 19.035C12.5238 18.3206 12.4094 17.4998 12.5722 16.7109C12.7349 15.922 13.1647 15.2134 13.7892 14.7046C14.4137 14.1958 15.1945 13.918 16 13.918C16.8055 13.918 17.5863 14.1958 18.2108 14.7046C18.8353 15.2134 19.2651 15.922 19.4278 16.7109C19.5906 17.4998 19.4762 18.3206 19.1041 19.035C18.7319 19.7494 18.1247 20.3135 17.385 20.6323L17.3855 20.6328Z" fill="#4F4BAD"/>
<path d="M23.115 11.6323C22.2781 11.8892 21.5116 12.3354 20.875 12.9363C21.4762 12.9814 22.062 13.1478 22.5972 13.4253C23.1324 13.7028 23.6059 14.0858 23.9892 14.5512C24.3724 15.0166 24.6575 15.5547 24.8273 16.1332C24.9971 16.7117 25.048 17.3186 24.977 17.9173H30C30 14.8223 28.575 12.4923 25.885 11.6323C26.6247 11.3135 27.2319 10.7494 27.6041 10.035C27.9762 9.32064 28.0906 8.49977 27.9278 7.71089C27.7651 6.922 27.3353 6.21339 26.7108 5.7046C26.0863 5.1958 25.3055 4.91797 24.5 4.91797C23.6945 4.91797 22.9137 5.1958 22.2892 5.7046C21.6647 6.21339 21.2349 6.922 21.0722 7.71089C20.9094 8.49977 21.0238 9.32064 21.3959 10.035C21.7681 10.7494 22.3753 11.3135 23.115 11.6323Z" fill="#4F4BAD"/>
<path d="M24.85 22.7791C24.1342 21.7518 23.0932 20.9957 21.895 20.6326C22.7159 20.279 23.3705 19.6248 23.7245 18.8041C24.0785 17.9833 24.1051 17.0582 23.7987 16.2185C23.4924 15.3788 22.8765 14.6881 22.0771 14.2881C21.2778 13.888 20.3558 13.809 19.5 14.0671C19.9439 14.4614 20.3052 14.9398 20.5629 15.4747C20.8206 16.0097 20.9696 16.5904 21.0012 17.1833C21.0328 17.7762 20.9465 18.3695 20.7472 18.9288C20.5478 19.4881 20.2395 20.0023 19.84 20.4416C20.6117 20.9417 21.2728 21.5945 21.7825 22.3598C22.2923 23.1251 22.6399 23.9868 22.804 24.8916C23.1945 23.9542 23.9255 23.1994 24.85 22.7791Z" fill="#4F4BAD"/>
<path d="M26.5 23.417C25.9067 23.417 25.3266 23.5929 24.8333 23.9226C24.3399 24.2522 23.9554 24.7208 23.7284 25.2689C23.5013 25.8171 23.4419 26.4203 23.5576 27.0023C23.6734 27.5842 23.9591 28.1188 24.3787 28.5383C24.7982 28.9579 25.3328 29.2436 25.9147 29.3593C26.4967 29.4751 27.0999 29.4157 27.6481 29.1886C28.1962 28.9616 28.6648 28.577 28.9944 28.0837C29.3241 27.5904 29.5 27.0103 29.5 26.417C29.5 25.6213 29.1839 24.8583 28.6213 24.2957C28.0587 23.7331 27.2957 23.417 26.5 23.417ZM27.5 26.917H27V27.417C27 27.5496 26.9473 27.6768 26.8536 27.7705C26.7598 27.8643 26.6326 27.917 26.5 27.917C26.3674 27.917 26.2402 27.8643 26.1464 27.7705C26.0527 27.6768 26 27.5496 26 27.417V26.917H25.5C25.3674 26.917 25.2402 26.8643 25.1464 26.7705C25.0527 26.6768 25 26.5496 25 26.417C25 26.2844 25.0527 26.1572 25.1464 26.0634C25.2402 25.9697 25.3674 25.917 25.5 25.917H26V25.417C26 25.2844 26.0527 25.1572 26.1464 25.0634C26.2402 24.9697 26.3674 24.917 26.5 24.917C26.6326 24.917 26.7598 24.9697 26.8536 25.0634C26.9473 25.1572 27 25.2844 27 25.417V25.917H27.5C27.6326 25.917 27.7598 25.9697 27.8536 26.0634C27.9473 26.1572 28 26.2844 28 26.417C28 26.5496 27.9473 26.6768 27.8536 26.7705C27.7598 26.8643 27.6326 26.917 27.5 26.917Z" fill="#4F4BAD"/>
<path d="M14.0907 13.3484C14.6872 13.0645 15.3394 12.9172 16 12.9172C16.6606 12.9172 17.3128 13.0645 17.9093 13.3484C18.5416 12.9369 19.024 12.332 19.2846 11.6239C19.5452 10.9159 19.57 10.1426 19.3554 9.41926C19.1407 8.69596 18.6981 8.06138 18.0934 7.61011C17.4888 7.15884 16.7545 6.91504 16 6.91504C15.2455 6.91504 14.5112 7.15884 13.9066 7.61011C13.3019 8.06138 12.8593 8.69596 12.6446 9.41926C12.43 10.1426 12.4548 10.9159 12.7154 11.6239C12.976 12.332 13.4584 12.9369 14.0907 13.3484Z" fill="#4F4BAD"/>
</svg>
