<svg width="32" height="32" viewBox="0 0 32 32" fill="none" xmlns="http://www.w3.org/2000/svg">
<path d="M30.6663 17.333V14.6663H26.573C26.3318 12.7708 25.5858 10.9749 24.413 9.46634L27.333 6.57301L25.4263 4.66634L22.533 7.58634C21.0244 6.41358 19.2285 5.66759 17.333 5.42634V1.33301H14.6663V5.42634C12.773 5.66634 10.973 6.41301 9.46634 7.58634L6.57301 4.66634L4.66634 6.57301L7.58634 9.46634C6.41358 10.9749 5.66759 12.7708 5.42634 14.6663H1.33301V17.333H5.42634C5.66634 19.2263 6.41301 21.0263 7.58634 22.533L4.66634 25.4263L6.57301 27.333L9.46634 24.413C10.973 25.5863 12.773 26.333 14.6663 26.573V30.6663H17.333V26.573C19.2263 26.333 21.0263 25.5863 22.533 24.413L25.4263 27.333L27.333 25.4263L24.413 22.533C25.5858 21.0244 26.3318 19.2285 26.573 17.333H30.6663ZM15.9997 10.6663C14.5852 10.6663 13.2286 11.2282 12.2284 12.2284C11.2282 13.2286 10.6663 14.5852 10.6663 15.9997H7.99967C7.99967 13.8779 8.84253 11.8431 10.3428 10.3428C11.8431 8.84253 13.8779 7.99967 15.9997 7.99967V10.6663Z" fill="white"/>
</svg>
