<svg width="28" height="29" viewBox="0 0 28 29" fill="none" xmlns="http://www.w3.org/2000/svg">
<g clip-path="url(#clip0_145_3874)">
<path d="M27.1613 17.9853L24.5876 15.9728C24.6203 15.6625 24.6483 15.2997 24.6483 14.9158C24.6483 14.532 24.6214 14.1692 24.5876 13.8588L27.1636 11.8452C27.642 11.4672 27.7726 10.7963 27.4681 10.2375L24.7918 5.60699C24.5059 5.08434 23.8794 4.81599 23.2436 5.05049L20.2068 6.26964C19.6246 5.84964 19.0144 5.49499 18.3833 5.21149L17.9213 1.99034C17.8454 1.37899 17.3134 0.916992 16.6846 0.916992H11.318C10.6891 0.916992 10.1583 1.37899 10.0836 1.98099L9.62046 5.21384C9.00911 5.4892 8.40831 5.8392 7.80046 6.27199L4.75546 5.04934C4.18491 4.82884 3.50241 5.07614 3.21891 5.59649L0.53911 10.2328C0.222962 10.7672 0.35361 11.4613 0.842462 11.8487L3.41611 13.8612C3.37526 14.2543 3.35546 14.5962 3.35546 14.917C3.35546 15.2379 3.37531 15.5797 3.41611 15.974L0.84011 17.9877C0.361759 18.3668 0.232259 19.0377 0.536759 19.5953L3.21311 24.2258C3.49896 24.7473 4.11961 25.018 4.76126 24.7823L7.79811 23.5632C8.37911 23.982 8.98926 24.3367 9.62046 24.6213L10.0825 27.8413C10.1583 28.455 10.6891 28.917 11.3191 28.917H16.6858C17.3146 28.917 17.8466 28.455 17.9213 27.853L18.3844 24.6213C18.9958 24.3448 19.5954 23.996 20.2044 23.562L23.2494 24.7846C23.3964 24.8418 23.5493 24.871 23.7068 24.871C24.1594 24.871 24.5759 24.6236 24.7859 24.2386L27.4739 19.5836C27.7726 19.0376 27.6419 18.3668 27.1613 17.9853ZM14.0013 19.5836C11.4276 19.5836 9.33461 17.4906 9.33461 14.917C9.33461 12.3433 11.4276 10.2503 14.0013 10.2503C16.5749 10.2503 18.6679 12.3433 18.6679 14.917C18.6679 17.4906 16.5749 19.5836 14.0013 19.5836Z" fill="#4F4BAD"/>
</g>
<defs>
<clipPath id="clip0_145_3874">
<rect width="28" height="28" fill="white" transform="translate(0 0.916992)"/>
</clipPath>
</defs>
</svg>
