<svg width="24" height="24" viewBox="0 0 24 24" fill="none" xmlns="http://www.w3.org/2000/svg">
<path d="M21 2H3C2.60254 2.00119 2.2217 2.1596 1.94065 2.44065C1.6596 2.7217 1.50119 3.10254 1.5 3.5V8.5C1.50119 8.89746 1.6596 9.2783 1.94065 9.55935C2.2217 9.8404 2.60254 9.99881 3 10H3.5V6C3.5 5.73478 3.60536 5.48043 3.79289 5.29289C3.98043 5.10536 4.23478 5 4.5 5H20C20.1326 5 20.2598 5.05268 20.3536 5.14645C20.4473 5.24021 20.5 5.36739 20.5 5.5V10H21C21.3975 9.99881 21.7783 9.8404 22.0593 9.55935C22.3404 9.2783 22.4988 8.89746 22.5 8.5V3.5C22.4988 3.10254 22.3404 2.7217 22.0593 2.44065C21.7783 2.1596 21.3975 2.00119 21 2Z" fill="#4F4BAD"/>
<path d="M20.5 5V5.5C20.5 5.36739 20.4473 5.24021 20.3536 5.14645C20.2598 5.05268 20.1326 5 20 5H20.5Z" fill="#4F4BAD"/>
<path d="M4.5 7V20.5C4.50119 20.8975 4.6596 21.2783 4.94065 21.5593C5.2217 21.8404 5.60254 21.9988 6 22H18C18.3975 21.9988 18.7783 21.8404 19.0593 21.5593C19.3404 21.2783 19.4988 20.8975 19.5 20.5V7C19.5 6.73478 19.3946 6.48043 19.2071 6.29289C19.0196 6.10536 18.7652 6 18.5 6H5.5C5.23478 6 4.98043 6.10536 4.79289 6.29289C4.60536 6.48043 4.5 6.73478 4.5 7ZM14.3535 14.3535L12.3535 16.3535C12.2597 16.4472 12.1326 16.4999 12 16.4999C11.8674 16.4999 11.7403 16.4472 11.6465 16.3535L9.6465 14.3535C9.55542 14.2592 9.50502 14.1329 9.50616 14.0018C9.5073 13.8707 9.55989 13.7453 9.65259 13.6526C9.74529 13.5599 9.8707 13.5073 10.0018 13.5062C10.1329 13.505 10.2592 13.5554 10.3535 13.6465L11.5 14.793V11C11.5 10.8674 11.5527 10.7402 11.6464 10.6464C11.7402 10.5527 11.8674 10.5 12 10.5C12.1326 10.5 12.2598 10.5527 12.3536 10.6464C12.4473 10.7402 12.5 10.8674 12.5 11V14.793L13.6465 13.6465C13.7408 13.5554 13.8671 13.505 13.9982 13.5062C14.1293 13.5073 14.2547 13.5599 14.3474 13.6526C14.4401 13.7453 14.4927 13.8707 14.4938 14.0018C14.495 14.1329 14.4446 14.2592 14.3535 14.3535Z" fill="#4F4BAD"/>
</svg>
