<svg  viewBox="0 0 113 50" fill="none" xmlns="http://www.w3.org/2000/svg">
<path d="M100.037 34.3281C102.311 34.299 104.584 34.2894 106.857 34.2994C108.843 34.2969 110.832 34.2594 112.817 34.2919C112.426 36.5069 112.28 37.8894 111.22 39.9581C108.997 44.2988 104.952 47.575 100.317 49.0656C98.7721 49.566 97.1667 49.8582 95.5437 49.9344C93.4576 50.0406 91.3627 49.9875 89.2747 49.9806L80.1562 49.9738L50.4987 49.9638L28.7808 49.9663L21.8281 49.9894C20.1614 49.9944 18.4833 50.0356 16.821 49.8881C14.2621 49.6606 11.8753 48.8944 9.599 47.7319C8.91096 47.3406 8.2317 46.9406 7.58007 46.4913C3.08581 43.39 1.14033 39.6144 0.183594 34.3825L13.35 34.4281C14.0581 35.5 14.8284 36.4931 15.8284 37.3125C16.4612 37.8306 17.1487 38.2787 17.8788 38.6488C18.4864 38.9582 19.121 39.2121 19.7747 39.4075C20.1665 39.5254 20.5644 39.622 20.9668 39.6969C21.235 39.747 21.5049 39.7875 21.776 39.8181C23.4289 40.01 25.0844 39.9244 26.7417 39.9138L33.1984 39.9063H56.7665L80.5027 39.9106L87.7272 39.9163C88.9193 39.9213 90.1448 40.0275 91.3325 39.9088C95.3365 39.5081 97.6323 37.2856 100.037 34.3281ZM17.3822 0.0850189C18.1437 -0.0793561 19.1801 0.0437689 19.9711 0.0518939C21.3933 0.0668939 22.8152 0.0718939 24.2369 0.0668939L43.8361 0.0662689L78.8454 0.0712689L89.9477 0.0625189C92.2503 0.0618939 94.6101 -0.0399812 96.9034 0.194394C97.9124 0.307914 98.9102 0.504419 99.8866 0.781894C100.538 0.966656 101.178 1.18742 101.804 1.44314C102.429 1.69977 103.041 1.98977 103.635 2.31189C103.932 2.47314 104.225 2.64273 104.512 2.82064C107.935 4.94377 110.617 8.15377 111.877 11.9913C112.256 13.1444 112.453 14.3381 112.732 15.5163C111.408 15.5625 110.056 15.4938 108.73 15.4881C105.756 15.4702 102.782 15.4798 99.8088 15.5169C98.8012 13.4169 96.7841 11.7356 94.7351 10.7044C93.5417 10.1244 92.261 9.70689 90.9301 9.62564C89.539 9.54064 88.1315 9.59127 86.7378 9.59439L79.6804 9.60252H57.2957L33.6052 9.60189C31.7527 9.60252 29.8976 9.62252 28.045 9.59689C25.4761 9.56127 22.7779 9.30627 20.2712 9.98752C17.2171 10.8169 14.7662 12.7756 13.1943 15.4944C8.88522 15.4838 4.56737 15.5694 0.260183 15.5031C0.747966 12.2738 1.85725 9.32689 3.95779 6.77814C7.44573 2.54814 12.009 0.618769 17.3822 0.0850189ZM19.7025 19.795C20.195 19.7474 20.6921 19.7819 21.1733 19.8969C21.8112 20.0531 22.4006 20.385 22.8935 20.8131C24.3574 22.0831 26.4894 25.4806 27.5528 27.2156C27.6043 24.7863 27.5415 22.3475 27.544 19.9175L30.703 19.975C30.7068 21.9481 30.9717 28.0988 30.2981 29.525C29.9804 30.1981 29.3771 30.5275 28.6991 30.7575C28.3212 30.8513 27.8542 30.8638 27.4687 30.8181C24.7812 30.5025 22.3605 25.6338 20.7 23.5819C20.6841 25.9077 20.704 28.2331 20.7596 30.5581L17.5504 30.5594C17.5492 29.0106 17.5567 27.46 17.5354 25.9113C17.5197 24.7556 17.4381 23.58 17.5529 22.4281C17.6057 21.9019 17.6892 21.3231 17.9736 20.8675C18.3904 20.1988 18.9623 19.9525 19.7025 19.795ZM51.5659 19.8594C51.9075 19.8234 52.2522 19.8312 52.5917 19.8825C52.9747 19.945 53.3262 20.0706 53.6338 20.31C54.6584 21.1081 55.4506 22.3006 56.2554 23.3113C57.2511 24.5613 58.2612 25.8013 59.1985 27.0963C59.1338 26.0669 59.1589 25.02 59.1495 23.9888C59.1369 22.65 59.0497 21.245 59.2876 19.9244C60.2387 19.8581 61.1967 19.9031 62.149 19.9231C62.1156 21.59 62.1083 23.2573 62.1271 24.9244C62.1471 26.2069 62.2495 27.5531 62.0913 28.8275C62.041 29.2331 61.9594 29.6213 61.7039 29.9525C61.3875 30.365 60.9481 30.5769 60.4408 30.6444C59.8802 30.6588 59.2857 30.7081 58.7276 30.6444C58.3955 30.6069 58.1061 30.5344 57.8425 30.3256C56.8204 29.5163 55.9246 28.1225 55.084 27.1113C54.1486 25.9844 53.1385 24.9069 52.2433 23.7488C52.1868 26.02 52.2452 28.2975 52.2157 30.57C51.1673 30.6888 50.0618 30.6156 49.0084 30.5806L49.0052 25.7494C48.9983 24.6769 48.9161 23.545 49.0643 22.4825C49.1364 21.9625 49.2802 21.4175 49.579 20.9794C50.0423 20.2994 50.79 20.0131 51.5659 19.8594ZM97.346 19.8025C98.39 19.8294 99.434 19.795 100.479 19.8306C99.6129 20.9994 98.5595 22.0719 97.5977 23.1663C97.0007 23.8463 96.4477 24.5925 95.8199 25.2406C97.228 27.0956 99.0856 28.6344 100.41 30.5531C99.2463 30.7594 98.0209 30.6513 96.8419 30.6406C95.7044 29.58 94.7037 28.3819 93.5599 27.3313C92.4751 28.3663 91.4418 29.4563 90.3959 30.53C89.9012 30.5581 89.3983 30.5425 88.9024 30.5444L86.0479 30.5469C86.6223 29.8119 87.3191 29.15 87.9701 28.4825C89.0437 27.379 90.1258 26.2837 91.2164 25.1969C90.6413 24.4006 89.8742 23.7313 89.1905 23.0275C88.1943 22.0013 87.2269 20.9463 86.191 19.9594C87.5765 19.8581 89.0418 19.9406 90.4323 19.9738C91.5227 20.9906 92.5567 22.1 93.5718 23.1913L93.6076 23.1475C94.1676 22.4994 96.3403 20.2231 96.9869 19.8769C97.0987 19.8169 97.2217 19.8119 97.346 19.8025ZM32.4376 19.9225C34.2204 19.8806 36.014 19.9206 37.7982 19.9206C39.3582 19.9206 40.9364 19.8725 42.4939 19.9506C42.5234 20.8656 42.5856 21.7969 42.4789 22.7069C40.534 23.0906 37.6588 22.7594 35.5877 22.7894L35.599 24.5738C37.4322 24.5931 39.2672 24.58 41.1009 24.5769C41.4016 24.58 41.7023 24.5944 42.0024 24.6038C42.0004 25.5195 41.9866 26.4352 41.9609 27.3506C39.8617 27.4338 37.7341 27.3438 35.6298 27.3569L35.6373 30.5613L32.4338 30.5456C32.3867 27.0069 32.4639 23.4625 32.4376 19.9225ZM68.9403 19.9188L75.8999 19.9156C77.3827 19.9169 78.9006 19.8544 80.3784 19.9719C80.4243 20.6719 80.5844 22.0975 80.1267 22.6463C79.9905 22.8088 79.799 22.8931 79.5943 22.9331C79.0469 23.0406 78.3407 22.9056 77.7801 22.8844C77.286 22.8656 76.7932 22.8875 76.3004 22.91C76.2382 24.2488 76.2847 25.6038 76.2878 26.945C76.3439 27.7188 76.3697 28.4938 76.3651 29.27C76.3613 29.665 76.3199 30.1013 76.0072 30.3806C75.4755 30.8575 73.6957 30.5794 72.9989 30.4925C72.8759 27.9769 72.9518 25.4631 72.9807 22.9463C71.6272 22.9675 70.28 23.0531 68.934 22.8725C68.7934 21.8738 68.7865 20.9163 68.9403 19.9188ZM81.8556 19.9244C82.7119 19.9056 84.1282 19.7125 84.8978 20.0881C85.1169 20.6031 85.0987 29.7931 84.9122 30.5281C83.9015 30.6694 82.8387 30.58 81.8223 30.5369C81.5386 28.8375 81.7457 27.0513 81.747 25.3369C81.7482 24.0494 81.5072 20.96 81.8556 19.9244ZM12.5464 19.9381L15.765 19.9344C15.7581 23.4756 15.7029 27.0056 15.7851 30.5481C14.7123 30.6344 13.613 30.5825 12.5383 30.5625L12.5464 19.9381ZM44.0678 19.9331C45.0703 19.9363 46.0792 19.9194 47.0805 19.9731C47.0428 23.4988 47.0842 27.0231 47.0114 30.5488C46.076 30.7138 44.9485 30.695 44.0106 30.5444C43.8449 29.2113 43.924 27.7944 43.9253 26.4519C43.9272 24.2919 43.8951 22.0875 44.0678 19.9331ZM64.4643 19.9144C65.4367 19.8956 66.4487 19.8325 67.4085 20.0069C67.509 21.3244 67.46 22.6694 67.4707 23.9906C67.4883 26.1756 67.5253 28.3656 67.4468 30.5488C66.4661 30.5706 65.485 30.5664 64.5044 30.5363C64.3312 29.4119 64.4002 28.1956 64.3852 27.0569C64.3544 24.6981 64.2985 22.2681 64.4643 19.9144Z" fill="#C5C8CD"/>
</svg>
