<svg width="33" height="33" viewBox="0 0 33 33" fill="none" xmlns="http://www.w3.org/2000/svg">
<path d="M13.7976 27.5199H7.13094C6.33094 27.5199 5.79761 26.9865 5.79761 26.1865V19.5199C5.79761 18.7199 6.33094 18.1865 7.13094 18.1865C7.93094 18.1865 8.46427 18.7199 8.46427 19.5199V24.8532H13.7976C14.5976 24.8532 15.1309 25.3865 15.1309 26.1865C15.1309 26.9865 14.5976 27.5199 13.7976 27.5199ZM25.7976 15.5199C24.9976 15.5199 24.4643 14.9865 24.4643 14.1865V8.85319H19.1309C18.3309 8.85319 17.7976 8.31986 17.7976 7.51986C17.7976 6.71986 18.3309 6.18652 19.1309 6.18652H25.7976C26.5976 6.18652 27.1309 6.71986 27.1309 7.51986V14.1865C27.1309 14.9865 26.5976 15.5199 25.7976 15.5199Z" fill="#746FE5"/>
</svg>
