<svg width="48" height="48" viewBox="0 0 48 48" fill="none" xmlns="http://www.w3.org/2000/svg">
<path d="M27.1219 27.0664H19.847L19.1289 32.4836H27.8069L27.1219 27.0664Z" fill="url(#paint0_linear_143_878)"/>
<path d="M28.0014 2.37699C29.1857 3.42664 29.9456 4.87281 30.1383 6.44334L30.1394 6.4522L30.5602 10.0654L30.5602 10.0658L30.7022 11.2924H25.6312L25.4615 9.94539L25.4614 9.94505L25.1246 7.28764C25.0759 6.9027 24.8884 6.54876 24.5973 6.29217C24.3063 6.03559 23.9316 5.89399 23.5436 5.89391H23.5434C23.1571 5.89394 22.7839 6.03432 22.4933 6.28895C22.2027 6.54357 22.0146 6.89509 21.9638 7.27809L21.6105 9.94173L21.6105 9.94203L21.4323 11.292H16.3602L16.5107 10.0686L16.5107 10.0685L16.9552 6.45874L16.9554 6.45687L16.9657 6.3782C16.9657 6.378 16.9658 6.3778 16.9658 6.3776C17.1733 4.81858 17.9399 3.38796 19.1231 2.35175C20.3064 1.31541 21.8259 0.744124 23.3989 0.744141H23.697H23.697C25.2831 0.74411 26.8143 1.32497 28.0014 2.37699Z" fill="url(#paint1_linear_143_878)" stroke="#AD30E5"/>
<path d="M20.5823 17.709L19.3506 26.9996L19.3506 26.9996L18.6325 32.4168L18.6325 32.4168L17.3834 41.8391H12.6082L13.7503 32.5435L13.7503 32.5435L14.4156 27.1263L14.4156 27.1263L15.5725 17.709H19.1297H20.5823Z" fill="url(#paint2_linear_143_878)" stroke="#AD30E5"/>
<path d="M33.1834 32.5405L33.1834 32.5405L34.2688 41.8391H29.4935L28.3024 32.4198L28.3024 32.4198L27.6175 27.0026L27.6175 27.0026L26.4422 17.709H31.4525L32.5512 27.1233L33.1834 32.5405Z" fill="url(#paint3_linear_143_878)" stroke="#AD30E5"/>
<path style="mix-blend-mode:multiply" d="M20.1934 24.4481L21.1531 17.209H15.1304L14.2412 24.4481H20.1934Z" fill="url(#paint4_linear_143_878)"/>
<path style="mix-blend-mode:multiply" d="M32.7424 24.4481L31.8975 17.209H25.875L26.7904 24.4481H32.7424Z" fill="url(#paint5_linear_143_878)"/>
<path d="M43.5993 17.2749L43.5996 17.2755C44.1882 18.4261 44.2532 19.514 44.2532 20.4685V24.1696H43.0626C42.5112 24.1696 41.9653 24.061 41.4559 23.8499C40.9465 23.6389 40.4836 23.3297 40.0937 22.9398C39.7039 22.5499 39.3946 22.087 39.1836 21.5776C38.9727 21.0682 38.8641 20.5223 38.8641 19.9709V19.7453C38.8641 18.5484 38.1498 17.7699 37.2915 17.3176C36.4491 16.8736 35.4205 16.7093 34.5968 16.7093H10.7509C10.0194 16.6975 9.29265 16.8298 8.61224 17.0988C7.93061 17.3683 7.30883 17.7696 6.78255 18.2798C6.2654 18.7804 5.85419 19.3799 5.57336 20.0426C5.29253 20.7053 5.14781 21.4177 5.14781 22.1375C5.14781 22.8572 5.29253 23.5696 5.57336 24.2323C5.85419 24.8951 6.2654 25.4945 6.78255 25.9951L6.78246 25.9952L6.79061 26.0028C6.79227 26.0043 6.79593 26.0078 6.80091 26.0125C6.81618 26.0269 6.84387 26.053 6.86428 26.0714C7.91694 27.055 9.31072 27.591 10.7512 27.5661H13.3558L12.8116 31.9851H10.7468V31.985L10.7377 31.9852C9.39944 32.0094 8.06981 31.766 6.82691 31.2693C5.584 30.7726 4.45287 30.0325 3.49993 29.0926L3.49331 29.0861L3.48645 29.0798C2.52831 28.2025 1.76688 27.1323 1.25231 25.9395C0.737727 24.7467 0.481679 23.4584 0.501019 22.1595L0.501209 22.1595L0.501035 22.1457C0.480295 20.5042 0.895886 18.8866 1.70529 17.4584C2.62379 15.8809 3.94336 14.5745 5.53004 13.6719C7.11752 12.7688 8.91579 12.3021 10.7421 12.3192L10.8055 12.3198L10.8671 12.3045L10.9137 12.293H34.4444L34.525 12.3093L34.5741 12.3192H34.6242C36.8698 12.3192 39.1537 12.9572 40.9481 14.2173C40.9644 14.2307 40.9813 14.2432 40.9989 14.255C42.0952 15.0385 42.9871 16.0743 43.5993 17.2749Z" fill="url(#paint6_linear_143_878)" style="mix-blend-mode:multiply"/>
<path d="M43.5993 17.2749L43.5996 17.2755C44.1882 18.4261 44.2532 19.514 44.2532 20.4685V24.1696H43.0626C42.5112 24.1696 41.9653 24.061 41.4559 23.8499C40.9465 23.6389 40.4836 23.3297 40.0937 22.9398C39.7039 22.5499 39.3946 22.087 39.1836 21.5776C38.9727 21.0682 38.8641 20.5223 38.8641 19.9709V19.7453C38.8641 18.5484 38.1498 17.7699 37.2915 17.3176C36.4491 16.8736 35.4205 16.7093 34.5968 16.7093H10.7509C10.0194 16.6975 9.29265 16.8298 8.61224 17.0988C7.93061 17.3683 7.30883 17.7696 6.78255 18.2798C6.2654 18.7804 5.85419 19.3799 5.57336 20.0426C5.29253 20.7053 5.14781 21.4177 5.14781 22.1375C5.14781 22.8572 5.29253 23.5696 5.57336 24.2323C5.85419 24.8951 6.2654 25.4945 6.78255 25.9951L6.78246 25.9952L6.79061 26.0028C6.79227 26.0043 6.79593 26.0078 6.80091 26.0125C6.81618 26.0269 6.84387 26.053 6.86428 26.0714C7.91694 27.055 9.31072 27.591 10.7512 27.5661H13.3558L12.8116 31.9851H10.7468V31.985L10.7377 31.9852C9.39944 32.0094 8.06981 31.766 6.82691 31.2693C5.584 30.7726 4.45287 30.0325 3.49993 29.0926L3.49331 29.0861L3.48645 29.0798C2.52831 28.2025 1.76688 27.1323 1.25231 25.9395C0.737727 24.7467 0.481679 23.4584 0.501019 22.1595L0.501209 22.1595L0.501035 22.1457C0.480295 20.5042 0.895886 18.8866 1.70529 17.4584C2.62379 15.8809 3.94336 14.5745 5.53004 13.6719C7.11752 12.7688 8.91579 12.3021 10.7421 12.3192L10.8055 12.3198L10.8671 12.3045L10.9137 12.293H34.4444L34.525 12.3093L34.5741 12.3192H34.6242C36.8698 12.3192 39.1537 12.9572 40.9481 14.2173C40.9644 14.2307 40.9813 14.2432 40.9989 14.255C42.0952 15.0385 42.9871 16.0743 43.5993 17.2749Z" stroke="white"/>
<g style="mix-blend-mode:multiply">
<path d="M7.20236 25.7013C7.17856 25.6801 7.15476 25.6568 7.13096 25.6345C6.55631 25.086 6.12661 24.4037 5.88031 23.6484H0.104492C0.200047 24.3493 0.372372 25.0376 0.618363 25.7008C1.16516 27.1262 2.03088 28.4075 3.14923 29.4467C4.14959 30.4334 5.33702 31.2103 6.64177 31.7317C7.94653 32.2532 9.34232 32.5087 10.7472 32.4832H13.2543L13.9216 27.0642H10.7472C9.43329 27.0882 8.16175 26.5993 7.20236 25.7013Z" fill="url(#paint7_linear_143_878)" style="mix-blend-mode:multiply"/>
<path d="M1.08619 25.5243C0.920177 25.0763 0.78961 24.6163 0.695552 24.1484H5.53083C5.81273 24.8451 6.24004 25.4754 6.78574 25.9962L6.78572 25.9962L6.78956 25.9998C6.79204 26.0021 6.7961 26.006 6.80124 26.0109C6.81708 26.0259 6.84317 26.0507 6.86488 26.0702C7.91758 27.0536 9.31128 27.5893 10.7516 27.5642H13.3563L12.8121 31.9832H10.7472V31.9832L10.7381 31.9833C9.39986 32.0076 8.07024 31.7642 6.82733 31.2675C5.58442 30.7707 4.45329 30.0307 3.50035 29.0907L3.49504 29.0855L3.48959 29.0804C2.4278 28.0938 1.60571 26.8774 1.08619 25.5243Z" stroke="white" stroke-opacity="0.29"/>
</g>
<path d="M43.3029 30.4569L43.303 30.4569C42.3495 29.5175 41.2181 28.778 39.9751 28.2816C38.7321 27.7852 37.4025 27.5419 36.0643 27.5661L36.0552 27.5663V27.5662H33.6096L34.1251 31.9834H36.0512C36.7827 31.9717 37.5094 32.1041 38.1899 32.373C38.8717 32.6424 39.4936 33.0436 40.0202 33.5537M43.3029 30.4569L40.0202 33.5537M43.3029 30.4569L43.3084 30.4622C45.311 32.3756 46.3029 34.6783 46.3025 37.3985C46.3021 40.1189 45.3099 42.4311 43.3068 44.3622L43.3048 44.3642C42.3477 45.2976 41.215 46.0316 39.9721 46.5239C38.7293 47.0161 37.4011 47.2568 36.0646 47.2319L36.001 47.2307L35.9391 47.2455L35.892 47.2567H10.7547L10.7083 47.2456L10.6508 47.2318H10.5917C8.31309 47.2318 5.46907 46.5923 3.70633 45.3664C2.12692 44.2452 1.06543 42.192 1.06543 39.8849V35.5036M43.3029 30.4569L1.06543 35.5036M40.0202 33.5537C40.0201 33.5536 40.0201 33.5536 40.02 33.5535L39.6724 33.9129L40.0203 33.5538L40.0202 33.5537ZM1.06543 35.5036H2.25609C2.80744 35.5036 3.35339 35.6122 3.86277 35.8232C4.37216 36.0342 4.83499 36.3434 5.22486 36.7333C5.61472 37.1232 5.92398 37.586 6.13497 38.0954C6.34577 38.6043 6.45436 39.1497 6.45456 39.7005C6.45078 40.3215 6.64188 40.9279 7.00097 41.4345C7.36041 41.9416 7.87002 42.3231 8.45789 42.525L8.465 42.5274L8.47218 42.5296C9.15893 42.7426 9.87467 42.8473 10.5936 42.8399H36.0512C36.7827 42.8517 37.5095 42.7193 38.19 42.4503C38.8717 42.1808 39.4935 41.7796 40.02 41.2696C40.0201 41.2695 40.0202 41.2694 40.0203 41.2693L39.6724 40.9102L1.06543 35.5036Z" fill="url(#paint8_linear_143_878)" style="mix-blend-mode:multiply"/>
<path d="M43.3029 30.4569L43.303 30.4569C42.3495 29.5175 41.2181 28.778 39.9751 28.2816C38.7321 27.7852 37.4025 27.5419 36.0643 27.5661L36.0552 27.5663V27.5662H33.6096L34.1251 31.9834H36.0512C36.7827 31.9717 37.5094 32.1041 38.1899 32.373C38.8717 32.6424 39.4936 33.0436 40.0202 33.5537M43.3029 30.4569L40.0202 33.5537M43.3029 30.4569L43.3084 30.4622C45.311 32.3756 46.3029 34.6783 46.3025 37.3985C46.3021 40.1189 45.3099 42.4311 43.3068 44.3622L43.3048 44.3642C42.3477 45.2976 41.215 46.0316 39.9721 46.5239C38.7293 47.0161 37.4011 47.2568 36.0646 47.2319L36.001 47.2307L35.9391 47.2455L35.892 47.2567H10.7547L10.7083 47.2456L10.6508 47.2318H10.5917C8.31309 47.2318 5.46907 46.5923 3.70633 45.3664C2.12692 44.2452 1.06543 42.192 1.06543 39.8849V35.5036M43.3029 30.4569L1.06543 35.5036M40.0202 33.5537C40.0201 33.5536 40.0201 33.5536 40.02 33.5535L39.6724 33.9129L40.0203 33.5538L40.0202 33.5537ZM1.06543 35.5036H2.25609C2.80744 35.5036 3.35339 35.6122 3.86277 35.8232C4.37216 36.0342 4.83499 36.3434 5.22486 36.7333C5.61472 37.1232 5.92398 37.586 6.13497 38.0954C6.34577 38.6043 6.45436 39.1497 6.45456 39.7005C6.45078 40.3215 6.64188 40.9279 7.00097 41.4345C7.36041 41.9416 7.87002 42.3231 8.45789 42.525L8.465 42.5274L8.47218 42.5296C9.15893 42.7426 9.87467 42.8473 10.5936 42.8399H36.0512C36.7827 42.8517 37.5095 42.7193 38.19 42.4503C38.8717 42.1808 39.4935 41.7796 40.02 41.2696C40.0201 41.2695 40.0202 41.2694 40.0203 41.2693L39.6724 40.9102L1.06543 35.5036Z" stroke="white"/>
<g style="mix-blend-mode:multiply">
<path d="M43.3029 30.4569L43.3029 30.4569L43.308 30.4618C44.9864 32.069 45.9517 33.9475 46.2212 36.1113H41.4981C41.262 35.1366 40.7497 34.2472 40.0185 33.5521C39.4923 33.0428 38.8709 32.6421 38.1899 32.373C37.5094 32.1041 36.7827 31.9717 36.0511 31.9834H34.1251L33.6096 27.5662H36.0552V27.5663L36.0642 27.5661C37.4025 27.5419 38.7321 27.7852 39.9751 28.2816C41.2181 28.778 42.3495 29.5175 43.3029 30.4569Z" fill="url(#paint9_linear_143_878)" style="mix-blend-mode:multiply"/>
<path d="M43.3029 30.4569L43.3029 30.4569L43.308 30.4618C44.9864 32.069 45.9517 33.9475 46.2212 36.1113H41.4981C41.262 35.1366 40.7497 34.2472 40.0185 33.5521C39.4923 33.0428 38.8709 32.6421 38.1899 32.373C37.5094 32.1041 36.7827 31.9717 36.0511 31.9834H34.1251L33.6096 27.5662H36.0552V27.5663L36.0642 27.5661C37.4025 27.5419 38.7321 27.7852 39.9751 28.2816C41.2181 28.778 42.3495 29.5175 43.3029 30.4569Z" stroke="white"/>
</g>
<g style="mix-blend-mode:multiply">
<path d="M40.0209 33.5534C39.8054 33.3446 39.5739 33.1539 39.3289 32.9832L41.816 32.9832L41.8186 32.9831C42.9945 32.977 44.1252 33.4353 44.9648 34.2584C45.8037 35.0807 46.2842 36.2007 46.3023 37.3751V37.4268H46.3023L46.3023 37.4307C46.3106 38.4658 46.1507 39.4945 45.8298 40.4769H40.6943C40.9054 40.1734 41.085 39.8482 41.23 39.5061C41.5108 38.8434 41.6555 38.131 41.6555 37.4112C41.6555 36.6914 41.5108 35.979 41.23 35.3163C40.9492 34.6536 40.538 34.0541 40.0209 33.5534Z" fill="url(#paint10_linear_143_878)" style="mix-blend-mode:multiply"/>
<path d="M40.0209 33.5534C39.8054 33.3446 39.5739 33.1539 39.3289 32.9832L41.816 32.9832L41.8186 32.9831C42.9945 32.977 44.1252 33.4353 44.9648 34.2584C45.8037 35.0807 46.2842 36.2007 46.3023 37.3751V37.4268H46.3023L46.3023 37.4307C46.3106 38.4658 46.1507 39.4945 45.8298 40.4769H40.6943C40.9054 40.1734 41.085 39.8482 41.23 39.5061C41.5108 38.8434 41.6555 38.131 41.6555 37.4112C41.6555 36.6914 41.5108 35.979 41.23 35.3163C40.9492 34.6536 40.538 34.0541 40.0209 33.5534Z" stroke="white"/>
</g>
<path d="M22.6676 44.2314C22.6676 44.3708 22.7042 44.5076 22.7739 44.6283C23.18 45.3321 24.2557 45.0439 24.2557 44.2314L24.2557 9.9738C24.2557 9.15277 23.1619 8.87163 22.766 9.59091C22.7014 9.7082 22.6676 9.83991 22.6676 9.9738L22.6676 44.2314Z" fill="#AE31E6" stroke="white" stroke-width="0.3"/>
<path d="M24.4604 5.23369C24.4604 5.63406 24.1621 5.9717 23.7647 6.02105C23.2914 6.07985 22.8735 5.71068 22.8735 5.23369L22.8735 4.40627C22.8735 3.92739 23.2945 3.55766 23.7694 3.6195C24.1646 3.67098 24.4604 4.00769 24.4604 4.40627L24.4604 5.23369Z" fill="#AE31E6" stroke="white" stroke-width="0.3"/>
<g style="mix-blend-mode:screen">
<path d="M43.6615 44.1703L43.6615 44.1703C44.6281 43.1892 45.389 42.0251 45.8998 40.7461C46.4106 39.4671 46.6609 38.099 46.636 36.722L46.6358 36.713L46.6359 36.713L46.6359 34.1844L42.0693 34.7174L42.0693 36.7089C42.0813 37.4589 41.9456 38.2039 41.6699 38.9015C41.3937 39.6004 40.9824 40.238 40.4595 40.7778M43.6615 44.1703L40.1003 40.4299M43.6615 44.1703L43.6562 44.1758M43.6615 44.1703L43.6562 44.1758M40.4595 40.7778L40.1003 40.4299M40.4595 40.7778C40.4595 40.7777 40.4596 40.7776 40.4597 40.7775L40.1003 40.4299M40.4595 40.7778C39.9465 41.308 39.3321 41.7297 38.6528 42.0177C37.9734 42.3057 37.2431 42.4541 36.5052 42.4541C35.7673 42.4541 35.0369 42.3057 34.3575 42.0177C33.6783 41.7297 33.0639 41.3081 32.5509 40.7778M40.1003 40.4299C39.6339 40.9121 39.0753 41.2955 38.4576 41.5573C37.84 41.8192 37.176 41.9541 36.5052 41.9541C35.8343 41.9541 35.1703 41.8192 34.5527 41.5573C33.935 41.2955 33.3764 40.9121 32.91 40.4299M32.5509 40.7778L32.91 40.4299M32.5509 40.7778C32.0279 40.2381 31.6165 39.6005 31.3402 38.9015C31.0645 38.2039 30.9288 37.4588 30.9408 36.7088M32.5509 40.7778C32.5508 40.7777 32.5507 40.7776 32.5506 40.7775L32.91 40.4299M32.91 40.4299L30.9408 36.7088M30.9408 36.7088C30.9408 36.7074 30.9409 36.706 30.9409 36.7046L31.4408 36.713L30.9408 36.713L30.9408 36.7088ZM43.6562 44.1758C41.6874 46.2363 39.3176 47.2571 36.5186 47.2567C33.7193 47.2563 31.3398 46.2352 29.3528 44.1742L29.3508 44.1721C28.3905 43.1874 27.6351 42.0218 27.1286 40.743C26.6221 39.4642 26.3745 38.0975 26.4001 36.7223L26.4013 36.6587M43.6562 44.1758L26.4013 36.6587M26.4013 36.6587L26.3865 36.5969L26.4013 36.6587ZM38.9795 0.74414L38.9795 0.24414L38.4795 0.24414L38.4795 0.74414L38.9795 0.74414ZM34.1548 6.30954C34.1542 6.30953 34.1536 6.30953 34.153 6.30953C34.1525 6.30953 34.152 6.30953 34.1515 6.30953L34.1515 6.80953L34.1548 6.30954ZM30.9408 10.5463L30.9408 10.5491C30.9408 10.55 30.9408 10.5508 30.9408 10.5517L31.4408 10.5463L30.9408 10.5463ZM28.3195 3.46377C28.32 3.46315 28.3204 3.46253 28.3208 3.4619L27.9104 3.17629L28.3183 3.46555C28.3187 3.46496 28.3191 3.46437 28.3195 3.46377ZM25.8746 10.6538L26.3608 10.7704L26.3746 10.7129L26.3746 10.6608L26.3746 10.6538L26.3454 10.6538L25.8746 10.6538ZM26.3746 36.5469L26.3609 36.4896L25.8746 36.6058L26.3492 36.6058L26.3746 36.6058L26.3746 36.5997L26.3746 36.5469Z" fill="url(#paint11_angular_143_878)" style="mix-blend-mode:multiply"/>
<path d="M43.6615 44.1703L43.6615 44.1703C44.6281 43.1892 45.389 42.0251 45.8998 40.7461C46.4106 39.4671 46.6609 38.099 46.636 36.722L46.6358 36.713L46.6359 36.713L46.6359 34.1844L42.0693 34.7174L42.0693 36.7089C42.0813 37.4589 41.9456 38.2039 41.6699 38.9015C41.3937 39.6004 40.9824 40.238 40.4595 40.7778M43.6615 44.1703L40.1003 40.4299M43.6615 44.1703L43.6562 44.1758M43.6615 44.1703L43.6562 44.1758M40.4595 40.7778L40.1003 40.4299M40.4595 40.7778C40.4595 40.7777 40.4596 40.7776 40.4597 40.7775L40.1003 40.4299M40.4595 40.7778C39.9465 41.308 39.3321 41.7297 38.6528 42.0177C37.9734 42.3057 37.2431 42.4541 36.5052 42.4541C35.7673 42.4541 35.0369 42.3057 34.3575 42.0177C33.6783 41.7297 33.0639 41.3081 32.5509 40.7778M40.1003 40.4299C39.6339 40.9121 39.0753 41.2955 38.4576 41.5573C37.84 41.8192 37.176 41.9541 36.5052 41.9541C35.8343 41.9541 35.1703 41.8192 34.5527 41.5573C33.935 41.2955 33.3764 40.9121 32.91 40.4299M32.5509 40.7778L32.91 40.4299M32.5509 40.7778C32.0279 40.2381 31.6165 39.6005 31.3402 38.9015C31.0645 38.2039 30.9288 37.4588 30.9408 36.7088M32.5509 40.7778C32.5508 40.7777 32.5507 40.7776 32.5506 40.7775L32.91 40.4299M32.91 40.4299L30.9408 36.7088M30.9408 36.7088C30.9408 36.7074 30.9409 36.706 30.9409 36.7046L31.4408 36.713L30.9408 36.713L30.9408 36.7088ZM43.6562 44.1758C41.6874 46.2363 39.3176 47.2571 36.5186 47.2567C33.7193 47.2563 31.3398 46.2352 29.3528 44.1742L29.3508 44.1721C28.3905 43.1874 27.6351 42.0218 27.1286 40.743C26.6221 39.4642 26.3745 38.0975 26.4001 36.7223L26.4013 36.6587M43.6562 44.1758L26.4013 36.6587M26.4013 36.6587L26.3865 36.5969L26.4013 36.6587ZM38.9795 0.74414L38.9795 0.24414L38.4795 0.24414L38.4795 0.74414L38.9795 0.74414ZM34.1548 6.30954C34.1542 6.30953 34.1536 6.30953 34.153 6.30953C34.1525 6.30953 34.152 6.30953 34.1515 6.30953L34.1515 6.80953L34.1548 6.30954ZM30.9408 10.5463L30.9408 10.5491C30.9408 10.55 30.9408 10.5508 30.9408 10.5517L31.4408 10.5463L30.9408 10.5463ZM28.3195 3.46377C28.32 3.46315 28.3204 3.46253 28.3208 3.4619L27.9104 3.17629L28.3183 3.46555C28.3187 3.46496 28.3191 3.46437 28.3195 3.46377ZM25.8746 10.6538L26.3608 10.7704L26.3746 10.7129L26.3746 10.6608L26.3746 10.6538L26.3454 10.6538L25.8746 10.6538ZM26.3746 36.5469L26.3609 36.4896L25.8746 36.6058L26.3492 36.6058L26.3746 36.6058L26.3746 36.5997L26.3746 36.5469Z" stroke="white"/>
</g>
<defs>
<linearGradient id="paint0_linear_143_878" x1="23.8734" y1="32.7524" x2="23.8109" y2="23.4857" gradientUnits="userSpaceOnUse">
<stop stop-color="#CE3CFF"/>
<stop offset="1" stop-color="#4A0E98"/>
</linearGradient>
<linearGradient id="paint1_linear_143_878" x1="24.2519" y1="12.3653" x2="24.0926" y2="-7.38883" gradientUnits="userSpaceOnUse">
<stop stop-color="#CE3CFF"/>
<stop offset="1" stop-color="#4A0E98"/>
</linearGradient>
<linearGradient id="paint2_linear_143_878" x1="17.0236" y1="43.5857" x2="15.7443" y2="0.634313" gradientUnits="userSpaceOnUse">
<stop stop-color="#CE3CFF"/>
<stop offset="1" stop-color="#4A0E98"/>
</linearGradient>
<linearGradient id="paint3_linear_143_878" x1="30.7712" y1="43.5857" x2="29.4699" y2="0.635637" gradientUnits="userSpaceOnUse">
<stop stop-color="#CE3CFF"/>
<stop offset="1" stop-color="#4A0E98"/>
</linearGradient>
<linearGradient id="paint4_linear_143_878" x1="17.8474" y1="13.3107" x2="17.6599" y2="22.6916" gradientUnits="userSpaceOnUse">
<stop stop-color="#831C8B"/>
<stop offset="0.143" stop-color="#88258F" stop-opacity="0.962"/>
<stop offset="0.321" stop-color="#953D9C" stop-opacity="0.853"/>
<stop offset="0.516" stop-color="#AC67B1" stop-opacity="0.672"/>
<stop offset="0.724" stop-color="#CBA0CE" stop-opacity="0.419"/>
<stop offset="0.94" stop-color="#F3E9F4" stop-opacity="0.098"/>
<stop offset="1" stop-color="white" stop-opacity="0"/>
</linearGradient>
<linearGradient id="paint5_linear_143_878" x1="29.4545" y1="13.5429" x2="29.2668" y2="22.9239" gradientUnits="userSpaceOnUse">
<stop stop-color="#831C8B"/>
<stop offset="0.143" stop-color="#88258F" stop-opacity="0.962"/>
<stop offset="0.321" stop-color="#953D9C" stop-opacity="0.853"/>
<stop offset="0.516" stop-color="#AC67B1" stop-opacity="0.672"/>
<stop offset="0.724" stop-color="#CBA0CE" stop-opacity="0.419"/>
<stop offset="0.94" stop-color="#F3E9F4" stop-opacity="0.098"/>
<stop offset="1" stop-color="white" stop-opacity="0"/>
</linearGradient>
<linearGradient id="paint6_linear_143_878" x1="15.4011" y1="22.0689" x2="-7.76985" y2="20.7932" gradientUnits="userSpaceOnUse">
<stop stop-color="white" stop-opacity="0"/>
<stop offset="0.102" stop-color="#E6EBEE" stop-opacity="0.14"/>
<stop offset="0.397" stop-color="#A4B7C2" stop-opacity="0.509"/>
<stop offset="0.656" stop-color="#A4C5D9" stop-opacity="0.776"/>
<stop offset="0.866" stop-color="#9BC7E2" stop-opacity="0.94"/>
<stop offset="1" stop-color="#83ADC7"/>
</linearGradient>
<linearGradient id="paint7_linear_143_878" x1="4.85943" y1="28.0364" x2="-2.30471" y2="27.7512" gradientUnits="userSpaceOnUse">
<stop stop-color="white" stop-opacity="0"/>
<stop offset="0.102" stop-color="#E6EBEE" stop-opacity="0.14"/>
<stop offset="0.397" stop-color="#A4B7C2" stop-opacity="0.509"/>
<stop offset="0.656" stop-color="#A4C5D9" stop-opacity="0.776"/>
<stop offset="0.866" stop-color="#9BC7E2" stop-opacity="0.94"/>
<stop offset="1" stop-color="#83ADC7"/>
</linearGradient>
<linearGradient id="paint8_linear_143_878" x1="16.4772" y1="37.3396" x2="-7.45715" y2="35.9781" gradientUnits="userSpaceOnUse">
<stop stop-color="white" stop-opacity="0"/>
<stop offset="0.102" stop-color="#E6EBEE" stop-opacity="0.14"/>
<stop offset="0.397" stop-color="#A4B7C2" stop-opacity="0.509"/>
<stop offset="0.656" stop-color="#A4C5D9" stop-opacity="0.776"/>
<stop offset="0.866" stop-color="#9BC7E2" stop-opacity="0.94"/>
<stop offset="1" stop-color="#83ADC7"/>
</linearGradient>
<linearGradient id="paint9_linear_143_878" x1="37.7708" y1="31.8051" x2="30.6531" y2="31.5446" gradientUnits="userSpaceOnUse">
<stop stop-color="white" stop-opacity="0"/>
<stop offset="0.102" stop-color="#E6EBEE" stop-opacity="0.14"/>
<stop offset="0.397" stop-color="#A4B7C2" stop-opacity="0.509"/>
<stop offset="0.656" stop-color="#A4C5D9" stop-opacity="0.776"/>
<stop offset="0.866" stop-color="#9BC7E2" stop-opacity="0.94"/>
<stop offset="1" stop-color="#83ADC7"/>
</linearGradient>
<linearGradient id="paint10_linear_143_878" x1="39.7547" y1="36.7006" x2="34.1799" y2="36.521" gradientUnits="userSpaceOnUse">
<stop stop-color="white" stop-opacity="0"/>
<stop offset="0.102" stop-color="#E6EBEE" stop-opacity="0.14"/>
<stop offset="0.397" stop-color="#A4B7C2" stop-opacity="0.509"/>
<stop offset="0.656" stop-color="#A4C5D9" stop-opacity="0.776"/>
<stop offset="0.866" stop-color="#9BC7E2" stop-opacity="0.94"/>
<stop offset="1" stop-color="#83ADC7"/>
</linearGradient>
<radialGradient id="paint11_angular_143_878" cx="0" cy="0" r="1" gradientUnits="userSpaceOnUse" gradientTransform="translate(36.5062 24.0004) rotate(90) scale(23.7563 10.6315)">
<stop stop-color="#DB3AFF"/>
<stop offset="0.31" stop-color="#9B29B5"/>
<stop offset="0.425" stop-color="#832399"/>
<stop offset="0.645" stop-color="#832399"/>
<stop offset="0.78" stop-color="#832399"/>
</radialGradient>
</defs>
</svg>
