<svg width="17" height="17" viewBox="0 0 17 17" fill="none" xmlns="http://www.w3.org/2000/svg">
<g clip-path="url(#clip0_215_26216)">
<path d="M11.7489 0.5H5.93075C4.58103 0.50154 3.28703 1.0384 2.33264 1.99279C1.37824 2.94719 0.841384 4.24119 0.839844 5.59091L0.839844 11.4091C0.841384 12.7588 1.37824 14.0528 2.33264 15.0072C3.28703 15.9616 4.58103 16.4985 5.93075 16.5H11.7489C13.0987 16.4985 14.3927 15.9616 15.3471 15.0072C16.3014 14.0528 16.8383 12.7588 16.8398 11.4091V5.59091C16.8383 4.24119 16.3014 2.94719 15.3471 1.99279C14.3927 1.0384 13.0987 0.50154 11.7489 0.5ZM13.2035 9.22727H9.56712V12.8636C9.56712 13.0565 9.49049 13.2415 9.3541 13.3779C9.21771 13.5143 9.03273 13.5909 8.83984 13.5909C8.64696 13.5909 8.46197 13.5143 8.32558 13.3779C8.18919 13.2415 8.11257 13.0565 8.11257 12.8636V9.22727H4.47621C4.28332 9.22727 4.09834 9.15065 3.96195 9.01426C3.82556 8.87787 3.74893 8.69288 3.74893 8.5C3.74893 8.30712 3.82556 8.12213 3.96195 7.98574C4.09834 7.84935 4.28332 7.77273 4.47621 7.77273H8.11257V4.13636C8.11257 3.94348 8.18919 3.75849 8.32558 3.6221C8.46197 3.48571 8.64696 3.40909 8.83984 3.40909C9.03273 3.40909 9.21771 3.48571 9.3541 3.6221C9.49049 3.75849 9.56712 3.94348 9.56712 4.13636V7.77273H13.2035C13.3964 7.77273 13.5814 7.84935 13.7177 7.98574C13.8541 8.12213 13.9308 8.30712 13.9308 8.5C13.9308 8.69288 13.8541 8.87787 13.7177 9.01426C13.5814 9.15065 13.3964 9.22727 13.2035 9.22727Z" fill="white"/>
</g>
<defs>
<clipPath id="clip0_215_26216">
<rect width="16" height="16" fill="white" transform="translate(0.839844 0.5)"/>
</clipPath>
</defs>
</svg>
