<svg width="21" height="20" viewBox="0 0 21 20" fill="none" xmlns="http://www.w3.org/2000/svg">
<path fill-rule="evenodd" clip-rule="evenodd" d="M4.83984 1C3.18299 1 1.83984 2.34315 1.83984 4V16C1.83984 17.6569 3.18299 19 4.83984 19H16.8398C18.4967 19 19.8398 17.6569 19.8398 16V9C19.8398 7.34315 18.4967 6 16.8398 6H5.33984C4.51141 6 3.83984 5.32843 3.83984 4.5C3.83984 3.67157 4.51141 3 5.33984 3H16.8398C17.3921 3 17.8398 2.55228 17.8398 2C17.8398 1.44772 17.3921 1 16.8398 1H4.83984ZM15.3398 14C16.1682 14 16.8398 13.3284 16.8398 12.5C16.8398 11.6716 16.1682 11 15.3398 11C14.5114 11 13.8398 11.6716 13.8398 12.5C13.8398 13.3284 14.5114 14 15.3398 14Z" fill="white"/>
</svg>
