<svg width="166" height="22" viewBox="0 0 166 22" fill="none" xmlns="http://www.w3.org/2000/svg">
<path d="M116.563 1.63184C118.602 1.69908 120.657 1.65506 122.698 1.66423C124.105 3.50421 125.528 5.30873 126.802 7.24468C128.086 5.37475 129.362 3.37523 130.837 1.65262L136.719 1.65507C136.613 7.60778 136.749 13.5709 136.713 19.5248C134.601 19.6465 132.484 19.6375 130.373 19.4979L130.353 17.521C130.371 15.4304 130.373 13.3398 130.357 11.2492C129.048 13.1595 127.83 15.1248 126.573 17.0681C126.149 16.4507 125.803 15.7581 125.428 15.1089C124.665 13.7848 123.899 12.4987 122.972 11.2798C122.859 14.0324 123.037 16.7954 122.908 19.553L116.544 19.5554C116.504 16.2642 116.569 12.9682 116.558 9.67577C116.55 7.00261 116.446 4.30255 116.563 1.63184ZM61.5884 1.64406C63.4599 1.58599 65.3486 1.63612 67.2213 1.64528C69.0098 3.95228 70.8905 6.1951 72.5985 8.56262L72.6218 1.64467L79.0227 1.65079L79.0055 11.9583C79.0129 14.4499 79.0891 16.9587 78.9969 19.4484C78.5923 19.4912 78.1798 19.4912 77.7734 19.5065C76.4054 19.361 74.9182 19.4698 73.541 19.4888C71.7494 17.2356 69.3738 14.2623 67.9247 11.8293C67.7568 14.2549 67.9228 17.0118 67.9179 19.4778C65.8238 19.6153 63.6892 19.5291 61.5902 19.531C61.5484 13.5689 61.5478 7.60656 61.5884 1.64406ZM47.1888 1.61778C49.8632 1.74065 52.5567 1.80666 55.2312 1.63978L61.4802 19.4967C59.2644 19.5517 57.0486 19.5436 54.8328 19.4723L54.3563 17.8627C54.3194 17.7894 54.2518 17.7301 54.1965 17.6696C53.0824 17.2973 49.3443 17.5437 47.9549 17.5822C47.7501 18.2142 47.6044 18.8628 47.4501 19.5077C45.2122 19.5114 42.9189 19.4429 40.6865 19.5701C41.6432 16.6353 42.8138 13.7451 43.8959 10.8531C45.0165 7.78241 46.1145 4.70396 47.1888 1.61778ZM49.4218 13.2445C50.0883 13.228 50.7517 13.2139 51.4181 13.2371C51.9395 13.217 52.4633 13.2384 52.9834 13.2084C52.4953 12.2004 51.7661 8.61274 51.1753 8.07786C50.5666 9.79191 50.0809 11.5469 49.4218 13.2439M97.8606 1.64467C99.944 1.63652 102.028 1.63938 104.111 1.65323C104.257 4.01586 104.153 6.70736 104.101 9.09688C104.076 10.2418 103.93 11.4607 104.095 12.5971C104.155 13.0128 104.282 13.3637 104.566 13.6815C105.027 14.1969 105.733 14.4835 106.421 14.4897C107.053 14.4946 107.946 14.3075 108.394 13.8448C108.763 13.4645 108.853 12.816 108.913 12.3092C109.062 11.0499 108.98 9.72345 108.978 8.45381C108.966 6.18511 108.967 3.91642 108.981 1.64773C111.059 1.6355 113.162 1.7761 115.237 1.68441C115.237 3.40457 115.227 5.12494 115.209 6.84551C115.214 9.20936 115.354 11.6606 115.176 14.0159C115.06 15.5405 114.558 16.9293 113.353 17.9355C111.118 19.8018 107.632 19.8488 104.868 19.6104C102.708 19.424 100.439 18.8818 98.9962 17.1408C98.4269 16.4531 98.1219 15.7226 97.9535 14.8503C97.5366 12.6864 97.777 9.94657 97.7825 7.71782C97.7881 5.7189 97.6731 3.63197 97.8606 1.64467ZM23.9291 1.60861L30.065 1.62939C30.0853 4.17235 30.0152 6.71897 29.9949 9.26193C29.9857 10.4356 29.8713 11.7175 30.0613 12.8746C30.1222 13.2439 30.2131 13.5477 30.4597 13.8356C30.8858 14.3319 31.5909 14.5593 32.2261 14.6058C33.1624 14.6755 34.0262 14.3032 34.7118 13.6932C35.2786 12.0897 35.0087 3.82452 35.0069 1.65079L41.2657 1.6569L41.2626 6.53864C41.2638 8.83219 41.4452 12.3306 41.131 14.4744C40.9208 15.9048 40.1775 17.1304 39.0068 17.9862C36.4609 19.8482 32.4978 19.8971 29.5055 19.4411C27.6918 19.1642 25.7521 18.4643 24.6472 16.9195C24.1474 16.2202 23.9279 15.4457 23.8105 14.6083C23.5572 12.8135 23.7459 10.9919 23.7244 9.18857C23.7041 7.47758 23.6789 5.77453 23.693 4.06293C23.6992 3.29393 23.6463 2.46196 23.7613 1.70336L23.9291 1.60861ZM145.936 1.64406C148.488 1.63306 151.04 1.69541 153.592 1.71069C154.394 2.9241 155.089 4.23348 155.823 5.49028C156.581 4.2616 157.278 2.76394 158.224 1.68013C160.705 1.62939 163.201 1.67768 165.685 1.65323C165.139 2.66186 164.329 3.63075 163.66 4.57519C162.276 6.53955 160.877 8.49288 159.461 10.435C160.88 12.2426 162.191 14.1211 163.539 15.9794C164.28 17.0014 165.444 18.3084 165.908 19.4393L165.825 19.531L165.436 19.5499C163.062 19.5515 160.688 19.5362 158.315 19.5041C157.363 18.3548 156.639 16.933 155.855 15.6627C154.946 16.8718 154.184 18.2057 153.39 19.4912C150.767 19.6318 148.096 19.5768 145.469 19.5475C146.673 18.1164 147.73 16.5356 148.826 15.0215C149.954 13.4621 151.131 11.9296 152.218 10.3415C150.106 7.46719 147.962 4.57702 145.936 1.64406ZM80.1054 1.6514L91.0743 1.64712C92.8948 1.65079 94.7576 1.77365 96.5726 1.64101C96.5861 2.4907 96.8628 6.23483 96.489 6.71836C96.3494 6.89869 96.1201 6.95493 95.9055 6.98244C95.3319 7.05579 94.6771 6.96165 94.0961 6.94943C93.2944 6.9317 92.489 6.94882 91.6873 6.95676L91.6946 14.7598L91.7039 19.5401C89.603 19.4527 87.4702 19.6746 85.3737 19.5053C85.212 19.3421 85.2151 19.1819 85.1979 18.9612C85.1014 17.6983 85.1936 16.3681 85.1942 15.0967L85.2028 7.01667C83.5036 6.96378 81.8033 6.95237 80.1035 6.98244C80.0703 5.20848 80.1029 3.42597 80.1054 1.6514ZM4.12963 2.71687C5.1533 3.54822 7.28363 6.68229 7.99866 7.93115C7.45455 8.44097 7.00512 8.97157 6.72108 9.66721C6.5966 9.96682 6.51066 10.2809 6.46531 10.6019C6.42024 10.923 6.41549 11.2485 6.45117 11.5708C6.47334 11.7638 6.5095 11.955 6.55938 12.1429C6.64498 12.4635 6.77186 12.7717 6.93688 13.0599C7.14047 13.4185 7.39891 13.7435 7.70294 14.0232C7.8543 14.1635 8.01672 14.2915 8.18864 14.4059C8.41767 14.5586 8.66154 14.688 8.91658 14.7922C8.98052 14.8183 9.04487 14.8428 9.10963 14.8656C11.0813 15.557 12.6454 14.7091 14.397 13.9157C15.9372 15.6468 17.3303 17.5363 18.7007 19.4026C18.073 19.9038 17.3211 20.2841 16.6122 20.66C14.3595 21.5525 12.1118 21.9137 9.69555 21.5775C6.6682 21.1558 3.95195 19.6239 2.10689 17.1848C0.404469 14.9341 -0.191287 12.0757 0.210188 9.30778C0.416293 7.84236 0.948071 6.44099 1.7669 5.20542C2.40429 4.24685 3.20365 3.40452 4.12963 2.71687ZM10.2895 0.371972C10.3321 0.365044 10.3749 0.359135 10.418 0.354245C13.0715 0.0901686 16.4395 0.938636 18.5704 2.55488C20.7401 4.2023 22.2206 6.56004 22.5759 9.26437C23.0395 12.7872 21.9673 15.4659 19.8492 18.224C19.3906 17.7625 18.9872 17.2447 18.5741 16.7423C17.5842 15.5576 16.6583 14.3154 15.6433 13.1528C16.1062 12.0726 16.3202 10.8543 16.0306 9.699C15.7847 8.72033 15.1981 7.94888 14.3263 7.43662C12.7032 6.48118 11.0414 6.76543 9.32051 7.21045C8.00358 5.38575 6.71185 3.5684 5.27011 1.83723C6.93503 0.987539 8.43518 0.574308 10.2895 0.371972ZM138.079 1.65201C140.225 1.64069 142.372 1.6411 144.518 1.65323C144.456 5.49212 144.468 9.35546 144.485 13.1962C144.494 15.3082 144.563 17.4263 144.486 19.5371C142.371 19.4411 140.218 19.5719 138.095 19.523C138.023 17.4972 138.1 15.4494 138.102 13.4205L138.079 1.65201Z" fill="#C5C8CD"/>
</svg>
