<svg width="140" height="45" viewBox="0 0 140 45" fill="none" xmlns="http://www.w3.org/2000/svg">
<path d="M117.447 0.601562C118.729 0.625991 120 0.658777 121.273 0.841991C122.113 0.967941 122.946 1.1444 123.765 1.37042C125.68 1.89874 127.511 2.6922 129.206 3.72778C130.416 4.46767 131.548 5.32603 132.588 6.29021C132.796 6.48306 133 6.68021 133.199 6.88163C137.493 11.1759 139.726 17.069 139.687 23.1048C139.679 23.6328 139.651 24.1603 139.603 24.6862C139.572 25.0371 139.532 25.3871 139.483 25.736C139.459 25.9108 139.433 26.0851 139.404 26.2586C139.348 26.6063 139.282 26.9525 139.208 27.2968C139.135 27.6412 139.053 27.9835 138.962 28.3235C138.871 28.6638 138.772 29.0021 138.666 29.3379C138.56 29.6737 138.445 30.0066 138.321 30.3363C138.199 30.6666 138.068 30.9935 137.929 31.3166C137.789 31.6398 137.642 31.9601 137.488 32.2771C136.949 33.386 136.315 34.4461 135.593 35.4457C135.388 35.7318 135.175 36.0124 134.954 36.2872C134.736 36.5629 134.509 36.8328 134.276 37.0966C133.735 37.712 133.159 38.2964 132.552 38.8471C132.335 39.0433 132.115 39.2349 131.892 39.4218C131.22 39.9829 130.514 40.503 129.78 40.9794C129.046 41.4561 128.283 41.8868 127.495 42.269C125.393 43.2921 123.138 43.9675 120.82 44.2689C119.679 44.4058 118.55 44.4058 117.404 44.3943C117.547 42.1925 117.417 39.9264 117.39 37.7169C117.353 34.1776 117.365 30.6379 117.425 27.0988C117.229 27.8728 117.019 28.6108 116.61 29.3026C115.663 30.9046 114.01 31.8541 112.251 32.3124C110.408 32.486 108.746 32.3703 107.093 31.478C106.151 30.9701 104.712 29.9338 104.424 28.8506C104.381 28.695 104.371 28.5322 104.394 28.3724C104.417 28.2127 104.473 28.0594 104.558 27.9223C104.959 27.2538 106.221 26.5254 106.962 26.3679C108.151 26.1166 108.633 27.1053 109.506 27.6408C110.128 28.022 110.79 28.0246 111.48 27.8606C112.015 27.7333 112.604 27.5212 112.885 27.0108C113.042 26.7241 113.069 26.4303 112.954 26.1198C112.466 24.7839 109.5 24.0691 108.344 23.4686C106.737 22.6316 105.379 21.3665 104.844 19.5877C104.43 18.2088 104.597 16.8324 105.274 15.5686C106.041 14.1369 107.276 13.1508 108.831 12.6834C110.603 12.1511 112.645 12.3144 114.268 13.2183C115.019 13.6361 116.113 14.4063 116.334 15.2793C116.374 15.4347 116.381 15.597 116.354 15.7552C116.327 15.9135 116.266 16.0642 116.177 16.1973C115.641 17.0349 113.868 17.8391 112.884 17.6341C112.02 17.4541 111.577 16.4255 110.441 16.718C109.949 16.8446 109.412 17.1474 109.168 17.6135C109.053 17.8346 109.019 18.1033 109.117 18.3373C109.644 19.6006 111.92 20.0981 113.08 20.5616C115.347 21.47 116.488 22.8206 117.423 25.0256C117.34 18.9785 117.333 12.9311 117.4 6.88356C117.431 4.79878 117.311 2.67928 117.447 0.601562ZM22.515 12.4108C24.795 12.4044 29.1835 12.0746 31.2239 12.9065C32.755 13.5307 33.9219 14.7547 34.5481 16.2783C35.252 17.9896 35.2905 19.9843 34.5597 21.6911C33.8776 23.2841 32.7196 24.2169 31.141 24.8469C31.8199 26.0253 34.8204 30.2649 34.8757 31.2806C34.8904 31.5481 34.7922 31.8148 34.5828 31.9903C33.8487 32.6049 31.8211 32.2411 30.9124 32.1658C30.8828 32.1607 30.852 32.1575 30.8225 32.1498C29.4179 31.7936 26.9632 26.6546 26.2214 25.2918C26.2523 27.2486 26.646 29.8663 25.9999 31.7281L25.9003 31.8084C25.1482 32.4063 23.6743 32.3658 22.752 32.2327C22.3044 32.1684 21.9756 32.036 21.6962 31.6753C21.5099 30.6641 21.4618 13.6136 21.6191 13.1173C21.7347 12.7528 22.2061 12.5613 22.515 12.4108ZM26.2908 20.9287C27.434 21.0097 28.6427 21.1794 29.6748 20.5488C30.1102 20.1161 30.3896 19.6507 30.3825 19.0188C30.3767 18.4878 30.2046 17.9503 29.8109 17.5801C29.0145 16.8324 27.6401 16.9115 26.628 16.9758L26.4899 16.9854L26.3518 17.0458C26.1463 18.0217 26.3075 19.8596 26.2908 20.9287ZM11.5359 11.084C12.9199 10.8397 15.6052 11.6176 16.8556 12.2077C17.6809 12.5973 19.2203 13.4902 19.5029 14.3941C19.6603 14.8981 19.5222 15.5499 19.2557 15.9928C18.9904 16.4332 18.5922 16.8054 18.1574 17.0754C16.4638 18.1252 15.0181 16.6318 13.3663 16.2198C12.3226 15.9588 11.2173 16.0224 10.1808 16.2821C9.75942 16.3864 9.34923 16.5315 8.95601 16.7154C8.56364 16.9007 8.19023 17.1237 7.84107 17.3814C7.14267 17.9005 6.55341 18.5524 6.10702 19.2997C5.22971 20.7995 5.02805 22.64 5.4789 24.3127C5.9182 25.9443 7.05497 27.3714 8.51543 28.2084C10.2752 29.2158 12.6187 29.4202 14.4896 28.598C15.2795 28.2508 15.9976 27.7687 16.837 27.5456L16.9507 27.5167C17.7226 27.7115 18.2351 28.0644 18.817 28.5851C19.1831 28.9696 19.501 29.3501 19.5723 29.8959C19.6365 30.3941 19.4503 30.8486 19.1336 31.2279C17.7965 32.8299 14.9629 33.8218 12.9443 33.9941C9.79992 34.2622 6.72357 33.4618 4.30617 31.3854C3.01398 30.2904 1.98562 28.9174 1.2979 27.3688C0.916234 26.5114 0.643923 25.6092 0.48739 24.6836C0.425022 24.3138 0.380655 23.9411 0.354446 23.567C0.13223 20.3823 0.98834 17.2914 3.11866 14.8711C5.36009 12.3234 8.23092 11.3006 11.5359 11.084ZM51.7718 12.425L51.8546 12.4211C52.6883 12.3954 53.5341 12.434 54.3709 12.4198C56.9258 12.3761 59.717 12.2874 61.715 14.1607C63.1228 15.4805 63.7766 17.3788 63.819 19.2785C63.862 21.2019 63.1755 23.1601 61.8255 24.5467C60.4125 25.9996 58.823 26.3467 56.8616 26.3866L55.1641 26.3615C55.1192 27.5746 55.5418 30.8358 54.8584 31.7126C54.597 32.0482 54.2136 32.1961 53.8013 32.2385C53.0768 32.3137 51.4044 32.3118 50.8598 31.8438C50.6742 31.2594 50.6376 30.5921 50.6106 29.9821C50.5303 28.1538 50.4558 13.7853 50.8527 13.0055C51.03 12.6571 51.4256 12.5343 51.7718 12.425ZM55.2527 21.7381C56.3998 21.7779 57.5186 21.8724 58.5096 21.1723C58.9848 20.552 59.1929 19.8461 59.0863 19.0651C58.999 18.4286 58.7767 17.7478 58.2347 17.3576C57.4434 16.7874 56.2168 16.9423 55.2868 16.9655C55.2482 18.5559 55.2369 20.1468 55.2527 21.7381ZM90.4862 17.8546C90.9127 16.9173 92.5542 12.9708 93.3076 12.6043C94.1438 12.1968 96.5548 12.173 97.3948 12.5118C97.558 12.578 97.6883 12.6757 97.7525 12.8422C97.8746 13.1566 97.8039 13.5037 97.6954 13.811C97.3589 14.7624 96.7153 15.71 96.2324 16.6055C95.2073 18.509 94.1431 20.4626 93.2434 22.4285L97.2426 29.9911C97.4828 30.4436 97.9671 31.1559 97.7442 31.6798C97.6145 31.9852 97.3383 32.1234 97.0512 32.2462C96.032 32.2751 94.7706 32.4371 93.7906 32.1498C93.4 32.0401 93.0497 31.8192 92.7822 31.514C92.2158 30.8615 90.8639 27.788 90.3346 26.7877C89.3976 28.4617 88.7091 30.839 87.2352 32.1009C86.1999 32.3066 84.9083 32.3902 83.8621 32.2378C83.5558 32.1928 83.2757 32.1324 83.0869 31.8695C82.9893 31.4291 83.0702 31.0466 83.2179 30.6243C83.5789 29.5938 84.2353 28.6115 84.7535 27.6491C85.7247 25.8371 86.6861 24.02 87.6379 22.1977C86.7079 20.5282 85.855 18.8195 84.9655 17.1288C84.3978 16.0488 83.7163 14.9585 83.2841 13.82C83.1826 13.5526 83.0805 13.2639 83.1659 12.9772C83.2674 12.6391 83.5326 12.5188 83.8223 12.371C84.8422 12.3022 86.2365 12.1306 87.2153 12.4224C88.2955 12.7445 89.9037 16.7103 90.4862 17.8546ZM45.481 12.6879C46.3776 12.3112 47.7571 12.2951 48.7218 12.4179C49.1039 12.4668 49.3833 12.5542 49.6273 12.8583C49.7487 13.2523 49.6633 13.64 49.5477 14.027C49.233 15.0826 48.655 16.0989 48.1874 17.0953C47.3686 18.8782 46.5261 20.6501 45.6602 22.4105C45.3198 23.1112 44.8946 23.8524 44.7598 24.6264C44.4791 26.2426 45.314 30.8814 44.3038 31.9511C44.1098 32.1568 43.79 32.1736 43.5228 32.1851C42.8228 32.2173 41.0226 32.3773 40.53 31.8457C39.7073 30.9553 40.3765 26.4946 40.2031 25.0648C40.1433 24.5711 39.9892 24.1231 39.7972 23.6666C39.0804 21.9624 34.9097 14.2295 35.1383 13.0531C35.2 12.7348 35.3869 12.5863 35.6367 12.4166C36.3624 12.4063 38.4131 12.2283 39.0143 12.4803C40.4921 13.0987 41.7566 18.5167 42.5556 18.8529C43.2107 17.0503 44.1471 14.1408 45.4149 12.758L45.481 12.6879ZM71.5811 12.362C72.3306 12.3446 75.1822 12.2263 75.635 12.6911C76.0621 13.1302 76.0878 14.1723 76.0935 14.7592C76.0987 15.2793 76.0768 16.2133 75.6433 16.5618C74.958 17.1133 73.2632 16.8903 72.4186 16.8678C72.3024 18.176 72.3602 19.5228 72.3589 20.8355L72.3595 27.3881C72.3653 28.4823 72.4681 29.6574 72.3595 30.7419C72.3216 31.1257 72.2626 31.496 72.0898 31.8444C71.3647 32.459 69.8124 32.1928 68.9139 32.1376C68.6313 32.0758 68.2697 32.0386 68.0674 31.8161C67.8362 31.5635 67.8202 30.9643 67.7977 30.6217C67.7097 29.2968 67.7958 27.9281 67.7893 26.5974L67.7958 16.8858C67.0366 16.8916 66.2345 16.9565 65.4811 16.8684C65.0399 16.817 64.5967 16.7051 64.327 16.3252C63.8331 15.629 63.8941 14.2873 64.0752 13.4773C64.196 12.9373 64.3469 12.7458 64.8055 12.4475C67.054 12.299 69.3262 12.4809 71.5811 12.362ZM79.3767 12.3697C79.4426 12.3611 79.5088 12.3536 79.5751 12.3472C80.1243 12.3009 81.1685 12.1903 81.5931 12.6024C81.8281 12.8306 81.8301 13.865 81.8378 14.1948C81.8737 15.8064 81.8236 17.4238 81.8249 19.0368C81.8268 20.7436 81.8782 22.4516 81.8827 24.1597C81.8879 26.2876 81.9958 28.4797 81.8609 30.5998C81.8384 30.956 81.8442 31.5493 81.5828 31.8136C81.0902 32.3118 80.1191 32.1864 79.4839 32.1845C78.9464 32.1967 78.0614 32.2745 77.624 31.9299C77.3254 31.694 77.3292 31.2916 77.2965 30.938C77.0351 28.076 77.1988 24.6078 77.2053 21.6847C77.211 19.1531 77.0608 16.5611 77.2284 14.0386C77.2541 13.6522 77.2374 13.0158 77.5135 12.7258C77.9451 12.2733 78.7967 12.3826 79.3767 12.3697ZM100.368 12.3697C101.142 12.3022 102.524 12.1447 103.194 12.6159C103.282 12.6783 103.362 12.7168 103.383 12.8293C103.698 14.5368 103.476 16.8176 103.496 18.5887C103.556 21.6028 103.561 24.6172 103.512 27.6318C103.503 28.8481 103.582 30.101 103.492 31.3121C103.476 31.5288 103.452 31.6895 103.306 31.8637C103.053 32.1665 102.664 32.1832 102.3 32.2288C101.631 32.2963 99.9933 32.4268 99.4282 32.0218C99.1706 31.838 99.1925 31.6297 99.1424 31.3366C98.9574 30.2527 99.028 29.1521 99.0396 28.058L99.0775 23.6049C99.0891 20.3199 98.9201 16.9803 99.0801 13.7011C99.0948 13.3957 99.0826 12.9026 99.2984 12.668C99.547 12.398 100.027 12.4044 100.368 12.3697Z" fill="#C5C8CD"/>
</svg>
