<svg width="139" height="32" viewBox="0 0 139 32" fill="none" xmlns="http://www.w3.org/2000/svg">
<path d="M0.403086 0.237972L7.59584 0.225172C12.458 0.218772 16.8737 0.211732 20.7998 3.56213C24.1067 6.38453 25.952 10.6495 26.2709 14.9471C26.6101 19.5359 24.9624 23.9045 22.0088 27.3657C21.9002 27.4981 21.7851 27.625 21.6638 27.7458C17.6032 31.7605 13.0867 31.7234 7.77247 31.7228L0.403086 31.717C0.230919 28.101 0.380131 24.2636 0.383957 20.6277L0.403086 0.237972ZM8.00649 24.8703C10.9231 24.8569 13.9207 24.9657 16.1194 22.7077C16.1738 22.6518 16.2274 22.5953 16.2801 22.5381C17.4553 21.1911 18.24 19.5464 18.5489 17.7829C18.6327 17.3047 18.6802 16.8207 18.6911 16.3353C18.699 16.0118 18.6907 15.6882 18.6662 15.3657C18.4947 13.0137 17.5197 10.6175 15.7087 9.06101C13.5579 7.21141 10.8498 7.15701 8.16782 7.21909C8.01861 7.39765 8.01414 7.53397 7.99693 7.76309C7.84835 9.71637 7.98672 11.7567 7.988 13.7196L8.00649 24.8703ZM108.999 5.35477C109.5 5.40341 110.03 5.37781 110.535 5.38677C110.454 6.47477 110.498 7.59669 110.498 8.68917C110.499 9.91541 110.462 11.1557 110.552 12.3801C109.027 12.4633 107.02 12.2373 105.815 13.3913C105.205 13.9756 104.828 14.8927 104.687 15.7209C104.382 17.518 104.606 19.4649 104.615 21.285L104.618 31.6364C99.7288 31.7465 94.8036 31.6665 89.9121 31.6421C89.1316 29.5365 88.6393 27.2549 88.0297 25.0898C86.8079 20.9075 85.661 16.7035 84.5896 12.4799C82.3559 12.4569 80.5857 12.526 78.8781 14.1516C77.3209 15.6338 76.2165 17.7785 76.1719 19.957C76.1432 21.3714 76.5405 22.7794 77.5537 23.806C79.4067 25.6831 83.0777 25.1602 85.5448 25.1308C85.5875 27.3004 85.555 29.4745 85.5512 31.6434C81.847 31.7586 77.8757 32.0383 74.4534 30.3423C73.5231 29.8533 72.6552 29.2498 71.9104 28.5042C69.736 26.3282 68.6941 23.2396 68.696 20.1938C68.6979 15.9589 70.6396 12.2553 73.5919 9.32789C75.5744 7.36117 77.7973 5.73493 80.645 5.50517C81.6876 5.42069 82.7563 5.48789 83.8008 5.49877L90.3062 5.54613C90.5682 6.74037 90.9521 7.91797 91.2843 9.09557C91.8525 11.1085 92.4104 13.1243 92.9582 15.1429C94.3476 20.2335 95.6261 25.3772 97.1093 30.4389C97.2018 27.8713 97.1444 25.2953 97.1431 22.7263C97.1006 16.9791 97.1253 11.2323 97.2171 5.48597C99.6984 5.56618 102.18 5.57749 104.662 5.51989C104.701 5.91669 104.7 6.32373 104.714 6.72309C106.087 5.80789 107.367 5.43733 108.999 5.35477ZM38.92 5.50581C40.0576 5.33557 41.3776 5.45909 42.5375 5.46101C44.3656 5.46421 46.4546 5.30485 48.2445 5.56085C50.0986 11.4919 51.87 17.4488 53.5581 23.4297C54.3551 26.1791 55.0604 28.9868 55.9894 31.6921C53.4159 31.8405 50.7734 31.7273 48.1928 31.7279C47.0023 28.1983 46.0822 24.5394 45.039 20.9605C44.2636 18.2994 43.1732 15.1788 42.6414 12.5138C42.3049 12.4864 41.9676 12.4693 41.6301 12.4626C39.4333 12.437 38.1485 13.1154 36.606 14.6367C35.2095 16.1721 34.1988 18.0972 34.158 20.213C34.1332 21.5269 34.4896 22.814 35.4397 23.765C37.2392 25.5666 41.3202 25.1013 43.7484 25.1058C43.7082 27.3151 43.7082 29.525 43.7484 31.7343C39.3524 31.7516 34.6191 32.1631 30.9353 29.2793C28.4695 27.3484 27.0482 24.5765 26.6841 21.4777C26.2415 17.7145 27.5207 14.0665 29.8596 11.141C32.1622 8.26101 35.1961 5.92885 38.92 5.50581ZM122.718 5.43861C125.609 5.58773 128.533 5.42773 131.431 5.50069C131.628 6.49909 131.958 7.48917 132.239 8.46709C132.656 9.91665 133.062 11.3695 133.456 12.8255L136.696 24.6117C137.354 26.9561 138.067 29.2869 138.691 31.6402C137.707 31.6581 131.742 31.6165 131.405 31.7266C131.255 31.7759 131.22 31.7919 131.07 31.7561C130.547 30.9484 129.762 27.4873 129.453 26.3865L125.613 12.5241C124.889 12.5061 124.147 12.4729 123.426 12.5605C121.76 12.7634 120.489 13.6601 119.476 14.9714L119.422 15.0335C118.121 16.5285 117.345 18.7417 117.48 20.7231C117.565 21.9884 117.971 23.3343 118.979 24.1676C120.651 25.5519 124.42 25.2671 126.486 25.0924C126.445 27.2953 126.485 29.5033 126.464 31.7068C125.616 31.6421 124.72 31.71 123.869 31.7196C119.898 31.7644 116.33 31.6389 113.264 28.7449C111.245 26.8377 110.077 23.9397 109.987 21.1788C109.846 16.8012 110.899 13.0367 113.964 9.79957C116.249 7.38677 119.341 5.51157 122.718 5.43861ZM56.2235 0.382612C58.6899 0.550292 61.2131 0.337812 63.691 0.436372L63.728 5.53717C65.3073 5.52608 66.8863 5.53568 68.4652 5.56597C68.4385 7.90765 68.437 10.2495 68.4607 12.5913L63.7433 12.5868C63.8256 13.2716 63.7727 14.0057 63.7669 14.6962C63.7542 15.9109 63.7474 17.1257 63.7465 18.3404C63.7472 22.5503 63.788 26.7641 63.7274 30.974C63.7465 31.2236 63.7421 31.4732 63.7427 31.7228C61.2609 31.7317 58.7377 31.8226 56.2604 31.6857C56.3172 31.0444 56.2643 30.3628 56.2662 29.717C56.2726 28.1051 56.2653 26.4935 56.2445 24.8825L56.2477 12.6412C55.2102 12.558 54.1664 12.6028 53.127 12.6201C53.0921 10.2486 53.0887 7.87674 53.1168 5.50517C54.1275 5.45141 55.1828 5.53653 56.1986 5.55445C56.1214 4.90357 56.1858 4.20853 56.196 3.55253L56.2235 0.382612Z" fill="#C5C8CD"/>
</svg>
