<svg width="139" height="46" viewBox="0 0 139 46" fill="none" xmlns="http://www.w3.org/2000/svg">
<path d="M20.1163 0.289944C20.6596 0.201773 21.266 0.257359 21.8189 0.259276C21.7124 1.39528 21.6633 2.53191 21.4886 3.66216C20.5659 9.62201 17.8552 14.8816 14.1275 19.5572C13.3521 20.5296 12.4951 21.428 11.6916 22.3761C18.4297 29.7065 20.9351 35.9161 21.8877 45.7606C15.8555 45.528 11.7669 44.0802 7.02271 40.3381C3.72029 37.2253 1.61029 33.4646 0.320312 29.1257C4.7246 27.7731 8.04296 25.5433 11.3728 22.4017C8.24765 19.3445 4.61429 17.5651 0.426801 16.5198C1.01403 14.2263 1.96105 12.0408 3.23249 10.045C3.65538 9.38081 4.113 8.73951 4.60345 8.12374C8.69273 3.02388 13.7774 0.977422 20.1163 0.289944ZM36.7285 6.13926C36.7379 6.13883 36.747 6.13798 36.756 6.1367C39.9844 5.89519 43.2639 6.77562 45.7373 8.91792C48.4958 11.3075 49.9503 14.7065 50.1729 18.3203C50.4407 22.6713 49.2234 26.2557 46.3514 29.509C47.3889 30.5863 48.5105 31.6481 49.4498 32.8103C47.7494 32.8516 46.0485 32.8806 44.3472 32.8972C44.1177 32.51 43.8473 32.1689 43.5693 31.8155L42.2787 32.3829C41.2546 32.7151 40.2223 32.9598 39.1497 33.0761C35.7542 33.4429 32.4664 32.6576 29.8017 30.4712C27.1331 28.2817 25.6697 25.0935 25.3285 21.6874C24.9306 17.6986 25.6174 13.5022 28.2311 10.3446C30.4004 7.72505 33.4013 6.45999 36.7279 6.13989M41.0799 28.8241L40.1183 27.7526C39.5087 27.0754 38.8864 26.4058 38.2965 25.7107L40.6125 23.7709C41.4816 24.8232 42.3348 25.894 43.2313 26.922C45.2578 24.2309 45.9082 20.9526 45.4568 17.6353C45.1297 15.2368 44.2172 12.7732 42.229 11.2653C40.9689 10.3101 38.9897 9.6367 37.3981 9.81177C37.298 9.82263 37.2693 9.83732 37.1845 9.86608C35.0509 10.0833 33.1067 10.8967 31.7185 12.5796C29.7182 15.0049 29.2648 18.2902 29.5906 21.3353C29.8603 23.8616 30.8851 26.2716 32.8937 27.897C34.4419 29.15 36.5474 29.7793 38.5274 29.5499C39.4182 29.4464 40.2592 29.1768 41.0799 28.8241ZM76.3869 13.161C76.6665 13.1341 76.9467 13.1141 77.2273 13.1009C79.2678 13.0147 81.7477 13.398 83.2742 14.8586C84.0502 15.601 84.5463 16.546 84.7925 17.5868C85.1929 19.2799 85.0112 21.1488 85.0061 22.8758C84.9972 26.1521 84.9002 29.4298 84.9442 32.7055C83.7 32.7205 82.4555 32.7211 81.2108 32.7075C81.2331 31.8622 81.198 31.0092 81.1872 30.1639C80.2747 31.2213 79.3137 32.135 78.0155 32.6966C76.3831 33.4026 74.0862 33.5547 72.4353 32.857C70.8801 32.2002 70.0556 30.9555 69.4702 29.4432C69.2082 28.0088 69.1278 26.3796 69.7106 25.011C71.2302 21.4446 76.1542 22.3148 79.1346 21.0734C79.8953 20.7565 80.6809 20.322 80.9825 19.5029C81.2031 18.9062 81.1183 18.2398 80.8186 17.6865C80.3742 16.8635 79.5095 16.3288 78.6302 16.0828C77.4779 15.7608 76.1516 15.8221 75.118 16.4661C73.9562 17.1907 73.6023 18.2768 73.2962 19.531C72.1095 19.4703 70.9062 19.4997 69.717 19.494C69.7546 18.0161 70.0384 16.6348 71.0312 15.4809C72.3588 13.9373 74.4242 13.313 76.3869 13.161ZM74.0779 29.7429C75.1958 30.3901 76.3333 30.6188 77.6086 30.2879C78.7966 29.9793 79.741 29.2017 80.3187 28.1239C80.9793 26.8907 81.5232 24.0744 81.1183 22.741L80.9583 22.6937C78.6276 23.8712 74.0174 23.8731 73.1616 26.5253C72.9346 27.2294 72.948 28.097 73.2885 28.7634C73.4881 29.1519 73.7623 29.4471 74.0779 29.7429ZM63.9896 13.6485C65.161 13.6613 66.3336 13.651 67.505 13.6498C67.57 19.9942 67.5698 26.3391 67.5043 32.6845C66.3693 32.6802 65.2347 32.6932 64.1005 32.7234C64.0999 31.9158 64.0368 31.1146 63.9768 30.3096C63.76 30.5507 63.539 30.7877 63.3137 31.0207C61.8745 32.4921 59.8907 33.1726 57.8662 33.1886C56.0361 33.2033 54.2743 32.7816 52.9448 31.4283C50.7806 29.2266 51.1912 25.8435 51.2448 23.0259L51.248 13.7641L55.4629 13.7558C55.3455 16.1198 55.4074 18.5119 55.401 20.8791C55.3959 22.994 55.2193 25.2979 55.5866 27.3795C55.7013 28.0293 55.8907 28.5909 56.3441 29.0854C57.0391 29.8438 58.1181 30.1364 59.1128 30.1799C60.2829 30.2316 61.4402 29.9377 62.3132 29.1244C63.0516 28.4356 63.4756 27.5028 63.7052 26.5323C64.156 24.6251 64.0081 22.5991 63.9877 20.6555C63.9628 18.3203 63.9143 15.9831 63.9896 13.6485ZM96.4533 13.154C96.8888 13.1297 97.3269 13.1041 97.763 13.1195C99.2373 13.1712 100.655 13.5986 101.673 14.7276C102.449 15.5902 102.887 16.7127 103.101 17.8417C103.456 19.7157 103.284 21.7711 103.282 23.6763C103.305 26.6729 103.274 29.6688 103.188 32.664C102.016 32.7209 100.844 32.6097 99.6696 32.6806C99.6046 29.9205 99.6486 27.1559 99.6569 24.3958C99.662 22.787 99.741 21.1309 99.5198 19.5336C99.4203 18.8148 99.229 17.8404 98.7361 17.2948C98.1807 16.6795 97.0367 16.3524 96.225 16.3396C94.6991 16.316 93.3862 17.2264 92.3595 18.2628C91.859 18.8518 91.4847 19.3809 91.2704 20.1412C90.6423 22.3736 90.9816 29.9128 90.9745 32.694L87.3622 32.6953C87.2321 29.755 87.2927 26.7936 87.2997 23.8508L87.3138 13.5578C88.4628 13.5226 89.6214 13.545 90.7718 13.5411C90.8011 14.5954 90.819 15.6419 90.7864 16.6968C92.4016 14.6982 93.8485 13.5003 96.4533 13.1533M124.673 13.3878C124.722 13.3904 124.772 13.3878 124.821 13.3961C125.28 13.4817 129.154 19.9029 129.787 20.8593C130.876 18.5541 132.935 15.5959 134.4 13.4453C135.692 13.4389 137.044 13.6114 138.327 13.4709C136.45 16.7083 134.284 19.7879 132.247 22.9269C134.502 26.0831 136.783 29.3812 138.692 32.7611C137.462 32.7452 136.237 32.7356 135.008 32.7777L134.788 32.7643C133.768 32.0845 130.525 26.5975 129.739 25.2059C127.955 27.5507 126.483 30.2246 124.918 32.726C123.525 32.697 122.131 32.7162 120.738 32.7835C122.786 29.5953 125.166 26.3841 126.886 23.0093C125.593 20.115 122.71 16.2003 120.875 13.437C122.141 13.4306 123.407 13.4142 124.673 13.3878ZM107.182 8.03429C108.208 8.21638 109.601 8.10266 110.637 7.98318C110.612 9.79324 110.602 11.611 110.734 13.4166L114.208 13.4344C114.203 14.4037 114.2 15.3608 114.089 16.3256C112.981 16.2061 111.856 16.2796 110.744 16.3109L110.727 23.5933C110.713 25.05 110.567 26.6486 110.757 28.0906C110.813 28.5059 110.899 29.065 111.256 29.3301C111.98 29.8668 113.322 29.5563 114.14 29.4566C114.154 30.2962 114.137 31.1376 114.133 31.9772C114.111 32.1689 114.139 32.3382 114.002 32.487C113.61 32.9151 112.556 32.8813 111.997 32.9036C110.647 32.9573 109.036 32.8257 108.026 31.82C107.509 31.3063 107.325 30.5038 107.215 29.8029C106.946 28.0868 107.091 26.2224 107.1 24.4871L107.105 16.4476L104.339 16.424C104.308 15.4317 104.339 14.4337 104.349 13.4415C105.277 13.4376 106.192 13.4376 107.117 13.522L107.182 8.03429ZM115.824 13.4485C116.956 13.4421 118.089 13.4445 119.221 13.4555C119.381 19.8818 119.117 26.333 119.366 32.7573C118.203 32.7196 117.03 32.7733 115.867 32.8014C115.63 26.3777 115.783 19.8786 115.824 13.4485ZM115.742 7.0625C116.912 7.11233 118.137 7.21456 119.302 7.08358C119.311 8.29178 119.324 9.49678 119.258 10.7037C118.095 10.7574 116.92 10.7299 115.755 10.7331C115.714 9.51275 115.742 8.28347 115.742 7.0625Z" fill="#C5C8CD"/>
</svg>
