<svg width="137" height="37" viewBox="0 0 137 37" fill="none" xmlns="http://www.w3.org/2000/svg">
<path d="M109.224 0.749614C112.525 0.662835 115.857 0.711329 119.159 0.76748C119.994 2.51455 120.885 4.23036 121.691 5.99339C123.553 10.0707 125.337 14.2572 127.474 18.1916C126.798 19.9074 125.836 21.5601 125.06 23.2382L119.106 36.1409L110.184 36.1614C107.665 36.1843 105.081 36.4447 102.591 35.9508C101.111 35.6575 99.7062 35.062 98.4605 34.2005C95.6907 32.3169 94.1453 29.4793 93.5168 26.2015C92.7419 22.1612 93.4477 17.6659 95.731 14.2323C96.5587 13.1418 97.5441 12.216 98.7074 11.5032C101.118 10.0254 104.029 9.66684 106.749 10.3496C109.169 10.957 111.169 12.3576 112.447 14.5431C114.289 17.692 114.336 22.2026 113.465 25.6604C108.994 25.7861 104.511 25.6713 100.038 25.6878C100.493 27.38 101.286 28.7398 102.823 29.628C104.528 30.6139 106.731 30.7791 108.602 30.2431C113.624 28.8055 115.421 22.8733 117.722 18.7461C115.052 12.6697 112.028 6.75973 109.224 0.749614ZM100.012 20.64L104.391 20.6489C105.443 20.654 106.499 20.6776 107.55 20.6534C107.373 19.0428 107.235 16.9991 105.891 15.9009C105.19 15.3279 104.337 15.1812 103.46 15.2169C102.358 15.5468 101.569 16.0171 101.005 17.082C100.441 18.147 100.205 19.4563 100.012 20.64ZM36.8976 12.8745C37.3809 12.373 37.8623 11.851 38.4009 11.4107C39.8383 10.2354 41.522 9.76383 43.3534 9.96418C45.6989 10.2213 47.1859 11.4701 48.6326 13.2675L48.7602 13.1342C50.4269 11.3973 52.137 9.9578 54.6415 9.94504C56.6137 9.93483 58.6751 10.5704 60.0936 12.0073C61.184 13.1131 61.7842 14.5788 62.1016 16.0892C62.7464 19.152 62.4586 22.4751 62.4422 25.5966L62.4655 36.0274C60.1545 36.1116 57.8091 36.0267 55.495 36.0286L55.5182 25.7523C55.5258 23.8151 55.6615 21.7758 55.4466 19.8526C55.346 18.9503 55.121 17.8426 54.3656 17.2728C53.4883 16.6098 52.3966 16.7745 51.3929 16.9442C51.1604 16.888 51.041 16.9295 50.8405 17.068C50.2409 17.4834 49.7934 18.4131 49.7092 19.1277C49.5351 20.6157 49.4308 32.8848 49.7959 33.4872C49.86 34.3384 49.8481 35.1934 49.85 36.0459C47.6084 36.0365 45.3668 36.0395 43.1252 36.0548L43.1441 25.5711C43.1629 23.6811 43.3414 21.7094 43.1183 19.8309C43.0297 19.0875 42.8694 18.2529 42.3799 17.6678C41.8934 17.0865 41.1801 16.8185 40.4429 16.7885C39.6837 16.7585 38.8704 16.9991 38.3268 17.5574C37.8177 18.0806 37.6681 18.8712 37.5714 19.5756C37.325 21.3693 37.4677 23.304 37.4708 25.118C37.4708 28.7589 37.4938 32.3994 37.5399 36.0395L30.6292 36.0574L30.6367 10.5059C32.1375 10.5066 33.6408 10.49 35.141 10.5551C35.7714 11.2863 36.3257 12.0947 36.8976 12.8745ZM84.1575 10.0325C84.4847 10.0012 84.8131 9.98433 85.1417 9.98205C87.0133 9.96163 88.8573 10.5474 90.1997 11.9116C91.2084 12.937 91.8206 14.2566 92.1147 15.6636C92.7262 18.5879 92.4019 21.9021 92.4075 24.8902L92.5251 36.0497C90.2443 36.0242 87.9541 36.0854 85.6746 35.9974C85.6394 32.4592 85.7186 28.9115 85.7312 25.372C85.7369 23.6824 85.8142 21.9506 85.6803 20.2673C85.6011 19.2719 85.4452 18.0659 84.6351 17.4011C83.9702 16.8549 83.057 16.6819 82.2224 16.7821C81.3859 16.8842 80.8196 17.3143 80.3168 17.9766C80.0441 18.4424 79.9165 18.9484 79.853 19.4825C79.6557 21.1377 79.7543 22.9032 79.7487 24.5725L79.8021 36.051C77.5207 36.0301 75.2393 36.0252 72.958 36.0363L72.9724 10.5474L76.639 10.5927C77.6339 11.3622 78.4942 12.2351 79.3729 13.1348C80.7354 11.3399 81.9672 10.4868 84.1575 10.0325ZM8.99056 10.5046C11.2418 10.5302 13.5106 10.4549 15.7587 10.5493L15.7511 21.6296C15.7518 23.616 15.5953 25.7274 15.907 27.6902C16.0101 28.3378 16.1785 28.9376 16.6279 29.4296C17.174 30.0268 17.9835 30.3695 18.781 30.3924C19.6232 30.4161 20.5062 30.0677 21.0982 29.4564C21.5614 28.9772 21.7695 28.4354 21.8776 27.7808C22.1962 25.8448 21.9875 23.7672 21.9844 21.8057C21.9743 18.0394 21.988 14.2732 22.0253 10.5072C24.3066 10.5472 26.5876 10.5693 28.8682 10.5736L28.8053 18.9178C28.8015 24.6248 28.7161 30.3459 28.838 36.051L24.9615 36.0561C24.4159 35.2099 23.8783 34.3585 23.3488 33.5018C21.4697 35.2885 19.7363 36.4096 17.0848 36.4396C14.9435 36.4638 12.6785 35.9763 11.1192 34.3862C10.0885 33.3346 9.51849 31.9423 9.22813 30.5067C8.72346 28.0098 8.98553 25.2406 8.9893 22.6965L8.99056 10.5046ZM0.3125 0.570312C2.58509 0.612851 4.85809 0.623486 7.13152 0.602217C7.07202 12.337 7.08501 24.0709 7.17048 35.804L7.11706 35.9935C6.40185 36.155 5.49307 36.0548 4.75649 36.0548L0.3125 36.0535V0.570312ZM64.2303 10.5691L71.1473 10.5767C71.123 19.0667 71.1416 27.5568 71.2032 36.0471C68.8735 36.029 66.5436 36.0299 64.2139 36.0497L64.2303 10.5691ZM128.063 19.2464C128.582 19.7888 129.222 21.5141 129.608 22.2594C132 26.8489 134.362 31.4542 136.693 36.0752C134.93 36.192 133.112 36.1033 131.342 36.1033L125.679 36.1403C124.816 34.198 123.711 32.3188 122.626 30.4971C123.312 28.9274 124.16 27.4049 124.899 25.8557C125.948 23.6536 126.912 21.3961 128.063 19.2464ZM125.69 0.741319C129.052 0.580522 132.876 0.659006 136.26 0.747062C135.702 2.1585 134.935 3.54187 134.268 4.90673C132.826 7.84689 131.363 10.7766 129.881 13.6957C129.347 14.9336 128.677 16.1479 128.031 17.3309C126.513 13.5898 124.472 10.0401 122.849 6.33732C123.8 4.48304 124.612 2.52413 125.69 0.741319ZM68.4964 0.699205C69.4517 0.685806 70.4082 0.65773 71.3623 0.718348C71.3365 2.94654 71.2994 5.1843 71.3842 7.41057L67.1942 7.41887L64.1932 7.4278C64.1423 5.65712 63.9462 3.28281 65.2201 1.87775C66.1 0.907221 67.2727 0.751528 68.4964 0.699205Z" fill="#C5C8CD"/>
<path d="M49.8001 33.4869C49.4356 32.8845 49.5393 20.6154 49.7134 19.1274C49.7976 18.4128 50.245 17.4837 50.8446 17.0683C51.0445 16.9292 51.1645 16.8878 51.3964 16.9446C51.1054 17.2189 50.7717 17.4448 50.5172 17.7562C49.922 18.4842 49.8284 19.7534 49.7963 20.6697C49.6467 24.9314 49.9786 29.2258 49.8001 33.4869Z" fill="#C5C8CD"/>
</svg>
