<svg width="147" height="27" viewBox="0 0 147 27" fill="none" xmlns="http://www.w3.org/2000/svg">
<path d="M105.674 0.235375C105.778 0.215125 105.917 0.2104 106.018 0.2023C109.768 -0.088625 114.352 0.44395 117.3 3.013C119.903 5.281 120.605 8.656 120.814 11.9554C121.053 15.7557 120.926 20.2309 118.25 23.2239C115.94 25.8057 112.602 26.5746 109.273 26.7413C109.232 26.7471 109.19 26.7525 109.147 26.7575C105.594 27.1362 100.858 26.6097 97.974 24.2958C95.5901 22.3835 94.5442 19.3811 94.2381 16.4219C93.826 12.4394 94.0142 7.12915 96.6651 3.90738C98.8918 1.20198 102.365 0.548575 105.674 0.235375ZM109.039 20.349C110.291 20.0487 111.21 19.5836 111.917 18.4644C113.302 16.27 113.307 12.8032 112.714 10.359C112.4 9.0637 111.774 7.85073 110.614 7.12308C109.349 6.3286 107.785 6.2908 106.343 6.45348C105.087 6.70525 103.93 7.04275 103.185 8.1727C101.719 10.3955 101.81 14.1964 102.378 16.6878C102.653 17.8947 103.205 19.0011 104.271 19.6909C105.571 20.5313 107.54 20.6859 109.039 20.349ZM0.720493 0.80035C3.21291 0.74635 5.71409 0.810475 8.20853 0.799C12.8967 0.7774 18.8836 0.1456 22.5811 3.6556C25.0755 6.0235 25.673 9.27633 25.7714 12.5771C25.8881 16.4874 25.0438 20.2215 22.3059 23.1408C18.1317 26.7865 14.0114 26.2276 8.85254 26.1986C6.05172 26.1869 3.2509 26.2038 0.450077 26.2492C0.350946 23.9421 0.403546 21.6207 0.404895 19.3122L0.408941 8.17202C0.408941 6.6823 0.21068 1.98633 0.46761 0.909025L0.720493 0.80035ZM8.08176 19.9852C10.8635 19.863 13.625 20.4395 15.9852 18.5441C17.5726 16.5029 17.8714 13.84 17.5747 11.3263C17.4196 10.0128 16.994 8.70258 15.9023 7.87165C13.9426 6.38193 10.413 6.6877 8.07299 6.82338C8.04601 11.2041 7.99679 15.6045 8.08176 19.9852ZM69.9781 0.78685C72.6594 0.62755 75.4175 0.7504 78.1068 0.745675C80.9189 0.740275 83.9757 0.50065 86.7541 0.949525C87.9591 1.14393 89.148 1.50978 90.1825 2.17195C91.8084 3.21213 92.8961 4.82335 93.3075 6.70525C93.766 8.80045 93.5145 11.2008 92.3222 13.0185C91.4253 14.3861 89.7428 15.6254 88.1324 15.971C90.2364 19.3338 92.4632 22.7358 94.3217 26.2377C93.1524 26.2681 91.9756 26.2141 90.8063 26.1905L85.3818 26.1993L80.1845 17.7908L77.9295 17.8178C77.744 20.5853 77.9139 23.4648 77.9612 26.2411C75.2657 26.1966 72.5778 26.2276 69.8824 26.2546C69.8716 17.7649 69.9035 9.27565 69.9781 0.78685ZM77.9901 7.09742C77.9483 8.72147 77.9065 10.3422 77.9342 11.9669C79.8595 12.002 81.8144 12.1343 83.7174 11.7826C84.06 11.6449 84.41 11.5194 84.7317 11.3358C85.166 10.4461 85.5355 9.5497 85.1653 8.55678C85.0527 8.25303 84.8807 7.96075 84.7 7.69413C83.0249 6.79367 81.3768 6.92733 79.5378 7.03667C79.0226 7.05963 78.506 7.09203 77.9901 7.09742ZM122.073 0.6775C124.391 0.55465 126.82 0.640375 129.141 0.736225C132.26 5.07175 135.397 9.46398 138.782 13.595C138.879 9.29658 138.768 4.97388 138.745 0.674125C141.361 0.553975 144.047 0.655225 146.671 0.671425C146.377 3.11223 146.575 6.59995 146.571 9.17912C146.555 14.8707 146.57 20.5626 146.616 26.2546C144.177 26.3687 141.711 26.2816 139.269 26.2661C138.155 24.4051 136.822 22.6731 135.537 20.9282C133.704 18.4133 131.837 15.9239 129.935 13.4607C129.76 15.3885 129.88 17.3777 129.928 19.3095C129.978 21.6225 130.01 23.9355 130.023 26.2485C127.342 26.1972 124.668 26.2303 121.988 26.2553C121.964 23.6788 122.067 21.101 122.079 18.5245L122.073 0.6775ZM33.1206 0.702475C35.5813 0.7774 38.0488 0.740275 40.5108 0.760525C44.2852 9.12648 47.6307 17.7071 51.078 26.2114C47.2921 26.2668 43.5036 26.2006 39.7164 26.2485C38.9902 23.7591 38.5039 21.1604 37.9314 18.6305C37.6212 17.4938 37.2989 16.3598 37.0359 15.2116C35.8908 18.8127 35.1504 22.5786 34.1658 26.2296C30.4383 26.1834 26.7104 26.1883 22.983 26.2445C24.0067 23.4216 25.2454 20.6791 26.375 17.8974C28.7088 12.1995 30.9574 6.46701 33.1199 0.7018M46.257 0.7261L60.608 0.749725C63.0869 0.75175 65.6252 0.630925 68.0933 0.821275L68.1041 7.81157C65.7978 7.8838 63.4699 7.78728 61.1603 7.81293C61.0348 11.6928 61.1549 15.6139 61.1528 19.4985C61.1259 21.7517 61.0787 23.9994 61.1684 26.2512C58.4426 26.1925 55.7263 26.2215 53.0012 26.2553C52.776 20.1324 52.919 13.9109 52.9851 7.77918C50.7426 7.79403 48.4999 7.79718 46.257 7.78863C46.2404 5.43448 46.2404 3.08025 46.257 0.7261Z" fill="#C5C8CD"/>
</svg>
