<svg width="54" height="44" viewBox="0 0 54 44" fill="none" xmlns="http://www.w3.org/2000/svg">
<path d="M51.5217 0.949707H50.638C49.4058 0.949707 48.4021 1.94673 48.3913 3.17637H5.47759C5.46677 1.94673 4.46444 0.949707 3.23404 0.949707H2.34717C1.10995 0.949707 0.103516 1.95766 0.103516 3.19649V41.4076C0.103516 42.6256 1.09307 43.6166 2.30941 43.6166H51.5593C52.7774 43.6166 53.7684 42.6256 53.7684 41.4076V3.1966C53.7684 1.95776 52.7605 0.949815 51.5216 0.949815L51.5217 0.949707Z" fill="#895438"/>
<path d="M35.1787 19.6897C35.1787 21.4466 34.6245 23.0756 33.6843 24.4147H46.7048C47.0702 25.1441 47.6618 25.7357 48.3912 26.101V36.5541C47.6618 36.9195 47.0702 37.5111 46.7048 38.2405H7.16598C6.79925 37.5114 6.20719 36.9201 5.47769 36.5542V26.101C6.20717 25.7352 6.79923 25.1438 7.16598 24.4148H20.1846C19.2444 23.0757 18.6902 21.4467 18.6902 19.6898H0.103516V41.4089C0.103516 42.6269 1.09307 43.6179 2.30941 43.6179H51.5593C52.7774 43.6179 53.7684 42.6269 53.7684 41.4089V19.6898H35.1785L35.1787 19.6897Z" fill="#FFB432"/>
<path d="M48.3891 3.82571V13.2743C47.6597 13.6397 47.0681 14.2312 46.7028 14.9607H33.3418V16.259H47.1324C47.2674 16.259 47.399 16.2169 47.5089 16.1386C47.6189 16.0604 47.7017 15.9498 47.7459 15.8222C47.9882 15.1223 48.5507 14.5598 49.2506 14.3174C49.3782 14.2733 49.4888 14.1904 49.5671 14.0805C49.6453 13.9705 49.6874 13.8389 49.6874 13.704V3.82571H48.3891Z" fill="black"/>
<path d="M28.8339 27.6974C33.2642 26.6469 36.004 22.2038 34.9534 17.7735C33.9029 13.3433 29.4598 10.6034 25.0295 11.654C20.5993 12.7045 17.8594 17.1476 18.91 21.5779C19.9605 26.0082 24.4036 28.748 28.8339 27.6974Z" fill="#E6A22D"/>
<path d="M18.6901 19.6887C18.6901 17.9304 19.2451 16.3003 20.1868 14.9606H7.16587C6.79914 14.2315 6.20708 13.6402 5.47759 13.2743V3.17646C5.46677 1.94682 4.46444 0.949799 3.23404 0.949799H2.34717C1.10995 0.949799 0.103516 1.95775 0.103516 3.19659V19.6887H18.6902H18.6901ZM51.5247 0.949799H50.6378C49.4073 0.949799 48.4051 1.94682 48.3943 3.17646V13.2743C47.6648 13.6402 47.0728 14.2315 46.706 14.9606H33.682C34.6236 16.3004 35.1787 17.9304 35.1787 19.6887C35.1787 21.447 53.7685 19.6887 53.7685 19.6887V3.19669C53.7685 1.95786 52.7619 0.949907 51.5248 0.949907L51.5247 0.949799Z" fill="#FFC83C"/>
<path d="M26.9345 15.2952C25.1763 15.2952 23.7461 16.7255 23.7461 18.4836C23.7461 19.7794 24.5236 20.8964 25.6362 21.3947V22.7828C25.6362 23.4998 26.2175 24.0812 26.9345 24.0812C27.6515 24.0812 28.2329 23.4998 28.2329 22.7828V21.3953C29.3473 20.8974 30.1262 19.7801 30.1262 18.4837C30.1262 16.7255 28.6944 15.2952 26.9345 15.2952Z" fill="#6C392C"/>
<path d="M26.9331 11.4457C27.8489 11.4456 28.7582 11.5987 29.6234 11.8988V3.17764H24.2461V11.8978C25.1103 11.5984 26.0185 11.4456 26.9331 11.4457Z" fill="#FFC83C"/>
</svg>
