<svg width="85" height="85" viewBox="0 0 85 85" fill="none" xmlns="http://www.w3.org/2000/svg">
<path d="M39.5111 46.471H45.6887L48.9537 84.0964H36.2461L39.5111 46.471Z" fill="url(#paint0_linear_216_32951)"/>
<path d="M45.692 38.0901L39.5145 38.0901L36.2494 0.464766L48.957 0.464767L45.692 38.0901Z" fill="url(#paint1_linear_216_32951)"/>
<path d="M38.5703 39.531L38.5703 45.7085L0.94493 48.9735L0.944931 36.2659L38.5703 39.531Z" fill="url(#paint2_linear_216_32951)"/>
<path d="M46.6523 39.531L46.6523 45.7085L84.2777 48.9735L84.2777 36.2659L46.6523 39.531Z" fill="url(#paint3_linear_216_32951)"/>
<path d="M44.8965 47.2537L47.3746 44.5635L75.9056 67.6741L70.2673 73.795L44.8965 47.2537Z" fill="url(#paint4_linear_216_32951)"/>
<path d="M40.3066 47.2537L37.8285 44.5635L9.38662 67.592L15.0249 73.7129L40.3066 47.2537Z" fill="url(#paint5_linear_216_32951)"/>
<path d="M37.8952 40.5016L40.4816 37.9152L15.8759 10.0114L9.99132 15.8959L37.8952 40.5016Z" fill="url(#paint6_linear_216_32951)"/>
<path d="M47.3079 40.5016L44.7216 37.9152L69.4059 9.93269L75.2905 15.8172L47.3079 40.5016Z" fill="url(#paint7_linear_216_32951)"/>
<circle cx="42.6119" cy="42.2822" r="41.6666" fill="#746FE5" fill-opacity="0.02"/>
<circle cx="42.6114" cy="42.2835" r="20.8711" fill="#746FE5" fill-opacity="0.2"/>
<circle cx="42.6092" cy="42.2813" r="31.283" fill="#746FE5" fill-opacity="0.1"/>
<defs>
<linearGradient id="paint0_linear_216_32951" x1="42.5999" y1="51.1354" x2="42.5999" y2="84.0964" gradientUnits="userSpaceOnUse">
<stop stop-color="#746FE5"/>
<stop offset="1" stop-color="#746FE5" stop-opacity="0.05"/>
</linearGradient>
<linearGradient id="paint1_linear_216_32951" x1="42.6032" y1="33.4258" x2="42.6032" y2="0.464766" gradientUnits="userSpaceOnUse">
<stop stop-color="#746FE5"/>
<stop offset="1" stop-color="#746FE5" stop-opacity="0.05"/>
</linearGradient>
<linearGradient id="paint2_linear_216_32951" x1="33.906" y1="42.6197" x2="0.94493" y2="42.6197" gradientUnits="userSpaceOnUse">
<stop stop-color="#746FE5"/>
<stop offset="1" stop-color="#746FE5" stop-opacity="0.05"/>
</linearGradient>
<linearGradient id="paint3_linear_216_32951" x1="51.3167" y1="42.6197" x2="84.2777" y2="42.6197" gradientUnits="userSpaceOnUse">
<stop stop-color="#746FE5"/>
<stop offset="1" stop-color="#746FE5" stop-opacity="0.05"/>
</linearGradient>
<linearGradient id="paint4_linear_216_32951" x1="49.4766" y1="48.9862" x2="73.0865" y2="70.7345" gradientUnits="userSpaceOnUse">
<stop stop-color="#746FE5"/>
<stop offset="1" stop-color="#746FE5" stop-opacity="0.05"/>
</linearGradient>
<linearGradient id="paint5_linear_216_32951" x1="35.7376" y1="48.976" x2="12.2058" y2="70.6525" gradientUnits="userSpaceOnUse">
<stop stop-color="#746FE5"/>
<stop offset="1" stop-color="#746FE5" stop-opacity="0.05"/>
</linearGradient>
<linearGradient id="paint6_linear_216_32951" x1="35.9336" y1="35.9537" x2="12.9336" y2="12.9536" gradientUnits="userSpaceOnUse">
<stop stop-color="#746FE5"/>
<stop offset="1" stop-color="#746FE5" stop-opacity="0.05"/>
</linearGradient>
<linearGradient id="paint7_linear_216_32951" x1="49.2793" y1="35.9439" x2="72.3482" y2="12.875" gradientUnits="userSpaceOnUse">
<stop stop-color="#746FE5"/>
<stop offset="1" stop-color="#746FE5" stop-opacity="0.05"/>
</linearGradient>
</defs>
</svg>
