<svg width="31" height="31" viewBox="0 0 31 31" fill="none" xmlns="http://www.w3.org/2000/svg">
<g clip-path="url(#clip0_211_15591)">
<path d="M29.0648 4.39575H28.5855C27.9171 4.39575 27.3727 4.93657 27.3668 5.60357H4.08891C4.08304 4.93657 3.53935 4.39575 2.87194 4.39575H2.39086C1.71975 4.39575 1.17383 4.9425 1.17383 5.61449V26.3415C1.17383 27.0022 1.7106 27.5398 2.37038 27.5398H29.0853C29.746 27.5398 30.2835 27.0022 30.2835 26.3415V5.61455C30.2835 4.94256 29.7368 4.39581 29.0648 4.39581L29.0648 4.39575Z" fill="#895438"/>
<path d="M20.1998 14.5607C20.1998 15.5137 19.8992 16.3973 19.3892 17.1237H26.452C26.6502 17.5194 26.9711 17.8403 27.3667 18.0385V23.7086C26.9711 23.9068 26.6502 24.2277 26.452 24.6233H5.00475C4.80583 24.2279 4.48467 23.9071 4.08897 23.7086V18.0385C4.48466 17.84 4.80582 17.5192 5.00475 17.1238H12.0665C11.5565 16.3974 11.2559 15.5138 11.2559 14.5608H1.17383V26.342C1.17383 27.0027 1.7106 27.5402 2.37038 27.5402H29.0853C29.746 27.5402 30.2835 27.0027 30.2835 26.342V14.5608H20.1998L20.1998 14.5607Z" fill="#FFB432"/>
<path d="M27.3682 5.95551V11.0813C26.9725 11.2795 26.6515 11.6005 26.4533 11.9962H19.2051V12.7005H26.6864C26.7596 12.7005 26.831 12.6777 26.8907 12.6352C26.9503 12.5927 26.9953 12.5327 27.0192 12.4636C27.1507 12.0839 27.4559 11.7787 27.8356 11.6472C27.9047 11.6233 27.9647 11.5783 28.0072 11.5187C28.0497 11.459 28.0725 11.3876 28.0725 11.3144V5.95551H27.3682Z" fill="black"/>
<path d="M16.7632 18.9072C19.1667 18.3373 20.653 15.927 20.0831 13.5236C19.5132 11.1202 17.1028 9.63383 14.6994 10.2037C12.296 10.7737 10.8097 13.184 11.3796 15.5874C11.9495 17.9908 14.3598 19.4772 16.7632 18.9072Z" fill="#E6A22D"/>
<path d="M11.2558 14.5602C11.2558 13.6065 11.5569 12.7222 12.0677 11.9955H5.00469C4.80577 11.6 4.48461 11.2793 4.08891 11.0808V5.60339C4.08304 4.93639 3.53935 4.39557 2.87194 4.39557H2.39086C1.71975 4.39557 1.17383 4.94232 1.17383 5.6143V14.5602H11.2559H11.2558ZM29.0665 4.39557H28.5854C27.9179 4.39557 27.3743 4.93639 27.3684 5.60339V11.0808C26.9727 11.2793 26.6516 11.6001 26.4527 11.9955H19.388C19.8987 12.7222 20.1998 13.6065 20.1998 14.5602C20.1998 15.514 30.2836 14.5602 30.2836 14.5602V5.61436C30.2836 4.94237 29.7376 4.39563 29.0665 4.39563L29.0665 4.39557Z" fill="#FFC83C"/>
<path d="M15.7317 12.179C14.7778 12.179 14.002 12.9549 14.002 13.9087C14.002 14.6117 14.4237 15.2176 15.0273 15.4879V16.241C15.0273 16.63 15.3427 16.9453 15.7317 16.9453C16.1206 16.9453 16.436 16.63 16.436 16.241V15.4883C17.0406 15.2182 17.4631 14.612 17.4631 13.9087C17.4631 12.9549 16.6864 12.179 15.7317 12.179Z" fill="#6C392C"/>
<path d="M15.7311 10.0906C16.2279 10.0905 16.7212 10.1736 17.1906 10.3364V5.60516H14.2734V10.3358C14.7423 10.1734 15.235 10.0905 15.7311 10.0906Z" fill="#FFC83C"/>
</g>
<defs>
<clipPath id="clip0_211_15591">
<rect width="30.0488" height="30.0488" fill="white" transform="translate(0.708984 0.944885)"/>
</clipPath>
</defs>
</svg>
