<svg width="31" height="31" viewBox="0 0 31 31" fill="none" xmlns="http://www.w3.org/2000/svg">
<g clip-path="url(#clip0_211_15478)">
<path d="M30.0167 15.3309C29.8036 15.0826 29.5238 14.9414 29.2035 14.9184C29.0738 14.8557 28.9114 14.8017 28.7149 14.7368C28.2793 14.5929 27.621 14.3754 27.478 14.0212C27.449 13.95 27.418 13.8796 27.385 13.8101L30.2722 7.72773L30.2719 7.72761C30.2937 7.68183 30.3063 7.63083 30.3063 7.57672V7.45735C30.3063 3.99828 27.4921 1.18402 24.033 1.18402H7.47062C4.01149 1.18396 1.19729 3.99816 1.19729 7.45729V7.57666C1.19729 7.64967 1.21954 7.71752 1.25763 7.77374L4.09706 13.855C4.07205 13.9098 4.04825 13.9651 4.02569 14.021C3.88261 14.3753 3.2243 14.5928 2.78865 14.7367C2.59221 14.8016 2.42976 14.8556 2.30012 14.9184C1.97974 14.9414 1.69997 15.0825 1.48687 15.3308C1.25381 15.6023 1.1585 15.9337 1.21156 16.2908L3.15633 28.969C3.24607 29.5572 3.74322 29.9842 4.33857 29.9842H27.1668C27.7614 29.9842 28.2579 29.5571 28.3474 28.969L30.292 16.2914C30.3474 15.9344 30.2518 15.6018 30.0168 15.3308L30.0167 15.3309Z" fill="#895438"/>
<path d="M24.033 1.18402H7.47059C4.01146 1.18402 1.19727 3.99822 1.19727 7.45735V7.57672C1.19727 7.67011 1.23437 7.75968 1.3004 7.82572C1.36644 7.89176 1.45601 7.92886 1.5494 7.92886H29.9541C30.0475 7.92886 30.1371 7.89176 30.2031 7.82572C30.2692 7.75968 30.3063 7.67011 30.3063 7.57672V7.45735C30.3063 3.99828 27.4921 1.18402 24.033 1.18402H24.033Z" fill="#FFB432"/>
<path d="M24.0329 1.18402H7.47037C6.24488 1.18402 5.15333 2.66774 4.46825 4.94927C4.40035 5.17534 4.56961 5.40341 4.80565 5.40341H26.6979C26.9339 5.40341 27.1031 5.17552 27.0354 4.94945C26.3516 2.6678 25.2584 1.18402 24.0329 1.18402Z" fill="#895438"/>
<path d="M29.9524 7.92964H1.54766C1.49004 7.92967 1.4333 7.91555 1.38242 7.88851C1.33154 7.86148 1.28808 7.82235 1.25586 7.77458L4.09529 13.8558C4.48023 13.0109 5.14225 12.3141 5.89335 11.9721C6.70713 11.6014 7.57174 11.6147 8.57285 11.6297C9.01578 11.6364 9.47385 11.6434 9.97898 11.6201C10.2284 11.6084 10.4121 11.4465 10.7152 11.1615C11.3061 10.606 12.1152 9.84531 14.1655 10.4414C15.2223 10.7496 16.2786 10.7497 17.3342 10.4415C19.3855 9.84484 20.1949 10.6062 20.7861 11.162C21.0889 11.4468 21.2724 11.6084 21.5214 11.6202C22.0268 11.6434 22.4851 11.6365 22.9284 11.6297C23.9297 11.6146 24.7943 11.6015 25.607 11.9723C26.3438 12.3068 26.9951 12.9852 27.3833 13.8109L30.2705 7.72857L30.2702 7.72845C30.2417 7.78863 30.1967 7.83948 30.1404 7.8751C30.0842 7.91073 30.019 7.92966 29.9524 7.9297L29.9524 7.92964Z" fill="#6C392C"/>
<path d="M13.1719 14.9148V18.5819C13.1719 20.0038 14.3286 21.1606 15.7505 21.1606C17.1724 21.1606 18.3292 20.0038 18.3292 18.5819V14.9148H13.1719Z" fill="#E6A22D"/>
<path d="M4.875 3.80203H26.6286C26.4018 3.25745 26.1475 2.78331 25.8717 2.39349H5.63185C5.35613 2.78331 5.10195 3.25745 4.875 3.80203Z" fill="#6C392C"/>
<path d="M29.7881 19.5758C28.797 19.3424 27.9046 18.8027 27.2376 18.0332C26.4868 17.1672 26.0692 16.0615 26.057 14.9148H29.1098C29.4694 14.9148 29.7831 15.0587 30.0167 15.3311C30.2518 15.602 30.3474 15.9347 30.2919 16.2916L29.7881 19.5758ZM28.5932 25.3344C26.0181 25.3344 23.9209 27.4157 23.8932 29.9844H27.1668C27.7613 29.9844 28.2578 29.5573 28.3473 28.9692L28.9033 25.3447C28.8001 25.338 28.6967 25.3346 28.5933 25.3344H28.5932ZM4.26591 18.0332C5.01672 17.1672 5.43435 16.0615 5.4465 14.9148H2.39379C2.03414 14.9148 1.72051 15.0587 1.48687 15.331C1.25381 15.6025 1.1585 15.9339 1.21156 16.291L1.7154 19.5758C2.70654 19.3424 3.59895 18.8026 4.26591 18.0332V18.0332ZM7.6927 29.9654C7.6927 27.3731 5.58365 25.2641 2.99142 25.2641C2.85573 25.2641 2.72192 25.2702 2.59057 25.2811L3.15633 28.9693C3.24607 29.5575 3.74322 29.9845 4.33857 29.9845H7.69652L7.69282 29.9655L7.6927 29.9654Z" fill="#FFB432"/>
<path d="M8.83298 10.7662C8.72671 10.7663 8.62179 10.7424 8.5261 10.6962C8.43041 10.6499 8.34646 10.5826 8.28054 10.4992L7.64253 9.69402C7.40097 9.38919 7.45232 8.94627 7.75715 8.7047C8.06181 8.46314 8.50485 8.51437 8.74647 8.81932L9.38448 9.62454C9.62604 9.92937 9.57469 10.3723 9.26986 10.6139C9.14566 10.7126 8.99164 10.7663 8.83298 10.7662ZM22.6686 10.7662C22.51 10.7663 22.3559 10.7126 22.2317 10.6139C21.9269 10.3724 21.8756 9.92937 22.1171 9.62454L22.7551 8.81932C22.9966 8.51449 23.4396 8.4632 23.7444 8.7047C24.0492 8.94621 24.1006 9.38919 23.859 9.69402L23.2211 10.4992C23.1551 10.5826 23.0712 10.6499 22.9755 10.6961C22.8798 10.7424 22.7749 10.7663 22.6686 10.7662Z" fill="#DDB926"/>
<path d="M15.7511 19.3169C15.3622 19.3169 15.0469 19.0015 15.0469 18.6126V17.4645C15.0469 17.0756 15.3622 16.7603 15.7511 16.7603C16.1401 16.7603 16.4554 17.0756 16.4554 17.4645V18.6126C16.4554 19.0015 16.1401 19.3169 15.7511 19.3169Z" fill="#6C392C"/>
<path d="M6.97169 27.4677C7.42859 28.1924 7.69416 29.0492 7.69416 29.9674L7.69785 29.9864H23.8946C23.9046 29.0578 24.1861 28.1937 24.6619 27.4677H6.97169ZM28.5946 25.3363C28.6992 25.3363 28.8025 25.3403 28.9046 25.3467L29.7895 19.5778C28.9012 19.3691 28.0871 18.9104 27.4444 18.2563L26.2637 25.9576C26.9728 25.5499 27.7766 25.3357 28.5946 25.3363ZM2.59197 25.283C2.72529 25.2718 2.85902 25.2661 2.99281 25.266C3.80014 25.266 4.56051 25.4707 5.22499 25.8307L4.06207 18.2574L4.06136 18.257C3.41878 18.9108 2.60488 19.3692 1.7168 19.5778L2.59197 25.283ZM18.3324 17.4354H26.7968C26.3235 16.6798 26.068 15.8083 26.0584 14.9167H18.3324V17.4354ZM13.1757 14.9167H5.44795C5.43839 15.8083 5.18288 16.6798 4.70958 17.4354H13.1757L13.1757 14.9167Z" fill="#FFC83C"/>
<path d="M5.06209 24.7943H26.4378L26.6538 23.3858H4.84582L5.06209 24.7943ZM17.8296 20.1036C17.36 20.7435 16.6029 21.16 15.7501 21.16C14.8972 21.16 14.1401 20.7435 13.6705 20.1036H4.3418L4.55812 21.5121H26.941L27.1569 20.1036H17.8295H17.8296Z" fill="#6C392C"/>
<path d="M2.39255 14.9153H29.1085C29.1401 14.9153 29.1712 14.9168 29.2022 14.919C29.0725 14.8562 28.9101 14.8022 28.7136 14.7373C28.278 14.5934 27.6197 14.3759 27.4767 14.0217C27.1054 13.101 26.4063 12.3347 25.6075 11.972C24.7948 11.6012 23.9302 11.6143 22.9288 11.6294C22.4856 11.6362 22.0273 11.6431 21.5218 11.6199C21.2729 11.6081 21.0894 11.4465 20.7866 11.1617C20.1954 10.6058 19.386 9.84453 17.3347 10.4412C16.2791 10.7494 15.2229 10.7494 14.166 10.441C12.1157 9.84506 11.3065 10.6057 10.7157 11.1612C10.4125 11.4462 10.2288 11.6081 9.97946 11.6198C9.47432 11.6431 9.01626 11.6361 8.57333 11.6294C7.57215 11.6144 6.70761 11.6011 5.89382 11.9718C5.09407 12.3359 4.3952 13.1022 4.0244 14.0215C3.88132 14.3759 3.223 14.5934 2.78736 14.7373C2.59092 14.8021 2.42847 14.8562 2.29883 14.9189C2.33 14.9165 2.36124 14.9153 2.3925 14.9152L2.39255 14.9153Z" fill="#FAD231"/>
<path d="M2.78736 14.7371C2.59092 14.8019 2.42847 14.856 2.29883 14.9187C2.33 14.9164 2.36124 14.9151 2.3925 14.915H29.1084C29.1401 14.915 29.1712 14.9165 29.2021 14.9187C29.0725 14.856 28.91 14.802 28.7136 14.7371C28.3211 14.6074 27.7488 14.4176 27.5347 14.1221H3.96624C3.75197 14.4176 3.17987 14.6074 2.78736 14.7371Z" fill="#DDB926"/>
</g>
<defs>
<clipPath id="clip0_211_15478">
<rect width="30.0488" height="30.0488" fill="white" transform="translate(0.730469 0.55957)"/>
</clipPath>
</defs>
</svg>
