<svg width="56" height="56" viewBox="0 0 56 56" fill="none" xmlns="http://www.w3.org/2000/svg">
<g clip-path="url(#clip0_216_32996)">
<path d="M9.14062 17.135H47.3871V31.9491H9.14062V17.135Z" fill="#615260"/>
<path d="M9.14062 23.8169H47.3871V25.466H9.14062V23.8169Z" fill="#4E3D4D"/>
<path d="M13.1445 25.4669V23.8179L10.0517 19.1787L7.52478 17.8876L4.58789 19.1787L7.90522 24.1546C8.00151 24.2991 8.05289 24.4689 8.05289 24.6425C8.05289 24.8161 8.00151 24.9858 7.90522 25.1303L4.58789 30.1063L6.99228 31.0169L10.0517 30.1063L13.1445 25.4671V25.4669ZM48.6234 24.1546L51.9408 19.1787L49.0038 17.8876L46.477 19.1787L43.3841 23.8181V25.467L46.477 30.1063L49.5364 31.0169L51.9408 30.1063L48.6234 25.1303C48.5272 24.9858 48.4758 24.8161 48.4758 24.6425C48.4758 24.4689 48.5272 24.2991 48.6234 24.1546Z" fill="#6C392C"/>
<path d="M13.1458 25.4641V23.8152L10.053 19.176L7.52608 17.8848L6.16696 18.4823L7.52448 19.176L10.8418 24.152C10.9381 24.2965 10.9895 24.4662 10.9895 24.6398C10.9895 24.8134 10.9381 24.9832 10.8418 25.1277L7.52448 30.1037L5.88086 30.5928L6.99357 31.0143L10.053 30.1037L13.1458 25.4641ZM48.6247 24.1519L51.9421 19.1759L49.0051 17.8847L47.8357 18.4822L49.4135 19.1759L46.0961 24.1519C45.9998 24.2963 45.9485 24.4661 45.9485 24.6397C45.9485 24.8133 45.9998 24.9831 46.0961 25.1276L49.4135 30.1036L48.1218 30.5927L49.5376 31.0141L51.942 30.1036L48.6246 25.1276C48.5284 24.9831 48.477 24.8133 48.4771 24.6397C48.4771 24.4661 48.5285 24.2963 48.6247 24.1519Z" fill="#895438"/>
<path d="M9.31836 34.1839H47.2148V53.7813H9.31836V34.1839Z" fill="#895438"/>
<path d="M43.9492 34.1839H47.2133V53.7813H43.9492V34.1839Z" fill="#6C392C"/>
<path d="M46.4783 45.5001H33.7294C33.6212 45.5001 33.5139 45.4788 33.4139 45.4373C33.3139 45.3959 33.223 45.3352 33.1464 45.2586C33.0699 45.182 33.0091 45.0911 32.9677 44.9911C32.9263 44.8911 32.9049 44.7839 32.905 44.6756C32.9049 44.5673 32.9263 44.4601 32.9677 44.3601C33.0091 44.26 33.0699 44.1691 33.1464 44.0926C33.223 44.016 33.3139 43.9553 33.4139 43.9138C33.5139 43.8724 33.6212 43.8511 33.7294 43.8511H46.4783C46.9338 43.8511 47.3028 44.2202 47.3028 44.6756C47.3028 45.1309 46.9338 45.5001 46.4783 45.5001ZM22.8019 45.5001H10.053C9.83433 45.5001 9.62462 45.4132 9.47 45.2586C9.31538 45.104 9.22852 44.8942 9.22852 44.6756C9.22852 44.4569 9.31538 44.2472 9.47 44.0926C9.62462 43.938 9.83433 43.8511 10.053 43.8511H22.8019C23.0205 43.8511 23.2302 43.938 23.3849 44.0926C23.5395 44.2472 23.6263 44.4569 23.6263 44.6756C23.6263 44.8942 23.5395 45.104 23.3849 45.2586C23.2302 45.4132 23.0205 45.5001 22.8019 45.5001Z" fill="#6C392C"/>
<path d="M45.5663 35.5676C45.6859 35.5676 45.8043 35.5912 45.9148 35.637C46.0252 35.6827 46.1256 35.7498 46.2102 35.8343C46.2947 35.9189 46.3618 36.0193 46.4076 36.1298C46.4533 36.2402 46.4769 36.3587 46.4769 36.4782V54.6909C46.4769 54.9324 46.5728 55.164 46.7436 55.3348C46.9144 55.5055 47.146 55.6015 47.3875 55.6015H51.03C51.2715 55.6015 51.5031 55.5055 51.6739 55.3348C51.8446 55.164 51.9406 54.9324 51.9406 54.6909V30.1039H4.58789V54.6909C4.58789 54.9324 4.68383 55.164 4.8546 55.3348C5.02537 55.5055 5.25698 55.6015 5.49849 55.6015H9.14108C9.38259 55.6015 9.6142 55.5055 9.78497 55.3348C9.95574 55.164 10.0517 54.9324 10.0517 54.6909V36.4782C10.0517 36.3587 10.0752 36.2402 10.121 36.1298C10.1668 36.0193 10.2338 35.9189 10.3184 35.8343C10.4029 35.7498 10.5033 35.6827 10.6138 35.637C10.7243 35.5912 10.8427 35.5676 10.9623 35.5676H45.5663Z" fill="#FFC83C"/>
<path d="M7.52583 36.4777V54.6904C7.52583 54.9319 7.42989 55.1635 7.25912 55.3343C7.08835 55.5051 6.85674 55.601 6.61523 55.601H9.14373C9.38523 55.601 9.61685 55.5051 9.78762 55.3343C9.95839 55.1635 10.0543 54.9319 10.0543 54.6904V36.4777C10.0543 36.3582 10.0779 36.2398 10.1236 36.1293C10.1694 36.0188 10.2365 35.9184 10.321 35.8339C10.4056 35.7493 10.506 35.6822 10.6165 35.6365C10.7269 35.5907 10.8453 35.5672 10.9649 35.5672H8.43642C8.31684 35.5672 8.19843 35.5907 8.08796 35.6365C7.97748 35.6822 7.87709 35.7493 7.79254 35.8339C7.70798 35.9184 7.64091 36.0188 7.59514 36.1293C7.54938 36.2398 7.52583 36.3582 7.52583 36.4777ZM49.4149 30.1034V54.6904C49.4149 54.9319 49.319 55.1635 49.1482 55.3343C48.9775 55.5051 48.7458 55.601 48.5043 55.601H51.0328C51.2743 55.601 51.5059 55.5051 51.6767 55.3343C51.8475 55.1635 51.9434 54.9319 51.9434 54.6904V30.1034H49.4149Z" fill="#FFB432"/>
<path d="M46.477 0.964294H41.9238L28.5429 5.04346L14.6049 0.964294H10.0517C7.03411 0.964294 4.58789 3.41051 4.58789 6.42808V19.177H51.9407V6.42808C51.9408 3.41051 49.4946 0.964294 46.477 0.964294Z" fill="#FEDF30"/>
<path d="M10.9634 13.7132H45.5675C45.809 13.7132 46.0406 13.6172 46.2113 13.4465C46.3821 13.2757 46.478 13.0441 46.478 12.8026V5.51749C46.478 3.00286 44.4395 0.964294 41.9249 0.964294H14.6059C12.0913 0.964294 10.0527 3.00286 10.0527 5.51749V12.8026C10.0528 13.0441 10.1487 13.2757 10.3195 13.4465C10.4903 13.6172 10.7219 13.7132 10.9634 13.7132Z" fill="#895438"/>
<path d="M46.4777 0.964294H43.9492C46.9668 0.964294 49.413 3.41051 49.413 6.42808V19.177H51.9415V6.42808C51.9415 3.41051 49.4953 0.964294 46.4777 0.964294Z" fill="#FFB432"/>
<path d="M41.925 0.964294H39.3965C41.9111 0.964294 43.9497 3.00286 43.9497 5.51749V12.8026C43.9497 13.0441 43.8537 13.2757 43.683 13.4465C43.5122 13.6173 43.2806 13.7132 43.0391 13.7133H45.5676C45.6872 13.7133 45.8056 13.6897 45.9161 13.6439C46.0266 13.5982 46.1269 13.5311 46.2115 13.4465C46.2961 13.362 46.3631 13.2616 46.4089 13.1511C46.4546 13.0406 46.4782 12.9222 46.4782 12.8026V5.51749C46.4782 3.00286 44.4396 0.964294 41.925 0.964294Z" fill="#6C392C"/>
<path d="M10.0527 6.51303V8.16209H46.478V6.51303H10.0527Z" fill="#6C392C"/>
<path d="M7.90617 24.1537C8.00246 24.2982 8.05384 24.4679 8.05384 24.6416C8.05384 24.8152 8.00246 24.9849 7.90617 25.1294L7.68175 25.466H13.1455L13.37 25.1294C13.4663 24.9849 13.5177 24.8152 13.5177 24.6416C13.5177 24.4679 13.4663 24.2982 13.37 24.1537L13.1454 23.8169H7.68164L7.90617 24.1537ZM48.8489 23.817H43.3851L43.1606 24.1538C43.0643 24.2983 43.0129 24.468 43.0129 24.6417C43.0129 24.8153 43.0643 24.9851 43.1606 25.1295L43.385 25.4661H48.8488L48.6244 25.1295C48.5281 24.985 48.4767 24.8153 48.4767 24.6417C48.4767 24.468 48.5281 24.2983 48.6244 24.1538L48.8489 23.817Z" fill="#FEDF30"/>
<path d="M39.193 35.567C39.193 29.5319 34.3006 24.6395 28.2655 24.6395C22.2303 24.6395 17.3379 29.5319 17.3379 35.567C17.3379 39.389 19.3002 42.0222 22.2722 43.4395C22.5929 43.5924 22.8017 43.911 22.8017 44.2664V46.4946C22.8017 47.5005 23.6171 48.3159 24.623 48.3159H31.9081C32.9139 48.3159 33.7294 47.5005 33.7294 46.4946V44.2664C33.7294 43.911 33.9381 43.5924 34.2589 43.4395C37.2308 42.0221 39.193 39.389 39.193 35.567Z" fill="#F8F6F6"/>
<path d="M28.2662 24.6395C27.8385 24.6395 27.4169 24.6649 27.002 24.7127C32.4414 25.3394 36.6653 29.9596 36.6653 35.567C36.6653 39.389 34.703 42.0221 31.731 43.4395C31.4102 43.5925 31.2015 43.911 31.2015 44.2665V46.4947C31.2015 47.5006 30.3861 48.316 29.3802 48.316H31.9087C32.9146 48.316 33.73 47.5006 33.73 46.4947V44.2665C33.73 43.9112 33.9387 43.5925 34.2595 43.4395C37.2315 42.0222 39.1938 39.3891 39.1938 35.567C39.1938 29.5319 34.3013 24.6395 28.2662 24.6395Z" fill="#E2E2E2"/>
<path d="M24.7329 37.391H22.684C21.741 37.391 20.9766 36.6266 20.9766 35.6836V34.6022C20.9766 34.3758 21.0665 34.1587 21.2266 33.9986C21.3867 33.8384 21.6039 33.7485 21.8303 33.7485H24.7329C25.676 33.7485 26.4403 34.5129 26.4403 35.4559V35.6836C26.4403 36.6266 25.676 37.391 24.7329 37.391ZM33.8393 37.391H31.7904C30.8473 37.391 30.0829 36.6266 30.0829 35.6836V35.4559C30.0829 34.5129 30.8473 33.7485 31.7904 33.7485H34.693C34.9194 33.7485 35.1366 33.8384 35.2967 33.9986C35.4568 34.1587 35.5467 34.3758 35.5467 34.6022V35.6836C35.5467 36.6266 34.7822 37.391 33.8393 37.391ZM29.2292 42.8548H27.2942C27.0678 42.8548 26.8506 42.7648 26.6905 42.6047C26.5304 42.4446 26.4405 42.2275 26.4405 42.0011V40.9197C26.4405 39.9767 27.2049 39.2123 28.1479 39.2123H28.3755C29.3185 39.2123 30.0829 39.9767 30.0829 40.9197V42.0011C30.0829 42.2275 29.993 42.4446 29.8329 42.6047C29.6728 42.7648 29.4556 42.8548 29.2292 42.8548Z" fill="#615260"/>
<path d="M27.2681 48.3163V46.4951C27.2681 46.2765 27.1812 46.0668 27.0266 45.9121C26.872 45.7575 26.6623 45.6707 26.4436 45.6707C26.225 45.6707 26.0152 45.7575 25.8606 45.9121C25.706 46.0668 25.6191 46.2765 25.6191 46.4951V48.3163H27.2681ZM30.0861 45.6707C29.9778 45.6706 29.8706 45.692 29.7706 45.7334C29.6705 45.7748 29.5796 45.8355 29.5031 45.9121C29.4265 45.9887 29.3658 46.0796 29.3244 46.1796C29.2829 46.2796 29.2616 46.3869 29.2616 46.4951V48.3163H30.9107V46.4951C30.9107 46.3868 30.8894 46.2796 30.8479 46.1796C30.8065 46.0796 30.7457 45.9887 30.6692 45.9121C30.5926 45.8355 30.5017 45.7748 30.4017 45.7334C30.3016 45.692 30.1944 45.6706 30.0861 45.6707Z" fill="#ACACAC"/>
<path d="M24.6847 33.7468H22.1562C23.1277 33.7468 23.9152 34.5342 23.9152 35.5058V35.6304C23.9152 36.5024 23.2801 37.2242 22.4476 37.3632C22.5426 37.3791 22.6395 37.3894 22.7389 37.3894H24.6847C25.6562 37.3894 26.4437 36.6018 26.4437 35.6304V35.5058C26.4437 34.5342 25.6563 33.7468 24.6847 33.7468ZM34.6706 33.7468H32.1421C32.2576 33.7468 32.3719 33.7695 32.4786 33.8137C32.5853 33.8579 32.6823 33.9227 32.764 34.0043C32.8456 34.086 32.9104 34.183 32.9546 34.2897C32.9988 34.3964 33.0215 34.5107 33.0215 34.6262V35.6303C33.0215 36.5023 32.3863 37.2241 31.5539 37.3631C31.6488 37.379 31.7457 37.3893 31.8452 37.3893H33.791C34.7624 37.3893 35.55 36.6017 35.55 35.6303V34.6262C35.55 34.5107 35.5273 34.3964 35.4831 34.2897C35.4389 34.183 35.3741 34.086 35.2924 34.0043C35.2108 33.9227 35.1138 33.8579 35.0071 33.8137C34.9004 33.7695 34.7861 33.7468 34.6706 33.7468ZM28.3273 39.2106H28.2027C27.7373 39.2106 27.3154 39.3926 27.0008 39.6878C27.3429 40.0087 27.5578 40.4635 27.5578 40.9696V41.9736C27.5578 42.3454 27.3268 42.6626 27.0008 42.7913C27.1008 42.8308 27.2093 42.8531 27.3233 42.8531H29.2069C29.3224 42.8531 29.4367 42.8303 29.5435 42.7861C29.6502 42.7419 29.7471 42.6771 29.8288 42.5955C29.9104 42.5138 29.9752 42.4168 30.0194 42.3101C30.0636 42.2034 30.0863 42.089 30.0863 41.9735V40.9694C30.0863 39.9981 29.2988 39.2106 28.3273 39.2106Z" fill="#4E3D4D"/>
</g>
<defs>
<clipPath id="clip0_216_32996">
<rect width="54.6379" height="54.6379" fill="white" transform="translate(0.943359 0.963196)"/>
</clipPath>
</defs>
</svg>
