<svg width="84" height="85" viewBox="0 0 84 85" fill="none" xmlns="http://www.w3.org/2000/svg">
<path d="M39.1557 46.6429H45.3332L48.5982 84.2683H35.8906L39.1557 46.6429Z" fill="url(#paint0_linear_216_32983)"/>
<path d="M45.3326 38.264L39.1551 38.264L35.8901 0.638594L48.5977 0.638596L45.3326 38.264Z" fill="url(#paint1_linear_216_32983)"/>
<path d="M38.2148 39.7028L38.2148 45.8804L0.589462 49.1454L0.589462 36.4378L38.2148 39.7028Z" fill="url(#paint2_linear_216_32983)"/>
<path d="M46.2969 39.7028L46.2969 45.8804L83.9223 49.1454L83.9223 36.4378L46.2969 39.7028Z" fill="url(#paint3_linear_216_32983)"/>
<path d="M44.541 47.4315L47.0192 44.7412L75.5501 67.8518L69.9118 73.9727L44.541 47.4315Z" fill="url(#paint4_linear_216_32983)"/>
<path d="M39.9492 47.4315L37.4711 44.7412L9.0292 67.7697L14.6675 73.8906L39.9492 47.4315Z" fill="url(#paint5_linear_216_32983)"/>
<path d="M37.5397 40.6735L40.1261 38.0871L15.5204 10.1832L9.63585 16.0678L37.5397 40.6735Z" fill="url(#paint6_linear_216_32983)"/>
<path d="M46.9486 40.6735L44.3622 38.0871L69.0465 10.1046L74.9311 15.9891L46.9486 40.6735Z" fill="url(#paint7_linear_216_32983)"/>
<circle cx="42.2545" cy="42.4521" r="41.6666" fill="#FF6600" fill-opacity="0.02"/>
<circle cx="42.2539" cy="42.4535" r="20.8711" fill="#FF6600" fill-opacity="0.2"/>
<circle cx="42.2556" cy="42.4532" r="31.283" fill="#FF6600" fill-opacity="0.1"/>
<defs>
<linearGradient id="paint0_linear_216_32983" x1="42.2444" y1="51.3072" x2="42.2444" y2="84.2683" gradientUnits="userSpaceOnUse">
<stop stop-color="#FF6600"/>
<stop offset="1" stop-color="#FF6600" stop-opacity="0.05"/>
</linearGradient>
<linearGradient id="paint1_linear_216_32983" x1="42.2439" y1="33.5996" x2="42.2439" y2="0.638595" gradientUnits="userSpaceOnUse">
<stop stop-color="#FF6600"/>
<stop offset="1" stop-color="#FF6600" stop-opacity="0.05"/>
</linearGradient>
<linearGradient id="paint2_linear_216_32983" x1="33.5505" y1="42.7916" x2="0.589462" y2="42.7916" gradientUnits="userSpaceOnUse">
<stop stop-color="#FF6600"/>
<stop offset="1" stop-color="#FF6600" stop-opacity="0.05"/>
</linearGradient>
<linearGradient id="paint3_linear_216_32983" x1="50.9612" y1="42.7916" x2="83.9223" y2="42.7916" gradientUnits="userSpaceOnUse">
<stop stop-color="#FF6600"/>
<stop offset="1" stop-color="#FF6600" stop-opacity="0.05"/>
</linearGradient>
<linearGradient id="paint4_linear_216_32983" x1="49.1211" y1="49.164" x2="72.731" y2="70.9123" gradientUnits="userSpaceOnUse">
<stop stop-color="#FF6600"/>
<stop offset="1" stop-color="#FF6600" stop-opacity="0.05"/>
</linearGradient>
<linearGradient id="paint5_linear_216_32983" x1="35.3801" y1="49.1538" x2="11.8484" y2="70.8302" gradientUnits="userSpaceOnUse">
<stop stop-color="#FF6600"/>
<stop offset="1" stop-color="#FF6600" stop-opacity="0.05"/>
</linearGradient>
<linearGradient id="paint6_linear_216_32983" x1="35.5782" y1="36.1255" x2="12.5781" y2="13.1255" gradientUnits="userSpaceOnUse">
<stop stop-color="#FF6600"/>
<stop offset="1" stop-color="#FF6600" stop-opacity="0.05"/>
</linearGradient>
<linearGradient id="paint7_linear_216_32983" x1="48.9199" y1="36.1158" x2="71.9888" y2="13.0468" gradientUnits="userSpaceOnUse">
<stop stop-color="#FF6600"/>
<stop offset="1" stop-color="#FF6600" stop-opacity="0.05"/>
</linearGradient>
</defs>
</svg>
