<svg width="57" height="56" viewBox="0 0 57 56" fill="none" xmlns="http://www.w3.org/2000/svg">
<path d="M54.9091 27.8185C54.5162 27.3607 54.0005 27.1003 53.4098 27.058C53.1708 26.9424 52.8713 26.8428 52.5092 26.7232C51.7062 26.4579 50.4925 26.0569 50.2289 25.4039C50.1754 25.2726 50.1183 25.1429 50.0575 25.0148L55.3802 13.8017L55.3796 13.8015C55.4198 13.7171 55.4429 13.6231 55.4429 13.5233V13.3033C55.4429 6.92632 50.2549 1.73813 43.8779 1.73813H13.3445C6.96743 1.73802 1.77935 6.9261 1.77935 13.3031V13.5232C1.77935 13.6578 1.82036 13.7829 1.89058 13.8865L7.12518 25.0975C7.07907 25.1985 7.0352 25.3006 6.99362 25.4035C6.72984 26.0568 5.51621 26.4578 4.71307 26.7231C4.35094 26.8426 4.05146 26.9423 3.81245 27.0579C3.22181 27.1003 2.70604 27.3606 2.31319 27.8183C1.88354 28.3188 1.70783 28.9297 1.80564 29.5881L5.39092 52.9608C5.55635 54.0452 6.47287 54.8324 7.57041 54.8324H49.6552C50.7512 54.8324 51.6666 54.045 51.8316 52.9608L55.4165 29.5892C55.5187 28.9311 55.3425 28.3179 54.9092 27.8183L54.9091 27.8185Z" fill="#895438"/>
<path d="M43.878 1.73813H13.3444C6.96738 1.73813 1.7793 6.92621 1.7793 13.3033V13.5233C1.7793 13.6955 1.84769 13.8606 1.96944 13.9824C2.09118 14.1041 2.2563 14.1725 2.42847 14.1725H54.7937C54.9659 14.1725 55.131 14.1041 55.2527 13.9824C55.3745 13.8606 55.4429 13.6955 55.4429 13.5233V13.3033C55.4429 6.92632 50.2549 1.73813 43.8778 1.73813H43.878Z" fill="#FFB432"/>
<path d="M43.8773 1.73813H13.3437C11.0844 1.73813 9.0721 4.47342 7.80913 8.67952C7.68395 9.09629 7.99599 9.51674 8.43115 9.51674H48.7905C49.2255 9.51674 49.5374 9.09661 49.4126 8.67984C48.1519 4.47353 46.1366 1.73813 43.8773 1.73813Z" fill="#895438"/>
<path d="M54.7939 14.1709H2.42857C2.32235 14.171 2.21774 14.145 2.12394 14.0951C2.03014 14.0453 1.95002 13.9732 1.89062 13.8851L7.12523 25.0961C7.83489 23.5384 9.05533 22.2538 10.44 21.6233C11.9403 20.94 13.5342 20.9644 15.3798 20.9921C16.1963 21.0046 17.0408 21.0173 17.972 20.9745C18.4318 20.9529 18.7704 20.6544 19.3293 20.1291C20.4186 19.1049 21.9103 17.7026 25.6901 18.8014C27.6384 19.3697 29.5856 19.3698 31.5317 18.8016C35.3133 17.7017 36.8055 19.1053 37.8954 20.1299C38.4537 20.6549 38.7919 20.9529 39.2509 20.9746C40.1826 21.0174 41.0276 21.0047 41.8447 20.9922C43.6908 20.9643 45.2847 20.9401 46.7829 21.6237C48.1413 22.2405 49.3419 23.491 50.0575 25.0133L55.3802 13.8003L55.3797 13.8C55.3271 13.911 55.2442 14.0047 55.1405 14.0704C55.0368 14.1361 54.9165 14.171 54.7938 14.1711L54.7939 14.1709Z" fill="#6C392C"/>
<path d="M23.8574 27.0507V33.8105C23.8574 36.4315 25.9897 38.5638 28.6108 38.5638C31.2318 38.5638 33.364 36.4315 33.364 33.8105V27.0507H23.8574Z" fill="#E6A22D"/>
<path d="M8.55859 6.56468H48.6622C48.2441 5.56073 47.7754 4.68662 47.2668 3.96799H9.95388C9.44558 4.68662 8.97699 5.56073 8.55859 6.56468Z" fill="#6C392C"/>
<path d="M54.4877 35.6435C52.6605 35.2132 51.0153 34.2181 49.7857 32.7997C48.4016 31.2032 47.6316 29.1648 47.6092 27.0507H53.2371C53.9002 27.0507 54.4784 27.316 54.9091 27.8182C55.3425 28.3177 55.5187 28.9309 55.4164 29.589L54.4877 35.6435ZM52.2848 46.2596C47.5374 46.2596 43.6711 50.0967 43.6201 54.8321H49.6551C50.7511 54.8321 51.6665 54.0447 51.8315 52.9605L52.8564 46.2787C52.6661 46.2664 52.4756 46.26 52.2849 46.2596H52.2848ZM7.43646 32.7997C8.82061 31.2032 9.59053 29.1648 9.61292 27.0507H3.98513C3.32211 27.0507 2.74391 27.316 2.31319 27.818C1.88354 28.3186 1.70783 28.9294 1.80564 29.5878L2.7345 35.6435C4.56171 35.2131 6.2069 34.2181 7.43646 32.7996V32.7997ZM13.7539 54.7971C13.7539 50.0181 9.86577 46.1301 5.08689 46.1301C4.83674 46.1301 4.59005 46.1413 4.34791 46.1614L5.39092 52.9607C5.55635 54.0452 6.47287 54.8323 7.57041 54.8323H13.7609L13.7541 54.7972L13.7539 54.7971Z" fill="#FFB432"/>
<path d="M15.8582 19.4036C15.6623 19.4039 15.4689 19.3598 15.2925 19.2746C15.1161 19.1893 14.9613 19.0652 14.8398 18.9115L13.6636 17.4271C13.2182 16.8651 13.3129 16.0486 13.8749 15.6033C14.4365 15.1579 15.2533 15.2524 15.6987 15.8146L16.8749 17.299C17.3203 17.861 17.2256 18.6775 16.6636 19.1229C16.4347 19.3049 16.1507 19.4039 15.8582 19.4036ZM41.3648 19.4036C41.0723 19.4038 40.7883 19.3048 40.5594 19.1229C39.9974 18.6776 39.9027 17.861 40.348 17.299L41.5241 15.8146C41.9694 15.2526 42.786 15.158 43.348 15.6033C43.91 16.0485 44.0046 16.8651 43.5593 17.4271L42.3832 18.9115C42.2617 19.0652 42.1069 19.1893 41.9305 19.2745C41.7541 19.3598 41.5607 19.4039 41.3648 19.4036Z" fill="#DDB926"/>
<path d="M28.6128 35.1633C27.8958 35.1633 27.3145 34.582 27.3145 33.865V31.7485C27.3145 31.0315 27.8958 30.4501 28.6128 30.4501C29.3298 30.4501 29.9111 31.0315 29.9111 31.7485V33.865C29.9111 34.582 29.3298 35.1633 28.6128 35.1633Z" fill="#6C392C"/>
<path d="M12.4181 50.1907C13.2604 51.5267 13.75 53.1062 13.75 54.7988L13.7568 54.8339H43.616C43.6345 53.122 44.1535 51.529 45.0307 50.1907H12.4181ZM52.2808 46.2613C52.4737 46.2613 52.6641 46.2686 52.8523 46.2804L54.4836 35.6452C52.846 35.2605 51.3451 34.4149 50.1603 33.2091L47.9837 47.4067C49.291 46.6551 50.7728 46.2602 52.2808 46.2613ZM4.34388 46.163C4.58967 46.1424 4.8362 46.1319 5.08286 46.1317C6.57119 46.1317 7.97297 46.5091 9.19796 47.1728L7.05407 33.211L7.05277 33.2103C5.86814 34.4156 4.36768 35.2607 2.73047 35.6453L4.34388 46.163ZM33.3619 31.6956H48.9664C48.0939 30.3027 47.6228 28.696 47.6052 27.0524H33.3619V31.6956ZM23.8553 27.0524H9.609C9.59138 28.696 9.12034 30.3027 8.24779 31.6956H23.8554L23.8553 27.0524Z" fill="#FFC83C"/>
<path d="M8.90796 45.2647H48.3149L48.7131 42.668H8.50926L8.90796 45.2647ZM32.4454 36.6172C31.5796 37.797 30.184 38.5648 28.6117 38.5648C27.0394 38.5648 25.6436 37.797 24.7779 36.6172H7.58008L7.97889 39.2139H49.2426L49.6406 36.6172H32.4452H32.4454Z" fill="#6C392C"/>
<path d="M3.98529 27.0507H53.2372C53.2955 27.0507 53.3528 27.0535 53.4099 27.0576C53.1709 26.9419 52.8714 26.8424 52.5092 26.7227C51.7062 26.4574 50.4926 26.0564 50.2289 25.4035C49.5444 23.7061 48.2556 22.2934 46.7829 21.6246C45.2847 20.941 43.6908 20.9653 41.8447 20.9932C41.0276 21.0056 40.1827 21.0184 39.2509 20.9756C38.7919 20.9539 38.4537 20.6558 37.8954 20.1309C36.8055 19.1062 35.3133 17.7026 31.5316 18.8026C29.5856 19.3709 27.6384 19.3708 25.6901 18.8023C21.9103 17.7036 20.4186 19.1059 19.3292 20.13C18.7704 20.6554 18.4318 20.9538 17.972 20.9755C17.0408 21.0183 16.1963 21.0055 15.3798 20.9931C13.5341 20.9654 11.9403 20.9409 10.44 21.6243C8.96563 22.2955 7.67724 23.7084 6.99366 25.403C6.72988 26.0563 5.51625 26.4573 4.71312 26.7226C4.35099 26.8421 4.0515 26.9418 3.8125 27.0574C3.86996 27.0531 3.92756 27.0508 3.98518 27.0506L3.98529 27.0507Z" fill="#FAD231"/>
<path d="M4.71312 26.7234C4.35099 26.8429 4.0515 26.9426 3.8125 27.0582C3.86996 27.0539 3.92756 27.0516 3.98518 27.0514H53.2371C53.2954 27.0514 53.3527 27.0542 53.4097 27.0582C53.1707 26.9426 52.8713 26.843 52.5091 26.7234C51.7855 26.4843 50.7306 26.1343 50.3358 25.5897H6.88644C6.49142 26.1345 5.43673 26.4844 4.71312 26.7234Z" fill="#DDB926"/>
</svg>
