<svg width="25" height="25" viewBox="0 0 25 25" fill="none" xmlns="http://www.w3.org/2000/svg">
<path d="M22.5322 8.03516V17.5002C22.5323 18.2654 22.2399 19.0017 21.7149 19.5584C21.19 20.1152 20.4721 20.4503 19.7082 20.4952L19.5322 20.5002H5.53223C4.76702 20.5002 4.03071 20.2078 3.47397 19.6829C2.91722 19.1579 2.58212 18.4401 2.53723 17.6762L2.53223 17.5002V8.03516L11.9772 14.3322L12.0932 14.3982C12.2299 14.465 12.3801 14.4997 12.5322 14.4997C12.6844 14.4997 12.8345 14.465 12.9712 14.3982L13.0872 14.3322L22.5322 8.03516Z" fill="#6A68E0"/>
<path d="M19.5325 4.5C20.6125 4.5 21.5595 5.07 22.0875 5.927L12.5325 12.297L2.97754 5.927C3.22833 5.51982 3.57283 5.1785 3.98231 4.93149C4.39179 4.68448 4.85439 4.53894 5.33154 4.507L5.53254 4.5H19.5325Z" fill="#6A68E0"/>
</svg>
