<svg width="25" height="25" viewBox="0 0 25 25" fill="none" xmlns="http://www.w3.org/2000/svg">
<path d="M22.5322 8.22852V17.6935C22.5323 18.4587 22.2399 19.195 21.7149 19.7518C21.19 20.3085 20.4721 20.6436 19.7082 20.6885L19.5322 20.6935H5.53223C4.76702 20.6936 4.03071 20.4012 3.47397 19.8762C2.91722 19.3513 2.58212 18.6334 2.53723 17.8695L2.53223 17.6935V8.22852L11.9772 14.5255L12.0932 14.5915C12.2299 14.6583 12.3801 14.693 12.5322 14.693C12.6844 14.693 12.8345 14.6583 12.9712 14.5915L13.0872 14.5255L22.5322 8.22852Z" fill="#17167F"/>
<path d="M19.5325 4.69336C20.6125 4.69336 21.5595 5.26336 22.0875 6.12036L12.5325 12.4904L2.97754 6.12036C3.22833 5.71318 3.57283 5.37186 3.98231 5.12485C4.39179 4.87784 4.85439 4.7323 5.33154 4.70036L5.53254 4.69336H19.5325Z" fill="#17167F"/>
</svg>
