<svg width="25" height="25" viewBox="0 0 25 25" fill="none" xmlns="http://www.w3.org/2000/svg">
<path d="M17.0881 13.5993L16.6331 14.0523C16.6331 14.0523 15.5501 15.1283 12.5951 12.1903C9.64011 9.25234 10.7231 8.17634 10.7231 8.17634L11.0091 7.89034C11.7161 7.18834 11.7831 6.06034 11.1661 5.23634L9.90611 3.55334C9.14211 2.53334 7.66711 2.39834 6.79211 3.26834L5.22211 4.82834C4.78911 5.26034 4.49911 5.81834 4.53411 6.43834C4.62411 8.02534 5.34211 11.4383 9.34611 15.4203C13.5931 19.6423 17.5781 19.8103 19.2071 19.6583C19.7231 19.6103 20.1711 19.3483 20.5321 18.9883L21.9521 17.5763C22.9121 16.6233 22.6421 14.9883 21.4141 14.3213L19.5041 13.2823C18.6981 12.8453 17.7181 12.9733 17.0881 13.5993Z" fill="#17167F"/>
</svg>
