<svg width="25" height="25" viewBox="0 0 25 25" fill="none" xmlns="http://www.w3.org/2000/svg">
<path d="M17.0881 13.406L16.6331 13.859C16.6331 13.859 15.5501 14.935 12.5951 11.997C9.64011 9.05898 10.7231 7.98298 10.7231 7.98298L11.0091 7.69698C11.7161 6.99498 11.7831 5.86698 11.1661 5.04298L9.90611 3.35998C9.14211 2.33998 7.66711 2.20498 6.79211 3.07498L5.22211 4.63498C4.78911 5.06698 4.49911 5.62498 4.53411 6.24498C4.62411 7.83198 5.34211 11.245 9.34611 15.227C13.5931 19.449 17.5781 19.617 19.2071 19.465C19.7231 19.417 20.1711 19.155 20.5321 18.795L21.9521 17.383C22.9121 16.43 22.6421 14.795 21.4141 14.128L19.5041 13.089C18.6981 12.652 17.7181 12.78 17.0881 13.406Z" fill="#6A68E0"/>
</svg>
