<svg width="56" height="55" viewBox="0 0 56 55" fill="none" xmlns="http://www.w3.org/2000/svg">
<g clip-path="url(#clip0_15_14063)">
<path d="M13.1867 30.2396C10.9883 28.8851 9.06515 26.9673 7.46875 24.54V42.0482L11.5665 39.19L15.6642 42.0482V31.4812C14.8035 31.139 13.9765 30.7261 13.1867 30.2396Z" fill="#FF5876"/>
<path d="M13.1867 30.2396C10.9883 28.8851 9.06515 26.9673 7.46875 24.54V27.4877C8.79509 29.2107 10.9883 30.7836 13.1867 32.138C13.9765 32.6246 14.8036 33.0374 15.6642 33.3796V31.4811C14.8035 31.139 13.9765 30.7261 13.1867 30.2396Z" fill="#E6485D"/>
<path d="M42.8077 30.2381C42.028 30.7185 41.2119 31.1269 40.3633 31.4664V42.0467L44.461 39.1885L48.5587 42.0467V24.4893C46.956 26.9401 45.0212 28.8744 42.8077 30.2381Z" fill="#FF5876"/>
<path d="M42.8077 30.2381C42.028 30.7185 41.2119 31.1269 40.3633 31.4664V33.3782C41.2238 33.036 42.051 32.6232 42.8408 32.1366C45.0391 30.7822 47.2324 29.2093 48.5587 27.4863V24.4893C46.956 26.9401 45.0212 28.8744 42.8077 30.2381Z" fill="#E6485D"/>
<path d="M44.5126 5.14062H11.5156C10.4477 5.14062 9.58203 4.29065 9.58203 3.24219C9.58203 2.19372 10.4477 1.34375 11.5156 1.34375H44.5126C45.5805 1.34375 46.4462 2.19372 46.4462 3.24219C46.4462 4.29065 45.5805 5.14062 44.5126 5.14062Z" fill="#FF9517"/>
<path d="M44.5126 3.24219H11.5156C10.8003 3.24219 10.1773 2.85986 9.84285 2.29297C9.67796 2.57246 9.58203 2.89604 9.58203 3.24219C9.58203 4.29065 10.4477 5.14062 11.5156 5.14062H44.5126C45.5805 5.14062 46.4462 4.29065 46.4462 3.24219C46.4462 2.89604 46.3503 2.57246 46.1854 2.29297C45.8509 2.85986 45.2278 3.24219 44.5126 3.24219Z" fill="#EF7F0F"/>
<path d="M52.2585 9.13557C51.5428 8.30838 50.4983 7.83398 49.3927 7.83398H43.0863L42.3099 10.998H49.3927C49.6091 10.998 49.7422 11.1145 49.8023 11.184C49.8624 11.2534 49.9578 11.4013 49.9228 11.6109C49.51 14.0817 48.4332 18.816 45.8588 22.7618C43.7415 26.0071 41.0253 28.0946 37.7533 29.0021C37.1571 30.4046 36.2645 31.6385 35.1582 32.6378C37.9722 32.4387 40.5403 31.6353 42.8072 30.2386C45.0272 28.8709 46.967 26.9295 48.5725 24.4684C51.3145 20.2657 52.5496 15.4352 53.103 12.123C53.2819 11.0517 52.9741 9.96287 52.2585 9.13557Z" fill="#FF9517"/>
<path d="M18.2411 29.002C14.9692 28.0945 12.2529 26.007 10.1358 22.7618C7.56139 18.816 6.48459 14.0816 6.07177 11.6109C6.03675 11.4013 6.13225 11.2534 6.1923 11.184C6.25234 11.1146 6.38544 10.998 6.6019 10.998H13.709L12.9374 7.83398H6.6019C5.49631 7.83398 4.45174 8.30838 3.73609 9.13557C3.02045 9.96287 2.71269 11.0517 2.89165 12.123C3.44498 15.4352 4.68012 20.2657 7.42217 24.4684C9.0277 26.9295 10.9675 28.8709 13.1875 30.2386C15.4544 31.6353 18.0226 32.4387 20.8367 32.6378C19.7301 31.6384 18.8372 30.4046 18.2411 29.002Z" fill="#FF9517"/>
<path d="M33.0257 49.4708L35.6634 49.9298C37.7599 50.2946 39.5237 51.681 40.3448 53.6097L40.3647 53.6562H15.6656C16.478 51.7106 18.2474 50.308 20.3558 49.9385L23.0085 49.4736C24.5733 49.1994 25.7129 47.8631 25.7129 46.3024V35.1367C21.8271 34.2932 18.6709 31.3414 17.7138 27.4168L12.2812 5.14062H43.749L38.2799 27.4306C37.3213 31.3376 34.183 34.277 30.3174 35.1289V46.2989C30.3174 47.8612 31.459 49.1982 33.0257 49.4708Z" fill="#FFCF4D"/>
<path d="M42.3105 10.998H44.2441L45.0205 7.83398H43.0869L42.3105 10.998Z" fill="#EF7F0F"/>
<path d="M37.7533 29.0014C37.1571 30.4039 36.2645 31.6378 35.1582 32.6371C35.9275 32.5827 36.6777 32.4814 37.4091 32.3368C38.5811 31.1868 39.4858 29.7612 40.0084 28.1455C39.2888 28.4981 38.5372 28.784 37.7533 29.0014Z" fill="#EF7F0F"/>
<path d="M20.8348 32.6372C19.7283 31.6378 18.8355 30.404 18.2393 29.0014C17.4554 28.784 16.7039 28.4981 15.9844 28.1455C16.5069 29.7611 17.4115 31.1867 18.5833 32.3368C19.315 32.4814 20.0653 32.5828 20.8348 32.6372Z" fill="#EF7F0F"/>
<path d="M11.7737 10.998H13.7073L12.9355 7.83398H11.002L11.7737 10.998Z" fill="#EF7F0F"/>
<path d="M43.2832 7.03906L43.749 5.14062H12.2812L12.7442 7.03906H43.2832Z" fill="#FFB629"/>
<path d="M39.1154 51.7578H16.9173C16.3918 52.3014 15.9642 52.942 15.666 53.6562H40.3651L40.3452 53.6097C40.0488 52.9137 39.6284 52.29 39.1154 51.7578Z" fill="#FFB629"/>
<path d="M29.0375 12.5735L30.0976 14.6822C30.2665 15.0185 30.5933 15.2515 30.9712 15.3055L33.3415 15.6436C34.2932 15.7793 34.6732 16.9277 33.9845 17.5867L32.2694 19.2282C31.9959 19.4898 31.8712 19.867 31.9358 20.2365L32.3406 22.5543C32.5032 23.485 31.5083 24.1946 30.6571 23.7552L28.5372 22.661C28.1991 22.4865 27.7953 22.4865 27.4572 22.661L25.3373 23.7552C24.4861 24.1946 23.4912 23.4849 23.6537 22.5543L24.0586 20.2365C24.1232 19.867 23.9984 19.4899 23.725 19.2282L22.0099 17.5867C21.3212 16.9277 21.7013 15.7794 22.6529 15.6436L25.0232 15.3055C25.4011 15.2516 25.7277 15.0185 25.8968 14.6822L26.9569 12.5735C27.3821 11.7268 28.6119 11.7268 29.0375 12.5735Z" fill="#FF9517"/>
<path d="M28.5375 20.7627C28.1994 20.5882 27.7956 20.5882 27.4576 20.7627L23.6369 22.7348C23.622 23.5734 24.5422 24.1659 25.3376 23.7555L27.4576 22.6612C27.7956 22.4868 28.1994 22.4868 28.5375 22.6612L30.6575 23.7555C31.4527 24.1659 32.3731 23.5734 32.3582 22.7348L28.5375 20.7627Z" fill="#EF7F0F"/>
<path d="M52.9231 8.5865C52.0523 7.58012 50.7815 7.00289 49.4365 7.00289H44.1425L44.4157 5.88935H44.5459C46.0593 5.88935 47.2905 4.68046 47.2905 3.19462C47.2907 1.70888 46.0594 0.5 44.546 0.5H11.4847C9.97133 0.5 8.74006 1.70888 8.74006 3.19473C8.74006 4.68057 9.97133 5.88945 11.4847 5.88945H11.614L11.8855 7.00289H6.56101C5.21598 7.00289 3.94507 7.58012 3.07441 8.5865C2.20365 9.59299 1.82918 10.9178 2.04703 12.2211C2.60831 15.5809 3.85827 20.4696 6.6232 24.7645V42.0755C6.60301 42.6994 7.39084 43.0994 7.89798 42.7216L11.5361 40.1839L15.1743 42.7216C15.6806 43.0991 16.4696 42.6994 16.4491 42.0755V32.6202C17.7313 33.0299 19.0798 33.295 20.486 33.4145C21.7639 34.5134 23.2705 35.3176 24.9015 35.7691V46.3388C24.9015 47.5202 24.0418 48.5284 22.8572 48.7359L20.1993 49.2018C17.8016 49.6221 15.8186 51.1939 14.8948 53.4065C14.6689 53.906 15.0854 54.5154 15.6417 54.4997H40.3889C40.971 54.5161 41.3821 53.8598 41.1138 53.3548C40.1807 51.1634 38.2015 49.6075 35.8194 49.193L33.1765 48.7331C31.9901 48.5267 31.1291 47.5183 31.1291 46.3355V35.7593C32.7472 35.306 34.2423 34.5053 35.5111 33.4145C36.9296 33.2939 38.2893 33.025 39.5815 32.6092V42.0755C39.5611 42.6995 40.3499 43.099 40.8563 42.7216L44.4945 40.1839L48.1326 42.7216C48.6398 43.0994 49.4276 42.6992 49.4074 42.0755V35.334C49.4074 34.8963 49.046 34.5414 48.6001 34.5414C48.1543 34.5414 47.7929 34.8962 47.7929 35.334V40.5403L44.962 38.5656C44.6819 38.3703 44.3068 38.3702 44.027 38.5656L41.1961 40.5403V31.9976C41.9104 31.6848 42.6019 31.325 43.2671 30.9152C44.9366 29.8865 46.4515 28.5504 47.793 26.9304V32.1638C47.793 32.6015 48.1543 32.9564 48.6002 32.9564C49.046 32.9564 49.4075 32.6015 49.4075 32.1638V24.7127C52.1491 20.4304 53.3915 15.5675 53.9505 12.2212C54.1683 10.9178 53.7939 9.59299 52.9231 8.5865ZM42.9757 11.7583H49.1182C48.6792 14.2433 47.6149 18.648 45.2159 22.325C43.5469 24.8831 41.4803 26.6907 39.0581 27.7173C39.0668 27.6834 39.0765 27.6499 39.0848 27.6159L42.9757 11.7583ZM4.30493 9.61271C4.86836 8.96155 5.69067 8.58808 6.56101 8.58808H12.2721L12.6587 10.1732H6.56101C5.75427 10.1544 5.08396 10.9299 5.23327 11.7081C5.45789 13.0523 5.88855 15.1299 6.66499 17.394C6.99091 18.3772 8.54251 17.8548 8.195 16.8883C7.50986 14.8903 7.10617 13.0423 6.87919 11.7583H13.0452L16.909 27.601C16.9185 27.6401 16.9296 27.6786 16.9396 27.7174C14.5173 26.6907 12.4506 24.8831 10.7816 22.325C10.2719 21.5438 9.79269 20.6814 9.35709 19.7621C9.1691 19.3652 8.68903 19.1931 8.2847 19.3777C7.88047 19.5624 7.70516 20.0338 7.89325 20.4306C8.35925 21.4142 8.87369 22.3393 9.42219 23.18C11.5665 26.4667 14.3278 28.6444 17.6338 29.659C17.9492 30.335 18.3318 30.9783 18.7776 31.5796C16.904 31.2147 15.1651 30.5438 13.5885 29.5726C11.4658 28.2648 9.60663 26.4016 8.06266 24.0349C5.38957 19.9379 4.18226 15.2096 3.6401 11.9646C3.49916 11.1211 3.7415 10.2639 4.30493 9.61271ZM14.8344 40.5402L12.0035 38.5655C11.7235 38.3702 11.3484 38.3701 11.0685 38.5655L8.23754 40.5402V26.9703C9.57086 28.5723 11.0746 29.895 12.7304 30.9151C13.4057 31.3312 14.1083 31.6959 14.8344 32.012V40.5402ZM30.1453 34.3703C29.7767 34.4515 29.5148 34.7728 29.5148 35.1436V46.3355C29.5148 48.2883 30.9363 49.953 32.8948 50.2939L35.5377 50.7538C36.9675 51.0027 38.2091 51.7841 39.0294 52.9147H17.003C17.8213 51.7899 19.0572 51.0123 20.483 50.7624L23.1409 50.2965C25.0965 49.9538 26.5159 48.2894 26.5159 46.3389V35.1514C26.5159 34.7797 26.2526 34.4578 25.8829 34.3776C22.2516 33.5894 19.3455 30.7846 18.4791 27.2319L13.2741 5.88945H33.5598C34.0056 5.88945 34.3671 5.53466 34.3671 5.09686C34.3671 4.65905 34.0056 4.30426 33.5598 4.30426H11.4847C10.8615 4.30426 10.3546 3.80645 10.3546 3.19473C10.3546 2.5829 10.8616 2.08509 11.4847 2.08509H44.546C45.1692 2.08509 45.6762 2.5829 45.6762 3.19473C45.6762 3.80655 45.1692 4.30426 44.546 4.30426H36.7887C36.3429 4.30426 35.9814 4.65905 35.9814 5.09686C35.9814 5.53466 36.3429 5.88945 36.7887 5.88945H42.7551L37.5153 27.2448C37.0832 29.0057 36.158 30.6043 34.8395 31.8677C33.5379 33.1149 31.9146 33.9803 30.1453 34.3703ZM52.3574 11.9646C51.8153 15.2096 50.608 19.9379 47.9349 24.0348C46.3909 26.4015 44.5317 28.2646 42.409 29.5725C40.8325 30.5437 39.0934 31.2147 37.2197 31.5795C37.6655 30.9783 38.0482 30.335 38.3636 29.659C41.6697 28.6445 44.431 26.4667 46.5754 23.1799C49.233 19.1067 50.3405 14.2439 50.7641 11.7081C50.9137 10.9294 50.2427 10.1544 49.4365 10.1732H43.3647L43.7537 8.58808H49.4365C51.2096 8.54621 52.6865 10.2535 52.3574 11.9646Z" fill="black"/>
<path d="M34.5614 18.1346C35.1022 17.617 35.2933 16.8573 35.0598 16.1521C34.8264 15.4468 34.2171 14.9425 33.4697 14.8359L31.0948 14.4971C30.9791 14.4806 30.8791 14.4092 30.8273 14.3062L29.7652 12.1933C29.4309 11.5284 28.7541 11.1152 27.9988 11.1152C27.2435 11.1152 26.5666 11.5284 26.2323 12.1933L25.1703 14.3063C25.1185 14.4092 25.0185 14.4806 24.9028 14.4971L22.5279 14.8359C21.7804 14.9425 21.1711 15.4468 20.9377 16.1521C20.7043 16.8573 20.8954 17.617 21.4362 18.1346L23.1546 19.7793C23.2384 19.8594 23.2765 19.9748 23.2567 20.088L22.8511 22.4103C22.7235 23.1412 23.0237 23.866 23.6348 24.3019C24.2475 24.7391 25.0433 24.7931 25.7092 24.4491L27.8332 23.3527C27.9368 23.2992 28.0605 23.2992 28.164 23.3527L30.2882 24.449C30.9566 24.7942 31.7516 24.7378 32.3625 24.3019C32.9735 23.866 33.2738 23.1412 33.1462 22.4103L32.7406 20.088C32.7208 19.9748 32.759 19.8594 32.8427 19.7792L34.5614 18.1346ZM31.7159 18.6441C31.2515 19.0885 31.0398 19.7284 31.1494 20.3559L31.555 22.6782C31.5671 23.0087 31.3559 23.1594 31.0395 23.046L28.9153 21.9495C28.3416 21.6534 27.6561 21.6534 27.082 21.9495L24.9579 23.046C24.6417 23.1593 24.4301 23.0087 24.4424 22.6782L24.848 20.356C24.9577 19.7284 24.7458 19.0885 24.2814 18.6441L22.5632 16.9994C22.3556 16.7391 22.4361 16.4952 22.7601 16.4044L25.135 16.0656C25.7766 15.9741 26.3312 15.5786 26.6181 15.0077L27.6802 12.8948C27.8682 12.6204 28.1293 12.6203 28.3174 12.8948L29.3795 15.0077C29.6664 15.5786 30.2209 15.9741 30.8625 16.0656L33.2374 16.4044C33.5613 16.4952 33.6421 16.739 33.4344 16.9994L31.7159 18.6441Z" fill="black"/>
</g>
<defs>
<clipPath id="clip0_15_14063">
<rect width="55" height="54" fill="white" transform="translate(0.5 0.5)"/>
</clipPath>
</defs>
</svg>
