<svg width="183" height="50" viewBox="0 0 183 50" fill="none" xmlns="http://www.w3.org/2000/svg">
<g clip-path="url(#clip0_272_7781)">
<path opacity="0.5" d="M31.3379 43.6738H37.5494V49.9145H31.3379V43.6738Z" fill="url(#paint0_linear_272_7781)"/>
<path opacity="0.7" d="M25.127 43.6738H31.3384V49.9145H25.127V43.6738Z" fill="url(#paint1_linear_272_7781)"/>
<path opacity="0.7" d="M18.918 43.6738H25.1294V49.9145H18.918V43.6738Z" fill="url(#paint2_linear_272_7781)"/>
<path opacity="0.5" d="M12.707 43.6738H18.9185V49.9145H12.707V43.6738Z" fill="url(#paint3_linear_272_7781)"/>
<path opacity="0.7" d="M37.5469 37.4355H43.7555V43.6763H37.5469V37.4355Z" fill="url(#paint4_linear_272_7781)"/>
<path opacity="0.8" d="M31.3379 37.4355H37.5494V43.6763H31.3379V37.4355Z" fill="url(#paint5_linear_272_7781)"/>
<path d="M25.127 37.4355H31.3384V43.6763H25.127V37.4355Z" fill="url(#paint6_linear_272_7781)"/>
<path d="M18.918 37.4355H25.1294V43.6763H18.918V37.4355Z" fill="url(#paint7_linear_272_7781)"/>
<path opacity="0.8" d="M12.707 37.4355H18.9185V43.6763H12.707V37.4355Z" fill="url(#paint8_linear_272_7781)"/>
<path opacity="0.7" d="M6.49805 37.4355H12.7095V43.6763H6.49805V37.4355Z" fill="url(#paint9_linear_272_7781)"/>
<path opacity="0.5" d="M43.7559 31.1973H49.9673V37.4351H43.7559V31.1973Z" fill="url(#paint10_linear_272_7781)"/>
<path opacity="0.8" d="M37.5469 31.1973H43.7555V37.4351H37.5469V31.1973Z" fill="url(#paint11_linear_272_7781)"/>
<path d="M31.3379 31.1973H37.5494V37.4351H31.3379V31.1973Z" fill="url(#paint12_linear_272_7781)"/>
<path d="M25.127 31.1973H31.3384V37.4351H25.127V31.1973Z" fill="url(#paint13_linear_272_7781)"/>
<path d="M18.918 31.1973H25.1294V37.4351H18.918V31.1973Z" fill="url(#paint14_linear_272_7781)"/>
<path d="M12.707 31.1973H18.9185V37.4351H12.707V31.1973Z" fill="url(#paint15_linear_272_7781)"/>
<path opacity="0.8" d="M6.49805 31.1973H12.7095V37.4351H6.49805V31.1973Z" fill="url(#paint16_linear_272_7781)"/>
<path opacity="0.5" d="M0.287109 31.1973H6.49857V37.4351H0.287109V31.1973Z" fill="url(#paint17_linear_272_7781)"/>
<path opacity="0.7" d="M43.7559 24.957H49.9673V31.1977H43.7559V24.957Z" fill="url(#paint18_linear_272_7781)"/>
<path d="M37.5469 24.957H43.7555V31.1977H37.5469V24.957Z" fill="url(#paint19_linear_272_7781)"/>
<path d="M31.3379 24.957H37.5494V31.1977H31.3379V24.957Z" fill="url(#paint20_linear_272_7781)"/>
<path d="M25.127 24.957H31.3384V31.1977H25.127V24.957Z" fill="url(#paint21_linear_272_7781)"/>
<path d="M18.918 24.957H25.1294V31.1977H18.918V24.957Z" fill="url(#paint22_linear_272_7781)"/>
<path d="M12.707 24.957H18.9185V31.1977H12.707V24.957Z" fill="url(#paint23_linear_272_7781)"/>
<path d="M6.49805 24.957H12.7095V31.1977H6.49805V24.957Z" fill="url(#paint24_linear_272_7781)"/>
<path opacity="0.7" d="M0.287109 24.957H6.49857V31.1977H0.287109V24.957Z" fill="url(#paint25_linear_272_7781)"/>
<path opacity="0.7" d="M43.7559 18.7188H49.9673V24.9595H43.7559V18.7188Z" fill="url(#paint26_linear_272_7781)"/>
<path d="M37.5469 18.7188H43.7555V24.9595H37.5469V18.7188Z" fill="url(#paint27_linear_272_7781)"/>
<path d="M31.3379 18.7188H37.5494V24.9595H31.3379V18.7188Z" fill="url(#paint28_linear_272_7781)"/>
<path d="M25.127 18.7188H31.3384V24.9595H25.127V18.7188Z" fill="url(#paint29_linear_272_7781)"/>
<path d="M18.918 18.7188H25.1294V24.9595H18.918V18.7188Z" fill="url(#paint30_linear_272_7781)"/>
<path d="M12.707 18.7188H18.9185V24.9595H12.707V18.7188Z" fill="url(#paint31_linear_272_7781)"/>
<path d="M6.49805 18.7188H12.7095V24.9595H6.49805V18.7188Z" fill="url(#paint32_linear_272_7781)"/>
<path opacity="0.7" d="M0.287109 18.7188H6.49857V24.9595H0.287109V18.7188Z" fill="url(#paint33_linear_272_7781)"/>
<path opacity="0.5" d="M43.7559 12.4785H49.9673V18.7192H43.7559V12.4785Z" fill="url(#paint34_linear_272_7781)"/>
<path opacity="0.8" d="M37.5469 12.4785H43.7555V18.7192H37.5469V12.4785Z" fill="url(#paint35_linear_272_7781)"/>
<path d="M31.3379 12.4785H37.5494V18.7192H31.3379V12.4785Z" fill="url(#paint36_linear_272_7781)"/>
<path d="M25.127 12.4785H31.3384V18.7192H25.127V12.4785Z" fill="url(#paint37_linear_272_7781)"/>
<path d="M18.918 12.4785H25.1294V18.7192H18.918V12.4785Z" fill="url(#paint38_linear_272_7781)"/>
<path d="M12.707 12.4785H18.9185V18.7192H12.707V12.4785Z" fill="url(#paint39_linear_272_7781)"/>
<path opacity="0.8" d="M6.49805 12.4785H12.7095V18.7192H6.49805V12.4785Z" fill="url(#paint40_linear_272_7781)"/>
<path opacity="0.5" d="M0.287109 12.4785H6.49857V18.7192H0.287109V12.4785Z" fill="url(#paint41_linear_272_7781)"/>
<path opacity="0.7" d="M37.5469 6.24023H43.7555V12.4809H37.5469V6.24023Z" fill="url(#paint42_linear_272_7781)"/>
<path opacity="0.8" d="M31.3379 6.24023H37.5494V12.4809H31.3379V6.24023Z" fill="url(#paint43_linear_272_7781)"/>
<path d="M25.127 6.24023H31.3384V12.4809H25.127V6.24023Z" fill="url(#paint44_linear_272_7781)"/>
<path d="M18.918 6.24023H25.1294V12.4809H18.918V6.24023Z" fill="url(#paint45_linear_272_7781)"/>
<path opacity="0.8" d="M12.707 6.24023H18.9185V12.4809H12.707V6.24023Z" fill="url(#paint46_linear_272_7781)"/>
<path opacity="0.7" d="M6.49805 6.24023H12.7095V12.4809H6.49805V6.24023Z" fill="url(#paint47_linear_272_7781)"/>
<path opacity="0.5" d="M31.3379 0H37.5494V6.24071H31.3379V0Z" fill="url(#paint48_linear_272_7781)"/>
<path opacity="0.7" d="M25.127 0H31.3384V6.24071H25.127V0Z" fill="url(#paint49_linear_272_7781)"/>
<path opacity="0.7" d="M18.918 0H25.1294V6.24071H18.918V0Z" fill="url(#paint50_linear_272_7781)"/>
<path opacity="0.5" d="M12.707 0H18.9185V6.24071H12.707V0Z" fill="url(#paint51_linear_272_7781)"/>
<path d="M16.6369 22.9765L18.3663 19.0858C18.9969 18.0876 18.913 16.8676 18.2216 16.1808C18.1292 16.088 18.0275 16.0061 17.9166 15.9351C17.6797 15.7904 17.4143 15.6991 17.1389 15.6677C16.8634 15.6362 16.5844 15.6653 16.3212 15.753C15.7233 15.9415 15.2129 16.3399 14.8834 16.8755C14.8834 16.8755 12.5174 22.4215 11.6315 24.9251C10.7457 27.4287 11.1058 31.9976 14.4995 35.4201C18.1004 39.0383 23.3236 39.873 26.6487 37.3587C26.7886 37.2854 26.92 37.1968 27.0404 37.0944L37.2921 28.4876C37.7912 28.068 38.5299 27.2197 37.8648 26.2483C37.2001 25.2762 35.9961 25.9447 35.4991 26.2665L29.5959 30.5797C29.5684 30.6031 29.5364 30.6205 29.5019 30.6309C29.4674 30.6413 29.4312 30.6445 29.3955 30.6403C29.3597 30.6361 29.3252 30.6246 29.2941 30.6064C29.2629 30.5882 29.2358 30.5639 29.2145 30.5347C29.1291 30.4027 29.0886 30.2464 29.0991 30.0893C29.1095 29.9322 29.1703 29.7828 29.2724 29.6633L38.3226 21.9465C39.1111 21.2387 39.2138 20.2112 38.5857 19.5062C37.9576 18.8012 36.9846 18.8355 36.1987 19.5512L28.0503 25.9526C28.012 25.9845 27.9675 26.0081 27.9197 26.022C27.8719 26.0359 27.8218 26.0397 27.7724 26.0333C27.7231 26.0268 27.6755 26.0103 27.6328 25.9846C27.5901 25.9589 27.5532 25.9247 27.5242 25.884C27.4362 25.797 27.3833 25.6805 27.3756 25.5567C27.3678 25.433 27.4058 25.3107 27.4823 25.2133L36.7113 16.2155C37.0604 15.8879 37.2661 15.4347 37.2833 14.9551C37.3006 14.4755 37.128 14.0086 36.8034 13.6565C36.641 13.4876 36.4461 13.3537 36.2305 13.2628C36.015 13.172 35.7833 13.1261 35.5496 13.128C35.0652 13.126 34.5996 13.3159 34.2536 13.6565L24.8354 22.543C24.6094 22.7701 24.1679 22.543 24.1153 22.2787C24.1055 22.2314 24.1079 22.1823 24.1221 22.1362C24.1363 22.09 24.162 22.0482 24.1967 22.0147L31.4148 13.7565C31.592 13.5937 31.7345 13.3965 31.8339 13.1769C31.9332 12.9572 31.9873 12.7197 31.9928 12.4785C31.9984 12.2373 31.9553 11.9975 31.8661 11.7735C31.7769 11.5495 31.6436 11.3459 31.4741 11.175C31.3045 11.0042 31.1023 10.8696 30.8796 10.7793C30.657 10.689 30.4184 10.645 30.1783 10.6498C29.9383 10.6546 29.7016 10.7082 29.4827 10.8073C29.2638 10.9064 29.0671 11.049 28.9045 11.2265L17.9539 23.3751C17.5622 23.7687 16.9838 23.7872 16.708 23.5601C16.6648 23.5268 16.6286 23.4851 16.6016 23.4376C16.5746 23.3901 16.5573 23.3376 16.5507 23.2833C16.544 23.229 16.5483 23.1739 16.5631 23.1212C16.5779 23.0685 16.603 23.0194 16.6369 22.9765Z" fill="white"/>
<path d="M70.2301 36.0914H65.4593V27.9042C65.4593 26.0106 65.2226 24.3681 63.2355 24.3681C61.2484 24.3681 60.6278 26.1349 60.6278 28.4403V36.0781H55.8965V14.3114H60.6278L60.6267 20.0864C60.6226 20.9819 60.6134 21.8774 60.599 22.7728C61.0042 21.9865 61.6231 21.3319 62.3838 20.885C63.1445 20.4381 64.0159 20.2173 64.8966 20.2481C69.0915 20.2481 70.2077 23.0642 70.2297 26.7953L70.2301 36.0914ZM88.9952 29.5235L90.5913 33.5031L90.4754 33.6274C89.3955 34.7671 87.2403 36.4689 83.2125 36.4689C77.1958 36.4689 72.4855 32.2435 72.4855 25.2317C72.4855 18.2199 77.2538 13.9971 83.21 13.9971C87.4155 13.9971 89.6998 15.8589 90.2333 16.4585L88.751 20.6839C88.3646 20.1556 86.1725 18.4099 83.4755 18.4099C80.0083 18.4099 77.3401 20.8714 77.3401 25.1339C77.3401 29.3964 80.1267 31.826 83.4755 31.826C86.0253 31.826 87.8624 30.7539 88.9956 29.5231M105.585 36.091H101.051L100.961 34.451L100.749 34.6756C100.08 35.3739 98.9075 36.4396 96.7818 36.4396C94.2029 36.4396 91.4771 34.9553 91.4771 31.4849C91.4771 28.0146 94.4712 26.8449 97.1682 26.7314L100.848 26.5728V26.211C100.848 24.5681 99.7521 23.7181 97.8542 23.7181C96.2685 23.7753 94.7261 24.2546 93.3856 25.1074L92.1394 21.8249C94.0692 20.8057 96.2127 20.2625 98.3928 20.2403C101.119 20.2403 102.69 20.9031 103.844 22.0389C104.998 23.1746 105.592 24.6796 105.592 27.3206L105.585 36.091ZM100.871 29.2428L98.5293 29.4014C97.0783 29.4646 96.2187 30.1274 96.2187 31.2949C96.2187 32.4624 97.1387 33.2199 98.4425 33.2199C98.9343 33.2103 99.4154 33.0748 99.8405 32.8262C100.266 32.5776 100.62 32.2241 100.871 31.7992V29.2428ZM117.941 36.4449C115.778 36.4449 114.238 35.5917 113.317 34.1417V41.8006H108.584V20.5306H113.089L113.052 22.5192H113.113C114.18 21.1621 115.741 20.2456 117.973 20.2456C122.179 20.2456 124.849 23.7499 124.849 28.3267C124.849 32.9035 122.181 36.4453 117.941 36.4453M116.577 24.231C114.561 24.231 113.16 25.8706 113.16 28.2714C113.16 30.6721 114.553 32.3121 116.577 32.3121C118.602 32.3121 120.018 30.6614 120.018 28.2581C120.018 25.8549 118.625 24.2228 116.58 24.2228L116.577 24.231ZM135.842 24.381H132.612V29.9667L132.613 30.1489C132.629 31.3178 132.801 31.6203 133.027 31.8921C133.264 32.1774 133.532 32.2699 134.152 32.2699C134.639 32.2583 135.12 32.1617 135.574 31.9842L135.811 35.9303C134.715 36.2608 133.578 36.4342 132.433 36.4453C130.743 36.4453 129.618 35.9167 128.877 34.9924C128.15 34.0864 127.85 32.8324 127.839 30.5539L127.838 24.3814H125.764V20.5624H127.838V16.3367H132.609V20.5624H135.842V24.381ZM148.73 30.7517L149.852 34.5756L149.728 34.6942C149.277 35.1135 147.671 36.4374 144.28 36.4374C140.279 36.4374 136.575 33.5324 136.575 28.3564C136.575 23.1799 140.34 20.2431 144.34 20.2431C148.075 20.2431 149.763 21.8831 149.763 21.8831L148.725 25.7021C147.674 24.8052 146.339 24.3128 144.96 24.3128C142.944 24.3128 141.346 25.7971 141.346 28.2585C141.346 30.7199 142.797 32.2674 145.026 32.2674C146.404 32.2349 147.722 31.6956 148.73 30.7517ZM166.186 36.0917H161.418V27.9042C161.418 26.0106 161.181 24.3681 159.194 24.3681C157.234 24.3681 156.603 26.0881 156.587 28.3485V36.0781H151.855V14.3114H156.587L156.586 20.0864C156.58 21.4728 156.558 22.7728 156.558 22.7728C156.963 21.9865 157.582 21.3319 158.343 20.885C159.103 20.4381 159.975 20.2173 160.855 20.2481C165.093 20.2481 166.189 23.1214 166.189 26.9089L166.186 36.0917ZM182.278 36.0917H177.744L177.655 34.4517L177.443 34.6764C176.774 35.3746 175.601 36.4403 173.475 36.4403C170.897 36.4403 168.171 34.956 168.171 31.4856C168.171 28.0153 171.165 26.8456 173.862 26.7321L177.542 26.5735V26.2117C177.542 24.5689 176.446 23.7189 174.548 23.7189C172.962 23.7762 171.42 24.2556 170.079 25.1081L168.833 21.8253C170.763 20.806 172.907 20.2629 175.087 20.2406C177.812 20.2406 179.384 20.9035 180.538 22.0392C181.693 23.1749 182.286 24.6796 182.286 27.3206L182.278 36.0917ZM177.565 29.2428L175.223 29.4014C173.772 29.4646 172.913 30.1274 172.913 31.2949C172.913 32.4624 173.833 33.2199 175.136 33.2199C175.628 33.2103 176.109 33.0748 176.534 32.8262C176.959 32.5776 177.314 32.2241 177.565 31.7992V29.2428Z" fill=" var(--registration-country-pick-color)"/>
</g>
<defs>
<linearGradient id="paint0_linear_272_7781" x1="341.781" y1="-4338.56" x2="341.781" y2="655.07" gradientUnits="userSpaceOnUse">
<stop stop-color="#00D4BF"/>
<stop offset="1" stop-color="#0074BF"/>
</linearGradient>
<linearGradient id="paint1_linear_272_7781" x1="335.57" y1="-4338.56" x2="335.57" y2="655.07" gradientUnits="userSpaceOnUse">
<stop stop-color="#00D4BF"/>
<stop offset="1" stop-color="#0074BF"/>
</linearGradient>
<linearGradient id="paint2_linear_272_7781" x1="329.361" y1="-4338.56" x2="329.361" y2="655.07" gradientUnits="userSpaceOnUse">
<stop stop-color="#00D4BF"/>
<stop offset="1" stop-color="#0074BF"/>
</linearGradient>
<linearGradient id="paint3_linear_272_7781" x1="323.15" y1="-4338.56" x2="323.15" y2="655.07" gradientUnits="userSpaceOnUse">
<stop stop-color="#00D4BF"/>
<stop offset="1" stop-color="#0074BF"/>
</linearGradient>
<linearGradient id="paint4_linear_272_7781" x1="347.978" y1="-3720.99" x2="347.978" y2="1272.64" gradientUnits="userSpaceOnUse">
<stop stop-color="#00D4BF"/>
<stop offset="1" stop-color="#0074BF"/>
</linearGradient>
<linearGradient id="paint5_linear_272_7781" x1="341.781" y1="-3720.99" x2="341.781" y2="1272.64" gradientUnits="userSpaceOnUse">
<stop stop-color="#00D4BF"/>
<stop offset="1" stop-color="#0074BF"/>
</linearGradient>
<linearGradient id="paint6_linear_272_7781" x1="335.569" y1="-3720.99" x2="335.569" y2="1272.64" gradientUnits="userSpaceOnUse">
<stop stop-color="#00D4BF"/>
<stop offset="1" stop-color="#0074BF"/>
</linearGradient>
<linearGradient id="paint7_linear_272_7781" x1="329.361" y1="-3720.99" x2="329.361" y2="1272.64" gradientUnits="userSpaceOnUse">
<stop stop-color="#00D4BF"/>
<stop offset="1" stop-color="#0074BF"/>
</linearGradient>
<linearGradient id="paint8_linear_272_7781" x1="323.15" y1="-3720.99" x2="323.15" y2="1272.64" gradientUnits="userSpaceOnUse">
<stop stop-color="#00D4BF"/>
<stop offset="1" stop-color="#0074BF"/>
</linearGradient>
<linearGradient id="paint9_linear_272_7781" x1="316.941" y1="-3720.99" x2="316.941" y2="1272.64" gradientUnits="userSpaceOnUse">
<stop stop-color="#00D4BF"/>
<stop offset="1" stop-color="#0074BF"/>
</linearGradient>
<linearGradient id="paint10_linear_272_7781" x1="354.459" y1="-3103.31" x2="354.459" y2="1890.14" gradientUnits="userSpaceOnUse">
<stop stop-color="#00D4BF"/>
<stop offset="1" stop-color="#0074BF"/>
</linearGradient>
<linearGradient id="paint11_linear_272_7781" x1="347.978" y1="-3103.31" x2="347.978" y2="1890.14" gradientUnits="userSpaceOnUse">
<stop stop-color="#00D4BF"/>
<stop offset="1" stop-color="#0074BF"/>
</linearGradient>
<linearGradient id="paint12_linear_272_7781" x1="341.78" y1="-3103.31" x2="341.78" y2="1890.14" gradientUnits="userSpaceOnUse">
<stop stop-color="#00D4BF"/>
<stop offset="1" stop-color="#0074BF"/>
</linearGradient>
<linearGradient id="paint13_linear_272_7781" x1="335.569" y1="-3103.31" x2="335.569" y2="1890.14" gradientUnits="userSpaceOnUse">
<stop stop-color="#00D4BF"/>
<stop offset="1" stop-color="#0074BF"/>
</linearGradient>
<linearGradient id="paint14_linear_272_7781" x1="329.361" y1="-3103.31" x2="329.361" y2="1890.14" gradientUnits="userSpaceOnUse">
<stop stop-color="#00D4BF"/>
<stop offset="1" stop-color="#0074BF"/>
</linearGradient>
<linearGradient id="paint15_linear_272_7781" x1="323.15" y1="-3103.31" x2="323.15" y2="1890.14" gradientUnits="userSpaceOnUse">
<stop stop-color="#00D4BF"/>
<stop offset="1" stop-color="#0074BF"/>
</linearGradient>
<linearGradient id="paint16_linear_272_7781" x1="316.941" y1="-3103.31" x2="316.941" y2="1890.14" gradientUnits="userSpaceOnUse">
<stop stop-color="#00D4BF"/>
<stop offset="1" stop-color="#0074BF"/>
</linearGradient>
<linearGradient id="paint17_linear_272_7781" x1="310.73" y1="-3103.31" x2="310.73" y2="1890.14" gradientUnits="userSpaceOnUse">
<stop stop-color="#00D4BF"/>
<stop offset="1" stop-color="#0074BF"/>
</linearGradient>
<linearGradient id="paint18_linear_272_7781" x1="354.459" y1="-2485.59" x2="354.459" y2="2508.04" gradientUnits="userSpaceOnUse">
<stop stop-color="#00D4BF"/>
<stop offset="1" stop-color="#0074BF"/>
</linearGradient>
<linearGradient id="paint19_linear_272_7781" x1="347.978" y1="-2485.59" x2="347.978" y2="2508.04" gradientUnits="userSpaceOnUse">
<stop stop-color="#00D4BF"/>
<stop offset="1" stop-color="#0074BF"/>
</linearGradient>
<linearGradient id="paint20_linear_272_7781" x1="341.781" y1="-2485.59" x2="341.781" y2="2508.04" gradientUnits="userSpaceOnUse">
<stop stop-color="#00D4BF"/>
<stop offset="1" stop-color="#0074BF"/>
</linearGradient>
<linearGradient id="paint21_linear_272_7781" x1="335.569" y1="-2485.59" x2="335.569" y2="2508.04" gradientUnits="userSpaceOnUse">
<stop stop-color="#00D4BF"/>
<stop offset="1" stop-color="#0074BF"/>
</linearGradient>
<linearGradient id="paint22_linear_272_7781" x1="329.361" y1="-2485.59" x2="329.361" y2="2508.04" gradientUnits="userSpaceOnUse">
<stop stop-color="#00D4BF"/>
<stop offset="1" stop-color="#0074BF"/>
</linearGradient>
<linearGradient id="paint23_linear_272_7781" x1="323.15" y1="-2485.59" x2="323.15" y2="2508.04" gradientUnits="userSpaceOnUse">
<stop stop-color="#00D4BF"/>
<stop offset="1" stop-color="#0074BF"/>
</linearGradient>
<linearGradient id="paint24_linear_272_7781" x1="316.941" y1="-2485.59" x2="316.941" y2="2508.04" gradientUnits="userSpaceOnUse">
<stop stop-color="#00D4BF"/>
<stop offset="1" stop-color="#0074BF"/>
</linearGradient>
<linearGradient id="paint25_linear_272_7781" x1="310.73" y1="-2485.59" x2="310.73" y2="2508.04" gradientUnits="userSpaceOnUse">
<stop stop-color="#00D4BF"/>
<stop offset="1" stop-color="#0074BF"/>
</linearGradient>
<linearGradient id="paint26_linear_272_7781" x1="354.459" y1="-1868.02" x2="354.459" y2="3125.61" gradientUnits="userSpaceOnUse">
<stop stop-color="#00D4BF"/>
<stop offset="1" stop-color="#0074BF"/>
</linearGradient>
<linearGradient id="paint27_linear_272_7781" x1="347.978" y1="-1868.02" x2="347.978" y2="3125.61" gradientUnits="userSpaceOnUse">
<stop stop-color="#00D4BF"/>
<stop offset="1" stop-color="#0074BF"/>
</linearGradient>
<linearGradient id="paint28_linear_272_7781" x1="341.781" y1="-1868.02" x2="341.781" y2="3125.61" gradientUnits="userSpaceOnUse">
<stop stop-color="#00D4BF"/>
<stop offset="1" stop-color="#0074BF"/>
</linearGradient>
<linearGradient id="paint29_linear_272_7781" x1="335.57" y1="-1868.02" x2="335.57" y2="3125.61" gradientUnits="userSpaceOnUse">
<stop stop-color="#00D4BF"/>
<stop offset="1" stop-color="#0074BF"/>
</linearGradient>
<linearGradient id="paint30_linear_272_7781" x1="329.361" y1="-1868.02" x2="329.361" y2="3125.61" gradientUnits="userSpaceOnUse">
<stop stop-color="#00D4BF"/>
<stop offset="1" stop-color="#0074BF"/>
</linearGradient>
<linearGradient id="paint31_linear_272_7781" x1="323.15" y1="-1868.02" x2="323.15" y2="3125.61" gradientUnits="userSpaceOnUse">
<stop stop-color="#00D4BF"/>
<stop offset="1" stop-color="#0074BF"/>
</linearGradient>
<linearGradient id="paint32_linear_272_7781" x1="316.941" y1="-1868.02" x2="316.941" y2="3125.61" gradientUnits="userSpaceOnUse">
<stop stop-color="#00D4BF"/>
<stop offset="1" stop-color="#0074BF"/>
</linearGradient>
<linearGradient id="paint33_linear_272_7781" x1="310.73" y1="-1868.02" x2="310.73" y2="3125.61" gradientUnits="userSpaceOnUse">
<stop stop-color="#00D4BF"/>
<stop offset="1" stop-color="#0074BF"/>
</linearGradient>
<linearGradient id="paint34_linear_272_7781" x1="354.459" y1="-1250.19" x2="354.459" y2="3743.44" gradientUnits="userSpaceOnUse">
<stop stop-color="#00D4BF"/>
<stop offset="1" stop-color="#0074BF"/>
</linearGradient>
<linearGradient id="paint35_linear_272_7781" x1="347.978" y1="-1250.19" x2="347.978" y2="3743.44" gradientUnits="userSpaceOnUse">
<stop stop-color="#00D4BF"/>
<stop offset="1" stop-color="#0074BF"/>
</linearGradient>
<linearGradient id="paint36_linear_272_7781" x1="341.781" y1="-1250.19" x2="341.781" y2="3743.44" gradientUnits="userSpaceOnUse">
<stop stop-color="#00D4BF"/>
<stop offset="1" stop-color="#0074BF"/>
</linearGradient>
<linearGradient id="paint37_linear_272_7781" x1="335.57" y1="-1250.19" x2="335.57" y2="3743.44" gradientUnits="userSpaceOnUse">
<stop stop-color="#00D4BF"/>
<stop offset="1" stop-color="#0074BF"/>
</linearGradient>
<linearGradient id="paint38_linear_272_7781" x1="329.361" y1="-1250.19" x2="329.361" y2="3743.44" gradientUnits="userSpaceOnUse">
<stop stop-color="#00D4BF"/>
<stop offset="1" stop-color="#0074BF"/>
</linearGradient>
<linearGradient id="paint39_linear_272_7781" x1="323.15" y1="-1250.19" x2="323.15" y2="3743.44" gradientUnits="userSpaceOnUse">
<stop stop-color="#00D4BF"/>
<stop offset="1" stop-color="#0074BF"/>
</linearGradient>
<linearGradient id="paint40_linear_272_7781" x1="316.941" y1="-1250.19" x2="316.941" y2="3743.44" gradientUnits="userSpaceOnUse">
<stop stop-color="#00D4BF"/>
<stop offset="1" stop-color="#0074BF"/>
</linearGradient>
<linearGradient id="paint41_linear_272_7781" x1="310.73" y1="-1250.19" x2="310.73" y2="3743.44" gradientUnits="userSpaceOnUse">
<stop stop-color="#00D4BF"/>
<stop offset="1" stop-color="#0074BF"/>
</linearGradient>
<linearGradient id="paint42_linear_272_7781" x1="347.978" y1="-632.622" x2="347.978" y2="4361" gradientUnits="userSpaceOnUse">
<stop stop-color="#00D4BF"/>
<stop offset="1" stop-color="#0074BF"/>
</linearGradient>
<linearGradient id="paint43_linear_272_7781" x1="341.781" y1="-632.622" x2="341.781" y2="4361" gradientUnits="userSpaceOnUse">
<stop stop-color="#00D4BF"/>
<stop offset="1" stop-color="#0074BF"/>
</linearGradient>
<linearGradient id="paint44_linear_272_7781" x1="335.569" y1="-632.622" x2="335.569" y2="4361" gradientUnits="userSpaceOnUse">
<stop stop-color="#00D4BF"/>
<stop offset="1" stop-color="#0074BF"/>
</linearGradient>
<linearGradient id="paint45_linear_272_7781" x1="329.361" y1="-632.622" x2="329.361" y2="4361" gradientUnits="userSpaceOnUse">
<stop stop-color="#00D4BF"/>
<stop offset="1" stop-color="#0074BF"/>
</linearGradient>
<linearGradient id="paint46_linear_272_7781" x1="323.15" y1="-632.622" x2="323.15" y2="4361" gradientUnits="userSpaceOnUse">
<stop stop-color="#00D4BF"/>
<stop offset="1" stop-color="#0074BF"/>
</linearGradient>
<linearGradient id="paint47_linear_272_7781" x1="316.941" y1="-632.622" x2="316.941" y2="4361" gradientUnits="userSpaceOnUse">
<stop stop-color="#00D4BF"/>
<stop offset="1" stop-color="#0074BF"/>
</linearGradient>
<linearGradient id="paint48_linear_272_7781" x1="341.781" y1="-14.7905" x2="341.781" y2="4978.84" gradientUnits="userSpaceOnUse">
<stop stop-color="#00D4BF"/>
<stop offset="1" stop-color="#0074BF"/>
</linearGradient>
<linearGradient id="paint49_linear_272_7781" x1="335.569" y1="-14.7905" x2="335.569" y2="4978.84" gradientUnits="userSpaceOnUse">
<stop stop-color="#00D4BF"/>
<stop offset="1" stop-color="#0074BF"/>
</linearGradient>
<linearGradient id="paint50_linear_272_7781" x1="329.361" y1="-14.7905" x2="329.361" y2="4978.84" gradientUnits="userSpaceOnUse">
<stop stop-color="#00D4BF"/>
<stop offset="1" stop-color="#0074BF"/>
</linearGradient>
<linearGradient id="paint51_linear_272_7781" x1="323.15" y1="-14.7905" x2="323.15" y2="4978.84" gradientUnits="userSpaceOnUse">
<stop stop-color="#00D4BF"/>
<stop offset="1" stop-color="#0074BF"/>
</linearGradient>
<clipPath id="clip0_272_7781">
<rect width="182" height="50" fill="white" transform="translate(0.287109)"/>
</clipPath>
</defs>
</svg>
