<svg width="27" height="22" viewBox="0 0 27 22" fill="none" xmlns="http://www.w3.org/2000/svg">
<path d="M20.8697 6.73632H0.286396V4.56966H20.8697V0.0976562L25.8845 4.68666C26.0111 4.79976 26.1124 4.93832 26.1817 5.09327C26.2511 5.24822 26.2869 5.41606 26.2869 5.58582C26.2869 5.75558 26.2511 5.92343 26.1817 6.07838C26.1124 6.23333 26.0111 6.37189 25.8845 6.48499L20.8697 11.0697V6.73632ZM5.70306 10.931L0.688313 15.52C0.561717 15.6331 0.460432 15.7717 0.391084 15.9266C0.321736 16.0816 0.285889 16.2494 0.285889 16.4192C0.285889 16.5889 0.321736 16.7568 0.391084 16.9117C0.460432 17.0667 0.561717 17.2052 0.688313 17.3183L5.70306 21.903V17.5697H26.2864V15.403H5.70306V10.931Z" fill="#AEACE4"/>
</svg>
