<svg width="25" height="24" viewBox="0 0 25 24" fill="none" xmlns="http://www.w3.org/2000/svg">
<path d="M12.1001 -0.000488281C5.4833 -0.000488281 0.100098 5.38278 0.100098 11.9996C0.100098 18.6164 5.4833 23.9995 12.1001 23.9995C18.7169 23.9995 24.1001 18.6164 24.1001 11.9996C24.1001 5.38278 18.7169 -0.000488281 12.1001 -0.000488281ZM12.1001 21.8177C6.68628 21.8177 2.28192 17.4133 2.28192 11.9996C2.28192 6.58584 6.68628 2.18133 12.1001 2.18133C17.5139 2.18133 21.9183 6.58584 21.9183 11.9996C21.9183 17.4133 17.5138 21.8177 12.1001 21.8177Z" fill="#97A0FF" fill-opacity="0.2"/>
<path d="M12.0993 5.09033C11.2974 5.09033 10.645 5.74313 10.645 6.54553C10.645 7.3472 11.2974 7.99942 12.0993 7.99942C12.9012 7.99942 13.5535 7.3472 13.5535 6.54553C13.5535 5.74313 12.9012 5.09033 12.0993 5.09033ZM12.0994 10.1812C11.4969 10.1812 11.0085 10.6697 11.0085 11.2722V17.8176C11.0085 18.4201 11.4969 18.9085 12.0994 18.9085C12.7019 18.9085 13.1903 18.4201 13.1903 17.8176V11.2722C13.1903 10.6697 12.7019 10.1812 12.0994 10.1812Z" fill="#97A0FF" fill-opacity="0.2"/>
</svg>
