<svg width="24" height="24" viewBox="0 0 24 24" fill="none" xmlns="http://www.w3.org/2000/svg">
<g clip-path="url(#clip0_145_3816)">
<path d="M18.1539 2.625H5.84606C5.10772 3.89616 3.97769 4.89414 2.625 5.46966V10.2803C3.97769 10.8559 5.10772 11.8538 5.84606 13.125H13.3359C14.148 12.3468 15.1418 11.7841 16.2268 11.488C17.3118 11.1918 18.4537 11.1718 19.5485 11.4295C20.092 10.9514 20.7087 10.5634 21.375 10.2803V5.46966C20.0223 4.89414 18.8923 3.89616 18.1539 2.625ZM11.25 7.125H12.75C13.3467 7.125 13.919 7.36205 14.341 7.78401C14.7629 8.20597 15 8.77826 15 9.375C15 9.97174 14.7629 10.544 14.341 10.966C13.919 11.3879 13.3467 11.625 12.75 11.625V12.75H11.25V11.625C10.6535 11.6243 10.0816 11.387 9.65976 10.9652C9.23795 10.5434 9.00068 9.97153 9 9.375H10.5C10.5002 9.57384 10.5793 9.76447 10.7199 9.90507C10.8605 10.0457 11.0512 10.1248 11.25 10.125H12.75C12.9489 10.125 13.1397 10.046 13.2803 9.90533C13.421 9.76468 13.5 9.57391 13.5 9.375C13.5 9.17609 13.421 8.98532 13.2803 8.84467C13.1397 8.70402 12.9489 8.625 12.75 8.625H11.25C10.6533 8.625 10.081 8.38795 9.65901 7.96599C9.23705 7.54403 9 6.97174 9 6.375C9 5.77826 9.23705 5.20597 9.65901 4.78401C10.081 4.36205 10.6533 4.125 11.25 4.125V3H12.75V4.125C13.3465 4.12568 13.9184 4.36295 14.3402 4.78476C14.762 5.20657 14.9993 5.77847 15 6.375H13.5C13.4998 6.17616 13.4207 5.98553 13.2801 5.84493C13.1395 5.70433 12.9488 5.62524 12.75 5.625H11.25C11.0511 5.625 10.8603 5.70402 10.7197 5.84467C10.579 5.98532 10.5 6.17609 10.5 6.375C10.5 6.57391 10.579 6.76468 10.7197 6.90533C10.8603 7.04598 11.0511 7.125 11.25 7.125Z" fill="#4F4BAD"/>
<path d="M0.75 16.5004C0.48658 16.5007 0.227793 16.4311 0 16.2988L0 18.0004C0 18.1993 0.0790176 18.3901 0.21967 18.5307C0.360322 18.6714 0.551088 18.7504 0.75 18.7504H11.2919C11.2078 17.9986 11.2505 17.238 11.4182 16.5004H0.75Z" fill="#4F4BAD"/>
<path d="M23.25 0H0.75C0.551088 0 0.360322 0.0790176 0.21967 0.21967C0.0790176 0.360322 0 0.551088 0 0.75L0 15C0 15.1989 0.0790176 15.3897 0.21967 15.5303C0.360322 15.671 0.551088 15.75 0.75 15.75H11.6361C11.8759 15.0745 12.2219 14.4416 12.6609 13.875H5.39625C5.04424 13.1533 4.55134 12.5093 3.94659 11.9811C3.34184 11.4528 2.63747 11.051 1.875 10.7992V4.95084C2.63747 4.69904 3.34184 4.29717 3.94659 3.76891C4.55134 3.24066 5.04424 2.59671 5.39625 1.875H18.6038C18.9558 2.59671 19.4487 3.24066 20.0534 3.76891C20.6582 4.29717 21.3625 4.69904 22.125 4.95084V10.7992C21.5078 11.0024 20.9279 11.3048 20.4079 11.6945C21.9583 12.2908 23.2363 13.4348 24 14.9099V0.75C24 0.551088 23.921 0.360322 23.7803 0.21967C23.6397 0.0790176 23.4489 0 23.25 0Z" fill="#4F4BAD"/>
<path d="M18 12C16.8133 12 15.6533 12.3519 14.6666 13.0112C13.6799 13.6705 12.9109 14.6075 12.4567 15.7039C12.0026 16.8003 11.8838 18.0067 12.1153 19.1705C12.3468 20.3344 12.9182 21.4035 13.7574 22.2426C14.5965 23.0818 15.6656 23.6532 16.8295 23.8847C17.9933 24.1162 19.1997 23.9974 20.2961 23.5433C21.3925 23.0892 22.3295 22.3201 22.9888 21.3334C23.6481 20.3467 24 19.1867 24 18C23.9982 16.4092 23.3655 14.8842 22.2407 13.7593C21.1158 12.6345 19.5908 12.0018 18 12ZM21 18.75H18.75V21H17.25V18.75H15V17.25H17.25V15H18.75V17.25H21V18.75Z" fill="#4F4BAD"/>
</g>
<defs>
<clipPath id="clip0_145_3816">
<rect width="24" height="24" fill="white"/>
</clipPath>
</defs>
</svg>
