<svg width="17" height="17" viewBox="0 0 17 17" fill="none" xmlns="http://www.w3.org/2000/svg">
<g clip-path="url(#clip0_543_17157)">
<path d="M5.83331 14.0791H2.77266C2.62222 14.0787 2.50034 13.9569 2.5 13.8064V2.35176C2.50037 2.20132 2.62222 2.07945 2.77266 2.0791H5.83331C6.38559 2.0791 6.83331 1.63138 6.83331 1.0791C6.83331 0.52682 6.38559 0.0791016 5.83331 0.0791016H2.77266C1.51809 0.0805703 0.501469 1.09723 0.5 2.35176V13.8064C0.501469 15.061 1.51809 16.0776 2.77266 16.0791H5.83331C6.38559 16.0791 6.83331 15.6314 6.83331 15.0791C6.83331 14.5268 6.38559 14.0791 5.83331 14.0791Z" fill="#AEACE4"/>
<path d="M15.62 5.95785L13.032 3.37185C12.6414 2.98138 12.0082 2.98154 11.6177 3.3722C11.2272 3.76285 11.2274 4.39607 11.618 4.78654L13.8927 7.06054L4.83203 7.0792C4.27975 7.0792 3.83203 7.52691 3.83203 8.0792C3.83203 8.63148 4.27975 9.0792 4.83203 9.0792L13.9294 9.06254L11.618 11.3739C11.2417 11.7781 11.2644 12.4109 11.6686 12.7872C12.0528 13.1449 12.6482 13.1446 13.032 12.7865L15.618 10.2005C16.7896 9.02898 16.7896 7.12948 15.6181 5.95791L15.618 5.95788L15.62 5.95785Z" fill="#AEACE4"/>
</g>
<defs>
<clipPath id="clip0_543_17157">
<rect width="16" height="16" fill="white" transform="translate(0.5 0.0791016)"/>
</clipPath>
</defs>
</svg>
