<svg width="32" height="32" viewBox="0 0 17 17" fill="none" xmlns="http://www.w3.org/2000/svg">
<g clip-path="url(#clip0_740_20117)">
<path d="M8.38501 7.78635C9.44385 7.78635 10.3607 7.40659 11.1099 6.65732C11.859 5.90818 12.2388 4.99156 12.2388 3.9326C12.2388 2.87401 11.859 1.95727 11.1097 1.20788C10.3605 0.458861 9.44373 0.0791016 8.38501 0.0791016C7.32605 0.0791016 6.40942 0.458861 5.66028 1.208C4.91113 1.95715 4.53125 2.87389 4.53125 3.9326C4.53125 4.99156 4.91113 5.9083 5.6604 6.65744C6.40967 7.40647 7.32642 7.78635 8.38501 7.78635Z" fill="white"/>
<path d="M15.129 12.3822C15.1074 12.0704 15.0637 11.7303 14.9994 11.3712C14.9344 11.0094 14.8508 10.6673 14.7507 10.3547C14.6473 10.0316 14.5067 9.71252 14.3329 9.40673C14.1525 9.08935 13.9406 8.81298 13.7028 8.58557C13.4541 8.34765 13.1497 8.15637 12.7976 8.01684C12.4468 7.87805 12.058 7.80774 11.6421 7.80774C11.4788 7.80774 11.3208 7.87476 11.0157 8.07336C10.828 8.1958 10.6084 8.3374 10.3633 8.49402C10.1537 8.62756 9.86975 8.75268 9.51904 8.86596C9.17688 8.97668 8.82947 9.03283 8.48657 9.03283C8.14368 9.03283 7.79639 8.97668 7.45386 8.86596C7.10352 8.7528 6.81958 8.62768 6.61023 8.49414C6.36743 8.33899 6.14771 8.19739 5.95715 8.07324C5.65247 7.87463 5.49438 7.80762 5.33105 7.80762C4.91504 7.80762 4.52637 7.87805 4.17566 8.01697C3.82385 8.15625 3.51929 8.34753 3.27039 8.58569C3.03271 8.81323 2.82068 9.08947 2.6405 9.40673C2.4668 9.71252 2.32617 10.0315 2.22266 10.3548C2.12268 10.6675 2.03906 11.0094 1.97412 11.3712C1.90979 11.7298 1.86609 12.0701 1.84448 12.3825C1.82324 12.6887 1.8125 13.0064 1.8125 13.3274C1.8125 14.1626 2.078 14.8387 2.60156 15.3374C3.11865 15.8294 3.80286 16.0791 4.63489 16.0791H12.339C13.171 16.0791 13.855 15.8296 14.3722 15.3374C14.8959 14.8391 15.1614 14.1628 15.1614 13.3272C15.1613 13.0049 15.1504 12.6869 15.129 12.3822Z" fill="white"/>
</g>
<defs>
<clipPath id="clip0_740_20117">
<rect width="16" height="16" fill="white" transform="translate(0.5 0.0791016)"/>
</clipPath>
</defs>
</svg>
