<svg width="32" height="32" viewBox="0 0 32 32" fill="none" xmlns="http://www.w3.org/2000/svg">
<path d="M5.83967 2.66699H26.1583C27.3539 2.66699 28.5006 3.14194 29.346 3.98735C30.1914 4.83277 30.6663 5.9794 30.6663 7.17499V19.4937C30.6663 20.6889 30.1915 21.8352 29.3464 22.6804C28.5012 23.5255 27.3549 24.0003 26.1597 24.0003H5.84101C4.64541 24.0003 3.49878 23.5254 2.65337 22.68C1.80796 21.8345 1.33301 20.6879 1.33301 19.4923V7.17366C1.33301 5.97842 1.80782 4.83213 2.65298 3.98696C3.49814 3.1418 4.64443 2.66699 5.83967 2.66699Z" fill="#4F4BAD"/>
<path d="M22.6667 26.667H9.33333C8.97971 26.667 8.64057 26.8075 8.39052 27.0575C8.14048 27.3076 8 27.6467 8 28.0003C8 28.3539 8.14048 28.6931 8.39052 28.9431C8.64057 29.1932 8.97971 29.3337 9.33333 29.3337H22.6667C23.0203 29.3337 23.3594 29.1932 23.6095 28.9431C23.8595 28.6931 24 28.3539 24 28.0003C24 27.6467 23.8595 27.3076 23.6095 27.0575C23.3594 26.8075 23.0203 26.667 22.6667 26.667Z" fill="#4F4BAD"/>
</svg>
