<svg width="32" height="33" viewBox="0 0 32 33" fill="none" xmlns="http://www.w3.org/2000/svg">
<path d="M12.6646 11.6219V3.21191L3.38965 12.7419H11.5546C11.8503 12.7403 12.1332 12.6215 12.3413 12.4115C12.5494 12.2015 12.6657 11.9175 12.6646 11.6219Z" fill="#4F4BAD"/>
<path d="M23.3955 6.93693C22.1916 6.83617 20.9853 7.10115 19.9345 7.69721C18.8836 8.29327 18.0372 9.19264 17.5059 10.2777C16.9746 11.3627 16.7832 12.5828 16.9568 13.7784C17.1303 14.9739 17.6607 16.0893 18.4785 16.9785C19.2963 17.8677 20.3635 18.4893 21.5404 18.762C22.7173 19.0348 23.9492 18.9459 25.0747 18.507C26.2003 18.0682 27.1672 17.2998 27.8489 16.3024C28.5306 15.305 28.8954 14.125 28.8955 12.9169C28.8911 11.4133 28.3243 9.96582 27.3064 8.85914C26.2886 7.75246 24.8934 7.06675 23.3955 6.93693ZM25.2505 14.8819C25.1656 14.9839 25.0436 15.0481 24.9114 15.0603C24.7793 15.0725 24.6476 15.0317 24.5455 14.9469L22.5755 13.3019C22.5188 13.2551 22.4733 13.1963 22.4422 13.1297C22.411 13.0631 22.3951 12.9904 22.3955 12.9169V9.28693C22.3961 9.15432 22.4494 9.0274 22.5437 8.9341C22.5903 8.88791 22.6456 8.85135 22.7064 8.82653C22.7672 8.80171 22.8323 8.7891 22.898 8.78943C22.9636 8.78975 23.0286 8.80301 23.0891 8.82844C23.1497 8.85387 23.2046 8.89098 23.2508 8.93764C23.297 8.9843 23.3335 9.03961 23.3584 9.10039C23.3832 9.16118 23.3958 9.22627 23.3955 9.29193V12.6819L25.1855 14.1819C25.2866 14.2664 25.3501 14.3874 25.3623 14.5185C25.3745 14.6497 25.3343 14.7803 25.2505 14.8819Z" fill="#4F4BAD"/>
<path d="M22.3105 5.94199C22.6713 5.90927 23.0343 5.9076 23.3955 5.93699V4.86199C23.3938 4.3458 23.1876 3.85132 22.8221 3.48679C22.4567 3.12226 21.9617 2.91737 21.4455 2.91699H13.6655V11.622C13.6666 12.1829 13.445 12.7212 13.0493 13.1188C12.6537 13.5163 12.1163 13.7405 11.5555 13.742H3.10547V28.972C3.10718 29.4882 3.31333 29.9827 3.6788 30.3472C4.04427 30.7117 4.53928 30.9166 5.05547 30.917H21.4455C21.9617 30.9166 22.4567 30.7117 22.8221 30.3472C23.1876 29.9827 23.3938 29.4882 23.3955 28.972V19.897C14.2664 20.283 13.1399 6.9834 22.3105 5.94199ZM5.53547 16.417H13.2505C13.3817 16.419 13.5069 16.4726 13.599 16.5662C13.6911 16.6597 13.7428 16.7857 13.7428 16.917C13.7428 17.0483 13.6911 17.1743 13.599 17.2678C13.5069 17.3614 13.3817 17.415 13.2504 17.417H5.53547C5.4042 17.415 5.279 17.3614 5.18689 17.2678C5.09478 17.1743 5.04315 17.0483 5.04315 16.917C5.04315 16.7857 5.09478 16.6597 5.18689 16.5661C5.279 16.4726 5.4042 16.419 5.53547 16.417ZM5.53547 18.827H13.2505C13.3817 18.829 13.5069 18.8826 13.599 18.9762C13.6911 19.0697 13.7428 19.1957 13.7428 19.327C13.7428 19.4583 13.6911 19.5843 13.599 19.6778C13.5069 19.7714 13.3817 19.825 13.2504 19.827H5.53547C5.4042 19.825 5.279 19.7714 5.18689 19.6778C5.09478 19.5843 5.04315 19.4583 5.04315 19.327C5.04315 19.1957 5.09478 19.0697 5.18689 18.9761C5.279 18.8826 5.4042 18.829 5.53547 18.827ZM17.1055 27.062H5.53547C5.40414 27.06 5.27886 27.0065 5.18669 26.9129C5.09451 26.8194 5.04284 26.6933 5.04285 26.562C5.04285 26.4306 5.09452 26.3046 5.18671 26.211C5.27889 26.1175 5.40417 26.0639 5.5355 26.062H17.1055C17.2365 26.0644 17.3613 26.1181 17.4531 26.2117C17.5449 26.3052 17.5963 26.431 17.5963 26.562C17.5963 26.693 17.5449 26.8188 17.4531 26.9123C17.3613 27.0058 17.2365 27.0596 17.1055 27.062ZM20.9755 27.062C20.8429 27.062 20.7157 27.0093 20.6219 26.9155C20.5282 26.8218 20.4755 26.6946 20.4755 26.562C20.4755 26.4294 20.5282 26.3022 20.6219 26.2084C20.7157 26.1147 20.8429 26.062 20.9755 26.062C21.1081 26.062 21.2353 26.1147 21.3291 26.2085C21.4228 26.3022 21.4755 26.4294 21.4755 26.562C21.4755 26.6946 21.4228 26.8218 21.329 26.9156C21.2353 27.0093 21.1081 27.062 20.9755 27.062ZM20.9655 24.647H5.53547C5.40286 24.647 5.27568 24.5943 5.18192 24.5005C5.08815 24.4068 5.03547 24.2796 5.03547 24.147C5.03547 24.0144 5.08815 23.8872 5.18192 23.7934C5.27568 23.6997 5.40286 23.647 5.53547 23.647H20.9655C21.0981 23.647 21.2253 23.6997 21.319 23.7934C21.4128 23.8872 21.4655 24.0144 21.4655 24.147C21.4655 24.2796 21.4128 24.4068 21.319 24.5005C21.2253 24.5943 21.0981 24.647 20.9655 24.647ZM20.9654 22.237H5.53547C5.4042 22.235 5.279 22.1814 5.1869 22.0878C5.09479 21.9943 5.04317 21.8683 5.04317 21.737C5.04317 21.6057 5.0948 21.4797 5.18692 21.3861C5.27903 21.2926 5.40423 21.239 5.5355 21.237H20.9655C21.0967 21.239 21.2219 21.2926 21.314 21.3862C21.4061 21.4797 21.4578 21.6057 21.4578 21.737C21.4577 21.8683 21.4061 21.9943 21.314 22.0879C21.2219 22.1814 21.0967 22.235 20.9654 22.237Z" fill="#4F4BAD"/>
</svg>
