<svg width="17" height="17" viewBox="0 0 17 17" fill="none" xmlns="http://www.w3.org/2000/svg">
<g clip-path="url(#clip0_266_7367)">
<path d="M10.2861 13.8333H3.61947C2.73574 13.8323 1.8885 13.4807 1.26361 12.8559C0.638721 12.231 0.287191 11.3837 0.286133 10.5L0.286133 3.83333C0.287191 2.9496 0.638721 2.10237 1.26361 1.47748C1.8885 0.852588 2.73574 0.501059 3.61947 0.5L10.2861 0.5C11.1699 0.501059 12.0171 0.852588 12.642 1.47748C13.2669 2.10237 13.6184 2.9496 13.6195 3.83333V10.5C13.6184 11.3837 13.2669 12.231 12.642 12.8559C12.0171 13.4807 11.1699 13.8323 10.2861 13.8333ZM3.61947 1.83333C3.08903 1.83333 2.58033 2.04405 2.20525 2.41912C1.83018 2.79419 1.61947 3.3029 1.61947 3.83333V10.5C1.61947 11.0304 1.83018 11.5391 2.20525 11.9142C2.58033 12.2893 3.08903 12.5 3.61947 12.5H10.2861C10.8166 12.5 11.3253 12.2893 11.7003 11.9142C12.0754 11.5391 12.2861 11.0304 12.2861 10.5V3.83333C12.2861 3.3029 12.0754 2.79419 11.7003 2.41912C11.3253 2.04405 10.8166 1.83333 10.2861 1.83333H3.61947ZM16.2861 13.1667V4.5C16.2861 4.32319 16.2159 4.15362 16.0909 4.0286C15.9658 3.90357 15.7963 3.83333 15.6195 3.83333C15.4427 3.83333 15.2731 3.90357 15.1481 4.0286C15.023 4.15362 14.9528 4.32319 14.9528 4.5V13.1667C14.9528 13.6971 14.7421 14.2058 14.367 14.5809C13.9919 14.956 13.4832 15.1667 12.9528 15.1667H4.28613C4.10932 15.1667 3.93975 15.2369 3.81473 15.3619C3.6897 15.487 3.61947 15.6565 3.61947 15.8333C3.61947 16.0101 3.6897 16.1797 3.81473 16.3047C3.93975 16.4298 4.10932 16.5 4.28613 16.5H12.9528C13.8365 16.4989 14.6838 16.1474 15.3087 15.5225C15.9335 14.8976 16.2851 14.0504 16.2861 13.1667Z" fill="white"/>
</g>
<defs>
<clipPath id="clip0_266_7367">
<rect width="16" height="16" fill="white" transform="translate(0.286133 0.5)"/>
</clipPath>
</defs>
</svg>
