<svg width="25" height="24" viewBox="0 0 25 24" fill="none" xmlns="http://www.w3.org/2000/svg">
<g clip-path="url(#clip0_442_12574)">
<path d="M24.2861 12.0732C24.2861 18.0622 19.8921 23.0272 14.1561 23.9282V15.5652H16.9451L17.4761 12.1052H14.1561V9.86024C14.1561 8.91324 14.6201 7.99124 16.1061 7.99124H17.6151V5.04524C17.6151 5.04524 16.2451 4.81124 14.9361 4.81124C12.2021 4.81124 10.4161 6.46824 10.4161 9.46724V12.1042H7.37713V15.5642H10.4161V23.9272C4.68113 23.0252 0.286133 18.0612 0.286133 12.0732C0.286133 5.44624 5.65913 0.0732422 12.2861 0.0732422C18.9131 0.0732422 24.2861 5.44524 24.2861 12.0732Z" fill="white"/>
</g>
<defs>
<clipPath id="clip0_442_12574">
<rect width="24" height="24" fill="white" transform="translate(0.286133)"/>
</clipPath>
</defs>
</svg>
