<svg width="25" height="24" viewBox="0 0 25 24" fill="none" xmlns="http://www.w3.org/2000/svg">
<g clip-path="url(#clip0_442_12583)">
<path d="M12.0361 2.162C15.2401 2.162 15.6201 2.174 16.8851 2.232C18.1931 2.292 19.5401 2.59 20.4931 3.543C21.4551 4.505 21.7441 5.839 21.8041 7.151C21.8621 8.416 21.8741 8.796 21.8741 12C21.8741 15.204 21.8621 15.584 21.8041 16.849C21.7451 18.15 21.4401 19.51 20.4931 20.457C19.5311 21.419 18.1981 21.708 16.8851 21.768C15.6201 21.826 15.2401 21.838 12.0361 21.838C8.83213 21.838 8.45213 21.826 7.18713 21.768C5.89613 21.709 4.51813 21.397 3.57913 20.457C2.62213 19.5 2.32813 18.153 2.26813 16.849C2.21013 15.584 2.19813 15.204 2.19813 12C2.19813 8.796 2.21013 8.416 2.26813 7.151C2.32713 5.855 2.63513 4.487 3.57913 3.543C4.53913 2.583 5.87813 2.292 7.18713 2.232C8.45213 2.174 8.83213 2.162 12.0361 2.162ZM12.0361 0C8.77713 0 8.36813 0.014 7.08813 0.072C5.23313 0.157 3.39113 0.673 2.05013 2.014C0.704133 3.36 0.193133 5.198 0.108133 7.052C0.0501328 8.332 0.0361328 8.741 0.0361328 12C0.0361328 15.259 0.0501328 15.668 0.108133 16.948C0.193133 18.801 0.711133 20.648 2.05013 21.986C3.39513 23.331 5.23613 23.843 7.08813 23.928C8.36813 23.986 8.77713 24 12.0361 24C15.2951 24 15.7041 23.986 16.9841 23.928C18.8381 23.843 20.6821 23.326 22.0221 21.986C23.3691 20.639 23.8791 18.802 23.9641 16.948C24.0221 15.668 24.0361 15.259 24.0361 12C24.0361 8.741 24.0221 8.332 23.9641 7.052C23.8791 5.197 23.3621 3.354 22.0221 2.014C20.6791 0.671 18.8331 0.156 16.9841 0.072C15.7041 0.014 15.2951 0 12.0361 0Z" fill="white"/>
<path d="M12.036 5.83789C8.63302 5.83789 5.87402 8.59689 5.87402 11.9999C5.87402 15.4029 8.63302 18.1619 12.036 18.1619C15.439 18.1619 18.198 15.4029 18.198 11.9999C18.198 8.59689 15.439 5.83789 12.036 5.83789ZM12.036 15.9999C9.82702 15.9999 8.03602 14.2089 8.03602 11.9999C8.03602 9.79089 9.82702 7.99989 12.036 7.99989C14.245 7.99989 16.036 9.79089 16.036 11.9999C16.036 14.2089 14.245 15.9999 12.036 15.9999Z" fill="white"/>
<path d="M18.442 7.0343C19.2372 7.0343 19.882 6.38959 19.882 5.5943C19.882 4.79901 19.2372 4.1543 18.442 4.1543C17.6467 4.1543 17.002 4.79901 17.002 5.5943C17.002 6.38959 17.6467 7.0343 18.442 7.0343Z" fill="white"/>
</g>
<defs>
<clipPath id="clip0_442_12583">
<rect width="24" height="24" fill="white" transform="translate(0.0361328)"/>
</clipPath>
</defs>
</svg>
