<svg width="25" height="24" viewBox="0 0 25 24" fill="none" xmlns="http://www.w3.org/2000/svg">
<g clip-path="url(#clip0_442_12607)">
<path fill-rule="evenodd" clip-rule="evenodd" d="M12.5361 0C5.90913 0 0.536133 5.373 0.536133 12C0.536133 18.627 5.90913 24 12.5361 24C19.1631 24 24.5361 18.627 24.5361 12C24.5361 5.373 19.1631 0 12.5361 0ZM18.0981 8.161C17.9181 10.058 17.1361 14.663 16.7391 16.788C16.5711 17.688 16.2391 17.989 15.9191 18.018C15.2221 18.082 14.6931 17.557 14.0181 17.115C12.9621 16.423 12.3651 15.992 11.3401 15.316C10.1551 14.535 10.9231 14.106 11.5981 13.405C11.7751 13.221 14.8451 10.428 14.9051 10.175C14.9121 10.143 14.9201 10.025 14.8491 9.963C14.7781 9.901 14.6751 9.922 14.6011 9.939C14.4951 9.963 12.8081 11.078 9.53913 13.284C9.06013 13.613 8.62613 13.773 8.23713 13.765C7.80913 13.756 6.98513 13.523 6.37213 13.323C5.62113 13.079 5.02313 12.949 5.07513 12.535C5.10213 12.319 5.39913 12.098 5.96713 11.872C9.46513 10.348 11.7981 9.343 12.9651 8.857C16.2981 7.471 16.9901 7.23 17.4421 7.222C18.0081 7.214 18.1441 7.681 18.0981 8.161Z" fill="white"/>
</g>
<defs>
<clipPath id="clip0_442_12607">
<rect width="24" height="24" fill="white" transform="translate(0.536133)"/>
</clipPath>
</defs>
</svg>
