<svg width="25" height="24" viewBox="0 0 25 24" fill="none" xmlns="http://www.w3.org/2000/svg">
<g clip-path="url(#clip0_442_12603)">
<path d="M7.64746 6.15918L16.5235 17.7642H17.8835L9.10846 6.15918H7.64746Z" fill="white"/>
<path d="M12.7861 0C6.15913 0 0.786133 5.373 0.786133 12C0.786133 18.627 6.15913 24 12.7861 24C19.4131 24 24.7861 18.627 24.7861 12C24.7861 5.373 19.4131 0 12.7861 0ZM15.8491 19.232L11.9791 14.177L7.55713 19.232H5.09913L10.8321 12.678L4.78613 4.768H9.84813L13.3421 9.389L17.3851 4.768H19.8401L14.4791 10.894L20.7861 19.231L15.8491 19.232Z" fill="white"/>
</g>
<defs>
<clipPath id="clip0_442_12603">
<rect width="24" height="24" fill="white" transform="translate(0.786133)"/>
</clipPath>
</defs>
</svg>
