<svg width="25" height="24" viewBox="0 0 25 24" fill="none" xmlns="http://www.w3.org/2000/svg">
<g clip-path="url(#clip0_442_12616)">
<path fill-rule="evenodd" clip-rule="evenodd" d="M20.7488 3.488C18.5028 1.24 15.5168 0.001 12.3358 0C5.78077 0 0.445773 5.334 0.442773 11.892C0.441773 13.988 0.989773 16.034 2.03077 17.838L0.342773 24L6.64677 22.346C8.38377 23.294 10.3398 23.793 12.3298 23.794H12.3348C18.8888 23.794 24.2248 18.459 24.2278 11.901C24.2298 8.724 22.9938 5.735 20.7488 3.488ZM12.3358 21.785H12.3318C10.5578 21.785 8.81877 21.308 7.30077 20.407L6.93977 20.193L3.19877 21.174L4.19777 17.526L3.96277 17.152C2.97277 15.578 2.45077 13.759 2.45177 11.892C2.45377 6.442 6.88877 2.008 12.3408 2.008C14.9808 2.008 17.4628 3.038 19.3288 4.906C21.1948 6.775 22.2218 9.258 22.2208 11.899C22.2178 17.351 17.7838 21.785 12.3358 21.785ZM17.7578 14.382C17.4608 14.233 15.9998 13.514 15.7268 13.415C15.4548 13.316 15.2568 13.266 15.0578 13.563C14.8588 13.86 14.2908 14.53 14.1168 14.729C13.9438 14.927 13.7698 14.952 13.4728 14.803C13.1758 14.654 12.2178 14.341 11.0828 13.328C10.1998 12.54 9.60277 11.567 9.42977 11.269C9.25677 10.971 9.41177 10.811 9.55977 10.663C9.69377 10.53 9.85677 10.316 10.0058 10.142C10.1558 9.97 10.2048 9.846 10.3048 9.647C10.4038 9.449 10.3548 9.275 10.2798 9.126C10.2048 8.978 9.61077 7.515 9.36377 6.92C9.12277 6.34 8.87777 6.419 8.69477 6.41C8.52177 6.401 8.32377 6.4 8.12477 6.4C7.92677 6.4 7.60477 6.474 7.33277 6.772C7.06077 7.07 6.29277 7.789 6.29277 9.251C6.29277 10.714 7.35777 12.127 7.50577 12.325C7.65377 12.523 9.60077 15.525 12.5818 16.812C13.2908 17.118 13.8448 17.301 14.2758 17.438C14.9878 17.664 15.6358 17.632 16.1478 17.556C16.7188 17.471 17.9058 16.837 18.1538 16.143C18.4018 15.449 18.4018 14.853 18.3268 14.73C18.2528 14.605 18.0548 14.531 17.7578 14.382Z" fill="white"/>
</g>
<defs>
<clipPath id="clip0_442_12616">
<rect width="24" height="24" fill="white" transform="translate(0.286133)"/>
</clipPath>
</defs>
</svg>
