<svg width="32" height="32" viewBox="0 0 32 32" fill="none" xmlns="http://www.w3.org/2000/svg">
<g clip-path="url(#clip0_166_5098)">
<path d="M16.0035 7.13037C14.624 7.67999 13.2862 8.32892 12.0006 9.07207C10.7121 9.81372 9.48012 10.6497 8.31494 11.5732C7.89665 14.5096 7.89665 17.4905 8.31494 20.4269C9.48011 21.3505 10.712 22.1865 12.0006 22.9281C13.2852 23.6716 14.6221 24.3209 16.0007 24.8709C17.3792 24.3208 18.716 23.6715 20.0007 22.9281C21.2893 22.1864 22.5212 21.3504 23.6864 20.4269C23.8965 18.9607 24.0015 17.4813 24.0006 16.0001C24.0017 14.5189 23.8968 13.0395 23.6869 11.5733C22.5216 10.6497 21.2894 9.8137 20.0006 9.07212C18.7169 8.32913 17.381 7.68018 16.0035 7.13037ZM16.2206 19.9561C16.0807 20.0144 15.9234 20.0148 15.7832 19.9572C15.6431 19.8995 15.5315 19.7886 15.4732 19.6487L14.6675 17.7144H11.6195L10.8138 19.6487C10.7752 19.7413 10.7129 19.8221 10.6331 19.883C10.5534 19.9439 10.459 19.9827 10.3595 19.9955C10.26 20.0084 10.1589 19.9948 10.0663 19.9562C9.97372 19.9175 9.89293 19.8552 9.83208 19.7754C9.77121 19.6957 9.7324 19.6013 9.71955 19.5018C9.70671 19.4023 9.72028 19.3012 9.7589 19.2086L12.6161 12.3515C12.6595 12.2474 12.7327 12.1585 12.8266 12.0959C12.9204 12.0334 13.0307 12 13.1435 12C13.2563 12 13.3666 12.0334 13.4604 12.0959C13.5543 12.1585 13.6275 12.2474 13.6709 12.3515L16.5281 19.2086C16.5864 19.3485 16.5868 19.5059 16.5291 19.646C16.4715 19.7862 16.3605 19.8977 16.2206 19.9561ZM21.7149 12.5715C21.7149 12.8871 21.4591 13.143 21.1435 13.143H20.0006V18.8573H21.1435C21.459 18.8573 21.7149 19.1131 21.7149 19.4287C21.7149 19.7444 21.4591 20.0002 21.1435 20.0002H17.7149C17.3993 20.0002 17.1435 19.7444 17.1435 19.4287C17.1435 19.1131 17.3993 18.8573 17.7149 18.8573H18.8578V13.1429H17.7149C17.3993 13.1429 17.1435 12.8871 17.1435 12.5715C17.1435 12.2559 17.3993 12 17.7149 12H21.1435C21.4591 12.0001 21.7149 12.2559 21.7149 12.5715Z" fill="#746FE5"/>
<path fill-rule="evenodd" clip-rule="evenodd" d="M20.5747 8.08169C21.5491 8.64393 22.4929 9.25756 23.4022 9.91998C23.1027 8.42282 22.6517 6.96004 22.0559 5.55427C20.5362 5.73666 19.0389 6.07306 17.5873 6.55828C18.6081 7.01542 19.6052 7.52387 20.5747 8.08169ZM21.5382 4.46343C20.0999 1.7023 18.1496 0 16.0033 0C13.857 0 11.9073 1.7023 10.4691 4.46343C12.3637 4.73163 14.2215 5.21553 16.0062 5.9057C17.7893 5.21604 19.6453 4.73215 21.5382 4.46343ZM12.0988 16.5714H14.1936L13.1462 14.0571L12.0988 16.5714ZM28.7462 15.0034C29.711 13.6027 30.2848 11.97 30.4085 10.2737C30.3679 10.2737 30.3296 10.2857 30.2885 10.2857C29.0261 10.2857 28.0028 9.26234 28.0028 7.99997C28.005 7.48896 28.18 6.99372 28.4994 6.59482C27.256 5.77139 25.4383 5.38284 23.2605 5.46513C23.9692 7.23503 24.4713 9.08074 24.7571 10.9657C26.2358 12.1557 27.5742 13.5104 28.7462 15.0034ZM1.71764 10.2857C1.67652 10.2857 1.6382 10.2755 1.59766 10.2737C1.72136 11.97 2.29539 13.6025 3.26052 15.0029C4.43217 13.5102 5.76993 12.1558 7.24795 10.9657C7.53447 9.08077 8.03721 7.23508 8.74624 5.46518C6.56968 5.38405 4.75313 5.77376 3.50908 6.59488C3.82767 6.99407 4.00187 7.48929 4.00335 8.00003C4.00335 9.26234 2.98001 10.2857 1.71764 10.2857Z" fill="#746FE5"/>
<path d="M30.2881 9.14264C30.9193 9.14264 31.431 8.63097 31.431 7.99979C31.431 7.36861 30.9193 6.85693 30.2881 6.85693C29.6569 6.85693 29.1453 7.36861 29.1453 7.99979C29.1453 8.63097 29.6569 9.14264 30.2881 9.14264Z" fill="#746FE5"/>
<path fill-rule="evenodd" clip-rule="evenodd" d="M28.0635 16C27.1499 14.7836 26.1161 13.6623 24.9777 12.6531C25.09 13.7652 25.1459 14.8823 25.1452 16C25.1445 17.1178 25.0873 18.2348 24.9737 19.3468C26.1135 18.3378 27.1486 17.2166 28.0635 16ZM11.4309 8.08167C12.4017 7.52322 13.4003 7.01474 14.4229 6.55822C12.9698 6.07281 11.471 5.73641 9.94981 5.5542C9.35402 6.95997 8.90293 8.42275 8.60352 9.91991C9.51282 9.25761 10.4566 8.644 11.4309 8.08167ZM20.5738 23.9182C19.603 24.4767 18.6044 24.9852 17.5818 25.4417C19.0349 25.9271 20.5337 26.2635 22.0549 26.4457C22.6507 25.0399 23.1018 23.5772 23.4012 22.08C22.4919 22.7423 21.5481 23.3559 20.5738 23.9182ZM30.288 21.7143C30.3292 21.7143 30.3675 21.7239 30.408 21.7263C30.284 20.0299 29.71 18.3973 28.7452 16.9965C27.5737 18.4895 26.2359 19.8441 24.7577 21.0342C24.4712 22.9192 23.9685 24.7649 23.2594 26.5348C25.4354 26.6165 27.252 26.2262 28.4966 25.4051C28.178 25.0059 28.0038 24.5107 28.0023 24C28.0023 22.7376 29.0257 21.7143 30.288 21.7143ZM10.4675 27.5366C11.9058 30.2977 13.8561 32 16.0023 32C18.1486 32 20.0983 30.2977 21.5366 27.5366C19.6429 27.2682 17.7861 26.7843 16.0023 26.0943C14.2183 26.7842 12.3613 27.268 10.4675 27.5366Z" fill="#746FE5"/>
<path d="M30.2881 25.1426C30.9193 25.1426 31.431 24.631 31.431 23.9998C31.431 23.3686 30.9193 22.8569 30.2881 22.8569C29.6569 22.8569 29.1453 23.3686 29.1453 23.9998C29.1453 24.631 29.6569 25.1426 30.2881 25.1426Z" fill="#746FE5"/>
<path d="M1.71658 25.1426C2.34776 25.1426 2.85944 24.631 2.85944 23.9998C2.85944 23.3686 2.34776 22.8569 1.71658 22.8569C1.0854 22.8569 0.57373 23.3686 0.57373 23.9998C0.57373 24.631 1.0854 25.1426 1.71658 25.1426Z" fill="#746FE5"/>
<path fill-rule="evenodd" clip-rule="evenodd" d="M3.94222 16.0002C4.85547 17.2168 5.88929 18.3381 7.02793 19.347C6.80317 17.1214 6.80317 14.8789 7.02793 12.6533C5.88961 13.6625 4.85582 14.7838 3.94222 16.0002ZM3.26052 16.9973C2.29556 18.3978 1.72155 20.0302 1.59766 21.7264C1.63825 21.7264 1.67652 21.7144 1.71764 21.7144C2.98001 21.7144 4.00335 22.7378 4.00335 24.0001C4.00119 24.5112 3.82617 25.0064 3.50676 25.4053C4.75134 26.2265 6.56904 26.6179 8.74392 26.5356C8.03537 24.7654 7.53321 22.9195 7.24737 21.0344C5.7697 19.8442 4.43216 18.4898 3.26052 16.9973Z" fill="#746FE5"/>
<path d="M1.71658 9.14264C2.34776 9.14264 2.85944 8.63097 2.85944 7.99979C2.85944 7.36861 2.34776 6.85693 1.71658 6.85693C1.0854 6.85693 0.57373 7.36861 0.57373 7.99979C0.57373 8.63097 1.0854 9.14264 1.71658 9.14264Z" fill="#746FE5"/>
<path fill-rule="evenodd" clip-rule="evenodd" d="M11.4309 23.9184C10.4566 23.3561 9.51275 22.7425 8.60352 22.0801C8.90293 23.5772 9.35402 25.04 9.9498 26.4458C11.4695 26.2634 12.9667 25.927 14.4184 25.4418C13.3975 24.9847 12.4004 24.4762 11.4309 23.9184Z" fill="#746FE5"/>
</g>
<defs>
<clipPath id="clip0_166_5098">
<rect width="32" height="32" fill="white"/>
</clipPath>
</defs>
</svg>
