<svg width="32" height="32" viewBox="0 0 32 32" fill="none" xmlns="http://www.w3.org/2000/svg">
<path d="M16.5233 17.4068C14.9882 15.8232 12.9545 14.8166 10.7644 14.5566C10.5062 14.5307 10.2468 14.518 9.98698 14.5174C9.17814 14.4977 8.37347 14.6395 7.62012 14.9346C6.86677 15.2297 6.17988 15.6722 5.59967 16.2361C4.94939 16.9152 4.46063 17.7323 4.16976 18.6265C3.8789 19.5207 3.79341 20.469 3.91967 21.4008C4.18038 23.5908 5.1868 25.6245 6.76988 27.1602C8.30556 28.7433 10.3392 29.7497 12.5293 30.0104C14.4162 30.2664 16.318 29.6479 17.6935 28.3304C18.3437 27.6512 18.8325 26.8341 19.1233 25.9399C19.4142 25.0458 19.4997 24.0975 19.3735 23.1657C19.1131 20.9757 18.1066 18.9421 16.5233 17.4068ZM16.9133 27.5503C16.4337 28.0125 15.8667 28.3746 15.2456 28.6154C14.6245 28.8562 13.9616 28.9709 13.2957 28.9528C11.118 28.8786 9.05585 27.9549 7.55057 26.3795C4.64629 23.4752 4.1216 19.2755 6.37981 17.0168C8.63802 14.758 12.8383 15.2827 15.7431 18.187C18.6479 21.0912 19.1721 25.291 16.9133 27.5503Z" fill="#746FE5"/>
<path d="M12.4202 31.1086C9.97665 30.8226 7.70609 29.7039 5.99044 27.9406C4.2271 26.2249 3.10838 23.9544 2.82244 21.5108C2.73987 20.7045 2.77462 19.8905 2.92561 19.0942C1.10823 21.8788 1.83099 26.1215 4.82023 29.1108C7.80947 32.1 12.0417 32.8206 14.8269 31.0115C14.3275 31.1058 13.82 31.1538 13.3118 31.1533C13.0194 31.1533 12.7215 31.1384 12.4202 31.1086Z" fill="#746FE5"/>
<path d="M10.0044 16.7061C9.48157 16.6897 8.96075 16.7777 8.47239 16.9649C7.98403 17.1522 7.53793 17.4351 7.16022 17.7969C5.33236 19.6253 5.85705 23.1254 8.33043 25.5999C10.8038 28.0744 14.3039 28.5991 16.1329 26.7707C17.9619 24.9423 17.4361 21.4416 14.9627 18.9676C13.6663 17.5985 11.8881 16.7874 10.0044 16.7061ZM9.65456 23.724C9.56055 23.724 9.46812 23.6999 9.38602 23.6541C9.30393 23.6083 9.2349 23.5423 9.18549 23.4623C9.13608 23.3823 9.10792 23.2911 9.10369 23.1971C9.09946 23.1032 9.1193 23.0098 9.16132 22.9257L11.3682 18.5119C11.4336 18.3809 11.5484 18.2813 11.6872 18.235C11.8261 18.1886 11.9777 18.1993 12.1086 18.2647C12.2396 18.3301 12.3392 18.4449 12.3856 18.5838C12.4319 18.7226 12.4212 18.8742 12.3558 19.0051L10.1489 23.4189C10.103 23.5107 10.0325 23.5879 9.94514 23.6418C9.85781 23.6957 9.75718 23.7242 9.65456 23.724ZM13.4615 22.8672L12.358 25.0741C12.3256 25.139 12.2808 25.1968 12.226 25.2443C12.1713 25.2918 12.1077 25.3281 12.039 25.351C11.9702 25.374 11.8976 25.3832 11.8253 25.3781C11.753 25.373 11.6824 25.3537 11.6176 25.3213C11.5528 25.2889 11.4949 25.2441 11.4474 25.1893C11.3999 25.1346 11.3636 25.071 11.3407 25.0023C11.3177 24.9335 11.3085 24.8609 11.3136 24.7886C11.3187 24.7163 11.338 24.6457 11.3704 24.5809L12.4739 22.374C12.5393 22.243 12.654 22.1434 12.7929 22.097C12.9317 22.0507 13.0833 22.0614 13.2143 22.1268C13.3452 22.1922 13.4449 22.307 13.4912 22.4458C13.5376 22.5847 13.5269 22.7363 13.4615 22.8672ZM4.71387 9.44046C6.65318 11.3792 9.22146 12.0843 10.3238 10.9853C11.4261 9.88625 10.7188 7.31412 8.77898 5.37591C7.88915 4.44513 6.76451 3.77187 5.5238 3.42722C5.22747 3.35279 4.9234 3.31353 4.61787 3.31025C4.35407 3.29665 4.09019 3.3358 3.8417 3.42542C3.59321 3.51504 3.36509 3.65333 3.1707 3.83219C2.66477 4.33812 2.52022 5.17453 2.76574 6.1875C3.11062 7.42734 3.78365 8.55116 4.71387 9.44046ZM29.5084 5.87081C29.5205 6.40874 29.4615 6.94556 29.3329 7.46805C28.8336 9.28993 27.8513 10.943 26.4899 12.2526C24.5197 14.2228 22.193 15.2898 20.2554 15.2898C20.2101 15.2898 20.1666 15.286 20.1224 15.2849C21.6921 16.5103 24.918 15.5773 27.366 13.1298C29.8223 10.673 30.7519 7.43329 29.5084 5.87081Z" fill="#746FE5"/>
<path d="M25.7104 11.4726C26.9287 10.3066 27.8098 8.83361 28.2611 7.20883C28.5893 5.85048 28.3891 4.7211 27.6983 4.02869C27.4341 3.78556 27.1241 3.59749 26.7864 3.47548C26.4487 3.35347 26.09 3.29996 25.7314 3.31807C24.0851 3.31807 21.9753 4.29297 20.2528 6.01545C19.0346 7.1815 18.1533 8.65443 17.7016 10.2792C17.3706 11.6392 17.5736 12.7691 18.266 13.4615C19.7441 14.9385 23.1532 14.0292 25.7104 11.4726ZM23.6558 10.6554L21.3154 11.4356C21.2466 11.4585 21.1739 11.4677 21.1015 11.4625C21.0292 11.4574 20.9585 11.438 20.8936 11.4055C20.8288 11.3731 20.7709 11.3282 20.7234 11.2734C20.6759 11.2185 20.6396 11.1549 20.6167 11.0861C20.5937 11.0172 20.5846 10.9446 20.5897 10.8722C20.5949 10.7998 20.6142 10.7292 20.6467 10.6643C20.6792 10.5994 20.7241 10.5416 20.7789 10.494C20.8337 10.4465 20.8973 10.4102 20.9662 10.3873L23.3066 9.60662C23.4456 9.56031 23.5973 9.57111 23.7284 9.63666C23.8594 9.70221 23.959 9.81713 24.0053 9.95614C24.0517 10.0951 24.0409 10.2469 23.9753 10.3779C23.9098 10.5089 23.7948 10.6091 23.6558 10.6554ZM20.5761 7.65793L25.2575 6.0971C25.3965 6.05079 25.5482 6.0616 25.6793 6.12714C25.8103 6.19269 25.9099 6.30761 25.9562 6.44662C26.0026 6.58563 25.9917 6.73734 25.9262 6.86839C25.8607 6.99943 25.7457 7.09907 25.6067 7.14538L20.9253 8.70566C20.8563 8.7297 20.7833 8.7398 20.7103 8.73537C20.6374 8.73093 20.5661 8.71206 20.5005 8.67984C20.4349 8.64761 20.3764 8.60268 20.3283 8.54766C20.2802 8.49263 20.2436 8.42861 20.2204 8.35929C20.1973 8.28998 20.1882 8.21677 20.1936 8.1439C20.199 8.07103 20.2188 7.99996 20.2519 7.93481C20.285 7.86966 20.3307 7.81174 20.3863 7.7644C20.442 7.71706 20.5065 7.68124 20.5761 7.65903V7.65793ZM14.2373 2.75862C14.3837 2.75862 14.524 2.70049 14.6275 2.59702C14.7309 2.49356 14.7891 2.35322 14.7891 2.2069V0.551724C14.7891 0.405398 14.7309 0.265065 14.6275 0.161596C14.524 0.0581279 14.3837 0 14.2373 0C14.091 0 13.9507 0.0581279 13.8472 0.161596C13.7438 0.265065 13.6856 0.405398 13.6856 0.551724V2.2069C13.6856 2.35322 13.7438 2.49356 13.8472 2.59702C13.9507 2.70049 14.091 2.75862 14.2373 2.75862ZM14.2373 3.86207C14.091 3.86207 13.9507 3.9202 13.8472 4.02367C13.7438 4.12713 13.6856 4.26747 13.6856 4.41379V6.06897C13.6856 6.21529 13.7438 6.35563 13.8472 6.45909C13.9507 6.56256 14.091 6.62069 14.2373 6.62069C14.3837 6.62069 14.524 6.56256 14.6275 6.45909C14.7309 6.35563 14.7891 6.21529 14.7891 6.06897V4.41379C14.7891 4.26747 14.7309 4.12713 14.6275 4.02367C14.524 3.9202 14.3837 3.86207 14.2373 3.86207ZM15.3408 3.86207H16.996C17.1423 3.86207 17.2826 3.80394 17.3861 3.70047C17.4896 3.597 17.5477 3.45667 17.5477 3.31034C17.5477 3.16402 17.4896 3.02369 17.3861 2.92022C17.2826 2.81675 17.1423 2.75862 16.996 2.75862H15.3408C15.1945 2.75862 15.0541 2.81675 14.9507 2.92022C14.8472 3.02369 14.7891 3.16402 14.7891 3.31034C14.7891 3.45667 14.8472 3.597 14.9507 3.70047C15.0541 3.80394 15.1945 3.86207 15.3408 3.86207ZM11.4787 3.86207H13.1339C13.2802 3.86207 13.4206 3.80394 13.524 3.70047C13.6275 3.597 13.6856 3.45667 13.6856 3.31034C13.6856 3.16402 13.6275 3.02369 13.524 2.92022C13.4206 2.81675 13.2802 2.75862 13.1339 2.75862H11.4787C11.3324 2.75862 11.1921 2.81675 11.0886 2.92022C10.9851 3.02369 10.927 3.16402 10.927 3.31034C10.927 3.45667 10.9851 3.597 11.0886 3.70047C11.1921 3.80394 11.3324 3.86207 11.4787 3.86207ZM26.3687 20.0237L25.2652 21.1272C25.2125 21.1781 25.1705 21.2389 25.1416 21.3063C25.1127 21.3736 25.0974 21.446 25.0968 21.5192C25.0962 21.5925 25.1101 21.6651 25.1379 21.7329C25.1656 21.8007 25.2066 21.8623 25.2584 21.9141C25.3102 21.966 25.3718 22.0069 25.4396 22.0347C25.5074 22.0624 25.58 22.0764 25.6533 22.0757C25.7266 22.0751 25.7989 22.0599 25.8663 22.031C25.9336 22.002 25.9945 21.96 26.0453 21.9073L27.1488 20.8039C27.2493 20.6998 27.3049 20.5604 27.3036 20.4158C27.3024 20.2711 27.2444 20.1327 27.1421 20.0304C27.0398 19.9282 26.9014 19.8701 26.7567 19.8689C26.6121 19.8676 26.4727 19.9232 26.3687 20.0237ZM23.61 22.7823L22.5066 23.8858C22.4539 23.9367 22.4119 23.9976 22.3829 24.0649C22.354 24.1322 22.3388 24.2046 22.3382 24.2778C22.3375 24.3511 22.3515 24.4238 22.3792 24.4916C22.407 24.5594 22.4479 24.621 22.4997 24.6728C22.5516 24.7246 22.6132 24.7655 22.681 24.7933C22.7488 24.821 22.8214 24.835 22.8947 24.8343C22.9679 24.8337 23.0403 24.8185 23.1076 24.7896C23.175 24.7607 23.2358 24.7186 23.2867 24.6659L24.3902 23.5625C24.4907 23.4584 24.5463 23.3191 24.545 23.1744C24.5438 23.0297 24.4857 22.8914 24.3835 22.7891C24.2812 22.6868 24.1428 22.6287 23.9981 22.6275C23.8535 22.6262 23.7141 22.6818 23.61 22.7823ZM26.0453 22.7823C25.9413 22.6818 25.8019 22.6262 25.6573 22.6275C25.5126 22.6287 25.3742 22.6868 25.2719 22.7891C25.1696 22.8914 25.1116 23.0297 25.1104 23.1744C25.1091 23.3191 25.1647 23.4584 25.2652 23.5625L26.3687 24.6659C26.4727 24.7664 26.6121 24.822 26.7567 24.8208C26.9014 24.8195 27.0398 24.7615 27.1421 24.6592C27.2444 24.5569 27.3024 24.4185 27.3036 24.2739C27.3049 24.1292 27.2493 23.9898 27.1488 23.8858L26.0453 22.7823ZM23.2867 20.0237C23.1827 19.9232 23.0433 19.8676 22.8986 19.8689C22.754 19.8701 22.6156 19.9282 22.5133 20.0304C22.411 20.1327 22.353 20.2711 22.3517 20.4158C22.3505 20.5604 22.4061 20.6998 22.5066 20.8039L23.61 21.9073C23.7141 22.0078 23.8535 22.0634 23.9981 22.0622C24.1428 22.0609 24.2812 22.0029 24.3835 21.9006C24.4857 21.7983 24.5438 21.6599 24.545 21.5153C24.5463 21.3706 24.4907 21.2312 24.3902 21.1272L23.2867 20.0237Z" fill="#746FE5"/>
</svg>
