<svg width="32" height="32" viewBox="0 0 32 32" fill="none" xmlns="http://www.w3.org/2000/svg">
<g clip-path="url(#clip0_69_4607)">
<path d="M24 19.9998C27.6819 19.9998 30.6667 17.0151 30.6667 13.3332C30.6667 9.65127 27.6819 6.6665 24 6.6665C20.3181 6.6665 17.3334 9.65127 17.3334 13.3332C17.3334 17.0151 20.3181 19.9998 24 19.9998Z" fill="#746FE5"/>
<path d="M23.6653 4.684C22.8147 1.98 20.3147 0 17.3333 0C13.6573 0 10.6667 2.99067 10.6667 6.66667C10.6667 9.648 12.6467 12.148 15.3507 12.9987C15.4368 10.821 16.3405 8.75587 17.8815 7.21485C19.4225 5.67383 21.4877 4.77017 23.6653 4.684ZM0.656 16.0027C0.481044 16.0055 0.314203 16.0769 0.191476 16.2017C0.0687494 16.3264 -2.23932e-05 16.4944 5.46963e-09 16.6693V28.6667C5.46963e-09 28.8435 0.0702379 29.013 0.195262 29.1381C0.320286 29.2631 0.489856 29.3333 0.666667 29.3333H3.496C3.64099 29.3334 3.78204 29.2861 3.89777 29.1988C4.0135 29.1115 4.09761 28.9888 4.13733 28.8493L7.088 18.452C7.18009 18.1278 7.14602 17.7809 6.99266 17.4808C6.83929 17.1807 6.578 16.9499 6.26133 16.8347C5.05333 16.3947 3.2 15.96 0.656 16.0027ZM29.3333 23.3333C26.6667 23.3333 21.3333 26.708 18.6667 26.708C16 26.708 13 24.6667 13 24.6667C13 24.6667 16.592 25.3333 18.6667 25.3333C20.7413 25.3333 21.3333 24.6253 21.3333 23.6667C21.3333 21.3333 17.3707 20.9707 15.3653 20.6653C13.3973 19.5693 12.3747 18.7027 9.11467 18.4267C9.09864 18.6187 9.06471 18.8089 9.01333 18.9947L6.33467 28.4347C9.368 29.8147 14.592 32 17.3333 32C21.3333 32 32 26.6667 32 25.3333C32 24 30.6667 23.3333 29.3333 23.3333Z" fill="#746FE5"/>
</g>
<defs>
<clipPath id="clip0_69_4607">
<rect width="32" height="32" fill="white"/>
</clipPath>
</defs>
</svg>
