<svg width="32" height="32" viewBox="0 0 32 32" fill="none" xmlns="http://www.w3.org/2000/svg">
<path d="M24.2092 12.8643C23.2794 12.8643 22.5229 13.6208 22.5229 14.5505C22.5229 15.4803 23.2794 16.2368 24.2092 16.2368C25.139 16.2368 25.8954 15.4803 25.8954 14.5505C25.8955 13.6208 25.1391 12.8643 24.2092 12.8643Z" fill="#746FE5"/>
<path d="M31.9064 19.5971L30.1045 9.81002C29.6779 7.49315 27.6625 5.81152 25.3124 5.81152H22.0028C21.7775 5.81152 21.5598 5.89264 21.3895 6.04002L19.4855 7.68709H12.5144L10.6104 6.04002C10.4401 5.89265 10.2224 5.81154 9.99711 5.81152H6.68755C4.33736 5.81152 2.32186 7.49309 1.89542 9.81002L0.093487 19.5971C-0.456638 22.5848 1.47605 25.4616 4.44605 26.0723C6.52886 26.5005 8.63624 25.7234 9.94574 24.0443L12.0041 21.405H19.9959L22.0543 24.0443C23.3559 25.7132 25.4583 26.5031 27.554 26.0723C30.5169 25.463 32.4577 22.5911 31.9064 19.5971ZM10.4244 15.488H9.06611V16.8463C9.06611 17.364 8.64636 17.7838 8.12861 17.7838C7.61086 17.7838 7.19111 17.364 7.19111 16.8463V15.488H5.83286C5.31511 15.488 4.89536 15.0682 4.89536 14.5505C4.89536 14.0327 5.31511 13.613 5.83286 13.613H7.19117V12.2546C7.19117 11.7368 7.61092 11.3171 8.12867 11.3171C8.64642 11.3171 9.06617 11.7368 9.06617 12.2546V13.613H10.4244C10.9422 13.613 11.3619 14.0327 11.3619 14.5505C11.3619 15.0682 10.9422 15.488 10.4244 15.488ZM24.2092 18.1117C22.2455 18.1117 20.6479 16.5141 20.6479 14.5505C20.6479 12.5868 22.2455 10.9892 24.2092 10.9892C26.1728 10.9892 27.7704 12.5868 27.7704 14.5505C27.7704 16.5142 26.1729 18.1117 24.2092 18.1117Z" fill="#746FE5"/>
</svg>
