<svg width="32" height="32" viewBox="0 0 32 32" fill="none" xmlns="http://www.w3.org/2000/svg">
<g clip-path="url(#clip0_69_4579)">
<path d="M1.14075 26.7747L0.971419 26.7733C0.716633 26.7518 0.479741 26.6336 0.309311 26.443C0.138881 26.2524 0.047827 26.0038 0.0548181 25.7482C0.0618091 25.4926 0.166315 25.2493 0.34691 25.0683C0.527504 24.8873 0.770504 24.7822 1.02609 24.7747C1.08209 24.7747 6.63542 24.896 12.7168 22.6253C20.7608 19.6227 25.9008 14.06 27.9914 6.09332C28.0688 5.8482 28.2376 5.64224 28.4626 5.51809C28.6877 5.39394 28.9519 5.3611 29.2006 5.42639C29.4492 5.49167 29.6632 5.65007 29.7983 5.86879C29.9333 6.08751 29.9791 6.34979 29.9261 6.60132C24.7661 26.2653 3.27809 26.7747 1.14075 26.7747Z" fill="#746FE5"/>
<path d="M30.9994 10.7973C30.9121 10.7974 30.8251 10.7862 30.7407 10.764L25.2767 9.3C25.0857 9.24867 24.9143 9.14187 24.784 8.99309C24.6537 8.84432 24.5704 8.66026 24.5448 8.46417C24.5191 8.26809 24.5521 8.06879 24.6397 7.89148C24.7272 7.71417 24.8654 7.5668 25.0367 7.468L28.5007 5.468C28.7303 5.33556 29.003 5.29964 29.259 5.36814C29.515 5.43664 29.7333 5.60396 29.8661 5.83334L31.8661 9.29734C31.9534 9.44947 31.9993 9.62188 31.9991 9.79732C31.9988 9.97275 31.9525 10.145 31.8647 10.2969C31.777 10.4489 31.6508 10.575 31.499 10.6628C31.3471 10.7507 31.1748 10.797 30.9994 10.7973ZM28.9994 32C28.6458 32 28.3066 31.8595 28.0566 31.6095C27.8065 31.3594 27.6661 31.0203 27.6661 30.6667V14.6667C27.6661 14.313 27.8065 13.9739 28.0566 13.7239C28.3066 13.4738 28.6458 13.3333 28.9994 13.3333C29.353 13.3333 29.6922 13.4738 29.9422 13.7239C30.1922 13.9739 30.3327 14.313 30.3327 14.6667V30.6667C30.3327 31.0203 30.1922 31.3594 29.9422 31.6095C29.6922 31.8595 29.353 32 28.9994 32ZM20.9994 32C20.6458 32 20.3066 31.8595 20.0566 31.6095C19.8065 31.3594 19.6661 31.0203 19.6661 30.6667V24C19.6661 23.6464 19.8065 23.3072 20.0566 23.0572C20.3066 22.8071 20.6458 22.6667 20.9994 22.6667C21.353 22.6667 21.6922 22.8071 21.9422 23.0572C22.1922 23.3072 22.3327 23.6464 22.3327 24V30.6667C22.3327 31.0203 22.1922 31.3594 21.9422 31.6095C21.6922 31.8595 21.353 32 20.9994 32ZM12.9994 32C12.6458 32 12.3066 31.8595 12.0566 31.6095C11.8065 31.3594 11.6661 31.0203 11.6661 30.6667V28C11.6661 27.6464 11.8065 27.3072 12.0566 27.0572C12.3066 26.8071 12.6458 26.6667 12.9994 26.6667C13.353 26.6667 13.6922 26.8071 13.9422 27.0572C14.1922 27.3072 14.3327 27.6464 14.3327 28V30.6667C14.3327 31.0203 14.1922 31.3594 13.9422 31.6095C13.6922 31.8595 13.353 32 12.9994 32ZM4.99939 32C4.64577 32 4.30663 31.8595 4.05658 31.6095C3.80653 31.3594 3.66606 31.0203 3.66606 30.6667V30C3.66606 29.6464 3.80653 29.3072 4.05658 29.0572C4.30663 28.8071 4.64577 28.6667 4.99939 28.6667C5.35301 28.6667 5.69215 28.8071 5.9422 29.0572C6.19225 29.3072 6.33272 29.6464 6.33272 30V30.6667C6.33272 31.0203 6.19225 31.3594 5.9422 31.6095C5.69215 31.8595 5.35301 32 4.99939 32ZM19.8047 0.196003C19.6753 0.0698488 19.5015 -0.000519433 19.3207 2.88709e-06C15.5514 0.0706696 11.1541 2.27067 8.36206 5.46667C5.34072 5.57467 2.82072 6.48534 1.24872 8.05734C1.16484 8.14114 1.10482 8.2458 1.07486 8.36052C1.0449 8.47525 1.04607 8.59589 1.07827 8.71001C1.11047 8.82413 1.17252 8.92759 1.25803 9.00974C1.34354 9.09188 1.44941 9.14974 1.56472 9.17734L4.40339 9.85734L4.38606 9.876C4.27183 10.0029 4.21064 10.1688 4.21511 10.3395C4.21958 10.5101 4.28935 10.6726 4.41006 10.7933L9.20606 15.5893C9.26786 15.6515 9.34143 15.7007 9.42247 15.7342C9.50351 15.7676 9.5904 15.7845 9.67806 15.784C9.83806 15.784 9.99672 15.728 10.1234 15.6133L10.1421 15.596L10.8221 18.4347C10.8493 18.5504 10.9071 18.6566 10.9892 18.7425C11.0714 18.8284 11.175 18.8908 11.2894 18.9231C11.4038 18.9555 11.5247 18.9567 11.6397 18.9266C11.7547 18.8965 11.8595 18.8362 11.9434 18.752C13.5167 17.1787 14.4261 14.6587 14.5341 11.6373C17.7341 8.836 19.9301 4.444 20.0007 0.67867C20.0017 0.589242 19.9848 0.500517 19.9512 0.417656C19.9175 0.334794 19.8678 0.259449 19.8047 0.196003Z" fill="#746FE5"/>
<path d="M2.28737 13.7959C1.3927 14.6906 0.247367 18.4066 0.0273665 19.1426C-0.00614675 19.2578 -0.00806862 19.3799 0.0218021 19.4962C0.0516728 19.6124 0.112238 19.7184 0.197156 19.8032C0.282074 19.888 0.388223 19.9484 0.50449 19.9781C0.620757 20.0078 0.742866 20.0056 0.858033 19.9719C1.59403 19.7519 5.3087 18.6079 6.2047 17.7119C6.72335 17.192 7.01462 16.4876 7.01462 15.7533C7.01462 15.0189 6.72335 14.3145 6.2047 13.7946C5.68462 13.2761 4.98013 12.9851 4.24576 12.9854C3.51139 12.9856 2.8071 13.2771 2.28737 13.7959Z" fill="#746FE5"/>
</g>
<defs>
<clipPath id="clip0_69_4579">
<rect width="32" height="32" fill="white"/>
</clipPath>
</defs>
</svg>
