<svg width="32" height="32" viewBox="0 0 32 32" fill="none" xmlns="http://www.w3.org/2000/svg">
<path d="M4.75 11.3125C5.59717 11.3132 6.42864 11.084 7.15579 10.6493C7.88294 10.2146 8.47851 9.59077 8.879 8.84425C9.29925 8.06513 10.2249 7.5625 11.2374 7.5625H13.2626C14.2751 7.5625 15.2008 8.06513 15.6201 8.84331C16.4394 10.3668 18.0215 11.3125 19.75 11.3125C22.3346 11.3125 24.4375 9.20956 24.4375 6.625C24.4375 4.04044 22.3346 1.9375 19.75 1.9375C18.9028 1.93681 18.0714 2.16602 17.3442 2.6007C16.6171 3.03538 16.0215 3.65923 15.621 4.40575C15.2008 5.18488 14.2751 5.6875 13.2626 5.6875H11.2374C10.2249 5.6875 9.29925 5.18488 8.87994 4.40669C8.06056 2.88325 6.4785 1.9375 4.75 1.9375C2.16544 1.9375 0 4.04044 0 6.625C0 9.20956 2.16544 11.3125 4.75 11.3125ZM18.8125 5.6875H20.6875V7.5625H18.8125V5.6875ZM4.75 30.0625C5.59717 30.0632 6.42864 29.834 7.15579 29.3993C7.88294 28.9646 8.47851 28.3408 8.879 27.5943C9.29925 26.8151 10.2249 26.3125 11.2374 26.3125H13.2626C14.2751 26.3125 15.2008 26.8151 15.6201 27.5933C16.4394 29.1168 18.0215 30.0625 19.75 30.0625C22.3346 30.0625 24.4375 27.9596 24.4375 25.375C24.4375 22.7904 22.3346 20.6875 19.75 20.6875C18.9028 20.6868 18.0714 20.916 17.3442 21.3507C16.6171 21.7854 16.0215 22.4092 15.621 23.1558C15.2008 23.9349 14.2751 24.4375 13.2626 24.4375H11.2374C10.2249 24.4375 9.29925 23.9349 8.87994 23.1567C8.06056 21.6333 6.4785 20.6875 4.75 20.6875C2.16544 20.6875 0 22.7904 0 25.375C0 27.9596 2.16544 30.0625 4.75 30.0625ZM18.8125 24.4375H20.6875V26.3125H18.8125V24.4375Z" fill="#746FE5"/>
<path d="M23.121 13.7808C22.7008 14.5599 21.7751 15.0625 20.7626 15.0625H18.7374C17.7249 15.0625 16.7993 14.5599 16.3799 13.7817C15.5606 12.2583 13.9785 11.3125 12.25 11.3125C9.66544 11.3125 7.5625 13.4154 7.5625 16C7.5625 18.5846 9.66544 20.6875 12.25 20.6875C13.0972 20.6882 13.9286 20.459 14.6558 20.0243C15.3829 19.5896 15.9785 18.9658 16.379 18.2193C16.7992 17.4401 17.7249 16.9375 18.7374 16.9375H20.7626C21.7751 16.9375 22.7007 17.4401 23.1201 18.2183C23.9394 19.7418 25.5215 20.6875 27.25 20.6875C29.8346 20.6875 32 18.5846 32 16C32 13.4154 29.8346 11.3125 27.25 11.3125C26.4028 11.3118 25.5714 11.541 24.8442 11.9757C24.1171 12.4104 23.5215 13.0342 23.121 13.7808ZM13.1875 16.9375H11.3125V15.0625H13.1875V16.9375Z" fill="#746FE5"/>
</svg>
