<svg width="32" height="32" viewBox="0 0 32 32" fill="none" xmlns="http://www.w3.org/2000/svg">
<path d="M22.6971 22.5769V27.213H25.3655V20.4864C24.5693 21.2947 23.6725 21.9972 22.6971 22.5769ZM6.6344 20.4864V27.2131H9.30271V22.5769C8.32741 21.9973 7.43063 21.2947 6.6344 20.4864ZM16 24.4138C14.3058 24.4138 12.6855 24.0917 11.1969 23.5057V32.0002L16 30.4992L20.803 32.0002V23.5058C19.3143 24.0917 17.6941 24.4138 16 24.4138ZM19.4847 10.1261L17.2948 9.47618L16 7.59424L14.7051 9.47618L12.5152 10.1261L13.9048 11.9391L13.8462 14.2227L16 13.4614L18.1537 14.2227L18.0951 11.9391L19.4847 10.1261Z" fill="#746FE5"/>
<path d="M16 0C9.7913 0 4.74023 5.05113 4.74023 11.2597C4.74023 17.4683 9.7913 22.5194 16 22.5194C22.2086 22.5194 27.2597 17.4683 27.2597 11.2598C27.2597 5.05119 22.2086 0 16 0ZM20.1178 16.9258L15.9999 15.47L11.882 16.9258L11.9941 12.5596L9.33705 9.09319L13.5243 7.8505L16 4.25238L18.4757 7.8505L22.6628 9.09319L20.0058 12.5596L20.1178 16.9258Z" fill="#746FE5"/>
</svg>
