<svg width="32" height="32" viewBox="0 0 32 32" fill="none" xmlns="http://www.w3.org/2000/svg">
<g clip-path="url(#clip0_69_3326)">
<path d="M19.4256 19.45C17.9469 19.2175 16.9075 17.8493 17.0725 16.3993C17.0948 16.2028 17.1395 16.0095 17.2056 15.8231C17.3763 15.3306 17.2006 14.7606 16.7781 14.4056C15.8843 13.6342 14.8711 13.0132 13.7781 12.5668C13.5393 12.4659 13.2736 12.4475 13.0232 12.5146C12.7728 12.5818 12.5519 12.7306 12.3956 12.9375C12.1883 13.2117 11.9281 13.4415 11.6304 13.6135C11.3327 13.7854 11.0036 13.896 10.6624 13.9386C10.3213 13.9812 9.97507 13.9549 9.64424 13.8615C9.31341 13.768 9.00467 13.6091 8.73626 13.3943C8.57053 13.2612 8.42228 13.1077 8.29501 12.9375C8.13883 12.731 7.9183 12.5825 7.66827 12.5153C7.41824 12.4482 7.15297 12.4663 6.91439 12.5668C5.90539 12.9776 4.96384 13.5376 4.12126 14.2281C3.67751 14.5887 3.49189 15.1793 3.67251 15.6881C4.17626 17.025 3.49626 18.5918 2.11376 19.1631C1.86738 19.2654 1.60769 19.3321 1.34251 19.3612C1.07223 19.3933 0.818371 19.5078 0.615423 19.6892C0.412475 19.8705 0.270274 20.11 0.208136 20.375C-0.0449375 21.4985 -0.0674752 22.6618 0.141886 23.7943C0.195811 24.0676 0.335276 24.3166 0.540104 24.5054C0.744933 24.6942 1.0045 24.8129 1.28126 24.8443C2.76064 25 3.86064 26.3075 3.76626 27.7625C3.74722 28.0553 3.67831 28.3428 3.56251 28.6125C3.34376 29.1175 3.51314 29.7306 3.96501 30.1037C4.85322 30.8626 5.85717 31.4745 6.93876 31.9162C7.07304 31.9679 7.21496 31.9971 7.35876 32.0025C7.55355 32.0061 7.74611 31.9605 7.91854 31.8698C8.09097 31.7791 8.23768 31.6463 8.34501 31.4837C8.57518 31.1379 8.88587 30.8531 9.25038 30.6538C9.6149 30.4545 10.0223 30.3467 10.4377 30.3396C10.8531 30.3326 11.264 30.4264 11.635 30.6132C12.0061 30.8 12.3263 31.074 12.5681 31.4118C12.7242 31.6333 12.9528 31.7931 13.2144 31.8635C13.4759 31.9339 13.7539 31.9106 14 31.7975C14.9896 31.3595 15.9101 30.7796 16.7325 30.0762C17.1631 29.7125 17.3369 29.1306 17.1544 28.6318C16.6344 27.3025 17.2969 25.7293 18.6731 25.1443C18.906 25.0451 19.1511 24.9776 19.4019 24.9437C19.6683 24.9049 19.9164 24.7854 20.1128 24.6012C20.3091 24.417 20.4443 24.1771 20.5 23.9137C20.6186 23.3611 20.6828 22.7982 20.6919 22.2331C20.6912 21.6373 20.6283 21.0433 20.5044 20.4606C20.4479 20.2028 20.3146 19.9681 20.122 19.7877C19.9294 19.6073 19.6866 19.4895 19.4256 19.45ZM13.7938 22.2331C13.7939 22.9152 13.5917 23.582 13.2128 24.1493C12.834 24.7165 12.2954 25.1586 11.6652 25.4198C11.0351 25.6809 10.3416 25.7493 9.67258 25.6163C9.00354 25.4833 8.38898 25.1549 7.9066 24.6726C7.42422 24.1903 7.0957 23.5758 6.96257 22.9068C6.82945 22.2377 6.89771 21.5443 7.15872 20.9141C7.41973 20.2839 7.86177 19.7452 8.42892 19.3662C8.99608 18.9872 9.66289 18.785 10.345 18.785C11.2581 18.7897 12.1324 19.1545 12.7782 19.8001C13.4239 20.4457 13.7888 21.32 13.7938 22.2331ZM30.9806 5.62058C29.7888 5.43308 28.9506 4.33058 29.0844 3.16183C29.1017 3.00339 29.1376 2.84754 29.1913 2.69745C29.3288 2.30058 29.1875 1.84245 28.8469 1.55495C28.1261 0.932766 27.3087 0.432244 26.4269 0.0730799C26.2341 -0.00816135 26.0197 -0.0225776 25.8177 0.0321257C25.6158 0.086829 25.4379 0.207508 25.3125 0.374955C25.1453 0.595844 24.9355 0.781002 24.6956 0.9195C24.4557 1.058 24.1904 1.14703 23.9155 1.18134C23.6406 1.21565 23.3616 1.19455 23.095 1.11928C22.8284 1.04401 22.5795 0.916092 22.3631 0.74308C22.2304 0.635472 22.1116 0.511819 22.0094 0.374955C21.8836 0.208462 21.7059 0.0886756 21.5044 0.0345631C21.3029 -0.0195494 21.0891 -0.0048953 20.8969 0.0762049C20.084 0.407028 19.3255 0.858334 18.6469 1.41495C18.2894 1.70558 18.1394 2.18183 18.285 2.59183C18.6913 3.6687 18.1431 4.93183 17.0288 5.39245C16.83 5.47473 16.6207 5.52859 16.4069 5.55245C16.1897 5.57798 15.9856 5.6696 15.8222 5.81492C15.6587 5.96023 15.5439 6.15224 15.4931 6.36495C15.2888 7.27059 15.2705 8.20829 15.4394 9.12121C15.4835 9.34121 15.5962 9.54158 15.7613 9.6936C15.9263 9.84562 16.1353 9.94149 16.3581 9.96745C17.55 10.0925 18.4369 11.1475 18.3581 12.3206C18.3435 12.5573 18.2885 12.7898 18.1956 13.0081C18.0194 13.4156 18.1563 13.9093 18.5206 14.21C19.2364 14.8211 20.0454 15.3138 20.9169 15.6693C21.0253 15.7108 21.1397 15.7342 21.2556 15.7387C21.4126 15.7415 21.5678 15.7047 21.7068 15.6316C21.8457 15.5585 21.964 15.4515 22.0506 15.3206C22.2361 15.0418 22.4865 14.8122 22.7803 14.6515C23.0741 14.4909 23.4025 14.4039 23.7373 14.3982C24.0721 14.3925 24.4032 14.4682 24.7023 14.6187C25.0014 14.7692 25.2595 14.9902 25.4544 15.2625C25.5801 15.4399 25.7637 15.5682 25.9736 15.6252C26.1835 15.6822 26.4067 15.6644 26.605 15.575C27.403 15.2218 28.1454 14.7544 28.8088 14.1875C29.1556 13.8943 29.2956 13.425 29.1481 13.0231C28.7294 11.9525 29.2631 10.6843 30.3725 10.2106C30.5603 10.1307 30.7578 10.0763 30.96 10.0487C31.1747 10.0173 31.3747 9.92099 31.533 9.77261C31.6913 9.62423 31.8004 9.43093 31.8456 9.21871C31.9412 8.77316 31.9929 8.31933 32 7.8637C31.9994 7.38438 31.9492 6.90641 31.85 6.43745C31.804 6.23012 31.6963 6.04156 31.5412 5.89655C31.386 5.75154 31.1906 5.65686 30.9806 5.62495V5.62058ZM26.4413 7.8637C26.4413 8.41341 26.2783 8.95078 25.9729 9.40784C25.6675 9.86491 25.2334 10.2211 24.7255 10.4315C24.2176 10.6419 23.6588 10.6969 23.1197 10.5897C22.5805 10.4824 22.0853 10.2177 21.6966 9.82902C21.3079 9.44032 21.0432 8.94508 20.9359 8.40593C20.8287 7.86679 20.8837 7.30795 21.0941 6.80008C21.3044 6.29222 21.6607 5.85814 22.1177 5.55274C22.5748 5.24734 23.1122 5.08433 23.6619 5.08433C24.3979 5.08811 25.1026 5.38215 25.623 5.90256C26.1434 6.42298 26.4375 7.12773 26.4413 7.8637ZM31.7531 23.3062C31.465 23.0592 31.2824 22.7113 31.2429 22.3338C31.2034 21.9564 31.3099 21.5781 31.5406 21.2768C31.6055 21.1945 31.6795 21.1198 31.7613 21.0543C31.8669 20.9627 31.9425 20.8414 31.9784 20.7062C32.0143 20.571 32.0088 20.4282 31.9625 20.2962C31.7741 19.6996 31.4897 19.1376 31.1206 18.6325C31.041 18.5208 30.9264 18.4388 30.795 18.3996C30.6636 18.3603 30.5229 18.3659 30.395 18.4156C30.2253 18.4816 30.044 18.513 29.8619 18.5077C29.6799 18.5024 29.5007 18.4607 29.3351 18.3849C29.1695 18.3091 29.0207 18.2009 28.8977 18.0666C28.7746 17.9323 28.6798 17.7747 28.6188 17.6031C28.5811 17.4972 28.557 17.3869 28.5469 17.275C28.5339 17.1384 28.4758 17.0101 28.3818 16.9102C28.2877 16.8104 28.163 16.7448 28.0275 16.7237C27.4584 16.6283 26.8782 16.6188 26.3063 16.6956C26.1625 16.7117 26.0271 16.7715 25.9184 16.8669C25.8096 16.9624 25.7328 17.0889 25.6981 17.2293C25.5538 17.9718 24.8113 18.4893 24.0288 18.3618C23.8892 18.3399 23.7537 18.2978 23.6263 18.2368C23.4955 18.1762 23.3493 18.1572 23.2074 18.1825C23.0656 18.2077 22.9349 18.276 22.8331 18.3781C22.4066 18.8142 22.073 19.3324 21.8525 19.9012C21.8009 20.0394 21.7945 20.1904 21.8344 20.3324C21.8743 20.4745 21.9583 20.6001 22.0744 20.6912C22.373 20.9226 22.5714 21.2598 22.6287 21.6332C22.686 22.0066 22.5979 22.3877 22.3825 22.6981C22.2929 22.825 22.1821 22.9356 22.055 23.025C21.9366 23.1137 21.8499 23.2382 21.8079 23.3801C21.7659 23.5219 21.7708 23.6736 21.8219 23.8125C22.0117 24.4013 22.2944 24.956 22.6594 25.4556C22.7055 25.5161 22.7612 25.5687 22.8244 25.6112C22.9112 25.667 23.0106 25.7 23.1135 25.7071C23.2165 25.7142 23.3195 25.6952 23.4131 25.6518C23.6131 25.56 23.8324 25.518 24.0521 25.5296C24.2719 25.5411 24.4855 25.6058 24.6748 25.7181C24.864 25.8304 25.0232 25.9869 25.1386 26.1743C25.254 26.3616 25.3223 26.5742 25.3375 26.7937C25.3461 26.9364 25.4043 27.0716 25.502 27.1761C25.5996 27.2805 25.7307 27.3475 25.8725 27.3656C26.4405 27.4435 27.0167 27.4382 27.5831 27.35C27.7248 27.3314 27.8575 27.27 27.9633 27.1739C28.0691 27.0778 28.1429 26.9517 28.175 26.8125C28.31 26.0693 29.0463 25.5437 29.8294 25.6631C29.9621 25.6828 30.0914 25.7206 30.2138 25.7756C30.3447 25.8322 30.4899 25.8472 30.6297 25.8187C30.7696 25.7902 30.8973 25.7196 30.9956 25.6162C31.2028 25.4003 31.3883 25.1646 31.5494 24.9125C31.7149 24.6441 31.8519 24.3593 31.9581 24.0625C32.0045 23.9305 32.0097 23.7875 31.9731 23.6525C31.9365 23.5175 31.8598 23.3967 31.7531 23.3062ZM28.4406 22.9937C28.251 23.3013 27.9743 23.5456 27.6458 23.696C27.3172 23.8463 26.9514 23.8958 26.5947 23.8382C26.2379 23.7807 25.9063 23.6186 25.6417 23.3726C25.3771 23.1265 25.1914 22.8075 25.1081 22.4559C25.0248 22.1043 25.0476 21.7359 25.1737 21.3973C25.2997 21.0586 25.5234 20.765 25.8164 20.5535C26.1093 20.342 26.4584 20.2221 26.8195 20.209C27.1806 20.1959 27.5375 20.2902 27.845 20.48C28.2556 20.7362 28.5484 21.1441 28.66 21.615C28.7715 22.0859 28.6927 22.5818 28.4406 22.995V22.9937Z" fill="#746FE5"/>
</g>
<defs>
<clipPath id="clip0_69_3326">
<rect width="32" height="32" fill="white"/>
</clipPath>
</defs>
</svg>
