<svg width="32" height="32" viewBox="0 0 32 32" fill="none" xmlns="http://www.w3.org/2000/svg">
<g clip-path="url(#clip0_69_3305)">
<path d="M30.9956 5.1626H20.8025C20.2481 5.1626 19.7981 5.61197 19.7981 6.16697V8.19572C19.7981 8.7501 20.2481 9.2001 20.8025 9.2001H25.1081L16.2981 18.0095L12.5631 14.2745C11.7744 13.4863 10.4963 13.4863 9.7075 14.2745L0.294375 23.6888C-0.098125 24.0807 -0.098125 24.717 0.294375 25.1088L1.72875 26.5438C2.12063 26.9357 2.75688 26.9357 3.14875 26.5438L11.1356 18.557L14.87 22.292C15.6587 23.0809 16.937 23.0812 17.7256 22.292L27.9625 12.0551V16.3607C27.9625 16.9151 28.4119 17.3651 28.9669 17.3651H30.9956C31.5506 17.3651 32 16.9151 32 16.3607V6.16697C32 5.61197 31.5506 5.1626 30.9956 5.1626Z" fill="#746FE5"/>
</g>
<defs>
<clipPath id="clip0_69_3305">
<rect width="32" height="32" fill="white"/>
</clipPath>
</defs>
</svg>
