<svg
									width="20"
									height="21"
									viewBox="0 0 20 21"
									fill="none"
									xmlns="http://www.w3.org/2000/svg"
								>
									<path
										fillRule="evenodd"
										clipRule="evenodd"
										d="M4 1.04004C2.34315 1.04004 1 2.38319 1 4.04004V16.04C1 17.6969 2.34315 19.04 4 19.04H16C17.6569 19.04 19 17.6969 19 16.04V9.04004C19 7.38319 17.6569 6.04004 16 6.04004H4.5C3.67157 6.04004 3 5.36847 3 4.54004C3 3.71161 3.67157 3.04004 4.5 3.04004H16C16.5523 3.04004 17 2.59232 17 2.04004C17 1.48776 16.5523 1.04004 16 1.04004H4ZM14.5 14.04C15.3284 14.04 16 13.3684 16 12.54C16 11.7116 15.3284 11.04 14.5 11.04C13.6716 11.04 13 11.7116 13 12.54C13 13.3684 13.6716 14.04 14.5 14.04Z"
										fill="white"
									/>
								</svg>