<svg
									width="24"
									height="25"
									viewBox="0 0 24 25"
									fill="none"
									xmlns="http://www.w3.org/2000/svg"
								>
									<path
										d="M11.83 9.04004L15 12.2V12.04C15 11.2444 14.6839 10.4813 14.1213 9.91872C13.5587 9.35611 12.7956 9.04004 12 9.04004H11.83ZM7.53 9.84004L9.08 11.39C9.03 11.6 9 11.81 9 12.04C9 12.8357 9.31607 13.5988 9.87868 14.1614C10.4413 14.724 11.2044 15.04 12 15.04C12.22 15.04 12.44 15.01 12.65 14.96L14.2 16.51C13.53 16.84 12.79 17.04 12 17.04C10.6739 17.04 9.40215 16.5133 8.46447 15.5756C7.52678 14.6379 7 13.3661 7 12.04C7 11.25 7.2 10.51 7.53 9.84004ZM2 4.31004L4.28 6.59004L4.73 7.04004C3.08 8.34004 1.78 10.04 1 12.04C2.73 16.43 7 19.54 12 19.54C13.55 19.54 15.03 19.24 16.38 18.7L16.81 19.12L19.73 22.04L21 20.77L3.27 3.04004M12 7.04004C13.3261 7.04004 14.5979 7.56682 15.5355 8.50451C16.4732 9.44219 17 10.714 17 12.04C17 12.68 16.87 13.3 16.64 13.86L19.57 16.79C21.07 15.54 22.27 13.9 23 12.04C21.27 7.65004 17 4.54004 12 4.54004C10.6 4.54004 9.26 4.79004 8 5.24004L10.17 7.39004C10.74 7.17004 11.35 7.04004 12 7.04004Z"
										fill="#26254A"
									/>
								</svg>