<svg
									width="32"
									height="33"
									viewBox="0 0 32 33"
									fill="none"
									xmlns="http://www.w3.org/2000/svg"
								>
									<g clipPath="url(#clip0_127_1151)">
										<path
											d="M0 5.89258H3.03775V7.76758H0V5.89258Z"
											fill="white"
										/>
										<path
											d="M1.12842 2.49512L2.45404 1.16949L4.86602 3.58147L3.54039 4.90709L1.12842 2.49512Z"
											fill="white"
										/>
										<path
											d="M5.85278 0.0400391H7.72778V3.07785H5.85278V0.0400391Z"
											fill="white"
										/>
										<path
											d="M28.9623 5.89258H32V7.76758H28.9623V5.89258Z"
											fill="white"
										/>
										<path
											d="M27.1302 3.58398L29.5422 1.17201L30.8678 2.49764L28.4559 4.90961L27.1302 3.58398Z"
											fill="white"
										/>
										<path
											d="M24.2722 0.0400391H26.1472V3.07785H24.2722V0.0400391Z"
											fill="white"
										/>
										<path
											d="M5.38256 16.3316C5.382 15.6888 4.85894 15.166 4.21606 15.166C3.57287 15.166 3.04956 15.6893 3.04956 16.3326V23.7521L7.50775 28.2103V32.0398H9.84075V26.8756L5.38256 22.4174V16.3316Z"
											fill="white"
										/>
										<path
											d="M25.2564 6.35216C24.6132 6.35216 24.0899 6.87548 24.0899 7.51873V16.3255H22.2149V3.3106C22.2149 2.66735 21.6916 2.14404 21.0484 2.14404C20.4051 2.14404 19.8818 2.66735 19.8818 3.3106V16.3255H18.0068V1.2066C18.0068 0.563352 17.4834 0.0400391 16.8403 0.0400391C16.197 0.0400391 15.6737 0.563352 15.6737 1.2066V16.3255H13.7987V3.3106C13.7987 2.66735 13.2754 2.14404 12.6322 2.14404C11.9889 2.14404 11.4656 2.66735 11.4656 3.3106V19.9152H9.59063V14.2214C9.59063 13.5782 9.06732 13.0549 8.42407 13.0549C7.78119 13.0549 7.25813 13.5777 7.25763 14.2204L7.25757 21.6409L11.7158 26.0991V32.04H20.3373H23.6078V28.8L26.4229 25.6007V7.51866C26.4229 6.87548 25.8996 6.35216 25.2564 6.35216Z"
											fill="white"
										/>
										<path
											d="M7.25757 5.42236V11.4133C7.61701 11.2635 8.01094 11.1804 8.42401 11.1804C8.83701 11.1804 9.23119 11.2632 9.59057 11.4129V5.42142C9.59001 4.77867 9.06694 4.25586 8.42407 4.25586C7.78088 4.25586 7.25757 4.77917 7.25757 5.42236Z"
											fill="white"
										/>
									</g>
									<defs>
										<clipPath id="clip0_127_1151">
											<rect
												width="32"
												height="32"
												fill="white"
												transform="translate(0 0.0400391)"
											/>
										</clipPath>
									</defs>
								</svg>