<svg width="24" height="24" viewBox="0 0 24 24" fill="none" xmlns="http://www.w3.org/2000/svg">
<path d="M13.5 2.25C13.9142 2.25 14.25 2.58579 14.25 3V4.25C14.9466 4.25 15.2953 4.24966 15.5879 4.28613C17.7452 4.55518 19.4448 6.25482 19.7139 8.41211C19.7503 8.70475 19.75 9.0534 19.75 9.75H21C21.4142 9.75 21.75 10.0858 21.75 10.5C21.75 10.9142 21.4142 11.25 21 11.25H19.75V12.75H21C21.4142 12.75 21.75 13.0858 21.75 13.5C21.75 13.9142 21.4142 14.25 21 14.25H19.75C19.75 14.9466 19.7503 15.2953 19.7139 15.5879C19.4448 17.7452 17.7452 19.4448 15.5879 19.7139C15.2953 19.7503 14.9466 19.75 14.25 19.75V21C14.25 21.4142 13.9142 21.75 13.5 21.75C13.0858 21.75 12.75 21.4142 12.75 21V19.75H11.25V21C11.25 21.4142 10.9142 21.75 10.5 21.75C10.0858 21.75 9.75 21.4142 9.75 21V19.75C9.0534 19.75 8.70475 19.7503 8.41211 19.7139C6.25482 19.4448 4.55518 17.7452 4.28613 15.5879C4.24966 15.2953 4.25 14.9466 4.25 14.25H3C2.58579 14.25 2.25 13.9142 2.25 13.5C2.25 13.0858 2.58579 12.75 3 12.75H4.25V11.25H3C2.58579 11.25 2.25 10.9142 2.25 10.5C2.25 10.0858 2.58579 9.75 3 9.75H4.25C4.25 9.0534 4.24966 8.70475 4.28613 8.41211C4.55518 6.25482 6.25482 4.55518 8.41211 4.28613C8.70475 4.24966 9.0534 4.25 9.75 4.25V3C9.75 2.58579 10.0858 2.25 10.5 2.25C10.9142 2.25 11.25 2.58579 11.25 3V4.25H12.75V3C12.75 2.58579 13.0858 2.25 13.5 2.25ZM10.75 8.25C10.4472 8.25 10.1741 8.43243 10.0576 8.71191L7.55762 14.7119C7.39856 15.0942 7.57968 15.5331 7.96191 15.6924C8.34418 15.8514 8.78312 15.6703 8.94238 15.2881L9.375 14.25H12.125L12.5576 15.2881C12.7169 15.6703 13.1558 15.8514 13.5381 15.6924C13.8965 15.5431 14.0776 15.148 13.9678 14.7842L13.9424 14.7119L11.4424 8.71191C11.3259 8.43243 11.0528 8.25 10.75 8.25ZM15.75 8.25C15.3358 8.25 15 8.58579 15 9V15C15 15.4142 15.3358 15.75 15.75 15.75C16.1642 15.75 16.5 15.4142 16.5 15V9C16.5 8.58579 16.1642 8.25 15.75 8.25ZM11.5 12.75H10L10.75 10.9492L11.5 12.75Z" fill="#051427"/>
</svg>
