<svg width="20" height="20" viewBox="0 0 20 20" fill="none" xmlns="http://www.w3.org/2000/svg">
<path d="M8.625 1.875C10.4999 1.875 11.4376 1.87508 12.0947 2.35254C12.3068 2.50666 12.4933 2.69319 12.6475 2.90527C13.1249 3.56244 13.125 4.50013 13.125 6.375V9.5H10C9.72397 9.5 9.50018 9.72401 9.5 10C9.50018 10.276 9.72397 10.5 10 10.5H13.125V13.625C13.125 15.4999 13.1249 16.4376 12.6475 17.0947C12.4933 17.3068 12.3068 17.4933 12.0947 17.6475C11.4376 18.1249 10.4999 18.125 8.625 18.125H6.375C4.50013 18.125 3.56244 18.1249 2.90527 17.6475C2.69319 17.4933 2.50666 17.3068 2.35254 17.0947C1.87508 16.4376 1.875 15.4999 1.875 13.625V6.375C1.875 4.50013 1.87508 3.56244 2.35254 2.90527C2.50666 2.69319 2.69319 2.50666 2.90527 2.35254C3.56244 1.87508 4.50013 1.875 6.375 1.875H8.625ZM15.0635 7.56348C15.2342 7.3929 15.4974 7.37123 15.6914 7.49902L15.7705 7.56348L17.8535 9.64648C18.0486 9.84171 18.0486 10.1583 17.8535 10.3535L15.7705 12.4375C15.5754 12.6324 15.2587 12.6322 15.0635 12.4375C14.8683 12.2423 14.8684 11.9257 15.0635 11.7305L16.293 10.5H13.125V9.5H16.293L15.0635 8.27051L14.999 8.19238C14.8708 7.99835 14.8927 7.73439 15.0635 7.56348Z" fill="#F32E2E"/>
</svg>
