<svg width="20" height="20" viewBox="0 0 20 20" fill="none" xmlns="http://www.w3.org/2000/svg">
<path d="M10 15.083C10.4141 15.083 10.7498 15.4189 10.75 15.833V17.5C10.75 17.9142 10.4142 18.25 10 18.25C9.58579 18.25 9.25 17.9142 9.25 17.5V15.833C9.25018 15.4189 9.5859 15.083 10 15.083ZM5.30273 13.6367C5.59563 13.3438 6.07039 13.3438 6.36328 13.6367C6.65617 13.9296 6.65618 14.4044 6.36328 14.6973L5.22656 15.834C4.93364 16.1265 4.45877 16.1267 4.16602 15.834C3.87326 15.5412 3.87353 15.0664 4.16602 14.7734L5.30273 13.6367ZM13.6367 13.6367C13.9113 13.3622 14.3451 13.3449 14.6396 13.585L14.6973 13.6367L15.834 14.7734L15.8848 14.8301C16.1251 15.1247 16.1086 15.5594 15.834 15.834C15.5594 16.1086 15.1247 16.1251 14.8301 15.8848L14.7725 15.834L13.6367 14.6973L13.585 14.6396C13.3448 14.3451 13.3622 13.9113 13.6367 13.6367ZM10 6.04199C12.1861 6.04199 13.958 7.81387 13.958 10C13.958 12.1861 12.1861 13.958 10 13.958C7.81387 13.958 6.04199 12.1861 6.04199 10C6.04199 7.81387 7.81387 6.04199 10 6.04199ZM4.16699 9.25C4.58106 9.25018 4.91699 9.5859 4.91699 10C4.91699 10.4141 4.58106 10.7498 4.16699 10.75H2.5C2.08579 10.75 1.75 10.4142 1.75 10C1.75 9.58579 2.08579 9.25 2.5 9.25H4.16699ZM17.5 9.25C17.9142 9.25001 18.25 9.58579 18.25 10C18.25 10.4142 17.9142 10.75 17.5 10.75H15.833C15.419 10.7498 15.083 10.4141 15.083 10C15.083 9.5859 15.4189 9.25018 15.833 9.25H17.5ZM14.8301 4.11523C15.1247 3.87491 15.5594 3.89141 15.834 4.16602C16.1267 4.45877 16.1265 4.93364 15.834 5.22656L14.6973 6.36328C14.4044 6.65618 13.9296 6.65617 13.6367 6.36328C13.3438 6.07039 13.3438 5.59563 13.6367 5.30273L14.7725 4.16602L14.8301 4.11523ZM4.16602 4.16602C4.44063 3.89141 4.87534 3.87489 5.16992 4.11523L5.22656 4.16602L6.36328 5.30273L6.41504 5.36035C6.65515 5.65493 6.63781 6.08875 6.36328 6.36328C6.08875 6.63781 5.65493 6.65515 5.36035 6.41504L5.30273 6.36328L4.16602 5.22656L4.11523 5.16992C3.87489 4.87534 3.8914 4.44063 4.16602 4.16602ZM10 1.75C10.4142 1.75001 10.75 2.0858 10.75 2.5V4.16699C10.7498 4.58105 10.4141 4.91699 10 4.91699C9.5859 4.91699 9.25018 4.58106 9.25 4.16699V2.5C9.25 2.08579 9.58579 1.75001 10 1.75Z" fill="#F3AE2E"/>
</svg>
