<svg width="26" height="26" viewBox="0 0 26 26" fill="none" xmlns="http://www.w3.org/2000/svg">
<path d="M17.4502 0C21.0123 3.00649e-10 22.7934 7.3795e-05 24.042 0.907227C24.4452 1.20019 24.7998 1.55478 25.0928 1.95801C25.9999 3.2066 26 4.98769 26 8.5498V17.4502C26 21.0123 25.9999 22.7934 25.0928 24.042C24.7998 24.4452 24.4452 24.7998 24.042 25.0928C22.7934 25.9999 21.0123 26 17.4502 26H8.5498C4.98769 26 3.2066 25.9999 1.95801 25.0928C1.55478 24.7998 1.20019 24.4452 0.907227 24.042C7.39569e-05 22.7934 3.06572e-10 21.0123 0 17.4502V8.5498C2.97708e-10 4.98769 7.37141e-05 3.2066 0.907227 1.95801C1.20019 1.55478 1.55478 1.20019 1.95801 0.907227C3.2066 7.3876e-05 4.98769 3.03603e-10 8.5498 0H17.4502ZM7.66699 16.25C7.25289 16.25 6.91717 16.5859 6.91699 17V21C6.91717 21.4141 7.25289 21.75 7.66699 21.75C8.08095 21.7498 8.41682 21.414 8.41699 21V17C8.41682 16.586 8.08095 16.2502 7.66699 16.25ZM13 13.584C12.5859 13.5842 12.25 13.9199 12.25 14.334V21C12.2502 21.414 12.586 21.7498 13 21.75C13.414 21.7498 13.7498 21.414 13.75 21V14.334C13.75 13.9199 13.4141 13.5842 13 13.584ZM18.334 10.917C17.9198 10.917 17.584 11.2528 17.584 11.667V21C17.5842 21.4141 17.9199 21.75 18.334 21.75C18.7478 21.7496 19.0838 21.4138 19.084 21V11.667C19.084 11.253 18.7479 10.9173 18.334 10.917ZM20.8643 5.13672C20.5897 4.86219 20.1549 4.84485 19.8604 5.08496L19.8037 5.13672L19.5156 5.42383C17.7821 7.1572 15.3084 7.93046 12.8965 7.49219C10.8536 7.12075 8.76919 7.79159 7.3291 9.2627L7.05078 9.56738L5.09766 11.8457C4.82814 12.1602 4.86423 12.6338 5.17871 12.9033C5.47346 13.1557 5.9084 13.1398 6.18359 12.8779L6.23633 12.8213L8.18945 10.5439L8.40137 10.3125C9.49479 9.19559 11.0768 8.68575 12.6279 8.96777C15.5243 9.49421 18.4955 8.56601 20.5771 6.48438L20.8643 6.19727L20.915 6.14062C21.1555 5.84621 21.1385 5.41145 20.8643 5.13672Z" fill="#F3AE2E"/>
</svg>
