<svg width="24" height="24" viewBox="0 0 24 24" fill="none" xmlns="http://www.w3.org/2000/svg">
<path d="M13.2002 2.25C16.7623 2.25 18.5434 2.25007 19.792 3.15723C20.1952 3.45019 20.5498 3.80478 20.8428 4.20801C21.7499 5.4566 21.75 7.23769 21.75 10.7998V13.2002C21.75 16.7623 21.7499 18.5434 20.8428 19.792C20.5498 20.1952 20.1952 20.5498 19.792 20.8428C18.5434 21.7499 16.7623 21.75 13.2002 21.75H10.7998C7.23769 21.75 5.4566 21.7499 4.20801 20.8428C3.80478 20.5498 3.45019 20.1952 3.15723 19.792C2.25007 18.5434 2.25 16.7623 2.25 13.2002V10.7998C2.25 7.23769 2.25007 5.4566 3.15723 4.20801C3.45019 3.80478 3.80478 3.45019 4.20801 3.15723C5.4566 2.25007 7.23769 2.25 10.7998 2.25H13.2002ZM8 14.25C7.58579 14.25 7.25 14.5858 7.25 15V18C7.25 18.4142 7.58579 18.75 8 18.75C8.41421 18.75 8.75 18.4142 8.75 18V15C8.75 14.5858 8.41421 14.25 8 14.25ZM12 12.25C11.5858 12.25 11.25 12.5858 11.25 13V18C11.25 18.4142 11.5858 18.75 12 18.75C12.4142 18.75 12.75 18.4142 12.75 18V13C12.75 12.5858 12.4142 12.25 12 12.25ZM16 10.25C15.5858 10.25 15.25 10.5858 15.25 11V18C15.25 18.4142 15.5858 18.75 16 18.75C16.4142 18.75 16.75 18.4142 16.75 18V11C16.75 10.5858 16.4142 10.25 16 10.25ZM18.0303 5.96973C17.7374 5.67683 17.2626 5.67683 16.9697 5.96973L16.7539 6.18555C15.4971 7.44204 13.7036 8.00248 11.9551 7.68457C10.2556 7.37565 8.51981 7.99136 7.39551 9.30273L5.93066 11.0117C5.66114 11.3262 5.69737 11.7997 6.01172 12.0693C6.32616 12.3389 6.79975 12.3026 7.06934 11.9883L8.53418 10.2793C9.31157 9.37243 10.5123 8.94648 11.6875 9.16016C13.9201 9.56593 16.2098 8.85053 17.8145 7.24609L18.0303 7.03027C18.3232 6.73738 18.3232 6.26262 18.0303 5.96973Z" fill="#051427"/>
</svg>
