<svg width="24" height="24" viewBox="0 0 24 24" fill="none" xmlns="http://www.w3.org/2000/svg">
<path d="M12 2.25C17.3848 2.25 21.75 6.61522 21.75 12C21.75 17.3848 17.3848 21.75 12 21.75C6.61522 21.75 2.25 17.3848 2.25 12C2.25 6.61522 6.61522 2.25 12 2.25ZM12 5.75C11.5858 5.75 11.25 6.08579 11.25 6.5V7.2627C9.84844 7.38906 8.75 8.56553 8.75 10C8.75 11.4344 9.84848 12.6099 11.25 12.7363V15.2246C10.6795 15.1088 10.25 14.6047 10.25 14C10.25 13.5858 9.91421 13.25 9.5 13.25C9.08579 13.25 8.75 13.5858 8.75 14C8.75 15.4344 9.84848 16.6099 11.25 16.7363V17.5C11.25 17.9142 11.5858 18.25 12 18.25C12.4142 18.25 12.75 17.9142 12.75 17.5V16.7363C14.1515 16.6099 15.25 15.4344 15.25 14C15.25 12.5655 14.1516 11.3891 12.75 11.2627V8.77441C13.3206 8.89019 13.75 9.39522 13.75 10C13.75 10.4142 14.0858 10.75 14.5 10.75C14.9142 10.75 15.25 10.4142 15.25 10C15.25 8.56553 14.1516 7.38906 12.75 7.2627V6.5C12.75 6.08579 12.4142 5.75 12 5.75ZM12.75 12.7744C13.3206 12.8902 13.75 13.3952 13.75 14C13.75 14.6047 13.3205 15.1088 12.75 15.2246V12.7744ZM11.25 11.2246C10.6795 11.1088 10.25 10.6047 10.25 10C10.25 9.39522 10.6794 8.89019 11.25 8.77441V11.2246Z" fill="#051427"/>
</svg>
