<svg width="24" height="24" viewBox="0 0 24 24" fill="none" xmlns="http://www.w3.org/2000/svg">
<path d="M13.2002 2.25C16.7623 2.25 18.5434 2.25007 19.792 3.15723C20.1952 3.45019 20.5498 3.80478 20.8428 4.20801C21.3805 4.94816 21.5983 5.87553 21.6875 7.25H18.582C18.3012 6.65876 17.6981 6.25 17 6.25C16.0335 6.25 15.25 7.0335 15.25 8C15.25 8.9665 16.0335 9.75 17 9.75C17.6981 9.75 18.3012 9.34124 18.582 8.75H21.7393C21.7481 9.36022 21.75 10.0394 21.75 10.7998V13.2002C21.75 16.7623 21.7499 18.5434 20.8428 19.792C20.5498 20.1952 20.1952 20.5498 19.792 20.8428C19.0518 21.3805 18.1244 21.5973 16.75 21.6865V16.1768L17.5 14.6777C18.2229 14.4626 18.75 13.7928 18.75 13C18.75 12.0335 17.9665 11.25 17 11.25C16.0335 11.25 15.25 12.0335 15.25 13C15.25 13.5762 15.5284 14.0874 15.958 14.4062L15.25 15.8232V21.7383C14.6398 21.7471 13.9606 21.75 13.2002 21.75H12.75V9.58203C13.3412 9.30117 13.75 8.6981 13.75 8C13.75 7.0335 12.9665 6.25 12 6.25C11.0335 6.25 10.25 7.0335 10.25 8C10.25 8.6981 10.6588 9.30117 11.25 9.58203V21.75H10.7998C7.23769 21.75 5.4566 21.7499 4.20801 20.8428C3.80478 20.5498 3.45019 20.1952 3.15723 19.792C2.61947 19.0518 2.40167 18.1245 2.3125 16.75H6.41797C6.69883 17.3412 7.3019 17.75 8 17.75C8.9665 17.75 9.75 16.9665 9.75 16C9.75 15.0335 8.9665 14.25 8 14.25C7.3019 14.25 6.69883 14.6588 6.41797 15.25H2.26074C2.25192 14.6398 2.25 13.9606 2.25 13.2002V10.7998C2.25 7.23769 2.25007 5.4566 3.15723 4.20801C3.45019 3.80478 3.80478 3.45019 4.20801 3.15723C4.94816 2.61947 5.87553 2.40167 7.25 2.3125V7.82324L6.5 9.32227C5.7771 9.53738 5.25 10.2072 5.25 11C5.25 11.9665 6.0335 12.75 7 12.75C7.9665 12.75 8.75 11.9665 8.75 11C8.75 10.4238 8.47164 9.91263 8.04199 9.59375L8.75 8.17676V2.26074C9.36022 2.25192 10.0394 2.25 10.7998 2.25H13.2002Z" fill="#1CC1AD"/>
</svg>
