<svg width="24" height="24" viewBox="0 0 24 24" fill="none" xmlns="http://www.w3.org/2000/svg">
<path d="M2.47802 7.91602C2.25 8.79933 2.25 9.94701 2.25 12.0006C2.25 14.3282 2.25 15.492 2.582 16.4262C3.16141 18.0565 4.44414 19.3392 6.07444 19.9186C7.0086 20.2506 8.1724 20.2506 10.5 20.2506H13.5C15.8276 20.2506 16.9914 20.2506 17.9256 19.9186C19.5559 19.3392 20.8386 18.0565 21.418 16.4262C21.75 15.492 21.75 14.3282 21.75 12.0006C21.75 9.94702 21.75 8.79935 21.522 7.91604L17.754 10.6926C16.6402 11.5133 15.7625 12.1601 15.002 12.6184C14.2228 13.088 13.5145 13.3932 12.7288 13.4935C12.2452 13.5553 11.7557 13.5553 11.2721 13.4936C10.4864 13.3933 9.77801 13.0881 8.99883 12.6186C8.23833 12.1603 7.36057 11.5135 6.24672 10.6928L2.47802 7.91602Z" fill="#586679"/>
<path d="M3.09375 6.50448L7.10835 9.46247C8.25881 10.3101 9.08106 10.915 9.77494 11.3332C10.457 11.7442 10.9621 11.941 11.464 12.005C11.8214 12.0507 12.1832 12.0507 12.5406 12.005C13.0425 11.9409 13.5476 11.7441 14.2296 11.3331C14.9235 10.9149 15.7457 10.31 16.8961 9.46225L20.9101 6.50449C20.2292 5.38896 19.1811 4.52754 17.9275 4.082C16.9933 3.75 15.8295 3.75 13.5019 3.75L10.5019 3.75C8.1743 3.75 7.0105 3.75 6.07634 4.082C4.82271 4.52754 3.7746 5.38895 3.09375 6.50448Z" fill="#586679"/>
</svg>
