<svg width="20" height="20" viewBox="0 0 20 20" fill="none" xmlns="http://www.w3.org/2000/svg">
<path d="M2.06502 6.59766C1.875 7.33375 1.875 8.29015 1.875 10.0015C1.875 11.9412 1.875 12.911 2.15167 13.6895C2.63451 15.048 3.70345 16.117 5.06204 16.5998C5.8405 16.8765 6.81033 16.8765 8.75 16.8765H11.25C13.1897 16.8765 14.1595 16.8765 14.938 16.5998C16.2966 16.117 17.3655 15.048 17.8483 13.6895C18.125 12.911 18.125 11.9412 18.125 10.0015C18.125 8.29016 18.125 7.33377 17.935 6.59768L14.795 8.91145C13.8669 9.59539 13.1354 10.1344 12.5017 10.5163C11.8524 10.9076 11.2621 11.162 10.6073 11.2456C10.2043 11.2971 9.79641 11.2971 9.39343 11.2456C8.73866 11.162 8.14834 10.9077 7.49903 10.5164C6.86528 10.1345 6.13381 9.59558 5.2056 8.91166L2.06502 6.59766Z" fill="#1CC1AD"/>
<path d="M11.252 3.125C12.1483 3.125 12.8375 3.126 13.3965 3.15332C13.3564 3.34596 13.335 3.54548 13.335 3.75C13.335 5.20253 14.3974 6.40325 15.7871 6.62598L14.0801 7.88477C13.1215 8.59111 12.4366 9.09586 11.8584 9.44434C11.2901 9.78686 10.8685 9.95049 10.4502 10.0039C10.1525 10.0419 9.85136 10.0419 9.55371 10.0039C9.13544 9.95051 8.71386 9.78683 8.14551 9.44434C7.56737 9.09592 6.88228 8.59194 5.92383 7.88574L2.57812 5.41992C3.1455 4.49049 4.01893 3.77261 5.06348 3.40137C5.84194 3.1247 6.81229 3.125 8.75195 3.125H11.252Z" fill="#1CC1AD"/>
<path d="M17.9154 3.7487C17.9154 4.66917 17.1692 5.41536 16.2487 5.41536C15.3282 5.41536 14.582 4.66917 14.582 3.7487C14.582 2.82822 15.3282 2.08203 16.2487 2.08203C17.1692 2.08203 17.9154 2.82822 17.9154 3.7487Z" fill="#1CC1AD"/>
</svg>
