<svg width="20" height="20" viewBox="0 0 20 20" fill="none" xmlns="http://www.w3.org/2000/svg">
<path d="M9.99987 3.54169C13.353 3.54169 15.9081 6.01636 17.368 7.90204C17.8932 8.58038 18.1558 8.91986 18.2518 9.64423C18.2744 9.81496 18.2744 10.1855 18.2518 10.3561C18.1558 11.0802 17.8929 11.4193 17.368 12.0974C15.9081 13.983 13.353 16.4587 9.99987 16.4587C6.64672 16.4587 4.0916 13.983 2.63171 12.0974C2.10679 11.4193 1.84393 11.0802 1.74792 10.3561C1.7253 10.1855 1.72531 9.81496 1.74792 9.64423C1.84392 8.91986 2.10653 8.58038 2.63171 7.90204C4.0916 6.01636 6.64672 3.54169 9.99987 3.54169ZM9.99987 7.08368C8.38914 7.08368 7.08304 8.389 7.08288 9.99969C7.08288 11.6105 8.38904 12.9167 9.99987 12.9167C11.6107 12.9167 12.9169 11.6105 12.9169 9.99969C12.9167 8.389 11.6106 7.08368 9.99987 7.08368Z" fill="#586679"/>
<path d="M9.99984 4.16669C12.701 4.16669 15.0708 6.12697 16.5858 7.7748C17.2583 8.50627 17.5945 8.87201 17.708 9.62968C17.7358 9.81516 17.7358 10.1849 17.708 10.3704C17.5945 11.128 17.2583 11.4938 16.5858 12.2252C15.0708 13.8731 12.701 15.8334 9.99984 15.8334C7.29871 15.8334 4.92885 13.8731 3.4139 12.2252C2.7414 11.4938 2.40516 11.128 2.29167 10.3704C2.26389 10.1849 2.26389 9.81516 2.29167 9.62968C2.40516 8.87201 2.7414 8.50627 3.4139 7.7748C4.92885 6.12697 7.29871 4.16669 9.99984 4.16669Z" stroke="#586679" stroke-width="1.25" stroke-linejoin="round"/>
</svg>
