<svg width="20" height="20" viewBox="0 0 20 20" fill="none" xmlns="http://www.w3.org/2000/svg">
<path d="M10.001 1.875C12.5352 1.875 13.8028 1.87463 14.7246 2.46191C15.1864 2.75612 15.5779 3.14856 15.8721 3.61035C16.4592 4.53215 16.459 5.79915 16.459 8.33301V11.667C16.459 14.2009 16.4592 15.4679 15.8721 16.3896C15.5779 16.8514 15.1864 17.2439 14.7246 17.5381C13.8028 18.1254 12.5352 18.125 10.001 18.125C7.46674 18.125 6.19919 18.1254 5.27734 17.5381C4.81557 17.2439 4.42407 16.8514 4.12988 16.3896C3.54274 15.4679 3.54297 14.2009 3.54297 11.667V8.33301C3.54297 5.79915 3.54274 4.53215 4.12988 3.61035C4.42407 3.14856 4.81557 2.75612 5.27734 2.46191C6.19919 1.87463 7.46674 1.875 10.001 1.875ZM7.08398 12.584C6.66992 12.5842 6.33398 12.9199 6.33398 13.334C6.33434 13.7478 6.67014 14.0838 7.08398 14.084H12.917L12.9941 14.0801C13.3721 14.0416 13.6667 13.722 13.667 13.334C13.667 12.9457 13.3722 12.6264 12.9941 12.5879L12.917 12.584H7.08398ZM7.08398 9.25C6.67003 9.25018 6.33416 9.58604 6.33398 10C6.33416 10.414 6.67003 10.7498 7.08398 10.75H12.917C13.3311 10.75 13.6668 10.4141 13.667 10C13.6668 9.58594 13.3311 9.25 12.917 9.25H7.08398ZM7.29297 5.83301C6.83273 5.83301 6.45898 6.20675 6.45898 6.66699C6.45916 7.12708 6.83284 7.5 7.29297 7.5C7.75295 7.49982 8.1258 7.12697 8.12598 6.66699C8.12598 6.20686 7.75306 5.83318 7.29297 5.83301ZM10.001 5.91699C9.58691 5.91717 9.25098 6.25289 9.25098 6.66699C9.25115 7.08095 9.58702 7.41682 10.001 7.41699H12.917C13.3311 7.41699 13.6668 7.08106 13.667 6.66699C13.667 6.25278 13.3312 5.91699 12.917 5.91699H10.001Z" fill="#C3CCD8"/>
</svg>
