<svg width="24" height="24" viewBox="0 0 24 24" fill="none" xmlns="http://www.w3.org/2000/svg">
<path d="M12.25 3C12.25 5.81208 12.2498 7.21837 12.9658 8.2041C13.1971 8.52246 13.4775 8.80288 13.7959 9.03418C14.7816 9.7502 16.1879 9.75 19 9.75H19.75V15C19.75 17.8121 19.7502 19.2184 19.0342 20.2041C18.8029 20.5225 18.5225 20.8029 18.2041 21.0342C17.2184 21.7502 15.8121 21.75 13 21.75H11C8.18792 21.75 6.78163 21.7502 5.7959 21.0342C5.47754 20.8029 5.19712 20.5225 4.96582 20.2041C4.2498 19.2184 4.25 17.8121 4.25 15V9C4.25 6.18792 4.2498 4.78163 4.96582 3.7959C5.19712 3.47754 5.47754 3.19712 5.7959 2.96582C6.78163 2.2498 8.18792 2.25 11 2.25H12.25V3ZM13.25 11C12.9058 11 12.6059 11.2345 12.5225 11.5684C12.2937 12.4835 11.9692 13.0952 11.5322 13.5322C11.0952 13.9692 10.4835 14.2937 9.56836 14.5225C9.23448 14.6059 9 14.9058 9 15.25C9 15.5942 9.23448 15.8941 9.56836 15.9775C10.4835 16.2063 11.0952 16.5308 11.5322 16.9678C11.9692 17.4048 12.2937 18.0165 12.5225 18.9316C12.6059 19.2655 12.9058 19.5 13.25 19.5C13.5942 19.5 13.8941 19.2655 13.9775 18.9316C14.2063 18.0165 14.5308 17.4048 14.9678 16.9678C15.4048 16.5308 16.0165 16.2063 16.9316 15.9775C17.2655 15.8941 17.5 15.5942 17.5 15.25C17.5 14.9058 17.2655 14.6059 16.9316 14.5225C16.0165 14.2937 15.4048 13.9692 14.9678 13.5322C14.5308 13.0952 14.2063 12.4835 13.9775 11.5684C13.8941 11.2345 13.5942 11 13.25 11ZM9 8.5C8.65585 8.5 8.35593 8.73448 8.27246 9.06836C8.16866 9.48345 8.03173 9.72022 7.87598 9.87598C7.72022 10.0317 7.48345 10.1687 7.06836 10.2725C6.73448 10.3559 6.5 10.6558 6.5 11C6.5 11.3442 6.73448 11.6441 7.06836 11.7275C7.48345 11.8313 7.72022 11.9683 7.87598 12.124C8.03173 12.2798 8.16866 12.5165 8.27246 12.9316C8.35593 13.2655 8.65585 13.5 9 13.5C9.34415 13.5 9.64407 13.2655 9.72754 12.9316C9.83134 12.5165 9.96827 12.2798 10.124 12.124C10.2798 11.9683 10.5165 11.8313 10.9316 11.7275C11.2655 11.6441 11.5 11.3442 11.5 11C11.5 10.6558 11.2655 10.3559 10.9316 10.2725C10.5165 10.1687 10.2798 10.0317 10.124 9.87598C9.96827 9.72022 9.83134 9.48345 9.72754 9.06836C9.64407 8.73448 9.34415 8.5 9 8.5ZM19.75 8.25H17.7998C16.1127 8.25 15.2692 8.24988 14.6777 7.82031C14.4867 7.68153 14.3185 7.51328 14.1797 7.32227C13.7501 6.73085 13.75 5.88728 13.75 4.2002V2.25L19.75 8.25Z" fill="#F3AE2E"/>
</svg>
