<svg width="24" height="24" viewBox="0 0 24 24" fill="none" xmlns="http://www.w3.org/2000/svg">
<g clip-path="url(#clip0_2404_30421)">
<path fill-rule="evenodd" clip-rule="evenodd" d="M11.1999 1.60013C5.01436 1.60013 0 6.61448 0 12.8C0 18.9856 5.01436 24 11.1999 24C17.3854 24 22.3998 18.9856 22.3998 12.8C22.3998 11.2962 22.1028 9.86184 21.5652 8.55183L21.4652 8.65177C21.2041 8.91291 20.8606 9.07603 20.493 9.11264L19.2739 9.23414C19.7562 10.3245 20.0245 11.5307 20.0245 12.7997C20.0245 17.6734 16.0736 21.6243 11.1999 21.6243C6.32625 21.6243 2.37534 17.6734 2.37534 12.7997C2.37534 7.92605 6.3262 3.97523 11.1999 3.97523C12.4684 3.97523 13.6741 4.24341 14.7643 4.72533L14.8857 3.50728C14.9224 3.13964 15.0861 2.79572 15.3472 2.53458L15.4474 2.43445C14.1374 1.89713 12.7035 1.60013 11.1999 1.60013ZM15.2831 7.58409L15.6817 3.58669C15.7006 3.40266 15.7831 3.23119 15.9129 3.10027L18.7789 0.234141C19.0006 0.0138283 19.3285 -0.058828 19.621 0.0496877C19.9135 0.157735 20.1187 0.426375 20.1423 0.737297L20.3688 3.62977L23.2631 3.85725C23.5721 3.88177 23.841 4.08478 23.9495 4.3778C24.058 4.67072 23.9849 4.99978 23.7655 5.22028L20.8995 8.08622C20.7697 8.21723 20.5976 8.29823 20.4136 8.31675L16.4153 8.71528L11.766 13.3657C11.6103 13.5217 11.4051 13.6002 11.1998 13.6002C10.9946 13.6002 10.7894 13.5217 10.6337 13.3657C10.3223 13.0532 10.3223 12.5467 10.6337 12.2342L15.2831 7.58409ZM11.1999 9.60009C11.4862 9.60009 11.7637 9.63792 12.0278 9.70847L10.068 11.6685C9.44423 12.2924 9.44447 13.3057 10.0672 13.9304C10.3677 14.2317 10.7745 14.4 11.1999 14.4C11.6249 14.4 12.0312 14.2317 12.3317 13.9311L14.2912 11.9712C14.3619 12.2356 14.3998 12.5134 14.3998 12.8C14.3998 14.5673 12.9671 16 11.1998 16C9.43256 16 7.99988 14.5673 7.99988 12.8C7.99997 11.0328 9.43261 9.60009 11.1999 9.60009ZM11.1999 5.57517C12.4272 5.57517 13.5828 5.88164 14.5951 6.42155L14.5154 7.22044L13.2684 8.46759C12.642 8.16797 11.9406 8.00006 11.1999 8.00006C8.54897 8.00006 6.39998 10.149 6.39998 12.8C6.39998 15.4509 8.54897 17.5999 11.1999 17.5999C13.8508 17.5999 15.9998 15.4509 15.9998 12.8C15.9998 12.0588 15.8317 11.357 15.5317 10.7303L16.779 9.48281L17.5774 9.40322C18.1179 10.4157 18.4245 11.5719 18.4245 12.7997C18.4245 16.7898 15.1899 20.0244 11.1999 20.0244C7.20984 20.0244 3.97523 16.7898 3.97523 12.7997C3.97523 8.80964 7.20984 5.57517 11.1999 5.57517Z" fill="#051427"/>
</g>
<defs>
<clipPath id="clip0_2404_30421">
<rect width="24" height="24" fill="white"/>
</clipPath>
</defs>
</svg>
