<svg width="20" height="20" viewBox="0 0 20 20" fill="none" xmlns="http://www.w3.org/2000/svg">
<path fill-rule="evenodd" clip-rule="evenodd" d="M10.2314 8.87676L2.8979 16.2103C2.65382 16.4543 2.65382 16.8501 2.8979 17.0941C3.14198 17.3382 3.53771 17.3382 3.78179 17.0941L11.1155 9.76046C11.0882 9.63085 11.0601 9.49603 11.0309 9.35593L10.9628 9.02952L10.6364 8.96143C10.4961 8.93217 10.3612 8.90401 10.2314 8.87676Z" fill="#F3AE2E"/>
<path d="M13.2072 3.9317C12.2377 2.96218 11.7529 2.47742 11.4278 2.39107C10.7889 2.2214 10.1284 2.57841 9.92043 3.20581C9.81456 3.52512 9.95456 4.19623 10.2345 5.53845C8.99164 6.12265 8.37018 6.41475 8.17542 6.72179C7.85856 7.22133 7.93525 7.87459 8.35919 8.28716C8.61977 8.54075 9.29198 8.68098 10.6364 8.96143L10.9628 9.02952L11.0309 9.35593C11.3114 10.7003 11.4516 11.3726 11.7052 11.6331C12.1177 12.0571 12.771 12.1338 13.2705 11.8169C13.5776 11.6221 13.8697 11.0007 14.4539 9.75778C15.7961 10.0378 16.4672 10.1778 16.7865 10.0719C17.4139 9.86389 17.7709 9.20338 17.6013 8.56455C17.5149 8.23941 17.0302 7.75465 16.0606 6.78513L15.9181 6.6426C16.5762 5.24251 16.9052 4.54246 16.8076 4.12069C16.7 3.65556 16.3368 3.29236 15.8716 3.18471C15.4499 3.08711 14.7498 3.41615 13.3497 4.07423L13.2072 3.9317Z" fill="#F3AE2E"/>
</svg>
