<svg width="24" height="24" viewBox="0 0 24 24" fill="none" xmlns="http://www.w3.org/2000/svg">
<path d="M14.5 3.25C16.8306 3.25 17.9961 3.25031 18.9082 3.65039C19.9995 4.12915 20.8709 5.0005 21.3496 6.0918C21.7497 7.00388 21.75 8.16935 21.75 10.5C21.75 12.8306 21.7497 13.9961 21.3496 14.9082C20.8709 15.9995 19.9995 16.8709 18.9082 17.3496C17.9961 17.7497 16.8306 17.75 14.5 17.75H12.1768L7.63086 20.0234C6.53951 20.5691 5.99345 20.842 5.6543 20.666C5.54929 20.6115 5.45848 20.5327 5.38965 20.4365C5.16739 20.1257 5.36019 19.5464 5.74609 18.3887L6.00488 17.6113C5.66154 17.5525 5.36512 17.4695 5.0918 17.3496C4.0005 16.8709 3.12915 15.9995 2.65039 14.9082C2.25031 13.9961 2.25 12.8306 2.25 10.5C2.25 8.16935 2.25031 7.00388 2.65039 6.0918C3.12915 5.0005 4.0005 4.12915 5.0918 3.65039C6.00388 3.25031 7.16935 3.25 9.5 3.25H14.5ZM8 11.25C7.58579 11.25 7.25 11.5858 7.25 12C7.25 12.4142 7.58579 12.75 8 12.75H16C16.4142 12.75 16.75 12.4142 16.75 12C16.75 11.5858 16.4142 11.25 16 11.25H8ZM8 8.25C7.58579 8.25 7.25 8.58579 7.25 9C7.25 9.41421 7.58579 9.75 8 9.75H13C13.4142 9.75 13.75 9.41421 13.75 9C13.75 8.58579 13.4142 8.25 13 8.25H8Z" fill="#F3AE2E"/>
</svg>
