<svg width="22" height="26" viewBox="0 0 22 26" fill="none" xmlns="http://www.w3.org/2000/svg">
<path d="M15 0C15.5523 0 16 0.447715 16 1C16 2.48748 15.6274 3.78668 14.707 4.70703C14.6624 4.75167 14.6167 4.79483 14.5703 4.83691C16.2521 5.64749 17.7204 6.98803 18.8818 8.5957C20.8139 11.2701 21.9999 14.8081 22 18.333C22 22.3887 19.2278 26 15.4443 26H6.55566C2.77216 26 0 22.3887 0 18.333C7.3165e-05 14.8081 1.18606 11.2701 3.11816 8.5957C4.27961 6.98803 5.74786 5.64749 7.42969 4.83691C7.38329 4.79484 7.3376 4.75167 7.29297 4.70703C6.37262 3.78668 6 2.48748 6 1C6 0.447715 6.44772 0 7 0H15ZM11 8.91699C10.5858 8.91699 10.25 9.25278 10.25 9.66699V10.25H9.33301C7.63028 10.2502 6.25 11.6312 6.25 13.334C6.25035 15.0365 7.6305 16.4168 9.33301 16.417H10.25V19.584H9.33301C8.45881 19.5838 7.75018 18.8742 7.75 18C7.74982 17.5859 7.41411 17.25 7 17.25C6.58589 17.25 6.25018 17.5859 6.25 18C6.25018 19.7026 7.63039 21.0838 9.33301 21.084H10.25V21.667C10.2502 22.0811 10.5859 22.417 11 22.417C11.4141 22.417 11.7498 22.0811 11.75 21.667V21.084H12.667C14.3696 21.0838 15.7498 19.7026 15.75 18C15.7498 16.2974 14.3696 14.9172 12.667 14.917H11.75V11.75H12.6729C13.5436 11.75 14.25 12.4564 14.25 13.3271V13.334C14.2504 13.7479 14.586 14.084 15 14.084C15.414 14.084 15.7496 13.7479 15.75 13.334V13.3271C15.75 11.628 14.372 10.25 12.6729 10.25H11.75V9.66699C11.75 9.25278 11.4142 8.91699 11 8.91699ZM12.667 16.417C13.5412 16.4172 14.2498 17.1258 14.25 18C14.2498 18.8742 13.5412 19.5838 12.667 19.584H11.75V16.417H12.667ZM10.25 11.75V14.917H9.33301C8.45892 14.9168 7.75035 14.208 7.75 13.334C7.75 12.4596 8.45871 11.7502 9.33301 11.75H10.25Z" fill="#F3AE2E"/>
</svg>
