<svg width="24" height="24" viewBox="0 0 24 24" fill="none" xmlns="http://www.w3.org/2000/svg">
<path d="M14.5498 2.25C17.5496 2.25 19.0501 2.24974 20.1016 3.01367C20.441 3.26033 20.7397 3.55897 20.9863 3.89844C21.7503 4.9499 21.75 6.45041 21.75 9.4502V14.5498C21.75 17.5496 21.7503 19.0501 20.9863 20.1016C20.7397 20.441 20.441 20.7397 20.1016 20.9863C19.0501 21.7503 17.5496 21.75 14.5498 21.75H9.4502C6.45041 21.75 4.9499 21.7503 3.89844 20.9863C3.55897 20.7397 3.26033 20.441 3.01367 20.1016C2.24974 19.0501 2.25 17.5496 2.25 14.5498V9.4502C2.25 6.45041 2.24974 4.9499 3.01367 3.89844C3.26033 3.55897 3.55897 3.26033 3.89844 3.01367C4.9499 2.24974 6.45041 2.25 9.4502 2.25H14.5498ZM7.87305 13.0928C7.45161 13.5142 7.24118 13.7255 7.06738 13.9648C7.0096 14.0444 6.95467 14.1261 6.90332 14.21C6.74889 14.4623 6.6348 14.7382 6.40723 15.2891L6.14746 15.917C5.66987 17.073 5.43122 17.6513 5.63574 17.9785C5.69902 18.0797 5.78609 18.1645 5.88867 18.2256C6.22039 18.4226 6.79332 18.1707 7.93848 17.668L8.58789 17.3828C9.10252 17.1569 9.36045 17.0444 9.59668 16.8955C9.67514 16.846 9.75159 16.7934 9.82617 16.7383C10.0507 16.5722 10.2499 16.3731 10.6475 15.9756L15.8916 10.7314L13.0605 7.90527L7.87305 13.0928ZM18.1768 5.61719C17.3957 4.83639 16.1296 4.83625 15.3486 5.61719L14.1221 6.84473L16.9473 9.6748L18.1768 8.44531C18.9578 7.66425 18.9578 6.39822 18.1768 5.61719Z" fill="#C3CCD8"/>
</svg>
