<svg width="20" height="20" viewBox="0 0 20 20" fill="none" xmlns="http://www.w3.org/2000/svg">
<path d="M12.5498 0.25C15.5496 0.25 17.0501 0.24974 18.1016 1.01367C18.441 1.26033 18.7397 1.55897 18.9863 1.89844C19.7503 2.9499 19.75 4.45041 19.75 7.4502V12.5498C19.75 15.5496 19.7503 17.0501 18.9863 18.1016C18.7397 18.441 18.441 18.7397 18.1016 18.9863C17.0501 19.7503 15.5496 19.75 12.5498 19.75H7.4502C4.45041 19.75 2.9499 19.7503 1.89844 18.9863C1.55897 18.7397 1.26033 18.441 1.01367 18.1016C0.24974 17.0501 0.25 15.5496 0.25 12.5498V7.4502C0.25 4.45041 0.24974 2.9499 1.01367 1.89844C1.26033 1.55897 1.55897 1.26033 1.89844 1.01367C2.9499 0.24974 4.45041 0.25 7.4502 0.25H12.5498ZM14.5303 5.46973C14.2557 5.19512 13.8209 5.17766 13.5264 5.41797L13.4697 5.46973L5.46973 13.4697C5.17683 13.7626 5.17683 14.2374 5.46973 14.5303C5.76262 14.8232 6.23738 14.8232 6.53027 14.5303L14.5303 6.53027L14.582 6.47363C14.8223 6.17905 14.8049 5.74433 14.5303 5.46973ZM12.75 10.75C11.6454 10.75 10.75 11.6454 10.75 12.75C10.75 13.8546 11.6454 14.75 12.75 14.75C13.8546 14.75 14.75 13.8546 14.75 12.75C14.75 11.6454 13.8546 10.75 12.75 10.75ZM7.25 5.25C6.14543 5.25 5.25 6.14543 5.25 7.25C5.25 8.35457 6.14543 9.25 7.25 9.25C8.35457 9.25 9.25 8.35457 9.25 7.25C9.25 6.14543 8.35457 5.25 7.25 5.25Z" fill="#F3AE2E"/>
</svg>
