<svg width="18" height="18" viewBox="0 0 18 18" fill="none" xmlns="http://www.w3.org/2000/svg">
<path d="M6.9209 1.95097C5.53781 0.568426 3.29548 0.568426 1.9124 1.95097C1.13558 2.72748 0.795291 3.77573 0.890655 4.78817C0.916165 7.50697 2.33653 10.6218 4.85867 13.143C7.38084 15.6642 10.4968 17.0839 13.2164 17.1093C14.229 17.2047 15.2776 16.8646 16.0544 16.0881C17.4376 14.7054 17.4376 12.4636 16.0544 11.0809C14.6713 9.69832 12.4289 9.69832 11.0459 11.0809C10.7191 11.4075 10.4693 11.7827 10.2968 12.1833C9.43484 11.6481 8.5918 10.984 7.80478 10.1973C7.01791 9.41077 6.3537 8.56824 5.81839 7.70685C6.21898 7.53443 6.59421 7.28477 6.9209 6.95821C8.30412 5.57553 8.30412 3.33365 6.9209 1.95097Z" fill="#1CC1AD"/>
</svg>
