<svg width="20" height="20" viewBox="0 0 20 20" fill="none" xmlns="http://www.w3.org/2000/svg">
<path d="M12.5498 0.25C15.5496 0.25 17.0501 0.24974 18.1016 1.01367C18.441 1.26033 18.7397 1.55897 18.9863 1.89844C19.7503 2.9499 19.75 4.45041 19.75 7.4502V12.5498C19.75 15.5496 19.7503 17.0501 18.9863 18.1016C18.7397 18.441 18.441 18.7397 18.1016 18.9863C17.0501 19.7503 15.5496 19.75 12.5498 19.75H7.4502C4.45041 19.75 2.9499 19.7503 1.89844 18.9863C1.55897 18.7397 1.26033 18.441 1.01367 18.1016C0.24974 17.0501 0.25 15.5496 0.25 12.5498V7.4502C0.25 4.45041 0.24974 2.9499 1.01367 1.89844C1.26033 1.55897 1.55897 1.26033 1.89844 1.01367C2.9499 0.24974 4.45041 0.25 7.4502 0.25H12.5498ZM10 13C9.44771 13 9 13.4477 9 14C9 14.5523 9.44771 15 10 15C10.5523 15 11 14.5523 11 14C11 13.4477 10.5523 13 10 13ZM10 5C8.37138 5 7 6.27674 7 7.91309C7.00019 8.32714 7.3359 8.66309 7.75 8.66309C8.1641 8.66309 8.49981 8.32714 8.5 7.91309C8.5 7.16054 9.14334 6.5 10 6.5C10.8567 6.5 11.5 7.16054 11.5 7.91309C11.4999 8.31353 11.3222 8.68207 11.0244 8.94434L10.8896 9.0498C10.7715 9.13203 10.6623 9.18503 10.4541 9.30273C10.3192 9.379 10.151 9.47934 9.98633 9.61719L9.82422 9.76758C9.34892 10.2614 9.25976 10.8549 9.25 11.3203V11.5117L9.25488 11.5879C9.29897 11.9656 9.62333 12.256 10.0117 12.25C10.3998 12.2439 10.7144 11.944 10.7471 11.5654L10.75 11.4883L10.7568 11.2236C10.7748 11.0001 10.826 10.8899 10.9053 10.8076L11.0117 10.7197C11.0578 10.6876 11.1162 10.6515 11.1924 10.6084C11.3165 10.5382 11.5513 10.4168 11.7461 10.2812L11.8848 10.1797C12.5585 9.65096 12.9999 8.83604 13 7.91309C13 6.27674 11.6286 5 10 5Z" fill="#F3AE2E"/>
</svg>
