<svg width="12" height="20" viewBox="0 0 12 20" fill="none" xmlns="http://www.w3.org/2000/svg">
<path d="M5.43642 14.6027C5.07882 14.6027 4.78962 14.3135 4.78962 13.9559C4.78962 13.1099 4.90962 12.3791 5.14842 11.7647C5.32362 11.3015 5.60802 10.8347 5.99922 10.3631C6.28722 10.0199 6.80322 9.51831 7.54962 8.86071C8.29602 8.20191 8.78082 7.67751 9.00522 7.28631C9.22962 6.89511 9.34002 6.46791 9.34002 6.00471C9.34002 5.16591 9.01242 4.43031 8.35842 3.79551C7.70442 3.16071 6.90162 2.84391 5.95122 2.84391C5.03322 2.84391 4.26642 3.13191 3.65202 3.70671C3.20322 4.12671 2.86602 4.71951 2.64282 5.48511C2.48922 6.01071 1.97682 6.34671 1.43322 6.28191C0.744421 6.20031 0.290821 5.51871 0.487621 4.85271C0.790021 3.82911 1.29642 3.00471 2.00562 2.37831C2.99082 1.50591 4.29402 1.07031 5.91522 1.07031C7.63122 1.07031 9.00042 1.53711 10.0228 2.47191C11.0452 3.40671 11.5552 4.53591 11.5552 5.86071C11.5552 6.62751 11.3752 7.33431 11.0164 7.97991C10.6576 8.62671 9.95442 9.41271 8.90922 10.3391C8.20722 10.9619 7.74762 11.4215 7.53162 11.7167C7.31562 12.0119 7.15602 12.3515 7.05282 12.7343C6.97602 13.0187 6.92322 13.4363 6.89442 13.9847C6.87642 14.3303 6.58962 14.6015 6.24402 14.6015H5.43642V14.6027ZM4.66962 17.6987C4.66962 17.0207 5.21922 16.4711 5.89722 16.4711C6.57522 16.4711 7.12482 17.0207 7.12482 17.6987C7.12482 18.3767 6.57522 18.9263 5.89722 18.9263C5.21922 18.9263 4.66962 18.3767 4.66962 17.6987Z" fill="#1CC1AD"/>
<path d="M7.12637 17.7002C7.12613 17.0647 6.64284 16.5422 6.02383 16.4795L5.89883 16.4727C5.22099 16.4727 4.67154 17.0224 4.67129 17.7002L4.67715 17.8262C4.7358 18.4039 5.19518 18.8631 5.77285 18.9219L5.89883 18.9287C6.53434 18.9286 7.05667 18.4451 7.11953 17.8262L7.12637 17.7002ZM11.557 5.8623C11.5569 4.62055 11.1086 3.5504 10.2104 2.65137L10.0238 2.47363C9.06527 1.59735 7.80195 1.13275 6.23379 1.07812L5.91641 1.07227C4.29547 1.0723 2.99235 1.50771 2.00723 2.37988L1.75039 2.62402C1.17417 3.21546 0.753295 3.9588 0.488673 4.85449L0.459376 4.97949C0.349549 5.60345 0.789198 6.20768 1.43496 6.28418C1.9446 6.34475 2.42705 6.0529 2.61172 5.58301L2.64395 5.4873C2.83929 4.81725 3.12225 4.27936 3.49063 3.87402L3.65371 3.70898C4.2681 3.1342 5.03457 2.84571 5.95254 2.8457L6.1293 2.84961C7.00289 2.88679 7.7467 3.20278 8.35977 3.79785C9.01365 4.43261 9.34121 5.16811 9.34121 6.00684L9.33633 6.17871C9.31213 6.57613 9.2026 6.94579 9.00625 7.28809L8.91055 7.44141C8.65726 7.81281 8.20413 8.28596 7.55117 8.8623L7.03457 9.32617C6.56089 9.7609 6.21644 10.1078 6.00039 10.3652C5.60929 10.8367 5.32498 11.3035 5.14981 11.7666C4.91101 12.381 4.79141 13.112 4.79141 13.958L4.8041 14.0879C4.85559 14.3408 5.05421 14.5401 5.30703 14.5918L5.43789 14.6045V14.6035H6.24551L6.37149 14.5908C6.61731 14.5424 6.8149 14.3553 6.87637 14.1123L6.8959 13.9863C6.9175 13.5752 6.95279 13.2377 7.00137 12.9746L7.0541 12.7363C7.1315 12.4492 7.24041 12.1862 7.38125 11.9482L7.53262 11.7188C7.6946 11.4974 7.99364 11.1831 8.4291 10.7773L8.91055 10.3408C9.82533 9.53001 10.4784 8.82698 10.8676 8.23047L11.018 7.98145C11.3318 7.41667 11.5089 6.80509 11.5482 6.14746L11.557 5.8623ZM7.52578 17.7002C7.52578 18.599 6.79763 19.328 5.89883 19.3281C4.99991 19.3281 4.2709 18.5991 4.2709 17.7002C4.27115 16.8015 5.00007 16.0732 5.89883 16.0732C6.79747 16.0734 7.52553 16.8016 7.52578 17.7002ZM11.9564 5.8623C11.9564 6.59069 11.8062 7.27478 11.5053 7.9082L11.3676 8.17578C11.0241 8.79492 10.411 9.50199 9.55703 10.2949L9.17617 10.6406C8.47255 11.2649 8.04342 11.6988 7.85586 11.9551C7.71748 12.1442 7.60444 12.3569 7.51797 12.5947L7.44082 12.8408C7.3916 13.0231 7.35012 13.2846 7.3207 13.6318L7.29531 14.0078C7.26604 14.5664 6.80309 15.0038 6.24551 15.0039H5.83731V15.0049H5.43789C4.85943 15.0049 4.39109 14.5365 4.39102 13.958C4.39102 13.0758 4.51586 12.2935 4.77676 11.6221C4.97109 11.1095 5.28107 10.6057 5.69277 10.1094L5.69375 10.1084L5.96816 9.80371C6.28397 9.47196 6.72534 9.05692 7.28652 8.5625L7.7875 8.10254C8.23424 7.6729 8.51767 7.33625 8.65957 7.08887C8.84759 6.76098 8.94177 6.40311 8.9418 6.00684C8.9418 5.28665 8.66531 4.65184 8.08145 4.08496C7.50574 3.52616 6.80412 3.24609 5.95254 3.24609C5.22945 3.2461 4.62927 3.442 4.1332 3.8252L3.92715 4.00098C3.54389 4.35964 3.23656 4.88245 3.02773 5.59863V5.59961C2.83183 6.26926 2.20849 6.71107 1.52481 6.69141L1.38711 6.68066C0.454559 6.56991 -0.161743 5.64682 0.10586 4.74121L0.235743 4.34277C0.565354 3.43488 1.0668 2.67696 1.74258 2.08008C2.81681 1.12923 4.22175 0.671908 5.91641 0.671875C7.70726 0.671875 9.1816 1.16132 10.2943 2.17871C11.3953 3.1854 11.9564 4.41995 11.9564 5.8623Z" fill="#1CC1AD"/>
</svg>
