<svg width="20" height="20" viewBox="0 0 20 20" fill="none" xmlns="http://www.w3.org/2000/svg">
<path d="M2.5 4.7915H4.16667M8.75 4.7915L17.5 4.7915M2.5 15.2082H4.16667M8.75 15.2082L17.5 15.2082M17.5 9.99984H15.8333M11.25 9.99984L2.5 9.99984" stroke="#C3CCD8" stroke-width="1.5" stroke-linecap="round" stroke-linejoin="round"/>
<path d="M3.54102 4.79167C3.54102 3.18084 4.84685 1.875 6.45768 1.875C8.06851 1.875 9.37435 3.18084 9.37435 4.79167C9.37435 6.4025 8.06851 7.70833 6.45768 7.70833C4.84685 7.70833 3.54102 6.4025 3.54102 4.79167Z" fill="#C3CCD8"/>
<path d="M3.54102 15.2083C3.54102 13.5975 4.84685 12.2917 6.45768 12.2917C8.06851 12.2917 9.37435 13.5975 9.37435 15.2083C9.37435 16.8192 8.06851 18.125 6.45768 18.125C4.84685 18.125 3.54102 16.8192 3.54102 15.2083Z" fill="#C3CCD8"/>
<path d="M10.6243 10C10.6243 8.38917 11.9302 7.08333 13.541 7.08333C15.1518 7.08333 16.4577 8.38917 16.4577 10C16.4577 11.6108 15.1518 12.9167 13.541 12.9167C11.9302 12.9167 10.6243 11.6108 10.6243 10Z" fill="#C3CCD8"/>
</svg>
