<svg width="18" height="18" viewBox="0 0 18 18" fill="none" xmlns="http://www.w3.org/2000/svg">
<path d="M8.27239 2.3181C8.35586 1.98422 8.65585 1.75 9 1.75C9.34415 1.75 9.64414 1.98422 9.72761 2.3181C10.1707 4.09048 10.8165 5.34513 11.7357 6.26431C12.6549 7.18349 13.9095 7.8293 15.6819 8.27239C16.0158 8.35586 16.25 8.65585 16.25 9C16.25 9.34415 16.0158 9.64414 15.6819 9.72761C13.9095 10.1707 12.6549 10.8165 11.7357 11.7357C10.8165 12.6549 10.1707 13.9095 9.72761 15.6819C9.64414 16.0158 9.34415 16.25 9 16.25C8.65585 16.25 8.35586 16.0158 8.27239 15.6819C7.8293 13.9095 7.18349 12.6549 6.26431 11.7357C5.34514 10.8165 4.09048 10.1707 2.3181 9.72761C1.98422 9.64414 1.75 9.34415 1.75 9C1.75 8.65585 1.98422 8.35586 2.3181 8.27239C4.09048 7.8293 5.34513 7.18349 6.26431 6.26431C7.18349 5.34513 7.8293 4.09048 8.27239 2.3181Z" fill="#F3AE2E"/>
<path d="M2.52239 12.8181C2.60586 12.4842 2.90585 12.25 3.25 12.25C3.59415 12.25 3.89414 12.4842 3.97761 12.8181C4.08142 13.2333 4.2183 13.4701 4.37408 13.6259C4.52986 13.7817 4.76667 13.9186 5.1819 14.0224C5.51578 14.1059 5.75 14.4058 5.75 14.75C5.75 15.0942 5.51578 15.3941 5.1819 15.4776C4.76667 15.5814 4.52986 15.7183 4.37408 15.8741C4.2183 16.0299 4.08142 16.2667 3.97761 16.6819C3.89414 17.0158 3.59415 17.25 3.25 17.25C2.90585 17.25 2.60586 17.0158 2.52239 16.6819C2.41858 16.2667 2.2817 16.0299 2.12592 15.8741C1.97014 15.7183 1.73333 15.5814 1.3181 15.4776C0.984223 15.3941 0.75 15.0942 0.75 14.75C0.75 14.4058 0.984223 14.1059 1.3181 14.0224C1.73333 13.9186 1.97014 13.7817 2.12592 13.6259C2.2817 13.4701 2.41858 13.2333 2.52239 12.8181Z" fill="#F3AE2E"/>
<path d="M15.4776 5.1819C15.3941 5.51578 15.0942 5.75 14.75 5.75C14.4058 5.75 14.1059 5.51578 14.0224 5.1819C13.9186 4.76666 13.7817 4.52986 13.6259 4.37408C13.4701 4.2183 13.2333 4.08142 12.8181 3.97761C12.4842 3.89414 12.25 3.59415 12.25 3.25C12.25 2.90585 12.4842 2.60586 12.8181 2.52239C13.2333 2.41858 13.4701 2.2817 13.6259 2.12592C13.7817 1.97013 13.9186 1.73334 14.0224 1.3181C14.1059 0.984222 14.4058 0.75 14.75 0.75C15.0942 0.75 15.3941 0.984222 15.4776 1.3181C15.5814 1.73334 15.7183 1.97013 15.8741 2.12592C16.0299 2.2817 16.2667 2.41858 16.6819 2.52239C17.0158 2.60586 17.25 2.90585 17.25 3.25C17.25 3.59415 17.0158 3.89414 16.6819 3.97761C16.2667 4.08142 16.0299 4.2183 15.8741 4.37408C15.7183 4.52986 15.5814 4.76666 15.4776 5.1819Z" fill="#F3AE2E"/>
</svg>
