<svg width="20" height="20" viewBox="0 0 20 20" fill="none" xmlns="http://www.w3.org/2000/svg">
<path d="M11.2002 0.25C14.7623 0.25 16.5434 0.250074 17.792 1.15723C18.1952 1.45019 18.5498 1.80478 18.8428 2.20801C19.7499 3.4566 19.75 5.23769 19.75 8.7998V11.2002C19.75 14.7623 19.7499 16.5434 18.8428 17.792C18.5498 18.1952 18.1952 18.5498 17.792 18.8428C16.5434 19.7499 14.7623 19.75 11.2002 19.75H8.7998C5.23769 19.75 3.4566 19.7499 2.20801 18.8428C1.80478 18.5498 1.45019 18.1952 1.15723 17.792C0.250074 16.5434 0.25 14.7623 0.25 11.2002V8.7998C0.25 5.23769 0.250074 3.4566 1.15723 2.20801C1.45019 1.80478 1.80478 1.45019 2.20801 1.15723C3.4566 0.250074 5.23769 0.25 8.7998 0.25H11.2002ZM13.25 10.75C12.9058 10.75 12.6059 10.9845 12.5225 11.3184C12.4187 11.7335 12.2817 11.9702 12.126 12.126C11.9702 12.2817 11.7335 12.4187 11.3184 12.5225C10.9845 12.6059 10.75 12.9058 10.75 13.25C10.75 13.5942 10.9845 13.8941 11.3184 13.9775C11.7335 14.0813 11.9702 14.2183 12.126 14.374C12.2817 14.5298 12.4187 14.7665 12.5225 15.1816C12.6059 15.5155 12.9058 15.75 13.25 15.75C13.5942 15.75 13.8941 15.5155 13.9775 15.1816C14.0813 14.7665 14.2183 14.5298 14.374 14.374C14.5298 14.2183 14.7665 14.0813 15.1816 13.9775C15.5155 13.8941 15.75 13.5942 15.75 13.25C15.75 12.9058 15.5155 12.6059 15.1816 12.5225C14.7665 12.4187 14.5298 12.2817 14.374 12.126C14.2183 11.9702 14.0813 11.7335 13.9775 11.3184C13.8941 10.9845 13.5942 10.75 13.25 10.75ZM8.5 4.25C8.15585 4.25 7.85593 4.48448 7.77246 4.81836C7.54365 5.73347 7.21922 6.34523 6.78223 6.78223C6.34523 7.21922 5.73347 7.54365 4.81836 7.77246C4.48448 7.85593 4.25 8.15585 4.25 8.5C4.25 8.84415 4.48448 9.14407 4.81836 9.22754C5.73347 9.45635 6.34523 9.78078 6.78223 10.2178C7.21922 10.6548 7.54365 11.2665 7.77246 12.1816C7.85593 12.5155 8.15585 12.75 8.5 12.75C8.84415 12.75 9.14407 12.5155 9.22754 12.1816C9.45635 11.2665 9.78078 10.6548 10.2178 10.2178C10.6548 9.78078 11.2665 9.45635 12.1816 9.22754C12.5155 9.14407 12.75 8.84415 12.75 8.5C12.75 8.15585 12.5155 7.85593 12.1816 7.77246C11.2665 7.54365 10.6548 7.21922 10.2178 6.78223C9.78078 6.34523 9.45635 5.73347 9.22754 4.81836C9.14407 4.48448 8.84415 4.25 8.5 4.25Z" fill="#F3AE2E"/>
</svg>
