<svg width="22" height="22" viewBox="0 0 22 22" fill="none" xmlns="http://www.w3.org/2000/svg">
<path d="M21.6684 13.661C20.1993 19.5539 14.2307 23.1402 8.33711 21.6707C2.44597 20.2015 -1.14034 14.2326 0.329434 8.34017C1.79792 2.44661 7.76649 -1.13997 13.6583 0.329158C19.5515 1.79829 23.1376 7.76788 21.6683 13.6611L21.6684 13.661H21.6684Z" fill="#50AF95"/>
<path fill-rule="evenodd" clip-rule="evenodd" d="M12.3931 12.2466C12.3154 12.2525 11.9135 12.2764 11.0171 12.2764C10.3041 12.2764 9.79789 12.2551 9.62029 12.2466C6.86494 12.1254 4.80831 11.6458 4.80831 11.0715C4.80831 10.4972 6.86494 10.0182 9.62029 9.89508V11.7689C9.80048 11.7819 10.3164 11.8124 11.0294 11.8124C11.885 11.8124 12.3134 11.7767 12.3906 11.7696V9.89637C15.1401 10.0189 17.1922 10.4985 17.1922 11.0715C17.1922 11.6445 15.1407 12.1241 12.3906 12.246L12.3931 12.2466ZM12.3931 9.70257V8.02577H16.2303V5.46875H5.78315V8.02577H9.61964V9.70192C6.50132 9.84517 4.15625 10.4629 4.15625 11.2031C4.15625 11.9433 6.50132 12.5603 9.61964 12.7042V18.0775H12.3925V12.7023C15.5037 12.559 17.8449 11.942 17.8449 11.2024C17.8449 10.4629 15.5056 9.84582 12.3925 9.70192L12.3931 9.70257Z" fill="white"/>
</svg>
