<svg width="20" height="20" viewBox="0 0 20 20" fill="none" xmlns="http://www.w3.org/2000/svg">
<path d="M14.375 10C16.4461 10 18.125 11.6789 18.125 13.75C18.125 15.8211 16.4461 17.5 14.375 17.5C12.3039 17.5 10.625 15.8211 10.625 13.75C10.625 11.6789 12.3039 10 14.375 10ZM16.6006 12.208C16.3247 11.8998 15.8507 11.8729 15.542 12.1484L13.7471 13.749L13.249 13.2305L13.1934 13.1777C12.9037 12.9317 12.4686 12.9401 12.1885 13.209C11.9088 13.4777 11.8826 13.9116 12.1162 14.2109L12.167 14.2695L13.167 15.3105C13.4465 15.6017 13.9069 15.6194 14.208 15.3506L16.541 13.2676C16.85 12.9917 16.8764 12.517 16.6006 12.208Z" fill="#1CC1AD"/>
<path d="M10.4162 9.375C10.8609 9.375 11.298 9.42222 11.7218 9.51172C10.3124 10.3959 9.37516 11.9634 9.37516 13.75C9.37516 15.6333 10.417 17.2724 11.9552 18.125H5.38786C2.88724 18.125 1.18869 15.5837 2.14567 13.2734C3.1233 10.9137 5.42636 9.37503 7.98063 9.375H10.4162ZM9.20231 1.875C10.9282 1.875 12.3273 3.27411 12.3273 5C12.3273 6.72589 10.9282 8.125 9.20231 8.125C7.47654 8.12486 6.07731 6.7258 6.07731 5C6.07731 3.2742 7.47654 1.87514 9.20231 1.875Z" fill="#1CC1AD"/>
</svg>
