<svg width="20" height="20" viewBox="0 0 20 20" fill="none" xmlns="http://www.w3.org/2000/svg">
<path d="M10.9248 1.875C13.9246 1.875 15.4251 1.87474 16.4766 2.63867C16.816 2.88533 17.1147 3.18397 17.3613 3.52344C18.1253 4.5749 18.125 6.07541 18.125 9.0752V10.9248C18.125 13.9246 18.1253 15.4251 17.3613 16.4766C17.1147 16.816 16.816 17.1147 16.4766 17.3613C15.4251 18.1253 13.9246 18.125 10.9248 18.125H9.0752C6.07541 18.125 4.5749 18.1253 3.52344 17.3613C3.18397 17.1147 2.88533 16.816 2.63867 16.4766C1.87474 15.4251 1.875 13.9246 1.875 10.9248V9.0752C1.875 6.07541 1.87474 4.5749 2.63867 3.52344C2.88533 3.18397 3.18397 2.88533 3.52344 2.63867C4.5749 1.87474 6.07541 1.875 9.0752 1.875H10.9248ZM8.77539 10.417C7.25123 10.417 5.90432 11.4094 5.45312 12.8652C5.12487 13.9252 5.91769 15 7.02734 15H12.9727C14.0823 15 14.8751 13.9252 14.5469 12.8652C14.0957 11.4094 12.7488 10.417 11.2246 10.417H8.77539ZM10 5C8.84952 5 7.91717 5.93256 7.91699 7.08301C7.91699 8.2336 8.84941 9.16699 10 9.16699C11.1506 9.16699 12.083 8.2336 12.083 7.08301C12.0828 5.93256 11.1505 5 10 5Z" fill="#C3CCD8"/>
</svg>
