<svg width="24" height="24" viewBox="0 0 24 24" fill="none" xmlns="http://www.w3.org/2000/svg">
<path d="M18 7V7C18 5.34315 16.6569 4 15 4H10.2C7.20021 4 5.70032 4 4.64886 4.76393C4.30928 5.01065 4.01065 5.30928 3.76393 5.64886C3 6.70032 3 8.20021 3 11.2V15M9.5 20H14.5C16.8346 20 18.0019 20 18.8856 19.5277C19.5833 19.1548 20.1548 18.5833 20.5277 17.8856C21 17.0019 21 15.8346 21 13.5V13.5C21 11.1654 21 9.99805 20.5277 9.11441C20.1548 8.4167 19.5833 7.84525 18.8856 7.47231C18.0019 7 16.8346 7 14.5 7H9.5C7.16537 7 5.99805 7 5.11441 7.47231C4.4167 7.84525 3.84525 8.4167 3.47231 9.11441C3 9.99805 3 11.1654 3 13.5V13.5C3 15.8346 3 17.0019 3.47231 17.8856C3.84525 18.5833 4.4167 19.1548 5.11441 19.5277C5.99805 20 7.16537 20 9.5 20Z" stroke="#F3AE2E" stroke-width="1.5" stroke-linecap="round" stroke-linejoin="round"/>
<path d="M14.5 6.25C16.8306 6.25 17.9961 6.25031 18.9082 6.65039C19.9995 7.12915 20.8709 8.0005 21.3496 9.0918C21.7497 10.0039 21.75 11.1694 21.75 13.5C21.75 15.8306 21.7497 16.9961 21.3496 17.9082C20.8709 18.9995 19.9995 19.8709 18.9082 20.3496C17.9961 20.7497 16.8306 20.75 14.5 20.75H9.5C7.16935 20.75 6.00388 20.7497 5.0918 20.3496C4.0005 19.8709 3.12915 18.9995 2.65039 17.9082C2.25031 16.9961 2.25 15.8306 2.25 13.5C2.25 11.1694 2.25031 10.0039 2.65039 9.0918C3.12915 8.0005 4.0005 7.12915 5.0918 6.65039C6.00388 6.25031 7.16935 6.25 9.5 6.25H14.5ZM15 9.75C14.5858 9.75 14.25 10.0858 14.25 10.5C14.25 10.9142 14.5858 11.25 15 11.25H17C17.4142 11.25 17.75 10.9142 17.75 10.5C17.75 10.0858 17.4142 9.75 17 9.75H15Z" fill="#F3AE2E"/>
</svg>
