<svg width="17" height="17" viewBox="0 0 17 17" fill="none" xmlns="http://www.w3.org/2000/svg">
<g clip-path="url(#clip0_20_3714)">
<path d="M12.8146 0.574718C12.5526 0.574718 12.2901 0.673218 12.0931 0.870718L10.9691 1.99472L14.2591 5.28372L15.3821 4.15972C15.5715 3.96724 15.6777 3.70801 15.6777 3.43797C15.6777 3.16792 15.5715 2.9087 15.3821 2.71622L13.5361 0.870718C13.4413 0.776291 13.3287 0.701533 13.2049 0.650736C13.0811 0.599939 12.9484 0.574105 12.8146 0.574718ZM10.2616 2.70172L2.1271 10.8367C2.07244 10.8918 2.03106 10.9587 2.0061 11.0322C1.6416 12.1257 0.988599 13.9117 0.706099 14.9337C0.683136 15.0171 0.682217 15.1051 0.703431 15.189C0.724646 15.2729 0.767267 15.3498 0.827129 15.4123C0.88699 15.4748 0.962042 15.5207 1.04495 15.5455C1.12785 15.5702 1.21577 15.5731 1.3001 15.5537C2.5161 15.2727 4.1436 14.6057 5.2201 14.2472C5.29345 14.2231 5.36044 14.1827 5.4161 14.1292L13.5506 5.99172L10.2616 2.70172Z" fill="#746FE5"/>
</g>
<defs>
<clipPath id="clip0_20_3714">
<rect width="16" height="16" fill="white" transform="translate(0.183594 0.0708008)"/>
</clipPath>
</defs>
</svg>
