<svg width="15" height="15" viewBox="0 0 15 15" fill="none" xmlns="http://www.w3.org/2000/svg">
<path d="M5.00096 13.125H2.13159C1.99056 13.1246 1.8763 13.0104 1.87598 12.8694V2.13062C1.87633 1.98958 1.99056 1.87532 2.13159 1.875H5.00096C5.51872 1.875 5.93846 1.45526 5.93846 0.9375C5.93846 0.419736 5.51872 0 5.00096 0H2.13159C0.95544 0.00137695 0.00235352 0.954492 0.000976562 2.13062V12.8694C0.00235352 14.0455 0.95544 14.9986 2.13159 15H5.00096C5.51872 15 5.93846 14.5803 5.93846 14.0625C5.93846 13.5447 5.51872 13.125 5.00096 13.125Z" fill="white"/>
<path d="M14.1772 5.51133L11.751 3.08695C11.3847 2.72089 10.7911 2.72104 10.425 3.08728C10.059 3.45352 10.0591 4.04716 10.4254 4.41322L12.5578 6.5451L4.06348 6.56259C3.54571 6.56259 3.12598 6.98232 3.12598 7.50009C3.12598 8.01785 3.54571 8.43759 4.06348 8.43759L12.5922 8.42197L10.4254 10.5889C10.0726 10.9678 10.0938 11.561 10.4728 11.9138C10.833 12.2491 11.3911 12.2489 11.751 11.9132L14.1754 9.48885C15.2737 8.39051 15.2737 6.60973 14.1754 5.51139L14.1754 5.51136L14.1772 5.51133Z" fill="white"/>
</svg>
