<svg width="15" height="15" viewBox="0 0 15 15" fill="none" xmlns="http://www.w3.org/2000/svg">
<g clip-path="url(#clip0_123_1087)">
<path d="M7.39317 7.22554C8.38583 7.22554 9.2454 6.86952 9.94772 6.16708C10.65 5.46476 11.0061 4.60543 11.0061 3.61266C11.0061 2.62023 10.65 1.76078 9.94761 1.05823C9.24517 0.356024 8.38572 0 7.39317 0C6.4004 0 5.54106 0.356024 4.83874 1.05835C4.13641 1.76067 3.78027 2.62011 3.78027 3.61266C3.78027 4.60543 4.13641 5.46488 4.83885 6.1672C5.54129 6.8694 6.40074 7.22554 7.39317 7.22554Z" fill="white"/>
<path d="M13.7147 11.5338C13.6945 11.2415 13.6535 10.9227 13.5932 10.586C13.5323 10.2468 13.4539 9.92611 13.3601 9.63303C13.2631 9.33011 13.1313 9.03096 12.9683 8.74429C12.7992 8.44674 12.6005 8.18765 12.3776 7.97445C12.1445 7.7514 11.8591 7.57207 11.529 7.44127C11.2001 7.31115 10.8356 7.24523 10.4457 7.24523C10.2926 7.24523 10.1445 7.30806 9.85851 7.49425C9.6825 7.60904 9.47662 7.74179 9.24683 7.88862C9.05033 8.01381 8.78414 8.13112 8.45535 8.23732C8.13457 8.34111 7.80888 8.39376 7.48741 8.39376C7.16595 8.39376 6.84036 8.34111 6.51924 8.23732C6.1908 8.13123 5.92461 8.01393 5.72834 7.88873C5.50072 7.74328 5.29472 7.61053 5.11608 7.49414C4.83044 7.30795 4.68224 7.24512 4.52911 7.24512C4.1391 7.24512 3.77472 7.31115 3.44593 7.44138C3.11611 7.57196 2.83058 7.75129 2.59724 7.97456C2.37442 8.18788 2.17564 8.44686 2.00672 8.74429C1.84387 9.03096 1.71204 9.32999 1.61499 9.63315C1.52126 9.92623 1.44287 10.2468 1.38199 10.586C1.32168 10.9222 1.28071 11.2411 1.26045 11.5341C1.24054 11.8211 1.23047 12.119 1.23047 12.4199C1.23047 13.2029 1.47938 13.8368 1.97021 14.3043C2.45499 14.7656 3.09643 14.9996 3.87646 14.9996H11.0991C11.8791 14.9996 12.5203 14.7657 13.0052 14.3043C13.4961 13.8371 13.745 13.2031 13.745 12.4198C13.7449 12.1175 13.7347 11.8194 13.7147 11.5338Z" fill="white"/>
</g>
<defs>
<clipPath id="clip0_123_1087">
<rect width="15" height="15" fill="white"/>
</clipPath>
</defs>
</svg>
