<svg width="15" height="15" viewBox="0 0 15 15" fill="none" xmlns="http://www.w3.org/2000/svg">
<g clip-path="url(#clip0_123_1092)">
<path d="M14.7403 9.14466L13.3245 8.06655C13.3425 7.90029 13.3579 7.70593 13.3579 7.5003C13.3579 7.29467 13.3431 7.10031 13.3245 6.93406L14.7416 5.85532C15.0048 5.65283 15.0767 5.29344 14.9092 4.99409L13.4368 2.51346C13.2795 2.23347 12.9349 2.08971 12.5851 2.21533L10.9144 2.86844C10.5942 2.64345 10.2585 2.45346 9.91126 2.30158L9.6571 0.575982C9.61537 0.248475 9.3227 0.000976562 8.97678 0.000976562H6.0244C5.67845 0.000976562 5.38644 0.248475 5.34534 0.570972L5.09055 2.30284C4.75422 2.45035 4.4237 2.63785 4.0893 2.8697L2.41414 2.21472C2.10026 2.09659 1.72479 2.22907 1.56883 2.50783L0.0945807 4.99157C-0.0793435 5.27783 -0.00746927 5.64969 0.261465 5.8572L1.67732 6.93532C1.65484 7.14593 1.64395 7.32906 1.64395 7.50095C1.64395 7.67283 1.65487 7.85593 1.67732 8.06719L0.260171 9.14592C-0.00298652 9.34904 -0.0742289 9.70842 0.093287 10.0072L1.56564 12.4878C1.7229 12.7671 2.06434 12.9121 2.41733 12.7859L4.08801 12.1328C4.40764 12.3572 4.7433 12.5471 5.09055 12.6996L5.34471 14.4246C5.38641 14.7534 5.67845 15.0009 6.02503 15.0009H8.97741C9.32336 15.0009 9.61603 14.7534 9.6571 14.4309L9.91189 12.6996C10.2482 12.5515 10.5781 12.3646 10.9131 12.1321L12.5883 12.7871C12.6692 12.8177 12.7533 12.8334 12.8399 12.8334C13.0889 12.8334 13.3181 12.7009 13.4336 12.4946L14.9123 10.0009C15.0767 9.70839 15.0048 9.34904 14.7403 9.14466ZM7.50057 10.0009C6.08472 10.0009 4.93329 8.87965 4.93329 7.50092C4.93329 6.12219 6.08472 5.00095 7.50057 5.00095C8.91643 5.00095 10.0679 6.12219 10.0679 7.50092C10.0679 8.87965 8.91643 10.0009 7.50057 10.0009Z" fill="white"/>
</g>
<defs>
<clipPath id="clip0_123_1092">
<rect width="15" height="15" fill="white"/>
</clipPath>
</defs>
</svg>
