<svg width="15" height="15" viewBox="0 0 15 15" fill="none" xmlns="http://www.w3.org/2000/svg">
<g clip-path="url(#clip0_123_1098)">
<path d="M6 4.633V0L0.75 5.25H5.37169C5.53903 5.24912 5.69917 5.18365 5.81697 5.06798C5.93476 4.9523 6.00059 4.79586 6 4.633Z" fill="white"/>
<path d="M11.5002 2.26045C10.8983 2.21008 10.2952 2.34256 9.76985 2.64057C9.24448 2.93857 8.8213 3.38823 8.55567 3.93069C8.29005 4.47315 8.19435 5.08316 8.28111 5.68091C8.36787 6.27865 8.63303 6.83628 9.04191 7.28085C9.4508 7.72541 9.98435 8.03621 10.5728 8.17256C11.1612 8.30891 11.777 8.26447 12.3398 8.04506C12.9025 7.82565 13.3859 7.44148 13.7268 6.94282C14.0676 6.44416 14.25 5.85423 14.25 5.25022C14.2478 4.49849 13.9644 3.77479 13.4555 3.22149C12.9467 2.66819 12.2491 2.32536 11.5002 2.26045ZM12.4277 6.23265C12.3852 6.28365 12.3242 6.31573 12.2581 6.32182C12.1921 6.32791 12.1263 6.30753 12.0752 6.26515L11.0903 5.44271C11.0619 5.4193 11.0392 5.38988 11.0236 5.35659C11.008 5.3233 11.0001 5.28697 11.0003 5.25022V3.43536C11.0006 3.36906 11.0272 3.30561 11.0744 3.25897C11.0977 3.23587 11.1253 3.21759 11.1557 3.20518C11.1861 3.19277 11.2187 3.18647 11.2515 3.18663C11.2843 3.1868 11.3168 3.19343 11.3471 3.20614C11.3773 3.21885 11.4048 3.23741 11.4279 3.26073C11.451 3.28406 11.4693 3.31171 11.4817 3.3421C11.4941 3.3725 11.5004 3.40504 11.5002 3.43786V5.13273L12.3951 5.88268C12.4457 5.92489 12.4775 5.98539 12.4836 6.05096C12.4897 6.11653 12.4696 6.18185 12.4277 6.23265Z" fill="white"/>
<path d="M10.6885 1.62054C10.8753 1.60301 11.0631 1.60211 11.25 1.61786V1.04196C11.2491 0.765435 11.1424 0.500533 10.9533 0.305248C10.7642 0.109962 10.508 0.000203962 10.2409 0H6.21476V4.66339C6.21534 4.96386 6.10066 5.25227 5.8959 5.46524C5.69115 5.6782 5.41309 5.79829 5.12284 5.79911H0.75V13.958C0.750884 14.2346 0.857567 14.4995 1.0467 14.6948C1.23583 14.89 1.49199 14.9998 1.75912 15H10.2409C10.508 14.9998 10.7642 14.89 10.9533 14.6948C11.1424 14.4995 11.2491 14.2346 11.25 13.958V9.09643C6.52575 9.30319 5.94277 2.17843 10.6885 1.62054ZM2.00752 7.23214H6C6.06793 7.23323 6.13272 7.26194 6.18039 7.31205C6.22805 7.36217 6.25476 7.42968 6.25476 7.50001C6.25476 7.57034 6.22804 7.63785 6.18037 7.68796C6.13271 7.73807 6.06791 7.76677 5.99998 7.76786H2.00752C1.93959 7.76677 1.87479 7.73807 1.82713 7.68795C1.77946 7.63784 1.75275 7.57033 1.75275 7.5C1.75275 7.42967 1.77946 7.36216 1.82713 7.31205C1.87479 7.26193 1.93959 7.23323 2.00752 7.23214ZM2.00752 8.52321H6C6.06793 8.52431 6.13272 8.55301 6.18039 8.60312C6.22805 8.65324 6.25476 8.72075 6.25476 8.79108C6.25476 8.86141 6.22804 8.92892 6.18037 8.97903C6.13271 9.02914 6.06791 9.05784 5.99998 9.05893H2.00752C1.93959 9.05784 1.87479 9.02914 1.82713 8.97902C1.77946 8.92891 1.75275 8.8614 1.75275 8.79107C1.75275 8.72074 1.77946 8.65323 1.82713 8.60312C1.87479 8.553 1.93959 8.5243 2.00752 8.52321ZM7.99495 12.9348H2.00752C1.93956 12.9338 1.87472 12.9051 1.82702 12.855C1.77932 12.8049 1.75258 12.7373 1.75259 12.667C1.75259 12.5966 1.77933 12.5291 1.82703 12.4789C1.87474 12.4288 1.93957 12.4001 2.00753 12.3991H7.99495C8.06275 12.4004 8.12735 12.4292 8.17485 12.4793C8.22235 12.5294 8.24897 12.5968 8.24897 12.667C8.24897 12.7372 8.22235 12.8046 8.17485 12.8546C8.12735 12.9047 8.06275 12.9335 7.99495 12.9348ZM9.99766 12.9348C9.92904 12.9348 9.86322 12.9066 9.8147 12.8564C9.76618 12.8061 9.73892 12.738 9.73892 12.667C9.73892 12.5959 9.76619 12.5278 9.81471 12.4776C9.86324 12.4273 9.92905 12.3991 9.99768 12.3991C10.0663 12.3991 10.1321 12.4273 10.1806 12.4776C10.2292 12.5278 10.2564 12.5959 10.2564 12.667C10.2564 12.738 10.2291 12.8061 10.1806 12.8564C10.1321 12.9066 10.0663 12.9348 9.99766 12.9348ZM9.99248 11.6411H2.00752C1.93889 11.6411 1.87308 11.6129 1.82455 11.5626C1.77603 11.5124 1.74877 11.4443 1.74877 11.3732C1.74877 11.3022 1.77603 11.234 1.82455 11.1838C1.87308 11.1336 1.93889 11.1054 2.00752 11.1054H9.99248C10.0611 11.1054 10.1269 11.1336 10.1754 11.1838C10.224 11.234 10.2512 11.3022 10.2512 11.3732C10.2512 11.4443 10.224 11.5124 10.1754 11.5626C10.1269 11.6129 10.0611 11.6411 9.99248 11.6411ZM9.99247 10.35H2.00752C1.93959 10.3489 1.8748 10.3202 1.82713 10.2701C1.77947 10.22 1.75275 10.1525 1.75275 10.0821C1.75276 10.0118 1.77947 9.9443 1.82714 9.89418C1.87481 9.84407 1.9396 9.81537 2.00753 9.81429H9.99248C10.0604 9.81538 10.1252 9.84408 10.1729 9.8942C10.2205 9.94432 10.2472 10.0118 10.2472 10.0822C10.2472 10.1525 10.2205 10.22 10.1728 10.2701C10.1252 10.3202 10.0604 10.3489 9.99247 10.35Z" fill="white"/>
</g>
<defs>
<clipPath id="clip0_123_1098">
<rect width="15" height="15" fill="white"/>
</clipPath>
</defs>
</svg>
