<svg width="128" height="80" viewBox="0 0 128 80" fill="none" xmlns="http://www.w3.org/2000/svg">
<path d="M63.6349 17.5313L64.429 16.1867C68.874 8.68242 76.6416 3.2202 85.0559 1.07661C85.3224 1.00938 85.5896 0.945442 85.8577 0.884804C86.1258 0.824166 86.3946 0.766825 86.6641 0.712778C86.9336 0.658731 87.2036 0.608033 87.4743 0.560687C87.7451 0.513341 88.0164 0.46929 88.2881 0.428535C88.56 0.38789 88.8323 0.350595 89.1049 0.316651C89.3777 0.282597 89.6509 0.251948 89.9244 0.224705C90.1978 0.197462 90.4716 0.173569 90.7456 0.153027C91.0197 0.132595 91.294 0.115458 91.5685 0.101617C91.8431 0.0878856 92.1177 0.0775028 92.3924 0.0704723C92.6672 0.0635517 92.942 0.0599811 93.2168 0.0597614C93.4917 0.0594318 93.7665 0.0625637 94.0412 0.0691548C94.3159 0.0757459 94.5906 0.0856875 94.8651 0.0989796C95.1396 0.112272 95.414 0.128913 95.6881 0.148906C95.9622 0.169009 96.236 0.192463 96.5096 0.219267C96.7831 0.24607 97.0563 0.276224 97.329 0.309729C97.6019 0.343234 97.8743 0.380146 98.1461 0.420462C98.418 0.460667 98.6894 0.504224 98.9601 0.55113C99.2309 0.598037 99.5011 0.648293 99.7707 0.701901C100.04 0.755509 100.309 0.812411 100.577 0.87261C100.845 0.932809 101.113 0.996304 101.379 1.06309C101.646 1.12988 101.912 1.19991 102.177 1.27318C102.442 1.34657 102.706 1.42313 102.969 1.50289C103.232 1.58275 103.493 1.6658 103.754 1.75203C104.015 1.83837 104.275 1.9279 104.534 2.02062C104.793 2.11322 105.05 2.20907 105.307 2.30815C105.563 2.40713 105.818 2.50929 106.072 2.61464C106.326 2.71988 106.578 2.8283 106.83 2.93991C107.081 3.05141 107.331 3.16599 107.579 3.28364C107.827 3.40129 108.074 3.52202 108.32 3.64582C108.565 3.76962 108.809 3.89639 109.051 4.02613C109.293 4.15586 109.534 4.28856 109.773 4.42423C110.012 4.56001 110.249 4.69864 110.485 4.84013C110.688 4.96382 110.889 5.08955 111.089 5.21731C111.29 5.34517 111.488 5.47502 111.686 5.60684C111.884 5.73877 112.08 5.87268 112.275 6.00857C112.469 6.14446 112.663 6.28232 112.855 6.42216C113.047 6.562 113.237 6.70376 113.426 6.84745C113.615 6.99125 113.803 7.13691 113.989 7.28444C114.175 7.43208 114.36 7.58159 114.543 7.73297C114.726 7.88435 114.907 8.03753 115.087 8.19254C115.267 8.34765 115.445 8.50457 115.622 8.66331C115.798 8.82204 115.973 8.98259 116.147 9.14495C116.32 9.3072 116.492 9.47127 116.662 9.63714C116.832 9.80291 117 9.97043 117.167 10.1397C117.333 10.309 117.498 10.48 117.661 10.6527C117.824 10.8252 117.986 10.9995 118.145 11.1755C118.305 11.3515 118.462 11.5291 118.618 11.7082C118.774 11.8874 118.928 12.0682 119.08 12.2505C119.233 12.4329 119.383 12.6167 119.531 12.802C119.68 12.9875 119.826 13.1744 119.971 13.3628C120.116 13.5513 120.258 13.7411 120.399 13.9324C120.54 14.1238 120.678 14.3166 120.815 14.5108C120.952 14.7049 121.087 14.9004 121.219 15.0974C121.352 15.2942 121.483 15.4925 121.612 15.6922C121.74 15.8918 121.867 16.0927 121.992 16.2948C122.116 16.4971 122.239 16.7005 122.359 16.9052C122.479 17.1099 122.598 17.3158 122.714 17.5229C122.83 17.7301 122.944 17.9384 123.056 18.1479C123.168 18.3573 123.278 18.5679 123.386 18.7797C123.493 18.9914 123.599 19.2041 123.702 19.418C123.805 19.6319 123.906 19.8468 124.005 20.0628C124.104 20.2787 124.201 20.4956 124.295 20.7135C124.39 20.9314 124.482 21.1503 124.572 21.3701C124.662 21.59 124.749 21.8106 124.835 22.0322C125.5 23.7421 125.984 25.5039 126.434 27.2806C124.491 27.413 122.479 27.3003 120.527 27.2982C116.585 27.2837 112.644 27.2899 108.702 27.3168C106.678 23.3583 104.247 20.6848 100.274 18.6536C96.1362 16.7277 91.6875 16.5108 87.3889 18.0815C82.8887 19.726 79.7533 23.0407 77.7671 27.3269C68.1289 27.3241 58.485 27.4374 48.8478 27.3351C47.0057 23.2564 43.6708 19.8394 39.4724 18.2163C39.3457 18.1669 39.2184 18.1191 39.0904 18.0729C38.9626 18.0267 38.8342 17.982 38.7052 17.939C38.5761 17.8959 38.4466 17.8545 38.3167 17.8147C38.1866 17.775 38.0561 17.7368 37.9251 17.7002C37.7941 17.6636 37.6626 17.6287 37.5308 17.5954C37.399 17.5621 37.2667 17.5305 37.134 17.5005C37.0014 17.4705 36.8685 17.4422 36.7351 17.4155C36.6018 17.3888 36.4681 17.3637 36.334 17.3403C36.2001 17.317 36.0659 17.2954 35.9313 17.2753C35.7969 17.2553 35.6621 17.2369 35.5271 17.2202C35.3922 17.2036 35.2571 17.1887 35.1216 17.1754C34.9863 17.162 34.8508 17.1503 34.7153 17.1405C34.5796 17.1306 34.4439 17.1223 34.3081 17.1157C34.1722 17.1092 34.0363 17.1043 33.9003 17.1011C33.7644 17.0979 33.6284 17.0964 33.4925 17.0966C33.3565 17.0968 33.2205 17.0988 33.0845 17.1024C32.9486 17.106 32.8127 17.1113 32.677 17.1182C32.5411 17.1252 32.4054 17.1339 32.2698 17.1443C32.1341 17.1546 31.9987 17.1666 31.8635 17.1803C31.7281 17.1941 31.593 17.2095 31.4581 17.2266C31.3232 17.2437 31.1885 17.2624 31.0541 17.2828C30.9196 17.3033 30.7854 17.3254 30.6515 17.3492C30.5176 17.373 30.384 17.3984 30.2508 17.4255C30.1175 17.4526 29.9846 17.4813 29.852 17.5117C29.7195 17.5421 29.5874 17.5742 29.4556 17.6079C29.3238 17.6417 29.1926 17.677 29.0617 17.7139C28.9308 17.7509 28.8004 17.7895 28.6706 17.8297C28.5406 17.8699 28.4112 17.9117 28.2823 17.9551C28.1535 17.9985 28.0252 18.0436 27.8974 18.0902C27.7697 18.1368 27.6425 18.185 27.516 18.2348C27.3894 18.2846 27.2635 18.336 27.1381 18.3888C27.0129 18.4418 26.8883 18.4963 26.7644 18.5523C22.9129 20.2852 19.9247 23.3804 18.4204 27.3297L0.314941 27.3531C1.58703 21.5435 3.98636 16.1752 7.94992 11.6979C14.2889 4.53743 22.4802 0.703713 32.0096 0.111667C34.6785 -0.209815 37.7477 0.21284 40.3685 0.744083C47.8522 2.26119 54.9043 6.54344 59.8729 12.3242C61.2704 13.95 62.4507 15.7486 63.6349 17.5313Z" fill="#15133B"/>
<path d="M0.257568 53.6391C3.18336 53.5715 6.12349 53.6297 9.05093 53.6325C12.171 53.6356 15.3024 53.5857 18.421 53.6682C19.7478 56.3047 21.6057 58.5867 24.1014 60.2068C27.9091 62.6788 32.4256 63.6485 36.8822 62.6831C42.3077 61.5079 45.6135 58.2032 48.5246 53.6877L78.0101 53.6873C79.5607 56.6184 81.7492 59.1219 84.6245 60.8221C88.4636 63.0922 93.3049 63.7068 97.6094 62.5972C102.623 61.3047 106.207 58.0638 108.778 53.6796C112.031 53.5394 115.335 53.6466 118.592 53.6409C121.184 53.6363 123.878 53.4848 126.459 53.6697C126.257 54.9678 125.804 56.2467 125.349 57.4761C123.637 62.0999 121.126 65.9499 117.763 69.537C116.237 71.0887 114.611 72.5406 112.825 73.7874C112.598 73.9468 112.37 74.1034 112.139 74.2572C111.909 74.411 111.677 74.562 111.443 74.7102C111.209 74.8583 110.973 75.0034 110.735 75.1457C110.498 75.2881 110.259 75.4275 110.018 75.5639C109.777 75.7003 109.534 75.8338 109.29 75.9643C109.045 76.0948 108.799 76.2223 108.552 76.3468C108.304 76.4712 108.056 76.5926 107.805 76.7109C107.555 76.8292 107.303 76.9445 107.05 77.0566C106.797 77.1688 106.542 77.2779 106.286 77.3839C106.03 77.4898 105.773 77.5925 105.514 77.6922C105.256 77.7917 104.997 77.8881 104.736 77.9814C104.475 78.0746 104.213 78.1646 103.95 78.2514C103.687 78.3382 103.423 78.4218 103.158 78.5022C102.893 78.5825 102.627 78.6596 102.36 78.7334C102.093 78.8071 101.825 78.8776 101.556 78.9448C101.288 79.012 101.018 79.076 100.748 79.1366C100.478 79.1973 100.207 79.2545 99.9351 79.3085C99.6636 79.3624 99.3913 79.4131 99.1183 79.4604C98.8454 79.5076 98.572 79.5516 98.298 79.5922C98.0241 79.6328 97.7497 79.6699 97.4748 79.7038C97.1998 79.7376 96.9246 79.768 96.6489 79.7951C96.3733 79.8222 96.0974 79.8459 95.8213 79.8663C95.545 79.8866 95.2685 79.9035 94.9919 79.917C94.7153 79.9305 94.4385 79.9406 94.1616 79.9473C93.8848 79.9541 93.6078 79.9575 93.3308 79.9574C93.0539 79.9573 92.777 79.9538 92.5002 79.947C92.2232 79.9402 91.9465 79.9299 91.6698 79.9162C91.3932 79.9026 91.1169 79.8855 90.8407 79.8651C90.5644 79.8447 90.2885 79.8208 90.0128 79.7936C89.7372 79.7665 89.462 79.7359 89.1871 79.702C88.9123 79.6679 88.6379 79.6306 88.3639 79.5899C88.0899 79.5493 87.8165 79.5052 87.5436 79.4578C78.9291 77.9084 71.6406 73.4017 66.0975 66.6605C65.0741 65.4157 64.166 64.0908 63.2487 62.7676C62.0196 64.2961 61.019 65.9964 59.7554 67.5064C59.471 67.8496 59.18 68.1872 58.8825 68.5193C58.5851 68.8513 58.2813 69.1775 57.9713 69.4979C57.6613 69.8183 57.3453 70.1325 57.0232 70.4406C56.7011 70.7488 56.3732 71.0506 56.0396 71.3463C55.7059 71.6418 55.3666 71.9308 55.0218 72.2133C54.677 72.4958 54.3268 72.7716 53.9713 73.0407C53.6158 73.3097 53.2554 73.5717 52.8899 73.8268C52.5243 74.082 52.154 74.33 51.779 74.571C51.4039 74.8119 51.0243 75.0455 50.6402 75.2718C50.2561 75.498 49.8679 75.7169 49.4754 75.9282C49.0829 76.1396 48.6865 76.3433 48.2862 76.5394C47.8859 76.7355 47.4819 76.9238 47.0744 77.1044C46.6668 77.2849 46.2559 77.4575 45.8417 77.6223C45.4274 77.787 45.0102 77.9437 44.59 78.0924C44.1697 78.241 43.7468 78.3815 43.3211 78.5139C42.8954 78.6464 42.4674 78.7706 42.037 78.8865C41.7664 78.9572 41.495 79.0246 41.2228 79.0887C40.9506 79.1527 40.6776 79.2134 40.4039 79.2707C40.1302 79.3281 39.8559 79.3821 39.5808 79.4327C39.3058 79.4834 39.0303 79.5307 38.7541 79.5746C38.4779 79.6184 38.2012 79.6589 37.924 79.696C37.6468 79.7332 37.3693 79.7669 37.0913 79.7972C36.8133 79.8275 36.5349 79.8544 36.2562 79.8779C35.9777 79.9015 35.6988 79.9216 35.4197 79.9383C35.1404 79.955 34.8611 79.9682 34.5816 79.978C34.3021 79.9879 34.0226 79.9943 33.743 79.9972C33.4634 80.0002 33.1837 79.9998 32.9042 79.9959C32.6245 79.9921 32.3449 79.9848 32.0654 79.974C31.7861 79.9634 31.5068 79.9492 31.2277 79.9317C30.9486 79.9141 30.6697 79.8932 30.3911 79.8689C30.1126 79.8445 29.8344 79.8167 29.5565 79.7855C29.2786 79.7543 29.0011 79.7197 28.7241 79.6817C28.447 79.6437 28.1705 79.6023 27.8944 79.5576C27.6184 79.5129 27.3429 79.4648 27.0681 79.4133C26.7932 79.3618 26.519 79.3069 26.2455 79.2487C25.972 79.1904 25.6992 79.1289 25.4272 79.0639C25.1552 78.9991 24.884 78.931 24.6137 78.8595C24.3434 78.7878 24.0739 78.713 23.8053 78.6349C23.5368 78.5568 23.2693 78.4754 23.0028 78.3907C22.7363 78.306 22.4709 78.218 22.2065 78.1269C21.9422 78.0357 21.6789 77.9413 21.4168 77.8436C21.1548 77.7459 20.8941 77.6452 20.6345 77.5412C20.3749 77.4372 20.1166 77.33 19.8597 77.2196C19.6026 77.1093 19.3471 76.9958 19.093 76.8792C18.8388 76.7626 18.5861 76.6429 18.3348 76.5201C18.0835 76.3973 17.8338 76.2715 17.5856 76.1426C17.3374 76.0136 17.0909 75.8817 16.8461 75.7468C16.6011 75.6119 16.3578 75.474 16.1163 75.3331C7.89683 70.4787 2.62163 62.7857 0.257568 53.6391Z" fill="#15133B"/>
<path d="M106.483 33.4527C107.637 33.4426 108.792 33.4466 109.946 33.4647L109.934 34.9861L109.848 35.0052C109.831 34.6044 109.81 34.2036 109.787 33.803L109.751 33.8193L109.797 34.0067L109.742 33.9256C109.727 34.5722 109.557 36.2391 109.77 36.7461L109.936 36.7598C109.937 36.8026 109.938 36.9391 109.95 36.9758C109.966 37.0262 109.976 37.0911 110.022 37.1173C110.023 37.1178 110.28 37.0437 110.304 37.0371C110.632 36.9465 110.963 36.8696 111.298 36.8064C112.433 36.5876 113.511 36.65 114.582 37.1108C115.628 37.5604 116.382 38.3822 116.797 39.4349C117.382 40.9188 117.379 42.8828 116.723 44.3424C116.213 45.4767 115.301 46.3459 114.131 46.773C112.652 47.3126 110.726 47.1269 109.312 46.4733C108.342 46.9831 107.569 46.9437 106.505 46.8831L106.483 33.4527ZM109.956 39.5954L109.945 44.385C110.762 44.5436 111.422 44.6587 112.252 44.4735C112.913 44.1469 113.361 43.7505 113.612 43.0396C113.892 42.2449 113.823 41.2671 113.452 40.5123C113.211 40.0194 112.768 39.5328 112.236 39.3512C111.985 39.2652 111.699 39.2476 111.435 39.2273C110.93 39.3229 110.448 39.4452 109.956 39.5954Z" fill="#15133B"/>
<path d="M98.1466 36.6789C98.5099 36.5949 98.9774 36.6153 99.3499 36.6158C100.681 36.6173 102.158 36.8434 103.118 37.8554C103.544 38.3048 103.8 38.8499 103.95 39.4455C104.371 41.1101 104.123 45.0132 104.106 46.8569C103.126 46.9049 102.02 47.0566 101.055 46.8838C100.853 46.7042 100.846 46.5384 100.772 46.2825C100.585 46.2304 100.135 46.5977 99.927 46.6938C99.52 46.8815 99.0346 46.9999 98.59 47.0645C97.1923 47.2675 95.9537 46.8998 94.8357 46.0553C94.2725 45.4283 93.9851 44.7988 94.0195 43.9441C94.0527 43.1209 94.3402 42.3511 94.9744 41.8043C96.4382 40.5425 98.9553 40.8244 100.739 40.9463C100.71 40.7117 100.688 40.4616 100.63 40.232C100.525 39.817 100.167 39.4449 99.7963 39.247C98.4153 38.5089 96.3923 39.2712 95.0204 39.7133C94.7935 38.9538 94.6599 38.1535 94.4956 37.3777C95.6629 36.9829 96.9259 36.8103 98.1466 36.6789ZM99.0337 45.0203C99.7497 44.9078 100.188 44.5584 100.734 44.1181L100.737 42.4934C100.126 42.4972 99.4961 42.4686 98.8879 42.5196C98.3552 42.5851 97.8253 42.6587 97.4576 43.0949C97.2698 43.3178 97.161 43.5945 97.1866 43.8884C97.2144 44.2106 97.3985 44.4961 97.6547 44.687C98.0632 44.9911 98.5401 45.0483 99.0337 45.0203Z" fill="#15133B"/>
<path d="M42.757 36.422C42.8975 36.4068 43.0386 36.404 43.1798 36.4006C44.2777 36.3745 45.3865 36.5823 46.1969 37.3872C46.6627 37.8501 46.94 38.4263 47.0939 39.0589C47.5024 40.7385 47.2729 44.9186 47.2643 46.8658L43.6684 46.9246C43.6199 45.1394 44.1184 41.526 43.3835 39.9864C43.1997 39.6019 42.8998 39.2603 42.4818 39.1324C41.7828 38.9185 41.0382 39.2608 40.4315 39.5865C40.2764 39.7736 40.1263 39.9525 40.0751 40.1957C39.9068 40.9949 40.0082 41.9514 40.0222 42.7664L40.0864 46.8626C38.8926 46.9256 37.6864 46.8987 36.4908 46.903L36.4855 36.5755C37.5592 36.5697 38.6325 36.5891 39.7053 36.6335C39.7508 37.0252 39.7458 37.4293 39.7585 37.8236C40.6758 36.9778 41.5399 36.6194 42.757 36.422Z" fill="#15133B"/>
<path d="M13.785 36.4244C14.8575 36.3814 16.0296 36.5417 16.8512 37.2895C17.3717 37.7632 17.6861 38.4113 17.8404 39.0907C18.0668 40.0879 17.9738 41.1886 17.9684 42.2038C17.9598 43.7572 17.929 45.3112 17.9822 46.8641L14.4683 46.8667C14.4807 45.3722 14.7663 40.9055 14.0439 39.7702C13.8381 39.4466 13.5327 39.2067 13.1516 39.1338C12.5657 39.0219 11.8138 39.3434 11.3333 39.6647C11.2619 39.7361 11.126 39.8711 11.0919 39.9676C10.9259 40.4366 11.0708 45.954 11.0649 46.8912L7.49775 46.8944C7.43085 43.4792 7.47781 40.051 7.48539 36.6351L11.0009 36.6233C11.0087 36.9293 11.0316 37.2298 11.0607 37.5347C11.9187 36.879 12.7265 36.5813 13.785 36.4244Z" fill="#15133B"/>
<path d="M79.0262 36.4551C80.194 36.4922 81.3657 36.4772 82.5341 36.4783C81.5184 38.1337 80.5232 39.8871 79.3767 41.4513C80.1804 42.6252 81.0307 43.7701 81.8607 44.9258C82.3021 45.5408 82.8146 46.1654 83.1481 46.8458C83.0186 46.933 82.8706 46.918 82.7167 46.9315C81.4799 46.9425 80.2431 46.937 79.0064 46.9152C78.4865 45.924 77.8937 44.9545 77.3095 43.9996C76.7073 44.9556 76.1048 45.8944 75.5779 46.8954C74.2837 46.9752 72.9625 46.9125 71.667 46.8883C72.8057 45.0893 74.0827 43.3631 75.3124 41.6248C74.0456 39.9985 72.9396 38.1773 71.7603 36.4801L75.5337 36.4867C76.2185 37.3688 76.7854 38.3922 77.3739 39.3423C77.9134 38.3734 78.4465 37.4009 79.0262 36.4551Z" fill="#15133B"/>
<path d="M24.9059 33.1341C25.8314 32.9789 26.9157 33.1463 27.8495 33.2208C27.8585 33.9817 27.8467 34.744 27.8444 35.5051C27.0343 35.4539 25.8515 35.2235 25.1563 35.731C24.9209 35.9029 24.7663 36.1128 24.7311 36.398L24.8733 36.5684C25.7098 36.9227 26.9864 36.7437 27.8903 36.7294C27.8642 37.5478 27.8583 38.3663 27.8727 39.1849C26.8261 39.1555 25.7794 39.1418 24.7324 39.1437C24.6384 41.1618 24.7093 43.2132 24.7114 45.2351C24.7091 45.7963 24.7334 46.3589 24.7485 46.9199C23.5565 46.9527 22.3573 46.9262 21.1644 46.9267C21.158 44.2859 21.242 41.6383 21.1593 38.9987L20.1667 39.0201L20.1687 36.7404L21.132 36.7554C21.2631 35.8966 21.4202 35.0315 21.9977 34.3438C22.728 33.4741 23.8366 33.25 24.9059 33.1341Z" fill="#15133B"/>
<path d="M122.4 36.6754C123.987 36.4213 125.82 36.8387 127.351 37.2277C127.064 37.9702 126.885 38.7931 126.663 39.5602C125.678 39.1833 124.578 38.8318 123.516 38.8262C123.007 38.8234 122.23 39.0055 121.882 39.4043C121.794 39.5053 121.822 39.4865 121.832 39.6294C122.568 40.605 125.592 40.7123 126.846 41.7342C127.325 42.1239 127.686 42.6766 127.733 43.3039C127.79 44.0571 127.571 44.9888 127.073 45.5709C126.091 46.7193 124.762 47.0099 123.333 47.1169C121.628 47.1455 120.036 46.8432 118.477 46.1495C118.748 45.3819 119.048 44.629 119.353 43.875C120.53 44.3741 121.622 44.8213 122.918 44.8077C123.421 44.8024 124.104 44.7564 124.465 44.3577C124.556 44.257 124.588 44.2003 124.556 44.0591C124.303 42.9483 120.876 42.7585 119.908 42.1758C119.287 41.802 118.893 41.2216 118.746 40.5142C118.588 39.752 118.699 38.9147 119.158 38.2772C119.949 37.1786 121.137 36.8614 122.4 36.6754Z" fill="#15133B"/>
<path d="M57.1652 34.4213C58.095 34.4302 59.0056 34.3465 59.9295 34.3342C60.1619 34.3312 60.4365 34.3609 60.5947 34.5523C60.9831 35.0223 60.8175 36.0711 60.7982 36.6432C61.7246 36.6443 62.651 36.6508 63.5774 36.6627L63.6047 39.0216C62.6918 38.9997 61.7789 38.9979 60.8659 39.016C60.7768 40.2708 60.5321 41.7184 60.6987 42.9626C60.7623 43.4372 60.9325 43.9312 61.3451 44.2121C62.0184 44.6707 62.869 44.442 63.6024 44.2894L63.8039 45.8413C63.8412 46.0555 63.8916 46.2687 63.9363 46.4816C62.9131 46.8925 61.9508 47.1305 60.8396 47.1038C59.8132 47.0791 58.7855 46.9229 58.0618 46.1169C56.63 44.5222 57.1303 41.0294 57.2252 39.0442L55.6441 39.028C55.6252 38.2193 55.6138 37.4191 55.6552 36.6106L57.1766 36.614L57.1652 34.4213Z" fill="#15133B"/>
<path d="M88.5458 33.4301C89.7136 33.4324 90.8964 33.3989 92.0605 33.4878C92.1633 37.9564 91.9519 42.4332 92.0875 46.9059C90.9156 46.947 89.7217 46.8886 88.5478 46.8788L88.5458 33.4301Z" fill="#15133B"/>
<path d="M0.963879 34.0195C2.15555 34.006 3.34711 34.0101 4.53857 34.0318C4.44399 38.3083 4.50776 42.595 4.51402 46.8728C3.34278 46.9202 2.1711 46.937 0.998979 46.9232C0.837826 42.642 0.961078 38.307 0.963879 34.0195Z" fill="#15133B"/>
<path d="M50.0786 36.6786C51.2448 36.6353 52.4294 36.6898 53.5971 36.701C53.6278 38.6928 53.6113 40.688 53.6161 42.6803C53.6194 44.0705 53.6715 45.4827 53.5828 46.8693L50.0276 46.8602C50.1202 45.7488 50.0462 44.566 50.048 43.447L50.0786 36.6786Z" fill="#15133B"/>
<path d="M66.2734 36.6915C67.4129 36.6352 68.5777 36.6739 69.7191 36.6917C69.7043 40.0842 69.5743 43.5175 69.7453 46.9038C68.6191 47.0292 67.36 46.9237 66.2212 46.9144L66.2183 40.0771C66.2178 38.9867 66.1003 37.7618 66.2734 36.6915Z" fill="#15133B"/>
<path d="M30.1253 36.5941C31.2772 36.57 32.4292 36.5678 33.5812 36.5875C33.4663 39.992 33.5799 43.432 33.5792 46.8411C32.7028 47.0598 31.0797 46.9219 30.1375 46.9271L30.1253 36.5941Z" fill="#15133B"/>
<path d="M66.2179 33.0222L69.7512 33.0195V35.6255C68.5759 35.6639 67.3921 35.6385 66.2156 35.6413L66.2179 33.0222Z" fill="#15133B"/>
<path d="M30.0771 33.0344L33.5915 33.0332L33.5821 35.5589C32.4257 35.5719 31.2678 35.5604 30.1112 35.5606C30.0759 34.7205 30.0855 33.8754 30.0771 33.0344Z" fill="#15133B"/>
<path d="M50.1468 33.0532C51.285 32.999 52.4384 33.0313 53.5783 33.0287C53.568 33.83 53.5663 34.6314 53.5732 35.4329L53.5675 35.4784C53.1801 35.7193 50.7524 35.5773 50.1391 35.5751C50.12 34.7351 50.1389 33.8934 50.1468 33.0532Z" fill="#15133B"/>
<path d="M109.936 36.7595L109.77 36.7458C109.557 36.2388 109.727 34.5719 109.742 33.9253L109.796 34.0064L109.751 33.819L109.787 33.8027C109.81 34.2034 109.83 34.6041 109.847 35.005L109.934 34.9858L109.936 36.7595Z" fill="#15133B"/>
</svg>
