<svg width="218" height="70" viewBox="0 0 218 70" fill="none" xmlns="http://www.w3.org/2000/svg">
<path d="M182.871 0.935547C184.867 0.974235 186.847 1.02458 188.828 1.31028C189.264 1.37558 189.699 1.44965 190.132 1.53248C190.565 1.61515 190.997 1.70649 191.426 1.80652C191.856 1.90654 192.283 2.01509 192.709 2.13214C193.134 2.2492 193.557 2.37469 193.977 2.5086C194.397 2.64252 194.815 2.78487 195.229 2.93565C195.644 3.08627 196.055 3.24508 196.463 3.41206C196.872 3.57921 197.276 3.75438 197.678 3.93757C198.079 4.12076 198.476 4.31188 198.87 4.51094C199.264 4.71017 199.653 4.91708 200.038 5.13168C200.424 5.34645 200.805 5.56874 201.181 5.79855C201.557 6.02836 201.929 6.26569 202.296 6.51055C202.663 6.75524 203.025 7.00721 203.382 7.26645C203.739 7.52553 204.09 7.79171 204.437 8.06501C204.783 8.3383 205.124 8.61837 205.459 8.90522C205.794 9.19208 206.123 9.48545 206.446 9.78537C206.77 10.0854 207.087 10.3918 207.398 10.7045C214.084 17.3855 217.561 26.5515 217.499 35.9408C217.495 36.2147 217.487 36.4885 217.476 36.7621C217.465 37.0357 217.45 37.3093 217.432 37.5828C217.414 37.856 217.393 38.1291 217.369 38.4019C217.344 38.6747 217.317 38.9472 217.285 39.2193C217.254 39.4914 217.22 39.7631 217.182 40.0345C217.145 40.3058 217.104 40.5766 217.059 40.8469C217.015 41.1172 216.967 41.387 216.916 41.6561C216.866 41.9253 216.811 42.1938 216.754 42.4616C216.697 42.7295 216.636 42.9966 216.572 43.2629C216.508 43.5293 216.441 43.7948 216.371 44.0595C216.3 44.3243 216.227 44.5882 216.15 44.8511C216.073 45.114 215.993 45.3759 215.91 45.637C215.827 45.8979 215.741 46.1578 215.651 46.4167C215.562 46.6756 215.469 46.9334 215.373 47.19C215.278 47.4467 215.179 47.7022 215.077 47.9563C214.975 48.2105 214.87 48.4635 214.762 48.7151C214.653 48.9669 214.542 49.2173 214.428 49.4661C214.314 49.7151 214.197 49.9627 214.076 50.2088C213.956 50.455 213.833 50.6996 213.707 50.9427C213.581 51.1859 213.452 51.4274 213.319 51.6673C213.187 51.9074 213.052 52.1457 212.915 52.3823C212.777 52.6191 212.636 52.8541 212.492 53.0874C212.349 53.3206 212.202 53.5521 212.053 53.7818C211.904 54.0114 211.752 54.2392 211.597 54.4652C211.442 54.6912 211.285 54.9154 211.125 55.1376C210.965 55.3598 210.802 55.58 210.636 55.7982C210.47 56.0163 210.302 56.2325 210.131 56.4467C209.961 56.6608 209.787 56.8728 209.611 57.0826C209.435 57.2926 209.257 57.5003 209.075 57.7058C208.894 57.9113 208.711 58.1147 208.525 58.3159C208.339 58.5169 208.151 58.7157 207.96 58.9121C207.769 59.1087 207.576 59.3029 207.38 59.4946C207.056 59.8129 206.726 60.1245 206.39 60.4294C206.053 60.7342 205.71 61.0322 205.362 61.3234C205.013 61.6144 204.659 61.8982 204.299 62.1748C203.939 62.4515 203.573 62.7208 203.202 62.9827C202.831 63.2446 202.455 63.4989 202.074 63.7456C201.693 63.9923 201.307 64.2311 200.916 64.4621C200.525 64.6932 200.129 64.9162 199.729 65.1311C199.329 65.3462 198.925 65.5531 198.517 65.7516C198.108 65.9504 197.696 66.1407 197.28 66.3225C196.864 66.5046 196.445 66.6781 196.022 66.8431C195.599 67.0081 195.172 67.1644 194.743 67.312C194.313 67.4599 193.881 67.5988 193.446 67.7289C193.011 67.8592 192.574 67.9806 192.134 68.0932C191.694 68.2057 191.252 68.3092 190.808 68.4037C190.363 68.4985 189.918 68.5841 189.47 68.6607C189.022 68.7372 188.573 68.8047 188.123 68.863C186.346 69.0758 184.589 69.0758 182.804 69.0582C183.027 65.6326 182.824 62.1076 182.782 58.6708C182.725 53.1651 182.743 47.6595 182.837 42.1541C182.531 43.3576 182.204 44.5056 181.568 45.5819C180.094 48.0743 177.52 49.5509 174.78 50.2639C171.911 50.534 169.324 50.3534 166.749 48.9661C165.282 48.1755 163.042 46.5638 162.593 44.8791C162.459 44.3722 162.533 43.8827 162.802 43.435C163.427 42.3959 165.391 41.2618 166.546 41.0175C168.397 40.6259 169.147 42.164 170.506 42.9963C171.475 43.5898 172.506 43.594 173.581 43.3388C174.414 43.1409 175.331 42.8113 175.768 42.0172C176.013 41.5713 176.054 41.1138 175.876 40.6314C175.115 38.5534 170.497 37.4419 168.698 36.5067C166.195 35.2049 164.081 33.2361 163.248 30.4699C162.603 28.3252 162.863 26.1843 163.917 24.2179C165.111 21.9909 167.035 20.4567 169.456 19.7301C172.215 18.902 175.394 19.156 177.921 20.5619C179.091 21.2124 180.794 22.4097 181.138 23.7683C181.266 24.2767 181.175 24.756 180.893 25.1957C180.059 26.4995 177.298 27.7504 175.766 27.4309C174.421 27.1505 173.732 25.5509 171.963 26.0059C171.197 26.2031 170.36 26.6745 169.981 27.3992C169.801 27.7427 169.749 28.161 169.901 28.5254C170.722 30.49 174.266 31.2635 176.071 31.9857C179.601 33.3975 181.378 35.4988 182.833 38.9291C182.705 29.5221 182.693 20.1149 182.798 10.7077C182.846 7.4651 182.659 4.16771 182.871 0.935547Z" fill="#15133B"/>
<path d="M35.0578 19.3055C38.6074 19.2956 45.4405 18.7834 48.6171 20.077C51.0018 21.0482 52.8191 22.9518 53.7945 25.3224C54.8897 27.9842 54.95 31.0874 53.8124 33.7415C52.75 36.2202 50.9473 37.6707 48.4886 38.6508C49.5456 40.484 54.2176 47.0791 54.3042 48.6588C54.3267 49.0747 54.1735 49.4903 53.8478 49.7626C52.7046 50.7189 49.5483 50.1532 48.1335 50.0357C48.0866 50.0275 48.0392 50.0228 47.9934 50.0111C45.8055 49.4571 41.9844 41.4631 40.8289 39.3435C40.877 42.3874 41.4901 46.4593 40.4837 49.3549L40.329 49.4799C39.1579 50.4094 36.8629 50.3474 35.427 50.1406C34.7297 50.0401 34.2185 49.8341 33.7833 49.2726C33.4931 47.7005 33.4177 21.1766 33.663 20.4054C33.8431 19.8384 34.5771 19.5391 35.0578 19.3055ZM40.9366 32.557C42.7177 32.6828 44.599 32.9461 46.206 31.966C46.8838 31.2927 47.319 30.5688 47.3084 29.5862C47.2992 28.7602 47.0309 27.9237 46.4181 27.3483C45.1788 26.1847 43.0388 26.3072 41.4623 26.4081L41.2466 26.423L41.0315 26.5165C40.7116 28.0355 40.9631 30.8942 40.9366 32.557Z" fill="#15133B"/>
<path d="M17.9627 17.2418C20.1181 16.8611 24.2988 18.0728 26.2464 18.9904C27.531 19.5955 29.9279 20.9851 30.3678 22.391C30.6129 23.1749 30.3986 24.189 29.983 24.8782C29.57 25.5631 28.9495 26.1425 28.2725 26.5618C25.6355 28.1946 23.3847 25.8724 20.813 25.2306C19.1881 24.8251 17.4665 24.9238 15.8523 25.3278C15.6884 25.3681 15.5256 25.4124 15.3637 25.4607C15.202 25.509 15.0416 25.5613 14.8826 25.6177C14.7234 25.6739 14.5656 25.7341 14.4094 25.7982C14.2533 25.8622 14.0989 25.9301 13.9461 26.0018C13.7934 26.0736 13.6424 26.1491 13.4933 26.2283C13.3443 26.3076 13.1974 26.3905 13.0524 26.477C12.9074 26.5635 12.7646 26.6535 12.6241 26.7471C12.4837 26.8407 12.3456 26.9376 12.2099 27.038C12.0742 27.1385 11.9411 27.2422 11.8106 27.3492C11.68 27.4562 11.5522 27.5664 11.4272 27.6798C11.3021 27.793 11.1798 27.9094 11.0604 28.0287C10.9412 28.1483 10.825 28.2706 10.7118 28.3958C10.5985 28.5209 10.4884 28.6488 10.3814 28.7794C10.2744 28.91 10.1708 29.0432 10.0704 29.1789C9.97023 29.3147 9.87335 29.4528 9.77977 29.5934C9.68636 29.7339 9.59642 29.8766 9.50995 30.0216C8.14373 32.3546 7.83051 35.2175 8.53209 37.8197C9.21607 40.3575 10.986 42.5785 13.2602 43.8798C15.9991 45.4469 19.6489 45.7646 22.5623 44.4861C23.7912 43.9467 24.9104 43.1956 26.2173 42.8494L26.3937 42.8035C27.5962 43.1073 28.3933 43.6561 29.2997 44.4658C29.8709 45.0642 30.3654 45.6552 30.476 46.5048C30.5767 47.2803 30.2858 47.9871 29.7932 48.5766C27.711 51.0688 23.2987 52.6123 20.1555 52.8804C15.26 53.2975 10.4702 52.0523 6.70559 48.8219C6.48293 48.6334 6.26513 48.4395 6.05219 48.2401C5.83925 48.0407 5.63142 47.8361 5.42869 47.6263C5.22598 47.4165 5.02863 47.2017 4.83664 46.982C4.64466 46.7624 4.45829 46.5382 4.27753 46.3092C4.09676 46.0802 3.92183 45.8468 3.75274 45.6091C3.58364 45.3713 3.42059 45.1295 3.26359 44.8837C3.10658 44.6378 2.95581 44.3882 2.81129 44.1347C2.66676 43.8813 2.52865 43.6244 2.39696 43.3642C2.26529 43.1038 2.1402 42.8403 2.02169 42.5738C1.90318 42.3073 1.7914 42.0379 1.68635 41.7656C1.58131 41.4935 1.48314 41.2189 1.39183 40.942C1.30051 40.6649 1.21618 40.3857 1.13884 40.1043C1.06148 39.823 0.991209 39.54 0.928019 39.2551C0.864812 38.9704 0.808764 38.6842 0.759876 38.3965C0.710987 38.109 0.669316 37.8204 0.63486 37.5308C0.600405 37.241 0.573207 36.9506 0.553268 36.6596C0.206765 31.7063 1.5404 26.8984 4.85691 23.1325C8.34684 19.1695 12.8163 17.5786 17.9627 17.2418Z" fill="#15133B"/>
<path d="M80.6123 19.3281C80.6549 19.3261 80.6978 19.3234 80.7405 19.3219C82.0388 19.2815 83.3559 19.3425 84.6586 19.3204C88.637 19.2524 92.9829 19.1136 96.0943 22.0278C98.2859 24.0805 99.3037 27.0336 99.3696 29.9893C99.4366 32.9814 98.368 36.0268 96.2662 38.1844C94.0652 40.4439 91.5909 40.9848 88.5373 41.0458L85.8939 41.0073C85.8242 42.8936 86.4819 47.9677 85.4182 49.3307C85.011 49.853 84.4138 50.0828 83.772 50.1493C82.6441 50.2659 80.0399 50.2631 79.1917 49.5353C78.9031 48.6261 78.8458 47.5877 78.8041 46.6386C78.6791 43.7946 78.5628 21.444 79.1806 20.2315C79.4571 19.6887 80.0731 19.4982 80.6123 19.3281ZM86.0323 33.8146C87.8184 33.8771 89.5601 34.0237 91.1033 32.935C91.8424 31.9698 92.1673 30.8719 92.0009 29.657C91.865 28.6665 91.5192 27.6085 90.6751 27.0011C89.4428 26.1145 87.5334 26.3554 86.0856 26.3903C86.0256 28.8649 86.0078 31.3396 86.0323 33.8146Z" fill="#15133B"/>
<path d="M140.892 27.7737C141.556 26.3164 144.112 20.1772 145.285 19.6066C146.587 18.9725 150.341 18.9355 151.649 19.463C151.903 19.5659 152.106 19.7182 152.206 19.9774C152.396 20.4659 152.286 21.0056 152.117 21.4837C151.593 22.9635 150.591 24.4381 149.839 25.8309C148.243 28.792 146.586 31.8314 145.185 34.8892L151.412 46.653C151.786 47.3571 152.54 48.4652 152.193 49.2796C151.991 49.7548 151.561 49.9703 151.114 50.1615C149.527 50.2064 147.563 50.4576 146.037 50.011C145.423 49.8314 144.888 49.5055 144.467 49.0222C143.585 48.0074 141.48 43.2262 140.656 41.6695C139.197 44.2743 138.125 47.9722 135.83 49.9353C134.218 50.2555 132.207 50.3852 130.578 50.1476C130.101 50.0779 129.665 49.9842 129.371 49.5755C129.219 48.8902 129.345 48.2943 129.575 47.6381C130.137 46.0345 131.159 44.5066 131.966 43.0102C133.478 40.1913 134.975 37.3643 136.457 34.5292C135.009 31.9326 133.681 29.2753 132.296 26.6453C131.412 24.9654 130.351 23.2688 129.678 21.4981C129.52 21.0824 129.361 20.6326 129.494 20.1869C129.652 19.6609 130.065 19.4737 130.516 19.2438C132.104 19.1374 134.275 18.87 135.799 19.3241C137.481 19.8253 139.985 25.9948 140.892 27.7737Z" fill="#15133B"/>
<path d="M70.8168 19.7371C72.2126 19.1508 74.3612 19.1255 75.8629 19.3169C76.4576 19.3928 76.8933 19.5292 77.2735 20.0022C77.4615 20.6147 77.3288 21.2179 77.1492 21.8197C76.6594 23.4625 75.7595 25.043 75.0313 26.593C73.7561 29.3664 72.4442 32.1225 71.0956 34.8612C70.5669 35.9512 69.9037 37.1044 69.6942 38.3084C69.2569 40.8219 70.5572 48.0379 68.9846 49.7017C68.6823 50.0214 68.1831 50.0476 67.768 50.0662C66.6783 50.1154 63.8746 50.3648 63.1088 49.5378C61.8269 48.1534 62.8692 41.2135 62.5994 38.9899C62.5062 38.2216 62.2659 37.5245 61.9673 36.8152C60.8508 34.1636 54.3572 22.1349 54.7133 20.3042C54.8093 19.8102 55.1005 19.5791 55.4891 19.3152C56.6199 19.2986 59.8117 19.0223 60.7476 19.4137C63.049 20.3759 65.0177 28.8031 66.2621 29.3271C67.2826 26.5228 68.7399 21.9966 70.7144 19.8459C70.7482 19.8092 70.7826 19.7733 70.8168 19.7371Z" fill="#15133B"/>
<path d="M111.456 19.2298C112.623 19.2033 117.063 19.0188 117.768 19.7419C118.433 20.4249 118.473 22.0456 118.482 22.9595C118.49 23.768 118.456 25.2205 117.781 25.7631C116.714 26.6207 114.075 26.274 112.76 26.239C112.579 28.2741 112.669 30.3682 112.667 32.4107L112.668 42.6039C112.677 44.3062 112.837 46.1337 112.668 47.8208C112.609 48.4182 112.517 48.9936 112.248 49.5365C111.119 50.492 108.702 50.0776 107.303 49.9915C106.863 49.8961 106.3 49.8383 105.985 49.4926C105.625 49.0988 105.6 48.1668 105.565 47.6336C105.428 45.5727 105.562 43.4449 105.552 41.3746L105.562 26.2673C104.38 26.2755 103.131 26.3776 101.958 26.24C101.271 26.1592 100.581 25.9858 100.161 25.3948C99.3922 24.3118 99.487 22.2242 99.7687 20.9656C99.9569 20.1251 100.192 19.827 100.906 19.3628C104.407 19.1316 107.945 19.4151 111.456 19.2298Z" fill="#15133B"/>
<path d="M123.594 19.2421C123.697 19.2294 123.8 19.2156 123.903 19.2069C124.758 19.1347 126.384 18.9633 127.045 19.6037C127.411 19.9588 127.414 21.5676 127.426 22.0812C127.482 24.5884 127.404 27.1044 127.406 29.6126C127.409 32.2679 127.489 34.925 127.496 37.5816C127.504 40.8911 127.672 44.3011 127.462 47.6002C127.427 48.154 127.436 49.0775 127.029 49.4882C126.262 50.2625 124.75 50.0678 123.761 50.0653C122.924 50.0837 121.546 50.2047 120.865 49.6685C120.4 49.3022 120.406 48.6758 120.355 48.1257C119.948 43.6736 120.203 38.2789 120.213 33.7316C120.222 29.7942 119.988 25.762 120.249 21.8376C120.289 21.237 120.263 20.247 120.693 19.7964C121.365 19.0921 122.691 19.2619 123.594 19.2421Z" fill="#15133B"/>
<path d="M156.278 19.242C157.484 19.1371 159.636 18.8923 160.678 19.6249C160.816 19.7221 160.94 19.7819 160.973 19.9567C161.463 22.6128 161.118 26.1614 161.149 28.9159C161.242 33.6048 161.25 38.2937 161.173 42.9826C161.159 44.8746 161.282 46.8241 161.142 48.7082C161.117 49.0447 161.08 49.2954 160.853 49.5665C160.459 50.037 159.853 50.0635 159.286 50.1342C158.245 50.2393 155.695 50.4417 154.815 49.8125C154.414 49.5256 154.448 49.2022 154.37 48.7461C154.082 47.06 154.192 45.3481 154.21 43.6453L154.269 36.7187C154.287 31.6087 154.024 26.4136 154.273 21.3133C154.296 20.8381 154.277 20.0711 154.613 19.7055C155 19.2859 155.748 19.2963 156.278 19.242Z" fill="#15133B"/>
</svg>
