<svg width="218" height="50" viewBox="0 0 218 50" fill="none" xmlns="http://www.w3.org/2000/svg">
<path d="M0.630589 0.37212L11.9104 0.35244C19.5345 0.342472 26.4585 0.330967 32.6168 5.56628C37.803 9.97526 40.6976 16.6396 41.1965 23.3545C41.7294 30.5244 39.1451 37.3511 34.5128 42.7586C34.3392 42.9659 34.1644 43.163 33.9717 43.3529C27.6038 49.6262 20.5206 49.5676 12.1867 49.5674L0.631382 49.5582C0.358869 43.9078 0.594066 37.9123 0.598718 32.231L0.630589 0.37212ZM12.5525 38.8596C17.1271 38.8386 21.8285 39.0086 25.2759 35.4814C25.3611 35.394 25.4452 35.3054 25.5282 35.2156C25.6948 35.0256 25.8567 34.8315 26.0138 34.6333C26.1709 34.4352 26.323 34.2332 26.47 34.0276C26.6171 33.8221 26.7588 33.6129 26.8953 33.4001C27.032 33.1874 27.1633 32.9715 27.2892 32.7522C27.4151 32.5329 27.5355 32.3107 27.6503 32.0856C27.765 31.8603 27.8742 31.6323 27.9778 31.4016C28.0812 31.1709 28.1788 30.9378 28.2707 30.7023C28.3627 30.4668 28.4487 30.2292 28.5286 29.9895C28.6087 29.7495 28.6828 29.5078 28.7509 29.2644C28.8189 29.021 28.8809 28.7761 28.9367 28.5295C28.9926 28.283 29.0423 28.0351 29.0858 27.786C29.1294 27.5369 29.1667 27.2869 29.1977 27.0361C29.2289 26.7853 29.2538 26.5338 29.2723 26.2816C29.2909 26.0294 29.3032 25.777 29.3091 25.5243C29.3153 25.2716 29.315 25.0189 29.3084 24.7662C29.3019 24.5133 29.2891 24.2609 29.27 24.0088C29.0014 20.3337 27.4722 16.5903 24.6321 14.1578C21.2587 11.2686 17.0128 11.1834 12.8065 11.2803C12.5722 11.5587 12.565 11.7721 12.5376 12.1309C12.3051 15.1825 12.5218 18.3705 12.5241 21.4366L12.5525 38.8596Z" fill="#15133B"/>
<path d="M170.935 8.36719C171.72 8.4431 172.552 8.40322 173.344 8.41652C173.216 10.117 173.285 11.8696 173.286 13.5762C173.287 15.4929 173.23 17.4313 173.371 19.3436C170.979 19.4748 167.831 19.121 165.941 20.9242C164.985 21.8374 164.394 23.2703 164.173 24.5634C163.695 27.3716 164.046 30.4131 164.059 33.2579L164.065 49.4318C156.397 49.6041 148.673 49.4793 141.002 49.441C139.778 46.1515 139.006 42.5857 138.05 39.2035C136.134 32.6679 134.335 26.1002 132.655 19.5003C129.152 19.4638 126.376 19.5719 123.698 22.1122C121.256 24.4279 119.524 27.7787 119.454 31.183C119.409 33.3936 120.032 35.5937 121.621 37.1965C124.527 40.1297 130.284 39.3131 134.153 39.2674C134.22 42.6563 134.169 46.0536 134.163 49.4433C128.354 49.6227 122.126 50.0598 116.759 47.4098C115.3 46.6458 113.939 45.7032 112.771 44.5384C109.361 41.1388 107.727 36.3119 107.73 31.5528C107.733 24.9363 110.778 19.1491 115.408 14.5745C118.517 11.5018 122.003 8.96093 126.469 8.60182C128.104 8.47045 129.78 8.57498 131.418 8.59185L141.62 8.66572C142.031 10.5321 142.633 12.3723 143.154 14.2123C144.045 17.3572 144.92 20.5066 145.779 23.6606C147.958 31.6149 149.963 39.6523 152.289 47.5606C152.434 43.5488 152.344 39.524 152.342 35.5096C152.275 26.5301 152.314 17.5511 152.458 8.57243C156.349 8.69784 160.241 8.71539 164.133 8.62508C164.195 9.24592 164.193 9.88132 164.215 10.505C166.368 9.07518 168.376 8.49626 170.935 8.36719Z" fill="#15133B"/>
<path d="M61.0344 8.60294C62.8177 8.33713 64.8875 8.52985 66.7065 8.53291C69.574 8.53777 72.8495 8.28908 75.6569 8.68908C78.565 17.9571 81.3428 27.264 83.9903 36.6098C85.2399 40.9053 86.3461 45.2918 87.8029 49.5196C83.7671 49.7509 79.6229 49.5735 75.5756 49.5748C73.7088 44.0603 72.2654 38.3432 70.6302 32.7514C69.4138 28.5926 67.7039 23.7174 66.8691 19.5526C66.3423 19.5145 65.8122 19.4787 65.2842 19.4725C61.839 19.4329 59.8247 20.4924 57.4055 22.8696C55.2151 25.2686 53.6302 28.2772 53.5665 31.5833C53.5271 33.6362 54.0866 35.647 55.576 37.1325C58.398 39.9476 64.7978 39.2215 68.6059 39.2276C68.543 42.6801 68.5431 46.1326 68.6061 49.585C61.712 49.6123 54.2886 50.2551 48.5119 45.7488C44.6453 42.7325 42.416 38.4007 41.8448 33.5583C41.1513 27.6784 43.1572 21.9791 46.8252 17.4079C50.4363 12.9079 55.1944 9.26442 61.0344 8.60294Z" fill="#15133B"/>
<path d="M192.449 8.49805C196.983 8.7314 201.569 8.48067 206.114 8.59467C206.422 10.1543 206.94 11.7024 207.381 13.2296C208.035 15.4945 208.671 17.7643 209.289 20.0391L214.371 38.4561C215.403 42.1193 216.52 45.7615 217.5 49.4384C215.956 49.466 206.602 49.4014 206.073 49.5734C205.837 49.6503 205.783 49.6748 205.548 49.6194C204.727 48.3573 203.496 42.9497 203.012 41.2283L196.989 19.5696C195.854 19.5407 194.69 19.4886 193.56 19.6258C190.948 19.9427 188.954 21.3444 187.365 23.3935L187.28 23.4896C185.241 25.8257 184.024 29.2844 184.235 32.3796C184.369 34.3569 185.006 36.4594 186.586 37.7619C189.208 39.9245 195.119 39.4795 198.359 39.207C198.294 42.6489 198.357 46.0986 198.324 49.5422C196.995 49.441 195.59 49.5466 194.254 49.5616C188.027 49.6317 182.431 49.4361 177.624 44.9139C174.457 41.9347 172.626 37.4059 172.485 33.092C172.263 26.2526 173.914 20.3696 178.722 15.3111C182.304 11.5429 187.153 8.61153 192.449 8.49805Z" fill="#15133B"/>
<path d="M88.1693 0.597656C92.0377 0.86015 95.9953 0.52813 99.8813 0.681741L99.9391 8.65267C102.416 8.6346 104.892 8.64935 107.368 8.69689C107.326 12.356 107.324 16.015 107.361 19.6741L99.9626 19.6674C100.092 20.7374 100.009 21.884 99.9997 22.9628C99.9791 24.8608 99.9686 26.7589 99.9682 28.6569C99.969 35.2349 100.033 41.8194 99.9383 48.3966C99.9677 48.7867 99.9611 49.1767 99.9621 49.5677C96.0702 49.5808 92.1133 49.7231 88.2278 49.5092C88.317 48.507 88.2342 47.4422 88.237 46.4326C88.2467 43.9145 88.2355 41.3966 88.2033 38.8789L88.2076 19.7523C86.581 19.6214 84.9437 19.6912 83.3138 19.7186C83.2514 16.0071 83.2614 12.3128 83.2977 8.6018C84.8834 8.51822 86.5378 8.65062 88.1307 8.67873C88.0095 7.66199 88.1115 6.57572 88.1269 5.5513L88.1693 0.597656Z" fill="#15133B"/>
</svg>
