<svg width="218" height="72" viewBox="0 0 218 72" fill="none" xmlns="http://www.w3.org/2000/svg">
<path d="M31.5452 0.454959C32.3971 0.316749 33.3483 0.403675 34.2145 0.406672C34.0476 2.18542 33.971 3.96416 33.6966 5.73258C32.2496 15.0612 27.9991 23.2932 22.1529 30.6107C20.9367 32.1333 19.5939 33.5387 18.3327 35.0227C28.8999 46.4965 32.8287 56.2154 34.3224 71.6227C24.8635 71.2587 18.4509 68.9927 11.0106 63.1356C5.8322 58.2639 2.52316 52.3779 0.499969 45.5873C7.40713 43.4702 12.6111 39.9796 17.8331 35.063C12.9319 30.2783 7.23428 27.4925 0.667486 25.8566C0.820904 25.2596 0.989976 24.667 1.1747 24.0788C1.35942 23.4907 1.55947 22.9078 1.77483 22.3301C1.99019 21.7526 2.22065 21.1811 2.46621 20.6156C2.71177 20.0501 2.97209 19.4915 3.24718 18.9398C3.52205 18.388 3.81134 17.844 4.11507 17.3076C4.41858 16.7712 4.73607 16.2431 5.06755 15.7233C5.39926 15.2036 5.74428 14.6929 6.10263 14.1913C6.46098 13.6898 6.83231 13.198 7.21663 12.716C13.6309 4.73447 21.6041 1.531 31.5452 0.454959Z" fill="#15133B"/>
<path d="M57.5965 9.61091C57.6111 9.60925 57.6255 9.60692 57.6401 9.60559C62.7033 9.22793 67.846 10.6057 71.7245 13.9587C76.0507 17.6987 78.3316 23.0183 78.6806 28.6752C79.1009 35.4854 77.1923 41.0954 72.688 46.1869C74.3155 47.8734 76.0743 49.5346 77.547 51.3543C74.88 51.4189 72.2128 51.4643 69.5451 51.4905C69.1845 50.8843 68.7612 50.3495 68.3249 49.7973L66.3014 50.6845C64.6948 51.2054 63.0756 51.5884 61.3938 51.7699C56.0692 52.3437 50.9128 51.1155 46.7342 47.6932C42.5493 44.2659 40.2533 39.2764 39.7195 33.9445C39.0947 27.7021 40.1721 21.1339 44.2714 16.1924C47.6727 12.0924 52.3788 10.1121 57.5965 9.61091ZM64.4221 45.1135L62.9144 43.4367C61.9579 42.3763 60.9818 41.3286 60.057 40.2409L63.689 37.2052C65.0515 38.8518 66.3903 40.5283 67.7964 42.1368C70.9745 37.9249 71.9936 32.7942 71.2856 27.6022C70.7734 23.8482 69.3423 19.9913 66.2244 17.6321C64.2482 16.1371 61.1433 15.0834 58.6482 15.3571C58.4907 15.3744 58.4457 15.3961 58.3128 15.442C54.9668 15.7824 51.9179 17.0546 49.7409 19.6889C46.6037 23.4848 45.893 28.6266 46.4035 33.3933C46.8268 37.3475 48.434 41.1194 51.5845 43.6635C54.0124 45.6244 57.3137 46.6092 60.419 46.2495C61.8157 46.0876 63.1349 45.6664 64.4221 45.1135Z" fill="#15133B"/>
<path d="M119.791 20.6009C120.229 20.5585 120.668 20.527 121.109 20.5063C124.309 20.3708 128.198 20.9709 130.592 23.2572C131.809 24.4195 132.587 25.8985 132.973 27.5274C133.601 30.177 133.316 33.1017 133.308 35.8047C133.294 40.9331 133.142 46.0625 133.211 51.1899C131.26 51.2128 129.308 51.2138 127.356 51.1929C127.391 49.8704 127.336 48.5353 127.319 47.2118C125.888 48.867 124.381 50.2974 122.345 51.1759C119.785 52.2806 116.183 52.5194 113.594 51.4274C111.155 50.3986 109.862 48.4514 108.944 46.0835C108.533 43.8388 108.407 41.2888 109.321 39.1467C111.704 33.5647 119.426 34.9271 124.1 32.9838C125.293 32.4876 126.525 31.8076 126.998 30.5264C127.344 29.5919 127.211 28.5495 126.741 27.6833C126.044 26.3951 124.688 25.5585 123.309 25.1732C121.502 24.6686 119.422 24.7652 117.801 25.773C115.979 26.9066 115.424 28.6068 114.944 30.5703C113.083 30.4751 111.196 30.521 109.331 30.5121C109.39 28.1988 109.835 26.0371 111.392 24.2307C113.474 21.8152 116.713 20.8394 119.791 20.6009ZM116.17 46.5524C117.923 47.5648 119.707 47.9235 121.707 47.4053C123.57 46.9224 125.051 45.7058 125.957 44.018C126.993 42.0887 127.846 37.6803 127.211 35.5925L126.96 35.5189C123.305 37.3619 116.075 37.3653 114.733 41.5156C114.377 42.6179 114.398 43.9763 114.932 45.0187C115.245 45.6275 115.675 46.0898 116.17 46.5524Z" fill="#15133B"/>
<path d="M100.349 21.3633C102.186 21.3836 104.025 21.3666 105.862 21.3646C105.964 31.2953 105.964 41.226 105.861 51.1566C104.081 51.1498 102.302 51.1703 100.523 51.2183C100.522 49.9537 100.423 48.7002 100.329 47.4396C99.9887 47.8168 99.6418 48.1878 99.2883 48.5526C97.0324 50.8562 93.9215 51.9213 90.7456 51.9463C87.8755 51.9692 85.113 51.3088 83.0279 49.1914C79.6339 45.7455 80.278 40.4499 80.3622 36.0398L80.3666 21.5441L86.9773 21.5308C86.7928 25.2302 86.8901 28.9751 86.8804 32.6798C86.8721 35.9902 86.5953 39.5956 87.1712 42.8544C87.3507 43.8712 87.6484 44.7504 88.3588 45.524C89.4488 46.7113 91.1406 47.1685 92.7009 47.2372C94.5362 47.3181 96.351 46.8585 97.7197 45.5846C98.878 44.5072 99.5434 43.0466 99.9031 41.5282C100.61 38.5433 100.378 35.3718 100.346 32.3298C100.307 28.6754 100.231 25.0167 100.349 21.3633Z" fill="#15133B"/>
<path d="M151.26 20.5885C151.943 20.5506 152.63 20.5106 153.314 20.5346C155.626 20.6162 157.849 21.2853 159.445 23.0524C160.663 24.4021 161.35 26.1586 161.686 27.926C162.242 30.8587 161.973 34.0765 161.969 37.0582C162.006 41.748 161.957 46.4369 161.822 51.1249C159.984 51.2138 158.146 51.04 156.304 51.1509C156.202 46.8318 156.271 42.5036 156.284 38.1838C156.292 35.6661 156.416 33.0734 156.069 30.574C155.913 29.4493 155.613 27.924 154.84 27.0698C153.969 26.1073 152.175 25.5954 150.902 25.5754C148.509 25.5381 146.45 26.9628 144.84 28.5854C144.055 29.5069 143.468 30.3342 143.132 31.5241C142.147 35.019 142.679 46.8191 142.668 51.1715L137.003 51.1739C136.799 46.5723 136.894 41.9368 136.905 37.3309L136.927 21.221C138.729 21.1657 140.546 21.2003 142.35 21.1953C142.396 22.8452 142.424 24.4827 142.373 26.1336C144.906 23.0061 147.175 21.1314 151.26 20.5885Z" fill="#15133B"/>
<path d="M195.515 20.9551C195.593 20.9594 195.671 20.9541 195.748 20.9681C196.468 21.1019 202.542 31.1516 203.535 32.649C205.244 29.0409 208.473 24.411 210.77 21.045C212.796 21.0353 214.916 21.3044 216.929 21.085C213.985 26.1518 210.588 30.9724 207.393 35.8847C210.929 40.8256 214.507 45.987 217.5 51.277C215.572 51.2517 213.651 51.2377 211.723 51.3029L211.379 51.282C209.779 50.2179 204.693 41.6299 203.46 39.4522C200.662 43.1213 198.354 47.3065 195.9 51.2224C193.714 51.1771 191.529 51.207 189.345 51.3123C192.556 46.3214 196.288 41.2956 198.986 36.0143C196.958 31.4833 192.437 25.3575 189.56 21.032C191.545 21.0229 193.53 20.9973 195.515 20.9551Z" fill="#15133B"/>
<path d="M168.086 12.576C169.694 12.8608 171.879 12.6826 173.504 12.4961C173.465 15.3289 173.448 18.1737 173.655 21.0005L179.104 21.0281C179.096 22.5454 179.091 24.0428 178.917 25.5531C177.18 25.3659 175.415 25.4815 173.671 25.5304L173.644 36.9276C173.622 39.2076 173.393 41.7103 173.692 43.9666C173.779 44.6174 173.914 45.4916 174.474 45.9062C175.609 46.7471 177.715 46.2612 178.997 46.1051C179.019 47.4189 178.992 48.736 178.986 50.0499C178.952 50.3503 178.995 50.615 178.781 50.8481C178.166 51.5175 176.513 51.4653 175.637 51.4999C173.52 51.5838 170.993 51.3783 169.409 49.8044C168.598 48.9998 168.309 47.7449 168.137 46.6472C167.715 43.9606 167.942 41.0432 167.956 38.3273L167.965 25.7443L163.626 25.7066C163.578 24.154 163.627 22.5924 163.643 21.0391C165.097 21.0335 166.533 21.0335 167.983 21.1653L168.086 12.576Z" fill="#15133B"/>
<path d="M181.638 21.0497C183.414 21.0406 185.19 21.0444 186.965 21.0611C187.217 31.1194 186.803 41.2164 187.192 51.2714C185.369 51.2125 183.529 51.296 181.705 51.34C181.333 41.286 181.574 31.1141 181.638 21.0497Z" fill="#15133B"/>
<path d="M181.51 11.0547C183.345 11.133 185.266 11.2928 187.092 11.088C187.106 12.9793 187.127 14.8646 187.024 16.7543C185.199 16.8385 183.357 16.7955 181.53 16.7999C181.465 14.8909 181.509 12.9656 181.51 11.0547Z" fill="#15133B"/>
</svg>
