<svg width="180" height="80" viewBox="0 0 180 80" fill="none" xmlns="http://www.w3.org/2000/svg">
<path d="M159.351 54.9247C162.972 54.878 166.594 54.8626 170.215 54.8786C173.378 54.8747 176.546 54.8148 179.708 54.8668C179.085 58.4111 178.852 60.6226 177.164 63.9333C173.623 70.8776 167.18 76.1196 159.797 78.5053C159.182 78.7053 158.562 78.8846 157.935 79.0431C157.308 79.2015 156.677 79.3388 156.041 79.4549C155.405 79.5711 154.766 79.6659 154.124 79.7392C153.482 79.8126 152.838 79.8643 152.193 79.8945C148.87 80.0655 145.533 79.9796 142.207 79.9694L127.682 79.9578L80.4399 79.9419L45.8453 79.9462L34.7704 79.9833C32.1146 79.991 29.4421 80.0572 26.7937 79.8209C22.7182 79.4569 18.9155 78.2311 15.2898 76.3703C14.1936 75.7451 13.1123 75.1053 12.0743 74.3856C4.91536 69.4236 1.81562 63.3826 0.291687 55.012L21.2654 55.085C22.3932 56.7997 23.6197 58.3891 25.2126 59.7005C25.3806 59.8384 25.551 59.9732 25.7238 60.1049C25.8967 60.2366 26.0719 60.3652 26.2494 60.4907C26.4268 60.6161 26.6064 60.7383 26.7883 60.8573C26.9701 60.9763 27.1539 61.092 27.3398 61.2045C27.5259 61.3169 27.7139 61.4259 27.9038 61.5316C28.0937 61.6373 28.2854 61.7395 28.479 61.8382C28.6724 61.937 28.8676 62.0324 29.0646 62.1242C29.2617 62.2159 29.4602 62.3041 29.6603 62.3889C29.8604 62.4736 30.062 62.5546 30.2651 62.6319C30.4682 62.7093 30.6725 62.7831 30.8782 62.8533C31.0839 62.9235 31.2908 62.9898 31.4988 63.0524C31.707 63.1152 31.9161 63.1742 32.1263 63.2293C32.3364 63.2845 32.5475 63.3359 32.7596 63.3837C32.9717 63.4313 33.1845 63.4751 33.398 63.5151C33.6116 63.555 33.8258 63.5911 34.0406 63.6234C34.2557 63.6558 34.4711 63.6842 34.687 63.7088C37.3197 64.0158 39.9561 63.8785 42.5979 63.8617L52.8824 63.8501L90.4239 63.8503L128.234 63.8566L139.742 63.866C141.641 63.8735 143.593 64.044 145.485 63.8538C151.863 63.2129 155.52 59.6564 159.351 54.9247Z" fill="#15133B"/>
<path d="M27.6883 0.135931C28.9006 -0.127185 30.5524 0.0704241 31.8123 0.0830886C34.0771 0.107253 36.3418 0.11533 38.6066 0.107324L69.8261 0.105578L125.594 0.114094L143.279 0.099028C146.947 0.0979362 150.706 -0.0653949 154.359 0.310391C154.894 0.370657 155.428 0.445625 155.959 0.535295C156.491 0.625111 157.019 0.729556 157.545 0.848632C158.071 0.967853 158.593 1.10148 159.111 1.24953C159.629 1.39757 160.143 1.55988 160.653 1.73646C161.162 1.91289 161.666 2.10337 162.165 2.30789C162.663 2.51241 163.156 2.73062 163.643 2.96251C164.129 3.19426 164.609 3.4394 165.082 3.69793C165.555 3.95631 166.021 4.22765 166.479 4.51195C171.932 7.90909 176.203 13.0445 178.211 19.1846C178.814 21.0297 179.128 22.9403 179.572 24.8254C177.464 24.8994 175.31 24.7887 173.197 24.7804C168.461 24.7516 163.724 24.7668 158.987 24.826C157.382 21.4651 154.169 18.7754 150.905 17.126C149.004 16.198 146.964 15.5301 144.844 15.4001C142.628 15.2643 140.386 15.3449 138.166 15.3495L126.924 15.3626H91.2667L53.5295 15.3617C50.5787 15.363 47.6237 15.3953 44.6733 15.3543C40.581 15.2973 36.2833 14.8894 32.2896 15.9788C27.4247 17.3057 23.5214 20.44 21.0165 24.79C14.1532 24.7732 7.27507 24.9092 0.414429 24.8044C1.19087 19.6371 2.95757 14.9219 6.30493 10.8442C11.8598 4.07677 19.1293 0.990348 27.6883 0.135931Z" fill="#15133B"/>
<path d="M31.384 31.6721C31.7763 31.6339 32.1691 31.6285 32.5624 31.6557C32.9557 31.683 33.344 31.7427 33.7273 31.8347C34.7427 32.085 35.682 32.6164 36.4672 33.3008C38.7992 35.3325 42.1951 40.7689 43.8893 43.5455C43.9707 39.6583 43.8711 35.7561 43.8751 31.8677L48.9075 31.9598C48.9134 35.1168 49.3348 44.958 48.2624 47.24C47.7561 48.3174 46.7949 48.8438 45.7145 49.2117C45.1127 49.3611 44.3692 49.3814 43.7554 49.3091C39.4737 48.8045 35.6178 41.0136 32.9729 37.7307C32.9476 41.452 32.9793 45.1728 33.0681 48.8929L27.9562 48.8955C27.9538 46.417 27.9652 43.9365 27.9318 41.4582C27.9067 39.6092 27.7768 37.7272 27.9602 35.885C28.044 35.043 28.1772 34.1165 28.6299 33.3879C29.2939 32.3188 30.2051 31.9242 31.384 31.6721Z" fill="#15133B"/>
<path d="M82.1409 31.775C82.6833 31.7241 83.2353 31.7233 83.7741 31.8117C84.3844 31.9117 84.9432 32.1132 85.4332 32.4965C87.0658 33.7732 88.3275 35.6814 89.6099 37.2976C91.1964 39.2971 92.8055 41.2823 94.2977 43.3536C94.1953 41.7073 94.2352 40.0323 94.22 38.3819C94.2005 36.2403 94.0614 33.9926 94.4407 31.8787C95.9552 31.7735 97.4813 31.8455 98.9982 31.8774C98.945 34.5445 98.9334 37.2118 98.9632 39.8792C98.9949 41.9306 99.1578 44.0845 98.9056 46.1237C98.8252 46.773 98.6951 47.3932 98.2894 47.924C97.7854 48.5832 97.0854 48.9225 96.2773 49.0306C95.3836 49.0544 94.4361 49.1328 93.5481 49.0317C93.0194 48.9716 92.5574 48.8548 92.1373 48.5208C90.5097 47.2259 89.083 44.9965 87.744 43.3777C86.2531 41.5749 84.6454 39.8506 83.2187 37.9983C83.1283 41.6317 83.2221 45.2758 83.175 48.9116C81.5046 49.1011 79.744 48.9852 78.0664 48.9286L78.0605 41.1983C78.0498 39.4833 77.9186 37.6723 78.155 35.9715C78.2705 35.1398 78.4989 34.2679 78.9747 33.567C79.7132 32.4788 80.9045 32.0209 82.1409 31.775Z" fill="#15133B"/>
<path d="M155.064 31.6836C156.727 31.7273 158.39 31.672 160.054 31.7286C158.675 33.599 156.997 35.3146 155.465 37.0664C154.514 38.1541 153.633 39.3476 152.633 40.385C154.876 43.3531 157.835 45.8146 159.945 48.8853C158.091 49.2152 156.139 49.0422 154.261 49.0241C152.449 47.3275 150.855 45.4106 149.033 43.7295C147.305 45.3859 145.659 47.1299 143.993 48.8479C143.205 48.8929 142.404 48.8682 141.614 48.8706L137.067 48.8746C137.982 47.6985 139.092 46.6399 140.129 45.5717C141.839 43.806 143.563 42.0538 145.3 40.3151C144.384 39.0412 143.162 37.97 142.073 36.8437C140.486 35.2024 138.945 33.5145 137.295 31.9351C139.502 31.7729 141.836 31.9044 144.051 31.9576C145.788 33.5848 147.435 35.3602 149.052 37.1055C149.071 37.0824 149.09 37.059 149.109 37.0363C150.001 35.9991 153.462 32.357 154.492 31.8033C154.67 31.707 154.866 31.6984 155.064 31.6836Z" fill="#15133B"/>
<path d="M51.6692 31.8764C54.5091 31.8094 57.3674 31.8729 60.2088 31.8731C62.6943 31.8731 65.2076 31.7959 67.6896 31.9212C67.7363 33.385 67.835 34.8749 67.6654 36.3315C64.5671 36.9455 59.9874 36.4151 56.6885 36.4627L56.706 39.3175C59.6269 39.3491 62.5493 39.3273 65.4705 39.3229C65.9487 39.3277 66.428 39.3513 66.9059 39.3662C66.9029 40.8313 66.881 42.2962 66.8404 43.761C63.4959 43.8944 60.1068 43.7498 56.7549 43.7717L56.7673 48.8979L51.6642 48.8726C51.5891 43.2114 51.7109 37.5401 51.6692 31.8764Z" fill="#15133B"/>
<path d="M109.816 31.8702L120.902 31.8648C123.264 31.8665 125.682 31.7665 128.036 31.9552C128.109 33.0742 128.364 35.3565 127.635 36.234C127.418 36.4943 127.113 36.6286 126.787 36.693C125.915 36.8651 124.79 36.6491 123.897 36.6155C123.11 36.5858 122.325 36.6203 121.54 36.6565C121.441 38.7982 121.515 40.9668 121.52 43.1115C121.609 44.35 121.65 45.59 121.643 46.8316C121.637 47.4635 121.571 48.1614 121.073 48.6094C120.226 49.3717 117.391 48.9269 116.281 48.7876C116.085 44.7629 116.206 40.7413 116.252 36.7138C114.096 36.7483 111.95 36.8854 109.806 36.5961C109.582 34.9975 109.571 33.4664 109.816 31.8702Z" fill="#15133B"/>
<path d="M130.389 31.8787C131.753 31.8498 134.009 31.5404 135.235 32.1407C135.584 32.965 135.555 47.6693 135.258 48.8452C133.648 49.0707 131.955 48.9275 130.336 48.8589C129.884 46.1404 130.214 43.2822 130.216 40.5394C130.218 38.4793 129.834 33.536 130.389 31.8787Z" fill="#15133B"/>
<path d="M19.9846 31.9011L25.112 31.8945C25.1006 37.561 25.013 43.2092 25.1441 48.8765C23.4352 49.0154 21.6838 48.932 19.9719 48.9005L19.9846 31.9011Z" fill="#15133B"/>
<path d="M70.1958 31.8929C71.7933 31.8977 73.3995 31.8711 74.9948 31.9573C74.9354 37.598 75.0006 43.2372 74.8851 48.8784C73.3944 49.1422 71.5991 49.1125 70.1047 48.8708C69.8412 46.7377 69.9667 44.4705 69.9685 42.323C69.9715 38.8665 69.9209 35.3398 70.1958 31.8929Z" fill="#15133B"/>
<path d="M102.686 31.8632C104.235 31.8329 105.847 31.7318 107.376 32.0106C107.536 34.1191 107.458 36.2703 107.475 38.3852C107.503 41.8806 107.562 45.3843 107.437 48.8784C105.875 48.9135 104.313 48.9069 102.75 48.8586C102.474 47.0593 102.584 45.1125 102.56 43.2914C102.511 39.5174 102.422 35.629 102.686 31.8632Z" fill="#15133B"/>
</svg>
