<svg width="218" height="58" viewBox="0 0 218 58" fill="none" xmlns="http://www.w3.org/2000/svg">
<path d="M173.794 1.17395C179.046 1.03771 184.348 1.1141 189.601 1.20154C190.93 3.9399 192.348 6.62889 193.63 9.39282C196.592 15.7814 199.431 22.3433 202.831 28.5094C201.756 31.1978 200.225 33.788 198.991 36.418L189.517 56.6393L175.321 56.671C171.313 56.707 167.202 57.1145 163.239 56.3418C162.652 56.2268 162.072 56.0825 161.5 55.909C160.928 55.7353 160.366 55.5333 159.814 55.3031C159.262 55.0726 158.723 54.815 158.198 54.5301C157.672 54.2451 157.162 53.9343 156.667 53.5979C152.26 50.6464 149.801 46.1994 148.801 41.0617C147.568 34.7297 148.691 27.6853 152.324 22.3044C153.641 20.5952 155.209 19.1449 157.06 18.0274C160.896 15.7114 165.527 15.1487 169.856 16.2188C173.705 17.1707 176.888 19.3656 178.922 22.7913C181.853 27.7262 181.927 34.7948 180.541 40.2135C173.427 40.4113 166.294 40.2312 159.177 40.2567C159.901 42.9088 161.163 45.0398 163.608 46.4318C166.322 47.9766 169.826 48.236 172.804 47.3962C180.795 45.1426 183.654 35.8467 187.315 29.3779C183.067 19.8545 178.255 10.5928 173.794 1.17395ZM159.135 32.3464L166.104 32.3603C167.777 32.3678 169.458 32.405 171.13 32.367C170.848 29.8427 170.629 26.6399 168.49 24.919C167.374 24.0212 166.017 23.7911 164.622 23.8475C162.869 24.3639 161.613 25.1006 160.716 26.77C159.819 28.4385 159.443 30.491 159.135 32.3464Z" fill="#15133B"/>
<path d="M58.7117 20.176C59.4809 19.3903 60.2469 18.572 61.1041 17.8815C63.3905 16.0399 66.0696 15.3006 68.9837 15.6152C72.7161 16.0184 75.0824 17.9742 77.3841 20.7921L77.5872 20.5833C80.2393 17.8606 82.9596 15.6053 86.9445 15.585C90.0834 15.5687 93.3632 16.5642 95.62 18.8172C97.3553 20.5496 98.3098 22.8473 98.8155 25.2136C99.8412 30.0138 99.3826 35.2218 99.3567 40.1147L99.3936 56.4609C95.717 56.5931 91.9852 56.4598 88.3027 56.4629L88.3396 40.3584C88.3518 37.322 88.5682 34.1264 88.226 31.1124C88.0654 29.698 87.7078 27.9618 86.5064 27.0686C85.1101 26.0304 83.373 26.2875 81.7753 26.5544C81.4061 26.4661 81.2156 26.5309 80.8972 26.7482C79.9433 27.3991 79.2307 28.8562 79.0974 29.976C78.8203 32.3077 78.6544 51.5361 79.2348 52.4796C79.3367 53.8135 79.3179 55.1537 79.3211 56.4905C75.7545 56.4754 72.188 56.48 68.6215 56.5042L68.6517 40.0731C68.6802 37.1117 68.9648 34.0221 68.6096 31.0781C68.469 29.9127 68.2136 28.6049 67.4354 27.6885C66.6613 26.7769 65.5264 26.3566 64.3529 26.3104C63.1447 26.2631 61.8509 26.6395 60.9862 27.5148C60.1754 28.3351 59.9384 29.5737 59.7842 30.6784C59.3917 33.4894 59.6192 36.5211 59.6232 39.3638C59.6244 45.0696 59.6613 50.7751 59.7339 56.4804L48.738 56.508L48.7502 16.464C51.138 16.4654 53.5304 16.4393 55.9167 16.541C56.9203 17.6875 57.8016 18.9543 58.7117 20.176Z" fill="#15133B"/>
<path d="M133.909 15.7221C134.43 15.6733 134.952 15.6471 135.475 15.6434C138.453 15.6109 141.387 16.5291 143.523 18.6673C145.128 20.274 146.102 22.3422 146.57 24.5475C147.543 29.1299 147.027 34.3243 147.036 39.0077L147.223 56.4958C143.594 56.4569 139.95 56.5525 136.323 56.4136C136.267 50.8686 136.393 45.3088 136.413 39.7624C136.422 37.1143 136.545 34.3995 136.332 31.7619C136.206 30.2029 135.958 28.3127 134.669 27.2696C133.611 26.4142 132.158 26.1429 130.83 26.3009C129.499 26.4595 128.598 27.1343 127.798 28.1719C127.364 28.9024 127.161 29.6951 127.06 30.532C126.746 33.1263 126.903 35.8931 126.894 38.5089L126.979 56.4979C123.349 56.4651 119.719 56.4576 116.089 56.4752L116.112 16.5294L121.946 16.6C123.529 17.806 124.898 19.1736 126.296 20.5836C128.464 17.7706 130.424 16.4341 133.909 15.7221Z" fill="#15133B"/>
<path d="M14.3079 16.4618C17.8901 16.5019 21.4996 16.3845 25.0769 16.5321L25.065 33.8965C25.0662 37.0102 24.8166 40.3193 25.3131 43.3949C25.4769 44.4096 25.7447 45.3505 26.4602 46.1211C27.3287 47.0567 28.6167 47.5944 29.8861 47.6299C31.2261 47.6673 32.6306 47.1212 33.5726 46.1626C34.3104 45.4117 34.6407 44.5621 34.8124 43.5373C35.3201 40.5026 34.9884 37.2463 34.9835 34.173C34.9668 28.2703 34.9883 22.3678 35.048 16.4656C38.6772 16.5287 42.3067 16.5634 45.9364 16.5696L45.8356 29.6465C45.8298 38.591 45.6938 47.5564 45.8881 56.498L39.7204 56.5058C38.8522 55.1797 37.9968 53.8453 37.1542 52.5027C34.1637 55.3026 31.4056 57.0601 27.1875 57.1074C23.7805 57.1455 20.1756 56.3812 17.6955 53.8895C16.0549 52.241 15.148 50.0586 14.6861 47.8091C13.8826 43.896 14.3001 39.5557 14.3062 35.5697L14.3079 16.4618Z" fill="#15133B"/>
<path d="M0.5 0.892578C4.1163 0.959582 7.73279 0.976533 11.3495 0.943418C11.2554 19.3332 11.2763 37.7223 11.4122 56.1107L11.3268 56.4079C10.1887 56.6612 8.74327 56.5035 7.57089 56.5035L0.500581 56.5017L0.5 0.892578Z" fill="#15133B"/>
<path d="M102.202 16.5625L113.208 16.5747C113.17 29.8807 113.199 43.1864 113.297 56.4918C109.59 56.4635 105.883 56.4649 102.176 56.4961L102.202 16.5625Z" fill="#15133B"/>
<path d="M203.768 30.1621C204.594 31.0129 205.613 33.7162 206.227 34.8836C210.034 42.0757 213.791 49.2933 217.5 56.5363C214.695 56.7191 211.802 56.5805 208.986 56.5799L199.975 56.6377C198.603 53.5943 196.844 50.6492 195.118 47.7943C196.209 45.3345 197.559 42.9479 198.734 40.5195C200.403 37.0689 201.938 33.5311 203.768 30.1621Z" fill="#15133B"/>
<path d="M199.993 1.16146C205.343 0.909321 211.427 1.03249 216.811 1.16989C215.923 3.3819 214.703 5.54947 213.641 7.68857C211.347 12.2966 209.02 16.8879 206.661 21.4626C205.811 23.4024 204.745 25.3057 203.718 27.1598C201.303 21.2965 198.055 15.734 195.473 9.93138C196.986 7.02482 198.278 3.95473 199.993 1.16146Z" fill="#15133B"/>
<path d="M108.99 1.09538C110.51 1.07359 112.032 1.03031 113.55 1.1253C113.509 4.61688 113.45 8.12386 113.585 11.6134L106.918 11.6259L102.143 11.6398C102.062 8.86546 101.75 5.14411 103.777 2.94168C105.177 1.42101 107.043 1.17671 108.99 1.09538Z" fill="#15133B"/>
<path d="M79.2346 52.479C78.6542 51.5355 78.8201 32.3071 79.0972 29.9754C79.2305 28.8556 79.9431 27.3986 80.897 26.7476C81.2154 26.5303 81.4059 26.4655 81.7751 26.5538C81.3124 26.9838 80.7814 27.3384 80.3765 27.8262C79.4289 28.9672 79.2805 30.9558 79.2294 32.3916C78.9906 39.071 79.5195 45.8008 79.2346 52.479Z" fill="#15133B"/>
</svg>
