<svg width="218" height="40" viewBox="0 0 218 40" fill="none" xmlns="http://www.w3.org/2000/svg">
<path d="M156.706 0.347537C156.86 0.317485 157.065 0.311211 157.216 0.299322C162.777 -0.131983 169.574 0.656982 173.946 4.4631C177.805 7.82338 178.847 12.8227 179.156 17.7107C179.511 23.3408 179.323 29.9715 175.354 34.4048C171.929 38.2297 166.979 39.3694 162.043 39.6161C161.981 39.624 161.919 39.6333 161.856 39.6402C156.587 40.2013 149.563 39.4213 145.287 35.9933C141.752 33.1597 140.201 28.7119 139.747 24.3282C139.136 18.4273 139.415 10.5608 143.346 5.78805C146.648 1.7795 151.799 0.811537 156.706 0.347537ZM161.696 30.1456C163.552 29.7014 164.915 29.0118 165.963 27.3543C168.017 24.1027 168.024 18.9666 167.145 15.3458C166.679 13.427 165.751 11.6298 164.031 10.5516C162.155 9.37456 159.836 9.31907 157.697 9.56015C155.835 9.93301 154.119 10.433 153.014 12.1067C150.841 15.3999 150.976 21.0307 151.818 24.7219C152.226 26.5105 153.044 28.1492 154.625 29.171C156.552 30.416 159.472 30.6446 161.696 30.1456Z" fill="#15133B"/>
<path d="M1.07027 1.1848C4.76576 1.10488 8.47544 1.19967 12.1736 1.1825C19.126 1.15079 28.0047 0.215201 33.4875 5.41497C37.1856 8.92254 38.0723 13.7422 38.2183 18.6315C38.3913 24.4251 37.1391 29.9571 33.079 34.282C26.8895 39.6832 20.7795 38.8553 13.1283 38.8114C8.97511 38.7948 4.82212 38.8201 0.66935 38.887C0.522389 35.4689 0.599339 32.03 0.601981 28.6096L0.608255 12.1061C0.608255 9.89875 0.314333 2.94173 0.69511 1.3463L1.07027 1.1848ZM11.9863 29.6073C16.1115 29.426 20.2065 30.28 23.7065 27.4719C26.0595 24.4479 26.5031 20.503 26.0632 16.7785C25.8333 14.8333 25.2015 12.8915 23.5823 11.6613C20.6768 9.45391 15.4434 9.90668 11.9738 10.1078C11.9331 16.5988 11.8598 23.1179 11.9863 29.6073Z" fill="#15133B"/>
<path d="M103.772 1.16523C107.748 0.929101 111.838 1.1114 115.826 1.1038C119.996 1.09554 124.529 0.740858 128.649 1.40565C130.436 1.69429 132.199 2.23689 133.733 3.2174C136.144 4.75834 137.757 7.14537 138.367 9.93267C139.047 13.037 138.674 16.5938 136.906 19.2863C135.576 21.3124 133.081 23.1476 130.693 23.6598C133.813 28.6419 137.115 33.6825 139.871 38.8704C138.137 38.9146 136.392 38.8347 134.658 38.7997L126.614 38.8133L118.907 26.3559L115.563 26.3959C115.288 30.4953 115.54 34.7624 115.61 38.875C111.613 38.8086 107.627 38.8549 103.63 38.8958C103.614 26.3182 103.661 13.7413 103.772 1.16523ZM115.653 10.5139C115.591 12.9198 115.529 15.321 115.57 17.7279C118.425 17.78 121.324 17.9756 124.146 17.4548C124.654 17.2507 125.173 17.0641 125.65 16.7926C126.294 15.4749 126.842 14.147 126.293 12.6757C126.126 12.2269 125.871 11.793 125.603 11.398C123.119 10.0638 120.675 10.2619 117.948 10.4238C117.184 10.4578 116.418 10.506 115.653 10.5139Z" fill="#15133B"/>
<path d="M181.023 1.00348C184.461 0.82085 188.063 0.947666 191.505 1.09033C196.13 7.51301 200.781 14.0196 205.801 20.1394C205.945 13.7719 205.781 7.3677 205.746 0.997531C209.626 0.819857 213.609 0.970786 217.5 0.993903C217.063 4.61013 217.357 9.77686 217.352 13.5978C217.327 22.0302 217.349 30.4624 217.418 38.8946C213.801 39.0636 210.145 38.9342 206.524 38.9124C204.871 36.1552 202.894 33.5891 200.989 31.0039C198.271 27.2781 195.502 23.5904 192.682 19.9409C192.422 22.7969 192.6 25.7437 192.672 28.6063C192.746 32.0328 192.793 35.4595 192.812 38.8866C188.837 38.81 184.872 38.8589 180.897 38.8955C180.861 35.0789 181.014 31.2602 181.033 27.4432L181.023 1.00348Z" fill="#15133B"/>
<path d="M49.116 1.03906C52.7646 1.15102 56.4244 1.09586 60.075 1.12559C65.6717 13.5198 70.633 26.2318 75.7446 38.8307C70.1311 38.9133 64.5129 38.8152 58.897 38.8862C57.8201 35.1977 57.0991 31.3476 56.25 27.5996C55.79 25.9164 55.3121 24.2364 54.9218 22.5353C53.2236 27.8698 52.1259 33.4493 50.6655 38.8582C45.1378 38.7897 39.6102 38.7971 34.0828 38.8803C35.6006 34.698 37.4384 30.6346 39.1121 26.5138C42.5738 18.0722 45.9084 9.58062 49.116 1.03906Z" fill="#15133B"/>
<path d="M68.5962 1.07523L89.8771 1.10958C93.5531 1.11321 97.3169 0.933878 100.977 1.21558L100.993 11.5719C97.5739 11.6792 94.1205 11.5362 90.6955 11.5738C90.5105 17.3218 90.6879 23.1309 90.6849 28.8861C90.6453 32.224 90.5756 35.5535 90.7083 38.8904C86.6664 38.8025 82.6384 38.8461 78.5965 38.8963C78.2626 29.8247 78.4753 20.6075 78.5734 11.5243C75.2475 11.5461 71.9217 11.5505 68.5959 11.5375C68.5714 8.05008 68.5716 4.56265 68.5962 1.07523Z" fill="#15133B"/>
</svg>
