<svg width="218" height="80" viewBox="0 0 218 80" fill="none" xmlns="http://www.w3.org/2000/svg">
<path d="M87.0067 56.5664L217.498 56.5834C217.319 62.6665 214.66 68.02 210.521 72.3517C206.5 76.3494 200.782 79.0669 195.072 79.1988C187.867 79.3651 180.629 79.2467 173.42 79.2398L138.627 79.2437L121.121 79.2406C116.102 79.2508 110.88 79.5631 105.938 78.5458C101.379 77.6071 97.2102 75.2264 93.8621 72.0211C93.7304 71.8971 93.6003 71.7716 93.4716 71.6443C93.343 71.5171 93.216 71.3884 93.0908 71.2581C92.9653 71.1277 92.8415 70.9959 92.7193 70.8625C92.5972 70.729 92.4769 70.594 92.3582 70.4576C92.2394 70.3211 92.1223 70.1833 92.007 70.044C91.8917 69.9047 91.7781 69.764 91.6662 69.6218C91.5545 69.4796 91.4445 69.3361 91.3363 69.1912C91.228 69.0462 91.1215 68.9 91.0168 68.7526C90.9124 68.605 90.8097 68.4562 90.7088 68.306C90.6078 68.1559 90.5088 68.0046 90.4116 67.8519C90.3146 67.6994 90.2194 67.5457 90.1261 67.3907C90.0328 67.2357 89.9414 67.0795 89.852 66.9223C89.7625 66.7651 89.6751 66.6068 89.5898 66.4474C89.5042 66.288 89.4207 66.1276 89.3392 65.9661C89.2578 65.8047 89.1783 65.6422 89.1009 65.4788C89.0235 65.3153 88.9481 65.1509 88.8747 64.9856C88.8013 64.8203 88.7301 64.654 88.661 64.4868C88.5917 64.3198 88.5245 64.1519 88.4596 63.983C88.3945 63.8143 88.3317 63.6447 88.271 63.4743C88.2101 63.3041 88.1514 63.133 88.0947 62.9611C88.0383 62.7894 87.9839 62.6169 87.9317 62.4438C87.8795 62.2706 87.8293 62.0968 87.7813 61.9225C87.7335 61.748 87.6878 61.5731 87.6442 61.3976C87.6007 61.222 87.5594 61.0459 87.5202 60.8694C87.4809 60.6928 87.4439 60.5157 87.4091 60.3382C87.3744 60.1607 87.3419 59.9828 87.3115 59.8045C87.2812 59.6261 87.2531 59.4475 87.2273 59.2687C87.2013 59.0896 87.1776 58.9103 87.1563 58.7306C87.1348 58.5511 87.1156 58.3713 87.0987 58.1913C87.0817 58.0111 87.0669 57.8308 87.0546 57.6504C87.0421 57.47 87.0319 57.2895 87.0239 57.1088C87.0158 56.9281 87.0101 56.7473 87.0067 56.5664Z" fill="#15133B"/>
<path d="M0.501709 56.6125C3.05231 56.7687 5.66395 56.6536 8.22295 56.6483L21.4647 56.6402L55.7655 56.6734L72.6312 56.6326C76.1451 56.6227 79.6786 56.5273 83.1895 56.6498C83.0647 59.8199 83.2047 63.0148 83.1801 66.1887C83.1482 70.3224 82.9811 74.4816 83.1302 78.612C83.1286 78.8235 83.1 78.8973 83.0199 79.0869C82.8738 79.1024 82.7267 79.1179 82.5799 79.1262C79.2055 79.3192 75.7083 79.1257 72.3219 79.129L51.2644 79.1475L33.745 79.143C29.0043 79.1404 23.9814 79.4437 19.3195 78.486C18.8055 78.3751 18.2956 78.2473 17.79 78.1026C17.2844 77.958 16.7842 77.7969 16.2894 77.619C15.7945 77.4414 15.3059 77.2475 14.8238 77.0373C14.3419 76.8272 13.8673 76.6014 13.4 76.3598C12.933 76.1182 12.4743 75.8616 12.0242 75.5897C11.574 75.3179 11.1334 75.0315 10.7023 74.7304C10.2711 74.4293 9.85034 74.1143 9.44007 73.7853C9.0298 73.4564 8.63085 73.1142 8.24323 72.7589C8.10141 72.6304 7.96118 72.5004 7.82257 72.3687C7.68395 72.2368 7.54694 72.1033 7.41153 71.968C7.27613 71.833 7.14242 71.6962 7.01039 71.5578C6.87837 71.4195 6.74795 71.2796 6.61914 71.1381C6.4905 70.9964 6.36354 70.8533 6.23828 70.7088C6.11319 70.5643 5.98979 70.4181 5.86807 70.2704C5.74636 70.1228 5.62651 69.9738 5.50852 69.8234C5.39035 69.6727 5.27405 69.5209 5.15961 69.3677C5.04533 69.2142 4.93283 69.0594 4.82211 68.9034C4.71154 68.7474 4.60283 68.59 4.496 68.4313C4.38918 68.2727 4.28429 68.1128 4.18135 67.9515C4.07841 67.7903 3.97744 67.6278 3.87843 67.4642C3.77943 67.3005 3.68241 67.1357 3.58739 66.9697C3.49239 66.8036 3.3994 66.6364 3.30844 66.4682C3.21748 66.3 3.12857 66.1306 3.04172 65.96C2.95486 65.7896 2.87007 65.6182 2.78736 65.4458C2.70466 65.2732 2.62406 65.0997 2.54556 64.9252C2.46707 64.7507 2.39071 64.5755 2.31646 64.3993C2.2422 64.223 2.1701 64.0458 2.10014 63.8678C2.03019 63.6897 1.96241 63.5107 1.89678 63.331C1.83118 63.1513 1.76774 62.9709 1.70648 62.7897C1.64524 62.6084 1.5862 62.4266 1.52937 62.244C1.47253 62.0613 1.41792 61.8779 1.36554 61.694C1.31313 61.5101 1.26298 61.3255 1.21507 61.1402C1.16714 60.9551 1.12147 60.7694 1.07804 60.5831C1.03463 60.3967 0.993477 60.2099 0.95458 60.0227C0.9157 59.8354 0.879086 59.6476 0.844736 59.4593C0.810403 59.2712 0.778343 59.0826 0.748557 58.8936C0.718788 58.7048 0.691319 58.5155 0.666149 58.3259C0.640961 58.1362 0.618071 57.9463 0.597481 57.7561C0.576909 57.5659 0.558636 57.3755 0.542662 57.1848C0.526704 56.9943 0.513052 56.8035 0.501709 56.6125Z" fill="#15133B"/>
<path d="M24.8512 0.845112C26.4971 0.583431 28.4343 0.768027 30.1114 0.77183L41.0749 0.796423L69.3955 0.779685C74.0406 0.776896 78.6969 0.859051 83.3407 0.779685L83.341 23.0776C79.0361 22.9663 74.7113 23.0801 70.4035 23.0784C66.6304 23.0768 62.8416 22.9488 59.0715 23.0274C51.1846 23.2016 43.2657 23 35.376 22.9949C23.8486 23.0495 12.3214 23.0345 0.794235 22.9498C1.30337 17.792 3.33008 13.2752 6.69654 9.33554C11.3918 3.84075 17.7947 1.3738 24.8512 0.845112Z" fill="#15133B"/>
<path d="M50.4926 27.3191C53.7902 26.9958 56.9038 27.6787 59.6266 29.6106C62.1308 31.3876 63.708 33.9692 64.1999 36.9947C64.687 39.9896 64.0731 43.1181 62.2692 45.5889C60.086 48.5789 56.8528 49.8924 53.3036 50.4454C50.0724 50.6899 46.7332 50.041 44.0885 48.0961C41.6776 46.3232 39.9401 43.7216 39.4989 40.7402C39.0392 37.635 39.7492 34.4682 41.6576 31.9609C43.8552 29.0733 46.9852 27.7834 50.4926 27.3191ZM52.4509 43.9194C52.5628 43.9064 52.6742 43.8897 52.7851 43.8694C52.8958 43.849 53.0058 43.825 53.115 43.7974C53.2242 43.7697 53.3324 43.7385 53.4395 43.7038C53.5467 43.669 53.6527 43.6307 53.7575 43.589C53.8622 43.5472 53.9653 43.5021 54.0669 43.4536C54.1686 43.4051 54.2686 43.3532 54.3668 43.2979C54.465 43.2428 54.5613 43.1845 54.6556 43.1229C54.7501 43.0616 54.8424 42.9971 54.9325 42.9295C55.0226 42.8618 55.1105 42.7913 55.196 42.718C55.2815 42.6446 55.3645 42.5685 55.445 42.4895C55.5255 42.4107 55.6032 42.3293 55.6783 42.2453C55.7535 42.1613 55.8258 42.0749 55.8951 41.9862C55.9646 41.8974 56.031 41.8065 56.0944 41.7134C56.1578 41.6202 56.218 41.525 56.2752 41.4278C56.3323 41.3308 56.3862 41.2319 56.4367 41.1312C56.4874 41.0306 56.5347 40.9284 56.5784 40.8246C56.6222 40.7208 56.6626 40.6157 56.6996 40.5092C56.7365 40.4028 56.7699 40.2953 56.7998 40.1866C56.8296 40.0779 56.8558 39.9684 56.8784 39.858C56.9011 39.7476 56.92 39.6366 56.9352 39.5251C56.9506 39.4133 56.9622 39.3013 56.97 39.1891C56.9779 39.0767 56.9821 38.9641 56.9826 38.8513C56.983 38.7388 56.9797 38.6262 56.9727 38.5136C56.9658 38.4012 56.9552 38.2891 56.9408 38.1774C56.9264 38.0656 56.9084 37.9545 56.8868 37.8439C56.8651 37.7334 56.8399 37.6237 56.811 37.5148C56.7819 37.4058 56.7494 37.2979 56.7133 37.1912C56.6773 37.0844 56.6379 36.9789 56.5949 36.8748C56.5518 36.7707 56.5054 36.668 56.4557 36.567C56.406 36.4659 56.3529 36.3666 56.2965 36.269C56.2402 36.1715 56.1808 36.0759 56.1182 35.9822C56.0555 35.8884 55.9898 35.7969 55.9212 35.7076C55.8526 35.6184 55.7811 35.5314 55.7067 35.4467C55.6323 35.362 55.5551 35.2799 55.4752 35.2005C55.3954 35.121 55.3131 35.0442 55.2282 34.97C55.1433 34.8959 55.0561 34.8248 54.9665 34.7565C54.8769 34.6882 54.7852 34.6229 54.6914 34.5605C54.5974 34.4983 54.5016 34.4392 54.4039 34.3832C54.306 34.3273 54.2064 34.2745 54.1052 34.225C54.0039 34.1757 53.9011 34.1297 53.7968 34.0871C53.6925 34.0445 53.5869 34.0053 53.4801 33.9697C53.3733 33.934 53.2653 33.9019 53.1563 33.8733C53.0473 33.8449 52.9374 33.8201 52.8267 33.7988C52.7161 33.7775 52.605 33.7598 52.4932 33.7458C52.3813 33.7319 52.2692 33.7217 52.1567 33.7151C52.0442 33.7087 51.9316 33.7059 51.819 33.7067C51.7062 33.7076 51.5937 33.7121 51.4815 33.7204C51.3691 33.7287 51.2571 33.7407 51.1455 33.7564C51.0632 33.7679 50.9811 33.7815 50.8993 33.7972C50.8175 33.8128 50.7362 33.8304 50.6554 33.85C50.5744 33.8694 50.494 33.8909 50.4142 33.9144C50.3344 33.9379 50.2552 33.9632 50.1766 33.9905C50.098 34.0179 50.0201 34.0471 49.9429 34.0782C49.8658 34.1093 49.7894 34.1423 49.7139 34.1771C49.6383 34.2119 49.5636 34.2486 49.4897 34.2871C49.416 34.3257 49.3432 34.3659 49.2714 34.4078C49.1996 34.4499 49.1288 34.4937 49.0592 34.5392C48.9895 34.5847 48.921 34.6317 48.8535 34.6804C48.7861 34.7293 48.7199 34.7797 48.655 34.8318C48.5901 34.8839 48.5264 34.9375 48.464 34.9926C48.4018 35.0477 48.3409 35.1043 48.2812 35.1624C48.2217 35.2206 48.1637 35.2801 48.107 35.341C48.0504 35.4018 47.9952 35.4641 47.9414 35.5278C47.8879 35.5914 47.8358 35.6563 47.7852 35.7226C47.7349 35.7887 47.6861 35.856 47.6389 35.9244C47.5918 35.993 47.5462 36.0627 47.5023 36.1334C47.4585 36.2042 47.4165 36.276 47.3762 36.3489C47.336 36.4216 47.2975 36.4953 47.2606 36.57C47.2239 36.6447 47.1891 36.7203 47.1562 36.7967C47.1232 36.8729 47.092 36.95 47.0626 37.0279C47.0333 37.1059 47.006 37.1845 46.9807 37.2638C46.9552 37.3429 46.9317 37.4227 46.9102 37.5031C46.8886 37.5834 46.8689 37.6642 46.8514 37.7455C46.8338 37.827 46.8181 37.9088 46.8045 37.9907C46.7909 38.0729 46.7793 38.1553 46.7697 38.238C46.7601 38.3206 46.7525 38.4035 46.7469 38.4865C46.7413 38.5695 46.7378 38.6525 46.7362 38.7357C46.7347 38.8189 46.7352 38.9021 46.7378 38.9852C46.7403 39.0684 46.7448 39.1515 46.7512 39.2345C46.7578 39.3175 46.7664 39.4002 46.7771 39.4827C46.7877 39.5652 46.8003 39.6475 46.8148 39.7294C46.8296 39.8113 46.8461 39.8927 46.8646 39.9739C46.8831 40.055 46.9037 40.1357 46.9262 40.2158C46.9488 40.2959 46.9733 40.3754 46.9997 40.4544C47.0261 40.5333 47.0543 40.6116 47.0844 40.6892C47.1146 40.7666 47.1468 40.8434 47.1807 40.9194C47.2146 40.9953 47.2503 41.0704 47.288 41.1446C47.3255 41.2188 47.3649 41.2921 47.4062 41.3644C47.4472 41.4368 47.4901 41.5081 47.5347 41.5785C47.5794 41.6486 47.6257 41.7177 47.6737 41.7856C47.7217 41.8536 47.7713 41.9204 47.8225 41.9859C47.8739 42.0515 47.9267 42.1158 47.981 42.1786C48.0354 42.2417 48.0914 42.3033 48.1489 42.3635C48.2062 42.4238 48.2649 42.4827 48.3251 42.54C48.3854 42.5975 48.4471 42.6534 48.5099 42.7078C48.573 42.7621 48.6373 42.8149 48.7029 42.8663C48.7685 42.9175 48.8353 42.9671 48.9032 43.0152C48.9712 43.0632 49.0402 43.1095 49.1104 43.1541C49.1807 43.1987 49.252 43.2417 49.3241 43.2829C49.3965 43.324 49.4698 43.3633 49.544 43.4008C49.6184 43.4385 49.6935 43.4744 49.7694 43.5083C49.8453 43.5422 49.9221 43.5742 49.9996 43.6045C50.0772 43.6347 50.1555 43.663 50.2345 43.6894C50.3134 43.7158 50.3929 43.7402 50.4731 43.7627C50.553 43.7852 50.6336 43.8057 50.7147 43.8243C50.7959 43.8429 50.8774 43.8595 50.9594 43.874C51.0412 43.8887 51.1235 43.9014 51.2061 43.912C51.2886 43.9225 51.3714 43.931 51.4544 43.9376C51.5372 43.9442 51.6202 43.9488 51.7034 43.9513C51.7865 43.9539 51.8698 43.9544 51.9531 43.9529C52.0363 43.9513 52.1194 43.9478 52.2024 43.9422C52.2854 43.9366 52.3682 43.929 52.4509 43.9194Z" fill="#15133B"/>
<path d="M129.589 27.5363C132.105 27.3621 134.736 27.6664 137.264 27.6641C137.454 30.3537 137.32 33.1104 137.315 35.8081L137.3 50.0913L130.341 50.1035C130.173 46.2901 130.401 42.4681 130.305 38.6516L130.302 38.2011C129.893 38.2951 125.286 45.588 124.7 46.4787C122.691 43.8328 120.963 40.8336 119.217 38.0068C119.037 39.9494 119.183 41.879 119.172 43.8254C119.16 45.8664 118.979 47.9532 119.175 49.9856C116.777 50.0113 114.379 50.0043 111.982 49.9648L112.017 34.076C112.019 31.9387 112.088 29.7913 112.016 27.656C114.002 27.6798 116.108 27.8198 118.079 27.5824C118.394 27.5213 118.756 27.4942 119.076 27.5444C119.35 27.5878 119.511 27.678 119.717 27.8611C120.796 28.8191 123.568 33.739 124.584 35.318C126.279 32.7407 127.85 30.0854 129.589 27.5363Z" fill="#15133B"/>
<path d="M174.782 27.7223C175.954 27.8678 177.277 27.7502 178.459 27.718C183.328 27.5853 189.344 27.0698 193.235 30.5802C195.394 32.5268 196.442 35.3615 196.582 38.2232C196.739 41.4478 195.558 44.4729 193.409 46.8417C193.377 46.8729 193.346 46.9046 193.314 46.9353C189.772 50.2945 185.179 50.2692 180.59 50.1804L174.736 50.0798L174.75 36.9742C174.738 33.905 174.621 30.7859 174.782 27.7223ZM181.966 44.0071C184.109 44.0426 186.167 44.1524 187.931 42.688C189.076 41.155 189.416 39.5542 189.155 37.6677C188.997 36.5302 188.519 35.4883 187.567 34.8064C185.964 33.659 183.836 33.8294 181.966 33.868L181.966 44.0071Z" fill="#15133B"/>
<path d="M154.102 27.5957C154.893 27.7808 155.981 27.6495 156.807 27.6477C157.861 28.65 158.736 29.9546 159.64 31.0987L164.996 37.8974C165.086 34.5277 164.959 31.1477 165.011 27.7747C167.383 27.7426 169.755 27.7414 172.126 27.7712C172.208 29.9356 172.113 32.1062 172.091 34.2716L172.081 43.93C172.082 45.9162 171.942 48.0218 172.165 49.9933C171.028 50.1571 169.824 50.0759 168.676 50.0693C167.719 50.0995 166.768 50.0886 165.817 49.9745C163.07 46.4939 160.298 43.0325 157.502 39.5904C157.462 43.0955 157.531 46.6003 157.486 50.1064L150.379 50.084C150.291 42.6302 150.37 35.1611 150.393 27.7063C151.629 27.6768 152.865 27.64 154.102 27.5957Z" fill="#15133B"/>
<path d="M6.39111 27.7059C7.51796 27.6314 8.65623 27.6803 9.78333 27.7356C12.3246 27.8601 15.4769 28.1421 17.2661 30.1993C18.2157 31.2909 18.6229 32.7988 18.4969 34.2297C18.3394 36.0219 17.1588 37.0281 15.8951 38.1354C17.3295 38.9055 18.6762 39.7615 19.4054 41.2926C20.0381 42.6215 20.0191 44.2613 19.5201 45.6296C18.8816 47.3802 17.5727 48.484 15.9415 49.264C13.226 50.4167 10.044 50.0155 7.1688 49.9922L0.780945 49.9628C1.02171 42.621 0.842106 35.2214 0.794081 27.8746C2.65483 27.9118 4.53333 27.8097 6.39111 27.7059ZM7.75835 44.3171C9.13927 44.3873 10.5514 44.4621 11.9267 44.2737C12.4567 44.0988 13.0594 43.8102 13.3406 43.2952C13.459 43.0784 13.4535 42.8573 13.3515 42.6304C13.0394 41.9346 11.9506 41.4962 11.2621 41.3565C10.6292 41.2282 9.8987 41.2441 9.25693 41.2758L7.7477 41.3369C7.75049 42.3299 7.74187 43.3244 7.75835 44.3171ZM7.7477 35.903C8.85731 35.9568 9.9413 35.9961 11.0519 35.9185C11.5464 35.7577 11.7551 35.5652 12.0741 35.16C12.1243 34.8152 12.1456 34.6316 11.9452 34.3281C11.658 33.8925 10.9213 33.5342 10.4175 33.4655C9.95576 33.4023 9.45395 33.3962 8.98815 33.418C8.53502 33.4264 8.26878 33.3749 7.87499 33.6108C7.53166 34.2249 7.71397 35.2057 7.7477 35.903Z" fill="#15133B"/>
<path d="M88.0769 27.6994C90.3719 27.8465 92.6941 27.5698 94.9987 27.7288C95.0079 30.3015 94.9767 32.8777 95.0142 35.4499C97.165 32.9125 99.2221 30.2987 101.371 27.76C104.254 27.7257 107.137 27.7326 110.02 27.7808C108.041 29.7987 106.13 31.8788 104.287 34.0213C103.34 35.1086 102.313 36.187 101.492 37.374C103.586 40.2035 105.544 43.1373 107.648 45.9653C108.669 47.3491 109.715 48.7143 110.785 50.0607C107.738 49.9798 104.653 49.9681 101.605 50.0351C99.8723 47.5661 98.2667 44.9858 96.633 42.4494C96.1175 43.082 95.5857 43.6718 95.0114 44.2512C94.9361 46.173 94.98 48.1118 94.9746 50.0356L88.0003 50.0179C88.0391 44.7312 87.9224 39.4456 87.9412 34.1595C87.9486 32.0968 87.747 29.7274 88.0769 27.6994Z" fill="#15133B"/>
<path d="M206.661 27.2129C210.346 27.3065 213.043 28.0978 215.904 30.4525C214.696 32.0175 213.479 33.5756 212.339 35.1919C211.807 34.7854 211.263 34.4355 210.661 34.1424C209.3 33.4798 206.72 32.7597 205.265 33.3855C204.959 33.5171 204.888 33.6477 204.763 33.9431C204.864 34.5103 205.199 34.8232 205.717 35.0605C206.343 35.3473 207.127 35.447 207.801 35.5966C210.182 36.125 213.058 36.6286 214.833 38.4619C215.952 39.6176 216.442 41.1596 216.421 42.7502C216.393 44.7889 215.643 46.7152 214.144 48.1256C211.904 50.2335 208.561 50.5456 205.634 50.4756C202.127 50.429 199.207 49.2238 196.525 47.0264C198.012 45.5945 199.247 43.7949 200.511 42.1619C202.143 43.3339 203.566 44.0366 205.567 44.3918C206.371 44.5346 208.12 44.5112 208.746 43.9356C209.002 43.7006 208.992 43.6278 208.992 43.3065C207.941 41.2932 202.191 41.5579 199.625 39.3927C198.39 38.3493 197.814 36.8819 197.699 35.2951C197.547 33.1958 197.835 31.5141 199.284 29.8969C201.148 27.8182 204.018 27.3605 206.661 27.2129Z" fill="#15133B"/>
<path d="M76.3008 27.314C76.3338 27.3079 76.3665 27.2995 76.3999 27.2957C80.6558 26.8033 83.761 28.6209 86.9975 31.0845C85.4292 32.7989 83.7569 34.4349 82.1194 36.0833C81.1754 35.0627 80.1446 34.2194 78.7437 33.9349C77.3777 33.6577 75.8266 33.8943 74.6757 34.7016C73.6328 35.4334 72.9862 36.6031 72.7727 37.8454C72.7575 37.9343 72.7444 38.0235 72.7336 38.1131C72.7228 38.2027 72.7142 38.2926 72.7078 38.3827C72.7013 38.4726 72.6972 38.5627 72.6953 38.653C72.6935 38.7432 72.6938 38.8334 72.6963 38.9235C72.6989 39.0138 72.7037 39.1039 72.7108 39.1938C72.7179 39.2838 72.7272 39.3735 72.7387 39.4631C72.7502 39.5526 72.7639 39.6417 72.7798 39.7306C72.7957 39.8194 72.8137 39.9078 72.834 39.9959C72.8543 40.0838 72.8768 40.1711 72.9015 40.2578C72.926 40.3447 72.9527 40.4309 72.9816 40.5164C73.0105 40.602 73.0415 40.6867 73.0747 40.7705C73.1076 40.8545 73.1428 40.9376 73.1802 41.0198C73.2173 41.1021 73.2566 41.1833 73.2978 41.2634C73.339 41.3437 73.3822 41.423 73.4274 41.5013C73.4725 41.5794 73.5196 41.6563 73.5686 41.732C73.6175 41.8079 73.6683 41.8825 73.721 41.9557C73.7685 42.0215 73.8177 42.0858 73.8686 42.1489C73.9195 42.2121 73.9719 42.274 74.0258 42.3345C74.0799 42.3949 74.1354 42.4539 74.1924 42.5115C74.2495 42.5691 74.308 42.6253 74.3679 42.6799C74.4279 42.7345 74.4891 42.7875 74.5517 42.8389C74.6144 42.8904 74.6784 42.9403 74.7436 42.9885C74.8089 43.0366 74.8752 43.0831 74.9427 43.1277C75.0103 43.1725 75.079 43.2155 75.1488 43.2567C75.2187 43.298 75.2895 43.3374 75.3613 43.3749C75.4332 43.4124 75.5059 43.4481 75.5796 43.4819C75.6534 43.5157 75.7279 43.5477 75.8033 43.5778C75.8785 43.6077 75.9545 43.6357 76.0313 43.6619C76.108 43.688 76.1854 43.7121 76.2635 43.7342C76.3415 43.7563 76.42 43.7765 76.4991 43.7945C76.578 43.8126 76.6575 43.8287 76.7374 43.8427C76.8172 43.8568 76.8974 43.8687 76.9778 43.8785C79.0528 44.1293 80.722 43.065 82.2933 41.8756L85.0078 44.783C85.6384 45.5117 86.3735 46.1563 87.0764 46.8148C86.8377 47.042 86.591 47.2599 86.3362 47.4685C86.0813 47.6773 85.8189 47.8762 85.5491 48.0654C85.2795 48.2545 85.0031 48.4335 84.72 48.6022C84.437 48.7707 84.1481 48.9285 83.8533 49.0756C83.5585 49.2227 83.2586 49.3585 82.9536 49.4831C82.6488 49.6078 82.3397 49.721 82.0263 49.8226C81.7129 49.9244 81.3962 50.0143 81.0762 50.0924C80.7561 50.1703 80.4335 50.2363 80.1086 50.2904C76.6829 50.8759 72.9197 50.2785 70.075 48.2147C67.5895 46.4116 65.9862 43.8501 65.5435 40.8085C65.0896 37.6902 65.8196 34.3766 67.7419 31.8538C69.8422 29.0973 72.939 27.7554 76.3008 27.314Z" fill="#15133B"/>
<path d="M21.505 27.9362C23.8965 27.9149 26.288 27.9174 28.6794 27.9436C28.5851 33.2434 28.6569 38.5599 28.6462 43.8617L38.5548 43.861C38.5721 45.6796 38.7628 47.7147 38.5277 49.5046C38.4836 49.8408 38.5556 49.7115 38.2927 49.9141C32.7512 50.0698 27.1296 50.0064 21.5869 49.8629L21.505 27.9362Z" fill="#15133B"/>
<path d="M140.212 27.678C141.604 27.8752 145.862 27.7943 147.335 27.6719L147.338 49.9335C146.85 50.2462 141.166 50.0621 140.128 50.0981L140.134 35.6334C140.137 33.0052 140.006 30.2973 140.212 27.678Z" fill="#15133B"/>
</svg>
