<svg width="218" height="66" viewBox="0 0 218 66" fill="none" xmlns="http://www.w3.org/2000/svg">
<path d="M149.869 0.0953639C150.127 0.0840136 150.385 0.0789834 150.643 0.0802764C150.901 0.0817132 151.159 0.0894052 151.416 0.103342C151.674 0.117278 151.931 0.137606 152.188 0.16433C152.445 0.190909 152.701 0.223739 152.956 0.262819C153.211 0.302042 153.465 0.347441 153.718 0.399021C153.971 0.450744 154.222 0.508578 154.472 0.572513C154.722 0.636449 154.97 0.706485 155.217 0.782633C155.464 0.858781 155.708 0.940966 155.951 1.02918C156.193 1.11726 156.434 1.21129 156.672 1.31129C156.91 1.41114 157.145 1.51682 157.378 1.62831C157.61 1.7398 157.84 1.85697 158.068 1.97981C158.295 2.10265 158.518 2.23088 158.739 2.3645C158.96 2.49826 159.177 2.63741 159.391 2.78195C159.605 2.92634 159.815 3.07591 160.022 3.23064C160.228 3.38538 160.431 3.54508 160.63 3.70973C160.828 3.87438 161.023 4.04385 161.213 4.21812C161.404 4.3924 161.59 4.57121 161.771 4.75454C161.953 4.93787 162.13 5.12557 162.303 5.31767C162.475 5.50976 162.643 5.70588 162.805 5.90602C162.968 6.1063 163.126 6.31047 163.279 6.51851C163.432 6.72655 163.579 6.93818 163.721 7.15341C163.864 7.36863 164.001 7.58723 164.133 7.80921C164.264 8.03119 164.39 8.25633 164.511 8.48463C164.632 8.71278 164.747 8.94374 164.856 9.1775C164.965 9.41126 165.069 9.64761 165.167 9.88654C165.264 10.1255 165.356 10.3666 165.442 10.61C165.528 10.8534 165.608 11.0987 165.681 11.346C165.755 11.5934 165.823 11.8424 165.884 12.093C165.946 12.3437 166.001 12.5957 166.051 12.849C166.1 13.1023 166.143 13.3567 166.18 13.6121C166.216 13.8676 166.247 14.1238 166.271 14.3808C166.295 14.6377 166.313 14.8951 166.325 15.153C166.336 15.4109 166.341 15.6689 166.34 15.9269C166.339 16.185 166.332 16.4429 166.318 16.7006C166.304 16.9584 166.284 17.2156 166.258 17.4724C166.231 17.7291 166.199 17.9851 166.16 18.2402C166.121 18.4954 166.076 18.7494 166.024 19.0023C165.973 19.2552 165.915 19.5067 165.852 19.7568C165.788 20.007 165.718 20.2554 165.642 20.5021C165.566 20.7487 165.484 20.9933 165.396 21.2359C165.308 21.4785 165.214 21.7189 165.115 21.957C165.015 22.195 164.91 22.4305 164.798 22.6634C164.687 22.8963 164.57 23.1264 164.447 23.3535C164.325 23.5805 164.197 23.8044 164.063 24.0253C163.93 24.2462 163.791 24.4637 163.646 24.6776C163.502 24.8917 163.353 25.1021 163.198 25.3088C163.044 25.5154 162.884 25.7182 162.72 25.917C162.555 26.116 162.386 26.3108 162.212 26.5013C162.038 26.6918 161.859 26.878 161.676 27.0599C161.493 27.2416 161.305 27.4188 161.113 27.5913C160.921 27.764 160.725 27.9318 160.525 28.0948C160.325 28.2577 160.121 28.4157 159.913 28.5687C159.705 28.7217 159.494 28.8695 159.279 29.012C159.063 29.1545 158.845 29.2917 158.623 29.4236C158.401 29.5555 158.176 29.6819 157.948 29.8027C157.72 29.9236 157.489 30.0387 157.255 30.1482C157.022 30.2577 156.786 30.3613 156.547 30.4592C156.308 30.5572 156.067 30.6492 155.824 30.7352C155.58 30.8213 155.335 30.9013 155.088 30.9753C154.84 31.0495 154.591 31.1174 154.341 31.1792C154.09 31.241 153.838 31.2966 153.585 31.346C153.332 31.3956 153.077 31.4388 152.822 31.4757C152.566 31.5127 152.31 31.5434 152.053 31.5678C151.797 31.5922 151.539 31.6103 151.281 31.6221C151.023 31.6339 150.765 31.6393 150.506 31.6385C150.248 31.6376 149.99 31.6303 149.732 31.6167C149.474 31.6032 149.216 31.5833 148.959 31.557C148.702 31.5307 148.446 31.4982 148.191 31.4594C147.935 31.4206 147.681 31.3755 147.427 31.3242C147.174 31.273 146.922 31.2154 146.672 31.1516C146.422 31.088 146.173 31.0182 145.926 30.9423C145.679 30.8665 145.434 30.7845 145.191 30.6965C144.948 30.6085 144.707 30.5147 144.469 30.415C144.231 30.3153 143.995 30.2097 143.762 30.0984C143.529 29.987 143.298 29.87 143.071 29.7473C142.844 29.6248 142.619 29.4966 142.398 29.3629C142.177 29.2292 141.959 29.0902 141.745 28.9458C141.531 28.8015 141.32 28.6519 141.113 28.4971C140.906 28.3425 140.703 28.1829 140.504 28.0181C140.305 27.8534 140.11 27.6839 139.919 27.5097C139.729 27.3354 139.542 27.1566 139.36 26.9733C139.178 26.7898 139.001 26.602 138.828 26.4099C138.655 26.2178 138.487 26.0215 138.324 25.8211C138.161 25.6207 138.003 25.4165 137.85 25.2084C137.697 25.0002 137.549 24.7885 137.406 24.5731C137.264 24.3576 137.126 24.1388 136.994 23.9166C136.862 23.6945 136.736 23.4692 136.615 23.2408C136.494 23.0125 136.379 22.7813 136.269 22.5473C136.16 22.3132 136.056 22.0767 135.958 21.8376C135.861 21.5984 135.769 21.357 135.683 21.1135C135.597 20.8698 135.517 20.6242 135.443 20.3766C135.369 20.1291 135.301 19.8798 135.239 19.6288C135.177 19.3779 135.122 19.1257 135.073 18.8721C135.023 18.6185 134.98 18.3638 134.943 18.1079C134.906 17.8522 134.876 17.5957 134.852 17.3385C134.827 17.0814 134.809 16.8237 134.798 16.5655C134.786 16.3073 134.781 16.0491 134.782 15.7907C134.783 15.5324 134.791 15.2742 134.805 15.0162C134.818 14.7581 134.839 14.5006 134.865 14.2436C134.892 13.9865 134.924 13.7304 134.963 13.475C135.002 13.2196 135.048 12.9653 135.099 12.7121C135.151 12.4588 135.208 12.207 135.272 11.9568C135.336 11.7063 135.406 11.4577 135.482 11.2109C135.559 10.9639 135.641 10.719 135.729 10.4762C135.817 10.2332 135.911 9.99264 136.011 9.75443C136.111 9.51622 136.217 9.28059 136.328 9.04755C136.44 8.81436 136.557 8.58413 136.68 8.35683C136.803 8.12954 136.931 7.90541 137.065 7.68443C137.199 7.46346 137.338 7.24586 137.482 7.03164C137.627 6.81756 137.777 6.60708 137.932 6.40019C138.087 6.19344 138.246 5.99057 138.411 5.79158C138.576 5.59259 138.746 5.39784 138.92 5.20733C139.095 5.01667 139.274 4.8304 139.457 4.6485C139.641 4.46676 139.829 4.2896 140.021 4.11705C140.213 3.94435 140.41 3.77654 140.61 3.61361C140.811 3.45068 141.015 3.29279 141.223 3.13992C141.432 2.9869 141.644 2.8392 141.859 2.69682C142.075 2.5543 142.294 2.41716 142.516 2.28541C142.738 2.15366 142.964 2.02744 143.192 1.90675C143.42 1.78606 143.652 1.67105 143.886 1.56172C144.12 1.45252 144.357 1.34908 144.596 1.25138C144.835 1.15368 145.076 1.06187 145.32 0.975949C145.564 0.890175 145.81 0.810438 146.057 0.736733C146.305 0.662884 146.554 0.595209 146.805 0.533716C147.056 0.472223 147.308 0.416911 147.562 0.367774C147.816 0.318637 148.07 0.27582 148.326 0.239326C148.582 0.202689 148.838 0.172374 149.096 0.148381C149.353 0.124387 149.611 0.106714 149.869 0.0953639ZM151.097 24.3459C151.236 24.3367 151.374 24.3241 151.512 24.308C151.65 24.2921 151.787 24.2727 151.924 24.2498C152.061 24.227 152.198 24.2008 152.333 24.1714C152.469 24.1419 152.604 24.1091 152.738 24.0729C152.872 24.0368 153.005 23.9975 153.137 23.9548C153.269 23.9121 153.4 23.8662 153.53 23.8171C153.66 23.7679 153.789 23.7156 153.916 23.6602C154.043 23.6047 154.169 23.5462 154.293 23.4845C154.418 23.423 154.541 23.3585 154.662 23.2908C154.783 23.2231 154.903 23.1525 155.021 23.0789C155.138 23.0054 155.254 22.929 155.368 22.8498C155.482 22.7705 155.594 22.6885 155.704 22.6037C155.814 22.519 155.922 22.4316 156.028 22.3417C156.133 22.2516 156.237 22.159 156.338 22.0639C156.439 21.9688 156.538 21.8712 156.634 21.7712C156.731 21.6712 156.824 21.5689 156.916 21.4643C157.007 21.3597 157.096 21.2529 157.182 21.1438C157.268 21.0349 157.351 20.924 157.432 20.8109C157.512 20.6978 157.59 20.5829 157.665 20.4661C157.74 20.3491 157.812 20.2304 157.881 20.11C157.95 19.9896 158.016 19.8676 158.079 19.7439C158.142 19.6202 158.203 19.495 158.26 19.3685C158.316 19.2419 158.37 19.1139 158.421 18.9846C158.472 18.8553 158.519 18.7249 158.563 18.5933C158.607 18.4616 158.648 18.329 158.686 18.1954C158.724 18.0618 158.758 17.9274 158.789 17.7922C158.821 17.6569 158.848 17.5208 158.873 17.384C158.897 17.2474 158.918 17.1102 158.936 16.9726C158.954 16.8348 158.968 16.6967 158.979 16.5584C158.99 16.4199 158.997 16.2812 159.001 16.1424C159.005 16.0037 159.006 15.8649 159.003 15.7261C159.001 15.5873 158.995 15.4486 158.985 15.3101C158.975 15.1716 158.962 15.0334 158.946 14.8955C158.93 14.7577 158.91 14.6203 158.887 14.4834C158.864 14.3465 158.837 14.2102 158.808 14.0746C158.778 13.939 158.745 13.8042 158.708 13.6703C158.672 13.5363 158.632 13.4032 158.589 13.2712C158.546 13.1391 158.5 13.0082 158.45 12.8785C158.401 12.7488 158.348 12.6203 158.293 12.4932C158.237 12.366 158.178 12.2403 158.116 12.116C158.054 11.9917 157.989 11.869 157.921 11.7479C157.853 11.6268 157.783 11.5075 157.709 11.39C157.635 11.2723 157.558 11.1566 157.479 11.0428C157.399 10.929 157.317 10.8172 157.232 10.7074C157.147 10.5977 157.059 10.49 156.969 10.3844C156.879 10.2789 156.786 10.1758 156.691 10.0749C156.595 9.97404 156.497 9.87555 156.397 9.77943C156.297 9.68331 156.194 9.58971 156.09 9.49862C155.985 9.40753 155.878 9.31909 155.769 9.23332C155.66 9.14755 155.548 9.0645 155.435 8.98419C155.322 8.90387 155.207 8.82636 155.09 8.75165C154.973 8.67694 154.854 8.60517 154.733 8.53635C154.613 8.46753 154.49 8.40173 154.367 8.33894C154.243 8.27601 154.117 8.21624 153.991 8.15964C153.864 8.10303 153.736 8.04951 153.606 7.99908C153.477 7.94879 153.347 7.90167 153.215 7.8577C153.083 7.81374 152.95 7.77308 152.817 7.73572C152.683 7.69822 152.548 7.6641 152.413 7.63336C152.278 7.60247 152.142 7.57502 152.005 7.55103C151.868 7.52689 151.731 7.50613 151.593 7.48874C151.455 7.47136 151.317 7.45735 151.179 7.44672C151.04 7.43623 150.902 7.42912 150.763 7.42538C150.624 7.42165 150.485 7.42129 150.347 7.42431C150.208 7.42733 150.069 7.43379 149.931 7.44371C149.793 7.45362 149.655 7.46684 149.517 7.48336C149.38 7.50002 149.243 7.52 149.106 7.54327C148.97 7.56655 148.834 7.59319 148.699 7.62322C148.564 7.65325 148.43 7.68651 148.296 7.72301C148.163 7.75964 148.03 7.79945 147.899 7.84241C147.767 7.88551 147.636 7.93177 147.507 7.98119C147.378 8.03076 147.25 8.08342 147.123 8.13916C146.996 8.19491 146.871 8.25367 146.747 8.31545C146.623 8.37737 146.501 8.44225 146.381 8.51006C146.26 8.57802 146.141 8.64885 146.024 8.72256C145.907 8.79612 145.791 8.87263 145.678 8.95208C145.564 9.03139 145.453 9.11342 145.344 9.19819C145.234 9.2831 145.127 9.3706 145.022 9.46068C144.917 9.55062 144.814 9.64316 144.713 9.73827C144.613 9.83338 144.514 9.93094 144.419 10.0309C144.323 10.1309 144.23 10.2332 144.139 10.3376C144.048 10.4421 143.96 10.5487 143.874 10.6576C143.789 10.7664 143.706 10.8773 143.626 10.9902C143.546 11.103 143.468 11.2178 143.394 11.3346C143.319 11.4512 143.248 11.5696 143.179 11.6897C143.11 11.81 143.045 11.9318 142.982 12.0552C142.919 12.1787 142.859 12.3035 142.803 12.4298C142.746 12.5561 142.693 12.6838 142.642 12.8128C142.592 12.9417 142.545 13.0717 142.501 13.2031C142.457 13.3344 142.416 13.4666 142.379 13.5998C142.341 13.7332 142.307 13.8673 142.276 14.0022C142.245 14.1371 142.218 14.2727 142.193 14.4091C142.169 14.5453 142.148 14.6821 142.131 14.8194C142.113 14.9568 142.099 15.0944 142.088 15.2323C142.077 15.3704 142.07 15.5086 142.066 15.647C142.062 15.7853 142.061 15.9237 142.064 16.0621C142.067 16.2006 142.073 16.3388 142.082 16.4769C142.092 16.615 142.105 16.7528 142.121 16.8903C142.138 17.0278 142.157 17.1648 142.18 17.3013C142.203 17.4377 142.229 17.5736 142.259 17.7088C142.289 17.844 142.322 17.9784 142.358 18.112C142.394 18.2456 142.434 18.3782 142.477 18.5099C142.519 18.6416 142.565 18.7722 142.614 18.9017C142.664 19.031 142.716 19.1591 142.771 19.2859C142.827 19.4128 142.885 19.5382 142.947 19.6622C143.009 19.7862 143.073 19.9086 143.141 20.0294C143.208 20.1503 143.279 20.2693 143.352 20.3865C143.426 20.5039 143.502 20.6194 143.581 20.7331C143.66 20.8467 143.742 20.9584 143.826 21.068C143.911 21.1776 143.998 21.2851 144.088 21.3904C144.178 21.4957 144.27 21.5987 144.365 21.6994C144.46 21.8003 144.557 21.8987 144.657 21.9947C144.757 22.0908 144.859 22.1843 144.963 22.2753C145.067 22.3664 145.174 22.4548 145.282 22.5406C145.391 22.6265 145.502 22.7096 145.614 22.7899C145.727 22.8704 145.842 22.948 145.958 23.0227C146.075 23.0974 146.193 23.1693 146.313 23.2384C146.433 23.3074 146.555 23.3733 146.678 23.4363C146.801 23.4993 146.926 23.5593 147.052 23.6162C147.178 23.6731 147.306 23.7268 147.435 23.7774C147.563 23.8281 147.693 23.8756 147.825 23.9199C147.956 23.9641 148.088 24.0051 148.221 24.0429C148.354 24.0807 148.488 24.1152 148.623 24.1464C148.758 24.1777 148.894 24.2056 149.03 24.2302C149.166 24.2548 149.303 24.276 149.44 24.2938C149.577 24.3117 149.715 24.3263 149.853 24.3373C149.991 24.3484 150.129 24.3561 150.267 24.3606C150.406 24.3649 150.544 24.3658 150.683 24.3634C150.821 24.361 150.959 24.3551 151.097 24.3459Z" fill="#15133B"/>
<path d="M43.7675 0.176707C44.0246 0.15573 44.2819 0.141146 44.5395 0.132957C44.7972 0.124767 45.055 0.1229 45.3127 0.127353C45.5705 0.131807 45.828 0.142582 46.0851 0.159679C46.3425 0.176776 46.5991 0.200266 46.8552 0.230151C47.1113 0.259892 47.3666 0.295957 47.6209 0.338341C47.8752 0.380725 48.1283 0.42936 48.3801 0.484244C48.6321 0.539128 48.8826 0.600191 49.1314 0.667431C49.3803 0.734671 49.6274 0.807943 49.8728 0.887252C50.118 0.966704 50.3612 1.05212 50.6023 1.1435C50.8434 1.23487 51.082 1.33214 51.3182 1.4353C51.5546 1.53846 51.7882 1.64736 52.0191 1.76202C52.25 1.87667 52.4779 1.99693 52.7029 2.12279C52.9279 2.24879 53.1497 2.38018 53.3682 2.51696C53.5867 2.65388 53.8017 2.79605 54.0132 2.94346C54.2247 3.09087 54.4325 3.24338 54.6365 3.40099C54.8405 3.55875 55.0404 3.72139 55.2362 3.88892C55.4322 4.05644 55.624 4.2287 55.8115 4.40571C55.999 4.58272 56.182 4.76418 56.3606 4.9501C56.539 5.13616 56.7129 5.32646 56.8821 5.52099C57.0512 5.71553 57.2154 5.91416 57.3748 6.11688C57.5341 6.31961 57.6884 6.52607 57.8375 6.73626C57.9868 6.94661 58.1307 7.16047 58.2692 7.37785C58.4078 7.59523 58.5411 7.81584 58.6689 8.03969C58.7967 8.26368 58.9188 8.49068 59.0353 8.72071C59.1518 8.95059 59.2627 9.18327 59.3678 9.41876C59.4729 9.6541 59.5721 9.89195 59.6655 10.1323C59.7589 10.3727 59.8463 10.6151 59.9277 10.8597C60.0091 11.1044 60.0844 11.3508 60.1538 11.5991C60.2231 11.8475 60.2861 12.0974 60.343 12.3489C60.3999 12.6003 60.4507 12.853 60.4952 13.107C60.5397 13.3609 60.5779 13.6158 60.6098 13.8717C60.6417 14.1276 60.6673 14.384 60.6866 14.6411C60.7058 14.8981 60.7187 15.1555 60.7254 15.4132C60.732 15.671 60.7322 15.9287 60.726 16.1865C60.72 16.4443 60.7075 16.7017 60.6887 16.9589C60.6699 17.2161 60.6448 17.4726 60.6133 17.7285C60.5818 17.9844 60.544 18.2393 60.4999 18.4934C60.456 18.7474 60.4058 19.0002 60.3493 19.2517C60.2928 19.5033 60.2302 19.7533 60.1614 20.0017C60.0925 20.2501 60.0176 20.4968 59.9366 20.7416C59.8555 20.9864 59.7686 21.229 59.6758 21.4694C59.5829 21.7099 59.484 21.9479 59.3793 22.1836C59.2747 22.4192 59.1643 22.6521 59.048 22.8823C58.9319 23.1124 58.8102 23.3396 58.6827 23.5637C58.5554 23.788 58.4227 24.0089 58.2845 24.2264C58.1462 24.4441 58.0027 24.6582 57.8539 24.8687C57.7052 25.0793 57.5513 25.2861 57.3922 25.4891C57.2332 25.692 57.0693 25.8909 56.9004 26.0859C56.7318 26.2807 56.5583 26.4713 56.38 26.6576C56.2018 26.844 56.0192 27.0258 55.8321 27.2031C55.6449 27.3804 55.4535 27.553 55.2578 27.721C55.0621 27.8888 54.8624 28.0517 54.6587 28.2097C54.4551 28.3678 54.2476 28.5207 54.0363 28.6686C53.8251 28.8164 53.6103 28.9589 53.3921 29.0961C53.1739 29.2334 52.9524 29.3651 52.7277 29.4914C52.5028 29.6177 52.275 29.7384 52.0443 29.8535C51.8137 29.9685 51.5803 30.0779 51.3441 30.1815C51.108 30.2851 50.8695 30.3828 50.6286 30.4746C50.3876 30.5664 50.1446 30.6522 49.8995 30.7321C49.6544 30.812 49.4074 30.8858 49.1586 30.9534C48.9099 31.021 48.6596 31.0825 48.4077 31.1379C48.1559 31.1932 47.9029 31.2423 47.6487 31.2851C47.3944 31.3279 47.1392 31.3645 46.8832 31.3948C46.6272 31.425 46.3706 31.4489 46.1134 31.4666C45.8582 31.4841 45.6028 31.4953 45.3472 31.5002C45.0916 31.5052 44.836 31.504 44.5802 31.4965C44.3246 31.4889 44.0694 31.4751 43.8145 31.4552C43.5596 31.4352 43.3053 31.409 43.0516 31.3765C42.798 31.3442 42.5453 31.3056 42.2936 31.2608C42.0418 31.2159 41.7913 31.165 41.5421 31.108C41.2929 31.0509 41.0451 30.9878 40.7988 30.9187C40.5527 30.8496 40.3084 30.7745 40.0659 30.6933C39.8233 30.6123 39.583 30.5254 39.3448 30.4325C39.1064 30.3396 38.8705 30.2409 38.637 30.1366C38.4037 30.0322 38.173 29.9221 37.9448 29.8065C37.7168 29.6908 37.4917 29.5697 37.2696 29.4431C37.0475 29.3164 36.8286 29.1844 36.6129 29.047C36.3973 28.9097 36.1851 28.7671 35.9763 28.6194C35.7675 28.4716 35.5626 28.3188 35.3614 28.161C35.1602 28.0033 34.9629 27.8407 34.7696 27.6733C34.5764 27.5059 34.3873 27.3339 34.2024 27.1572C34.0175 26.9806 33.8371 26.7996 33.661 26.6141C33.485 26.4286 33.3136 26.2389 33.1468 26.0449C32.9802 25.8511 32.8182 25.6533 32.6611 25.4516C32.504 25.2498 32.352 25.0442 32.205 24.835C32.0579 24.6258 31.916 24.4131 31.7794 24.1969C31.6428 23.9808 31.5115 23.7615 31.3857 23.5389C31.2598 23.3164 31.1394 23.0909 31.0245 22.8624C30.9097 22.634 30.8005 22.4029 30.6969 22.1691C30.5933 21.9352 30.4955 21.699 30.4034 21.4605C30.3114 21.2219 30.2253 20.9812 30.145 20.7383C30.0646 20.4957 29.9904 20.2511 29.9221 20.0045C29.8539 19.7581 29.7917 19.5102 29.7355 19.2608C29.6793 19.0114 29.6292 18.7607 29.5853 18.5086C29.5413 18.2568 29.5036 18.004 29.4721 17.7503C29.4405 17.4965 29.4152 17.2422 29.3961 16.9871C29.3769 16.7321 29.3641 16.4768 29.3575 16.2212C29.3509 15.9656 29.3504 15.7099 29.3562 15.4542C29.3621 15.1986 29.3742 14.9433 29.3926 14.6883C29.411 14.4332 29.4356 14.1788 29.4663 13.9249C29.4971 13.671 29.5341 13.4181 29.5773 13.1661C29.6204 12.9141 29.6697 12.6632 29.7251 12.4135C29.7806 12.164 29.8421 11.9158 29.9096 11.6691C29.9771 11.4226 30.0507 11.1778 30.1303 10.9347C30.2098 10.6916 30.2952 10.4506 30.3865 10.2118C30.4778 9.97305 30.5748 9.73657 30.6777 9.50238C30.7806 9.26833 30.8891 9.03687 31.0033 8.80799C31.1176 8.57926 31.2372 8.35341 31.3624 8.13042C31.4877 7.90744 31.6183 7.68768 31.7542 7.47116C31.8903 7.25465 32.0315 7.04151 32.1779 6.83174C32.3243 6.62212 32.4757 6.41616 32.6322 6.21387C32.7887 6.01171 32.9499 5.81344 33.116 5.61905C33.2823 5.42466 33.4531 5.2345 33.6285 5.04859C33.8039 4.86253 33.9838 4.68085 34.1681 4.50356C34.3526 4.3264 34.5412 4.15385 34.7339 3.98589C34.9267 3.81779 35.1235 3.65458 35.3244 3.49625C35.5251 3.33792 35.7295 3.18455 35.9377 3.03613C36.1461 2.88771 36.3578 2.74454 36.5731 2.60661C36.7883 2.46854 37.0068 2.33585 37.2286 2.20856C37.4503 2.08126 37.675 1.95943 37.9028 1.84305C38.1305 1.72667 38.361 1.61597 38.5941 1.51094C38.8272 1.40577 39.0627 1.30642 39.3008 1.21289C39.5387 1.11936 39.7788 1.03165 40.021 0.949752C40.2633 0.868001 40.5074 0.792141 40.7534 0.722171C40.9993 0.652345 41.2469 0.588553 41.496 0.530795C41.7451 0.472894 41.9955 0.421171 42.2471 0.375626C42.4988 0.330225 42.7514 0.29093 43.0048 0.257741C43.2584 0.224552 43.5126 0.19754 43.7675 0.176707ZM45.7867 24.2566C45.9227 24.2455 46.0584 24.2312 46.1938 24.2135C46.329 24.1958 46.4637 24.1748 46.5981 24.1506C46.7324 24.1264 46.866 24.099 46.9989 24.0682C47.132 24.0375 47.2641 24.0035 47.3955 23.9663C47.5268 23.9292 47.6571 23.8889 47.7864 23.8454C47.9157 23.8019 48.0439 23.7552 48.1711 23.7055C48.2982 23.6558 48.424 23.603 48.5485 23.5471C48.673 23.4912 48.7962 23.4324 48.9178 23.3706C49.0394 23.3088 49.1594 23.2441 49.278 23.1764C49.3965 23.1088 49.5133 23.0382 49.6284 22.9648C49.7435 22.8915 49.8567 22.8155 49.968 22.7366C50.0795 22.6577 50.1889 22.5762 50.2963 22.492C50.4037 22.4078 50.509 22.3211 50.6122 22.2318C50.7154 22.1425 50.8164 22.0507 50.9152 21.9564C51.0139 21.8623 51.1103 21.7658 51.2042 21.6668C51.2983 21.5679 51.3899 21.4669 51.479 21.3635C51.5682 21.2601 51.6548 21.1546 51.7387 21.0472C51.8227 20.9396 51.9041 20.83 51.9827 20.7185C52.0614 20.607 52.1373 20.4937 52.2104 20.3784C52.2836 20.2632 52.3539 20.1463 52.4214 20.0276C52.489 19.9091 52.5535 19.7889 52.615 19.667C52.6766 19.5453 52.7353 19.4222 52.791 19.2976C52.8466 19.1729 52.8992 19.047 52.9488 18.9199C52.9982 18.7927 53.0446 18.6644 53.0878 18.5349C53.1312 18.4055 53.1713 18.2751 53.2083 18.1438C53.2452 18.0125 53.2789 17.8803 53.3093 17.7472C53.3398 17.6142 53.3671 17.4805 53.3912 17.3462C53.4152 17.2118 53.4359 17.077 53.4533 16.9417C53.4708 16.8063 53.485 16.6706 53.4958 16.5346C53.5067 16.3985 53.5142 16.2623 53.5184 16.1259C53.5226 15.9894 53.5235 15.853 53.5212 15.7165C53.5188 15.5801 53.513 15.4438 53.504 15.3076C53.4949 15.1714 53.4826 15.0356 53.4669 14.9001C53.4512 14.7645 53.4323 14.6293 53.4102 14.4947C53.3879 14.3601 53.3624 14.2261 53.3337 14.0926C53.305 13.9592 53.273 13.8266 53.2378 13.6947C53.2026 13.5629 53.1642 13.4319 53.1227 13.3019C53.0812 13.172 53.0365 13.0431 52.9887 12.9152C52.9408 12.7874 52.89 12.6608 52.8361 12.5355C52.7821 12.4102 52.7251 12.2863 52.6652 12.1637C52.6051 12.041 52.5421 11.92 52.4762 11.8006C52.4104 11.6811 52.3416 11.5632 52.2699 11.4469C52.1984 11.3309 52.124 11.2165 52.0469 11.1039C51.9697 10.9914 51.8898 10.8808 51.8072 10.7722C51.7246 10.6634 51.6395 10.5568 51.5518 10.4524C51.4641 10.3478 51.3738 10.2454 51.2812 10.1453C51.1885 10.0451 51.0934 9.94733 50.9958 9.85193C50.8984 9.75639 50.7987 9.66329 50.6967 9.57263C50.5947 9.48197 50.4905 9.39383 50.3842 9.3082C50.2779 9.22257 50.1696 9.1396 50.0594 9.05928C49.9491 8.97897 49.8369 8.90138 49.7228 8.82652C49.6087 8.75153 49.4928 8.67947 49.3752 8.61037C49.2576 8.54112 49.1385 8.47474 49.0176 8.41123C48.8968 8.34773 48.7745 8.28724 48.6506 8.22977C48.5269 8.1723 48.4018 8.11785 48.2754 8.06641C48.149 8.01497 48.0214 7.96663 47.8927 7.92137C47.7639 7.87626 47.6342 7.83423 47.5034 7.7953C47.3725 7.75636 47.2409 7.72066 47.1084 7.68819C46.9758 7.65572 46.8425 7.62648 46.7086 7.60047C46.5746 7.57432 46.44 7.55156 46.305 7.53216C46.1699 7.51262 46.0345 7.49645 45.8987 7.48367C45.7628 7.47074 45.6267 7.46111 45.4903 7.45479C45.354 7.44847 45.2176 7.44552 45.0811 7.44595C44.9447 7.44624 44.8084 7.4499 44.672 7.45694C44.5794 7.46169 44.4868 7.46793 44.3944 7.47569C44.3021 7.48359 44.2098 7.49293 44.1177 7.50371C44.0256 7.51463 43.9338 7.52698 43.8421 7.54077C43.7504 7.55471 43.659 7.57016 43.5677 7.58711C43.4767 7.60392 43.3858 7.62231 43.2953 7.64228C43.2047 7.66225 43.1144 7.68366 43.0246 7.70651C42.9347 7.72935 42.8452 7.7537 42.7561 7.77956C42.6672 7.80542 42.5786 7.83272 42.4904 7.86146C42.4023 7.89034 42.3147 7.92058 42.2275 7.95219C42.1403 7.9838 42.0536 8.01691 41.9676 8.05154C41.8815 8.08602 41.7961 8.12194 41.7113 8.1593C41.6264 8.19665 41.5421 8.23537 41.4585 8.27546C41.3749 8.31569 41.292 8.35721 41.2098 8.40002C41.1276 8.44298 41.0462 8.48723 40.9654 8.53278C40.8847 8.57832 40.8047 8.62524 40.7253 8.67351C40.6462 8.72164 40.5678 8.77114 40.4902 8.822C40.4126 8.87272 40.3359 8.9248 40.2601 8.97825C40.1842 9.03155 40.1093 9.08608 40.0353 9.14182C39.9613 9.19771 39.8881 9.25475 39.8159 9.31294C39.7438 9.37113 39.6726 9.43054 39.6023 9.49117C39.5322 9.5518 39.463 9.6135 39.3948 9.67629C39.3267 9.73922 39.2596 9.80323 39.1935 9.86832C39.1274 9.9334 39.0624 9.99956 38.9987 10.0668C38.9347 10.134 38.872 10.2023 38.8105 10.2715C38.7489 10.3408 38.6884 10.4111 38.629 10.4825C38.5699 10.5538 38.5118 10.6261 38.4549 10.6993C38.398 10.7725 38.3423 10.8466 38.2879 10.9217C38.2334 10.9967 38.1802 11.0727 38.1282 11.1495C38.0763 11.2263 38.0257 11.3039 37.9763 11.3825C37.9268 11.461 37.8788 11.5402 37.8321 11.6202C37.7854 11.7004 37.74 11.7813 37.6959 11.8629C37.6518 11.9444 37.609 12.0266 37.5676 12.1096C37.5263 12.1927 37.4863 12.2763 37.4476 12.3605C37.4091 12.4448 37.372 12.5298 37.3362 12.6155C37.3004 12.7009 37.266 12.787 37.233 12.8736C37.2001 12.9604 37.1686 13.0476 37.1386 13.1353C37.1084 13.2231 37.0797 13.3113 37.0526 13.3999C37.0254 13.4886 36.9998 13.5776 36.9756 13.6672C36.9514 13.7567 36.9287 13.8465 36.9075 13.9368C36.8863 14.0271 36.8665 14.1177 36.8483 14.2085C36.83 14.2995 36.8133 14.3907 36.7981 14.4822C36.7828 14.5736 36.7691 14.6653 36.7569 14.7572C36.7447 14.8492 36.734 14.9413 36.7248 15.0335C36.7156 15.1259 36.708 15.2183 36.7019 15.3107C36.6958 15.4033 36.6912 15.496 36.6881 15.5887C36.6851 15.6813 36.6836 15.774 36.6836 15.8667C36.6836 15.9593 36.6852 16.0521 36.6884 16.1449C36.6914 16.2376 36.696 16.3302 36.7022 16.4227C36.7083 16.5152 36.716 16.6076 36.7252 16.6999C36.7344 16.7921 36.7451 16.8842 36.7573 16.9761C36.7695 17.0681 36.7833 17.1598 36.7985 17.2511C36.8137 17.3427 36.8305 17.4338 36.8489 17.5246C36.8672 17.6156 36.8869 17.7062 36.9082 17.7964C36.9294 17.8868 36.9522 17.9767 36.9765 18.0662C37.0006 18.1557 37.0264 18.2448 37.0537 18.3334C37.0808 18.4221 37.1094 18.5102 37.1394 18.5979C37.1696 18.6857 37.2011 18.7729 37.234 18.8595C37.2671 18.9461 37.3015 19.0322 37.3373 19.1177C37.373 19.2033 37.4103 19.2882 37.4489 19.3724C37.4875 19.4568 37.5276 19.5405 37.5689 19.6235C37.6103 19.7064 37.6531 19.7887 37.6972 19.8703C37.7413 19.9519 37.7868 20.0327 37.8336 20.1127C37.8804 20.1927 37.9285 20.272 37.9778 20.3504C38.0272 20.429 38.0779 20.5067 38.1299 20.5834C38.1819 20.6603 38.2352 20.7362 38.2896 20.8112C38.3441 20.8862 38.3997 20.9603 38.4566 21.0336C38.5135 21.1067 38.5717 21.1789 38.631 21.2502C38.6903 21.3215 38.7508 21.3917 38.8124 21.461C38.8741 21.5304 38.9369 21.5986 39.0008 21.6657C39.0646 21.7329 39.1295 21.7991 39.1956 21.8642C39.2617 21.9293 39.3289 21.9932 39.3971 22.056C39.4652 22.1189 39.5344 22.1806 39.6047 22.2411C39.6749 22.3017 39.7461 22.3612 39.8182 22.4193C39.8905 22.4775 39.9636 22.5345 40.0376 22.5903C40.1118 22.646 40.1868 22.7005 40.2626 22.7538C40.3385 22.8073 40.4152 22.8594 40.4928 22.9101C40.5704 22.9608 40.6488 23.0103 40.7279 23.0586C40.8072 23.1067 40.8873 23.1535 40.968 23.1991C41.0488 23.2446 41.1302 23.2888 41.2124 23.3316C41.2947 23.3744 41.3777 23.4159 41.4613 23.4562C41.5449 23.4963 41.6291 23.535 41.7139 23.5723C41.7988 23.6095 41.8843 23.6454 41.9704 23.6799C42.0564 23.7145 42.1431 23.7476 42.2303 23.7792C42.3175 23.8108 42.4051 23.841 42.4932 23.8697C42.5814 23.8985 42.6701 23.9258 42.7591 23.9516C42.8482 23.9774 42.9377 24.0016 43.0274 24.0245C43.1174 24.0475 43.2076 24.0689 43.2981 24.0887C43.3887 24.1085 43.4795 24.1269 43.5708 24.1439C43.662 24.1607 43.7534 24.1761 43.8451 24.19C43.9368 24.2038 44.0287 24.2161 44.1207 24.2269C44.2128 24.2378 44.3051 24.2471 44.3975 24.2549C44.4898 24.2626 44.5824 24.2689 44.675 24.2736C44.7676 24.2782 44.8602 24.2814 44.9531 24.2831C45.0457 24.2847 45.1384 24.2848 45.2311 24.2835C45.3237 24.2821 45.4164 24.2791 45.5091 24.2747C45.6017 24.2701 45.6943 24.2641 45.7867 24.2566Z" fill="#15133B"/>
<path d="M167.47 1.05579L175.426 1.02755C178.602 1.01118 181.857 0.775403 184.958 1.60599C187.68 2.33528 190.136 3.75035 191.553 6.26344C192.904 8.658 193.237 11.9258 192.471 14.559C191.591 17.583 189.625 19.4168 186.945 20.9067C188.85 24.1758 191.649 27.4613 193.894 30.5642C192.827 30.575 191.76 30.5644 190.693 30.5632C188.868 30.5553 187.043 30.5701 185.218 30.6078C183.35 27.8845 181.385 25.26 179.581 22.4842C178.11 22.3411 176.634 22.4866 175.159 22.4017C174.82 24.9906 175.048 27.9337 175.052 30.5573C172.541 30.556 169.873 30.381 167.383 30.6688C167.722 28.5281 167.39 24.2447 167.395 21.853L167.47 1.05579ZM175.162 15.9997C177.852 16.096 180.674 16.3949 183.203 15.2811C184.184 14.6387 184.877 13.8657 185.1 12.6732C185.307 11.5655 185.116 10.2782 184.434 9.36057C183.567 8.19228 182.022 7.79099 180.646 7.62289C179.211 7.44746 177.744 7.4994 176.302 7.54423C175.944 7.56449 175.525 7.5438 175.204 7.71061C174.937 9.90841 175.165 13.6471 175.162 15.9997Z" fill="#15133B"/>
<path d="M126.627 38.032C126.854 38.018 127.082 38.0097 127.31 38.007C127.537 38.0041 127.765 38.0068 127.993 38.0152C128.221 38.0236 128.448 38.0376 128.675 38.057C128.902 38.0765 129.129 38.1016 129.355 38.1322C129.58 38.1628 129.805 38.1989 130.029 38.2406C130.253 38.2822 130.476 38.3293 130.698 38.3817C130.92 38.4343 131.14 38.4923 131.359 38.5557C131.578 38.619 131.795 38.6876 132.011 38.7615C132.226 38.8355 132.44 38.9147 132.652 38.9992C132.863 39.0837 133.073 39.1732 133.28 39.2679C133.487 39.3626 133.692 39.4623 133.895 39.5671C134.097 39.6717 134.297 39.7813 134.494 39.8959C134.691 40.0103 134.885 40.1295 135.076 40.2537C135.267 40.3777 135.455 40.5063 135.64 40.6395C135.825 40.7726 136.006 40.9104 136.185 41.0526C136.363 41.1947 136.537 41.341 136.708 41.4916C136.879 41.6423 137.046 41.7971 137.21 41.956C137.373 42.1148 137.533 42.2775 137.688 42.4442C137.843 42.6108 137.995 42.7812 138.142 42.9554C138.289 43.1293 138.432 43.3069 138.57 43.4881C138.708 43.6691 138.842 43.8535 138.972 44.0411C139.101 44.2288 139.226 44.4194 139.346 44.6131C139.466 44.8068 139.581 45.0033 139.691 45.2027C139.802 45.4021 139.907 45.6041 140.008 45.8085C140.108 46.0131 140.204 46.22 140.294 46.4292C140.384 46.6384 140.469 46.8497 140.549 47.063C140.629 47.2764 140.704 47.4916 140.774 47.7087C140.843 47.9258 140.907 48.1444 140.966 48.3645C141.025 48.5848 141.078 48.8062 141.126 49.0289C141.174 49.2518 141.216 49.4756 141.253 49.7005C141.29 49.9253 141.322 50.151 141.348 50.3774C141.374 50.6038 141.394 50.8308 141.409 51.0582C141.423 51.2856 141.433 51.5133 141.436 51.7412C141.44 51.969 141.438 52.1968 141.43 52.4245C141.423 52.6523 141.41 52.8797 141.391 53.1069C141.373 53.334 141.348 53.5605 141.319 53.7864C141.289 54.0124 141.254 54.2374 141.213 54.4616C141.172 54.6859 141.126 54.909 141.074 55.131C141.022 55.3528 140.965 55.5733 140.903 55.7926C140.84 56.0117 140.772 56.2291 140.699 56.4449C140.626 56.6607 140.547 56.8747 140.464 57.0867C140.38 57.2987 140.291 57.5084 140.197 57.716C140.104 57.9237 140.005 58.1289 139.901 58.3318C139.797 58.5345 139.688 58.7345 139.574 58.932C139.46 59.1295 139.342 59.3241 139.218 59.5158C139.095 59.7074 138.967 59.8959 138.835 60.0813C138.702 60.2666 138.565 60.4487 138.424 60.6274C138.282 60.806 138.137 60.9811 137.987 61.1526C137.837 61.3242 137.682 61.492 137.524 61.656C137.366 61.82 137.204 61.98 137.038 62.136C136.872 62.292 136.702 62.4439 136.528 62.5916C136.355 62.7393 136.178 62.8827 135.997 63.0217C135.817 63.1608 135.633 63.2954 135.445 63.4254C135.258 63.5554 135.068 63.6809 134.875 63.8017C134.682 63.9224 134.485 64.0382 134.287 64.1493C134.088 64.2605 133.886 64.3668 133.682 64.468C133.478 64.5692 133.271 64.6654 133.062 64.7566C132.854 64.8477 132.643 64.9336 132.43 65.0144C132.216 65.0953 132.001 65.1708 131.785 65.2411C131.568 65.3114 131.35 65.3763 131.13 65.4359C130.91 65.4954 130.688 65.5496 130.466 65.5984C130.243 65.6471 130.019 65.6904 129.795 65.7282C129.57 65.7659 129.344 65.7982 129.118 65.8249C128.892 65.8516 128.665 65.8728 128.438 65.8885C128.209 65.9042 127.98 65.9142 127.752 65.9187C127.523 65.9231 127.294 65.922 127.065 65.9152C126.836 65.9083 126.607 65.8959 126.379 65.8779C126.151 65.8598 125.923 65.8361 125.696 65.8068C125.469 65.7777 125.243 65.7428 125.017 65.7023C124.792 65.6619 124.568 65.616 124.345 65.5646C124.122 65.5131 123.9 65.4562 123.679 65.3939C123.459 65.3315 123.241 65.2638 123.024 65.1907C122.807 65.1175 122.592 65.0392 122.378 64.9555C122.165 64.8718 121.954 64.7829 121.746 64.689C121.537 64.5948 121.331 64.4956 121.127 64.3913C120.923 64.2872 120.722 64.178 120.523 64.064C120.325 63.9497 120.129 63.8308 119.936 63.7071C119.744 63.5834 119.554 63.4549 119.368 63.3217C119.182 63.1887 118.999 63.0511 118.819 62.909C118.64 62.7669 118.464 62.6205 118.291 62.4698C118.119 62.3191 117.95 62.1642 117.786 62.0052C117.621 61.8461 117.46 61.6831 117.304 61.5162C117.147 61.3492 116.994 61.1785 116.846 61.0041C116.698 60.8297 116.554 60.6517 116.414 60.4701C116.275 60.2886 116.14 60.1038 116.009 59.9156C115.879 59.7274 115.753 59.5361 115.632 59.3419C115.511 59.1475 115.395 58.9502 115.284 58.7501C115.172 58.5501 115.066 58.3474 114.964 58.1421C114.863 57.9368 114.767 57.7291 114.676 57.5191C114.585 57.309 114.499 57.0968 114.418 56.8824C114.337 56.6682 114.262 56.4521 114.192 56.234C114.122 56.016 114.057 55.7965 113.998 55.5753C113.939 55.3541 113.885 55.1316 113.837 54.9079C113.788 54.6841 113.746 54.4591 113.708 54.2331C113.671 54.0073 113.639 53.7806 113.613 53.5532C113.587 53.3256 113.567 53.0976 113.552 52.8692C113.537 52.6407 113.528 52.412 113.524 52.183C113.521 51.9541 113.523 51.7252 113.53 51.4963C113.538 51.2675 113.551 51.0389 113.57 50.8108C113.589 50.5826 113.614 50.3551 113.644 50.128C113.674 49.901 113.71 49.6749 113.751 49.4496C113.792 49.2245 113.839 49.0004 113.891 48.7774C113.943 48.5546 114.001 48.3331 114.064 48.113C114.127 47.8929 114.196 47.6745 114.27 47.4579C114.344 47.241 114.423 47.0262 114.507 46.8135C114.592 46.6007 114.682 46.3901 114.776 46.1816C114.871 45.9733 114.971 45.7674 115.076 45.5639C115.181 45.3603 115.291 45.1595 115.406 44.9616C115.521 44.7634 115.64 44.5682 115.765 44.376C115.889 44.1839 116.019 43.9949 116.152 43.809C116.286 43.6232 116.424 43.4408 116.567 43.2618C116.71 43.0828 116.857 42.9074 117.008 42.7355C117.16 42.5637 117.315 42.3957 117.475 42.2317C117.634 42.0676 117.798 41.9075 117.966 41.7513C118.133 41.5953 118.304 41.4434 118.479 41.2957C118.654 41.1481 118.833 41.0049 119.015 40.866C119.197 40.727 119.382 40.5927 119.571 40.4629C119.76 40.3332 119.951 40.2082 120.146 40.088C120.341 39.9676 120.539 39.8521 120.739 39.7416C120.94 39.631 121.143 39.5254 121.348 39.4248C121.554 39.3242 121.762 39.2288 121.973 39.1384C122.183 39.048 122.395 38.9629 122.61 38.883C122.825 38.8031 123.041 38.7286 123.259 38.6593C123.477 38.5901 123.697 38.5263 123.919 38.4679C124.14 38.4095 124.363 38.3565 124.587 38.3091C124.811 38.2616 125.036 38.2196 125.262 38.1833C125.488 38.1469 125.715 38.1161 125.942 38.0908C126.17 38.0655 126.398 38.0459 126.627 38.032ZM128.654 58.9837C128.769 58.9656 128.885 58.9446 128.999 58.9208C129.114 58.897 129.228 58.8705 129.342 58.841C129.455 58.8116 129.568 58.7794 129.68 58.7445C129.792 58.7094 129.902 58.6717 130.013 58.6313C130.122 58.5908 130.231 58.5476 130.339 58.5018C130.447 58.456 130.554 58.4075 130.659 58.3563C130.765 58.3053 130.869 58.2517 130.972 58.1953C131.075 58.1392 131.176 58.0805 131.276 58.0193C131.376 57.9579 131.474 57.8942 131.571 57.8281C131.668 57.762 131.763 57.6936 131.856 57.6229C131.95 57.5521 132.041 57.479 132.131 57.4038C132.221 57.3283 132.309 57.2508 132.395 57.1712C132.481 57.0916 132.565 57.0099 132.647 56.926C132.729 56.8422 132.808 56.7565 132.886 56.6689C132.964 56.5811 133.039 56.4914 133.113 56.3999C133.186 56.3085 133.257 56.2154 133.326 56.1204C133.395 56.0254 133.461 55.9288 133.525 55.8305C133.589 55.7322 133.65 55.6325 133.709 55.5312C133.768 55.4299 133.825 55.3272 133.878 55.2232C133.932 55.1192 133.984 55.0139 134.033 54.9073C134.081 54.8007 134.127 54.693 134.171 54.5842C134.214 54.4753 134.255 54.3654 134.293 54.2545C134.331 54.1436 134.366 54.0319 134.399 53.9194C134.431 53.8067 134.461 53.6934 134.488 53.5793C134.515 53.4652 134.539 53.3505 134.56 53.2351C134.581 53.1199 134.6 53.0041 134.615 52.8879C134.631 52.7718 134.643 52.6554 134.653 52.5386C134.663 52.4217 134.67 52.3048 134.673 52.1877C134.677 52.0705 134.679 51.9533 134.677 51.8362C134.675 51.719 134.67 51.6019 134.663 51.4849C134.655 51.368 134.645 51.2512 134.631 51.1347C134.618 51.0183 134.602 50.9023 134.583 50.7867C134.564 50.671 134.542 50.5559 134.517 50.4414C134.492 50.3268 134.465 50.2128 134.435 50.0996C134.404 49.9865 134.371 49.8742 134.335 49.7625C134.299 49.6509 134.261 49.5403 134.219 49.4307C134.178 49.321 134.134 49.2125 134.087 49.105C134.041 48.9975 133.991 48.8912 133.939 48.786C133.887 48.681 133.833 48.5774 133.776 48.4751C133.719 48.3726 133.659 48.2717 133.597 48.1723C133.535 48.0729 133.47 47.975 133.404 47.8787C133.337 47.7825 133.267 47.6879 133.196 47.5951C133.124 47.5023 133.051 47.4114 132.975 47.3223C132.898 47.2331 132.82 47.1458 132.74 47.0604C132.66 46.9751 132.577 46.8918 132.493 46.8107C132.408 46.7293 132.322 46.6502 132.233 46.5732C132.145 46.4962 132.055 46.4214 131.963 46.3488C131.871 46.2763 131.777 46.2061 131.681 46.1383C131.586 46.0703 131.489 46.0048 131.39 45.9417C131.291 45.8785 131.191 45.8179 131.089 45.7598C130.988 45.7016 130.884 45.646 130.78 45.5928C130.675 45.5398 130.57 45.4894 130.463 45.4415C130.356 45.3937 130.248 45.3485 130.138 45.3059C130.029 45.2634 129.919 45.2235 129.808 45.1863C129.697 45.1493 129.585 45.115 129.472 45.0835C129.359 45.0519 129.245 45.0231 129.131 44.9971C129.017 44.9713 128.902 44.9481 128.786 44.9277C128.671 44.9075 128.555 44.8901 128.439 44.8756C128.322 44.8609 128.206 44.8492 128.089 44.8404C127.972 44.8317 127.855 44.8257 127.738 44.8226C127.621 44.8195 127.504 44.8194 127.387 44.8221C127.269 44.825 127.152 44.8307 127.035 44.8392C126.918 44.8476 126.802 44.8591 126.685 44.8734C126.569 44.8876 126.453 44.9047 126.338 44.9247C126.224 44.9445 126.11 44.9671 125.997 44.9924C125.883 45.0177 125.771 45.0458 125.659 45.0766C125.547 45.1075 125.436 45.1411 125.326 45.1773C125.216 45.2135 125.107 45.2524 124.998 45.2941C124.89 45.3356 124.783 45.3798 124.677 45.4266C124.571 45.4735 124.466 45.5229 124.362 45.5749C124.258 45.6269 124.156 45.6814 124.055 45.7383C123.954 45.7952 123.854 45.8546 123.756 45.9165C123.658 45.9783 123.562 46.0424 123.467 46.1089C123.372 46.1755 123.278 46.2443 123.187 46.3154C123.095 46.3865 123.005 46.4598 122.917 46.5352C122.829 46.6107 122.743 46.6882 122.658 46.768C122.574 46.8477 122.492 46.9294 122.412 47.013C122.331 47.0968 122.253 47.1824 122.177 47.2699C122.101 47.3574 122.027 47.4467 121.955 47.5378C121.883 47.629 121.814 47.7219 121.747 47.8165C121.68 47.911 121.615 48.0071 121.552 48.1048C121.49 48.2025 121.43 48.3016 121.372 48.4022C121.314 48.5029 121.259 48.605 121.206 48.7083C121.154 48.8116 121.104 48.9161 121.056 49.0218C121.008 49.1276 120.963 49.2345 120.921 49.3425C120.879 49.4504 120.839 49.5593 120.802 49.6692C120.765 49.7793 120.731 49.8901 120.699 50.0015C120.667 50.1132 120.638 50.2255 120.612 50.3384C120.586 50.4515 120.563 50.565 120.542 50.6791C120.522 50.7933 120.504 50.9079 120.489 51.0229C120.474 51.1379 120.462 51.2532 120.452 51.3688C120.443 51.4844 120.436 51.6002 120.433 51.7162C120.429 51.8321 120.428 51.9481 120.43 52.064C120.432 52.1799 120.437 52.2958 120.444 52.4116C120.452 52.5273 120.462 52.6427 120.475 52.7579C120.489 52.8732 120.505 52.988 120.524 53.1026C120.542 53.2171 120.564 53.331 120.588 53.4444C120.613 53.5577 120.64 53.6704 120.67 53.7825C120.7 53.8946 120.733 54.0058 120.768 54.1163C120.803 54.2268 120.841 54.3364 120.882 54.445C120.923 54.5536 120.966 54.6611 121.012 54.7676C121.058 54.8741 121.106 54.9794 121.158 55.0835C121.209 55.1877 121.262 55.2905 121.318 55.392C121.375 55.4935 121.433 55.5936 121.494 55.6922C121.555 55.7909 121.618 55.888 121.684 55.9835C121.75 56.0791 121.818 56.173 121.888 56.2652C121.959 56.3575 122.031 56.4479 122.106 56.5365C122.181 56.6252 122.258 56.712 122.337 56.7969C122.416 56.8818 122.497 56.9648 122.58 57.0458C122.663 57.1268 122.748 57.2057 122.835 57.2824C122.922 57.3593 123.01 57.4339 123.101 57.5063C123.191 57.5789 123.284 57.6492 123.378 57.7171C123.472 57.7851 123.567 57.8507 123.664 57.9141C123.762 57.9775 123.86 58.0384 123.96 58.0968C124.06 58.1553 124.162 58.2114 124.265 58.265C124.368 58.3184 124.472 58.3693 124.577 58.4177C124.683 58.4663 124.789 58.5122 124.897 58.5555C125.005 58.5987 125.113 58.6393 125.223 58.6772C125.332 58.7152 125.443 58.7503 125.554 58.7828C125.665 58.8154 125.777 58.8453 125.89 58.8723C126.003 58.8994 126.116 58.9238 126.23 58.9453C126.344 58.9669 126.459 58.9856 126.574 59.0014C126.689 59.0175 126.804 59.0306 126.919 59.0408C127.035 59.0511 127.151 59.0587 127.266 59.0634C127.382 59.068 127.498 59.0698 127.614 59.0688C127.73 59.0678 127.846 59.064 127.962 59.0574C128.078 59.0508 128.193 59.0413 128.309 59.0289C128.424 59.0167 128.539 59.0016 128.654 58.9837Z" fill="#15133B"/>
<path d="M105.961 38.8672C108.515 38.9387 111.07 38.9713 113.625 38.965L107.52 57.139C106.676 59.6553 105.911 62.2046 104.99 64.6938C102.636 64.7968 100.273 64.6671 97.9167 64.7839C96.0559 60.2277 95.1743 55.2492 93.1549 50.748C91.6015 55.4127 89.8559 60.0066 88.3768 64.6979C86.0372 64.761 83.7172 64.7585 81.3782 64.7216C79.8921 60.4583 78.6244 56.0895 77.2066 51.7988C75.8107 47.5077 74.3706 43.2314 72.8862 38.97L80.4347 38.9603C80.8039 40.4607 85.0521 53.9772 85.1838 54.1285L85.1691 54.0636L85.2648 54.0371C85.5154 52.7357 86.1641 51.2947 86.5714 50.0182C87.731 46.3137 88.9511 42.6293 90.2317 38.965C92.2562 38.9083 94.2881 38.9491 96.3135 38.9553C96.7307 40.7913 97.4471 42.6369 98.0156 44.4356C99.0533 47.7177 100.048 51.0402 101.233 54.2707C102.928 49.1868 104.419 44.0016 105.961 38.8672Z" fill="#15133B"/>
<path d="M0.589303 1.03159C2.68611 1.03008 4.82641 1.13633 6.91641 0.986328C9.05592 3.60653 11.0924 6.31725 13.2089 8.9575C15.4542 11.7587 17.7889 14.5061 19.9675 17.3582C20.0591 11.9219 19.9464 6.47006 19.9686 1.03159C22.4599 1.03569 24.9618 1.0887 27.4516 1.00099C27.3665 3.7477 27.4389 6.51078 27.4453 9.25879L27.4315 22.612L27.4184 27.7183C27.4182 28.6284 27.4887 29.5782 27.3831 30.4814L27.2141 30.5624C25.201 30.6441 23.1786 30.5051 21.1752 30.6297C18.6873 27.5322 16.2178 24.4201 13.7665 21.2935C11.9612 19.0329 10.1011 16.8423 8.35524 14.532C8.17042 16.2821 8.27102 18.1543 8.25938 19.9172L8.23817 30.5924C5.69411 30.5142 3.12016 30.5368 0.576136 30.6131C0.420816 26.4199 0.548658 22.1773 0.564325 17.9806L0.589303 1.03159Z" fill="#15133B"/>
<path d="M92.9006 1.04641C95.281 1.01192 97.663 1.09382 100.043 1.00977L108.724 20.7303C110.192 23.9936 111.767 27.2071 113.186 30.4921C110.421 30.6091 107.634 30.5404 104.867 30.51C104.061 28.5984 103.273 26.6796 102.503 24.7535C101.581 24.7002 100.643 24.7267 99.7188 24.7205C96.6159 24.7084 93.4405 24.5681 90.3455 24.7621C89.5454 26.6505 88.7587 28.5445 87.9854 30.4441C85.228 30.6458 82.3871 30.5296 79.6218 30.4906C81.1518 26.528 83.2056 22.4548 84.9864 18.5771C87.6607 12.7499 90.2988 6.90634 92.9006 1.04641ZM96.8376 18.8639C97.8771 18.8745 98.9363 18.9314 99.9731 18.8678C99.3072 17.2211 97.2038 11.3533 96.3816 10.4867C95.615 11.9005 95.0543 13.4237 94.431 14.9047C93.8717 16.2336 93.2364 17.5674 92.7614 18.9271C94.1197 18.8822 95.4785 18.8612 96.8376 18.8639Z" fill="#15133B"/>
<path d="M194.525 1.05562C196.99 1.1207 199.472 1.06424 201.939 1.06359L216.869 1.0332C216.862 3.26354 216.804 5.50768 216.912 7.73565C211.946 7.58996 206.971 7.86884 202.004 7.73587C202.047 9.33842 202.001 10.9556 201.999 12.5599C206.483 12.6847 210.962 12.5916 215.446 12.6601C215.45 14.7359 215.325 16.8385 215.418 18.9104L202.601 18.9481C202.377 18.9438 202.328 18.9389 202.123 19.0475C201.727 20.0281 202.003 23.0041 202.034 24.1808C203.921 23.9804 205.9 24.0853 207.801 24.0823C211.03 24.0776 214.259 24.0439 217.483 24.2129L217.5 30.5875C209.815 30.4854 202.082 30.452 194.399 30.6054C194.685 27.0687 194.476 23.3985 194.457 19.8464C194.444 17.198 194.519 14.5504 194.521 11.9019C194.523 8.28586 194.462 4.67171 194.525 1.05562Z" fill="#15133B"/>
<path d="M155.52 38.8988C156.928 38.874 158.427 38.9557 159.81 39.213C162.147 39.6472 164.358 40.8313 165.703 42.8366C167.173 45.029 167.455 48.0261 166.916 50.5664C166.3 53.4685 164.559 55.0626 162.154 56.6021C163.595 59.5356 165.909 62.1526 167.675 64.9077C165.009 64.9163 162.344 64.8972 159.678 64.8504C158.878 63.9646 158.209 62.9041 157.524 61.9233L154.966 57.9714C153.838 57.9145 152.68 57.9175 151.555 58.0227C151.507 60.3237 151.477 62.6248 151.466 64.9262L144.416 64.9202C144.568 56.2641 144.382 47.5934 144.439 38.935C148.122 39.0026 151.839 39.0145 155.52 38.8988ZM151.477 51.9026C153.75 51.7599 156.713 52.3144 158.674 50.9532C159.405 50.2977 159.898 49.5009 159.94 48.494C159.977 47.5951 159.595 46.5531 158.959 45.9126C157.448 44.392 154.395 44.8624 152.433 44.9094C152.115 44.9172 151.797 44.9314 151.478 44.9163C151.451 47.2091 151.732 49.6324 151.477 51.9026Z" fill="#15133B"/>
<path d="M17.8129 38.9502C20.1894 38.9216 22.566 38.9181 24.9425 38.9398L24.9432 55.6852C24.944 58.4689 25.0779 61.3292 24.9171 64.1061C24.9052 64.3126 24.8947 64.4341 24.7654 64.6031L24.4253 64.6248C22.5258 64.5945 20.629 64.6798 18.7282 64.6261C15.1454 60.0599 11.6782 55.3992 8.0695 50.8521C8.02419 55.4461 8.011 60.0402 8.02993 64.6343C5.7358 64.6123 3.33387 64.4986 1.04937 64.7063C0.931978 58.1526 1.00803 51.5818 1.01672 45.0261C1.01939 43.0029 1.11301 40.9773 1.06812 38.9551C3.14926 38.9756 5.23251 38.9461 7.31379 38.9366L13.4236 46.8748C14.8349 48.7284 16.1897 50.7176 17.8056 52.3964C17.8453 47.9144 17.7543 43.4322 17.8129 38.9502Z" fill="#15133B"/>
<path d="M58.1492 1.04745C60.9399 1.00413 63.7353 1.03775 66.5264 1.03904C67.9658 5.57796 69.9714 10.0505 71.744 14.4689C72.4636 16.2624 73.0052 18.3842 73.9429 20.0574C76.6273 13.7521 79.085 7.34991 81.7367 1.03129L87.2506 1.05499C88.2516 1.06534 89.2848 1.14723 90.2817 1.0662C89.2628 3.45106 88.2067 5.8194 87.1135 8.17122C83.5922 15.5633 80.5901 23.1813 77.0042 30.5479C74.6799 30.5128 72.3515 30.546 70.0264 30.5343C69.2826 29.0796 68.7421 27.4407 68.1333 25.9221L64.6437 17.2467L60.8378 7.83459C59.9115 5.58292 58.9087 3.36292 58.1492 1.04745Z" fill="#15133B"/>
<path d="M170.781 38.9048C173.085 38.8708 175.398 38.9214 177.703 38.9287C177.512 41.1166 177.672 43.3791 177.71 45.5762C177.733 46.8667 177.658 48.154 177.689 49.4447C180.93 45.9797 183.844 42.2043 187.312 38.9514C190.043 38.8835 192.779 38.9369 195.511 38.8867C194.244 40.5345 192.629 41.983 191.195 43.4931C189.193 45.6021 187.256 47.8324 185.143 49.8281C186.58 52.3877 189.42 55.8743 191.231 58.2995C192.82 60.4244 194.34 62.5976 195.792 64.8189C192.976 64.9508 190.102 64.8286 187.279 64.8433C185.152 61.5647 182.672 58.415 180.261 55.3381C179.383 56.2743 178.406 57.2118 177.644 58.2417C177.794 60.4697 177.596 62.6938 177.731 64.9217C175.366 64.9512 173.002 64.9567 170.638 64.9383C170.757 62.1673 170.633 59.3762 170.591 56.6038C170.553 53 170.534 49.3961 170.536 45.792C170.533 43.6987 170.375 41.4647 170.58 39.3884C170.605 39.1363 170.578 39.063 170.781 38.9048Z" fill="#15133B"/>
<path d="M125.644 0.432359C129.39 0.160166 133.27 1.77996 136.418 3.64091C134.836 5.54928 133.534 7.69535 132.043 9.67785C130.543 8.59361 129.033 7.73479 127.186 7.41885C125.004 7.04537 122.524 7.56669 120.717 8.8602C120.607 8.93879 120.5 9.02004 120.394 9.10395C120.288 9.188 120.184 9.27448 120.083 9.36342C119.981 9.4525 119.882 9.54402 119.785 9.63799C119.688 9.73195 119.594 9.82828 119.501 9.92699C119.409 10.0255 119.319 10.1264 119.232 10.2296C119.145 10.3326 119.06 10.4377 118.978 10.5451C118.896 10.6523 118.817 10.7615 118.74 10.8727C118.664 10.9839 118.59 11.0969 118.519 11.2117C118.448 11.3265 118.38 11.4429 118.314 11.561C118.249 11.6793 118.187 11.799 118.127 11.9203C118.068 12.0415 118.011 12.1642 117.958 12.2881C117.905 12.4123 117.855 12.5376 117.807 12.664C117.76 12.7906 117.716 12.9182 117.675 13.047C117.635 13.1757 117.597 13.3053 117.563 13.4358C117.528 13.5664 117.497 13.6977 117.469 13.8299C117.441 13.962 117.416 14.0946 117.395 14.228C117.01 16.6605 117.458 19.107 118.931 21.1087C119.011 21.2158 119.093 21.3209 119.178 21.4239C119.263 21.5271 119.35 21.6281 119.439 21.727C119.529 21.8257 119.621 21.9221 119.716 22.0164C119.811 22.1106 119.908 22.2025 120.007 22.292C120.106 22.3814 120.207 22.4683 120.31 22.5528C120.414 22.6373 120.519 22.7192 120.627 22.7985C120.734 22.8777 120.843 22.9542 120.954 23.028C121.066 23.1019 121.179 23.1729 121.293 23.2412C121.408 23.3095 121.524 23.375 121.642 23.4375C121.76 23.5 121.88 23.5595 122.001 23.6161C122.121 23.6727 122.244 23.7263 122.367 23.7769C122.491 23.8275 122.616 23.875 122.741 23.9196C122.867 23.964 122.994 24.0052 123.122 24.0433C123.25 24.0815 123.379 24.1165 123.508 24.1482C123.638 24.1801 123.769 24.2087 123.9 24.234C124.031 24.2594 124.162 24.2816 124.294 24.3004C127.344 24.7558 129.796 23.3388 132.159 21.5884L134.44 24.8827L136.167 27.379C133.371 29.719 130.187 31.0035 126.537 31.2311C122.285 31.4964 117.775 30.2093 114.555 27.354C111.603 24.7366 109.827 20.7712 109.626 16.8521C109.414 12.7233 110.68 8.61236 113.477 5.52535C116.727 1.93728 120.929 0.645716 125.644 0.432359Z" fill="#15133B"/>
<path d="M31.9138 38.9055C37.6402 38.8145 43.3659 39.0081 49.0914 38.9652C49.1569 40.888 49.0919 42.8306 49.0841 44.7553L36.4378 44.7898C36.4609 46.1174 36.4035 47.4409 36.4462 48.7706C40.3272 48.7344 44.268 48.6387 48.1434 48.8152C48.1155 50.7325 48.1097 52.6499 48.1259 54.5672C44.2155 54.4705 40.2711 54.5804 36.3563 54.5771L36.3413 56.8172C36.3434 57.5804 36.3372 58.3434 36.3227 59.1063C40.9013 59.0878 45.4697 59.0535 50.0483 59.1074C50.0459 60.9593 50.0233 62.8142 50.0931 64.6651C47.4928 64.4849 44.6879 64.6549 42.067 64.6485C37.8255 64.6379 33.5441 64.5215 29.3061 64.7049C29.4375 61.5487 29.2395 58.3585 29.2104 55.1976C29.1661 49.7777 29.1791 44.3581 29.2492 38.9387C30.1399 38.9497 31.0239 38.9516 31.9138 38.9055Z" fill="#15133B"/>
<path d="M205.497 38.4669C209.122 38.3231 212.967 39.5022 216.028 41.4345C215.196 43.2793 214.346 45.1155 213.479 46.9432C211.726 46.1404 209.986 45.3267 208.098 44.8896C206.485 44.5163 204.778 44.2702 203.322 45.2571C202.991 45.4812 202.724 45.8014 202.681 46.2128C202.499 47.982 207.386 48.6984 208.654 49.0025C209.597 49.2287 210.542 49.4865 211.449 49.833C212.87 50.3763 214.25 51.1806 215.252 52.3444C216.573 53.8786 217.002 55.9271 216.83 57.9111C216.666 59.7891 215.737 61.6867 214.284 62.8983C211.547 65.1842 207.563 65.4681 204.162 65.1657C200.799 65.1174 197.458 63.4125 194.737 61.5688C195.685 59.6078 196.753 57.6852 197.748 55.7448C200.122 57.3596 202.459 58.8574 205.367 59.2365C206.695 59.4096 208.386 59.4238 209.469 58.5275C209.711 58.3273 209.913 58.0576 209.902 57.7273C209.838 55.7228 203.138 54.5739 201.478 53.9812C200.165 53.5127 198.873 52.8634 197.792 51.9746C196.428 50.8522 195.557 49.3307 195.413 47.5512C195.251 45.5624 195.906 43.3689 197.213 41.8552C199.31 39.4266 202.427 38.6781 205.497 38.4669Z" fill="#15133B"/>
<path d="M50.3914 38.9473L72.6377 38.9664C72.4091 40.8334 72.6323 42.8677 72.5604 44.7691L64.9892 44.7739C64.87 46.2861 64.9211 47.8326 64.9213 49.3494L64.9275 56.5738L64.9228 64.6284C62.5614 64.611 60.1669 64.5474 57.8094 64.6849C57.7566 58.0723 58.0143 51.4123 57.7454 44.8088C55.3221 44.6405 52.7974 44.7665 50.3634 44.7646C50.3919 42.8256 50.4012 40.8864 50.3914 38.9473Z" fill="#15133B"/>
</svg>
