<svg width="168" height="80" viewBox="0 0 168 80" fill="none" xmlns="http://www.w3.org/2000/svg">
<path d="M27.8316 0.480421C35.0087 0.14972 42.0239 2.29386 47.6035 6.87081C53.4488 11.666 56.9366 18.3204 57.63 25.849C58.2998 33.1239 55.8003 40.302 51.1309 45.8683C45.7478 52.2853 38.5634 55.4353 30.3463 56.1555C26.2874 56.5776 21.2621 56.2252 17.121 56.1582C11.6357 56.0696 6.1336 56.148 0.646948 56.1634L0.685166 40.2683C0.646132 34.2702 0.168246 27.9175 1.6133 22.0429C1.73871 21.5397 1.87813 21.0403 2.03156 20.5448C2.18498 20.0492 2.35223 19.5584 2.5333 19.0723C2.71437 18.5862 2.90899 18.1056 3.11717 17.6305C3.32535 17.1552 3.54673 16.6863 3.78129 16.2237C4.01567 15.7611 4.26297 15.3054 4.5232 14.8567C4.78342 14.4078 5.05602 13.9667 5.341 13.5334C5.62598 13.1 5.92298 12.675 6.232 12.2583C6.54083 11.8415 6.86123 11.4339 7.1932 11.0352C12.5234 4.54371 19.5801 1.29389 27.8316 0.480421Z" fill="#15133B"/>
<path d="M137.03 0.204075C137.493 0.133327 137.983 0.15203 138.453 0.145524C138.691 0.143536 138.93 0.144535 139.168 0.14851C139.407 0.152667 139.645 0.159623 139.884 0.169381C140.122 0.17932 140.36 0.19215 140.598 0.207872C140.836 0.223775 141.074 0.242571 141.312 0.264256C141.549 0.285941 141.786 0.310511 142.023 0.337979C142.26 0.365447 142.497 0.395898 142.733 0.42933C142.969 0.462761 143.205 0.499086 143.44 0.5383C143.676 0.577515 143.91 0.619621 144.145 0.664618C144.379 0.709796 144.613 0.757776 144.846 0.808556C145.079 0.859336 145.311 0.913005 145.543 0.969568C145.775 1.02631 146.006 1.08576 146.236 1.14793C146.466 1.21027 146.696 1.27542 146.924 1.34337C147.153 1.41131 147.381 1.48215 147.608 1.55588C147.835 1.62943 148.061 1.70587 148.286 1.78521C148.511 1.86436 148.735 1.94631 148.958 2.03106C149.181 2.11581 149.403 2.20328 149.624 2.29346C149.844 2.38381 150.064 2.47679 150.282 2.57238C150.501 2.66816 150.718 2.76655 150.934 2.86757C151.151 2.96859 151.365 3.07232 151.579 3.17876C151.792 3.28519 152.004 3.39416 152.215 3.50566C152.426 3.61734 152.635 3.73164 152.843 3.84856C153.051 3.9653 153.258 4.08466 153.463 4.20664C153.668 4.32844 153.871 4.45286 154.073 4.5799C154.275 4.70694 154.476 4.83641 154.675 4.96833C154.873 5.10025 155.07 5.23461 155.266 5.37141C155.461 5.50821 155.655 5.64736 155.847 5.78885C156.039 5.93053 156.229 6.07455 156.417 6.22093C156.606 6.36713 156.793 6.51567 156.977 6.66657C157.162 6.81746 157.345 6.9707 157.526 7.12629C157.707 7.2817 157.886 7.43938 158.063 7.59931C158.24 7.75906 158.415 7.92106 158.588 8.08533C158.761 8.2496 158.932 8.41593 159.101 8.58436C168.364 17.693 167.451 26.8575 167.435 38.5759L167.513 56.1145C159.089 56.0969 150.639 56.0397 142.217 56.2004C135.047 56.0906 128.437 55.2877 122.498 50.8783C122.308 50.7368 122.119 50.5929 121.931 50.4468C121.744 50.3006 121.559 50.152 121.375 50.0011C121.192 49.8504 121.01 49.6974 120.83 49.5422C120.65 49.3868 120.472 49.2293 120.297 49.0697C120.121 48.91 119.947 48.7481 119.775 48.584C119.603 48.4201 119.433 48.254 119.265 48.0858C119.098 47.9175 118.932 47.7472 118.769 47.5748C118.605 47.4026 118.444 47.2283 118.284 47.0519C118.125 46.8755 117.968 46.6973 117.813 46.5171C117.659 46.3368 117.506 46.1546 117.356 45.9706C117.206 45.7867 117.058 45.6009 116.912 45.4133C116.766 45.2256 116.623 45.0361 116.482 44.8449C116.341 44.6537 116.202 44.4608 116.066 44.2662C115.93 44.0714 115.796 43.875 115.665 43.6771C115.533 43.4791 115.405 43.2795 115.278 43.0784C115.152 42.8772 115.028 42.6746 114.907 42.4704C114.785 42.2662 114.667 42.0604 114.55 41.8531C114.434 41.646 114.32 41.4375 114.209 41.2275C114.098 41.0173 113.99 40.806 113.884 40.5935C113.778 40.3808 113.675 40.1668 113.574 39.9516C113.474 39.7362 113.376 39.5197 113.281 39.3021C113.186 39.0844 113.093 38.8655 113.003 38.6456C112.914 38.4257 112.827 38.2047 112.742 37.9826C112.658 37.7605 112.577 37.5373 112.498 37.313C112.419 37.089 112.343 36.8639 112.27 36.6378C112.197 36.4118 112.126 36.1849 112.059 35.9572C111.991 35.7295 111.927 35.5009 111.865 35.2714C111.803 35.0421 111.744 34.812 111.688 34.5812C111.632 34.3503 111.578 34.1188 111.528 33.8868C111.477 33.6546 111.43 33.4218 111.385 33.1885C111.34 32.9552 111.299 32.7214 111.26 32.487C111.221 32.2526 111.185 32.0178 111.152 31.7825C111.12 31.5582 111.092 31.3336 111.066 31.1086C111.04 30.8836 111.017 30.6584 110.996 30.4328C110.976 30.2073 110.958 29.9816 110.943 29.7557C110.928 29.5296 110.916 29.3035 110.907 29.0772C110.898 28.851 110.891 28.6246 110.887 28.3982C110.883 28.1718 110.882 27.9454 110.884 27.7189C110.885 27.4925 110.89 27.2661 110.897 27.0396C110.904 26.8134 110.914 26.5872 110.927 26.3612C110.94 26.1351 110.955 25.9091 110.974 25.6832C110.992 25.4575 111.013 25.2321 111.036 25.0069C111.06 24.7817 111.087 24.5568 111.116 24.3322C111.145 24.1078 111.177 23.8836 111.212 23.6597C111.246 23.436 111.284 23.2127 111.324 22.9899C111.364 22.7669 111.407 22.5445 111.453 22.3228C111.498 22.1009 111.547 21.8796 111.598 21.659C111.649 21.4383 111.702 21.2184 111.759 20.9992C111.815 20.7798 111.874 20.5611 111.936 20.3432C111.997 20.1253 112.062 19.9082 112.129 19.6918C112.196 19.4755 112.266 19.2601 112.338 19.0456C112.41 18.8309 112.485 18.6172 112.562 18.4046C112.64 18.1917 112.72 17.9798 112.803 17.7689C112.885 17.5582 112.97 17.3485 113.058 17.1398C113.146 16.9309 113.236 16.7231 113.329 16.5166C113.422 16.31 113.517 16.1046 113.615 15.9004C113.713 15.6962 113.813 15.4933 113.916 15.2916C114.019 15.0898 114.124 14.8893 114.232 14.6901C114.34 14.491 114.45 14.2931 114.562 14.0965C114.675 13.9001 114.79 13.705 114.907 13.5113C115.025 13.3175 115.144 13.1253 115.266 12.9344C115.388 12.7436 115.512 12.5544 115.639 12.3668C115.766 12.1791 115.895 11.9928 116.026 11.8081C116.157 11.6235 116.29 11.4405 116.426 11.2592C121.799 4.15405 128.445 1.37915 137.03 0.204075Z" fill="#15133B"/>
<path d="M68.4246 0.0334651C70.6994 0.0079849 72.9742 -0.00294043 75.2492 0.000673783C84.4302 0.0237144 92.1033 1.51728 98.7984 8.31075C98.9619 8.47989 99.1233 8.65094 99.2825 8.82388C99.4419 8.997 99.599 9.17202 99.7539 9.34894C99.9087 9.52585 100.062 9.70466 100.212 9.88537C100.363 10.0661 100.511 10.2486 100.657 10.4329C100.803 10.6174 100.947 10.8036 101.088 10.9913C101.23 11.1793 101.369 11.3689 101.506 11.5603C101.642 11.7517 101.777 11.9447 101.909 12.1393C102.041 12.3339 102.17 12.5302 102.298 12.728C102.425 12.9259 102.549 13.1253 102.672 13.3263C102.794 13.5272 102.914 13.7296 103.031 13.9335C103.148 14.1373 103.263 14.3426 103.375 14.5493C103.488 14.7561 103.597 14.9642 103.704 15.1736C103.811 15.383 103.916 15.5938 104.017 15.8057C104.119 16.0177 104.219 16.2309 104.315 16.4452C104.412 16.6597 104.506 16.8754 104.597 17.0922C104.688 17.3089 104.777 17.5267 104.863 17.7458C104.949 17.9646 105.032 18.1845 105.113 18.4055C105.193 18.6265 105.271 18.8485 105.346 19.0715C105.421 19.2944 105.493 19.5182 105.563 19.743C105.632 19.9676 105.699 20.1931 105.763 20.4195C105.827 20.6458 105.888 20.8729 105.946 21.1007C106.004 21.3286 106.06 21.5571 106.113 21.7863C106.165 22.0156 106.215 22.2454 106.262 22.4759C106.309 22.7063 106.353 22.9373 106.395 23.169C106.436 23.4005 106.475 23.6324 106.51 23.8648C106.546 24.0974 106.579 24.3303 106.608 24.5636C106.638 24.7969 106.665 25.0306 106.689 25.2646C106.713 25.4984 106.735 25.7326 106.753 25.9672C106.771 26.2016 106.787 26.4362 106.799 26.6712C106.812 26.9061 106.821 27.1411 106.828 27.3762C106.835 27.6113 106.839 27.8464 106.84 28.0815C106.84 28.3168 106.838 28.552 106.834 28.7871C106.741 35.9324 103.575 43.1544 98.4696 48.1494C88.9771 57.1967 80.3575 56.1355 68.3929 56.1485C68.1335 49.888 68.2855 43.5567 68.2674 37.2886C68.2374 24.8696 68.2898 12.4512 68.4246 0.0334651Z" fill="#15133B"/>
<path d="M108.76 62.5692C110.562 62.5177 112.403 62.512 114.143 63.0452C116.4 63.737 118.258 65.2466 119.339 67.3536C120.326 69.2773 120.625 71.5328 119.946 73.6098C119.123 76.1234 117.421 77.6183 115.127 78.8039C111.771 80.1612 108.116 79.8126 104.586 79.7315C104.807 74.0633 104.682 68.3107 104.622 62.6359L108.76 62.5692ZM108.131 76.5389C110.289 76.5126 112.255 76.5305 114.228 75.5018C115.453 74.5824 116.31 73.3547 116.516 71.8091C116.527 71.7227 116.536 71.6361 116.543 71.5494C116.55 71.4627 116.555 71.3758 116.557 71.2889C116.559 71.202 116.56 71.115 116.558 71.0281C116.556 70.941 116.552 70.8541 116.546 70.7674C116.54 70.6806 116.531 70.5941 116.521 70.5077C116.51 70.4213 116.497 70.3352 116.483 70.2494C116.468 70.1637 116.451 70.0784 116.432 69.9935C116.413 69.9085 116.391 69.8242 116.368 69.7406C116.344 69.6567 116.319 69.5735 116.292 69.4909C116.264 69.4083 116.234 69.3266 116.203 69.2456C116.171 69.1645 116.138 69.0842 116.102 69.0049C116.066 68.9256 116.029 68.8471 115.989 68.7696C115.949 68.6921 115.908 68.6156 115.865 68.5403C115.821 68.4649 115.776 68.3906 115.729 68.3175C115.682 68.2443 115.633 68.1724 115.582 68.1017C115.531 68.031 115.479 67.9617 115.425 67.8935C114.359 66.552 112.721 65.9001 111.05 65.7472C110.332 65.678 109.613 65.6568 108.893 65.6835L108.254 65.7602C107.953 69.3383 108.616 72.9668 108.131 76.5389Z" fill="#15133B"/>
<path d="M155.771 62.557C157.71 62.351 160.028 62.3475 161.946 62.6183C163.583 62.8492 165.267 63.438 166.262 64.8383C167.238 66.2118 167.351 68.1646 167.057 69.7864C166.694 71.7809 165.494 72.8212 163.896 73.8808C164.95 75.862 166.357 77.698 167.464 79.6662L163.942 79.731L163.86 79.7641C162.905 79.4011 161.036 75.832 160.336 74.7848C159.521 74.6935 158.658 74.7604 157.836 74.7477C157.83 76.3933 157.769 78.0604 157.881 79.7025L154.648 79.6906C154.394 76.868 154.531 73.9497 154.53 71.1116C154.529 68.3595 154.375 65.4786 154.681 62.746C155.018 62.5427 155.385 62.5787 155.771 62.557ZM162.824 70.8256C163.383 70.0826 163.979 69.0184 163.822 68.0456C163.708 67.3408 163.223 66.7575 162.643 66.3696C161.273 65.4545 159.521 65.5989 157.955 65.6412C158.048 67.6764 158.155 69.7154 157.996 71.7502C159.75 71.7299 161.259 71.7695 162.824 70.8256Z" fill="#15133B"/>
<path d="M129.892 62.1451C133.255 61.9429 135.561 63.1416 138.106 65.2017C137.261 66.0721 136.358 66.8517 135.417 67.6155C133.804 66.5001 132.133 65.5224 130.092 65.6769C129.997 65.6839 129.902 65.6934 129.807 65.7053C129.713 65.7171 129.619 65.7314 129.525 65.7482C129.431 65.7648 129.338 65.7838 129.245 65.8054C129.152 65.8267 129.06 65.8504 128.968 65.8766C128.877 65.9027 128.786 65.9311 128.696 65.962C128.605 65.9927 128.516 66.0257 128.428 66.061C128.339 66.0964 128.252 66.134 128.165 66.1737C128.078 66.2135 127.993 66.2554 127.908 66.2995C127.824 66.3438 127.741 66.39 127.659 66.4383C127.577 66.4867 127.496 66.5372 127.416 66.5898C127.337 66.6422 127.259 66.6967 127.182 66.7533C127.105 66.8097 127.03 66.868 126.956 66.9284C126.882 66.9887 126.81 67.0509 126.74 67.1149C126.669 67.1788 126.6 67.2446 126.533 67.3122C126.466 67.3796 126.4 67.4487 126.337 67.5196C126.273 67.5904 126.211 67.6629 126.151 67.737C126.09 67.8129 126.032 67.8902 125.975 67.969C125.919 68.048 125.864 68.1283 125.812 68.21C125.76 68.2917 125.709 68.3746 125.661 68.4588C125.613 68.5432 125.567 68.6287 125.523 68.7152C125.48 68.802 125.438 68.8897 125.399 68.9785C125.36 69.0672 125.323 69.1569 125.288 69.2476C125.254 69.3383 125.222 69.4299 125.192 69.5222C125.162 69.6145 125.135 69.7076 125.11 69.8014C125.085 69.8952 125.062 69.9895 125.042 70.0844C125.022 70.1793 125.004 70.2747 124.989 70.3706C124.974 70.4664 124.961 70.5626 124.951 70.6591C124.94 70.7556 124.933 70.8522 124.927 70.9491C124.922 71.0462 124.919 71.1432 124.919 71.2402C124.919 71.3373 124.921 71.4342 124.926 71.5311C124.931 71.6279 124.938 71.7247 124.947 71.8214C124.957 71.9179 124.969 72.0141 124.984 72.1101C125.195 73.5481 125.984 74.7931 127.168 75.6307C128.671 76.6952 130.834 76.996 132.63 76.6575C133.404 76.5116 134.574 76.1175 134.972 75.3618C135.133 75.0547 135.038 74.9311 134.912 74.6459C133.878 73.8286 132.069 74.1902 130.826 74.2759C130.771 73.3171 130.67 72.2581 130.854 71.3137L131.078 71.1773C133.576 71.147 136.055 71.1207 138.553 71.2291C138.554 73.1998 138.639 75.1788 138.56 77.1478C137.066 78.6672 134.723 79.6067 132.639 79.8905C129.947 80.2572 126.865 79.7189 124.676 78.0437C122.807 76.6128 121.661 74.5575 121.359 72.2291C121.048 69.8415 121.724 67.5196 123.201 65.6248C124.882 63.4679 127.23 62.4674 129.892 62.1451Z" fill="#15133B"/>
<path d="M32.6228 62.5617C35.5121 62.5395 39.391 62.2047 41.7097 64.3044C42.7916 65.2838 43.3147 66.6535 43.3356 68.0966C43.3583 69.6729 42.7951 71.209 41.6785 72.3361C40.0565 73.9736 37.9224 74.0875 35.7671 74.1111C35.1491 74.1185 34.5312 74.1309 33.9133 74.1485C33.8946 75.9988 33.9163 77.8512 33.9187 79.7015L30.3859 79.7159C30.3662 74.0141 30.3769 68.3125 30.4179 62.6111C31.1579 62.6273 31.8844 62.6021 32.6228 62.5617ZM33.9084 71.2345C35.6088 71.2041 37.4553 71.3551 38.9451 70.3985C39.4488 69.6241 39.9253 68.6084 39.693 67.6562C39.5442 67.0452 39.088 66.5743 38.558 66.2637C37.2054 65.4708 35.4489 65.6104 33.9336 65.6215C33.9467 67.4786 34.041 69.3837 33.9084 71.2345Z" fill="#15133B"/>
<path d="M45.0136 62.6094L48.5581 62.63C48.3382 64.1371 48.3637 67.5311 48.7055 69.0084C51.4525 68.9788 54.1993 68.9923 56.9459 69.0488C56.6502 67.0142 56.9188 64.6993 56.9007 62.6256C58.0633 62.6555 59.2299 62.6359 60.3928 62.6362C60.3053 64.03 60.4015 65.4369 60.4026 66.8329L60.3543 75.0313C60.3551 76.5113 60.4226 78.0176 60.2939 79.4917C60.0318 79.7402 59.823 79.6673 59.4747 79.6787C58.5975 79.6334 57.7169 79.6808 56.8397 79.7074C56.9356 77.2396 56.9142 74.7667 56.9191 72.2973C54.0937 72.2541 51.2682 72.2386 48.4426 72.2509C48.4502 74.7217 48.583 77.2621 48.3434 79.7212C47.2442 79.5703 46.0691 79.6725 44.9648 79.7459C45.0968 74.0356 44.8092 68.3126 45.0136 62.6094Z" fill="#15133B"/>
<path d="M141.285 62.5547C144.869 62.6932 148.472 62.5582 152.059 62.6086C152.041 63.623 152.007 64.6367 151.957 65.65L144.505 65.7397L144.502 69.2728C146.899 69.2607 149.294 69.2692 151.69 69.2983C151.721 70.3706 151.696 71.4492 151.695 72.5223L144.495 72.5641L144.506 76.4065L152.187 76.4346C152.128 77.533 152.114 78.6045 152.17 79.7034L141.109 79.6929C141.078 77.9781 140.934 63.0499 141.285 62.5547Z" fill="#15133B"/>
<path d="M70.12 62.041C71.5376 64.0301 72.4983 66.6863 73.5457 68.9049C75.2366 72.4868 77.0381 76.0524 78.5705 79.704C77.3897 79.7403 76.2097 79.7237 75.0287 79.7132C74.521 78.8024 74.0843 77.8672 73.6498 76.9196L69.921 76.8716C68.8033 76.8645 67.6857 76.8726 66.5682 76.8957C66.186 77.8065 65.7225 78.6861 65.2814 79.5698L61.4908 79.5942C64.5468 73.8332 67.0149 67.7692 70.12 62.041ZM67.7655 74.2094L69.7215 74.2284C70.5987 74.233 71.4813 74.2179 72.3574 74.2517C71.8342 72.9113 71.2067 70.4891 70.1655 69.4999C69.3049 71.0279 68.4106 72.5757 67.7655 74.2094Z" fill="#15133B"/>
<path d="M91.2412 62.5833C94.8827 62.5269 98.6039 62.812 102.232 62.5586L102.218 65.6233C99.7302 65.7062 97.2332 65.6843 94.7429 65.7455L94.7366 69.4705C97.008 69.4432 99.2794 69.4352 101.551 69.4464L101.544 72.5092C99.5952 72.4631 96.7279 72.156 94.8578 72.6217L94.7507 72.9017L94.7415 76.4624C97.2742 76.4519 99.8069 76.4555 102.34 76.4732C102.294 77.5529 102.274 78.6204 102.302 79.7006L91.2106 79.7054C91.0764 73.999 91.2575 68.2914 91.2412 62.5833Z" fill="#15133B"/>
<path d="M8.60456 62.0391C9.33562 62.6942 16.2334 77.6026 17.3025 79.7017L13.5862 79.7026C13.1867 78.798 12.7898 77.8962 12.4377 76.9718L9.40556 76.9095C7.98246 76.9019 6.55945 76.9103 5.13654 76.9347C4.76518 77.8401 4.43746 78.7679 4.09185 79.6836C2.88398 79.6863 1.69156 79.5809 0.486938 79.7327C1.60048 76.7493 3.07074 73.8722 4.41198 70.9853C5.79821 68.0017 7.09716 64.9631 8.60456 62.0391ZM6.47506 74.3062C7.1473 74.2701 7.85587 74.1842 8.52459 74.2642L10.8932 74.2869C10.2488 72.6065 9.5232 70.9619 8.71651 69.3533C7.96972 70.974 7.07113 72.6294 6.47506 74.3062Z" fill="#15133B"/>
<path d="M79.8529 62.6125C81.0149 62.6399 82.1754 62.6168 83.3374 62.5957C83.056 66.6045 83.181 72.3874 83.352 76.4548L89.3502 76.4377C89.3722 77.3788 89.553 78.6922 89.2504 79.5818L88.9509 79.7214C85.919 79.774 82.9013 79.7401 79.8705 79.6984L79.7759 68.2493C79.7729 66.3801 79.6853 64.4745 79.8529 62.6125Z" fill="#15133B"/>
<path d="M18.93 62.6074C20.0305 62.6359 21.1335 62.6321 22.2343 62.6429C22.2942 67.2017 22.1963 71.7621 22.2784 76.3212C24.4338 76.3427 26.5892 76.3471 28.7447 76.3345C28.7537 77.1461 28.9865 79.053 28.578 79.6868L18.9172 79.6943C18.9983 77.651 18.8836 75.5901 18.8636 73.5449C18.8167 69.8987 18.8389 66.2529 18.93 62.6074Z" fill="#15133B"/>
</svg>
