<svg width="218" height="56" viewBox="0 0 218 56" fill="none" xmlns="http://www.w3.org/2000/svg">
<path d="M71.1398 14.7507C73.6592 14.6505 76.4087 15.4383 78.4918 16.8587C81.855 19.1515 83.7855 22.8949 84.4836 26.8378C85.2382 31.1023 84.3765 35.6911 81.8639 39.2429C81.7393 39.4203 81.6103 39.5945 81.4769 39.7654C81.3435 39.9363 81.2059 40.1039 81.0643 40.268C80.9224 40.4322 80.7766 40.5925 80.6268 40.7491C80.477 40.9059 80.3233 41.0588 80.1658 41.2079C80.0083 41.3569 79.8472 41.5018 79.6825 41.6426C79.5176 41.7836 79.3494 41.9203 79.1777 42.0528C79.006 42.1852 78.8311 42.3133 78.653 42.437C78.475 42.5606 78.294 42.6798 78.1098 42.7944C77.9257 42.9091 77.739 43.0189 77.5494 43.124C77.3597 43.2293 77.1676 43.3296 76.9731 43.4251C76.7784 43.5208 76.5814 43.6114 76.3822 43.697C76.1831 43.7828 75.9818 43.8633 75.7785 43.9388C75.5754 44.0144 75.3704 44.0849 75.1635 44.1502C74.9569 44.2154 74.7486 44.2754 74.5386 44.3302C74.3289 44.385 74.1179 44.4345 73.9057 44.4787C73.6934 44.5228 73.4801 44.5617 73.2659 44.5952C70.0947 45.116 67.0373 44.2584 64.448 42.4041C64.3663 46.8806 64.4645 51.3606 64.4107 55.8382C61.3367 56.0728 58.1156 55.8481 55.0297 55.8263C55.3965 51.2135 55.1605 46.4346 55.1555 41.806L55.0322 28.6261C55.0217 25.7053 55.1114 22.7837 55.0421 19.8631C51.2226 28.3672 47.1692 36.7745 43.292 45.254C41.5145 48.7766 39.9105 52.4084 38.2365 55.9826L28.4329 55.9403C29.2363 53.4885 30.447 51.2047 31.58 48.8939L35.7092 40.4292C32.2535 32.0662 28.4478 23.7972 25.1753 15.3646C28.7696 15.5158 32.3738 15.2696 35.9706 15.382C36.6463 17.6348 37.5702 19.8372 38.417 22.031C39.3303 24.3964 40.2001 26.8102 41.2362 29.1243C43.5214 24.6909 45.0516 19.8388 47.2796 15.3613C52.4732 15.3169 57.6668 15.3138 62.8603 15.3519C63.2398 16.146 63.4929 16.9906 63.7676 17.825C66.0591 16.0704 68.2118 14.9125 71.1398 14.7507ZM70.8102 36.5042C72.6421 35.6674 73.9079 34.5815 74.6328 32.637C75.4219 30.5205 75.3424 27.9587 74.386 25.9076C73.7528 24.5488 72.7293 23.4516 71.294 22.9487C70.2421 22.5802 69.1913 22.6368 68.0997 22.7158C66.3288 23.5653 65.0743 24.6311 64.4104 26.5543C63.6735 28.6896 63.8015 31.51 64.7924 33.5415C65.4414 34.8721 66.5084 35.9834 67.9482 36.4264C68.875 36.7115 69.864 36.6688 70.8102 36.5042Z" fill="#15133B"/>
<path d="M160.669 0.210938C163.713 0.299631 166.758 0.342687 169.803 0.34011C169.632 2.32109 169.728 4.41441 169.726 6.40561C169.721 9.76199 169.694 13.1327 169.822 16.4869C171.504 15.485 173.467 14.7957 175.429 14.6845C178.68 14.4998 181.807 15.5575 184.223 17.7461C187.236 20.4762 188.706 24.7128 188.895 28.6982C189.123 33.5131 187.965 37.6782 184.701 41.294C184.577 41.4193 184.45 41.5417 184.32 41.6611C184.19 41.7807 184.058 41.8974 183.923 42.0111C183.788 42.1246 183.65 42.2352 183.51 42.3426C183.37 42.4501 183.228 42.5544 183.083 42.6556C182.938 42.7566 182.791 42.8544 182.642 42.949C182.493 43.0436 182.342 43.1348 182.189 43.2226C182.036 43.3103 181.881 43.3946 181.724 43.4754C181.567 43.5564 181.408 43.6336 181.248 43.7072C181.088 43.781 180.926 43.8511 180.762 43.9176C180.599 43.9842 180.434 44.047 180.268 44.1061C180.101 44.1652 179.934 44.2205 179.765 44.2722C179.596 44.3238 179.426 44.3715 179.255 44.4155C179.084 44.4597 178.913 44.4999 178.74 44.5361C178.567 44.5724 178.394 44.6048 178.219 44.6333C178.045 44.662 177.87 44.6866 177.695 44.7072C177.52 44.728 177.344 44.7449 177.168 44.7578C173.537 45.015 170.612 43.5979 167.942 41.2601C167.924 42.2162 167.85 43.1569 167.759 44.1086C165.421 44.0845 163.083 44.0775 160.745 44.0876C161 29.4708 160.368 14.8244 160.669 0.210938ZM175.56 36.517C177.275 35.8468 178.49 34.6668 179.243 32.9726C180.139 30.9541 180.127 28.6237 179.312 26.5836C178.712 25.0785 177.672 23.8157 176.14 23.2085C175.312 22.8803 174.568 22.8259 173.694 22.848C172.046 23.3236 170.944 23.9783 170.103 25.5491C169.015 27.5812 168.962 30.3099 169.646 32.4846C170.104 33.9395 171.007 35.3447 172.382 36.0759C173.443 36.6401 174.395 36.6663 175.56 36.517Z" fill="#15133B"/>
<path d="M19.002 0.0953013C22.9974 -0.222672 26.5815 0.453574 30.3406 1.7837C29.799 3.8831 29.8018 10.2207 29.7375 12.767C28.4565 11.945 26.913 11.3099 25.4429 10.9232C22.5287 10.1562 19.2024 10.4327 16.5827 11.9864C14.003 13.5167 12.2302 16.2385 11.5352 19.1245C10.7446 22.4064 11.1603 26.2083 12.9506 29.1056C13.045 29.2582 13.1432 29.4083 13.2451 29.5561C13.3469 29.7039 13.4523 29.8489 13.5614 29.9914C13.6705 30.1338 13.7831 30.2735 13.899 30.4104C14.0149 30.5473 14.1342 30.6812 14.257 30.8122C14.3795 30.9433 14.5053 31.0711 14.6343 31.1959C14.7633 31.3207 14.8952 31.4422 15.0301 31.5605C15.1652 31.6787 15.303 31.7934 15.4436 31.9047C15.5844 32.0162 15.7277 32.1242 15.8736 32.2285C16.0197 32.3327 16.1682 32.4332 16.3191 32.5302C16.4702 32.6272 16.6235 32.7203 16.779 32.8095C16.9346 32.8989 17.0924 32.9844 17.2523 33.0659C17.4121 33.1475 17.5738 33.2249 17.7376 33.2983C17.9013 33.3719 18.0668 33.4414 18.2339 33.5067C18.4009 33.5721 18.5696 33.6332 18.7398 33.69C18.9098 33.7471 19.0812 33.7998 19.254 33.8482C19.4268 33.8966 19.6007 33.9407 19.7757 33.9807C23.389 34.8233 26.6273 33.539 29.6731 31.6756C29.7501 34.1579 29.7764 36.6408 29.7521 39.1243L29.7711 43.1732C28.0863 43.6841 26.4007 44.1508 24.6582 44.426C19.2595 45.2784 13.3652 44.1434 8.91521 40.8767C4.3035 37.4911 1.72355 32.6486 0.86983 27.0476C-0.124111 20.5286 0.786473 13.4466 4.7868 8.03938C8.2961 3.29601 13.2832 0.952337 19.002 0.0953013Z" fill="#15133B"/>
<path d="M86.3589 0.464844C89.4873 0.474412 92.6154 0.506334 95.7432 0.560618C95.7246 6.33528 95.7369 12.1099 95.7799 17.8843C97.8266 15.8562 100.079 14.6834 103.017 14.68C105.561 14.677 108.305 15.5984 110.096 17.4549C111.218 18.6183 111.859 20.1068 112.171 21.6741C112.805 24.8543 112.396 29.9772 112.408 33.3825C112.42 36.9252 112.655 40.4358 112.583 43.9852C109.416 43.9929 106.257 44.0566 103.089 44.0205C103.053 40.8314 103.091 37.5871 103.172 34.3982C103.182 31.5356 103.885 25.299 102.018 23.1083C101.94 23.0177 101.858 22.9315 101.771 22.8496C101.685 22.7676 101.594 22.6902 101.499 22.6175C101.404 22.5446 101.306 22.4769 101.205 22.4144C101.103 22.3516 100.998 22.2943 100.891 22.2424C100.783 22.1903 100.673 22.1439 100.561 22.1033C100.449 22.0626 100.335 22.0278 100.219 21.9989C100.103 21.9699 99.9862 21.9469 99.868 21.9299C99.7497 21.9128 99.6309 21.9019 99.5117 21.8971C98.4606 21.8455 97.4465 22.206 96.7016 22.9559C95.9723 23.6901 95.6345 24.6322 95.4854 25.638C95.1721 27.7514 95.5528 30.118 95.5746 32.2594C95.6146 36.1888 95.5232 40.1179 95.5346 44.047C92.4727 43.9796 89.381 44.0293 86.318 44.0826C86.0238 39.1791 86.3489 33.982 86.3492 29.0443C86.3492 19.5186 86.2529 9.98967 86.3589 0.464844Z" fill="#15133B"/>
<path d="M126.477 14.7417C126.93 14.6906 127.378 14.6746 127.834 14.6721C130.818 14.6558 133.887 15.4174 136.049 17.5874C139.613 21.1624 139.686 26.661 139.681 31.3748L122.519 31.4027C122.759 32.6415 123.181 33.7566 123.987 34.7422C125.31 36.3608 127.265 37.1317 129.294 37.3506C133.221 37.774 136.354 36.5283 139.355 34.0809L139.358 36.7C139.358 38.4917 139.312 40.2949 139.461 42.0816C138.967 42.3616 138.46 42.618 137.942 42.8505C137.424 43.0829 136.896 43.2906 136.358 43.4735C135.82 43.6562 135.275 43.8135 134.723 43.9452C134.17 44.0768 133.612 44.1821 133.05 44.2613C128.312 44.9325 122.735 44.5157 118.806 41.5248C115.849 39.2736 114.249 35.8281 113.765 32.2023C113.198 27.9508 113.984 23.3468 116.668 19.9112C119.141 16.7458 122.557 15.2024 126.477 14.7417ZM122.481 26.7493L128.894 26.7435L131.878 26.6891C131.446 24.8831 131.047 22.6377 129.336 21.5833C128.268 20.9256 127.023 20.9339 125.816 21.0595C124.487 21.6736 123.687 22.4324 123.163 23.8218C122.816 24.7413 122.668 25.7849 122.481 26.7493Z" fill="#15133B"/>
<path d="M204.189 6.14173C207.326 6.12958 210.463 6.13952 213.6 6.17154V15.231C214.884 15.3031 216.178 15.2812 217.464 15.2881C217.432 18.1977 217.424 21.1392 217.5 24.0476C216.293 24.0763 214.99 24.0095 213.805 24.2435L213.692 24.4942L213.936 24.6021L213.671 24.6198C213.365 26.9844 213.518 29.4981 213.535 31.8837C213.578 35.6854 213.601 39.4873 213.606 43.2893C213.618 43.5828 213.626 43.7622 213.496 44.0291C210.641 44.3316 207.031 44.0768 204.101 44.068C204.058 37.4913 203.888 30.8084 204.18 24.2416C203.39 24.219 202.625 24.2811 201.838 24.3518C201.803 21.3181 201.81 18.2847 201.858 15.2514L204.189 15.2652C204.01 12.3339 203.859 9.05234 204.189 6.14173Z" fill="#15133B"/>
<path d="M156.497 15.0116C157.174 14.8752 158.084 15.0075 158.783 15.0417C158.821 17.9132 158.81 20.7846 158.752 23.6559C158.283 23.5996 157.811 23.5441 157.338 23.5312C155.599 23.4837 153.748 23.8696 152.47 25.1279C151.578 26.0059 151.071 27.1865 150.816 28.3965C150.323 30.7413 150.617 33.2086 150.649 35.5854C150.675 38.4107 150.677 41.2361 150.655 44.0614C148.839 44.0738 142.578 44.3634 141.326 44.0095L141.246 43.704L141.275 15.2335C144.227 15.4325 147.214 15.3268 150.171 15.2807C150.145 16.368 150.173 17.4596 150.182 18.5474C151.891 16.4071 153.755 15.3508 156.497 15.0116Z" fill="#15133B"/>
<path d="M190.395 15.2109C193.553 15.3572 196.773 15.2441 199.938 15.2543L199.995 31.355C200.041 35.5874 200.232 39.8447 199.932 44.0692L190.288 44.0841C190.212 38.0688 190.331 32.0605 190.369 26.0463C190.392 22.4318 190.299 18.8259 190.395 15.2109Z" fill="#15133B"/>
<path d="M193.91 0.270201C194.009 0.25548 194.108 0.24315 194.208 0.233213C194.307 0.223277 194.407 0.215818 194.507 0.210849C194.607 0.205881 194.707 0.203309 194.807 0.203125C194.907 0.203125 195.007 0.205517 195.107 0.210302C195.207 0.215086 195.307 0.222263 195.406 0.231832C195.506 0.241585 195.605 0.253726 195.704 0.268263C195.803 0.2828 195.901 0.299821 196 0.319326C196.098 0.338647 196.195 0.360452 196.292 0.384742C196.39 0.408848 196.486 0.435438 196.582 0.464512C196.677 0.493401 196.772 0.524597 196.866 0.558087C196.961 0.591761 197.054 0.627639 197.147 0.66573C197.239 0.704004 197.331 0.744394 197.421 0.7869C197.512 0.829591 197.601 0.874492 197.689 0.921599C197.778 0.968522 197.865 1.01765 197.95 1.06899C198.036 1.12033 198.121 1.17378 198.204 1.22936C198.288 1.28474 198.369 1.34216 198.45 1.4016C198.53 1.46122 198.609 1.52268 198.687 1.58598C198.764 1.64928 198.84 1.71451 198.914 1.78167C198.988 1.84865 199.061 1.91748 199.132 1.98814C199.202 2.0588 199.271 2.13111 199.339 2.20508C199.406 2.27905 199.472 2.35469 199.535 2.43197C199.599 2.50926 199.66 2.58801 199.72 2.66824C199.78 2.74847 199.838 2.83017 199.893 2.91335C199.949 2.99634 200.003 3.0807 200.054 3.16645C200.106 3.2522 200.155 3.33915 200.202 3.42729C200.25 3.51543 200.295 3.60468 200.338 3.69503C200.381 3.78538 200.422 3.87674 200.46 3.96912C200.498 4.06149 200.535 4.15478 200.568 4.24899C200.602 4.34302 200.634 4.43788 200.663 4.53357C200.692 4.62926 200.719 4.72559 200.743 4.82256C200.768 4.91954 200.79 5.01706 200.81 5.11514C200.829 5.21322 200.847 5.31176 200.862 5.41076C200.876 5.50976 200.889 5.60903 200.899 5.70858C200.909 5.80813 200.916 5.90777 200.921 6.00751C200.927 6.10742 200.929 6.20744 200.929 6.30754C200.93 6.40764 200.927 6.50765 200.923 6.60757C200.918 6.70749 200.911 6.80722 200.901 6.90677C200.891 7.00632 200.88 7.1056 200.865 7.2046C200.851 7.3036 200.834 7.40214 200.814 7.50022C200.795 7.59848 200.773 7.69609 200.749 7.79307C200.725 7.89022 200.699 7.98674 200.67 8.08261C200.641 8.1783 200.61 8.27325 200.576 8.36747C200.543 8.46186 200.507 8.55525 200.469 8.64762C200.431 8.74018 200.39 8.83172 200.348 8.92226C200.305 9.01279 200.261 9.10222 200.214 9.19055C200.167 9.27888 200.118 9.366 200.066 9.45194C200.015 9.53787 199.962 9.62252 199.906 9.70588C199.851 9.78905 199.794 9.87093 199.734 9.95153C199.675 10.0319 199.614 10.1109 199.55 10.1884C199.487 10.2658 199.422 10.3417 199.355 10.4161C199.288 10.4904 199.219 10.563 199.148 10.6338C199.078 10.7049 199.006 10.7741 198.932 10.8414C198.858 10.9088 198.782 10.9743 198.705 11.0379C198.628 11.1014 198.549 11.1631 198.469 11.2229C198.389 11.2827 198.307 11.3405 198.224 11.3965C198.141 11.4522 198.057 11.5059 197.971 11.5574C197.885 11.6091 197.798 11.6587 197.71 11.7062C197.622 11.7535 197.533 11.7986 197.443 11.8417C197.352 11.8848 197.261 11.9255 197.169 11.964C197.076 12.0024 196.983 12.0387 196.889 12.0727C196.795 12.1066 196.7 12.1381 196.604 12.1674C196.509 12.1968 196.412 12.2238 196.315 12.2483C196.218 12.2729 196.121 12.2951 196.023 12.3148C195.925 12.3347 195.826 12.3521 195.727 12.367C195.628 12.3819 195.529 12.3944 195.429 12.4045C195.33 12.4146 195.23 12.4223 195.13 12.4274C195.03 12.4326 194.93 12.4353 194.829 12.4357C194.729 12.4359 194.629 12.4337 194.529 12.4291C194.429 12.4245 194.329 12.4174 194.23 12.4078C194.13 12.3982 194.031 12.3862 193.931 12.3717C193.832 12.3573 193.734 12.3405 193.635 12.3211C193.537 12.3018 193.439 12.2801 193.342 12.256C193.245 12.2321 193.148 12.2057 193.052 12.1768C192.957 12.1479 192.861 12.1167 192.767 12.0832C192.673 12.0497 192.579 12.0139 192.486 11.9758C192.394 11.9378 192.302 11.8974 192.211 11.8547C192.121 11.8122 192.031 11.7674 191.943 11.7203C191.854 11.6733 191.767 11.6242 191.681 11.5729C191.595 11.5217 191.51 11.4683 191.427 11.4128C191.344 11.3574 191.262 11.3 191.181 11.2405C191.1 11.1809 191.021 11.1195 190.944 11.0562C190.866 10.9929 190.79 10.9276 190.716 10.8605C190.642 10.7935 190.569 10.7246 190.498 10.6537C190.427 10.5831 190.358 10.5107 190.29 10.4368C190.223 10.3628 190.157 10.2872 190.094 10.2099C190.03 10.1326 189.968 10.0538 189.908 9.97334C189.849 9.89311 189.791 9.81141 189.735 9.72823C189.679 9.64506 189.625 9.5605 189.574 9.47457C189.522 9.38882 189.473 9.30187 189.425 9.21373C189.378 9.12541 189.333 9.03607 189.29 8.94572C189.246 8.85519 189.206 8.76373 189.167 8.67136C189.129 8.5788 189.092 8.48542 189.058 8.3912C189.025 8.29699 188.993 8.20194 188.964 8.10607C188.935 8.01038 188.908 7.91396 188.883 7.8168C188.858 7.71964 188.836 7.62203 188.817 7.52395C188.797 7.42569 188.78 7.32706 188.765 7.22806C188.75 7.12906 188.737 7.0297 188.728 6.92996C188.717 6.83041 188.71 6.73059 188.705 6.63048C188.7 6.53038 188.697 6.43028 188.697 6.33017C188.697 6.23007 188.699 6.12996 188.704 6.02986C188.709 5.92976 188.716 5.82994 188.725 5.73038C188.735 5.63065 188.747 5.53119 188.762 5.43201C188.776 5.33301 188.793 5.23438 188.813 5.13612C188.832 5.03786 188.854 4.94015 188.878 4.84299C188.902 4.74583 188.929 4.64923 188.957 4.55317C188.986 4.4573 189.018 4.36225 189.051 4.26804C189.085 4.17364 189.121 4.08017 189.159 3.98761C189.197 3.89487 189.237 3.80323 189.28 3.71269C189.323 3.62216 189.368 3.53264 189.415 3.44413C189.462 3.3558 189.511 3.26868 189.563 3.18274C189.614 3.09663 189.667 3.01188 189.723 2.92853C189.778 2.84517 189.836 2.76329 189.895 2.68287C189.955 2.60228 190.017 2.52324 190.08 2.44577C190.143 2.3683 190.209 2.29239 190.276 2.21805C190.343 2.14371 190.412 2.07112 190.483 2.00027C190.553 1.92925 190.626 1.86006 190.7 1.79271C190.774 1.72537 190.85 1.65995 190.927 1.59647C191.004 1.5328 191.083 1.47106 191.164 1.41126C191.244 1.35146 191.326 1.29367 191.409 1.23791C191.492 1.18216 191.577 1.12852 191.663 1.07699C191.748 1.02547 191.836 0.975973 191.924 0.928498C192.012 0.881207 192.102 0.836127 192.192 0.793252C192.282 0.750377 192.374 0.709706 192.467 0.671247C192.559 0.632789 192.652 0.596637 192.747 0.562779C192.841 0.528921 192.936 0.497452 193.032 0.468378C193.128 0.43912 193.224 0.41235 193.321 0.388061C193.418 0.363587 193.516 0.3415 193.614 0.321811C193.712 0.302121 193.811 0.284922 193.91 0.270201Z" fill="#15133B"/>
</svg>
