<svg width="218" height="36" viewBox="0 0 218 36" fill="none" xmlns="http://www.w3.org/2000/svg">
<path d="M68.7471 3.47309L74.9455 3.46289C77.573 7.97756 79.8963 12.7373 82.2865 17.3851C82.4556 12.8543 82.3437 8.27573 82.3099 3.74066L91.23 3.72482L91.2361 33.0157C88.255 32.9905 85.2049 32.8558 82.2355 33.1078L82.2347 25.5497C81.3767 27.2888 80.6091 29.0842 79.8096 30.8512C79.4149 31.5321 79.1972 32.3091 78.7801 32.9956L72.7499 33.0023C71.5999 31.1848 70.4542 29.3481 69.4843 27.4273C70.3753 25.0854 71.7972 22.8468 72.9802 20.6351L72.1399 18.9285C69.8826 23.5054 68.2575 28.4004 66.0281 33.0074C62.7957 32.9913 59.3699 32.75 56.1625 33.0847C56.604 31.5386 57.3884 30.0292 58.0309 28.5572L60.9302 21.8291C63.563 15.7259 66.0029 9.52638 68.7471 3.47309Z" fill="#15133B"/>
<path d="M196.658 3.67578L196.756 3.72113C196.971 4.31666 196.712 20.8048 196.719 22.9285C196.728 26.2886 196.863 29.6415 196.845 33.0026C193.942 32.9903 190.857 32.7761 187.98 33.0917L188.003 19.4479C185.958 22.056 183.942 24.6593 181.731 27.1321C179.497 24.6866 177.528 21.8716 175.498 19.2522C175.35 22.7935 175.639 26.3519 175.403 29.8929C175.371 30.9302 175.406 31.96 175.445 32.9967C172.596 32.9855 169.616 32.8078 166.788 33.096C166.705 23.3069 166.624 13.4781 166.775 3.69081C169.211 3.78045 171.666 3.7206 174.102 3.69134C176.639 6.97469 179.31 10.1617 181.874 13.4255C184.354 10.1043 187.152 6.92961 189.767 3.70477C192.064 3.73608 194.361 3.72642 196.658 3.67578Z" fill="#15133B"/>
<path d="M109.907 3.72753C112.889 3.73934 115.872 3.73576 118.854 3.7168C118.891 10.0573 118.755 16.4127 118.746 22.7567C118.742 26.0865 119.046 29.519 118.753 32.8287L118.645 32.9406C116.535 33.2439 112.193 32.9954 109.879 32.9887C108.088 30.142 106.347 27.2656 104.656 24.3595C103.685 22.7178 102.61 21.0758 101.805 19.3491C101.815 21.8141 101.912 24.2779 101.916 26.7421C101.92 28.8382 101.8 30.9278 101.91 33.0235C99.0189 32.9946 96.1282 32.9898 93.2374 33.0093C93.2014 27.8666 93.3278 22.7156 93.3431 17.5713C93.3571 12.9684 93.2513 8.3568 93.3297 3.75625L101.463 3.73264C104.235 8.32657 107.038 12.9012 109.873 17.4565C110.036 12.8892 109.873 8.29964 109.907 3.72753Z" fill="#15133B"/>
<path d="M30.2019 3.72776C33.1194 3.60243 36.0896 3.71756 39.0122 3.73259L39.0246 14.146C41.7569 14.2286 44.4894 14.2408 47.2222 14.1825C47.1932 10.6922 47.2893 7.19603 47.3159 3.70495C50.2149 3.73913 53.114 3.74502 56.0132 3.72266C55.8622 7.0103 56.2392 32.2551 55.8917 32.9312L55.5629 32.998C52.8134 32.9875 49.9718 32.8399 47.2343 33.0839C47.1927 29.3647 47.1412 25.6208 47.3277 21.9056L39.0632 21.9757C38.9422 25.6401 38.9857 29.3403 39.0232 33.0074C36.0786 33.0109 33.1162 32.9486 30.1758 33.1121C30.1159 23.3171 30.1246 13.5223 30.2019 3.72776Z" fill="#15133B"/>
<path d="M17.5176 0.567731C21.0747 0.361884 25.737 1.44587 28.6304 3.58002C26.8939 6.55661 24.7453 9.35527 22.6917 12.1182C22.1077 11.8195 21.5215 11.5133 20.9145 11.2637C18.8812 10.4285 16.651 10.3005 14.607 11.1878C12.8113 11.9674 11.4935 13.429 10.8111 15.2521C10.7635 15.3807 10.7191 15.5105 10.6779 15.6415C10.637 15.7723 10.5992 15.9041 10.5647 16.0368C10.5301 16.1696 10.499 16.3032 10.4713 16.4375C10.4434 16.5717 10.4189 16.7066 10.3977 16.8422C10.3768 16.9779 10.3592 17.1138 10.3449 17.2502C10.3306 17.3867 10.3197 17.5234 10.3124 17.6603C10.3049 17.7973 10.3009 17.9344 10.3003 18.0714C10.2998 18.2087 10.3027 18.3458 10.3089 18.4828C10.3152 18.6199 10.3248 18.7567 10.3379 18.8932C10.3511 19.0297 10.3677 19.1659 10.3875 19.3017C10.4074 19.4373 10.4308 19.5724 10.4576 19.7069C10.4843 19.8415 10.5142 19.9753 10.5475 20.1084C10.581 20.2414 10.6177 20.3735 10.6578 20.5048C10.6977 20.636 10.7409 20.766 10.7874 20.895C10.834 21.0242 10.8837 21.1521 10.9367 21.2785C10.9894 21.405 11.0454 21.5302 11.1047 21.654C11.156 21.7587 11.2099 21.8621 11.2662 21.9643C11.3228 22.0664 11.3817 22.1671 11.4431 22.2662C11.5045 22.3653 11.5683 22.4628 11.6347 22.5587C11.7009 22.6548 11.7695 22.7491 11.8406 22.8416C11.9116 22.9343 11.9848 23.0251 12.0601 23.114C12.1356 23.2029 12.2132 23.29 12.293 23.3751C12.3728 23.4601 12.4547 23.5431 12.5386 23.6242C12.6225 23.7052 12.7084 23.7841 12.7963 23.8609C12.8841 23.9377 12.9738 24.0122 13.0654 24.0845C13.1569 24.1567 13.2501 24.2267 13.3451 24.2943C13.4403 24.362 13.537 24.4272 13.6352 24.49C13.7334 24.553 13.8332 24.6133 13.9344 24.6711C14.0357 24.7291 14.1383 24.7845 14.2423 24.8373C14.3462 24.89 14.4515 24.9402 14.5582 24.9878C14.6646 25.0354 14.7722 25.0803 14.881 25.1225C14.9896 25.1648 15.0993 25.2043 15.2101 25.2412C18.0039 26.1877 20.4265 25.2012 22.9136 24.0042C24.7669 26.5325 26.5985 29.0762 28.4087 31.6353C28.6041 31.9619 28.7361 32.0521 28.6687 32.4359C27.1618 34.1616 22.4413 35.1956 20.2121 35.3773C15.0882 35.7949 9.91359 34.6116 5.95849 31.2045C2.52109 28.2435 0.891488 24.1185 0.557625 19.6656C0.17599 14.5768 1.69126 9.95295 5.03499 6.11512C8.15544 2.53387 12.9135 0.900521 17.5176 0.567731Z" fill="#15133B"/>
<path d="M155.379 3.69531L164.165 3.7149C164.295 6.24572 164.183 8.81116 164.111 11.3433L164.126 17.8397C164.134 21.7213 164.296 25.8135 161.938 29.1347C160.137 31.672 157.481 33.0093 154.45 33.4854C150.596 34.0903 145.959 33.7288 142.721 31.3558C138.055 27.9359 138.311 22.3216 138.306 17.1293C138.302 14.2265 138.316 11.3239 138.346 8.42147C138.357 6.94512 138.481 5.33323 138.235 3.87835C138.227 3.83246 138.218 3.7871 138.21 3.74147L146.922 3.7396L146.905 14.5786C146.906 16.8378 146.771 19.2208 147.101 21.4591C147.247 22.4497 147.502 23.6257 148.184 24.3863C148.923 25.2126 150.265 25.6589 151.362 25.7035C152.349 25.7437 153.41 25.2303 154.083 24.528C154.566 24.0245 154.813 23.4757 154.964 22.7991C155.554 20.1582 155.352 17.2157 155.359 14.5212L155.379 3.69531Z" fill="#15133B"/>
<path d="M199.067 3.65625C201.333 3.82748 203.666 3.73971 205.94 3.73703L217.485 3.71369C217.464 6.25148 217.469 8.7891 217.5 11.3265C214.314 11.2433 211.122 11.3332 207.935 11.271C207.954 12.3421 207.926 13.4051 207.885 14.4754C210.908 14.2586 214.06 14.4666 217.1 14.462L217.072 21.9109C213.996 22.0185 210.906 21.9374 207.828 21.9619L207.821 24.3343C207.823 24.654 207.851 24.9213 207.923 25.2329C208.968 25.5292 215.671 25.2637 217.406 25.3408C217.451 27.8928 217.32 30.4646 217.478 33.0102C214.851 32.9665 212.219 33.1034 209.589 33.0819C206.036 33.0524 202.414 32.8508 198.869 33.0991C199.058 30.7056 198.948 28.1799 198.957 25.7734L198.945 11.1711C198.938 9.11804 198.666 5.57355 199.067 3.65625Z" fill="#15133B"/>
<path d="M120.755 3.72266C123.664 3.77928 126.586 3.7283 129.496 3.72561C129.413 10.8841 129.478 18.0493 129.482 25.2083C132.211 25.2326 134.94 25.2226 137.669 25.1782C137.523 27.8041 137.846 30.4744 137.586 33.0925C132.017 32.8031 126.313 33.0111 120.732 33.0423L120.755 3.72266Z" fill="#15133B"/>
</svg>
