<svg width="102" height="80" viewBox="0 0 102 80" fill="none" xmlns="http://www.w3.org/2000/svg">
<path d="M5.1372 1.24414C10.4258 2.23279 15.4177 4.61232 19.2193 8.46281C24.1166 13.4228 26.6498 19.8624 26.5607 26.8152C26.5576 27.0229 26.552 27.2306 26.5439 27.4383C26.5358 27.6458 26.5252 27.8533 26.5121 28.0606C26.499 28.268 26.4835 28.4751 26.4654 28.6819C26.4473 28.889 26.4266 29.0957 26.4034 29.3022C26.3803 29.5087 26.3547 29.7149 26.3266 29.9207C26.2986 30.1265 26.268 30.3319 26.2349 30.5371C26.2019 30.7422 26.1663 30.9469 26.1282 31.1511C26.0904 31.3554 26.0499 31.5591 26.0068 31.7623C25.9639 31.9656 25.9186 32.1683 25.8707 32.3705C25.8228 32.5727 25.7725 32.7742 25.7198 32.9752C25.6671 33.1762 25.612 33.3765 25.5545 33.5761C25.497 33.7757 25.437 33.9746 25.3747 34.1729C25.3122 34.3709 25.2474 34.5683 25.1804 34.765C25.1132 34.9615 25.0437 35.1572 24.9717 35.3522C24.8999 35.5471 24.8256 35.7411 24.749 35.9342C24.6725 36.1274 24.5936 36.3196 24.5124 36.5108C24.4312 36.702 24.3478 36.8922 24.262 37.0815C24.1761 37.2707 24.088 37.4589 23.9978 37.6459C23.9073 37.833 23.8147 38.0189 23.7198 38.2037C23.6251 38.3886 23.528 38.5723 23.4286 38.7547C23.3294 38.9373 23.228 39.1185 23.1243 39.2985C23.0206 39.4785 22.9147 39.6572 22.8066 39.8348C22.6986 40.0122 22.5885 40.1883 22.4764 40.3631C22.3641 40.5379 22.2498 40.7113 22.1333 40.8834C22.0168 41.0554 21.8982 41.2261 21.7776 41.3954C21.6571 41.5645 21.5345 41.7322 21.41 41.8984C21.2853 42.0646 21.1587 42.2293 21.03 42.3926C20.9013 42.5557 20.7708 42.7172 20.6384 42.8772C20.5057 43.0372 20.3713 43.1956 20.2351 43.3523C20.0987 43.509 19.9605 43.6641 19.8205 43.8176C19.6803 43.971 19.5383 44.1227 19.3945 44.2728C19.2508 44.4228 19.1053 44.5709 18.9579 44.7173C15.273 48.6148 10.2639 50.9456 5.04627 51.9009C5.24725 47.6541 5.0566 43.305 5.0566 39.0487C5.00476 29.9091 5.04196 20.7701 5.1682 11.6315C5.1837 9.43053 5.17105 7.2296 5.13023 5.02875C5.10853 3.79158 4.98168 2.46607 5.1372 1.24414Z" fill="#15133B"/>
<path d="M96.9621 1.08999C97.3348 1.05485 97.418 0.997757 97.727 1.19848C98.0801 2.20858 97.7993 12.5051 97.798 14.587L97.8128 52.0614C92.7577 51.1319 88.1921 48.5875 84.4535 45.0985C80.9525 41.9194 78.4944 37.3195 77.311 32.7694C75.6406 26.3467 76.7238 19.1608 80.0959 13.4694C83.8637 7.10997 89.8382 2.88413 96.9621 1.08999Z" fill="#15133B"/>
<path d="M27.4498 0.0540405C28.759 -0.0162267 30.0967 0.105444 31.4111 0.0889104C35.2866 0.0222599 39.1624 0.000388051 43.0382 0.0232938C53.9121 -0.0323344 64.7855 0.011673 75.6585 0.155308C74.5464 5.66069 72.318 9.95087 68.6189 14.1545C68.3922 14.3801 68.1613 14.6012 67.926 14.8176C67.6906 15.0341 67.4509 15.2459 67.2071 15.4529C66.9634 15.6599 66.7156 15.862 66.4638 16.0592C66.2121 16.2564 65.9565 16.4485 65.6971 16.6356C65.4377 16.8226 65.1748 17.0044 64.9082 17.1809C64.6416 17.3574 64.3715 17.5287 64.098 17.6947C63.8247 17.8606 63.5482 18.021 63.2685 18.176C62.9886 18.331 62.7059 18.4803 62.4204 18.624C62.1347 18.7678 61.8462 18.9058 61.555 19.0381C61.2639 19.1703 60.9703 19.2968 60.674 19.4176C60.378 19.5383 60.0796 19.653 59.7789 19.7617C59.4782 19.8705 59.1754 19.9734 58.8706 20.0704C58.5658 20.1672 58.2592 20.2579 57.9509 20.3427C57.6425 20.4274 57.3325 20.5059 57.0212 20.5783C56.7096 20.6506 56.3968 20.7168 56.0826 20.7769C55.7685 20.8369 55.4533 20.8906 55.1371 20.9381C54.9389 20.9674 54.7403 20.9943 54.5414 21.0187C54.3427 21.0432 54.1436 21.0651 53.9441 21.0846C53.7447 21.1041 53.545 21.121 53.3451 21.1352C53.1453 21.1497 52.9453 21.1617 52.7452 21.1712C52.5451 21.1806 52.3449 21.1876 52.1446 21.1921C51.9443 21.1966 51.7439 21.1985 51.5434 21.198C51.3431 21.1975 51.1428 21.1945 50.9425 21.189C50.7422 21.1835 50.542 21.1755 50.3419 21.165C50.1418 21.1544 49.9418 21.1414 49.742 21.1259C49.5423 21.1104 49.3428 21.0924 49.1435 21.0719C48.9442 21.0515 48.7452 21.0286 48.5465 21.0032C48.3477 20.9777 48.1493 20.9498 47.9513 20.9193C47.7532 20.889 47.5556 20.8562 47.3584 20.8209C47.161 20.7855 46.9643 20.7477 46.7681 20.7074C46.5718 20.6673 46.3759 20.6247 46.1806 20.5796C45.9855 20.5344 45.7909 20.4869 45.5968 20.437C45.4029 20.387 45.2096 20.3346 45.0168 20.2796C44.8239 20.2249 44.6319 20.1677 44.4407 20.1081C44.2494 20.0487 44.0588 19.9868 43.8691 19.9224C43.6793 19.8581 43.4903 19.7915 43.3023 19.7224C43.1142 19.6533 42.927 19.582 42.7406 19.5082C42.5543 19.4345 42.3689 19.3585 42.1845 19.2801C42.0002 19.2018 41.8168 19.1212 41.6342 19.0383C41.4518 18.9553 41.2705 18.8702 41.0904 18.7828C40.9101 18.6954 40.7309 18.6056 40.5528 18.5137C40.3747 18.4219 40.1978 18.3278 40.0222 18.2316C39.8465 18.1351 39.6721 18.0366 39.4988 17.936C39.3255 17.8353 39.1536 17.7325 38.9829 17.6276C38.8122 17.5227 38.6428 17.4156 38.4748 17.3065C38.3068 17.1973 38.1402 17.086 37.9749 16.9727C37.8097 16.8594 37.6459 16.744 37.4835 16.6265C37.3211 16.5091 37.1603 16.3896 37.0009 16.2682C36.8397 16.1476 36.68 16.0252 36.5217 15.9008C36.3636 15.7763 36.2071 15.6499 36.0521 15.5216C35.8969 15.3933 35.7435 15.2631 35.5917 15.131C35.4398 14.9989 35.2896 14.8649 35.1412 14.729C34.9927 14.5932 34.8459 14.4555 34.7007 14.316C34.5557 14.1765 34.4124 14.0351 34.2709 13.892C34.1291 13.7491 33.9893 13.6043 33.8513 13.4578C33.7134 13.3112 33.5772 13.163 33.4429 13.0132C33.3086 12.8633 33.1761 12.7118 33.0456 12.5585C32.915 12.4054 32.7864 12.2507 32.6596 12.0943C32.5329 11.9379 32.4081 11.78 32.2853 11.6205C32.1625 11.461 32.0417 11.3001 31.9228 11.1377C31.804 10.9753 31.6872 10.8114 31.5725 10.646C31.4577 10.4807 31.3449 10.3139 31.2344 10.1457C31.1238 9.97756 31.0153 9.80809 30.9089 9.63725C30.8024 9.4664 30.6982 9.29426 30.596 9.12084C30.4939 8.94741 30.3939 8.77278 30.2961 8.59694C30.1983 8.42109 30.1026 8.24405 30.0091 8.0658C29.9156 7.88755 29.8244 7.70809 29.7355 7.52742C29.6465 7.34693 29.5598 7.16532 29.4754 6.98259C29.3908 6.80003 29.3086 6.61636 29.2287 6.43156C29.1488 6.24694 29.0711 6.06128 28.9956 5.87459C28.9204 5.6879 28.8474 5.50035 28.7768 5.31194C28.7061 5.12353 28.6377 4.93425 28.5717 4.74412C28.5058 4.55399 28.4422 4.36298 28.3811 4.17113C28.3198 3.97944 28.2609 3.78699 28.2044 3.59375C28.1479 3.40069 28.0938 3.20685 28.0421 3.01224C27.9905 2.8178 27.9412 2.62267 27.8944 2.42685C27.8475 2.23103 27.8032 2.0347 27.7613 1.83785C27.7193 1.64099 27.6798 1.44371 27.6427 1.246C27.6055 1.04811 27.5709 0.849881 27.5389 0.651307C27.5067 0.452561 27.477 0.253475 27.4498 0.0540405Z" fill="#15133B"/>
<path d="M49.9559 31.0781C50.2822 31.0595 50.6089 31.0472 50.9357 31.0411C51.2626 31.0353 51.5895 31.0358 51.9164 31.0427C52.2431 31.0494 52.5696 31.0626 52.896 31.0822C53.2224 31.1017 53.5482 31.1275 53.8735 31.1597C54.1989 31.1921 54.5234 31.2307 54.8472 31.2755C55.171 31.3204 55.4938 31.3716 55.8157 31.4289C56.1374 31.4864 56.4579 31.5502 56.7772 31.6201C57.0967 31.69 57.4146 31.7661 57.731 31.8484C58.0474 31.9308 58.3619 32.0193 58.6747 32.114C58.9876 32.2086 59.2987 32.3091 59.6078 32.4157C59.9168 32.5225 60.2236 32.6352 60.5283 32.7539C60.8327 32.8726 61.1349 32.9971 61.4347 33.1275C61.7344 33.258 62.0315 33.3942 62.326 33.5361C62.6205 33.6782 62.9121 33.8259 63.2007 33.9792C63.4894 34.1326 63.775 34.2916 64.0576 34.4561C64.3401 34.6206 64.6193 34.7905 64.8952 34.9658C70.9981 38.9075 74.6729 44.8027 76.1973 51.8431C68.463 52.0505 60.6822 51.8829 52.943 51.8839C48.9683 51.8139 44.9961 51.9317 41.0232 51.8837L32.9858 51.8609C30.9904 51.8596 28.9829 51.801 26.995 51.995C27.6171 48.0655 29.0335 44.4929 31.4407 41.3004C36.3439 34.7971 42.0736 32.1879 49.9559 31.0781Z" fill="#15133B"/>
<path d="M91.4612 64.4265C92.1228 64.3945 92.8299 64.3317 93.4827 64.4611C93.9808 64.5598 94.3621 64.7652 94.6767 65.1669C95.6501 66.4087 96.2531 68.1243 96.8809 69.564C98.3942 73.0345 99.6874 76.5693 101.819 79.7151C100.011 79.8721 98.093 79.9065 96.2877 79.682L96.1632 79.5161C96.3939 79.064 96.8369 78.7737 97.2242 78.4598C96.7556 77.1317 96.2859 75.8201 95.5814 74.5956C93.7428 74.5979 91.8893 74.7718 90.0564 74.5907C89.5279 75.7878 88.9701 77.048 88.6276 78.3113C89.0432 78.814 89.5459 79.2327 90.0308 79.6672C88.5069 79.829 86.9902 79.7564 85.4617 79.7587C83.7959 79.761 82.1322 79.8347 80.4685 79.7181C78.7364 77.6336 77.3822 75.1164 76.0226 72.7857L74.4289 72.7826C74.3847 74.7163 74.3959 76.6498 74.4628 78.583C74.7862 78.7551 75.1427 78.9165 75.4103 79.1712C75.6033 79.3549 75.5421 79.2521 75.5475 79.5585L75.1946 79.7336C73.2712 79.7505 71.3478 79.7465 69.4244 79.7215L70.8156 78.7675C71.1791 77.1994 71.2 75.6367 71.2188 74.0342C71.2382 72.3626 71.5226 67.6025 70.9897 66.2739C70.7037 65.5609 70.1201 65.0437 69.5931 64.5035C72.2646 64.4665 76.5664 64.1465 79.0756 64.7543C80.1864 65.0235 81.2436 65.5412 81.8457 66.557C82.4332 67.5485 82.4895 68.8807 82.1648 69.9686C81.7018 71.5196 80.6251 72.2814 79.2784 73.0053C80.7359 74.9645 82.7646 78.3714 84.9478 79.4363C85.4018 79.211 85.8528 78.9797 86.3007 78.7424C88.0003 75.7403 91.0148 69.1398 91.9621 65.8169C91.5857 65.4245 91.0262 65.1912 90.7785 64.6998C91.0228 64.4268 91.1125 64.4831 91.4612 64.4265ZM74.4235 71.8418C75.8234 71.8508 76.9629 71.872 78.1621 71.0355C78.7405 70.2246 79.2402 69.3388 79.0529 68.3046C78.9265 67.6076 78.4713 67.0494 77.8909 66.6645C76.8516 65.9752 75.6558 65.8882 74.446 65.8908L74.4235 71.8418ZM90.5979 73.3956L93.082 73.3879L95.0937 73.3801C94.5961 72.1345 93.709 69.0693 92.8147 68.2964L90.5979 73.3956Z" fill="#15133B"/>
<path d="M57.1763 64.2797C59.6876 64.1069 62.1702 64.4091 64.2441 65.9421C64.3492 66.0201 64.4522 66.1007 64.5531 66.1839C64.654 66.2671 64.7529 66.3527 64.8497 66.4407C64.9464 66.5287 65.041 66.6191 65.1333 66.7119C65.2256 66.8048 65.3155 66.8997 65.403 66.9969C65.4905 67.094 65.5756 67.1933 65.6582 67.2947C65.7409 67.3962 65.821 67.4996 65.8985 67.605C65.976 67.7104 66.0508 67.8177 66.123 67.9269C66.1952 68.0359 66.2646 68.1467 66.3312 68.2594C66.3979 68.3718 66.4618 68.4859 66.5229 68.6017C66.5839 68.7174 66.642 68.8346 66.6973 68.9533C66.7524 69.0719 66.8046 69.1918 66.8538 69.3129C66.9031 69.4341 66.9493 69.5565 66.9925 69.6799C67.0358 69.8034 67.0759 69.928 67.1129 70.0535C67.15 70.1789 67.1838 70.3052 67.2145 70.4325C67.2453 70.5596 67.2729 70.6874 67.2974 70.8159C67.3217 70.9445 67.3429 71.0736 67.3609 71.2031C67.3776 71.3238 67.3913 71.4449 67.402 71.5663C67.4127 71.6877 67.4203 71.8094 67.4247 71.9313C67.4294 72.0531 67.4309 72.175 67.4294 72.2969C67.428 72.4188 67.4235 72.5406 67.416 72.6622C67.4084 72.7839 67.3977 72.9054 67.3839 73.0264C67.3703 73.1477 67.3537 73.2684 67.3341 73.3886C67.3144 73.509 67.2918 73.6288 67.2661 73.748C67.2405 73.8671 67.2118 73.9855 67.1801 74.1032C67.1486 74.221 67.1141 74.3379 67.0768 74.454C67.0394 74.5699 66.9991 74.6849 66.9559 74.7991C66.9126 74.9131 66.8667 75.026 66.8179 75.1376C66.7692 75.2493 66.7177 75.3598 66.6634 75.469C66.609 75.5782 66.552 75.6859 66.4924 75.7922C66.4326 75.8984 66.3703 76.0031 66.3054 76.1063C66.2404 76.2095 66.173 76.311 66.1031 76.4109C66.0332 76.5106 65.9608 76.6086 65.8858 76.7049C64.3206 78.7222 62.0658 79.6458 59.5951 79.9472C56.9281 80.0896 54.137 79.8077 51.9652 78.096C50.4521 76.9033 49.4976 75.2678 49.272 73.354C49.0199 71.2155 49.6221 68.9489 50.9835 67.2699C52.5061 65.3924 54.8379 64.5316 57.1763 64.2797ZM58.7147 78.7134C60.3092 78.4711 61.5791 77.942 62.5543 76.5847C63.7566 74.9115 63.9863 72.6673 63.6099 70.6854C63.2983 69.045 62.5306 67.4226 61.1185 66.4559C60.2252 65.8442 59.2606 65.6424 58.1967 65.5734C56.5992 65.7729 55.221 66.2402 54.1721 67.5386C52.9174 69.0928 52.5526 71.3292 52.8128 73.2726C53.0355 74.9345 53.7193 76.5873 55.0792 77.6364C56.168 78.4763 57.3714 78.7075 58.7147 78.7134Z" fill="#15133B"/>
<path d="M17.2505 64.6258L15.9105 65.6336C15.9371 68.939 15.772 72.2558 15.779 75.5666C15.7818 76.9768 15.7167 78.4413 15.9208 79.8389C15.2006 79.8462 14.4785 79.834 13.7583 79.8309C10.1537 76.2199 6.6773 72.2847 3.38611 68.3867C3.50236 70.7491 3.02134 76.3388 3.48764 78.2458C3.55351 78.5152 3.71548 78.7198 3.88547 78.9324C4.04073 79.127 4.18927 79.3259 4.34014 79.524L4.27582 79.7271L3.78343 79.8544C2.69506 79.863 1.64182 79.8322 0.559399 79.7157C0.775626 79.5367 1.0213 79.3476 1.19955 79.1319C2.25408 77.8557 1.88415 68.3141 1.77487 66.0994C1.23133 65.6173 0.700021 65.1222 0.180939 64.6139L3.97795 64.646C5.69072 66.0508 7.17227 67.8356 8.64349 69.4869C10.5464 71.6226 12.4558 73.7513 14.222 76.0026C14.223 73.8918 14.4739 68.2937 14.1021 66.6445C13.9709 66.0609 13.3783 65.3285 13.0708 64.8085L13.193 64.5524C14.5475 64.476 15.8976 64.5568 17.2505 64.6258Z" fill="#15133B"/>
<path d="M43.139 64.5066C44.6348 64.5451 46.1254 64.6202 47.6204 64.5179L47.6584 64.713C47.1218 65.5252 46.1613 66.1196 45.5212 66.8944C44.3124 68.3571 43.2943 69.9964 42.1964 71.5441C43.572 73.3814 44.6221 75.4522 46.0332 77.267C46.5044 77.8731 48.1962 79.2986 48.3569 79.6112L48.0355 79.7905C46.6883 79.923 44.3891 80.1498 43.0988 79.8571C42.8817 79.8078 42.8019 79.8117 42.688 79.612C42.4785 79.2446 42.8314 78.7148 42.6492 78.2746C42.0401 76.8036 40.8189 75.3122 39.938 73.9813C39.504 74.632 36.6794 78.2394 36.7951 78.7463C36.8863 79.1459 37.3198 79.1312 37.2751 79.6461C36.465 80.1049 33.3254 79.7752 32.2414 79.7194C35.3089 78.3541 36.8548 74.9203 38.8796 72.4098C36.9648 69.6498 35.2903 66.9367 32.95 64.498C35.0219 64.5153 37.0937 64.5168 39.1656 64.5027C38.9321 64.945 38.6324 65.3449 38.3441 65.7525C39.1943 67.1222 40.1362 68.4423 41.0452 69.774C42.1521 68.4293 43.2343 67.0649 44.2917 65.681L43.139 64.5066Z" fill="#15133B"/>
<path d="M19.5242 64.5404C23.0928 64.2534 26.8449 64.4776 30.4329 64.4825C30.5073 65.6117 30.5282 66.6996 30.4412 67.8287L29.9842 67.124C29.8395 66.8982 29.7098 66.6693 29.5052 66.4906C28.2859 65.4249 25.717 65.8757 24.1812 65.9078C24.1821 67.6353 24.1978 69.3628 24.2285 71.0902L27.7816 71.0765C28.1616 70.6381 28.5721 70.2276 28.9764 69.8117C28.918 71.0631 28.817 72.315 28.7354 73.5653C28.4507 73.2034 28.1495 72.8528 27.8563 72.4976C26.6395 72.4782 25.4227 72.4736 24.2057 72.484C24.1871 73.9921 24.2086 75.5029 24.2127 77.0113L24.2649 78.3089C26.0756 78.3802 28.5732 78.7292 30.2177 77.8256C30.845 77.4807 31.3249 76.9712 31.9842 76.6651L32.1041 76.7984C32.001 77.7969 31.3986 78.8881 31.01 79.8116C29.5879 79.7091 28.1242 79.807 26.6966 79.8277C24.2472 79.8841 21.7977 79.8881 19.348 79.8395C19.898 79.2211 20.4529 78.6163 20.9182 77.9297C21.1295 76.499 20.9933 74.9901 21.007 73.5457C21.0313 70.9766 21.1881 68.3769 20.9009 65.8192C20.3767 65.4182 19.7303 65.2038 19.5242 64.5404Z" fill="#15133B"/>
</svg>
