<svg width="218" height="72" viewBox="0 0 218 72" fill="none" xmlns="http://www.w3.org/2000/svg">
<path d="M0.802787 0.160732C1.06388 0.159198 1.32488 0.160729 1.58578 0.16533C1.84687 0.169931 2.10777 0.177693 2.36848 0.188619C2.62938 0.199355 2.88999 0.21316 3.15032 0.23003C3.41084 0.247091 3.67107 0.267217 3.93101 0.290412C4.19114 0.313416 4.4509 0.339586 4.71026 0.368915C4.96963 0.398245 5.22861 0.430637 5.48722 0.466101C5.74582 0.501565 6.00394 0.540001 6.26158 0.581408C6.51941 0.623006 6.77667 0.667575 7.03336 0.715116C7.28985 0.762849 7.54586 0.81356 7.80139 0.867235C8.05674 0.92091 8.3115 0.977647 8.56569 1.03746C8.81988 1.09708 9.07321 1.15977 9.32568 1.22552C9.57834 1.29127 9.83023 1.35999 10.0814 1.43168C10.3323 1.50338 10.5824 1.57805 10.8316 1.65569C11.0808 1.73333 11.329 1.81384 11.5763 1.89723C11.8236 1.98081 12.0699 2.06726 12.3153 2.15659C12.5605 2.24592 12.8046 2.33813 13.0477 2.43321C13.2908 2.52829 13.5327 2.62625 13.7735 2.72709C14.0142 2.82792 14.2538 2.93163 14.492 3.03821C14.7305 3.1446 14.9675 3.25388 15.2031 3.36602C15.4389 3.47816 15.6733 3.59308 15.9062 3.71078C16.1393 3.82848 16.3709 3.94887 16.6009 4.07194C16.8311 4.19521 17.0598 4.32105 17.287 4.44949C17.5142 4.57812 17.7398 4.70944 17.9639 4.84344C18.188 4.97724 18.4104 5.11372 18.6313 5.2529C18.8521 5.39207 19.0712 5.53383 19.2886 5.67818C19.5062 5.82272 19.7219 5.96965 19.9359 6.11899C20.1498 6.26851 20.362 6.42053 20.5725 6.57504C20.7828 6.72954 20.9913 6.88655 21.1979 7.04604C21.4046 7.20553 21.6093 7.36743 21.8121 7.53171C22.0151 7.696 22.216 7.86267 22.4148 8.03175C22.6138 8.20083 22.8107 8.37221 23.0054 8.54588C23.2002 8.71956 23.393 8.89554 23.5837 9.07382C31.2621 16.2651 33.8186 25.0212 34.1902 35.2372C35.7403 35.2952 37.3003 35.2659 38.8516 35.2719C39.5089 25.4062 41.3719 17.5079 48.516 10.2059C54.8694 3.71222 63.1697 0.529652 72.199 0.433036C72.3836 7.92306 71.0387 14.8483 66.6525 21.0755C62.1702 27.4394 55.1055 32.2277 47.5919 34.2072C44.6468 34.9832 41.5097 35.3602 38.5042 35.8787C39.8571 35.9862 41.2069 36.0989 42.5469 36.3203C51.5658 37.8104 60.3037 42.8534 65.6636 50.3334C69.3491 55.4761 71.4557 61.2653 72.0814 67.5462C72.2119 68.856 72.4069 70.3486 72.1872 71.6547C71.8557 71.8824 71.6452 71.8318 71.2492 71.8416C71 71.8322 70.7509 71.8199 70.5019 71.8048C70.2531 71.7895 70.0044 71.7713 69.756 71.7504C69.5074 71.7296 69.2591 71.7058 69.0112 71.6791C68.7632 71.6525 68.5155 71.623 68.2682 71.5906C68.0211 71.5584 67.7743 71.5232 67.5278 71.485C67.2813 71.4469 67.0352 71.406 66.7896 71.3623C66.5443 71.3186 66.2994 71.272 66.055 71.2225C65.8104 71.1732 65.5665 71.1211 65.3234 71.0661C65.0802 71.0111 64.8376 70.9532 64.5957 70.8924C64.3537 70.8318 64.1126 70.7685 63.8722 70.7023C63.6318 70.636 63.3922 70.567 63.1533 70.4953C62.9145 70.4236 62.6765 70.3491 62.4394 70.2719C62.2022 70.1946 61.966 70.1147 61.7305 70.0321C61.4953 69.9494 61.2611 69.864 61.0278 69.7759C60.7945 69.6877 60.5622 69.5969 60.3311 69.5036C60.0999 69.41 59.8697 69.3139 59.6407 69.2151C59.4118 69.1164 59.1839 69.015 58.9572 68.9109C58.7306 68.807 58.5052 68.7004 58.2811 68.5912C58.0568 68.4819 57.8339 68.37 57.6123 68.2556C57.3907 68.1413 57.1704 68.0245 56.9515 67.9051C56.7326 67.7855 56.5151 67.6634 56.2991 67.539C56.083 67.4146 55.8684 67.2876 55.6553 67.158C55.4421 67.0286 55.2305 66.8968 55.0204 66.7624C54.8102 66.6282 54.6017 66.4915 54.3946 66.3523C54.1876 66.2132 53.9823 66.0716 53.7787 65.9276C53.575 65.7838 53.3729 65.6377 53.1726 65.4891C52.9724 65.3406 52.7739 65.1897 52.5771 65.0365C52.3802 64.8833 52.1851 64.728 51.9919 64.5704C51.7987 64.4128 51.6073 64.2529 51.4177 64.0908C51.2281 63.9288 51.0404 63.7646 50.8547 63.5982C50.6689 63.4318 50.4852 63.2633 50.3034 63.0927C50.1215 62.9221 49.9416 62.7494 49.7637 62.5745C42.68 55.707 39.0491 46.4866 38.8639 36.676C37.3426 36.6536 35.8213 36.6582 34.3 36.6898C34.2965 45.7496 31.0858 54.5649 24.8808 61.217C18.3943 68.1711 9.89991 71.4845 0.5 71.7988C0.553484 65.0575 2.29659 58.2041 5.87857 52.4647C6.02407 52.2333 6.17234 52.0037 6.3234 51.776C6.47427 51.5481 6.62782 51.322 6.78405 51.0977C6.94028 50.8734 7.0992 50.6509 7.26081 50.4303C7.42221 50.2098 7.58621 49.9912 7.7528 49.7744C7.91919 49.5578 8.08817 49.3431 8.25974 49.1303C8.43131 48.9175 8.60537 48.7067 8.78193 48.498C8.95848 48.2892 9.13743 48.0825 9.31878 47.878C9.50012 47.6735 9.68377 47.4711 9.86972 47.271C10.0559 47.0707 10.2443 46.8726 10.435 46.6769C10.6256 46.481 10.8185 46.2874 11.0139 46.0961C11.209 45.9048 11.4064 45.7157 11.6059 45.529C11.8057 45.3423 12.0075 45.158 12.2115 44.9761C12.4153 44.7942 12.6213 44.6145 12.8294 44.4372C13.0376 44.2601 13.2478 44.0855 13.46 43.9133C13.6722 43.741 13.8865 43.5711 14.1027 43.4038C14.3189 43.2366 14.537 43.0719 14.7569 42.9098C14.9769 42.7476 15.1989 42.588 15.4228 42.431C15.6465 42.2742 15.8721 42.1199 16.0994 41.9681C16.3268 41.8164 16.5559 41.6675 16.7867 41.5212C17.0177 41.3747 17.2502 41.2311 17.4843 41.0902C17.7185 40.9493 17.9544 40.8112 18.1919 40.6758C18.4292 40.5405 18.6682 40.4078 18.9088 40.2779C19.1493 40.1481 19.3914 40.0212 19.6348 39.8971C19.8785 39.7729 20.1235 39.6516 20.3698 39.5331C20.6161 39.4148 20.8638 39.2993 21.1128 39.1866C21.3618 39.0739 21.6122 38.9641 21.8639 38.8574C22.1154 38.7506 22.3682 38.6468 22.6224 38.546C22.8764 38.4451 23.1316 38.3473 23.3879 38.2524C23.6442 38.1575 23.9015 38.0656 24.1599 37.9766C24.4185 37.8879 24.6781 37.802 24.9386 37.719C25.1989 37.6362 25.4603 37.5564 25.7228 37.4797C25.985 37.4031 26.2482 37.3294 26.5124 37.2589C29.1474 36.5469 31.897 36.2289 34.5574 35.6044C34.4205 35.5988 34.2837 35.5912 34.147 35.5816C24.1631 34.7883 15.7061 31.5016 9.08788 23.7419C3.91175 17.6729 0.17651 8.22412 0.802787 0.160732Z" fill="#15133B"/>
<path d="M77.4513 16.3319C82.0566 16.2747 89.0728 15.7939 93.3423 17.0839C95.0768 17.6078 96.6566 18.6375 97.4948 20.2903C98.2832 21.8456 98.3744 23.9315 97.807 25.5645C97.0655 27.6992 95.4538 28.7361 93.5105 29.6301C95.5009 30.4571 97.332 31.3197 98.4287 33.3104C99.6016 35.4391 99.4426 37.8194 98.7815 40.0646C98.379 41.038 97.8344 41.9308 97.0772 42.6692C93.8947 45.773 88.6797 45.2508 84.6006 45.2111C82.2362 45.1849 79.8718 45.1808 77.5074 45.199C77.5683 35.5901 77.7038 25.9369 77.4513 16.3319ZM82.8946 40.7332C86.1272 40.8925 89.8866 41.4216 92.7301 39.5295C93.6661 38.2692 94.0393 37.1382 93.79 35.5602C93.6293 34.5417 93.1258 33.7139 92.2743 33.1264C89.844 31.4494 85.7016 31.9566 82.8739 32.0254C82.8307 34.9187 82.76 37.8427 82.8946 40.7332ZM82.8764 20.4913C82.8546 23.0529 82.8534 25.6146 82.873 28.1763C85.2524 28.2364 88.1046 28.5903 90.3981 27.8991C91.3645 27.5523 92.0489 26.968 92.5081 26.0338C92.5605 25.9247 92.6073 25.8133 92.6487 25.6996C92.6901 25.586 92.7259 25.4705 92.756 25.3534C92.7859 25.2363 92.81 25.1179 92.8282 24.9983C92.8466 24.8787 92.8589 24.7585 92.8653 24.6377C92.8716 24.5169 92.872 24.3961 92.8664 24.2751C92.8608 24.1543 92.8492 24.0341 92.8316 23.9142C92.8142 23.7946 92.7909 23.6762 92.7617 23.5588C92.7324 23.4413 92.6974 23.3256 92.6568 23.2118C92.2764 22.1522 91.4353 21.3703 90.4116 20.9344C88.7999 20.248 86.9102 20.3277 85.1941 20.3858L82.8764 20.4913Z" fill="#15133B"/>
<path d="M121.517 20.9475C121.716 20.9174 121.914 20.8922 122.114 20.8719C122.313 20.8516 122.513 20.8362 122.713 20.8256C122.913 20.8151 123.114 20.8094 123.314 20.8086C123.514 20.8081 123.715 20.8123 123.915 20.8213C124.115 20.8305 124.315 20.8446 124.515 20.8636C124.714 20.8825 124.913 20.9064 125.112 20.9352C125.31 20.9637 125.507 20.9973 125.704 21.0358C125.901 21.0741 126.097 21.1174 126.291 21.1655C126.486 21.2134 126.679 21.2661 126.871 21.3236C127.063 21.3813 127.254 21.4436 127.443 21.5103C127.632 21.5772 127.819 21.6487 128.004 21.7248C128.19 21.8009 128.373 21.8815 128.554 21.9666C128.736 22.0515 128.915 22.1409 129.092 22.2349C129.27 22.3288 129.444 22.427 129.617 22.5293C129.789 22.6319 129.958 22.7386 130.126 22.8494C130.293 22.9602 130.457 23.075 130.618 23.1938C130.78 23.3127 130.938 23.4354 131.094 23.5619C131.249 23.6886 131.401 23.819 131.55 23.953C131.699 24.0872 131.845 24.2249 131.987 24.3662C132.129 24.5073 132.268 24.6519 132.403 24.8001C132.538 24.9481 132.669 25.0993 132.797 25.2538C132.925 25.4083 133.048 25.5659 133.168 25.7266C133.288 25.8872 133.404 26.0506 133.516 26.2168C133.628 26.383 133.736 26.5519 133.84 26.7235C133.943 26.8951 134.043 27.0691 134.138 27.2457C134.233 27.422 134.324 27.6007 134.41 27.7817C134.496 27.9626 134.578 28.1455 134.655 28.3303C134.733 28.5153 134.805 28.702 134.874 28.8904C134.942 29.0791 135.005 29.2691 135.064 29.4606C135.123 29.6523 135.177 29.8453 135.226 30.0395C135.276 30.2339 135.32 30.4292 135.36 30.6255C135.4 30.822 135.435 31.0193 135.465 31.2176C135.495 31.4158 135.52 31.6146 135.54 31.8139C135.561 32.0133 135.576 32.213 135.587 32.4132C135.597 32.6135 135.603 32.8138 135.603 33.0141C135.604 33.2147 135.6 33.415 135.591 33.6151C135.582 33.8154 135.567 34.0154 135.548 34.2149C135.53 34.4145 135.506 34.6135 135.477 34.8119C135.448 35.0101 135.415 35.2077 135.376 35.4045C135.338 35.6012 135.295 35.7968 135.247 35.9914C135.198 36.186 135.146 36.3793 135.088 36.5714C135.031 36.7633 134.968 36.9537 134.902 37.1427C134.835 37.3318 134.763 37.519 134.687 37.7043C134.611 37.8897 134.53 38.0732 134.445 38.2547C134.36 38.4362 134.271 38.6156 134.177 38.7927C134.083 38.9696 133.985 39.1443 133.882 39.3166C133.78 39.489 133.673 39.6586 133.562 39.8256C133.452 39.9925 133.337 40.1567 133.218 40.3181C133.099 40.4795 132.976 40.638 132.85 40.7935C132.723 40.9487 132.593 41.1008 132.459 41.2498C132.324 41.3987 132.187 41.5443 132.046 41.6866C131.904 41.8288 131.76 41.9675 131.611 42.1026C131.463 42.2378 131.312 42.3692 131.158 42.4969C131.003 42.6246 130.846 42.7483 130.685 42.8681C130.524 42.9881 130.361 43.1041 130.195 43.216C130.028 43.328 129.859 43.4357 129.688 43.5392C129.516 43.643 129.342 43.7423 129.166 43.8374C128.989 43.9325 128.81 44.0232 128.63 44.1094C128.449 44.1957 128.266 44.2776 128.081 44.355C127.896 44.4323 127.709 44.5049 127.521 44.573C127.332 44.6412 127.142 44.7048 126.951 44.7636C126.759 44.8225 126.566 44.8765 126.372 44.9258C126.178 44.975 125.982 45.0196 125.786 45.0595C125.589 45.0992 125.392 45.1341 125.194 45.1642C124.995 45.1943 124.797 45.2195 124.597 45.2398C124.398 45.2601 124.198 45.2755 123.998 45.2861C123.798 45.2964 123.598 45.302 123.397 45.3028C123.197 45.3033 122.996 45.299 122.796 45.2898C122.596 45.2808 122.396 45.2668 122.197 45.2478C121.997 45.2289 121.798 45.205 121.6 45.1762C121.401 45.1475 121.204 45.1138 121.007 45.0753C120.811 45.037 120.615 44.9937 120.42 44.9456C120.226 44.8975 120.032 44.8447 119.84 44.7872C119.648 44.7297 119.458 44.6675 119.269 44.6006C119.08 44.5337 118.893 44.4622 118.707 44.3861C118.522 44.3099 118.339 44.2293 118.157 44.1442C117.976 44.0591 117.796 43.9697 117.619 43.8759C117.442 43.782 117.268 43.6838 117.095 43.5812C116.923 43.4789 116.753 43.3723 116.586 43.2615C116.42 43.1507 116.255 43.0358 116.094 42.917C115.933 42.7981 115.774 42.6754 115.619 42.5486C115.463 42.4221 115.311 42.2918 115.162 42.1576C115.013 42.0236 114.868 41.8859 114.725 41.7447C114.583 41.6034 114.445 41.4587 114.31 41.3108C114.175 41.1626 114.043 41.0112 113.915 40.8567C113.788 40.7024 113.664 40.5449 113.544 40.3843C113.424 40.2236 113.308 40.0602 113.196 39.894C113.084 39.7276 112.977 39.5586 112.873 39.3871C112.769 39.2155 112.67 39.0415 112.575 38.8652C112.48 38.6888 112.389 38.5101 112.303 38.3292C112.217 38.1482 112.135 37.9653 112.058 37.7805C111.98 37.5955 111.907 37.4088 111.839 37.2204C111.771 37.0319 111.708 36.8419 111.649 36.6502C111.59 36.4587 111.536 36.2658 111.487 36.0716C111.437 35.8773 111.393 35.6818 111.353 35.4853C111.313 35.289 111.278 35.0918 111.248 34.8936C111.218 34.6953 111.193 34.4966 111.173 34.2972C111.152 34.0978 111.137 33.8981 111.126 33.6979C111.116 33.4978 111.11 33.2976 111.11 33.0973C111.109 32.8967 111.113 32.6964 111.122 32.4963C111.131 32.296 111.146 32.0961 111.165 31.8967C111.183 31.6972 111.207 31.4982 111.236 31.2998C111.265 31.1014 111.298 30.9038 111.337 30.7072C111.375 30.5105 111.419 30.3149 111.466 30.1203C111.515 29.9257 111.567 29.7325 111.625 29.5406C111.682 29.3485 111.745 29.1581 111.811 28.9692C111.878 28.7802 111.95 28.593 112.026 28.4077C112.102 28.2221 112.182 28.0386 112.268 27.8573C112.353 27.6757 112.442 27.4964 112.536 27.3193C112.63 27.1423 112.728 26.9677 112.83 26.7954C112.933 26.6232 113.04 26.4536 113.15 26.2864C113.261 26.1194 113.376 25.9553 113.495 25.7938C113.613 25.6324 113.736 25.4741 113.863 25.3188C113.989 25.1634 114.12 25.0111 114.254 24.8622C114.388 24.7132 114.526 24.5677 114.667 24.4254C114.808 24.2834 114.953 24.1448 115.101 24.0096C115.249 23.8745 115.4 23.7431 115.554 23.6154C115.709 23.4877 115.867 23.3639 116.027 23.2439C116.188 23.1241 116.351 23.0082 116.517 22.8962C116.684 22.7843 116.853 22.6764 117.024 22.5727C117.196 22.4692 117.369 22.3699 117.546 22.2748C117.722 22.1798 117.901 22.0891 118.082 22.0028C118.263 21.9164 118.446 21.8345 118.631 21.7573C118.815 21.6798 119.002 21.6071 119.191 21.539C119.379 21.4708 119.569 21.4072 119.761 21.3484C119.952 21.2895 120.145 21.2355 120.34 21.1862C120.534 21.1367 120.729 21.0922 120.926 21.0525C121.122 21.0126 121.319 20.9776 121.517 20.9475ZM124.562 39.8759C126.392 39.2953 127.9 38.4701 128.843 36.7088C129.84 34.845 129.937 32.5285 129.288 30.5329C128.765 28.9261 127.762 27.5295 126.239 26.7439C124.983 26.0952 123.682 25.9925 122.302 26.0992C120.445 26.5607 118.99 27.3345 117.97 29.0322C116.896 30.8199 116.63 33.1812 117.184 35.1894C117.649 36.8742 118.738 38.3375 120.273 39.1904C121.67 39.9659 123.024 39.9886 124.562 39.8759Z" fill="#15133B"/>
<path d="M159.945 16.5603C161.66 16.5384 163.375 16.5399 165.09 16.5646C165.056 21.295 165.06 26.0253 165.104 30.7556C167.427 27.4126 170.275 24.3307 172.887 21.2048C175.105 21.2358 177.324 21.2522 179.542 21.2539C175.998 25.0168 172.56 28.7828 169.197 32.7127C171.299 34.8868 173.236 37.22 175.194 39.5232C176.767 41.2712 178.187 43.1253 179.567 45.0266L173.288 45.0295C170.786 41.522 167.641 38.4837 165.109 34.9754C165.065 38.3188 165.058 41.6622 165.087 45.0056C163.368 44.9722 161.649 44.9564 159.929 44.9582L159.945 16.5603Z" fill="#15133B"/>
<path d="M148.486 20.8152C149.051 20.732 149.625 20.7559 150.194 20.7838C151.646 20.8557 154.038 20.8261 155.03 22.0105C156.12 23.3099 155.541 26.1796 155.431 27.758C154.431 27.0621 153.399 26.4508 152.229 26.0882C152.103 26.0487 151.976 26.0124 151.848 25.9792C151.72 25.946 151.592 25.9161 151.463 25.8895C151.334 25.8628 151.204 25.8395 151.073 25.8193C150.943 25.7994 150.812 25.7827 150.681 25.7693C150.549 25.7559 150.418 25.7458 150.286 25.7391C150.154 25.7322 150.023 25.7288 149.89 25.7288C149.759 25.7288 149.627 25.7321 149.495 25.7388C149.363 25.7453 149.232 25.7553 149.1 25.7687C148.969 25.782 148.838 25.7985 148.708 25.8185C148.577 25.8384 148.448 25.8617 148.318 25.8883C148.189 25.9148 148.061 25.9445 147.933 25.9775C147.805 26.0106 147.678 26.047 147.552 26.0865C147.426 26.126 147.302 26.1686 147.178 26.2144C147.054 26.2602 146.932 26.3091 146.81 26.3611C146.689 26.4132 146.569 26.4683 146.451 26.5264C146.332 26.5845 146.215 26.6456 146.1 26.7096C144.573 27.5607 143.518 28.9214 143.061 30.6081C142.508 32.6497 142.744 34.9389 143.845 36.7588C144.816 38.3633 146.371 39.4246 148.187 39.8516C151.004 40.5144 153.25 39.634 155.577 38.1614L155.571 39.6794C155.507 41.0355 155.503 42.3981 155.476 43.7559C154.134 44.5677 152.788 45.066 151.222 45.2469C147.986 45.6207 144.131 44.7997 141.565 42.7268C139.078 40.7183 137.783 37.7134 137.467 34.5852C137.118 31.1312 137.793 27.4756 140.052 24.7537C142.267 22.085 145.13 21.1271 148.486 20.8152Z" fill="#15133B"/>
<path d="M187.098 20.9489C187.24 20.9371 187.384 20.9282 187.527 20.9268C189.16 20.9104 191.957 20.9167 193.129 22.2262C194.262 23.4914 193.873 25.7556 193.799 27.3224C192.074 26.3827 190.322 25.3763 188.305 25.3372C187.508 25.3217 186.804 25.4298 186.229 26.027C185.909 26.3586 185.656 26.7686 185.704 27.2485C185.89 29.096 192.415 31.5548 194.018 33.1001C195.273 34.311 195.943 35.8419 195.914 37.5913C195.884 39.4851 195.087 41.5281 193.686 42.8295C191.7 44.6736 189.157 44.9614 186.58 44.9108C184.458 44.5726 182.59 43.9921 180.63 43.1105C180.609 41.3367 180.612 39.563 180.637 37.7894C181.37 38.2418 182.123 38.6603 182.894 39.0448C184.591 39.8917 186.891 40.775 188.769 40.0797C189.786 39.7033 190.194 39.121 190.66 38.1782C190.642 38.1396 190.624 38.1011 190.607 38.062C189.238 34.9533 185.345 34.3705 182.808 32.4459C181.466 31.4277 180.312 30.0527 180.131 28.3193C179.965 26.7189 180.564 24.8371 181.577 23.5883C182.979 21.8584 184.97 21.1977 187.098 20.9489Z" fill="#15133B"/>
<path d="M206.399 33.2538C207.639 30.69 210.204 23.3952 212.044 21.693C213.107 20.7096 216.076 21.1452 217.5 21.1843C215.874 25.0406 213.83 28.8155 212.02 32.5953C210.209 36.2069 207.923 42.4291 205.42 45.3612C203.462 46.1166 201.139 45.7931 199.088 45.6606C200.748 43.5776 202.124 41.36 203.477 39.0732C200.844 32.9918 197.958 27.1 195.002 21.1734L201.073 21.1751C201.588 22.8434 202.425 24.4566 203.15 26.0433C204.252 28.4383 205.335 30.8418 206.399 33.2538Z" fill="#15133B"/>
<path d="M102.853 16.362C104.612 16.3287 106.372 16.3365 108.131 16.3856C108.288 22.3094 108.137 28.2659 108.154 34.1951C108.163 37.4355 108.447 42.0972 108.126 45.1809C106.402 45.2018 104.678 45.2004 102.954 45.1768C102.784 42.1794 102.909 39.1067 102.894 36.0998L102.853 16.362Z" fill="#15133B"/>
</svg>
