<svg width="270" height="36" viewBox="0 0 270 36" fill="none" xmlns="http://www.w3.org/2000/svg">
<path d="M189.593 2.66797C192.909 2.7777 196.251 2.70571 199.571 2.72123C201.86 5.73026 204.174 8.68335 206.246 11.85C208.335 8.79148 210.411 5.52043 212.81 2.70249L222.377 2.70624C222.204 12.4436 222.425 22.199 222.366 31.9393C219.019 32.1366 215.399 32.1256 212.055 31.8954L212.022 28.661C212.052 25.2412 212.054 21.8213 212.028 18.4012C209.9 21.5259 207.919 24.7412 205.874 27.92C205.184 26.9102 204.621 25.777 204.012 24.715C202.77 22.5493 201.524 20.4457 200.017 18.4507C199.833 22.9545 200.122 27.4735 199.913 31.9848L189.561 31.9894C189.497 26.6051 189.602 21.213 189.585 15.8274C189.571 11.4539 189.402 7.03686 189.593 2.66797Z" fill="#15133B"/>
<path d="M100.176 2.68775C103.22 2.59274 106.292 2.67464 109.338 2.69043C112.247 6.46437 115.306 10.1326 118.084 14.0058L118.122 2.68856L128.533 2.69846L128.505 19.5614C128.517 23.637 128.641 27.7414 128.491 31.814C127.833 31.8844 127.162 31.8847 126.501 31.9088C124.276 31.6714 121.857 31.8499 119.617 31.8801C116.703 28.1935 112.839 23.3308 110.482 19.3505C110.209 23.3179 110.479 27.8281 110.471 31.8617C107.065 32.0868 103.593 31.9463 100.179 31.9492C100.111 22.1955 100.11 12.4417 100.176 2.68775Z" fill="#15133B"/>
<path d="M76.7545 2.64453C81.1052 2.84606 85.4864 2.95392 89.8363 2.68147L100 31.8926C96.3956 31.9834 92.7917 31.97 89.188 31.8524L88.4127 29.2205C88.3536 29.1003 88.2428 29.0032 88.1531 28.9039C86.3409 28.295 80.2613 28.6976 78.0011 28.7605C77.6682 29.7946 77.4313 30.8558 77.1798 31.9119C73.5396 31.9175 69.8093 31.8053 66.1786 32.0133C67.7346 27.2116 69.6389 22.4844 71.3999 17.7534C73.2225 12.7304 75.0074 7.69411 76.7545 2.64453ZM80.3882 21.6643C81.4724 21.6384 82.5515 21.6156 83.6354 21.6528C84.4833 21.6199 85.3357 21.6547 86.1814 21.6055C85.3868 19.9571 84.2004 14.0876 83.2398 13.2132C82.2496 16.0175 81.4601 18.8876 80.3882 21.6643Z" fill="#15133B"/>
<path d="M159.173 2.68869C162.562 2.67584 165.951 2.68056 169.34 2.70286C169.577 6.56753 169.408 10.9709 169.323 14.8795C169.282 16.7527 169.045 18.7468 169.313 20.6064C169.411 21.2864 169.618 21.8605 170.08 22.3805C170.829 23.2225 171.977 23.6922 173.096 23.7016C174.125 23.7099 175.577 23.404 176.305 22.6471C176.905 22.0248 177.052 20.9637 177.15 20.1353C177.392 18.0748 177.259 15.9051 177.255 13.8285C177.237 10.1169 177.238 6.40543 177.26 2.69403C180.641 2.67423 184.061 2.90359 187.436 2.75372C187.435 5.56835 187.42 8.38291 187.39 11.1974C187.399 15.0639 187.626 19.0736 187.336 22.9268C187.148 25.4209 186.331 27.6928 184.371 29.3385C180.736 32.3915 175.066 32.4685 170.57 32.0789C167.058 31.7745 163.366 30.8871 161.02 28.0384C160.094 26.9137 159.598 25.7182 159.324 24.2923C158.646 20.7512 159.037 16.2701 159.046 12.6239C159.055 9.35389 158.868 5.93993 159.173 2.68869Z" fill="#15133B"/>
<path d="M38.9232 2.63086L48.9034 2.66351C48.9363 6.82365 48.8217 10.9897 48.7891 15.1503C48.7738 17.0695 48.5876 19.1667 48.8972 21.0603C48.9957 21.6635 49.1437 22.1611 49.5454 22.6318C50.2381 23.4436 51.3841 23.8156 52.4182 23.8929C53.9408 24.0064 55.3456 23.397 56.4611 22.3987C57.3834 19.7756 56.9442 6.25491 56.9413 2.6983L67.1211 2.70821L67.1162 10.6955C67.1176 14.4465 67.4131 20.1704 66.9016 23.6767C66.5601 26.0166 65.3507 28.0223 63.4475 29.4223C59.3056 32.4683 52.8601 32.5485 47.9929 31.8013C45.0433 31.3485 41.8884 30.2041 40.0912 27.6773C39.2776 26.5332 38.9216 25.2656 38.7295 23.8959C38.3178 20.9599 38.6248 17.9803 38.5898 15.0296C38.5566 12.231 38.5162 9.4446 38.5386 6.6454C38.5488 5.38697 38.4629 4.02631 38.6502 2.78501L38.9232 2.63086Z" fill="#15133B"/>
<path d="M237.368 2.6877C241.519 2.6695 245.67 2.77174 249.821 2.79664C251.125 4.78249 252.256 6.92384 253.449 8.98036C254.682 6.97068 255.815 4.51994 257.354 2.74685C261.39 2.66415 265.45 2.74284 269.49 2.70269C268.602 4.3524 267.285 5.93788 266.196 7.48267C263.945 10.6964 261.669 13.8919 259.367 17.0691C261.675 20.026 263.806 23.0987 266 26.1398C267.205 27.8112 269.097 29.9488 269.852 31.799L269.718 31.9481L269.084 31.9805C265.223 31.9828 261.363 31.9575 257.502 31.9047C255.954 30.0251 254.777 27.6988 253.501 25.6206C252.023 27.599 250.784 29.7808 249.492 31.8838C245.226 32.114 240.881 32.0238 236.608 31.9757C238.566 29.6346 240.286 27.0487 242.068 24.572C243.904 22.0207 245.818 19.514 247.586 16.9155C244.15 12.2139 240.663 7.48642 237.368 2.6877Z" fill="#15133B"/>
<path d="M130.294 2.70019L148.135 2.69296C151.096 2.69912 154.126 2.89958 157.078 2.68359C157.1 4.07209 157.55 10.1983 156.942 10.9891C156.715 11.2843 156.342 11.3761 155.993 11.4208C155.06 11.5407 153.995 11.3871 153.05 11.3665C151.746 11.3381 150.436 11.3657 149.132 11.3786L149.144 24.1443L149.159 31.9632C145.742 31.8206 142.273 32.1848 138.863 31.9073C138.6 31.6405 138.605 31.3782 138.577 31.0163C138.42 28.9513 138.57 26.7746 138.571 24.695L138.585 11.4765C135.82 11.3902 133.056 11.3717 130.291 11.4211C130.237 8.51859 130.29 5.60377 130.294 2.70019Z" fill="#15133B"/>
<path d="M6.71887 4.44336C8.38376 5.80375 11.8491 10.9295 13.0121 12.9724C12.1275 13.8069 11.396 14.6751 10.9335 15.8123C10.8932 15.9102 10.8553 16.0092 10.82 16.1091C10.7847 16.209 10.7518 16.3097 10.7215 16.4112C10.6912 16.5128 10.6635 16.615 10.6383 16.7179C10.6131 16.8209 10.5906 16.9244 10.5706 17.0284C10.5506 17.1324 10.5332 17.2369 10.5184 17.3418C10.5037 17.4467 10.4915 17.552 10.482 17.6576C10.4726 17.7631 10.4657 17.8688 10.4615 17.9748C10.4573 18.0806 10.4558 18.1865 10.4569 18.2925C10.458 18.3984 10.4618 18.5042 10.4682 18.6099C10.4746 18.7157 10.4836 18.8212 10.4953 18.9265C10.5071 19.0318 10.5214 19.1368 10.5383 19.2415C10.5553 19.3461 10.5748 19.4502 10.597 19.5538C10.6192 19.6573 10.6439 19.7603 10.6713 19.8627C10.6986 19.9651 10.7285 20.0667 10.7609 20.1675C10.7933 20.2685 10.8282 20.3685 10.8656 20.4675C10.9031 20.5667 10.943 20.6649 10.9853 20.7619C11.0301 20.8647 11.0776 20.9662 11.1276 21.0665C11.1776 21.1668 11.2302 21.2657 11.2854 21.3633C11.3405 21.4609 11.3981 21.557 11.4582 21.6516C11.5183 21.7461 11.5808 21.8392 11.6457 21.9307C11.7105 22.022 11.7777 22.1117 11.8472 22.1997C11.9167 22.2876 11.9884 22.3737 12.0624 22.4579C12.1363 22.5422 12.2123 22.6244 12.2905 22.7047C12.3687 22.785 12.4489 22.8632 12.5311 22.9394C12.6133 23.0158 12.6974 23.0898 12.7834 23.1616C12.8694 23.2335 12.9572 23.3031 13.0468 23.3706C13.1364 23.4378 13.2277 23.5028 13.3206 23.5654C13.4136 23.628 13.5081 23.6883 13.6041 23.7461C13.7001 23.8039 13.7976 23.8592 13.8965 23.912C13.9954 23.9646 14.0956 24.0148 14.1971 24.0624C14.2985 24.1101 14.4012 24.155 14.505 24.1973C14.6088 24.2396 14.7136 24.2792 14.8194 24.3161C18.0261 25.448 20.5703 24.0608 23.4186 22.7633C25.9244 25.5949 28.1902 28.6864 30.4197 31.739C29.3976 32.5591 28.1747 33.1813 27.0217 33.7963C23.3577 35.2558 19.7028 35.8472 15.7725 35.297C10.8485 34.6075 6.42999 32.1006 3.42934 28.1109C0.660313 24.4291 -0.308643 19.7527 0.344016 15.2251C0.380905 14.9598 0.424336 14.6954 0.474309 14.4321C0.52428 14.1689 0.580731 13.9071 0.643661 13.6466C0.706591 13.3861 0.775924 13.1273 0.851659 12.8704C0.927395 12.6135 1.00944 12.3585 1.0978 12.1055C1.18615 11.8525 1.28071 11.6019 1.38147 11.3537C1.48222 11.1054 1.58906 10.8597 1.70199 10.6167C1.8149 10.3736 1.93374 10.1337 2.05853 9.89671C2.18334 9.65959 2.31393 9.42567 2.4503 9.19497C2.58667 8.96427 2.72866 8.73713 2.87627 8.51357C3.02388 8.29 3.17693 8.07018 3.33542 7.85411C3.49392 7.63804 3.65766 7.42608 3.82664 7.21821C3.99561 7.01017 4.16963 6.80649 4.34869 6.60719C4.52776 6.40789 4.71164 6.21315 4.90034 6.02295C5.08904 5.83275 5.28233 5.64727 5.4802 5.46653C5.67807 5.28597 5.8803 5.11031 6.08688 4.93956C6.29346 4.76898 6.50412 4.60358 6.71887 4.44336Z" fill="#15133B"/>
<path d="M16.7379 0.607472C16.8076 0.597837 16.8769 0.584994 16.947 0.578036C21.2634 0.145536 26.7413 1.5335 30.2061 4.17827C33.736 6.87283 36.1439 10.7297 36.7225 15.1543C37.4762 20.9173 35.7317 25.2988 32.2873 29.8108C31.5406 29.0561 30.8848 28.2088 30.2133 27.3871C28.6032 25.4486 27.0975 23.4176 25.4462 21.5152C26.1993 19.7483 26.5475 17.7544 26.0752 15.8643C25.6753 14.2639 24.7216 13.0022 23.3041 12.1635C20.6647 10.601 17.9608 11.0659 15.1618 11.7933C13.02 8.80865 10.9188 5.83627 8.57422 3.00335C11.2816 1.61378 13.722 0.938002 16.7379 0.607472Z" fill="#15133B"/>
<path d="M224.588 2.70097C228.079 2.68241 231.571 2.68303 235.062 2.70284C234.96 8.98318 234.981 15.3034 235.008 21.5856C235.022 25.0405 235.134 28.5051 235.009 31.9592C231.569 31.8016 228.067 32.0162 224.614 31.9362C224.498 28.622 224.623 25.2715 224.626 21.9528L224.588 2.70097Z" fill="#15133B"/>
</svg>
