<svg width="32" height="32" viewBox="0 0 33 32" fill="none" xmlns="http://www.w3.org/2000/svg">
<g clip-path="url(#clip0_119_11375)">
<path fill-rule="evenodd" clip-rule="evenodd" d="M14.2675 24.0217V26.0846C14.2647 26.5263 14.0879 26.9496 13.7755 27.262C13.4606 27.5772 13.0332 27.754 12.5877 27.754H2.16868C1.7229 27.754 1.29581 27.5772 0.980565 27.262C0.665634 26.9471 0.488525 26.5196 0.488525 26.0742V24.0217H14.2675ZM15.5032 22.6641H20.2515C20.5623 22.6641 20.8605 22.5409 21.0804 22.321C21.3002 22.1011 21.4238 21.8027 21.4238 21.4918V17.5191L20.7442 18.1987C20.5018 18.4411 20.1083 18.4411 19.866 18.1987C19.6236 17.9563 19.6236 17.5628 19.866 17.3204L21.6057 15.5807C21.8484 15.338 22.2416 15.338 22.4839 15.5807L24.224 17.3204C24.4663 17.5628 24.4663 17.9563 24.224 18.1987C23.9816 18.4411 23.5881 18.4411 23.3457 18.1987L22.6658 17.5191V21.4918C22.6658 22.1322 22.4114 22.7462 21.9586 23.1989C21.5059 23.652 20.8919 23.9061 20.2515 23.9061H15.5032V22.6641ZM14.2675 22.7861H0.488525V21.7013H14.2675V22.7861ZM0.488525 20.4656V20.0088C0.488525 19.5633 0.665634 19.1359 0.980565 18.821C1.29581 18.5057 1.7229 18.3289 2.16868 18.3289H12.5877C13.0332 18.3289 13.4606 18.5057 13.7755 18.821C14.0904 19.1359 14.2675 19.5633 14.2675 20.0088V20.4656H0.488525ZM11.3159 8.49351V9.73549H9.17161C8.86049 9.73549 8.56235 9.85906 8.34247 10.0789C8.12258 10.2988 7.99902 10.597 7.99902 10.9078V15.3906L8.67894 14.7107C8.92132 14.4683 9.31482 14.4683 9.5572 14.7107C9.79957 14.9531 9.79957 15.3466 9.5572 15.589L7.81716 17.3287C7.57478 17.5714 7.18159 17.5714 6.9389 17.3287L5.19918 15.589C4.9568 15.3466 4.9568 14.9531 5.19918 14.7107C5.44156 14.4683 5.83506 14.4683 6.07712 14.7107L6.75704 15.3906V10.9078C6.75704 10.2675 7.01146 9.65343 7.46421 9.20068C7.91696 8.74793 8.5313 8.49351 9.17161 8.49351H11.3159ZM12.5516 13.1909V5.4871C12.5516 4.80116 13.1076 4.24512 13.7936 4.24512H30.2961C30.982 4.24512 31.538 4.80116 31.538 5.4871V13.1909C31.538 13.8768 30.982 14.4328 30.2961 14.4328H13.7936C13.1076 14.4328 12.5516 13.8768 12.5516 13.1909ZM21.4238 6.82349V6.67173C21.4238 6.32892 21.702 6.05074 22.0448 6.05074C22.3876 6.05074 22.6658 6.32892 22.6658 6.67173V6.82349H23.8815C24.2243 6.82349 24.5025 7.10167 24.5025 7.44448C24.5025 7.78698 24.2243 8.06547 23.8815 8.06547H22.6658V8.75585H23.1936C24.05 8.75585 24.7439 9.44971 24.7439 10.3058V10.3799C24.7439 11.236 24.05 11.9302 23.1936 11.9302H22.6658V12.0065C22.6658 12.3494 22.3876 12.6275 22.0448 12.6275C21.702 12.6275 21.4238 12.3494 21.4238 12.0065V11.9302H20.2081C19.8656 11.9302 19.5871 11.652 19.5871 11.3092C19.5871 10.9664 19.8656 10.6882 20.2081 10.6882H21.4238V9.99783H20.896C20.0399 9.99783 19.3457 9.30365 19.3457 8.44757V8.37343C19.3457 7.51735 20.0399 6.82349 20.896 6.82349H21.4238ZM22.6658 9.99783V10.6882H23.1936C23.3641 10.6882 23.5019 10.5504 23.5019 10.3799V10.3058C23.5019 10.1357 23.3641 9.99783 23.1936 9.99783H22.6658ZM21.4238 8.06547H20.896C20.7258 8.06547 20.5877 8.2033 20.5877 8.37343V8.44757C20.5877 8.61771 20.7258 8.75585 20.896 8.75585H21.4238V8.06547Z" fill="#AFADFD"/>
</g>
<defs>
<clipPath id="clip0_119_11375">
<rect width="32" height="32" fill="white" transform="translate(0.0131836)"/>
</clipPath>
</defs>
</svg>
