<svg width="32" height="32" viewBox="0 0 33 32" fill="none" xmlns="http://www.w3.org/2000/svg">
<g clip-path="url(#clip0_119_11373)">
<path d="M31.3172 0.695312H0.708517C0.324517 0.695312 0.0131836 1.00731 0.0131836 1.39131V9.04398C0.0131836 9.42798 0.324517 9.73931 0.708517 9.73931H4.88252V30.6086C4.88252 30.9926 5.19385 31.304 5.57785 31.304H26.4479C26.8319 31.304 27.1432 30.9926 27.1432 30.6086V9.73931H31.3172C31.7019 9.73931 32.0132 9.42798 32.0132 9.04398V1.39131C32.0132 1.00731 31.7019 0.695312 31.3172 0.695312ZM27.8392 5.56531H24.8625C24.9832 5.77131 25.0565 6.00665 25.0565 6.26065V25.0433C25.0565 25.708 24.5825 26.282 23.9305 26.4086C23.1912 26.552 22.9578 26.83 22.9632 27.5866C22.9772 27.6646 22.9832 27.744 22.9832 27.8253C22.9832 28.5926 22.3585 29.2166 21.5919 29.2166H10.4479C10.0719 29.2166 9.70718 29.0613 9.44652 28.7906C9.18652 28.522 9.04452 28.1526 9.05785 27.778C9.10052 26.5253 8.58385 26.4673 8.20652 26.4253C7.50185 26.346 6.97052 25.752 6.97052 25.0426V6.26065C6.97052 6.00665 7.04452 5.77065 7.16452 5.56531H4.18718C3.80318 5.56531 3.49185 5.25398 3.49185 4.86998C3.49185 4.48598 3.80318 4.17465 4.18718 4.17465H27.8399C28.2239 4.17465 28.5352 4.48598 28.5352 4.86998C28.5352 5.25398 28.2232 5.56531 27.8392 5.56531ZM23.6659 5.56531H8.36118C7.97652 5.56531 7.66518 5.87665 7.66518 6.26065V25.0433C7.66518 25.3973 7.93118 25.6953 8.28318 25.7346C8.94118 25.8086 9.80985 26.1033 9.75252 27.8026C9.74585 27.9906 9.81652 28.174 9.94785 28.3093C10.0785 28.4453 10.2592 28.5213 10.4479 28.5213H21.5785C21.5825 28.5213 21.5892 28.5206 21.5925 28.5213C21.9772 28.5213 22.2885 28.21 22.2885 27.826C22.2885 27.7693 22.2819 27.714 22.2692 27.6613C22.2445 26.5186 22.7072 25.9373 23.7985 25.726C24.1252 25.6626 24.3619 25.376 24.3619 25.0433V6.26065C24.3605 5.87665 24.0499 5.56531 23.6659 5.56531ZM16.0132 14.5253C17.7205 14.5253 19.1099 15.8953 19.1099 17.5793C19.1099 19.0266 18.0812 20.236 16.7085 20.5493V22.2606C16.7085 22.6453 16.3972 22.956 16.0132 22.956C15.6292 22.956 15.3179 22.6446 15.3179 22.2606V20.5493C13.9445 20.236 12.9152 19.0266 12.9152 17.5793C12.9152 17.1953 13.2265 16.884 13.6105 16.884C13.9952 16.884 14.3065 17.1953 14.3065 17.5793C14.3065 18.4966 15.0719 19.2426 16.0132 19.2426C16.9539 19.2426 17.7185 18.4966 17.7185 17.5793C17.7185 16.6626 16.9539 15.9166 16.0132 15.9166C14.3045 15.9166 12.9152 14.5466 12.9152 12.862C12.9152 11.4146 13.9445 10.2053 15.3179 9.89198V8.34798C15.3179 7.96331 15.6292 7.65198 16.0132 7.65198C16.3972 7.65198 16.7085 7.96331 16.7085 8.34798V9.89198C18.0812 10.2053 19.1099 11.4146 19.1099 12.862C19.1099 13.2466 18.7985 13.5573 18.4145 13.5573C18.0299 13.5573 17.7185 13.246 17.7185 12.862C17.7185 11.9453 16.9539 11.1993 16.0132 11.1993C15.0725 11.1993 14.3065 11.9453 14.3065 12.862C14.3065 13.7793 15.0719 14.5253 16.0132 14.5253Z" fill="#AFADFD"/>
</g>
<defs>
<clipPath id="clip0_119_11373">
<rect width="32" height="32" fill="white" transform="translate(0.0131836)"/>
</clipPath>
</defs>
</svg>
