<svg width="60" height="63" viewBox="0 0 60 63" fill="none" xmlns="http://www.w3.org/2000/svg">
<g filter="url(#filter0_bdi_145_6695)">
<rect x="1" y="0.959961" width="57.9336" height="60.0793" rx="28.9668" fill="url(#paint0_radial_145_6695)" fill-opacity="0.19" shape-rendering="crispEdges"/>
<rect x="1.10728" y="1.06725" width="57.719" height="59.8647" rx="28.8595" stroke="url(#paint1_linear_145_6695)" stroke-width="0.214569" shape-rendering="crispEdges"/>
<path d="M32.9089 33.4238H27.1522L26.584 37.7105H33.4509L32.9089 33.4238Z" fill="url(#paint2_linear_145_6695)"/>
<path d="M35.6911 17.0679L36.0241 19.9273L36.1875 21.3394H31.3819L31.2039 19.9273L30.9374 17.8244C30.9109 17.6154 30.8091 17.4232 30.651 17.2838C30.4929 17.1445 30.2895 17.0676 30.0787 17.0675C29.8689 17.0675 29.6663 17.1438 29.5085 17.282C29.3507 17.4203 29.2485 17.6112 29.2209 17.8192L28.9414 19.9269L28.755 21.339H23.9473L24.121 19.9269L24.4731 17.0675L24.4815 17.0029C24.6583 15.674 25.3117 14.4545 26.3202 13.5713C27.3287 12.688 28.6237 12.2012 29.9643 12.2012H30.2002C31.552 12.2011 32.857 12.6962 33.8687 13.5928C34.8804 14.4894 35.5287 15.7255 35.6911 17.0675V17.0679Z" fill="url(#paint3_linear_145_6695)"/>
<path d="M26.5863 25.6221H23.4215L22.4633 33.4214L21.9368 37.7081L20.9785 45.5076H25.5511L26.5851 37.7081L27.1533 33.4214L28.1873 25.6221H26.5863Z" fill="url(#paint4_linear_145_6695)"/>
<path d="M38.1 37.7081L37.5997 33.4214L36.6895 25.6221H31.9238L32.9101 33.4214L33.4521 37.7081L34.4384 45.5076H39.0104L38.1 37.7081Z" fill="url(#paint5_linear_145_6695)"/>
<path style="mix-blend-mode:multiply" d="M27.4288 31.3504L28.1882 25.6221H23.4223L22.7188 31.3504H27.4288Z" fill="url(#paint6_linear_145_6695)"/>
<path style="mix-blend-mode:multiply" d="M37.358 31.3504L36.6895 25.6221H31.9238L32.6482 31.3504H37.358Z" fill="url(#paint7_linear_145_6695)"/>
<path d="M45.5248 31.5262H46.8626V28.2019C46.8626 27.4274 46.811 26.4902 46.302 25.4951C45.7875 24.486 45.0373 23.6158 44.115 22.9583C44.1082 22.9541 44.1019 22.9491 44.0961 22.9435C42.5983 21.8856 40.7016 21.3577 38.8475 21.3577L38.7448 21.3369H20.037L19.9532 21.3577C18.4382 21.3435 16.9464 21.7307 15.6295 22.4798C14.3126 23.2289 13.2175 24.3134 12.4555 25.6229C11.7798 26.8145 11.4328 28.1643 11.4501 29.5341C11.4339 30.6178 11.6476 31.6926 12.0769 32.6878C12.5062 33.683 13.1415 34.5759 13.9409 35.3078C14.7325 36.0886 15.6721 36.7034 16.7045 37.116C17.737 37.5286 18.8415 37.7308 19.9532 37.7106H21.937L22.4651 33.4226H19.9532C18.9134 33.4414 17.9073 33.0544 17.1481 32.3437C17.1293 32.327 17.1105 32.3085 17.0915 32.2909C16.7203 31.9316 16.4253 31.5014 16.2237 31.0259C16.0222 30.5503 15.9184 30.0391 15.9184 29.5225C15.9184 29.006 16.0222 28.4948 16.2237 28.0192C16.4253 27.5437 16.7203 27.1135 17.0915 26.7542C17.4706 26.3867 17.9185 26.0975 18.4096 25.9034C18.9006 25.7092 19.4252 25.6139 19.9532 25.6229H38.8258C40.0452 25.6229 41.8069 26.1158 41.8069 27.6296V27.8081C41.8069 28.2964 41.903 28.7798 42.0898 29.2309C42.2767 29.682 42.5505 30.0919 42.8958 30.4372C43.241 30.7824 43.6509 31.0563 44.102 31.2432C44.5531 31.43 45.0365 31.5262 45.5248 31.5262Z" fill="url(#paint8_linear_145_6695)" style="mix-blend-mode:multiply"/>
<path d="M46.2064 25.5438L46.2064 25.5439C46.7038 26.5161 46.7553 27.4326 46.7553 28.2019V31.4189H45.5248C45.0506 31.4189 44.5811 31.3255 44.143 31.1441C43.705 30.9626 43.3069 30.6966 42.9716 30.3613C42.6363 30.026 42.3704 29.628 42.189 29.1899C42.0075 28.7518 41.9141 28.2823 41.9142 27.8081V27.6296C41.9142 26.8211 41.4399 26.2884 40.8236 25.9636C40.2108 25.6407 39.4469 25.5156 38.8258 25.5156H19.9541C19.4123 25.5065 18.874 25.6044 18.3701 25.8036C17.8659 26.0029 17.406 26.2998 17.0168 26.6772C16.6354 27.0464 16.3321 27.4886 16.1249 27.9774C15.9178 28.4662 15.8111 28.9917 15.8111 29.5225C15.8111 30.0534 15.9178 30.5789 16.1249 31.0677C16.3321 31.5565 16.6354 31.9987 17.0168 32.368L17.0168 32.368L17.0186 32.3696C17.0238 32.3745 17.03 32.3803 17.0367 32.3866C17.0492 32.3984 17.0633 32.4117 17.0758 32.4229C17.8549 33.1519 18.8873 33.5489 19.9541 33.5299H22.3438L21.8421 37.6034L19.9532 37.6033L19.9512 37.6034C18.8538 37.6233 17.7635 37.4237 16.7444 37.0164C15.7252 36.609 14.7976 36.0022 14.0162 35.2315L14.0163 35.2314L14.0133 35.2287C13.2251 34.507 12.5987 33.6266 12.1754 32.6453C11.7521 31.6641 11.5414 30.6042 11.5573 29.5357H11.5574L11.5573 29.5327C11.5403 28.1821 11.8824 26.8513 12.5486 25.6763C13.301 24.3834 14.3823 23.3127 15.6826 22.573C16.983 21.8333 18.4561 21.451 19.9522 21.465L19.9658 21.4651L19.979 21.4618L20.0501 21.4442H38.7341L38.8262 21.4628L38.8367 21.465H38.8475C40.6801 21.465 42.5519 21.9863 44.0284 23.027C44.0367 23.0345 44.0456 23.0413 44.055 23.0473C44.9622 23.6946 45.7001 24.5509 46.2064 25.5438Z" stroke="white" stroke-opacity="0.29" stroke-width="0.214569"/>
<g style="mix-blend-mode:multiply">
<path d="M17.1488 32.3461C17.13 32.3294 17.1111 32.3109 17.0923 32.2933C16.6376 31.8593 16.2976 31.3193 16.1027 30.7217H11.5322C11.6078 31.2763 11.7442 31.8209 11.9389 32.3457C12.3715 33.4736 13.0566 34.4876 13.9415 35.3099C14.7331 36.0907 15.6727 36.7054 16.7052 37.118C17.7377 37.5307 18.8422 37.7328 19.9538 37.7127H21.9377L22.4658 33.4246H19.9538C18.9141 33.4436 17.908 33.0567 17.1488 32.3461Z" fill="url(#paint9_linear_145_6695)" style="mix-blend-mode:multiply"/>
<path d="M17.0182 32.3709L17.0182 32.3709L17.019 32.3717C17.024 32.3763 17.0295 32.3815 17.0354 32.3871C17.0483 32.3994 17.0629 32.4132 17.0765 32.4253C17.8557 33.1542 18.888 33.5511 19.9548 33.5319H22.3445L21.8428 37.6054H19.9538V37.6054L19.9519 37.6054C18.8545 37.6253 17.7642 37.4257 16.745 37.0184C15.7258 36.6111 14.7983 36.0042 14.0169 35.2335L14.0169 35.2335L14.0146 35.2313C13.1417 34.4202 12.4661 33.4203 12.0392 32.3079C11.8617 31.8291 11.7334 31.3335 11.6561 30.829H16.0256C16.2294 31.414 16.5695 31.9426 17.0182 32.3709Z" stroke="white" stroke-opacity="0.29" stroke-width="0.214569"/>
</g>
<path d="M45.9925 35.8264C45.2005 35.0461 44.2607 34.4318 43.2282 34.0195C42.1957 33.6072 41.0913 33.4051 39.9797 33.4252H37.6L38.1002 37.7119H39.9797C40.5077 37.703 41.0323 37.7983 41.5234 37.9924C42.0146 38.1865 42.4626 38.4756 42.8419 38.843C43.2132 39.2022 43.5085 39.6324 43.7101 40.108C43.9118 40.5836 44.0157 41.0949 44.0157 41.6115C44.0157 42.1281 43.9118 42.6394 43.7101 43.115C43.5085 43.5907 43.2132 44.0209 42.8419 44.38C42.4627 44.7475 42.0146 45.0366 41.5235 45.2307C41.0323 45.4249 40.5077 45.5202 39.9797 45.5114H19.8298C19.3013 45.517 18.7751 45.4402 18.2703 45.2836C17.8835 45.1507 17.5482 44.8998 17.3117 44.5661C17.0752 44.2325 16.9495 43.833 16.9522 43.424C16.9522 42.9358 16.8561 42.4523 16.6692 42.0012C16.4824 41.5501 16.2085 41.1403 15.8633 40.795C15.518 40.4498 15.1082 40.1759 14.6571 39.9891C14.206 39.8023 13.7226 39.7061 13.2343 39.7061H11.8965V43.5687C11.8965 45.511 12.7897 47.262 14.1544 48.23C15.6371 49.2619 17.9769 49.778 19.8303 49.778L19.9125 49.7977H39.8971L39.9797 49.778C41.0897 49.7986 42.1927 49.5988 43.2248 49.19C44.257 48.7812 45.1977 48.1716 45.9925 47.3965C47.6532 45.7954 48.4837 43.8637 48.484 41.6012C48.4844 39.3388 47.6539 37.4138 45.9925 35.8264Z" fill="url(#paint10_linear_145_6695)" style="mix-blend-mode:multiply"/>
<path d="M45.9184 35.904L45.9172 35.9028C45.1354 35.1326 44.2077 34.5262 43.1884 34.1191C42.1692 33.7121 41.079 33.5126 39.9816 33.5325L39.9797 33.5325L37.7205 33.5325L38.1957 37.6046H39.9788C40.5206 37.5956 41.0589 37.6935 41.5629 37.8927C42.0671 38.0919 42.5271 38.3887 42.9165 38.7659C43.2982 39.1351 43.6016 39.5773 43.8089 40.0661C44.0162 40.555 44.123 41.0805 44.123 41.6115C44.123 42.1425 44.0162 42.6681 43.8089 43.1569C43.6016 43.6458 43.2982 44.088 42.9165 44.4571M45.9184 35.904L42.8419 44.38M45.9184 35.904C47.5589 37.4715 48.3771 39.3686 48.3767 41.6012C48.3764 43.8339 47.5582 45.738 45.918 47.3192L45.9176 47.3197C45.133 48.0848 44.2043 48.6867 43.1853 49.0902C42.1664 49.4938 41.0775 49.6911 39.9817 49.6707L39.9681 49.6704M45.9184 35.904L39.9681 49.6704M42.9165 44.4571L42.8419 44.38M42.9165 44.4571C42.9165 44.4571 42.9166 44.4571 42.9166 44.4571L42.8419 44.38M42.9165 44.4571C42.5271 44.8344 42.0672 45.1312 41.5629 45.3305C41.0589 45.5297 40.5207 45.6276 39.9788 45.6187M42.8419 44.38C42.4627 44.7475 42.0146 45.0366 41.5235 45.2307C41.0323 45.4249 40.5077 45.5202 39.9797 45.5114M39.9788 45.6187H39.9797V45.5114M39.9788 45.6187H19.8303M39.9788 45.6187C39.9785 45.6186 39.9782 45.6186 39.9779 45.6186L39.9797 45.5114M39.9797 45.5114L19.8303 45.6187M19.8303 45.6187H19.8298V45.5114L19.8309 45.6186C19.8307 45.6186 19.8305 45.6187 19.8303 45.6187ZM39.9681 49.6704L39.9548 49.6736L39.9681 49.6704ZM12.0038 39.7061H11.8965V39.8134H12.0038V39.7061ZM16.8449 43.4233C16.8449 43.4234 16.8449 43.4235 16.8449 43.4237C16.8449 43.4238 16.8449 43.4239 16.8449 43.424H16.9522L16.8449 43.4233ZM14.2162 48.1422C14.216 48.1421 14.2159 48.142 14.2157 48.1419L14.1544 48.23L14.2165 48.1425C14.2164 48.1424 14.2163 48.1423 14.2162 48.1422ZM37.6 33.4252L37.6125 33.5325L37.6 33.4252ZM19.9125 49.7977L19.9375 49.6934L19.9252 49.6904H19.9125V49.7977ZM39.8845 49.6904L39.8722 49.6933L39.8971 49.7977V49.6904H39.8845Z" stroke="white" stroke-opacity="0.29" stroke-width="0.214569"/>
<g style="mix-blend-mode:multiply">
<path d="M43.961 40.9783H48.4586C48.3178 38.9841 47.4953 37.2668 45.9912 35.8264C45.1992 35.0461 44.2594 34.4318 43.2269 34.0195C42.1944 33.6072 41.09 33.4051 39.9784 33.4252H37.5986L38.0989 37.7119H39.9784C40.5064 37.703 41.031 37.7983 41.5221 37.9924C42.0133 38.1865 42.4613 38.4756 42.8406 38.843C43.4394 39.4117 43.8333 40.1624 43.961 40.9783Z" fill="url(#paint11_linear_145_6695)" style="mix-blend-mode:multiply"/>
<path d="M45.9159 35.9028L45.9159 35.9028L45.917 35.9039C47.3737 37.2989 48.1808 38.9534 48.3427 40.871H44.0517C43.9062 40.067 43.5084 39.3294 42.9149 38.7656C42.5255 38.3885 42.0656 38.0919 41.5616 37.8927C41.0576 37.6935 40.5193 37.5956 39.9775 37.6046H38.1944L37.7192 33.5325H39.9784V33.5325L39.9803 33.5325C41.0776 33.5126 42.1679 33.7121 43.1871 34.1191C44.2064 34.5262 45.1341 35.1326 45.9159 35.9028Z" stroke="white" stroke-opacity="0.29" stroke-width="0.214569"/>
</g>
<path style="mix-blend-mode:multiply" d="M42.8417 44.3789C42.8228 44.3956 42.8038 44.4141 42.785 44.4317H47.9954C48.3258 43.5323 48.4912 42.5806 48.4836 41.6224V41.5786C48.4685 40.544 48.0454 39.5572 47.3065 38.8328C46.5676 38.1084 45.5726 37.7051 44.5379 37.7105H39.9805C40.5084 37.7016 41.033 37.7969 41.524 37.991C42.0151 38.1851 42.463 38.4742 42.8422 38.8417C43.2133 39.201 43.5084 39.6312 43.7099 40.1068C43.9114 40.5824 44.0152 41.0936 44.0152 41.6101C44.0152 42.1266 43.9114 42.6379 43.7099 43.1135C43.5084 43.589 43.2133 44.0193 42.8422 44.3785L42.8417 44.3789Z" fill="url(#paint12_linear_145_6695)"/>
<path d="M29.2998 47.09C29.2998 47.1597 29.3181 47.2281 29.3529 47.2884L29.9887 48.3902C30.1917 48.742 30.7295 48.598 30.7295 48.1918L30.7295 18.6599C30.7295 18.2494 30.1827 18.1089 29.9848 18.4685L29.349 19.6236C29.3167 19.6822 29.2998 19.7481 29.2998 19.815L29.2998 47.09Z" fill="#080721" stroke="white" stroke-width="0.0643707"/>
<path d="M30.8907 16.4287C30.8907 16.6291 30.7414 16.798 30.5426 16.8227L29.9079 16.9015C29.6711 16.9309 29.462 16.7462 29.462 16.5076L29.462 15.1322C29.462 14.8926 29.6726 14.7076 29.9102 14.7386L30.545 14.8212C30.7427 14.847 30.8907 15.0155 30.8907 15.2149L30.8907 16.4287Z" fill="#080721" stroke="white" stroke-width="0.0643707"/>
<g style="mix-blend-mode:screen">
<path d="M42.098 47.857C42.7049 47.2409 43.1827 46.5099 43.5035 45.7068C43.8242 44.9037 43.9813 44.0446 43.9657 43.18L43.9657 41.329L40.6314 41.7181L40.6314 43.18C40.6383 43.5907 40.5642 43.9988 40.4132 44.3808C40.2622 44.7628 40.0374 45.1113 39.7516 45.4063C39.4722 45.6951 39.1376 45.9248 38.7676 46.0816C38.3977 46.2385 38 46.3193 37.5981 46.3193C37.1963 46.3193 36.7986 46.2385 36.4286 46.0816C36.0587 45.9248 35.7241 45.6951 35.4447 45.4063C35.1588 45.1113 34.934 44.7628 34.783 44.3808C34.632 43.9988 34.5578 43.5907 34.5647 43.18L34.5647 27.5067C34.5603 27.0956 34.6201 26.6864 34.7419 26.2937C34.8452 25.9929 35.0404 25.7321 35.2999 25.5481C35.5595 25.3641 35.8702 25.2663 36.1883 25.2685C36.5681 25.2685 36.9441 25.1937 37.295 25.0483C37.6459 24.903 37.9647 24.69 38.2332 24.4214C38.5018 24.1529 38.7148 23.8341 38.8601 23.4832C39.0054 23.1324 39.0802 22.7563 39.0802 22.3765L39.0802 21.3359L36.0758 21.3359C34.565 21.3359 33.203 22.0307 32.4501 23.0922C31.6475 24.2455 31.246 26.0655 31.246 27.5071L31.2307 27.5711L31.2307 43.1158L31.246 43.18C31.2299 44.0434 31.3854 44.9013 31.7034 45.7042C32.0213 46.507 32.4955 47.2388 33.0984 47.857C34.3438 49.1487 35.8463 49.7947 37.6061 49.7949C39.3659 49.7952 40.8632 49.1492 42.098 47.857Z" fill="url(#paint13_angular_145_6695)" style="mix-blend-mode:multiply"/>
<path d="M42.0204 47.7828L42.0216 47.7817C42.6185 47.1758 43.0884 46.4569 43.4038 45.667C43.7192 44.8772 43.8738 44.0323 43.8585 43.1819L43.8584 43.18L43.8585 41.4495L40.7387 41.8136L40.7387 43.1791C40.7457 43.6036 40.669 44.0254 40.513 44.4202C40.3568 44.8153 40.1243 45.1758 39.8287 45.4809C39.8287 45.4809 39.8286 45.481 39.8286 45.481L39.7516 45.4063C39.4722 45.6951 39.1376 45.9248 38.7676 46.0816C38.3977 46.2385 38 46.3193 37.5981 46.3193C37.1963 46.3193 36.7986 46.2385 36.4286 46.0816C36.0587 45.9248 35.7241 45.6951 35.4447 45.4063L42.0204 47.7828ZM42.0204 47.7828C40.8056 49.0543 39.3361 49.6879 37.6062 49.6877C35.8761 49.6874 34.4012 49.0537 33.1756 47.7825L33.1752 47.7821C32.5822 47.174 32.1158 46.4543 31.8031 45.6647C31.4903 44.875 31.3374 44.0312 31.3533 43.182L31.3535 43.1684L31.3504 43.1551L31.3379 43.1031L31.338 27.5838L31.3503 27.5321L31.3533 27.5198L31.3533 27.5071C31.3533 26.0791 31.752 24.2834 32.5379 23.1539C33.2689 22.1235 34.5966 21.4432 36.0758 21.4432L38.973 21.4432L38.973 22.3765C38.973 22.7422 38.9009 23.1043 38.761 23.4422C38.621 23.78 38.4159 24.087 38.1574 24.3456C37.8988 24.6042 37.5918 24.8093 37.254 24.9492C36.9162 25.0891 36.5542 25.1611 36.1886 25.1612C36.1885 25.1612 36.1884 25.1612 36.1883 25.1612L36.1883 25.2685L42.0204 47.7828Z" stroke="white" stroke-opacity="0.27" stroke-width="0.214569"/>
</g>
</g>
<defs>
<filter id="filter0_bdi_145_6695" x="-2.8837" y="-2.92374" width="65.701" height="67.8465" filterUnits="userSpaceOnUse" color-interpolation-filters="sRGB">
<feFlood flood-opacity="0" result="BackgroundImageFix"/>
<feGaussianBlur in="BackgroundImageFix" stdDeviation="1.94185"/>
<feComposite in2="SourceAlpha" operator="in" result="effect1_backgroundBlur_145_6695"/>
<feColorMatrix in="SourceAlpha" type="matrix" values="0 0 0 0 0 0 0 0 0 0 0 0 0 0 0 0 0 0 127 0" result="hardAlpha"/>
<feOffset dy="0.858276"/>
<feGaussianBlur stdDeviation="0.429138"/>
<feComposite in2="hardAlpha" operator="out"/>
<feColorMatrix type="matrix" values="0 0 0 0 0 0 0 0 0 0 0 0 0 0 0 0 0 0 0.25 0"/>
<feBlend mode="normal" in2="effect1_backgroundBlur_145_6695" result="effect2_dropShadow_145_6695"/>
<feBlend mode="normal" in="SourceGraphic" in2="effect2_dropShadow_145_6695" result="shape"/>
<feColorMatrix in="SourceAlpha" type="matrix" values="0 0 0 0 0 0 0 0 0 0 0 0 0 0 0 0 0 0 127 0" result="hardAlpha"/>
<feOffset dy="0.858276"/>
<feGaussianBlur stdDeviation="0.429138"/>
<feComposite in2="hardAlpha" operator="arithmetic" k2="-1" k3="1"/>
<feColorMatrix type="matrix" values="0 0 0 0 0 0 0 0 0 0 0 0 0 0 0 0 0 0 0.25 0"/>
<feBlend mode="normal" in2="shape" result="effect3_innerShadow_145_6695"/>
</filter>
<radialGradient id="paint0_radial_145_6695" cx="0" cy="0" r="1" gradientUnits="userSpaceOnUse" gradientTransform="translate(29.9668 30.9996) rotate(90) scale(30.0396 28.9668)">
<stop stop-color="#635DE5"/>
<stop offset="0.145" stop-color="#5C57D6"/>
<stop offset="0.325" stop-color="#A950C4"/>
<stop offset="0.465" stop-color="#894AB6"/>
<stop offset="0.705" stop-color="#7A409E"/>
<stop offset="1" stop-color="#37347F"/>
</radialGradient>
<linearGradient id="paint1_linear_145_6695" x1="29.9668" y1="0.959961" x2="29.9668" y2="61.0392" gradientUnits="userSpaceOnUse">
<stop stop-color="white"/>
<stop offset="1" stop-color="#746FE5"/>
</linearGradient>
<linearGradient id="paint2_linear_145_6695" x1="30.3383" y1="37.9231" x2="30.2889" y2="30.5904" gradientUnits="userSpaceOnUse">
<stop stop-color="#4F4BAD"/>
<stop offset="1" stop-color="#4A0E98"/>
</linearGradient>
<linearGradient id="paint3_linear_145_6695" x1="30.6393" y1="21.7927" x2="30.5133" y2="6.16117" gradientUnits="userSpaceOnUse">
<stop stop-color="#4F4BAD"/>
<stop offset="1" stop-color="#4A0E98"/>
</linearGradient>
<linearGradient id="paint4_linear_145_6695" x1="24.9197" y1="46.4941" x2="23.9074" y2="12.5065" gradientUnits="userSpaceOnUse">
<stop stop-color="#4F4BAD"/>
<stop offset="1" stop-color="#4A0E98"/>
</linearGradient>
<linearGradient id="paint5_linear_145_6695" x1="35.7982" y1="46.4941" x2="34.7685" y2="12.5075" gradientUnits="userSpaceOnUse">
<stop stop-color="#4F4BAD"/>
<stop offset="1" stop-color="#4A0E98"/>
</linearGradient>
<linearGradient id="paint6_linear_145_6695" x1="25.5724" y1="22.5373" x2="25.424" y2="29.9605" gradientUnits="userSpaceOnUse">
<stop stop-color="#831C8B"/>
<stop offset="0.143" stop-color="#88258F" stop-opacity="0.962"/>
<stop offset="0.321" stop-color="#953D9C" stop-opacity="0.853"/>
<stop offset="0.516" stop-color="#AC67B1" stop-opacity="0.672"/>
<stop offset="0.724" stop-color="#CBA0CE" stop-opacity="0.419"/>
<stop offset="0.94" stop-color="#F3E9F4" stop-opacity="0.098"/>
<stop offset="1" stop-color="white" stop-opacity="0"/>
</linearGradient>
<linearGradient id="paint7_linear_145_6695" x1="34.7563" y1="22.7211" x2="34.6077" y2="30.1443" gradientUnits="userSpaceOnUse">
<stop stop-color="#831C8B"/>
<stop offset="0.143" stop-color="#88258F" stop-opacity="0.962"/>
<stop offset="0.321" stop-color="#953D9C" stop-opacity="0.853"/>
<stop offset="0.516" stop-color="#AC67B1" stop-opacity="0.672"/>
<stop offset="0.724" stop-color="#CBA0CE" stop-opacity="0.419"/>
<stop offset="0.94" stop-color="#F3E9F4" stop-opacity="0.098"/>
<stop offset="1" stop-color="white" stop-opacity="0"/>
</linearGradient>
<linearGradient id="paint8_linear_145_6695" x1="23.6362" y1="29.4683" x2="5.30091" y2="28.4588" gradientUnits="userSpaceOnUse">
<stop stop-color="white" stop-opacity="0"/>
<stop offset="0.102" stop-color="#E6EBEE" stop-opacity="0.14"/>
<stop offset="0.397" stop-color="#A4B7C2" stop-opacity="0.509"/>
<stop offset="0.656" stop-color="#A4C5D9" stop-opacity="0.776"/>
<stop offset="0.866" stop-color="#9BC7E2" stop-opacity="0.94"/>
<stop offset="1" stop-color="#83ADC7"/>
</linearGradient>
<linearGradient id="paint9_linear_145_6695" x1="15.2948" y1="34.1939" x2="9.62582" y2="33.9682" gradientUnits="userSpaceOnUse">
<stop stop-color="white" stop-opacity="0"/>
<stop offset="0.102" stop-color="#E6EBEE" stop-opacity="0.14"/>
<stop offset="0.397" stop-color="#A4B7C2" stop-opacity="0.509"/>
<stop offset="0.656" stop-color="#A4C5D9" stop-opacity="0.776"/>
<stop offset="0.866" stop-color="#9BC7E2" stop-opacity="0.94"/>
<stop offset="1" stop-color="#83ADC7"/>
</linearGradient>
<linearGradient id="paint10_linear_145_6695" x1="24.4875" y1="41.5546" x2="5.54819" y2="40.4772" gradientUnits="userSpaceOnUse">
<stop stop-color="white" stop-opacity="0"/>
<stop offset="0.102" stop-color="#E6EBEE" stop-opacity="0.14"/>
<stop offset="0.397" stop-color="#A4B7C2" stop-opacity="0.509"/>
<stop offset="0.656" stop-color="#A4C5D9" stop-opacity="0.776"/>
<stop offset="0.866" stop-color="#9BC7E2" stop-opacity="0.94"/>
<stop offset="1" stop-color="#83ADC7"/>
</linearGradient>
<linearGradient id="paint11_linear_145_6695" x1="41.3359" y1="37.1751" x2="35.7037" y2="36.969" gradientUnits="userSpaceOnUse">
<stop stop-color="white" stop-opacity="0"/>
<stop offset="0.102" stop-color="#E6EBEE" stop-opacity="0.14"/>
<stop offset="0.397" stop-color="#A4B7C2" stop-opacity="0.509"/>
<stop offset="0.656" stop-color="#A4C5D9" stop-opacity="0.776"/>
<stop offset="0.866" stop-color="#9BC7E2" stop-opacity="0.94"/>
<stop offset="1" stop-color="#83ADC7"/>
</linearGradient>
<linearGradient id="paint12_linear_145_6695" x1="42.9068" y1="41.0478" x2="38.4954" y2="40.9057" gradientUnits="userSpaceOnUse">
<stop stop-color="white" stop-opacity="0"/>
<stop offset="0.102" stop-color="#E6EBEE" stop-opacity="0.14"/>
<stop offset="0.397" stop-color="#A4B7C2" stop-opacity="0.509"/>
<stop offset="0.656" stop-color="#A4C5D9" stop-opacity="0.776"/>
<stop offset="0.866" stop-color="#9BC7E2" stop-opacity="0.94"/>
<stop offset="1" stop-color="#83ADC7"/>
</linearGradient>
<radialGradient id="paint13_angular_145_6695" cx="0" cy="0" r="1" gradientUnits="userSpaceOnUse" gradientTransform="translate(37.5987 35.5654) rotate(90) scale(14.2295 6.36807)">
<stop stop-color="#4F4BAD"/>
<stop offset="0.31" stop-color="#4F4BAD"/>
<stop offset="0.425" stop-color="#4F4BAD"/>
<stop offset="0.645" stop-color="#4F4BAD"/>
<stop offset="0.78" stop-color="#4F4BAD"/>
</radialGradient>
</defs>
</svg>
