<svg width="30" height="29" viewBox="0 0 30 29" fill="none" xmlns="http://www.w3.org/2000/svg">
<path fill-rule="evenodd" clip-rule="evenodd" d="M6.08633 1.4502C3.6839 1.4502 1.73633 3.39776 1.73633 5.8002V23.2002C1.73633 25.6027 3.6839 27.5502 6.08633 27.5502H23.4863C25.8888 27.5502 27.8363 25.6027 27.8363 23.2002V13.0502C27.8363 10.6478 25.8888 8.7002 23.4863 8.7002H6.81133C5.6101 8.7002 4.63633 7.72642 4.63633 6.5252C4.63633 5.32397 5.6101 4.3502 6.81133 4.3502H23.4863C24.2872 4.3502 24.9363 3.701 24.9363 2.9002C24.9363 2.09939 24.2872 1.4502 23.4863 1.4502H6.08633ZM21.3113 20.3002C22.5125 20.3002 23.4863 19.3264 23.4863 18.1252C23.4863 16.924 22.5125 15.9502 21.3113 15.9502C20.1101 15.9502 19.1363 16.924 19.1363 18.1252C19.1363 19.3264 20.1101 20.3002 21.3113 20.3002Z" fill="#AEACE4"/>
</svg>
