<svg width="21" height="21" viewBox="0 0 21 21" fill="none" xmlns="http://www.w3.org/2000/svg">
<path d="M11.1251 10.8594L14.7545 7.23653L13.0166 4.31942L13.944 1.98394L10.4478 2.9854L8.83936 7.03612L8.85988 7.03025L8.84972 7.04023L11.1251 10.8594Z" fill="url(#paint0_linear_93_4352)"/>
<path d="M18.5105 5.77384L19.8393 7.98319L12.9262 14.8843L12.0026 17.2227L8.49277 18.226L10.0949 14.1697L10.1155 14.1638L10.1116 14.1579L18.5105 5.77384Z" fill="url(#paint1_linear_93_4352)"/>
<path d="M7.34431 11.2603L4.9118 13.6927L6.13875 15.6493L8.56896 13.2132L7.34431 11.2603Z" fill="url(#paint2_linear_93_4352)"/>
<path d="M3.59985 14.5594L2.67156 13.0795L7.29834 8.45265L8.11755 10.2067L3.59985 14.5594Z" fill="url(#paint3_linear_93_4352)"/>
<defs>
<linearGradient id="paint0_linear_93_4352" x1="12.7719" y1="6.60943" x2="9.19278" y2="3.58825" gradientUnits="userSpaceOnUse">
<stop stop-color="#B3BEFF"/>
<stop offset="1" stop-color="#FCFCFC"/>
</linearGradient>
<linearGradient id="paint1_linear_93_4352" x1="16.1195" y1="10.7785" x2="5.99796" y2="13.1673" gradientUnits="userSpaceOnUse">
<stop stop-color="#FCFCFC"/>
<stop offset="1" stop-color="#B3BEFF"/>
</linearGradient>
<linearGradient id="paint2_linear_93_4352" x1="6.37944" y1="13.1783" x2="7.86148" y2="14.4225" gradientUnits="userSpaceOnUse">
<stop stop-color="#FCFCFC"/>
<stop offset="1" stop-color="#B3BEFF"/>
</linearGradient>
<linearGradient id="paint3_linear_93_4352" x1="4.44898" y1="12.3397" x2="8.9528" y2="11.1865" gradientUnits="userSpaceOnUse">
<stop stop-color="#B3BEFF"/>
<stop offset="1" stop-color="#FCFCFC"/>
</linearGradient>
</defs>
</svg>
