<svg width="20" height="25" viewBox="0 0 20 25" fill="none" xmlns="http://www.w3.org/2000/svg">
<path d="M19.0194 15.1988C18.4194 13.0988 16.4194 11.7988 14.0194 11.4988C12.7194 9.79879 10.5194 8.89879 8.31936 9.09879C8.01936 9.09879 7.71936 9.19879 7.41936 9.29879C7.21936 9.29879 7.11936 9.39879 6.91936 9.49879C6.71936 9.49879 6.51936 9.69879 6.31936 9.79879C4.21936 10.7988 3.01936 12.8988 2.91936 15.0988C1.41936 16.5988 0.819363 18.4988 1.31936 20.2988C2.01936 22.4988 4.31936 23.9988 6.91936 23.9988C13.9194 24.6988 17.8194 19.9988 17.8194 19.9988C19.0194 18.5988 19.5194 16.8988 19.0194 15.1988ZM6.31936 17.0988C5.61936 17.2988 4.81936 16.8988 4.61936 16.1988C4.41936 15.4988 4.81936 14.6988 5.51936 14.4988C6.21936 14.2988 7.01936 14.6988 7.21936 15.3988C7.41936 16.0988 7.01936 16.8988 6.31936 17.0988ZM12.8194 15.1988C12.1194 15.3988 11.3194 14.9988 11.1194 14.2988C10.9194 13.5988 11.3194 12.7988 12.0194 12.5988C12.7194 12.3988 13.5194 12.7988 13.7194 13.4988C13.9194 14.1988 13.5194 14.9988 12.8194 15.1988Z" fill="url(#paint0_linear_258_14054)"/>
<path d="M9.52048 1.0988C9.02048 0.798804 8.32048 0.898804 8.02047 1.3988L5.92047 4.7988L2.32048 3.0988C1.82048 2.7988 1.12048 3.0988 0.920475 3.5988C0.620475 4.0988 0.920475 4.7988 1.42048 4.9988L5.42047 6.8988L5.82048 8.2988C6.02047 8.2988 6.22048 8.0988 6.32048 8.0988C6.52047 8.0988 6.72047 7.8988 6.92047 7.8988C7.22047 7.8988 7.52047 7.6988 7.82048 7.6988L7.42047 6.2988L9.82048 2.4988C10.1205 1.9988 10.0205 1.2988 9.52048 0.998804V1.0988Z" fill="url(#paint1_linear_258_14054)"/>
<defs>
<linearGradient id="paint0_linear_258_14054" x1="4.71936" y1="13.0988" x2="47.6194" y2="50.2988" gradientUnits="userSpaceOnUse">
<stop stop-color="#4F4BAD"/>
<stop offset="1" stop-color="#26254A"/>
</linearGradient>
<linearGradient id="paint1_linear_258_14054" x1="3.62048" y1="1.4988" x2="25.4205" y2="20.4988" gradientUnits="userSpaceOnUse">
<stop stop-color="#4F4BAD"/>
<stop offset="1" stop-color="#26254A"/>
</linearGradient>
</defs>
</svg>
