<svg  viewBox="0 0 130 40" fill="none" xmlns="http://www.w3.org/2000/svg">
<path d="M89.3756 0.057901C90.4544 0.0101399 91.5332 0.151205 92.565 0.474936C93.4491 0.751636 94.288 1.15997 95.0543 1.68664C95.4367 1.94968 95.7998 2.24059 96.1408 2.55708C96.2549 2.66255 96.3659 2.77106 96.4736 2.88259C96.7985 3.21641 97.099 3.57377 97.3729 3.95185C97.4644 4.07833 97.5522 4.20643 97.6365 4.33615C97.9776 4.85796 98.2665 5.41313 98.4989 5.99338C98.5569 6.13805 98.6116 6.28413 98.6629 6.43163C98.7142 6.57913 98.7617 6.72784 98.8054 6.87776C98.8495 7.02728 98.8899 7.17822 98.9265 7.33056C98.9999 7.63461 99.0588 7.94208 99.103 8.25192C99.1457 8.56158 99.1746 8.87307 99.1895 9.1854C99.2021 9.49808 99.2007 9.81118 99.1853 10.1237C99.1678 10.4362 99.1364 10.7477 99.0911 11.0572C99.068 11.2112 99.041 11.3649 99.01 11.5185C98.9485 11.8251 98.8725 12.1286 98.7822 12.4277C98.0941 14.6956 96.6016 16.6227 94.5942 17.8349C92.5868 19.0471 90.2079 19.4579 87.9193 18.9875C87.6172 18.9261 87.3184 18.8488 87.0241 18.756C86.5821 18.6183 86.1507 18.4473 85.7336 18.2444C85.1769 17.9748 84.6477 17.6499 84.1538 17.2746C83.9065 17.0875 83.6688 16.8876 83.4418 16.6757C83.215 16.4636 82.9979 16.2411 82.7911 16.0089C82.5845 15.7764 82.3898 15.5332 82.2079 15.2803C82.0254 15.028 81.855 14.7668 81.6974 14.4978C80.7874 12.9388 80.3316 11.1493 80.3831 9.3374C80.4347 7.52549 80.9913 5.76571 81.9884 4.26281C82.2475 3.87342 82.5341 3.5037 82.846 3.15657C82.9506 3.041 83.0573 2.92825 83.1662 2.81834C83.3853 2.59805 83.6148 2.38868 83.8539 2.19096C84.0932 1.99356 84.3417 1.80807 84.5987 1.63512C84.8559 1.46254 85.1212 1.30273 85.3937 1.15626C85.8023 0.936353 86.2265 0.747719 86.6628 0.591925C87.0991 0.436311 87.5459 0.313139 87.9998 0.223382C88.4539 0.13441 88.9137 0.0791038 89.3756 0.057901ZM90.108 14.7572C90.4388 14.7357 90.7667 14.6804 91.0866 14.5923C91.4869 14.4832 91.8723 14.3239 92.234 14.1183C92.3784 14.0358 92.5188 13.9466 92.6551 13.851C93.2691 13.4166 93.7809 12.8494 94.1537 12.1901C94.3604 11.8249 94.5217 11.435 94.6338 11.0293C94.6794 10.8675 94.7166 10.7035 94.7453 10.5377C94.7732 10.3718 94.7943 10.2048 94.8085 10.037C94.8219 9.86931 94.8267 9.70097 94.8229 9.53273C94.8217 9.44858 94.8182 9.36449 94.8121 9.28057C94.7995 9.11272 94.78 8.94547 94.7537 8.77927C94.7133 8.53007 94.6539 8.28444 94.576 8.04461C94.4983 7.80477 94.404 7.57082 94.2939 7.3445C93.9223 6.5879 93.3732 5.9359 92.695 5.44602C92.2895 5.15294 91.8433 4.92291 91.3711 4.76349C91.1351 4.68456 90.894 4.62238 90.6495 4.5774C89.5824 4.38723 88.4835 4.54953 87.5138 5.0405C87.3659 5.1153 87.222 5.19785 87.0826 5.28782C86.9426 5.3766 86.8072 5.4727 86.6771 5.57574C86.5461 5.67815 86.4205 5.78741 86.3008 5.90306C86.1805 6.01819 86.0663 6.13959 85.9584 6.26676C85.7968 6.45754 85.6483 6.65947 85.5141 6.8711C85.3356 7.15376 85.1854 7.45389 85.0657 7.76699C84.9766 8.00203 84.9037 8.24305 84.8474 8.48832C84.8291 8.56954 84.8126 8.65158 84.7979 8.73442C84.7686 8.8995 84.7477 9.06601 84.7353 9.23329C84.7219 9.40062 84.7172 9.56855 84.721 9.7364C84.7226 9.82045 84.7261 9.9043 84.7317 9.98795C84.7444 10.1552 84.7639 10.3218 84.7901 10.4874C84.8304 10.736 84.8896 10.981 84.9673 11.2203C85.0177 11.38 85.0762 11.537 85.1426 11.6906C85.3088 12.0751 85.52 12.4378 85.7718 12.7708C85.924 12.9695 86.0896 13.1573 86.2674 13.3327C86.3865 13.4488 86.5109 13.5592 86.6401 13.6637C86.77 13.7673 86.9045 13.8648 87.0432 13.9558C87.1825 14.046 87.3258 14.1295 87.4726 14.2062C88.2856 14.6294 89.1966 14.8201 90.108 14.7578M26.1003 0.107606C26.7135 0.0564136 27.3302 0.067175 27.9413 0.139732C28.8593 0.247501 29.7563 0.493676 30.6029 0.87015C31.5922 1.30775 32.4991 1.91692 33.283 2.67043C33.618 2.99298 33.9295 3.33981 34.2151 3.70817C34.6902 4.32351 35.0894 4.99569 35.4037 5.7097C35.9704 6.99875 36.2471 8.40007 36.2135 9.81156C36.1993 10.4371 36.124 11.0596 35.9887 11.67C35.6507 13.2025 34.9443 14.6259 33.9327 15.813C32.9212 17.0002 31.636 17.914 30.192 18.4729C29.6166 18.6944 29.0214 18.8589 28.4148 18.9639C27.8102 19.0664 27.1973 19.1094 26.5846 19.0924C26.1274 19.078 25.6718 19.0302 25.2213 18.9494C24.6204 18.8397 24.0313 18.6716 23.462 18.4475C22.8939 18.221 22.3485 17.9397 21.8333 17.6073C21.1899 17.19 20.5987 16.6948 20.0728 16.1326C19.2305 15.2302 18.5704 14.1689 18.1299 13.0084C17.6897 11.848 17.4776 10.6112 17.5055 9.36785C17.5338 8.12443 17.8016 6.89871 18.2939 5.76001C18.6015 5.05015 18.9928 4.3809 19.4592 3.76697C19.7397 3.39959 20.0458 3.05318 20.3752 2.73044C20.7056 2.40848 21.0584 2.1111 21.4308 1.84061C22.052 1.39008 22.7254 1.01895 23.4358 0.735584C24.0041 0.509755 24.5924 0.33986 25.1927 0.228231C25.4927 0.173121 25.7952 0.132665 26.0991 0.107M27.3032 14.7032C28.2834 14.6217 29.2185 14.2497 29.9928 13.6334C30.5057 13.223 30.9358 12.7159 31.2595 12.1398C31.3404 11.9962 31.4141 11.8485 31.4802 11.6973C31.5786 11.4702 31.6617 11.2365 31.7289 10.9978C31.7958 10.7591 31.8447 10.5155 31.875 10.2692C31.9171 9.94088 31.9273 9.60911 31.9054 9.27875C31.8356 8.19662 31.4278 7.16538 30.7413 6.33525C30.1094 5.56909 29.2696 5.00896 28.3266 4.7247C27.7259 4.54272 27.097 4.47692 26.4725 4.53073C26.3073 4.54561 26.1429 4.56827 25.9799 4.59862C25.8166 4.62902 25.6549 4.66807 25.4956 4.7156C25.2834 4.77925 25.0753 4.85618 24.8724 4.94594C24.5689 5.08206 24.2793 5.24814 24.0077 5.44178C23.599 5.73237 23.2359 6.08408 22.9306 6.48497C22.7597 6.70635 22.608 6.94243 22.4774 7.19054C22.1874 7.7358 21.9979 8.33028 21.918 8.94476C21.882 9.22362 21.8682 9.50498 21.8768 9.7861C21.8821 9.95463 21.8961 10.1228 21.9186 10.2898C22.0281 11.1299 22.3421 11.9289 22.8322 12.6144C22.93 12.7506 23.0338 12.882 23.1435 13.0084C23.2902 13.177 23.4482 13.335 23.6165 13.4812C23.8251 13.6659 24.0492 13.8318 24.2862 13.9771C24.4282 14.0641 24.574 14.1444 24.7233 14.2177C25.2234 14.4604 25.7593 14.6181 26.3097 14.6844C26.6394 14.7244 26.9723 14.7305 27.3032 14.7026M99.8723 0.640417L104.617 0.623445C106.511 0.61314 108.452 0.470087 110.302 0.973803C111.925 1.4163 113.39 2.2734 114.235 3.79667C115.04 5.24842 115.239 7.22933 114.782 8.82534C114.257 10.6584 113.085 11.77 111.487 12.6732C112.623 14.6547 114.292 16.646 115.631 18.5269C114.994 18.5335 114.358 18.5269 113.722 18.5269C112.633 18.5219 111.545 18.5308 110.457 18.5535C109.343 16.9024 108.171 15.3118 107.095 13.6291C106.218 13.5424 105.337 13.6309 104.458 13.5794C104.256 15.1488 104.392 16.9327 104.394 18.5226C102.896 18.522 101.305 18.4159 99.8204 18.5905C100.023 17.2933 99.8246 14.6966 99.8276 13.2466L99.8723 0.640417ZM104.46 9.69881C106.064 9.757 107.747 9.93825 109.255 9.26299C109.84 8.87384 110.253 8.40528 110.386 7.68213C110.51 7.01112 110.396 6.23039 109.989 5.67454C109.472 4.96595 108.551 4.72288 107.73 4.62104C106.874 4.51436 105.999 4.54588 105.139 4.57316C104.926 4.58528 104.676 4.57316 104.485 4.67439C104.325 6.00611 104.461 8.27253 104.46 9.69881ZM75.5148 23.0536C75.9218 23.0284 76.33 23.0334 76.7362 23.0688C77.55 23.1402 78.3491 23.3326 79.1079 23.6398C79.4867 23.7935 79.8539 23.9753 80.2065 24.1835C80.4414 24.3223 80.6694 24.4726 80.8899 24.6339C81.1104 24.7956 81.3229 24.9682 81.5268 25.1509C81.7302 25.3342 81.9252 25.5267 82.1113 25.728C82.3894 26.0312 82.6454 26.3548 82.877 26.696C83.0311 26.9236 83.1742 27.1587 83.3058 27.4004C83.5693 27.8841 83.7856 28.3929 83.9517 28.9194C84.0336 29.1827 84.1036 29.4497 84.1616 29.7195C84.3043 30.3954 84.3651 31.0865 84.3429 31.7774C84.3389 31.9156 84.3312 32.0536 84.3196 32.1914C84.2862 32.6045 84.223 33.0146 84.1306 33.4183C84.0996 33.5525 84.0656 33.6862 84.0286 33.8196C83.9531 34.0849 83.8657 34.3467 83.7668 34.604C83.5659 35.1177 83.317 35.6107 83.0237 36.0763C82.8767 36.3085 82.7187 36.5332 82.5502 36.7497C82.3807 36.9658 82.2016 37.174 82.0135 37.3735C81.6361 37.7719 81.2208 38.1313 80.7736 38.4464C80.4388 38.6827 80.0874 38.8938 79.7222 39.078C78.4977 39.6954 77.1424 39.9967 75.776 39.9551C75.3664 39.9426 74.9581 39.8994 74.5547 39.826C73.8822 39.7032 73.227 39.497 72.604 39.212C71.3529 38.6389 70.2605 37.7604 69.4241 36.6546C69.1755 36.3237 68.9503 35.9753 68.7502 35.612C68.551 35.248 68.3783 34.8695 68.2338 34.4797C68.1376 34.2199 68.054 33.9555 67.9833 33.6874C67.8066 33.0164 67.7117 32.3259 67.7006 31.6314C67.6986 31.4928 67.6998 31.3539 67.7042 31.2149C67.7181 30.7988 67.7622 30.3843 67.836 29.9747C67.9344 29.4282 68.0854 28.8928 68.2868 28.3763C68.3377 28.2474 68.3912 28.1199 68.4473 27.9938C68.6738 27.4882 68.9487 27.0064 69.2679 26.5554C69.828 25.7654 70.5177 25.0794 71.3069 24.5272C72.4379 23.7379 73.7429 23.2441 75.1063 23.0894C75.2423 23.0741 75.3785 23.0621 75.5148 23.0536ZM76.7237 35.7538C77.1388 35.6888 77.5419 35.5605 77.9194 35.3732C78.0453 35.3114 78.1681 35.2432 78.2873 35.1689C78.4658 35.0571 78.6362 34.9325 78.7972 34.7961C79.0651 34.5672 79.3045 34.3058 79.5099 34.0178C79.6329 33.8452 79.743 33.6635 79.8391 33.4741C79.9037 33.348 79.962 33.2187 80.0138 33.0867C80.0649 32.9545 80.1103 32.82 80.1498 32.6836C80.1878 32.5469 80.2198 32.4086 80.2458 32.269C80.2839 32.0595 80.3065 31.8474 80.3132 31.6344C80.3234 31.3502 80.3054 31.0657 80.2595 30.7852C80.237 30.6449 80.2075 30.506 80.1713 30.3687C80.1342 30.2315 80.0912 30.096 80.0425 29.9626C79.9933 29.8297 79.9375 29.6994 79.8755 29.5722C79.7829 29.3811 79.6762 29.1973 79.5564 29.0225C79.4761 28.9062 79.3907 28.7935 79.3006 28.6848C78.8452 28.141 78.2637 27.721 77.6087 27.4628C77.4134 27.3851 77.2127 27.3225 77.0081 27.2755C76.7352 27.2133 76.457 27.178 76.1774 27.1701C75.6893 27.1567 75.2027 27.2293 74.739 27.3846C74.5417 27.4504 74.3495 27.531 74.1641 27.6259C73.9164 27.7514 73.6817 27.9017 73.4633 28.0744C73.2441 28.2466 73.0424 28.4405 72.861 28.6533C72.7708 28.7598 72.6853 28.8702 72.6046 28.9843C72.525 29.0993 72.4504 29.2178 72.3809 29.3395C72.2428 29.5834 72.129 29.8407 72.041 30.1075C71.9974 30.2411 71.9596 30.3766 71.9277 30.5136C71.8973 30.6507 71.8729 30.789 71.8543 30.9282C71.8456 30.9977 71.8382 31.0676 71.8323 31.1379C71.821 31.2781 71.8166 31.4187 71.8191 31.5592C71.8221 31.6998 71.831 31.8401 71.846 31.9799C71.8625 32.1194 71.885 32.2582 71.9134 32.3957C71.9433 32.533 71.9791 32.6689 72.0207 32.8031C72.0616 32.9375 72.1102 33.0695 72.1662 33.1983C72.1937 33.2625 72.2227 33.3264 72.2533 33.3898C72.4051 33.7059 72.595 34.0015 72.8187 34.27C72.9976 34.4847 73.1963 34.6816 73.412 34.8579C73.5199 34.946 73.6319 35.0285 73.7478 35.1052C73.8642 35.1814 73.9838 35.2524 74.1062 35.318C74.2907 35.4146 74.4816 35.4981 74.6775 35.5677C74.8735 35.637 75.0742 35.6913 75.2781 35.7302C75.482 35.7696 75.6885 35.7935 75.8959 35.8017C76.1727 35.8127 76.4499 35.7971 76.7237 35.7538ZM63.1903 23.5598C64.7134 23.6034 66.2369 23.6232 67.7608 23.6192L64.12 34.6355C63.6167 36.1606 63.1605 37.7063 62.6112 39.215C61.2074 39.2774 59.7981 39.1986 58.3931 39.2695C57.2833 36.5079 56.7573 33.4898 55.5532 30.7615C54.627 33.5892 53.5852 36.3739 52.7037 39.2174C51.3082 39.2556 49.9247 39.2538 48.5298 39.232C47.6435 36.6473 46.8874 33.9996 46.0423 31.3986C45.2099 28.7975 44.3511 26.2052 43.466 23.6222L47.9674 23.6162C48.1874 24.5254 50.7208 32.7188 50.7995 32.8109L50.7906 32.7715L50.8478 32.7552C50.9969 31.9666 51.3846 31.0931 51.6267 30.319C52.3182 28.0738 53.0458 25.8402 53.8094 23.6192C55.0171 23.5846 56.2289 23.6095 57.4371 23.6131C57.6858 24.726 58.1128 25.845 58.4521 26.9349C59.0706 28.9249 59.664 30.9385 60.3707 32.897C61.3815 29.8153 62.2707 26.6718 63.1903 23.5598ZM0.350324 0.625869C1.60031 0.624657 2.87654 0.68891 4.12295 0.597986C5.39918 2.18612 6.61339 3.8294 7.8759 5.42966C9.21475 7.12811 10.6073 8.79382 11.9068 10.522C11.961 7.22691 11.8936 3.92215 11.9068 0.625869C13.3929 0.628294 14.885 0.66042 16.37 0.607078C16.3187 2.27219 16.3622 3.947 16.3658 5.61272L16.3575 13.7067L16.3497 16.8018C16.3497 17.3534 16.3914 17.9292 16.3288 18.4766L16.228 18.5257C15.0276 18.5754 13.8217 18.4911 12.6266 18.5669C11.1428 16.689 9.67017 14.8026 8.20867 12.9078C7.13163 11.5373 6.02239 10.2092 4.98113 8.80898C4.8708 9.86975 4.93103 11.0045 4.92387 12.0731L4.91195 18.5438C3.38884 18.5014 1.86483 18.5056 0.341974 18.5566C0.249537 16.015 0.326469 13.443 0.334818 10.8996L0.350324 0.625869ZM55.4011 0.634355C56.8211 0.613746 58.2416 0.663451 59.661 0.612534L64.8381 12.5659C65.7135 14.5444 66.6528 16.492 67.499 18.4832C65.8501 18.5541 64.188 18.5123 62.5379 18.4941C62.0572 17.3354 61.5873 16.1721 61.128 15.0045C60.5782 14.9724 60.0188 14.9887 59.4678 14.9851C57.6172 14.9772 55.7237 14.8924 53.878 15.01C53.4009 16.1548 52.9317 17.3028 52.4706 18.4541C50.8258 18.5766 49.1315 18.5063 47.4825 18.4826C48.395 16.0804 49.6199 13.6116 50.6814 11.2609C52.2765 7.72886 53.8499 4.18682 55.4017 0.634962M57.7502 11.4355C58.3704 11.4415 59.0014 11.4761 59.6198 11.4379C59.2226 10.4395 57.9679 6.88261 57.4783 6.35768C57.0209 7.21418 56.6863 8.13796 56.3147 9.03568C55.9808 9.84126 55.6021 10.6493 55.3188 11.4736C56.1291 11.4466 56.9395 11.4338 57.7502 11.4355ZM116.007 0.640417C117.477 0.679817 118.957 0.645266 120.429 0.645266L129.332 0.627082C129.328 1.97881 129.294 3.33902 129.358 4.68954C126.396 4.60104 123.429 4.77016 120.467 4.68954C120.493 5.6606 120.466 6.64136 120.464 7.61364C123.138 7.68941 125.81 7.63303 128.484 7.67425C128.486 8.93263 128.412 10.2074 128.467 11.4627L120.823 11.4858C120.69 11.4833 120.661 11.4797 120.538 11.5464C120.302 12.1404 120.467 13.9443 120.485 14.6578C121.611 14.5365 122.791 14.5996 123.924 14.5978C125.85 14.5953 127.776 14.5747 129.699 14.6766L129.709 18.5408C125.126 18.479 120.514 18.459 115.932 18.5517C116.102 16.4084 115.978 14.1832 115.967 12.0301C115.959 10.425 116.003 8.81989 116.005 7.21479C116.006 5.02293 115.969 2.83228 116.007 0.640417ZM92.7457 23.5792C93.5854 23.564 94.4794 23.6137 95.3041 23.7695C96.6978 24.0326 98.0164 24.7503 98.8185 25.9662C99.6952 27.2949 99.8634 29.1122 99.5419 30.6518C99.1746 32.4103 98.1363 33.3771 96.702 34.31C97.5614 36.0884 98.9414 37.6741 99.9946 39.3447C98.4048 39.3498 96.815 39.338 95.2254 39.3095C94.7483 38.7731 94.3493 38.13 93.9408 37.5353L92.4153 35.1398C91.7374 35.1012 91.0576 35.1118 90.3811 35.1713C90.3524 36.5659 90.3347 37.9607 90.328 39.3556L86.1236 39.352C86.2143 34.1051 86.1034 28.8491 86.1373 23.601C88.3338 23.6422 90.5505 23.6495 92.7457 23.5792ZM90.3346 31.4616C91.6901 31.375 93.4572 31.7108 94.6267 30.8858C95.0626 30.4888 95.3566 30.0056 95.3817 29.3953C95.4037 28.8503 95.1759 28.2193 94.7966 27.8308C93.8955 26.9088 92.0748 27.1943 90.9047 27.2222C90.7151 27.227 90.5254 27.2355 90.3352 27.2264C90.3191 28.6163 90.4867 30.0851 90.3346 31.4616ZM10.6216 23.6101C12.0386 23.5931 13.4559 23.5911 14.8737 23.604V33.7541C14.8743 35.4417 14.9542 37.1753 14.8582 38.8586C14.851 38.984 14.8451 39.0574 14.7675 39.1598L14.5648 39.1732C13.4317 39.155 12.301 39.2065 11.1673 39.1738C9.03047 36.4061 6.96286 33.5808 4.81056 30.8246C4.78347 33.6092 4.77551 36.3939 4.78671 39.1786C3.41924 39.1653 1.98676 39.0968 0.624057 39.2223C0.554282 35.2501 0.599606 31.2671 0.604973 27.2931C0.606166 26.0668 0.662224 24.8388 0.635388 23.6137C1.87643 23.6259 3.11926 23.6077 4.36031 23.6016L8.00412 28.4139C8.845 29.5371 9.65367 30.7433 10.6174 31.7605C10.6413 29.0437 10.5864 26.3269 10.6216 23.6101ZM34.6773 0.634962C36.3412 0.608897 38.008 0.6289 39.6725 0.630112C40.5313 3.38145 41.727 6.09279 42.7843 8.77079C43.2137 9.85763 43.5364 11.1439 44.0958 12.158C45.6964 8.33617 47.1623 4.45556 48.7438 0.625263L52.0322 0.639811C52.6286 0.645872 53.2452 0.695577 53.8392 0.646479C53.2316 2.09201 52.6018 3.52777 51.9499 4.95322C49.8507 9.43392 48.0598 14.0516 45.9212 18.5172C44.5353 18.496 43.1463 18.516 41.7598 18.5087C41.3167 17.6273 40.994 16.6338 40.6309 15.7131L38.5495 10.4547L36.2803 4.74955C35.7275 3.38449 35.1293 2.03882 34.6767 0.634962M101.847 23.5828C103.221 23.5622 104.6 23.5925 105.975 23.5974C105.861 24.9236 105.956 26.2948 105.979 27.6265C105.993 28.4084 105.948 29.1892 105.967 29.9717C107.899 27.8714 109.637 25.5831 111.705 23.6107C113.334 23.5695 114.966 23.6022 116.595 23.5719C115.839 24.5709 114.876 25.4486 114.021 26.3639C112.827 27.6429 111.672 28.9946 110.412 30.2039C111.269 31.7556 112.963 33.8687 114.043 35.3386C114.99 36.6266 115.897 37.9446 116.763 39.2907C115.083 39.3708 113.369 39.2968 111.686 39.3053C110.417 37.3183 108.938 35.4089 107.5 33.5438C106.977 34.1111 106.394 34.6797 105.94 35.3041C106.029 36.6546 105.911 38.0027 105.992 39.3532C104.581 39.3714 103.171 39.3746 101.762 39.3629C101.833 37.6838 101.759 35.9914 101.734 34.3112C101.711 32.1267 101.7 29.942 101.701 27.7574C101.699 26.4887 101.605 25.1346 101.727 23.8756C101.742 23.7228 101.726 23.6786 101.847 23.5828Z" fill="#C5C8CD"/>
<path d="M74.9316 0.262308C77.1656 0.0974337 79.4795 1.07941 81.3568 2.20746C80.4134 3.36401 79.6369 4.66482 78.7477 5.86683C77.8532 5.20975 76.9526 4.68907 75.8512 4.49691C74.5499 4.27082 73.0709 4.58723 71.9933 5.37099C71.4679 5.75342 71.0223 6.23788 70.6823 6.79637C70.3422 7.35487 70.1144 7.97633 70.0121 8.62484C69.7825 10.099 70.0497 11.5823 70.9281 12.7952C71.1666 13.1197 71.4427 13.4138 71.7505 13.6711C72.2461 14.0806 72.8159 14.3874 73.4275 14.5743C73.6563 14.6439 73.89 14.696 74.1265 14.73C75.9454 15.0064 77.4077 14.1475 78.8169 13.0861L80.1772 15.0834L81.2071 16.5964C79.5397 18.0148 77.6409 18.7931 75.4641 18.9313C72.9284 19.0919 70.2387 18.3118 68.3184 16.5812C66.5579 14.9949 65.4988 12.5909 65.3789 10.2154C65.2525 7.71257 66.0075 5.22067 67.6755 3.34946C69.6137 1.17457 72.1197 0.391419 74.9316 0.262308ZM19.0339 23.5836C22.4487 23.5284 25.8635 23.6454 29.2778 23.6199C29.3171 24.785 29.2778 25.9627 29.2736 27.1296L21.7319 27.1502C21.7456 27.9546 21.711 28.7565 21.7367 29.5627C24.0512 29.5409 26.4015 29.4833 28.7124 29.59C28.6959 30.7521 28.6925 31.9144 28.7023 33.0766C26.3705 33.0184 24.0178 33.0844 21.683 33.0826L21.6741 34.4404C21.6753 34.9027 21.6717 35.3654 21.6633 35.8285C24.3935 35.8164 27.1183 35.7964 29.8485 35.8285C29.8473 36.9511 29.8336 38.0755 29.8753 39.1975C28.3248 39.0884 26.6519 39.1915 25.0889 39.1872C22.5591 39.1812 20.006 39.1109 17.4792 39.2218C17.5567 37.3088 17.4392 35.3751 17.4214 33.4591C17.3951 30.1737 17.4031 26.8883 17.4452 23.603C17.976 23.6102 18.5032 23.6114 19.0339 23.5836ZM122.553 23.3175C124.715 23.2302 127.008 23.9448 128.834 25.1165C128.338 26.2344 127.831 27.3473 127.314 28.4552C126.268 27.9685 125.23 27.4757 124.105 27.2108C123.143 26.9841 122.125 26.835 121.256 27.4333C121.059 27.569 120.9 27.763 120.874 28.0127C120.765 29.085 123.68 29.519 124.436 29.7039C124.998 29.8409 125.562 29.9967 126.103 30.207C126.95 30.5362 127.773 31.0241 128.371 31.7291C129.159 32.6595 129.415 33.9009 129.312 35.1036C129.214 36.2419 128.66 37.3924 127.794 38.1265C126.161 39.5121 123.785 39.6843 121.757 39.5012C119.752 39.4715 117.759 38.4386 116.136 37.3209C116.702 36.1322 117.339 34.9666 117.932 33.7906C119.348 34.7696 120.742 35.677 122.476 35.9073C123.268 36.0122 124.276 36.0207 124.922 35.4769C125.066 35.3557 125.187 35.1921 125.18 34.992C125.142 33.7773 121.147 33.0808 120.157 32.7214C119.374 32.4377 118.603 32.0437 117.958 31.5054C117.145 30.8247 116.625 29.9027 116.54 28.8238C116.443 27.6181 116.834 26.2888 117.613 25.3711C118.864 23.8994 120.723 23.4454 122.553 23.3175ZM30.053 23.6084L43.3204 23.6205C43.1839 24.7516 43.3169 25.9845 43.2739 27.1375L38.7594 27.1405C38.6879 28.057 38.7183 28.9947 38.7183 29.9136L38.7219 34.2931L38.7195 39.1751C37.3108 39.1648 35.8831 39.1266 34.4769 39.2097C34.4459 35.2011 34.5992 31.1641 34.4387 27.1617C32.9937 27.0599 31.4879 27.1362 30.0363 27.135C30.0534 25.9591 30.059 24.7835 30.053 23.6084Z" fill="#C5C8CD"/>
</svg>
