<svg  viewBox="0 0 141 37" fill="none" xmlns="http://www.w3.org/2000/svg">
<path d="M46.0167 9.74724C47.6467 9.68116 49.4249 10.2019 50.7722 11.1409C52.9475 12.6556 54.1959 15.1298 54.648 17.7354C55.1357 20.5532 54.5782 23.5858 52.9533 25.9331C52.5497 26.5199 52.0758 27.0527 51.5426 27.5191C50.3625 28.5495 48.9256 29.2248 47.3919 29.4699C45.3408 29.8142 43.3628 29.2472 41.6881 28.0227C41.6351 30.9806 41.6991 33.9411 41.6642 36.8997C39.6758 37.055 37.5924 36.9063 35.5963 36.8918C35.8337 33.844 35.6804 30.6859 35.6778 27.6268L35.5976 18.917C35.5911 16.9874 35.6493 15.0564 35.604 13.1261C33.1332 18.7459 30.5115 24.3022 28.0038 29.9054C26.8537 32.2335 25.8162 34.633 24.7334 36.9955L18.3925 36.9671C18.9119 35.3474 19.6952 33.8381 20.4281 32.3109L23.0995 26.7169C20.8641 21.1903 18.4022 15.7258 16.2852 10.1537C18.6105 10.2528 20.9417 10.0909 23.2683 10.1649C23.705 11.6538 24.3033 13.1089 24.8505 14.5588C25.441 16.1217 26.0038 17.7176 26.6745 19.2461C28.1519 16.3166 29.1422 13.1102 30.5833 10.151C33.9425 10.1216 37.3018 10.1194 40.661 10.1444C40.9068 10.6698 41.0704 11.2282 41.2483 11.7793C42.7302 10.6195 44.1228 9.85496 46.0167 9.7479M45.8033 24.1238C46.9883 23.5706 47.8072 22.8536 48.2761 21.5683C48.7865 20.1693 48.7354 18.4769 48.1163 17.1209C47.7069 16.2234 47.0445 15.4985 46.1163 15.1661C45.4359 14.9223 44.7561 14.9599 44.0504 15.0121C42.9048 15.5738 42.0931 16.2776 41.6636 17.5484C41.1875 18.96 41.2703 20.8235 41.9106 22.1664C42.3311 23.0453 43.0206 23.7795 43.952 24.0722C44.5517 24.2605 45.1914 24.2328 45.8033 24.1238ZM103.927 0.138672C105.896 0.198147 107.865 0.226783 109.835 0.224581C109.724 1.5337 109.786 2.91683 109.785 4.23322C109.782 6.45099 109.764 8.67867 109.847 10.8945C110.935 10.233 112.205 9.77764 113.474 9.70363C115.577 9.58203 117.6 10.2812 119.162 11.7271C121.111 13.5312 122.062 16.3312 122.184 18.9646C122.332 22.1465 121.583 24.8989 119.471 27.2885C119.311 27.4546 119.143 27.6127 118.968 27.7623C117.735 28.8212 116.206 29.4563 114.599 29.5776C112.25 29.7475 110.358 28.8111 108.631 27.266C108.615 27.8949 108.576 28.523 108.513 29.1488C107.001 29.1328 105.488 29.1282 103.976 29.1349C104.141 19.4754 103.732 9.79614 103.927 0.139333M113.559 24.1323C114.668 23.6896 115.454 22.9098 115.941 21.7903C116.521 20.4561 116.513 18.9157 115.986 17.5676C115.598 16.573 114.925 15.7391 113.934 15.3379C113.398 15.1205 112.917 15.0848 112.352 15.0994C111.286 15.4139 110.573 15.8461 110.029 16.8843C109.325 18.2271 109.291 20.0299 109.733 21.4678C110.03 22.4294 110.614 23.3578 111.503 23.8403C112.189 24.2136 112.805 24.2308 113.559 24.1323Z" fill="#051427"/>
<path d="M12.2921 0.0630529C14.8762 -0.147093 17.1951 0.300293 19.6265 1.17921C19.2759 2.56696 19.2772 6.75469 19.2358 8.43718C18.4079 7.89397 17.4092 7.47434 16.4583 7.2186C14.5734 6.71173 12.4221 6.89479 10.7274 7.92107C9.05857 8.93215 7.91174 10.7309 7.46219 12.6388C6.9512 14.807 7.21963 17.3195 8.37811 19.2339C9.05361 20.3499 10.0159 21.255 11.1601 21.8508C11.4702 22.0133 11.792 22.1514 12.1226 22.2639C12.3428 22.3389 12.5664 22.4028 12.7927 22.4555C15.1297 23.0126 17.2242 22.1641 19.1944 20.9329C19.244 22.5731 19.2612 24.2138 19.2462 25.8549L19.2578 28.5312C18.1679 28.8683 17.078 29.1769 15.9506 29.3586C12.4583 29.9216 8.64589 29.1716 5.7675 27.0126C2.78496 24.7764 1.11614 21.5766 0.563744 17.8753C-0.0792052 13.5666 0.509411 8.88721 3.09738 5.3134C5.36775 2.17839 8.59285 0.62939 12.2921 0.0630529ZM55.8606 0.307563C57.8839 0.31373 59.9072 0.334877 61.9305 0.371003C61.9189 4.18668 61.9268 8.00257 61.9544 11.8187C63.2785 10.4785 64.7352 9.704 66.6355 9.70136C68.2811 9.69938 70.056 10.308 71.2145 11.5352C71.9402 12.3037 72.3548 13.2877 72.5566 14.3239C72.9667 16.4254 72.7022 19.8102 72.7099 22.061C72.7177 24.4017 72.8697 26.7219 72.8231 29.0672C70.7746 29.0725 68.7313 29.1148 66.6821 29.0903C66.6588 26.9829 66.6834 24.8392 66.7358 22.7317C66.7423 20.8404 67.197 16.7188 65.9894 15.2709C65.8889 15.1512 65.7764 15.0427 65.6537 14.9471C65.531 14.8511 65.3992 14.7679 65.2604 14.6986C64.9813 14.561 64.6774 14.4834 64.3678 14.4706C63.6886 14.4369 63.0327 14.6748 62.5502 15.1704C62.0786 15.6555 61.8606 16.278 61.7636 16.9428C61.5612 18.3392 61.8076 19.9034 61.8218 21.3182C61.8477 23.9153 61.7882 26.5117 61.796 29.1082C59.8154 29.0639 57.8154 29.0963 55.8341 29.132C55.644 25.8912 55.8535 22.4568 55.8542 19.1936C55.8542 12.8992 55.7921 6.60204 55.8606 0.306902M81.8102 9.74233C82.1032 9.70863 82.393 9.69806 82.6879 9.69607C84.6181 9.6855 86.6032 10.1884 88.0016 11.6224C90.307 13.9849 90.3542 17.6188 90.3509 20.734L79.25 20.7525C79.4053 21.5713 79.6782 22.3081 80.1996 22.9597C81.0553 24.029 82.3199 24.5385 83.6323 24.6832C86.1724 24.9627 88.1989 24.1393 90.1401 22.5223L90.142 24.253C90.142 25.4372 90.1123 26.6287 90.2086 27.8096C88.9267 28.5506 87.5201 29.0393 86.0618 29.2502C82.9971 29.693 79.3897 29.4181 76.8484 27.4415C74.9357 25.954 73.9007 23.6767 73.5877 21.2805C73.2209 18.4713 73.7293 15.4288 75.4654 13.1589C77.065 11.0667 79.2746 10.0463 81.8102 9.74233ZM79.2255 17.677L83.3736 17.6737L85.3037 17.6374C85.0243 16.4439 84.7662 14.9603 83.6595 14.2631C82.9687 13.8289 82.1634 13.8336 81.3826 13.9175C80.523 14.3233 80.0055 14.8242 79.6666 15.7427C79.4421 16.3507 79.3464 17.04 79.2255 17.677ZM132.077 4.05913C134.106 4.0512 136.135 4.05781 138.164 4.07896V10.0655C138.995 10.1131 139.832 10.0985 140.663 10.1031C140.643 12.0262 140.637 13.9697 140.687 15.8921C139.906 15.9106 139.063 15.867 138.297 16.0216L138.224 16.1868L138.381 16.2582L138.21 16.2701C138.012 17.8323 138.111 19.4936 138.122 21.0704C138.15 23.5825 138.165 26.0947 138.168 28.6072C138.176 28.8015 138.181 28.9198 138.097 29.0963C136.25 29.2965 133.915 29.128 132.02 29.122C131.992 24.7757 131.882 20.3593 132.071 16.0203C131.56 16.0051 131.065 16.0467 130.556 16.093C130.534 14.0884 130.538 12.0839 130.569 10.0794L132.077 10.0879C131.961 8.15104 131.863 5.98217 132.077 4.05913ZM101.228 9.92076C101.666 9.83022 102.255 9.91745 102.707 9.94058C102.731 11.8381 102.724 13.7356 102.687 15.633C102.383 15.5908 102.078 15.5632 101.772 15.5504C100.647 15.5194 99.4499 15.7745 98.6233 16.6058C98.0463 17.186 97.7183 17.9658 97.5534 18.7654C97.2345 20.3151 97.4247 21.946 97.4454 23.5168C97.4622 25.3839 97.4635 27.2508 97.4493 29.1174C96.2746 29.126 92.2248 29.317 91.415 29.0837L91.3632 28.8815L91.382 10.0675C93.2914 10.1983 95.2235 10.1289 97.1362 10.0985C97.1194 10.8169 97.1375 11.5385 97.1433 12.2568C98.2487 10.8426 99.4544 10.1448 101.228 9.92076ZM123.154 10.0516C125.197 10.1487 127.28 10.0741 129.327 10.0807L129.364 20.7208C129.394 23.5175 129.517 26.3313 129.323 29.1227L123.085 29.1326C123.036 25.1577 123.113 21.1867 123.137 17.2124C123.152 14.8242 123.092 12.4412 123.154 10.0523M125.428 0.178699C125.877 0.111455 126.334 0.122628 126.78 0.211741C126.97 0.249797 127.157 0.302371 127.34 0.36902C127.523 0.435475 127.701 0.515882 127.872 0.609565C127.93 0.640404 127.986 0.672785 128.041 0.706708C128.152 0.774498 128.26 0.847943 128.365 0.926767C128.416 0.965977 128.467 1.00651 128.518 1.04836C129.046 1.49095 129.453 2.06535 129.7 2.7159C129.947 3.36646 130.025 4.07112 129.927 4.7616C129.89 5.02368 129.828 5.28123 129.74 5.53016C129.697 5.65462 129.647 5.77681 129.592 5.89626C129.536 6.01562 129.475 6.13248 129.41 6.2465C129.345 6.36094 129.273 6.47128 129.195 6.57692C129.157 6.62979 129.117 6.68178 129.076 6.73288C128.831 7.04138 128.542 7.31049 128.218 7.53117C128.111 7.60508 128 7.67345 127.886 7.73603C127.772 7.79878 127.655 7.85569 127.536 7.90653C127.416 7.95656 127.294 8.00132 127.17 8.04068C127.047 8.07966 126.921 8.1123 126.795 8.13848C126.604 8.17789 126.411 8.20263 126.217 8.21249C125.958 8.22562 125.698 8.21345 125.441 8.17615C124.732 8.07095 124.064 7.7703 123.509 7.30649C123.409 7.22291 123.313 7.13425 123.221 7.04083C123.13 6.94689 123.043 6.849 122.96 6.74742C122.753 6.49228 122.578 6.21166 122.44 5.91212C122.356 5.73275 122.285 5.54719 122.229 5.35702C122.21 5.29353 122.192 5.22963 122.176 5.16538C122.096 4.8443 122.055 4.51413 122.056 4.18271C122.055 3.91802 122.08 3.65391 122.131 3.39433C122.168 3.19946 122.22 3.00772 122.285 2.82073C122.329 2.69636 122.379 2.574 122.433 2.45396C122.489 2.33459 122.55 2.21774 122.616 2.10372C122.681 1.98928 122.753 1.87895 122.831 1.7733C122.909 1.66731 122.991 1.56479 123.077 1.46601C123.164 1.36777 123.256 1.27404 123.352 1.18515C123.785 0.78346 124.3 0.484481 124.86 0.309545C125.046 0.251465 125.236 0.207727 125.428 0.178699Z" fill="#051427"/>
</svg>
