<svg  viewBox="0 0 89 70" fill="none" xmlns="http://www.w3.org/2000/svg">
<path d="M4.4816 1.08876C9.09665 1.95414 13.4517 4.03576 16.7692 7.40539C21.0431 11.7454 23.2524 17.3804 23.1756 23.4634C23.15 25.1006 22.9481 26.7303 22.5736 28.324C22.364 29.2087 22.1018 30.08 21.7882 30.9333C21.5387 31.6161 21.2553 32.286 20.9392 32.9405C20.4652 33.9225 19.9214 34.8691 19.3119 35.7729C18.9051 36.375 18.4698 36.9573 18.0074 37.5176C17.6597 37.9372 17.2977 38.3447 16.9219 38.7391C16.7968 38.8704 16.67 38.9999 16.5415 39.1276C13.326 42.5384 8.95529 44.578 4.4022 45.4136C4.57759 41.6975 4.41092 37.8921 4.41092 34.1681C4.36613 26.1706 4.39871 18.174 4.50865 10.1783C4.52261 8.2521 4.51156 6.32622 4.4755 4.40064C4.45717 3.31826 4.34635 2.15801 4.4816 1.08876ZM84.6058 0.954012C84.9312 0.923387 85.0037 0.873512 85.2733 1.04851C85.5813 1.93226 85.3361 10.9421 85.3353 12.7639L85.3483 45.5536C80.9375 44.7399 76.9542 42.5139 73.6907 39.4619C70.6367 36.6794 68.4911 32.6544 67.4588 28.6731C66.0016 23.0539 66.9466 16.7661 69.8889 11.7856C73.1768 6.22151 78.3896 2.52376 84.6058 0.954012ZM23.9514 0.0475119C25.0936 -0.0137381 26.2611 0.0921369 27.4076 0.0781369C30.7891 0.0198036 34.171 0.00055358 37.5531 0.0203869C47.041 -0.028294 56.5292 0.0102076 66.0164 0.135887C65.0461 4.95364 63.102 8.70739 59.8735 12.3859C58.8836 13.3728 57.7993 14.2596 56.6363 15.0336C55.705 15.6514 54.7268 16.1947 53.7105 16.6585C52.9478 17.0043 52.1658 17.3058 51.3685 17.5615C50.5701 17.8144 49.7579 18.0209 48.9358 18.1801C48.318 18.298 47.6952 18.388 47.0694 18.4496C46.7213 18.4839 46.3725 18.5089 46.0231 18.5249C45.3245 18.5568 44.6248 18.5551 43.9263 18.5196C43.0532 18.4717 42.1837 18.3712 41.3226 18.2186C40.462 18.0642 39.6119 17.8558 38.7773 17.5948C38.2762 17.4393 37.7813 17.2641 37.2939 17.0698C36.4806 16.7476 35.6882 16.3747 34.9214 15.9533C34.4619 15.6998 34.0116 15.4299 33.5715 15.1439C33.1317 14.8562 32.7024 14.5527 32.2845 14.2339C31.8625 13.9173 31.4521 13.5854 31.0541 13.239C30.6567 12.8923 30.2725 12.5307 29.9023 12.1549C29.5309 11.7803 29.1743 11.3912 28.8334 10.9885C28.0341 10.0507 27.3187 9.04404 26.6956 7.98026C26.1624 7.06858 25.6958 6.11934 25.2995 5.14001C24.972 4.32254 24.694 3.48598 24.4671 2.63489C24.2412 1.78412 24.069 0.919957 23.9514 0.0475119ZM43.5895 27.1935C44.159 27.1618 44.7295 27.1515 45.2998 27.1629C46.1555 27.1805 47.0095 27.2485 47.8573 27.3668C48.7049 27.4859 49.545 27.653 50.3738 27.8673C51.2021 28.0833 52.0171 28.348 52.8144 28.66C53.6114 28.9729 54.3901 29.3308 55.1468 29.7319C55.6506 30.0003 56.1437 30.2884 56.6249 30.5955C61.9502 34.0439 65.157 39.2029 66.4868 45.3629C59.7383 45.544 52.9488 45.3979 46.1959 45.3979C42.7274 45.3366 39.2616 45.4408 35.7948 45.3979L28.7819 45.3786C27.0403 45.3778 25.289 45.3261 23.5543 45.4959C24.0971 42.0571 25.3326 38.9316 27.4338 36.1378C31.712 30.4476 36.7119 28.1648 43.5895 27.1935ZM79.8057 56.3739C80.3834 56.345 81.0003 56.2908 81.5701 56.4036C82.0046 56.4903 82.338 56.6696 82.6119 57.0214C83.461 58.1081 83.9871 59.6088 84.5351 60.8688C85.8553 63.905 86.9835 66.9981 88.8439 69.7509C87.2663 69.8883 85.5927 69.918 84.0177 69.722L83.9086 69.5768C84.1093 69.1813 84.4967 68.9275 84.8344 68.6528C84.426 67.4908 84.0159 66.3428 83.4008 65.2718C81.797 65.2735 80.1792 65.4258 78.5798 65.2674C78.1191 66.3148 77.6322 67.4173 77.3337 68.5224C77.6959 68.9625 78.1348 69.3291 78.558 69.7089C77.2282 69.8506 75.9053 69.7876 74.5703 69.7894C73.1175 69.7911 71.6655 69.8559 70.2144 69.7544C68.7022 67.93 67.5208 65.7268 66.3349 63.688L64.9441 63.6854C64.9057 65.3771 64.9155 67.0687 64.9737 68.7604C65.2556 68.9109 65.5671 69.0526 65.8 69.2749C65.9685 69.4359 65.9152 69.3458 65.9205 69.6135L65.6124 69.7675C63.9336 69.7821 62.2554 69.7786 60.5777 69.757L61.7906 68.9223C62.1082 67.5494 62.1265 66.1826 62.1431 64.78C62.1605 63.3179 62.4083 59.1529 61.9424 57.99C61.6937 57.3661 61.1841 56.9138 60.7243 56.4413C63.0558 56.408 66.8087 56.128 68.9989 56.66C69.9675 56.8963 70.8906 57.3486 71.4159 58.2376C71.9281 59.1056 71.9779 60.2711 71.6943 61.2231C71.2903 62.5794 70.3505 63.2461 69.1752 63.8796C70.4474 65.5946 72.2178 68.5749 74.1227 69.5068C74.5188 69.3102 74.9123 69.1078 75.3033 68.8995C76.7866 66.2728 79.4166 60.4978 80.2429 57.5901C79.9148 57.2471 79.4262 57.0424 79.2098 56.6128C79.4236 56.3739 79.5012 56.4229 79.8057 56.3739ZM64.9397 62.862C66.1613 62.8699 67.1552 62.8883 68.2014 62.1568C68.7057 61.4471 69.142 60.6719 68.978 59.7671C68.868 59.1573 68.4719 58.6681 67.9649 58.3321C67.0574 57.7284 66.0147 57.6523 64.9589 57.6549L64.9397 62.862ZM79.0527 64.2218L81.2202 64.2148L82.9758 64.2078C82.5413 63.1184 81.7673 60.4365 80.9863 59.7593L79.0527 64.2218ZM49.8895 56.2453C52.0814 56.0939 54.2472 56.359 56.0569 57.6995C56.3319 57.9047 56.5915 58.1299 56.8335 58.3733C57.3969 58.9436 57.8582 59.6069 58.1973 60.3341C58.4859 60.9583 58.6811 61.6217 58.7767 62.3029C58.8633 62.9381 58.8554 63.5827 58.7531 64.2156C58.6157 65.0604 58.3104 65.8689 57.8553 66.593C57.7411 66.7732 57.6188 66.9481 57.4888 67.1171C56.1241 68.882 54.1555 69.6896 52.0003 69.9539C49.6731 70.079 47.2378 69.8314 45.3425 68.3343C44.0223 67.2904 43.1899 65.8598 42.9927 64.185C42.7728 62.3143 43.2981 60.3306 44.4865 58.8615C45.8146 57.2183 47.8494 56.4658 49.8895 56.2453ZM51.2324 68.8741C52.6233 68.6624 53.7315 68.1995 54.5831 67.0121C55.6319 65.5483 55.8318 63.5839 55.5037 61.8496C55.2314 60.4146 54.5613 58.9954 53.3292 58.1484C52.55 57.6146 51.7088 57.437 50.7804 57.3766C49.386 57.5516 48.1836 57.9603 47.2683 59.0969C46.1732 60.4566 45.8547 62.4131 46.0816 64.1141C46.2771 65.5684 46.873 67.0139 48.0597 67.9318C49.01 68.6668 50.0597 68.8698 51.2324 68.8741ZM15.0511 56.548L13.8819 57.43C13.9054 60.3219 13.7614 63.2243 13.7675 66.1214C13.7702 67.3551 13.7134 68.6361 13.8914 69.8594C13.2632 69.8655 12.6332 69.855 12.0041 69.8524C8.85931 66.6928 5.82624 63.2496 2.95372 59.8389C3.05494 61.9056 2.63523 66.7969 3.04273 68.4655C3.10032 68.7018 3.2408 68.8803 3.38914 69.0658C3.52526 69.2364 3.6544 69.4105 3.78616 69.5838L3.73032 69.7614L3.30014 69.8725C2.36087 69.8865 1.42159 69.8462 0.486956 69.7518C0.676305 69.5943 0.890085 69.4298 1.0454 69.2408C1.96597 68.1243 1.64312 59.775 1.54801 57.8369C1.07346 57.4154 0.6094 56.9821 0.15625 56.5375L3.46942 56.5655C4.96414 57.7949 6.25642 59.3568 7.53998 60.8005C9.20049 62.6704 10.8671 64.5324 12.4081 66.5029C12.4089 64.6558 12.628 59.7566 12.3034 58.3138C12.1891 57.8036 11.6716 57.1631 11.4037 56.7073L11.5102 56.4833C12.6917 56.4168 13.8714 56.4876 15.0511 56.548ZM37.6412 56.4439C38.9466 56.4771 40.2467 56.5428 41.5512 56.4526L41.5844 56.6241C41.1167 57.3346 40.2781 57.8553 39.7197 58.5325C38.6647 59.8126 37.7764 61.2468 36.8183 62.6013C38.019 64.2086 38.9352 66.0208 40.1664 67.6089C40.5774 68.1391 42.0538 69.3869 42.1943 69.6599L41.9133 69.8174C40.738 69.9329 38.7319 70.1315 37.6063 69.8751C37.4169 69.8314 37.3471 69.8358 37.2477 69.6608C37.0644 69.3396 37.3724 68.8759 37.2136 68.4909C36.6822 67.2038 35.6168 65.8983 34.8481 64.7336C34.4694 65.3033 32.0044 68.4594 32.1056 68.903C32.185 69.253 32.5637 69.2399 32.5244 69.6905C31.8176 70.0921 29.0777 69.8043 28.1319 69.7544C30.8089 68.56 32.1579 65.5553 33.9249 63.3581C32.2539 60.9431 30.7923 58.5701 28.7505 56.436C30.5585 56.4512 32.3665 56.4526 34.1744 56.4404C33.9703 56.8271 33.7085 57.1771 33.4572 57.5341C34.1989 58.7329 35.0208 59.8879 35.814 61.0525C36.7802 59.8754 37.7247 58.6816 38.6473 57.4711L37.6412 56.4439ZM17.0353 56.4728C20.1496 56.2216 23.4226 56.4185 26.5543 56.422C26.6188 57.4108 26.6371 58.3628 26.5612 59.3506L26.1625 58.7338C26.0359 58.536 25.9234 58.3356 25.7445 58.1799C24.68 57.2471 22.4392 57.6418 21.0989 57.6698C21.1001 59.1812 21.1138 60.6926 21.1399 62.204L24.2411 62.1918C24.5726 61.8085 24.9304 61.4498 25.2829 61.0858C25.2323 62.1804 25.1442 63.2759 25.0735 64.3696C24.8248 64.0529 24.5613 63.7466 24.3056 63.436C23.2446 63.4185 22.1829 63.4144 21.1207 63.4238C21.1042 64.7433 21.1233 66.0654 21.1268 67.3849L21.1722 68.5206C22.7516 68.5828 24.9313 68.8881 26.3666 68.098C26.9138 67.7961 27.3326 67.3499 27.9076 67.083L28.0123 67.1985C27.9225 68.0726 27.3972 69.0273 27.0577 69.8358C25.8169 69.7456 24.5395 69.8314 23.2943 69.8498C21.1565 69.8988 19.019 69.902 16.8818 69.8594C17.3617 69.3186 17.846 68.7893 18.2517 68.1881C18.4367 66.9369 18.3171 65.6165 18.3294 64.353C18.3503 62.1043 18.4873 59.8293 18.2369 57.5919C17.7796 57.2419 17.216 57.0538 17.0353 56.4728Z" fill="#C5C8CD"/>
</svg>
