<svg width="164" height="162" viewBox="0 0 164 162" fill="none" xmlns="http://www.w3.org/2000/svg">
<g clip-path="url(#clip0_95_12849)">
<g filter="url(#filter0_d_95_12849)">
<path d="M122.362 101.051C118.466 106.831 112.663 111.449 105.257 114.044C104.261 114.395 103.282 114.693 102.252 114.98C96.1493 116.597 89.6875 116.723 83.3738 115.591C79.2829 114.869 75.304 113.616 71.5384 111.861C64.7549 108.784 58.5213 104.217 53.6299 98.3869C51.307 95.6719 49.3025 92.6999 47.6555 89.529C45.7911 85.95 44.444 82.3168 43.6514 78.688C41.4813 68.7037 43.2893 58.9203 48.4738 51.2546L42.0047 60.8964C36.8163 68.5608 35.0096 78.3467 37.2122 88.3125C37.9736 91.956 39.3207 95.5892 41.1813 99.1668C41.4918 99.7629 41.8335 100.344 42.1791 100.921C43.6247 103.453 45.318 105.811 47.1404 108.019C52.0555 113.772 58.1748 118.375 65.0654 121.502C68.8199 123.262 72.7889 124.521 76.8709 125.249C83.2006 126.414 89.6438 126.256 95.7466 124.639C103.924 122.38 111.019 117.881 115.859 110.709L122.362 101.051Z" fill="#F3A250"/>
<path d="M123.147 62.794C112.196 41.8503 86.4289 30.8517 65.5568 38.2292C44.7358 45.6206 36.7184 68.6154 47.6525 89.5291C58.6013 110.474 84.4035 121.453 105.254 114.044C126.094 106.685 134.101 83.7364 123.147 62.794Z" fill="#FFD475"/>
<path d="M66.2254 40.1353C47.3534 46.4586 38.7129 68.1226 49.4281 88.5938C59.9032 108.658 84.6561 119.238 104.582 112.162C114.595 108.543 121.371 101.369 124.359 92.4881C127.381 83.4387 126.32 73.2089 121.365 63.7415C110.89 43.6774 86.1375 33.0976 66.2254 40.1353ZM114.63 88.1586C112.163 95.5138 106.484 100.953 99.359 103.402C84.5285 108.671 66.1369 100.861 58.3595 86.0232C50.6884 71.3162 55.7859 54.6937 71.4334 48.87C86.2762 43.627 104.654 51.4692 112.432 66.3069C116.167 73.465 116.95 81.2288 114.63 88.1586Z" fill="#FFB961"/>
<path d="M110.559 67.2388C113.245 72.3815 114.207 77.7048 113.674 82.6244C113.605 83.4189 113.486 84.1738 113.315 84.9532C113.085 86.078 112.753 87.1877 112.358 88.2318C112.18 88.7287 111.964 89.2118 111.722 89.7072C111.64 89.9366 111.52 90.1522 111.425 90.3555C111.183 90.851 110.929 91.3205 110.649 91.8022C108.039 96.0847 103.984 99.5268 98.6278 101.426C96.8618 102.046 95.0368 102.484 93.1814 102.732L92.4483 102.793C91.9336 102.846 91.4189 102.899 90.8797 102.9C89.2732 103.034 86.6869 102.829 85.0055 102.631C84.7625 102.587 84.4936 102.555 84.2383 102.485C74.4415 100.77 65.144 94.4042 60.2508 85.0666C57.5623 79.9534 56.6805 74.5856 57.0354 70.6172C57.2919 67.2797 58.0385 65.4215 58.0226 65.3878C58.0513 65.2472 58.0937 65.0684 58.1484 64.9155C60.2459 58.5163 65.1899 53.3424 72.1927 50.8428C73.7192 50.3112 75.2812 49.9216 76.8786 49.674C77.6131 49.5488 78.3722 49.4755 79.1312 49.4022C80.3012 49.325 81.4698 49.312 82.637 49.3631C83.4192 49.4058 84.2137 49.4745 84.9945 49.5814C95.3268 50.8853 105.406 57.4205 110.559 67.2388Z" fill="#F3A250"/>
<path d="M102.25 114.98C96.1473 116.597 89.6855 116.723 83.3718 115.592L76.8676 125.253C83.1998 126.417 89.6431 126.259 95.7459 124.642L102.25 114.98ZM71.5364 111.862C64.7529 108.784 58.5193 104.218 53.6279 98.3874L47.1371 108.024C52.053 113.777 58.1733 118.379 65.0647 121.505L71.5364 111.862ZM43.6469 78.6897L37.2128 88.3118C37.9743 91.9553 39.3214 95.5884 41.1819 99.166C41.4925 99.7621 41.8341 100.343 42.1797 100.92L48.6337 91.3263C48.2907 90.7488 47.9642 90.119 47.6537 89.523C45.7905 85.9466 44.4422 82.3108 43.6508 78.6846L43.6469 78.6897Z" fill="#DD8536"/>
<path opacity="0.7" d="M73.4139 91.5945C76.835 94.0815 79.9633 95.3386 79.0508 96.7387C78.1475 98.1248 74.5815 97.2779 71.1577 94.7922C67.734 92.3064 66.2827 89.2114 67.186 87.8253C68.0985 86.4253 69.9902 89.1087 73.4139 91.5945ZM63.3761 83.2076C64.0727 82.7607 65.1456 83.1898 65.7745 84.1433C66.4033 85.0968 66.3505 86.2203 65.65 86.6723C64.9689 87.1119 63.9046 86.701 63.2758 85.7475C62.6495 84.7928 62.6899 83.6497 63.3773 83.2102L63.3761 83.2076Z" fill="white"/>
<path d="M81.5352 78.7766L57.0912 69.9239C57.0153 70.871 56.9635 71.3655 56.9875 72.3225L80.7559 80.955C80.8706 80.996 80.9579 81.1134 80.9933 81.2554L84.2379 102.485C84.4931 102.555 84.762 102.587 85.005 102.631C85.5429 102.694 86.0807 102.757 86.6063 102.794L83.2707 80.9084C83.0992 79.9418 82.4647 79.1307 81.5352 78.7766ZM88.3671 75.1639C88.2525 75.1229 88.1652 75.0055 88.1297 74.8635L84.4854 51.1238C83.7046 51.0169 82.9101 50.9482 82.1279 50.9055L85.8471 75.2129C86.0186 76.1796 86.6557 76.9895 87.5852 77.3435L112.806 86.4956C112.977 85.7162 113.096 84.9613 113.165 84.1668L88.3671 75.1639ZM90.0181 81.876C88.5209 81.2951 86.9836 82.6161 87.2469 84.1393L90.1241 102.908C90.3808 102.913 90.6348 102.92 90.8818 102.899C91.4184 102.899 91.9357 102.845 92.4504 102.792L89.5704 84.1515L110.651 91.801C110.931 91.3192 111.183 90.851 111.428 90.3543C111.522 90.151 111.639 89.9366 111.724 89.706L90.0181 81.876ZM76.372 51.2151L79.5526 71.9674L58.4717 64.3179L58.0247 65.3866C58.037 65.4125 58.0084 65.426 57.9948 65.4643C57.872 65.7957 57.7786 66.1374 57.7157 66.4853L79.1023 74.2441C79.8025 74.5162 80.563 74.3787 81.138 73.9162C81.4177 73.685 81.6326 73.385 81.7615 73.0457C81.8904 72.7064 81.929 72.3395 81.8735 71.9808L78.6221 50.9445C77.863 51.0178 77.104 51.0912 76.3694 51.2164L76.372 51.2151Z" fill="#DD8536"/>
<path d="M82.0448 77.234L57.3333 68.2856C57.1855 69.054 57.0812 69.8336 57.0385 70.6158L81.2629 79.4136C81.3775 79.4546 81.4648 79.5721 81.5003 79.7141L85.0059 102.63C85.7867 102.737 86.5812 102.806 87.3635 102.849L83.7803 79.3658C83.6088 78.3992 82.9717 77.5893 82.0422 77.2352L82.0448 77.234ZM88.8741 73.6226C88.7594 73.5815 88.6721 73.4641 88.6367 73.3221L84.995 49.5812C84.2142 49.4743 83.4197 49.4056 82.6375 49.3629L86.3567 73.6704C86.5282 74.637 87.1653 75.4469 88.0948 75.801L113.315 84.953C113.486 84.1736 113.606 83.4187 113.674 82.6242L88.8741 73.6226ZM87.7539 82.5979L90.8801 102.9C91.6637 102.878 92.4228 102.805 93.1819 102.732L90.0774 82.6101L111.426 90.3553C111.762 89.6565 112.098 88.9578 112.358 88.2316L90.5251 80.3346C89.0305 79.7525 87.4944 81.0761 87.7539 82.5979ZM76.8816 49.6725L80.0622 70.4248L58.9813 62.7753C58.6833 63.4878 58.3853 64.2002 58.1514 64.9141L79.6145 72.7003C81.1091 73.2824 82.6464 71.9615 82.3857 70.437L79.1343 49.4007C78.3752 49.474 77.6161 49.5473 76.8816 49.6725Z" fill="#FFD475"/>
<path d="M110.558 67.2389C113.244 72.3816 114.206 77.7049 113.673 82.6245C113.643 82.8293 113.639 83.0218 113.582 83.2388C113.534 83.6743 113.46 84.122 113.374 84.5438C113.359 84.6462 113.33 84.7868 113.276 84.9396C113.046 86.0644 112.739 87.1618 112.318 88.2183C112.168 88.6387 111.993 89.0071 111.83 89.4016C111.917 88.9798 112.003 88.558 112.051 88.1225C112.204 86.9704 112.307 85.7787 112.282 84.5842C112.274 83.7623 112.242 82.8886 112.106 82.064C111.768 78.7314 110.75 75.3712 109.025 72.0597C104.28 62.9692 95.3021 56.675 85.792 54.76C84.9867 54.6012 84.1936 54.4684 83.3868 54.3737C82.2172 54.2287 81.0393 54.1601 79.8607 54.1684C79.0978 54.1449 78.3343 54.1668 77.574 54.2341C67.9549 55.0218 60.8599 60.159 57.4319 67.6988C57.7432 66.0078 58.2666 64.3628 58.9894 62.8028L59.0154 62.7905C61.3923 57.4117 65.942 53.0688 72.1916 50.8428C73.7182 50.3112 75.2801 49.9217 76.8775 49.6741C77.2516 49.5923 77.612 49.5489 77.9847 49.5313C78.3711 49.4755 78.7698 49.4457 79.1302 49.4022C80.3002 49.3251 81.4688 49.312 82.636 49.3632C82.7643 49.366 82.8667 49.381 82.995 49.3838C83.6489 49.4238 84.341 49.4774 84.9935 49.5815C95.3257 50.8854 105.405 57.4205 110.558 67.2389Z" fill="#DD8536"/>
<path d="M77.9882 49.53C77.6155 49.5475 77.2551 49.591 76.881 49.6727L77.5775 54.2327C78.3365 54.1594 79.0942 54.1503 79.8642 54.1671L79.1336 49.4009C78.7732 49.4444 78.3746 49.4742 77.9882 49.53ZM112.054 88.1212C112.006 88.5567 111.917 88.9797 111.834 89.4003C111.994 89.007 112.171 88.6373 112.319 88.2181L112.054 88.1212ZM82.9984 49.3825C82.8675 49.3809 82.7651 49.3659 82.6394 49.3618L83.3903 54.3724C84.197 54.467 84.9901 54.5999 85.7955 54.7587L84.9969 49.5802C84.3444 49.4761 83.6497 49.4237 82.9984 49.3825Z" fill="#FFB961"/>
<path d="M66.3916 45.4368C65.0338 43.5867 62.3987 42.9091 60.5009 43.9243C58.6108 44.9359 58.18 47.2605 59.534 49.1093C60.8917 50.9594 63.5294 51.6358 65.4234 50.6192C67.3161 49.6064 67.7467 47.2882 66.3916 45.4368Z" fill="#F3A250"/>
<path d="M65.8356 45.7213C66.9569 47.2864 66.6063 49.2302 65.032 50.0702C63.4343 50.9212 61.2258 50.3466 60.0908 48.8198C58.9694 47.2547 59.32 45.3109 60.8917 44.4721C62.4894 43.6211 64.698 44.1957 65.833 45.7226L65.8356 45.7213Z" fill="#F3F1FC"/>
<path d="M62.6061 50.3896C65.713 49.5073 65.0376 45.0389 61.4176 44.2525C62.9337 43.7322 64.8126 44.3484 65.8326 45.7328C67.6675 48.2494 65.4708 51.0157 62.6061 50.3896Z" fill="#DEDFFB"/>
<path d="M54.2985 62.2688C53.3648 60.4562 51.1583 59.4965 49.3638 60.1263C47.5758 60.7562 46.8803 62.7425 47.8127 64.5525C48.7463 66.3652 50.9568 67.3198 52.7474 66.6887C54.5393 66.0602 55.2321 64.0815 54.2985 62.2688Z" fill="#F3A250"/>
<path d="M53.7854 62.449C53.0009 60.9247 51.1427 60.1177 49.6342 60.6471C48.1295 61.1779 47.5449 62.8482 48.3282 64.37C49.114 65.897 50.9735 66.7001 52.4808 66.1681C53.9867 65.6399 54.57 63.9734 53.7854 62.449Z" fill="#F3F1FC"/>
<path d="M53.7746 62.444C55.0381 64.907 52.7991 67.1409 50.1399 66.0365C53.3801 66.1072 53.6735 61.7806 50.5688 60.4996C51.8535 60.4635 53.1459 61.2491 53.7746 62.444Z" fill="#DEDFFB"/>
<path d="M56.6453 85.105C56.1734 83.0803 54.229 81.5807 52.2993 81.7569C50.3748 81.937 49.1918 83.7253 49.6626 85.7473C50.1345 87.772 52.0815 89.2704 54.0113 89.0878C55.9395 88.9154 57.1173 87.1296 56.6453 85.105Z" fill="#F3A250"/>
<path d="M56.1042 85.1544C55.7063 83.4407 54.061 82.1775 52.4324 82.3255C50.8051 82.4762 49.8054 83.9873 50.2046 85.6971C50.6012 87.4082 52.2477 88.674 53.8777 88.5221C55.5063 88.3741 56.5046 86.8668 56.1042 85.1544Z" fill="#F3F1FC"/>
<path d="M56.1033 85.1555C56.6692 87.5802 54.4531 89.3524 52.1222 88.1499C52.2628 88.1786 52.4048 88.1432 52.5331 88.146C55.4543 87.8914 55.6413 83.7897 52.827 82.3237C54.315 82.3819 55.7396 83.5813 56.1033 85.1555Z" fill="#DEDFFB"/>
<path d="M71.9129 101.982C70.8777 100.236 68.5951 99.4044 66.809 100.125C65.0266 100.848 64.4219 102.852 65.4559 104.595C66.4911 106.34 68.7762 107.171 70.5611 106.447C72.3421 105.728 72.9493 103.73 71.9129 101.982Z" fill="#F3A250"/>
<path d="M71.3641 102.203C70.506 100.752 68.6094 100.064 67.1263 100.661C65.6484 101.262 65.146 102.925 66.0029 104.374C66.8623 105.822 68.7602 106.511 70.2407 105.91C71.7212 105.314 72.2221 103.655 71.3641 102.203Z" fill="#F3F1FC"/>
<path d="M71.3695 102.191C72.2233 103.661 71.7377 105.319 70.2357 105.903C69.6008 106.171 68.8431 106.18 68.1415 105.973C68.3859 105.952 68.6057 105.88 68.8256 105.808C70.2894 105.211 70.8008 103.54 69.9334 102.109C69.4505 101.289 68.6672 100.707 67.7991 100.483C69.1384 100.294 70.6261 100.956 71.3695 102.191Z" fill="#DEDFFB"/>
<path d="M91.8088 107.004C90.1368 105.671 87.6107 105.707 86.1684 107.081C84.7274 108.458 84.9183 110.654 86.5891 111.984C88.2637 113.316 90.7899 113.28 92.2335 111.902C93.6731 110.529 93.4834 108.336 91.8088 107.004Z" fill="#F3A250"/>
<path d="M91.7452 111.507C90.5366 112.65 88.4067 112.705 87.019 111.583C85.6026 110.475 85.4508 108.61 86.6594 107.467C87.8681 106.324 89.9694 106.282 91.3857 107.39C92.7857 108.538 92.9513 110.365 91.7452 111.507Z" fill="#F3F1FC"/>
<path d="M88.2003 112.199C91.6865 112.119 92.6029 107.894 88.9392 106.579C89.787 106.559 90.6796 106.836 91.3865 107.39C94.1676 109.672 91.5927 113.297 88.2003 112.199Z" fill="#DEDFFB"/>
<path d="M113.025 102.045C111.725 100.269 109.194 99.6184 107.377 100.589C105.562 101.565 105.148 103.796 106.447 105.569C107.75 107.344 110.283 107.994 112.098 107.018C113.915 106.047 114.332 103.821 113.025 102.045Z" fill="#F3A250"/>
<path d="M112.522 102.314C111.417 100.811 109.278 100.261 107.737 101.085C106.199 101.908 105.846 103.799 106.949 105.299C108.054 106.803 110.196 107.351 111.737 106.527C113.275 105.705 113.624 103.818 112.522 102.314Z" fill="#F3F1FC"/>
<path d="M108.926 106.682C112.395 106.666 112.825 101.916 109.146 100.704C110.39 100.655 111.715 101.235 112.513 102.318C114.429 104.885 111.904 107.749 108.926 106.682Z" fill="#DEDFFB"/>
<path d="M123.95 87.0634C123.207 85.002 120.98 83.6709 118.97 84.0853C116.965 84.5064 115.942 86.5176 116.683 88.5739C117.426 90.6353 119.659 91.9665 121.667 91.5469C123.674 91.131 124.696 89.1236 123.95 87.0634Z" fill="#F3A250"/>
<path d="M123.324 87.1936C122.707 85.4855 120.862 84.3835 119.2 84.7311C117.541 85.0749 116.692 86.7434 117.307 88.4463C117.923 90.1519 119.769 91.2501 121.432 90.905C123.094 90.56 123.941 88.8992 123.324 87.1936Z" fill="#F3F1FC"/>
<path d="M123.335 87.1991C124.234 89.6952 121.981 91.586 119.765 90.793C119.791 90.7807 119.852 90.7834 119.878 90.7711C122.917 90.1531 122.513 85.7972 119.426 84.6924C121.035 84.4708 122.74 85.544 123.333 87.2003L123.335 87.1991Z" fill="#DEDFFB"/>
<path d="M121.198 65.5428C120.467 63.5292 118.288 62.2235 116.322 62.6325C114.363 63.0417 113.361 65.0111 114.087 67.0233C114.813 69.0394 116.997 70.3427 118.962 69.931C120.925 69.5232 121.924 67.5615 121.198 65.5428Z" fill="#F3A250"/>
<path d="M120.576 65.6743C119.975 64.0089 118.175 62.9335 116.55 63.2704C114.931 63.6074 114.106 65.2327 114.708 66.8943C115.304 68.5584 117.108 69.6325 118.732 69.293C120.351 68.9586 121.176 67.3397 120.576 65.6743Z" fill="#F3F1FC"/>
<path d="M120.581 65.6726C121.537 68.3511 118.852 70.3261 116.352 68.8542C118.114 69.0621 119.782 67.3332 118.998 65.1515C118.682 64.3486 118.134 63.6549 117.386 63.215C118.758 63.2962 120.082 64.2893 120.581 65.6726Z" fill="#DEDFFB"/>
<path d="M106.179 48.2604C105.059 46.6183 102.801 45.9528 101.133 46.774C99.4662 47.594 99.0233 49.591 100.142 51.2305C101.258 52.8712 103.518 53.5355 105.186 52.7117C106.853 51.8943 107.296 49.9037 106.179 48.2604Z" fill="#F3A250"/>
<path d="M105.662 48.5146C104.733 47.154 102.863 46.6035 101.482 47.282C100.101 47.9606 99.7327 49.6177 100.657 50.9744C101.586 52.335 103.458 52.8881 104.839 52.2031C106.221 51.5271 106.588 49.8738 105.661 48.512L105.662 48.5146Z" fill="#F3F1FC"/>
<path d="M105.664 48.5037C107.29 50.8938 104.842 53.3028 102.296 52.2561C105.418 52.0238 105.509 48.1614 102.539 46.9976C103.709 46.9204 104.965 47.5012 105.664 48.5037Z" fill="#DEDFFB"/>
<path d="M85.8288 40.5756C84.3488 39.0913 81.8739 38.8396 80.3025 40.0147C78.7335 41.195 78.6633 43.3555 80.1394 44.8384C81.6233 46.3241 84.0995 46.572 85.6723 45.3931C87.2437 44.218 87.3126 42.0613 85.8288 40.5756Z" fill="#F3A250"/>
<path d="M85.3067 40.9684C84.0981 39.7557 82.0805 39.5512 80.7949 40.5118C79.5158 41.4724 79.4581 43.2365 80.6655 44.4465C81.8741 45.6592 83.893 45.8598 85.1748 44.898C86.459 43.9413 86.5153 42.181 85.3067 40.9684Z" fill="#F3F1FC"/>
<path d="M85.1887 44.8854C84.484 45.4092 83.5271 45.6079 82.6193 45.434C85.4806 44.8648 85.3148 40.7554 81.8127 40.037C82.9883 39.7032 84.3547 40.0412 85.2975 40.9604C86.5159 42.1938 86.4548 43.9372 85.1887 44.8854Z" fill="#DEDFFB"/>
<path d="M61.7459 48.7261C62.2732 48.4767 62.4094 47.6589 62.0502 46.8994C61.691 46.14 60.9723 45.7266 60.445 45.976C59.9177 46.2254 59.7814 47.0433 60.1407 47.8027C60.4999 48.5621 61.2186 48.9756 61.7459 48.7261Z" fill="white"/>
<path d="M50.5364 62.9601C50.4639 62.1231 49.9327 61.4856 49.3499 61.5361C48.7672 61.5866 48.3537 62.3061 48.4262 63.143C48.4988 63.98 49.03 64.6176 49.6127 64.567C50.1954 64.5165 50.609 63.7971 50.5364 62.9601Z" fill="white"/>
<path d="M81.8576 44.0834C82.3147 43.8672 82.433 43.1587 82.1219 42.501C81.8108 41.8433 81.1881 41.4854 80.731 41.7016C80.2739 41.9179 80.1555 42.6263 80.4666 43.284C80.7777 43.9417 81.4005 44.2996 81.8576 44.0834Z" fill="white"/>
<path d="M102.34 49.3869C102.346 48.6593 101.94 48.0666 101.434 48.0631C100.929 48.0595 100.514 48.6464 100.509 49.3739C100.504 50.1015 100.91 50.6942 101.416 50.6978C101.921 50.7013 102.335 50.1144 102.34 49.3869Z" fill="white"/>
<path d="M116.858 65.7113C116.853 66.4186 116.423 67.0254 115.935 67.0212C115.447 67.017 115.024 66.4044 115.029 65.6971C115.042 63.9577 116.869 63.9693 116.858 65.7113ZM119.42 87.3025C119.412 88.0047 118.983 88.6141 118.495 88.6099C118.005 88.6069 117.584 87.993 117.588 87.2895C117.602 85.5464 119.432 85.5632 119.42 87.3025Z" fill="white"/>
<path d="M108.596 103.424C108.601 102.696 108.196 102.104 107.69 102.1C107.184 102.097 106.77 102.684 106.765 103.411C106.76 104.139 107.166 104.731 107.671 104.735C108.177 104.738 108.591 104.152 108.596 103.424Z" fill="white"/>
<path d="M88.228 109.285C88.2229 109.992 87.7936 110.601 87.302 110.596C86.8104 110.59 86.3937 109.978 86.3975 109.274C86.4111 107.531 88.2403 107.545 88.228 109.285Z" fill="white"/>
<path d="M67.9234 102.895C67.9285 102.167 67.5228 101.575 67.0172 101.571C66.5115 101.568 66.0975 102.154 66.0923 102.882C66.0872 103.61 66.4929 104.202 66.9985 104.206C67.5042 104.209 67.9183 103.622 67.9234 102.895Z" fill="white"/>
<path d="M52.425 84.7768C52.5752 84.0649 52.2959 83.4032 51.8011 83.2988C51.3064 83.1944 50.7835 83.6869 50.6333 84.3987C50.4831 85.1106 50.7624 85.7724 51.2572 85.8768C51.7519 85.9812 52.2748 85.4887 52.425 84.7768Z" fill="white"/>
<path d="M96.6679 68.6817C96.6 68.4376 96.33 68.397 96.1758 68.5811C95.4295 69.4199 94.773 70.1463 94.6679 70.1389C94.65 70.0204 95.2187 69.2561 95.888 68.3553C95.985 68.1443 95.8892 67.888 95.6533 67.9329C93.2937 68.16 91.1675 68.3435 91.1655 68.1983C91.2343 68.0483 93.3219 67.6355 95.5731 67.2533C95.6211 67.2458 95.666 67.225 95.7027 67.1931C95.7394 67.1613 95.7664 67.1198 95.7806 67.0733C95.7947 67.0268 95.7955 66.9773 95.7828 66.9304C95.77 66.8835 95.7443 66.8411 95.7086 66.8082C94.8699 66.0619 94.1726 65.4805 94.185 65.3794C94.3011 65.3562 95.072 65.8584 95.9622 66.485C96.1464 66.6329 96.391 66.4854 96.4003 66.2365C96.2409 63.9465 96.1643 61.8714 96.2829 61.8471C96.433 61.9094 96.7896 63.9251 97.0492 66.1518C97.1132 66.3946 97.3832 66.4352 97.5545 66.2938C98.2248 65.4624 98.8408 64.8249 99.017 64.7543C98.9482 64.9043 98.4222 65.6516 97.8435 66.5222C97.6854 66.7049 97.824 66.9442 98.0599 66.8993C100.374 66.6904 102.546 66.4887 102.533 66.6631C102.479 66.7838 100.393 67.1992 98.1401 67.5789C97.908 67.6252 97.8094 67.9068 97.9937 68.0546C98.8408 68.7715 99.5259 69.3809 99.5294 69.4554C99.4121 69.4759 98.6412 68.9738 97.7484 68.3484C97.5668 68.1993 97.3222 68.3468 97.313 68.5956C97.4723 70.8857 97.549 72.9608 97.4303 72.9851C97.2802 72.9228 96.9236 70.9071 96.6641 68.6803L96.6679 68.6817ZM83.784 80.9991C83.5868 80.7971 83.302 80.9064 83.25 81.1723C82.9805 82.4015 82.7349 83.4797 82.6311 83.5288C82.5499 83.4243 82.6822 82.3616 82.8418 81.1082C82.8205 80.8484 82.5835 80.6494 82.3795 80.8221C80.1893 82.347 78.2084 83.6968 78.1241 83.5589C78.1102 83.375 79.9287 81.8162 81.927 80.2011C81.9713 80.1679 82.005 80.1227 82.0241 80.0708C82.0433 80.0189 82.047 79.9625 82.0349 79.9085C82.0228 79.8546 81.9954 79.8052 81.9559 79.7665C81.9164 79.7278 81.8665 79.7013 81.8123 79.6902C80.5819 79.4181 79.578 79.2357 79.5329 79.1269C79.6349 79.0406 80.6682 79.1106 81.8852 79.2334C82.1474 79.2777 82.3063 78.9961 82.1769 78.7494C80.7617 76.5899 79.5393 74.5963 79.6439 74.5087C79.8242 74.487 81.2849 76.2662 82.7655 78.309C82.9653 78.5098 83.2501 78.4005 83.3399 78.1675C83.5417 76.983 83.7926 76.0166 83.9271 75.8514C83.9423 76.0379 83.8391 77.0614 83.7507 78.2304C83.6973 78.5001 83.9648 78.6561 84.1726 78.4848C86.3285 77.0015 88.3437 75.6101 88.4297 75.7853C88.4406 75.9357 86.6234 77.4906 84.6251 79.1058C84.4211 79.2785 84.4819 79.6085 84.7416 79.654C85.9702 79.8887 86.9771 80.111 87.0192 80.18C86.9172 80.2663 85.8839 80.1963 84.6643 80.0747C84.4047 80.0292 84.2432 80.312 84.3726 80.5587C85.7904 82.717 87.0102 84.7118 86.9082 84.7981C86.728 84.8199 85.2672 83.0407 83.784 80.9991Z" fill="white"/>
</g>
</g>
<defs>
<filter id="filter0_d_95_12849" x="21.1153" y="23.9876" width="122.113" height="120.427" filterUnits="userSpaceOnUse" color-interpolation-filters="sRGB">
<feFlood flood-opacity="0" result="BackgroundImageFix"/>
<feColorMatrix in="SourceAlpha" type="matrix" values="0 0 0 0 0 0 0 0 0 0 0 0 0 0 0 0 0 0 127 0" result="hardAlpha"/>
<feOffset dy="3.22887"/>
<feGaussianBlur stdDeviation="7.58783"/>
<feComposite in2="hardAlpha" operator="out"/>
<feColorMatrix type="matrix" values="0 0 0 0 1 0 0 0 0 0.72549 0 0 0 0 0.380392 0 0 0 1 0"/>
<feBlend mode="normal" in2="BackgroundImageFix" result="effect1_dropShadow_95_12849"/>
<feBlend mode="normal" in="SourceGraphic" in2="effect1_dropShadow_95_12849" result="shape"/>
</filter>
<clipPath id="clip0_95_12849">
<rect width="123.02" height="120.929" fill="white" transform="translate(0.699219 52.6031) rotate(-25.3152)"/>
</clipPath>
</defs>
</svg>
