<svg width="36" height="37" viewBox="0 0 36 37" fill="none" xmlns="http://www.w3.org/2000/svg">
<g clip-path="url(#clip0_18_14337)">
<path d="M18.8779 10.7775L20.6106 14.288L24.4845 14.8508C25.5553 15.0064 25.983 16.3225 25.2081 17.078L22.4049 19.8104L23.0666 23.6686C23.2495 24.7353 22.1301 25.5486 21.172 25.045L17.7072 23.2234L14.2423 25.0452C13.2845 25.5486 12.1648 24.7353 12.3477 23.6686L13.0094 19.8104L10.2062 17.078C9.43132 16.3228 9.85902 15.0067 10.93 14.8511L14.804 14.288L16.5364 10.7777C17.0152 9.80721 18.3991 9.80721 18.8779 10.7775Z" fill="#F9EE80"/>
<path d="M18.8779 10.7775C18.3991 9.80724 17.0152 9.80724 16.5364 10.7775L14.8037 14.288L10.9298 14.8508C9.85903 15.0065 9.43133 16.3225 10.2062 17.078L13.0094 19.8104L12.3477 23.6687C12.1648 24.7354 13.2842 25.5486 14.2423 25.045L15.6405 24.3098C15.9601 21.8884 15.0347 19.748 15.5224 17.306C16.2484 13.6715 18.8779 10.7775 18.8779 10.7775Z" fill="#FFCF4D"/>
<path d="M5.75607 20.2813C4.94686 20.9905 3.8707 21.0864 3.35275 20.4955C2.83481 19.9046 3.07095 18.8504 3.88043 18.1411C4.68991 17.4316 6.45235 16.6473 6.9703 17.2384C7.48852 17.8293 6.56555 19.572 5.75607 20.2813Z" fill="#FF00DD"/>
<path d="M0.84143 19.9581C1.55067 20.7676 2.60494 21.0038 3.19584 20.4858C3.78674 19.9676 3.69083 18.8917 2.98158 18.0825C2.27234 17.273 0.864396 16.2817 0.273226 16.7996C-0.317674 17.3176 0.131918 19.1489 0.84143 19.9581Z" fill="#FF00DD"/>
<path d="M7.00109 24.7874C6.39155 25.7433 5.33106 26.1575 4.6329 25.7123C3.93473 25.267 3.86313 24.1309 4.47295 23.1749C5.08276 22.2187 6.67606 20.8843 7.37395 21.3296C8.07212 21.7748 7.61091 23.8312 7.00109 24.7874Z" fill="#FF00DD"/>
<path d="M1.93518 25.9076C2.89138 26.5174 4.02725 26.4455 4.47251 25.7474C4.91805 25.0495 4.50386 23.9893 3.54793 23.3795C2.59174 22.7696 0.788778 22.349 0.343509 23.0471C-0.10176 23.745 0.97926 25.2978 1.93518 25.9076Z" fill="#FF00DD"/>
<path d="M10.4598 28.371C10.1996 29.6334 9.24156 30.5023 8.31995 30.3123C7.39834 30.1224 6.86229 28.9455 7.12221 27.6834C7.3824 26.4214 8.52583 24.4252 9.44744 24.6152C10.3691 24.8048 10.72 27.109 10.4598 28.371Z" fill="#FF00DD"/>
<path d="M5.53377 31.6138C6.79581 31.874 7.97302 31.3376 8.16296 30.416C8.3529 29.4944 7.48371 28.5366 6.22167 28.2764C4.95962 28.0162 2.91916 28.0154 2.72922 28.937C2.53928 29.8586 4.27172 31.3536 5.53377 31.6138Z" fill="#FF00DD"/>
<path d="M11.336 32.1526C9.49788 31.4468 7.7803 30.3893 6.41045 28.9819C4.97413 27.5059 3.93445 25.7534 3.32085 23.7727C2.47084 21.0289 2.54298 18.1566 3.52917 15.4666C3.63076 15.1894 4.63423 15.5574 4.53264 15.8346C3.62779 18.3028 3.56186 20.9384 4.34189 23.4563C4.90523 25.2744 5.85872 26.8826 7.17643 28.2365C8.43361 29.5282 9.99719 30.5347 11.698 31.1469C11.9758 31.2469 12.1198 31.5533 12.0198 31.8308C11.9415 32.0488 11.7031 32.2936 11.336 32.1526Z" fill="#861677" fill-opacity="0.938"/>
<path d="M5.74961 15.3278C5.31434 16.2559 4.41245 16.7503 3.73482 16.4326C3.05719 16.1151 2.86076 15.1051 3.29576 14.1773C3.73077 13.2495 5.06225 11.9429 5.73988 12.2606C6.41724 12.5783 6.18461 14.3999 5.74961 15.3278Z" fill="#FF00DD"/>
<path d="M29.6614 20.2803C30.4706 20.9895 31.5468 21.0855 32.0647 20.4946C32.5827 19.9037 32.3466 18.8494 31.5371 18.1401C30.7279 17.4306 28.9652 16.6463 28.4472 17.2375C27.9293 17.8284 28.8519 19.5711 29.6614 20.2803Z" fill="#FF00DD"/>
<path d="M34.5741 19.9572C33.8645 20.7666 32.8105 21.0028 32.2194 20.4848C31.6285 19.9669 31.7244 18.8907 32.4336 18.0815C33.1431 17.272 34.5508 16.2807 35.142 16.7987C35.7329 17.3166 35.2833 19.1479 34.5741 19.9572Z" fill="#FF00DD"/>
<path d="M28.4147 24.7864C29.0245 25.7424 30.0847 26.1566 30.7829 25.7113C31.4811 25.266 31.5527 24.1299 30.9429 23.174C30.333 22.2178 28.7397 20.8833 28.0418 21.3286C27.3437 21.7738 27.8049 23.8302 28.4147 24.7864Z" fill="#FF00DD"/>
<path d="M33.48 25.9066C32.5238 26.5164 31.388 26.4446 30.9427 25.7464C30.4974 25.0485 30.9113 23.9883 31.8675 23.3785C32.8235 22.7687 34.6264 22.348 35.0717 23.0461C35.517 23.744 34.4359 25.2968 33.48 25.9066Z" fill="#FF00DD"/>
<path d="M24.9565 28.3701C25.2167 29.6324 26.1748 30.5013 27.0964 30.3114C28.018 30.1214 28.5541 28.9445 28.2941 27.6824C28.034 26.4204 26.8905 24.4242 25.9689 24.6142C25.0473 24.8039 24.6963 27.108 24.9565 28.3701Z" fill="#FF00DD"/>
<path d="M29.8818 31.6128C28.6198 31.873 27.4426 31.3367 27.2526 30.4151C27.0627 29.4934 27.9319 28.5356 29.1939 28.2754C30.456 28.0152 32.4964 28.0144 32.6864 28.936C32.8763 29.8577 31.1439 31.3526 29.8818 31.6128Z" fill="#FF00DD"/>
<path d="M24.0789 32.1526C25.917 31.4468 27.6345 30.3893 29.0044 28.9819C30.441 27.5059 31.4804 25.7534 32.094 23.7727C32.944 21.0289 32.8719 18.1566 31.8857 15.4666C31.7841 15.1894 30.7806 15.5574 30.8822 15.8346C31.787 18.3028 31.8532 20.9384 31.0729 23.4563C30.5099 25.2744 29.5561 26.8826 28.2384 28.2365C26.9812 29.5282 25.4176 30.5347 23.7168 31.1469C23.4391 31.2469 23.2951 31.5533 23.395 31.8308C23.4734 32.0488 23.7117 32.2936 24.0789 32.1526Z" fill="#861677" fill-opacity="0.938"/>
<path d="M29.6666 15.3287C30.1016 16.2568 31.0035 16.7513 31.6811 16.4335C32.3588 16.1161 32.5552 15.1061 32.1202 14.1783C31.6852 13.2505 30.3537 11.9438 29.6761 12.2616C28.9987 12.5793 29.2313 14.4009 29.6666 15.3287Z" fill="#FF00DD"/>
<path d="M25.3168 5.36122L25.5535 5.79379C25.7893 6.22501 26.1441 6.57977 26.5756 6.81564L27.0079 7.05233C27.4507 7.29441 27.4507 7.93016 27.0079 8.17225L26.5756 8.40867C26.1441 8.64481 25.7893 8.9993 25.5535 9.43079L25.3168 9.86336C25.0747 10.3059 24.4389 10.3059 24.1969 9.86336L23.9604 9.43079C23.7246 8.9993 23.3698 8.64481 22.9383 8.40867L22.5058 8.17225C22.0632 7.93016 22.0632 7.29441 22.5058 7.05233L22.9383 6.81564C23.3698 6.57977 23.7246 6.22501 23.9604 5.79379L24.1969 5.36122C24.4392 4.91866 25.0747 4.91866 25.3168 5.36122Z" fill="#FF00DD"/>
<path d="M11.8021 7.9424L11.9793 8.26663C12.1563 8.59004 12.4224 8.85618 12.7459 9.03315L13.0701 9.21039C13.4021 9.39196 13.4021 9.86857 13.0701 10.0501L12.7459 10.2274C12.4224 10.4044 12.1563 10.6705 11.9793 10.9939L11.8021 11.3181C11.6205 11.6502 11.1439 11.6502 10.9623 11.3181L10.7848 10.9939C10.6081 10.6705 10.342 10.4044 10.0186 10.2274L9.69436 10.0501C9.3623 9.86857 9.3623 9.39196 9.69436 9.21039L10.0186 9.03315C10.342 8.85618 10.6081 8.59004 10.7848 8.26663L10.9623 7.9424C11.1439 7.61034 11.6205 7.61034 11.8021 7.9424Z" fill="#FF00DD"/>
<path d="M19.7445 19.3086V20.6914H15.4138V19.3086H16.8236V18.3777C16.4279 18.5036 15.9805 18.5666 15.4813 18.5666V17.1837C15.904 17.1747 16.2345 17.0601 16.4729 16.8397C16.7067 16.6238 16.8236 16.3338 16.8236 15.9695H18.8473V19.3086H19.7445Z" fill="#4F4BAD"/>
</g>
<defs>
<clipPath id="clip0_18_14337">
<rect width="35.4141" height="35.4141" fill="white" transform="translate(0 0.878906)"/>
</clipPath>
</defs>
</svg>
