<svg width="36" height="36" viewBox="0 0 36 36" fill="none" xmlns="http://www.w3.org/2000/svg">
<g clip-path="url(#clip0_18_14365)">
<path d="M18.8779 10.1915L20.6106 13.7021L24.4845 14.2649C25.5553 14.4205 25.983 15.7366 25.2081 16.492L22.4049 19.2244L23.0666 23.0827C23.2495 24.1494 22.1301 24.9627 21.172 24.459L17.7072 22.6374L14.2423 24.4593C13.2845 24.9627 12.1648 24.1494 12.3477 23.0827L13.0094 19.2244L10.2062 16.492C9.43132 15.7368 9.85902 14.4208 10.93 14.2651L14.804 13.7021L16.5364 10.1918C17.0152 9.22127 18.3991 9.22127 18.8779 10.1915Z" fill="#F9EE80"/>
<path d="M18.8779 10.1915C18.3991 9.22131 17.0152 9.22131 16.5364 10.1915L14.8037 13.7021L10.9298 14.2649C9.85903 14.4205 9.43133 15.7366 10.2062 16.4921L13.0094 19.2245L12.3477 23.0827C12.1648 24.1494 13.2842 24.9627 14.2423 24.4591L15.6405 23.7239C15.9601 21.3025 15.0347 19.162 15.5224 16.7201C16.2484 13.0855 18.8779 10.1915 18.8779 10.1915Z" fill="#F4E74D"/>
<path d="M5.75607 19.6953C4.94686 20.4046 3.8707 20.5005 3.35275 19.9096C2.83481 19.3187 3.07095 18.2644 3.88043 17.5552C4.68991 16.8457 6.45235 16.0613 6.9703 16.6525C7.48852 17.2434 6.56555 18.9861 5.75607 19.6953Z" fill="#59C230" fill-opacity="0.52"/>
<path d="M0.84143 19.3722C1.55067 20.1817 2.60494 20.4178 3.19584 19.8999C3.78674 19.3817 3.69083 18.3058 2.98158 17.4966C2.27234 16.6871 0.864396 15.6958 0.273226 16.2137C-0.317674 16.7317 0.131918 18.563 0.84143 19.3722Z" fill="#59C230" fill-opacity="0.52"/>
<path d="M7.00109 24.2015C6.39155 25.1574 5.33106 25.5716 4.6329 25.1263C3.93473 24.6811 3.86313 23.5449 4.47295 22.589C5.08276 21.6328 6.67606 20.2983 7.37395 20.7436C8.07212 21.1889 7.61091 23.2453 7.00109 24.2015Z" fill="#59C230" fill-opacity="0.52"/>
<path d="M1.93518 25.3217C2.89138 25.9315 4.02725 25.8596 4.47251 25.1614C4.91805 24.4635 4.50386 23.4033 3.54793 22.7935C2.59174 22.1837 0.788778 21.763 0.343509 22.4612C-0.10176 23.1591 0.97926 24.7118 1.93518 25.3217Z" fill="#59C230" fill-opacity="0.52"/>
<path d="M10.4598 27.7851C10.1996 29.0474 9.24156 29.9163 8.31995 29.7264C7.39834 29.5365 6.86229 28.3595 7.12221 27.0975C7.3824 25.8354 8.52583 23.8393 9.44744 24.0292C10.3691 24.2189 10.72 26.5231 10.4598 27.7851Z" fill="#59C230" fill-opacity="0.52"/>
<path d="M5.53377 31.0278C6.79581 31.288 7.97302 30.7517 8.16296 29.8301C8.3529 28.9085 7.48371 27.9507 6.22167 27.6905C4.95962 27.4303 2.91916 27.4295 2.72922 28.3511C2.53928 29.2727 4.27172 30.7676 5.53377 31.0278Z" fill="#59C230" fill-opacity="0.52"/>
<path d="M11.336 31.5666C9.49788 30.8609 7.7803 29.8034 6.41045 28.396C4.97413 26.9199 3.93445 25.1675 3.32085 23.1868C2.47084 20.443 2.54298 17.5706 3.52917 14.8807C3.63076 14.6034 4.63423 14.9714 4.53264 15.2487C3.62779 17.7168 3.56186 20.3525 4.34189 22.8704C4.90523 24.6885 5.85872 26.2966 7.17643 27.6505C8.43361 28.9423 9.99719 29.9487 11.698 30.561C11.9758 30.661 12.1198 30.9674 12.0198 31.2448C11.9415 31.4629 11.7031 31.7077 11.336 31.5666Z" fill="#9CDA82" fill-opacity="0.42"/>
<path d="M5.74961 14.7418C5.31434 15.6699 4.41245 16.1644 3.73482 15.8466C3.05719 15.5292 2.86076 14.5192 3.29576 13.5914C3.73077 12.6635 5.06225 11.3569 5.73988 11.6747C6.41724 11.9924 6.18461 13.814 5.74961 14.7418Z" fill="#59C230" fill-opacity="0.52"/>
<path d="M29.6614 19.6944C30.4706 20.4036 31.5468 20.4995 32.0647 19.9086C32.5827 19.3177 32.3466 18.2635 31.5371 17.5542C30.7279 16.8447 28.9652 16.0603 28.4472 16.6515C27.9293 17.2424 28.8519 18.9851 29.6614 19.6944Z" fill="#59C230" fill-opacity="0.52"/>
<path d="M34.5741 19.3712C33.8645 20.1807 32.8105 20.4168 32.2194 19.8989C31.6285 19.381 31.7244 18.3048 32.4336 17.4956C33.1431 16.6861 34.5508 15.6948 35.142 16.2127C35.7329 16.7307 35.2833 18.562 34.5741 19.3712Z" fill="#59C230" fill-opacity="0.52"/>
<path d="M28.4147 24.2005C29.0245 25.1564 30.0847 25.5706 30.7829 25.1254C31.4811 24.6801 31.5527 23.5439 30.9429 22.588C30.333 21.6318 28.7397 20.2974 28.0418 20.7426C27.3437 21.1879 27.8049 23.2443 28.4147 24.2005Z" fill="#59C230" fill-opacity="0.52"/>
<path d="M33.48 25.3207C32.5238 25.9305 31.388 25.8586 30.9427 25.1605C30.4974 24.4626 30.9113 23.4024 31.8675 22.7925C32.8235 22.1827 34.6264 21.762 35.0717 22.4602C35.517 23.1581 34.4359 24.7109 33.48 25.3207Z" fill="#59C230" fill-opacity="0.52"/>
<path d="M24.9565 27.7841C25.2167 29.0464 26.1748 29.9154 27.0964 29.7254C28.018 29.5355 28.5541 28.3585 28.2941 27.0965C28.034 25.8345 26.8905 23.8383 25.9689 24.0283C25.0473 24.2179 24.6963 26.5221 24.9565 27.7841Z" fill="#59C230" fill-opacity="0.52"/>
<path d="M29.8818 31.0269C28.6198 31.287 27.4426 30.7507 27.2526 29.8291C27.0627 28.9075 27.9319 27.9497 29.1939 27.6895C30.456 27.4293 32.4964 27.4285 32.6864 28.3501C32.8763 29.2717 31.1439 30.7667 29.8818 31.0269Z" fill="#59C230" fill-opacity="0.52"/>
<path d="M24.0789 31.5666C25.917 30.8609 27.6345 29.8034 29.0044 28.396C30.441 26.9199 31.4804 25.1675 32.094 23.1868C32.944 20.443 32.8719 17.5706 31.8857 14.8807C31.7841 14.6034 30.7806 14.9714 30.8822 15.2487C31.787 17.7168 31.8532 20.3525 31.0729 22.8704C30.5099 24.6885 29.5561 26.2966 28.2384 27.6505C26.9812 28.9423 25.4176 29.9487 23.7168 30.561C23.4391 30.661 23.2951 30.9674 23.395 31.2448C23.4734 31.4629 23.7117 31.7077 24.0789 31.5666Z" fill="#9CDA82" fill-opacity="0.42"/>
<path d="M29.6666 14.7428C30.1016 15.6709 31.0035 16.1653 31.6811 15.8476C32.3588 15.5301 32.5552 14.5202 32.1202 13.5923C31.6852 12.6645 30.3537 11.3579 29.6761 11.6756C28.9987 11.9934 29.2313 13.815 29.6666 14.7428Z" fill="#59C230" fill-opacity="0.52"/>
<path d="M25.3168 4.77528L25.5535 5.20785C25.7893 5.63907 26.1441 5.99383 26.5756 6.2297L27.0079 6.46639C27.4507 6.70848 27.4507 7.34423 27.0079 7.58632L26.5756 7.82273C26.1441 8.05887 25.7893 8.41336 25.5535 8.84485L25.3168 9.27742C25.0747 9.71999 24.4389 9.71999 24.1969 9.27742L23.9604 8.84485C23.7246 8.41336 23.3698 8.05887 22.9383 7.82273L22.5058 7.58632C22.0632 7.34423 22.0632 6.70848 22.5058 6.46639L22.9383 6.2297C23.3698 5.99383 23.7246 5.63907 23.9604 5.20785L24.1969 4.77528C24.4392 4.33272 25.0747 4.33272 25.3168 4.77528Z" fill="#3A7993"/>
<path d="M11.8021 7.35647L11.9793 7.68069C12.1563 8.00411 12.4224 8.27024 12.7459 8.44721L13.0701 8.62446C13.4021 8.80602 13.4021 9.28263 13.0701 9.4642L12.7459 9.64144C12.4224 9.81842 12.1563 10.0846 11.9793 10.408L11.8021 10.7322C11.6205 11.0642 11.1439 11.0642 10.9623 10.7322L10.7848 10.408C10.6081 10.0846 10.342 9.81842 10.0186 9.64144L9.69436 9.4642C9.3623 9.28263 9.3623 8.80602 9.69436 8.62446L10.0186 8.44721C10.342 8.27024 10.6081 8.00411 10.7848 7.68069L10.9623 7.35647C11.1439 7.02441 11.6205 7.02441 11.8021 7.35647Z" fill="#3A7993"/>
<path d="M20.6753 20.1055H15.3936V19.0734C15.3936 18.5517 15.5915 18.1425 15.9872 17.8457C16.3874 17.5489 17.0148 17.351 17.8692 17.2521C18.211 17.2116 18.4493 17.1599 18.5842 17.097C18.7056 17.0385 18.7664 16.9531 18.7664 16.8406V16.8271C18.7664 16.5978 18.555 16.4831 18.1323 16.4831C17.6691 16.4831 17.4375 16.6383 17.4375 16.9486V16.962H15.4408V16.9486C15.4408 16.3954 15.6409 15.9817 16.0412 15.7074C16.4819 15.4061 17.1924 15.2554 18.1728 15.2554C19.8861 15.2554 20.7428 15.7411 20.7428 16.7125V16.7394C20.7428 17.1891 20.5899 17.5332 20.2841 17.7715C19.9468 18.0323 19.3712 18.219 18.5572 18.3314C18.0311 18.4033 17.6736 18.473 17.4847 18.5405C17.3318 18.599 17.2554 18.6687 17.2554 18.7496V18.7631H20.6753V20.1055Z" fill="#4F4BAD"/>
</g>
<defs>
<clipPath id="clip0_18_14365">
<rect width="35.4141" height="35.4141" fill="white" transform="translate(0 0.292969)"/>
</clipPath>
</defs>
</svg>
