<svg width="36" height="37" viewBox="0 0 36 37" fill="none" xmlns="http://www.w3.org/2000/svg">
<g clip-path="url(#clip0_18_14393)">
<path d="M18.8779 10.6056L20.6106 14.1161L24.4845 14.6789C25.5553 14.8346 25.983 16.1506 25.2081 16.9061L22.4049 19.6385L23.0666 23.4968C23.2495 24.5635 22.1301 25.3767 21.172 24.8731L17.7072 23.0515L14.2423 24.8734C13.2845 25.3767 12.1648 24.5635 12.3477 23.4968L13.0094 19.6385L10.2062 16.9061C9.43132 16.1509 9.85902 14.8348 10.93 14.6792L14.804 14.1161L16.5364 10.6058C17.0152 9.63534 18.3991 9.63534 18.8779 10.6056Z" fill="#43417C"/>
<path d="M18.8779 10.6056C18.3991 9.63537 17.0152 9.63537 16.5364 10.6056L14.8037 14.1162L10.9298 14.679C9.85903 14.8346 9.43133 16.1507 10.2062 16.9061L13.0094 19.6385L12.3477 23.4968C12.1648 24.5635 13.2842 25.3768 14.2423 24.8731L15.6405 24.138C15.9601 21.7165 15.0347 19.5761 15.5224 17.1342C16.2484 13.4996 18.8779 10.6056 18.8779 10.6056Z" fill="#434099"/>
<path d="M5.75607 20.1094C4.94686 20.8186 3.8707 20.9146 3.35275 20.3237C2.83481 19.7328 3.07095 18.6785 3.88043 17.9692C4.68991 17.2597 6.45235 16.4754 6.9703 17.0666C7.48852 17.6575 6.56555 19.4002 5.75607 20.1094Z" fill="#242168"/>
<path d="M0.84143 19.7863C1.55067 20.5957 2.60494 20.8319 3.19584 20.3139C3.78674 19.7957 3.69083 18.7198 2.98158 17.9106C2.27234 17.1011 0.864396 16.1098 0.273226 16.6278C-0.317674 17.1457 0.131918 18.9771 0.84143 19.7863Z" fill="#242168"/>
<path d="M7.00109 24.6155C6.39155 25.5715 5.33106 25.9857 4.6329 25.5404C3.93473 25.0951 3.86313 23.959 4.47295 23.0031C5.08276 22.0469 6.67606 20.7124 7.37395 21.1577C8.07212 21.603 7.61091 23.6593 7.00109 24.6155Z" fill="#242168"/>
<path d="M1.93518 25.7357C2.89138 26.3455 4.02725 26.2737 4.47251 25.5755C4.91805 24.8776 4.50386 23.8174 3.54793 23.2076C2.59174 22.5978 0.788778 22.1771 0.343509 22.8752C-0.10176 23.5731 0.97926 25.1259 1.93518 25.7357Z" fill="#242168"/>
<path d="M10.4598 28.1992C10.1996 29.4615 9.24156 30.3304 8.31995 30.1405C7.39834 29.9505 6.86229 28.7736 7.12221 27.5115C7.3824 26.2495 8.52583 24.2534 9.44744 24.4433C10.3691 24.633 10.72 26.9371 10.4598 28.1992Z" fill="#242168"/>
<path d="M5.53377 31.4419C6.79581 31.7021 7.97302 31.1658 8.16296 30.2442C8.3529 29.3225 7.48371 28.3647 6.22167 28.1045C4.95962 27.8443 2.91916 27.8435 2.72922 28.7651C2.53928 29.6868 4.27172 31.1817 5.53377 31.4419Z" fill="#242168"/>
<path d="M11.336 31.9807C9.49788 31.275 7.7803 30.2174 6.41045 28.81C4.97413 27.334 3.93445 25.5816 3.32085 23.6008C2.47084 20.8571 2.54298 17.9847 3.52917 15.2947C3.63076 15.0175 4.63423 15.3855 4.53264 15.6627C3.62779 18.1309 3.56186 20.7666 4.34189 23.2844C4.90523 25.1025 5.85872 26.7107 7.17643 28.0646C8.43361 29.3564 9.99719 30.3628 11.698 30.9751C11.9758 31.075 12.1198 31.3814 12.0198 31.6589C11.9415 31.8769 11.7031 32.1217 11.336 31.9807Z" fill="#2C28A8"/>
<path d="M5.74961 15.1559C5.31434 16.084 4.41245 16.5784 3.73482 16.2607C3.05719 15.9432 2.86076 14.9333 3.29576 14.0054C3.73077 13.0776 5.06225 11.771 5.73988 12.0887C6.41724 12.4065 6.18461 14.2281 5.74961 15.1559Z" fill="#242168"/>
<path d="M29.6614 20.1084C30.4706 20.8177 31.5468 20.9136 32.0647 20.3227C32.5827 19.7318 32.3466 18.6775 31.5371 17.9683C30.7279 17.2588 28.9652 16.4744 28.4472 17.0656C27.9293 17.6565 28.8519 19.3992 29.6614 20.1084Z" fill="#242168"/>
<path d="M34.5741 19.7853C33.8645 20.5948 32.8105 20.8309 32.2194 20.313C31.6285 19.795 31.7244 18.7189 32.4336 17.9096C33.1431 17.1002 34.5508 16.1088 35.142 16.6268C35.7329 17.1447 35.2833 18.9761 34.5741 19.7853Z" fill="#242168"/>
<path d="M28.4147 24.6146C29.0245 25.5705 30.0847 25.9847 30.7829 25.5394C31.4811 25.0941 31.5527 23.958 30.9429 23.0021C30.333 22.0459 28.7397 20.7114 28.0418 21.1567C27.3437 21.602 27.8049 23.6584 28.4147 24.6146Z" fill="#242168"/>
<path d="M33.48 25.7347C32.5238 26.3446 31.388 26.2727 30.9427 25.5745C30.4974 24.8766 30.9113 23.8164 31.8675 23.2066C32.8235 22.5968 34.6264 22.1761 35.0717 22.8743C35.517 23.5722 34.4359 25.1249 33.48 25.7347Z" fill="#242168"/>
<path d="M24.9565 28.1982C25.2167 29.4605 26.1748 30.3294 27.0964 30.1395C28.018 29.9495 28.5541 28.7726 28.2941 27.5106C28.034 26.2485 26.8905 24.2524 25.9689 24.4423C25.0473 24.632 24.6963 26.9361 24.9565 28.1982Z" fill="#242168"/>
<path d="M29.8818 31.4409C28.6198 31.7011 27.4426 31.1648 27.2526 30.2432C27.0627 29.3216 27.9319 28.3638 29.1939 28.1036C30.456 27.8434 32.4964 27.8426 32.6864 28.7642C32.8763 29.6858 31.1439 31.1807 29.8818 31.4409Z" fill="#242168"/>
<path d="M24.0789 31.9807C25.917 31.275 27.6345 30.2174 29.0044 28.81C30.441 27.334 31.4804 25.5816 32.094 23.6008C32.944 20.8571 32.8719 17.9847 31.8857 15.2947C31.7841 15.0175 30.7806 15.3855 30.8822 15.6627C31.787 18.1309 31.8532 20.7666 31.0729 23.2844C30.5099 25.1025 29.5561 26.7107 28.2384 28.0646C26.9812 29.3564 25.4176 30.3628 23.7168 30.9751C23.4391 31.075 23.2951 31.3814 23.395 31.6589C23.4734 31.8769 23.7117 32.1217 24.0789 31.9807Z" fill="#2C28A8"/>
<path d="M29.6666 15.1569C30.1016 16.085 31.0035 16.5794 31.6811 16.2617C32.3588 15.9442 32.5552 14.9342 32.1202 14.0064C31.6852 13.0786 30.3537 11.772 29.6761 12.0897C28.9987 12.4074 29.2313 14.229 29.6666 15.1569Z" fill="#242168"/>
<path d="M25.3168 5.18935L25.5535 5.62192C25.7893 6.05314 26.1441 6.40789 26.5756 6.64377L27.0079 6.88045C27.4507 7.12254 27.4507 7.75829 27.0079 8.00038L26.5756 8.23679C26.1441 8.47294 25.7893 8.82742 25.5535 9.25891L25.3168 9.69148C25.0747 10.134 24.4389 10.134 24.1969 9.69148L23.9604 9.25891C23.7246 8.82742 23.3698 8.47294 22.9383 8.23679L22.5058 8.00038C22.0632 7.75829 22.0632 7.12254 22.5058 6.88045L22.9383 6.64377C23.3698 6.40789 23.7246 6.05314 23.9604 5.62192L24.1969 5.18935C24.4392 4.74678 25.0747 4.74678 25.3168 5.18935Z" fill="#C2EAFB"/>
<path d="M11.8021 7.77053L11.9793 8.09475C12.1563 8.41817 12.4224 8.6843 12.7459 8.86128L13.0701 9.03852C13.4021 9.22009 13.4021 9.6967 13.0701 9.87826L12.7459 10.0555C12.4224 10.2325 12.1563 10.4986 11.9793 10.822L11.8021 11.1463C11.6205 11.4783 11.1439 11.4783 10.9623 11.1463L10.7848 10.822C10.6081 10.4986 10.342 10.2325 10.0186 10.0555L9.69436 9.87826C9.3623 9.6967 9.3623 9.22009 9.69436 9.03852L10.0186 8.86128C10.342 8.6843 10.6081 8.41817 10.7848 8.09475L10.9623 7.77053C11.1439 7.43847 11.6205 7.43847 11.8021 7.77053Z" fill="#C2EAFB"/>
<path d="M17.6445 20.6288C16.115 20.6288 15.3502 20.1477 15.3502 19.1855V19.174H17.0982V19.1855C17.0982 19.45 17.265 19.5823 17.5985 19.5823C17.9627 19.5823 18.1447 19.4654 18.1447 19.2315V19.22C18.1447 19.0015 17.9665 18.8923 17.61 18.8923H16.9775V18.0988H17.61C17.9665 18.0988 18.1447 17.9895 18.1447 17.771V17.7595C18.1447 17.541 17.9703 17.4318 17.6215 17.4318C17.2727 17.4318 17.0982 17.564 17.0982 17.8285V17.84H15.3962V17.8285C15.3962 16.8664 16.1533 16.3853 17.6675 16.3853C18.4303 16.3853 18.9881 16.4869 19.3407 16.69C19.6896 16.8894 19.864 17.1999 19.864 17.6215V17.633C19.864 17.8439 19.8122 18.0106 19.7087 18.1333C19.6091 18.2559 19.4423 18.3556 19.2085 18.4323C19.4577 18.5166 19.634 18.6278 19.7375 18.7658C19.841 18.9038 19.8927 19.0974 19.8927 19.3465V19.358C19.8927 19.7989 19.7164 20.1189 19.3637 20.3183C19.0072 20.5253 18.4342 20.6288 17.6445 20.6288Z" fill="white"/>
</g>
<defs>
<clipPath id="clip0_18_14393">
<rect width="35.4141" height="35.4141" fill="white" transform="translate(0 0.707031)"/>
</clipPath>
</defs>
</svg>
