<svg width="43" height="42" viewBox="0 0 43 42" fill="none" xmlns="http://www.w3.org/2000/svg">
<g clip-path="url(#clip0_448_13141)">
<path d="M4.28643 25.1734C4.28643 25.1734 4.67229 23.581 3.34291 22.208C2.01219 20.8311 0.347153 20.8311 0.347153 20.8311C0.347153 20.8311 -0.058536 22.7036 1.23914 24.0435C2.53814 25.3822 4.28643 25.1734 4.28643 25.1734Z" fill="white"/>
<path d="M24.607 26.4667V11.8633H21.1659C21.1382 12.4659 20.9954 12.972 20.7351 13.3843C20.4761 13.7966 20.1444 14.1269 19.7401 14.3701C19.333 14.6159 18.8798 14.789 18.375 14.8947C17.8715 14.9991 17.3548 15.0454 16.8223 15.0321V18.053H20.2435V26.4667H24.607Z" fill="white"/>
<path d="M11.2334 18.7591C11.1251 18.1644 11.0616 17.5552 11.0616 16.9289C11.0616 11.2757 15.6352 6.67566 21.2765 6.62677V6.63205C26.9297 6.66905 31.5165 11.2757 31.5165 16.9355C31.5165 17.5619 31.4518 18.1711 31.3447 18.7657H33.9308C34.0154 18.1658 34.0749 17.5592 34.0749 16.9355C34.0749 9.87227 28.3516 4.1226 21.3003 4.07238V4.06445C14.2371 4.10145 8.50195 9.85774 8.50195 16.9289C8.50195 17.5526 8.56142 18.1592 8.64731 18.7591H11.2334Z" fill="white"/>
<path d="M7.20729 24.8725C7.20729 24.8725 8.75208 24.0228 9.02694 22.1807C9.30181 20.3359 7.88124 19.0488 7.88124 19.0488C7.88124 19.0488 6.52938 20.0188 6.24659 21.9111C5.96512 23.8008 7.20729 24.8725 7.20729 24.8725Z" fill="white"/>
<path d="M8.21929 26.6929C8.18758 28.6037 9.55793 29.5036 9.55793 29.5036C9.55793 29.5036 10.9785 28.4596 11.0115 26.5964C11.0419 24.7331 9.46675 23.6416 9.46675 23.6416C9.46675 23.6416 8.25101 24.7781 8.21929 26.6929Z" fill="white"/>
<path d="M12.4142 26.3379C12.4142 26.3379 11.3121 27.5853 11.4588 29.4949C11.6068 31.4017 13.0551 32.1655 13.0551 32.1655C13.0551 32.1655 14.3726 30.9947 14.2299 29.1354C14.0845 27.2775 12.4142 26.3379 12.4142 26.3379Z" fill="white"/>
<path d="M17.4456 34.4633C17.4456 34.4633 18.3706 32.9608 17.698 31.2217C17.0241 29.4853 15.1529 29.0664 15.1529 29.0664C15.1529 29.0664 14.4565 30.5795 15.1476 32.3635C15.8387 34.1474 17.4456 34.4633 17.4456 34.4633Z" fill="white"/>
<path d="M4.91143 21.0941C4.91143 21.0941 6.11793 19.9841 5.77302 18.1023C5.43077 16.2219 4.04588 15.2969 4.04588 15.2969C4.04588 15.2969 2.67023 16.6302 3.00589 18.4657C3.34021 20.2986 4.91143 21.0941 4.91143 21.0941Z" fill="white"/>
<path d="M5.90339 28.7767C5.90339 28.7767 5.80296 27.1408 4.12735 26.2184C2.45041 25.2973 0.859375 25.7876 0.859375 25.7876C0.859375 25.7876 1.02456 27.6958 2.6592 28.5957C4.29121 29.4943 5.90339 28.7767 5.90339 28.7767Z" fill="white"/>
<path d="M8.7381 31.9437C8.7381 31.9437 8.27691 30.3725 6.43876 29.8452C4.59796 29.3219 3.15625 30.1505 3.15625 30.1505C3.15625 30.1505 3.74166 31.9754 5.53356 32.4881C7.32678 32.9995 8.7381 31.9437 8.7381 31.9437Z" fill="white"/>
<path d="M11.8985 34.1942C11.8985 34.1942 10.9827 32.837 9.07055 32.8912C7.15708 32.9454 6.03516 34.1757 6.03516 34.1757C6.03516 34.1757 7.14518 35.739 9.00844 35.6848C10.8717 35.6293 11.8985 34.1942 11.8985 34.1942Z" fill="white"/>
<path d="M13.2516 35.114C11.3593 35.3981 10.3906 36.7499 10.3906 36.7499C10.3906 36.7499 11.6804 38.1692 13.5238 37.893C15.3686 37.6142 16.2143 36.0681 16.2143 36.0681C16.2143 36.0681 15.14 34.8285 13.2516 35.114Z" fill="white"/>
<path d="M5.53981 22.0245L4.62932 21.9941C4.62536 22.0919 4.44696 31.9831 19.3874 36.365L19.6438 35.4902C5.41691 31.317 5.52659 22.4038 5.53981 22.0245Z" fill="white"/>
<path d="M38.2903 25.1812C38.2903 25.1812 40.0413 25.39 41.3376 24.0513C42.634 22.7114 42.2296 20.8389 42.2296 20.8389C42.2296 20.8389 40.5646 20.8389 39.2339 22.2145C37.9045 23.5862 38.2903 25.1812 38.2903 25.1812Z" fill="white"/>
<path d="M33.5489 22.1866C33.8238 24.0313 35.3686 24.8784 35.3686 24.8784C35.3686 24.8784 36.6094 23.808 36.3293 21.917C36.0491 20.026 34.696 19.0547 34.696 19.0547C34.696 19.0547 33.2741 20.3418 33.5489 22.1866Z" fill="white"/>
<path d="M31.5649 26.6036C31.5953 28.4655 33.0185 29.5095 33.0185 29.5095C33.0185 29.5095 34.3888 28.6109 34.3571 26.6987C34.3267 24.7866 33.1123 23.6475 33.1123 23.6475C33.1123 23.6475 31.5345 24.7403 31.5649 26.6036Z" fill="white"/>
<path d="M28.3446 29.1432C28.2032 31.0025 29.5207 32.1733 29.5207 32.1733C29.5207 32.1733 30.9703 31.4095 31.117 29.5027C31.2624 27.5958 30.1603 26.3457 30.1603 26.3457C30.1603 26.3457 28.4913 27.2853 28.3446 29.1432Z" fill="white"/>
<path d="M24.8771 31.2285C24.2058 32.9689 25.1308 34.4701 25.1308 34.4701C25.1308 34.4701 26.7391 34.1556 27.4289 32.3703C28.1173 30.585 27.4236 29.0732 27.4236 29.0732C27.4236 29.0732 25.5524 29.4921 24.8771 31.2285Z" fill="white"/>
<path d="M39.5723 18.4726C39.9079 16.6371 38.5323 15.3037 38.5323 15.3037C38.5323 15.3037 37.1474 16.2287 36.8038 18.1105C36.4602 19.9909 37.6654 21.1023 37.6654 21.1023C37.6654 21.1023 39.2379 20.3068 39.5723 18.4726Z" fill="white"/>
<path d="M38.4518 26.2272C36.7749 27.1482 36.6758 28.7855 36.6758 28.7855C36.6758 28.7855 38.2866 29.5031 39.9213 28.6045C41.5533 27.7059 41.7198 25.7964 41.7198 25.7964C41.7198 25.7964 40.1274 25.3061 38.4518 26.2272Z" fill="white"/>
<path d="M36.1392 29.8523C34.2997 30.377 33.8398 31.9508 33.8398 31.9508C33.8398 31.9508 35.2512 33.0067 37.0444 32.4953C38.8363 31.9812 39.4217 30.1563 39.4217 30.1563C39.4217 30.1563 37.9787 29.3264 36.1392 29.8523Z" fill="white"/>
<path d="M33.5057 32.8961C31.5948 32.8419 30.6777 34.2017 30.6777 34.2017C30.6777 34.2017 31.7019 35.6368 33.5678 35.691C35.431 35.7452 36.5411 34.1806 36.5411 34.1806C36.5411 34.1806 35.4191 32.9529 33.5057 32.8961Z" fill="white"/>
<path d="M29.328 35.1204C27.4369 34.8363 26.3652 36.0771 26.3652 36.0771C26.3652 36.0771 27.2123 37.6233 29.0557 37.9021C30.9005 38.1756 32.1889 36.7603 32.1889 36.7603C32.1889 36.7603 31.2203 35.4045 29.328 35.1204Z" fill="white"/>
<path d="M37.95 22.001L37.0395 22.0327C37.0514 22.4093 37.1598 31.3226 22.9355 35.4971L23.1919 36.3732C38.1324 31.9899 37.9526 22.1001 37.95 22.001Z" fill="white"/>
</g>
<defs>
<clipPath id="clip0_448_13141">
<rect width="42" height="42" fill="white" transform="translate(0.287109)"/>
</clipPath>
</defs>
</svg>
