<svg width="10" height="22" viewBox="0 0 10 22" fill="none" xmlns="http://www.w3.org/2000/svg">
<g clip-path="url(#clip0_222_5313)">
<path d="M5.8837 11L9.81688 7.06724C10.061 6.82309 10.061 6.42724 9.81688 6.18311C9.57273 5.93896 9.17688 5.93896 8.93275 6.18311L4.99999 10.1163L1.06724 6.18311C0.823086 5.93896 0.427243 5.93896 0.183113 6.18311C-0.061018 6.42726 -0.0610375 6.82311 0.183113 7.06724L4.11627 11L0.183113 14.9328C-0.0610375 15.1769 -0.0610375 15.5727 0.183113 15.8169C0.427263 16.061 0.823106 16.061 1.06724 15.8169L4.99999 11.8837L8.93273 15.8169C9.17688 16.061 9.57273 16.061 9.81686 15.8169C10.061 15.5727 10.061 15.1769 9.81686 14.9328L5.8837 11Z" fill="white"/>
</g>
<defs>
<clipPath id="clip0_222_5313">
<rect width="9.99999" height="22" fill="white"/>
</clipPath>
</defs>
</svg>
