<svg width="16" height="17" viewBox="0 0 16 17" fill="none" xmlns="http://www.w3.org/2000/svg">
<g clip-path="url(#clip0_603_29235)">
<path d="M10 14.1663H3.33333C2.4496 14.1653 1.60237 13.8138 0.97748 13.1889C0.352588 12.564 0.00105857 11.7167 0 10.833L0 4.16634C0.00105857 3.28261 0.352588 2.43538 0.97748 1.81049C1.60237 1.1856 2.4496 0.834066 3.33333 0.833008L10 0.833008C10.8837 0.834066 11.731 1.1856 12.3559 1.81049C12.9807 2.43538 13.3323 3.28261 13.3333 4.16634V10.833C13.3323 11.7167 12.9807 12.564 12.3559 13.1889C11.731 13.8138 10.8837 14.1653 10 14.1663ZM3.33333 2.16634C2.8029 2.16634 2.29419 2.37705 1.91912 2.75213C1.54405 3.1272 1.33333 3.63591 1.33333 4.16634V10.833C1.33333 11.3634 1.54405 11.8721 1.91912 12.2472C2.29419 12.6223 2.8029 12.833 3.33333 12.833H10C10.5304 12.833 11.0391 12.6223 11.4142 12.2472C11.7893 11.8721 12 11.3634 12 10.833V4.16634C12 3.63591 11.7893 3.1272 11.4142 2.75213C11.0391 2.37705 10.5304 2.16634 10 2.16634H3.33333ZM16 13.4997V4.83301C16 4.6562 15.9298 4.48663 15.8047 4.3616C15.6797 4.23658 15.5101 4.16634 15.3333 4.16634C15.1565 4.16634 14.987 4.23658 14.8619 4.3616C14.7369 4.48663 14.6667 4.6562 14.6667 4.83301V13.4997C14.6667 14.0301 14.456 14.5388 14.0809 14.9139C13.7058 15.289 13.1971 15.4997 12.6667 15.4997H4C3.82319 15.4997 3.65362 15.5699 3.5286 15.6949C3.40357 15.82 3.33333 15.9895 3.33333 16.1663C3.33333 16.3432 3.40357 16.5127 3.5286 16.6377C3.65362 16.7628 3.82319 16.833 4 16.833H12.6667C13.5504 16.832 14.3976 16.4804 15.0225 15.8555C15.6474 15.2306 15.9989 14.3834 16 13.4997Z" fill="white"/>
</g>
<defs>
<clipPath id="clip0_603_29235">
<rect width="16" height="16" fill="white" transform="translate(0 0.833008)"/>
</clipPath>
</defs>
</svg>
