<svg width="16" height="14" viewBox="0 0 16 14" fill="none" xmlns="http://www.w3.org/2000/svg">
<path d="M12.6473 5.47438H9.40654V2.4231C9.40654 2.01848 9.23582 1.63042 8.93194 1.34431C8.62807 1.0582 8.21592 0.897461 7.78617 0.897461C7.35642 0.897461 6.94427 1.0582 6.64039 1.34431C6.33652 1.63042 6.1658 2.01848 6.1658 2.4231L6.22332 5.47438H2.92506C2.49531 5.47438 2.08316 5.63512 1.77928 5.92123C1.4754 6.20735 1.30469 6.5954 1.30469 7.00003C1.30469 7.40465 1.4754 7.7927 1.77928 8.07882C2.08316 8.36493 2.49531 8.52567 2.92506 8.52567L6.22332 8.47151L6.1658 11.5769C6.1658 11.9816 6.33652 12.3696 6.64039 12.6557C6.94427 12.9419 7.35642 13.1026 7.78617 13.1026C8.21592 13.1026 8.62807 12.9419 8.93194 12.6557C9.23582 12.3696 9.40654 11.9816 9.40654 11.5769V8.47151L12.6473 8.52567C13.077 8.52567 13.4892 8.36493 13.7931 8.07882C14.0969 7.7927 14.2677 7.40465 14.2677 7.00003C14.2677 6.5954 14.0969 6.20735 13.7931 5.92123C13.4892 5.63512 13.077 5.47438 12.6473 5.47438Z" fill="white"/>
</svg>
