<svg width="100" height="63" viewBox="0 0 100 63" fill="none" xmlns="http://www.w3.org/2000/svg">
<path d="M49.7218 13.8057L50.3422 12.7473C53.8152 6.83711 59.8846 2.53578 66.4588 0.848172C68.7521 0.264159 71.1136 -0.00288613 73.4783 0.0543719C74.7672 0.0867137 76.0519 0.213574 77.3225 0.433947C78.8044 0.692257 80.2613 1.07958 81.6769 1.59157C83.2954 2.17611 84.8528 2.91996 86.3266 3.81232C86.8022 4.10407 87.2687 4.41082 87.7252 4.73212C88.0289 4.94656 88.3287 5.16657 88.6245 5.39205C89.2155 5.84507 89.7879 6.32217 90.3403 6.82215C90.6155 7.07317 90.8864 7.32888 91.1529 7.58917C91.4182 7.8508 91.6784 8.11755 91.9335 8.38927C92.1888 8.66058 92.4381 8.93759 92.6812 9.22008C93.0471 9.64325 93.3996 10.0779 93.7383 10.5234C94.9829 12.1568 96.0402 13.9268 96.8903 15.7996C97.0457 16.1393 97.1934 16.4824 97.3333 16.8289C97.4036 17.0022 97.4721 17.1759 97.5388 17.3502C98.0583 18.6969 98.4365 20.0844 98.7881 21.4838C97.27 21.5878 95.6979 21.4996 94.1728 21.4972C91.0933 21.4862 88.0135 21.4912 84.9335 21.5122C83.3521 18.3945 81.4526 16.2895 78.3484 14.6901C75.1152 13.1733 71.6398 13.0024 68.2809 14.2388C64.7649 15.5343 62.3146 18.1448 60.7629 21.52C53.2324 21.5177 45.6972 21.6067 38.1667 21.5263C36.7282 18.3141 34.1225 15.6232 30.8416 14.3451C30.3469 14.1501 29.8404 13.987 29.3251 13.8569C28.6037 13.6714 27.8674 13.5512 27.1248 13.4978C26.701 13.4673 26.276 13.4573 25.8512 13.4679C25.3202 13.4831 24.7905 13.5304 24.2651 13.6096C23.4239 13.7396 22.5975 13.9527 21.7977 14.2459C21.4981 14.3558 21.2028 14.4771 20.9124 14.6097C17.9035 15.9745 15.5681 18.4118 14.393 21.5224L0.24688 21.5405C1.24074 16.9651 3.11516 12.7378 6.21238 9.21221C11.166 3.57371 17.566 0.554434 25.0121 0.0882344C27.0975 -0.165341 29.4954 0.166984 31.5433 0.585934C37.39 1.78057 42.9 5.15343 46.7824 9.70518C47.874 10.9857 48.7967 12.4024 49.7218 13.8057ZM0.203125 42.2415C2.48853 42.1872 4.78566 42.2337 7.07341 42.2352C9.51117 42.2384 11.9575 42.199 14.3945 42.2636C15.4314 44.3402 16.8831 46.1373 18.8325 47.413C21.8078 49.3597 25.3371 50.1228 28.8188 49.3629C33.0583 48.4376 35.6414 45.8349 37.9158 42.2793H60.9535C62.1646 44.5867 63.8757 46.5586 66.1213 47.8974C69.1216 49.685 72.9033 50.1693 76.2669 49.2952C80.1845 48.2777 82.9848 45.7254 84.9936 42.273C87.5353 42.1628 90.1169 42.247 92.6617 42.2415C94.6869 42.2384 96.7918 42.1195 98.8084 42.2652C98.6506 43.2873 98.2967 44.2945 97.9411 45.2624C96.6035 48.9038 94.6416 51.9357 92.0139 54.7604C90.8216 55.9826 89.5512 57.1261 88.1557 58.1073C87.6245 58.484 87.0798 58.841 86.5227 59.1775C86.152 59.402 85.7755 59.6168 85.3937 59.8217C85.0113 60.0265 84.6245 60.2226 84.2334 60.4099C83.2556 60.8775 82.2496 61.2826 81.2214 61.6227C80.3992 61.8962 79.5642 62.1291 78.7195 62.3204C78.0861 62.4641 77.4476 62.5836 76.8052 62.6787C74.8768 62.9656 72.9229 63.0377 70.9788 62.8937C70.1155 62.8293 69.2558 62.7223 68.4028 62.5732C61.6716 61.3526 55.9772 57.8041 51.6462 52.4956C50.8462 51.5151 50.1367 50.4717 49.4194 49.4298C48.46 50.6331 47.6778 51.9719 46.6902 53.161C44.6859 55.6001 42.276 57.6695 39.5684 59.2767C37.7659 60.3466 35.8471 61.2033 33.8498 61.8298C33.5169 61.9343 33.1825 62.0322 32.8465 62.1235C31.7889 62.4004 30.7158 62.6132 29.6329 62.7606C28.7667 62.8779 27.8952 62.952 27.0217 62.9827C26.3663 63.0061 25.7103 63.0051 25.0551 62.9796C23.7446 62.9299 22.4396 62.7825 21.1507 62.5386C18.137 61.9688 15.2426 60.8821 12.5935 59.3256C6.17096 55.5015 2.0502 49.4432 0.203125 42.24M83.2005 26.3443C84.1021 26.3364 85.0041 26.3395 85.9062 26.3537L85.8969 27.5515L85.8297 27.5673C85.8161 27.2512 85.8002 26.9354 85.782 26.6199L85.7539 26.6325L85.7898 26.7805L85.7468 26.7168C85.7351 27.2255 85.6023 28.5382 85.7687 28.9375L85.8984 28.9485C85.8992 28.9824 85.9 29.0903 85.9094 29.1186C85.9219 29.158 85.9297 29.2092 85.9656 29.2297L86.186 29.1667C86.4422 29.0958 86.7011 29.0354 86.9626 28.9855C87.8494 28.8123 88.6917 28.8619 89.5285 29.2249C90.3458 29.5793 90.9349 30.2259 91.2592 31.0551C91.7162 32.2237 91.7139 33.7704 91.2013 34.9194C91.0092 35.3596 90.7308 35.7561 90.3828 36.0851C90.0347 36.4141 89.6243 36.6687 89.1761 36.8338C88.0205 37.259 86.5157 37.1125 85.4109 36.5975C84.653 36.9991 84.049 36.9676 83.2177 36.9204L83.2005 26.3443ZM85.9141 31.1811L85.9055 34.9532C86.5438 35.0784 87.0595 35.169 87.708 35.0233C88.2245 34.7658 88.5745 34.4539 88.7706 33.894C88.9894 33.268 88.9355 32.4978 88.6456 31.9032C88.4573 31.515 88.1112 31.1315 87.6955 30.9897C87.4994 30.9212 87.2759 30.9078 87.0696 30.8913C86.6751 30.9669 86.2985 31.063 85.9141 31.1811ZM76.6873 28.8847C76.9709 28.8186 77.3358 28.8343 77.6272 28.8351C78.6672 28.8359 79.8212 29.0139 80.5713 29.8116C80.9041 30.1652 81.1041 30.5944 81.2214 31.0638C81.5503 32.3742 81.3565 35.4478 81.3432 36.8991C80.5775 36.9377 79.7134 37.0566 78.9594 36.9212C78.8016 36.7794 78.7961 36.6487 78.7383 36.4471C78.5922 36.4062 78.2406 36.696 78.078 36.7716C77.76 36.9196 77.3811 37.0125 77.0334 37.0629C75.9411 37.2228 74.9738 36.9338 74.1003 36.2683C73.6596 35.7746 73.4361 35.2792 73.4619 34.6067C73.4885 33.9578 73.7127 33.3514 74.2081 32.9215C75.352 31.9269 77.3186 32.1497 78.7125 32.245C78.6898 32.0607 78.6726 31.8639 78.6273 31.6827C78.5453 31.3559 78.2656 31.063 77.9757 30.907C76.8974 30.3259 75.316 30.9259 74.244 31.274C74.0667 30.6755 73.9628 30.0455 73.8346 29.4352C74.7464 29.1241 75.7333 28.9879 76.6865 28.884M77.3795 35.4525C77.939 35.3643 78.2812 35.0887 78.7078 34.7422L78.7101 33.4625C78.2327 33.4656 77.7413 33.4436 77.2647 33.4837C76.849 33.5349 76.4349 33.5932 76.1474 33.9366C76.0013 34.1122 75.9161 34.3303 75.9364 34.561C75.9575 34.8154 76.102 35.0398 76.3021 35.1903C76.6208 35.4297 76.9935 35.4745 77.3795 35.4525ZM33.4091 28.6824C33.5185 28.6705 33.6294 28.6682 33.7396 28.6658C34.5975 28.6446 35.4632 28.8084 36.0969 29.4423C36.461 29.8069 36.6774 30.2613 36.7978 30.759C37.1165 32.082 36.9376 35.3737 36.9306 36.907L34.1209 36.9535C34.0834 35.547 34.4725 32.7018 33.8982 31.489C33.7552 31.1866 33.5208 30.9173 33.1942 30.8165C32.6473 30.6487 32.066 30.9181 31.5925 31.1748C31.4706 31.3221 31.3534 31.4622 31.3136 31.6544C31.1823 32.2836 31.2612 33.0364 31.2721 33.6783L31.3222 36.9046C30.39 36.9543 29.4469 36.933 28.5133 36.9361L28.5093 28.8036C29.3482 28.7989 30.1871 28.8138 31.0252 28.8485C31.0604 29.1572 31.0565 29.4754 31.0659 29.7856C31.7831 29.1202 32.4582 28.8375 33.4091 28.6824ZM10.7722 28.6839C11.6098 28.6501 12.5263 28.7769 13.1678 29.3651C13.5741 29.7384 13.8202 30.2487 13.9413 30.7842C14.1179 31.5693 14.0453 32.4364 14.0406 33.2357C14.0343 34.4587 14.0101 35.6824 14.0515 36.9054L11.3059 36.9078C11.3161 35.7305 11.5387 32.2135 10.9746 31.3189C10.8137 31.0645 10.5754 30.8755 10.2777 30.8181C9.8198 30.7299 9.23224 30.9834 8.85641 31.2354C8.80094 31.2921 8.69468 31.3984 8.66811 31.4748C8.53841 31.8442 8.6517 36.1888 8.64702 36.9267L5.85999 36.9291C5.80764 34.2397 5.84437 31.5402 5.84984 28.8501L8.59701 28.8406C8.60326 29.0816 8.62045 29.3187 8.64389 29.5588C9.31428 29.0422 9.94481 28.8068 10.7722 28.6839ZM61.7474 28.7083C62.66 28.7375 63.5757 28.7257 64.4883 28.7265C63.6944 30.0306 62.9178 31.4118 62.0216 32.6427C62.649 33.5672 63.3139 34.4697 63.9624 35.3793C64.307 35.8636 64.7078 36.3558 64.968 36.8913C64.8664 36.9598 64.7516 36.948 64.6313 36.959C63.665 36.9674 62.6987 36.963 61.7325 36.9456C61.3262 36.1652 60.8629 35.4021 60.4058 34.65C59.9354 35.4029 59.4651 36.1416 59.0533 36.9298C58.0423 36.9928 57.0101 36.9432 55.9975 36.9243C56.8874 35.5076 57.8852 34.1484 58.8455 32.7797C57.8563 31.4992 56.9921 30.0644 56.0702 28.728L59.0189 28.7335C59.5534 29.4281 59.9964 30.2337 60.4566 30.9819C60.8785 30.2188 61.295 29.4533 61.7474 28.7083ZM19.4615 26.0931C20.1842 25.971 21.032 26.1025 21.7617 26.1616C21.768 26.7601 21.7594 27.3609 21.757 27.9602C21.1242 27.9201 20.2006 27.7381 19.6568 28.1382C19.4732 28.2736 19.3521 28.439 19.3247 28.6635L19.4357 28.7973C20.0897 29.0769 21.0867 28.9359 21.793 28.9241C21.7728 29.5686 21.7684 30.2135 21.7797 30.8582C20.9619 30.8351 20.1441 30.8244 19.3263 30.8259C19.2521 32.4151 19.3076 34.0311 19.3091 35.6226C19.3076 36.0644 19.3263 36.5077 19.3388 36.9495C18.4075 36.9755 17.4699 36.9543 16.5377 36.955C16.533 34.8753 16.5987 32.79 16.5338 30.7117L15.7587 30.7283L15.7603 28.9328L16.5127 28.9446C16.6151 28.2689 16.7377 27.5869 17.1894 27.0459C17.7597 26.3608 18.6262 26.1844 19.4615 26.0931ZM95.637 28.8816C96.877 28.6816 98.3092 29.0107 99.5054 29.3171C99.2811 29.9014 99.1413 30.5495 98.9678 31.1535C98.1982 30.8566 97.3387 30.5802 96.509 30.5755C96.1113 30.5731 95.5042 30.7173 95.2323 31.0307C95.1635 31.1102 95.1854 31.0953 95.1932 31.2079C95.7683 31.9765 98.131 32.0607 99.1108 32.8656C99.4851 33.1727 99.7671 33.6082 99.8039 34.1019C99.8484 34.6949 99.6773 35.4289 99.2882 35.8872C98.5209 36.7912 97.4825 37.0204 96.366 37.1047C95.0338 37.1275 93.7899 36.8889 92.5718 36.3432C92.7836 35.7384 93.018 35.1454 93.2563 34.5516C94.1759 34.9453 95.0291 35.2966 96.0417 35.2863C96.4347 35.2816 96.9684 35.2454 97.2505 34.932C97.3215 34.8524 97.3466 34.8075 97.3215 34.6965C97.1239 33.8224 94.4462 33.6727 93.6899 33.2136C93.4553 33.0727 93.253 32.8831 93.0965 32.6575C92.94 32.4318 92.8328 32.1753 92.782 31.9048C92.6585 31.3047 92.7453 30.6448 93.1039 30.1432C93.7219 29.2785 94.6502 29.0281 95.637 28.8816ZM44.6666 27.1066C45.3932 27.1144 46.1042 27.0475 46.8262 27.0381C47.0082 27.0357 47.2231 27.0593 47.3466 27.2097C47.6497 27.5799 47.5208 28.4067 47.5052 28.8564C48.2292 28.8574 48.9532 28.8627 49.6773 28.8721L49.6984 30.7299C48.9849 30.7126 48.2711 30.7111 47.5575 30.7251C47.4888 31.7134 47.2973 32.853 47.4278 33.8334C47.477 34.2067 47.6099 34.5957 47.9326 34.8178C48.4584 35.1784 49.1233 34.9981 49.696 34.8776L49.8539 36.0998C49.8828 36.2691 49.9226 36.4369 49.957 36.6038C49.1577 36.9275 48.4061 37.1157 47.538 37.0944C46.7356 37.0747 45.9323 36.9519 45.3674 36.3172C44.2486 35.0611 44.6392 32.3104 44.7135 30.7472L43.479 30.7346C43.4633 30.0975 43.4547 29.4675 43.4868 28.8312L44.676 28.8336L44.6666 27.1066ZM69.1857 26.3262C70.0983 26.3277 71.0218 26.3017 71.9313 26.3718C72.0117 29.8904 71.8469 33.416 71.9531 36.9385C71.0374 36.9708 70.1045 36.9251 69.1872 36.9172L69.1857 26.3262ZM0.754748 26.7908C1.6861 26.7798 2.61719 26.7829 3.54802 26.8002C3.4738 30.1676 3.5238 33.5436 3.52849 36.9117C2.61353 36.9493 1.69775 36.9627 0.782095 36.9519C0.6563 33.5806 0.752404 30.1668 0.754748 26.7908ZM39.13 28.8847C40.0411 28.8501 40.9662 28.8926 41.8788 28.9021C41.9022 30.4708 41.8897 32.0418 41.8944 33.6113C41.896 34.7059 41.9374 35.8179 41.8678 36.9094L39.0902 36.9023C39.1621 36.0274 39.1043 35.0958 39.1058 34.2145L39.13 28.8847ZM51.783 28.895C52.6737 28.8501 53.584 28.8808 54.4755 28.895C54.4637 31.5662 54.3622 34.2697 54.4958 36.9369C53.616 37.0354 52.6323 36.9527 51.7424 36.9448L51.74 31.5607C51.74 30.7023 51.6478 29.7384 51.783 28.895ZM23.5393 28.8178C24.4393 28.7987 25.3395 28.7969 26.2396 28.8123C26.1497 31.4937 26.2388 34.2027 26.238 36.8873C25.5536 37.0598 24.2847 36.9503 23.5486 36.955L23.5393 28.8178ZM51.74 26.0049L54.5005 26.0033V28.0547C53.5824 28.0854 52.6573 28.0657 51.7384 28.0673L51.74 26.0049ZM23.5018 26.0143H26.2482L26.2403 28.0027C25.3371 28.013 24.4323 28.0035 23.5291 28.0043C23.501 27.3428 23.5088 26.6766 23.5018 26.0143ZM39.1832 26.0293C40.0723 25.9867 40.9732 26.0119 41.8639 26.0104C41.8561 26.6409 41.8548 27.2719 41.86 27.9035L41.8561 27.939C41.553 28.1287 39.6559 28.0177 39.1769 28.0153C39.1621 27.3538 39.1769 26.6908 39.1832 26.0293Z" fill="#C5C8CD"/>
<path d="M85.8964 28.9497L85.7667 28.9387C85.6003 28.5394 85.7331 27.2267 85.7449 26.718L85.7871 26.781L85.7519 26.6337L85.78 26.6211C85.7977 26.9361 85.8134 27.2516 85.8269 27.5677L85.8949 27.5519L85.8964 28.9497Z" fill="#C5C8CD"/>
</svg>
