<svg width="136" height="50" viewBox="0 0 136 50" fill="none" xmlns="http://www.w3.org/2000/svg">
<path d="M54.2824 35.3546L135.695 35.3652C135.583 39.1677 133.924 42.5134 131.342 45.2209C128.833 47.719 125.266 49.4177 121.703 49.5002C117.208 49.604 112.693 49.5302 108.195 49.5252L86.4878 49.5284L75.5659 49.5265C72.4346 49.5327 69.1766 49.7277 66.0933 49.0921C63.249 48.5052 60.648 47.0171 58.5592 45.014C57.984 44.471 57.4567 43.8792 56.9832 43.2452C56.7813 42.973 56.589 42.6936 56.4067 42.4077C55.9829 41.7397 55.6174 41.0363 55.3143 40.3052C55.2278 40.0963 55.1466 39.8852 55.071 39.6721C54.5759 38.2854 54.3095 36.8271 54.2824 35.3546ZM0.3125 35.384C1.90343 35.4815 3.53304 35.409 5.12958 35.4059L13.3912 35.4009L34.7907 35.4215L45.3133 35.3965C47.5057 35.3902 49.7105 35.3302 51.9004 35.4071C51.823 37.3884 51.9104 39.3852 51.8948 41.369C51.8748 43.9521 51.7706 46.5521 51.8636 49.1334C51.8629 49.2659 51.8448 49.3115 51.7949 49.4302C51.7036 49.4408 51.6121 49.4492 51.5204 49.4552C49.4154 49.5752 47.233 49.4546 45.1205 49.4565L31.9826 49.4677L21.0526 49.4652C18.0953 49.4634 14.9609 49.6527 12.0529 49.0546C10.1227 48.638 8.29482 47.84 6.67621 46.7071C6.13844 46.3306 5.62595 45.9191 5.14206 45.4752C4.78841 45.1541 4.45029 44.8162 4.12886 44.4627C3.88866 44.1966 3.65768 43.9223 3.43633 43.6402C3.21576 43.3576 3.00497 43.0674 2.80433 42.7702C2.53705 42.3739 2.28968 41.9644 2.06314 41.5434C1.8355 41.1229 1.62894 40.6913 1.44424 40.2502C0.934201 39.0365 0.588008 37.76 0.414819 36.4546C0.367933 36.0989 0.333805 35.7422 0.3125 35.384ZM15.5037 0.528984C16.5306 0.365234 17.7391 0.480859 18.7854 0.483359L25.6257 0.498359L43.2944 0.488359C46.193 0.486484 49.0978 0.538359 51.9952 0.488359V14.4246C49.3093 14.3546 46.611 14.4259 43.9239 14.4246C41.5693 14.424 39.206 14.3434 36.8539 14.3934C31.9333 14.5021 26.9927 14.3759 22.0702 14.3727C14.8783 14.4069 7.6865 14.3975 0.494677 14.3446C0.812862 11.1209 2.07687 8.29773 4.17752 5.83586C7.1067 2.40086 11.1015 0.859609 15.5031 0.529609M31.5016 17.0759C33.5585 16.8734 35.5007 17.3002 37.2002 18.5071C38.7624 19.6184 39.7463 21.2321 40.0533 23.1227C40.3571 24.9946 39.974 26.9496 38.8491 28.494C37.4866 30.3627 35.4695 31.1834 33.2553 31.529C31.2389 31.6821 29.1563 31.2765 27.5061 30.0609C26.0019 28.9527 24.9176 27.3271 24.6425 25.4634C24.3555 23.5227 24.7984 21.5434 25.9895 19.9759C27.3601 18.1715 29.3129 17.3652 31.5016 17.0759ZM32.7231 27.4509C33.0728 27.4092 33.4133 27.3109 33.7313 27.1596C33.9218 27.0688 34.1027 26.9589 34.271 26.8315C34.4394 26.7042 34.5953 26.561 34.7364 26.404C34.9249 26.1944 35.0842 25.9602 35.21 25.7077C35.3052 25.5192 35.3811 25.3216 35.4364 25.1177C35.5854 24.5714 35.5877 23.9953 35.4433 23.4477C35.3335 23.0386 35.1448 22.655 34.888 22.3184C34.7162 22.0952 34.5161 21.8954 34.2929 21.724C34.1246 21.5962 33.9445 21.4849 33.7551 21.3915C33.4383 21.2375 33.0986 21.1361 32.7493 21.0915C32.4699 21.0572 32.1872 21.0595 31.9083 21.0984C31.7543 21.1199 31.602 21.1529 31.4529 21.1971C31.2035 21.271 30.9639 21.3747 30.7392 21.5059C30.3688 21.7237 30.046 22.0139 29.7899 22.3593C29.5339 22.7047 29.3499 23.0982 29.2488 23.5164C29.1478 23.9345 29.1317 24.3687 29.2017 24.7932C29.2717 25.2177 29.4262 25.6237 29.6561 25.9871C29.7957 26.2066 29.9612 26.4084 30.149 26.5884C30.2996 26.7317 30.4636 26.8602 30.6387 26.9721C30.7707 27.0553 30.9083 27.1292 31.0505 27.1934C31.2404 27.2776 31.4378 27.3437 31.6401 27.3909C31.792 27.4261 31.9463 27.45 32.1017 27.4621C32.3087 27.4789 32.5169 27.4755 32.7231 27.4509ZM80.849 17.2109C82.4187 17.1021 84.0602 17.2921 85.6374 17.2909C85.7559 18.9721 85.6723 20.6946 85.6692 22.3809L85.6599 31.3077L81.3182 31.3152C81.2134 28.9321 81.3556 26.5434 81.2957 24.1584L81.2939 23.8771C81.0387 23.9352 78.1644 28.4934 77.7988 29.0502C76.5454 27.3965 75.4673 25.5221 74.378 23.7552C74.2657 24.969 74.3568 26.1752 74.3499 27.3915C74.3424 28.6671 74.2295 29.9715 74.3518 31.2415C72.8559 31.2577 71.3599 31.2535 69.8641 31.229L69.886 21.2984C69.8872 19.9627 69.9303 18.6202 69.8853 17.2859C71.1244 17.3009 72.4383 17.3884 73.668 17.2396C73.8726 17.197 74.0828 17.1889 74.29 17.2159C74.461 17.2434 74.5614 17.2996 74.6899 17.414C75.3631 18.0127 77.0926 21.0877 77.7264 22.0746C78.7839 20.464 79.7641 18.804 80.849 17.2109ZM109.045 17.3271C109.776 17.4184 110.601 17.3446 111.339 17.3246C114.376 17.2415 118.13 16.9196 120.557 19.1134C121.904 20.3302 122.558 22.1021 122.646 23.8902C122.743 25.9059 122.007 27.7965 120.666 29.2771L120.607 29.3352C118.397 31.4352 115.531 31.419 112.668 31.3634L109.016 31.3009L109.025 23.1096C109.017 21.1915 108.944 19.2421 109.045 17.3271ZM113.527 27.5052C114.864 27.5277 116.148 27.5959 117.248 26.6809C117.963 25.7227 118.175 24.7221 118.012 23.5434C117.913 22.8321 117.615 22.1809 117.021 21.7546C116.021 21.0377 114.693 21.144 113.527 21.1684V27.5052ZM96.1425 17.2484C96.636 17.364 97.3148 17.2815 97.8301 17.2809C98.4877 17.9071 99.0336 18.7227 99.5976 19.4371L102.939 23.6871C102.995 21.5809 102.916 19.4684 102.949 17.3602C104.428 17.3398 105.908 17.339 107.388 17.3577C107.439 18.7109 107.379 20.0671 107.366 21.4202L107.359 27.4571C107.36 28.6984 107.273 30.0146 107.412 31.2465C106.703 31.349 105.951 31.2984 105.235 31.294C104.638 31.3127 104.045 31.3065 103.451 31.2346C101.737 29.0591 100.008 26.8957 98.2637 24.7446C98.2388 26.9352 98.2818 29.1259 98.2538 31.3171L93.8198 31.3034C93.7649 26.6446 93.8141 21.9765 93.8285 17.3171C94.5996 17.2988 95.371 17.2759 96.1425 17.2484ZM3.98661 17.3171C4.68974 17.2702 5.39973 17.3009 6.10285 17.3359C7.68879 17.4134 9.6553 17.5896 10.7714 18.8752C11.3641 19.5577 11.6181 20.5002 11.5388 21.394C11.4409 22.5146 10.7047 23.144 9.91671 23.8352C10.8108 24.3165 11.6511 24.8521 12.1066 25.809C12.5009 26.639 12.489 27.664 12.1777 28.5196C11.7797 29.6134 10.963 30.3034 9.94541 30.7909C8.25092 31.5115 6.26569 31.2609 4.472 31.2459L0.486566 31.2271C0.636301 26.639 0.524624 22.0146 0.494677 17.4227C1.65512 17.4459 2.82804 17.3827 3.98661 17.3171ZM4.83947 27.6984C5.70107 27.7421 6.582 27.789 7.44048 27.6715C7.77114 27.5621 8.14673 27.3815 8.32267 27.0596C8.39629 26.924 8.39317 26.7859 8.32891 26.644C8.13425 26.2096 7.45545 25.9352 7.02559 25.8477C6.63067 25.7677 6.17523 25.7777 5.77469 25.7977L4.83261 25.8352C4.83448 26.4565 4.82949 27.0777 4.83947 27.6984ZM4.83323 22.4396C5.52575 22.4734 6.20143 22.4977 6.89457 22.4496C7.20278 22.349 7.33317 22.2284 7.53219 21.9752C7.56339 21.7596 7.57711 21.6452 7.45171 21.4552C7.27265 21.1827 6.81284 20.959 6.49903 20.9159C6.20311 20.8794 5.90453 20.8696 5.60686 20.8865C5.32423 20.8915 5.15766 20.8596 4.91247 21.0071C4.69847 21.3909 4.81202 22.004 4.83323 22.4396ZM54.95 17.3134C56.3818 17.4046 57.8305 17.2321 59.2685 17.3315C59.2742 18.9396 59.2548 20.5496 59.2779 22.1565C60.6199 20.5715 61.9033 18.9377 63.244 17.3509C65.0429 17.33 66.8416 17.3342 68.64 17.3634C67.4058 18.6243 66.2129 19.9252 65.0633 21.264C64.4724 21.944 63.8317 22.6177 63.3195 23.3596C64.6259 25.1284 65.8475 26.9615 67.1602 28.729C67.7972 29.594 68.4497 30.4474 69.1173 31.289C67.2163 31.2384 65.2916 31.2309 63.39 31.2727C62.3088 29.7296 61.3074 28.1165 60.288 26.5315C59.9691 26.9231 59.6313 27.2989 59.276 27.6577C59.2292 28.859 59.2567 30.0702 59.2536 31.2734L54.9019 31.2621C54.9269 27.9577 54.8533 24.6546 54.8651 21.3509C54.8701 20.0615 54.7441 18.5802 54.95 17.3134ZM128.934 17.009C131.233 17.0671 132.915 17.5621 134.7 19.034C133.947 20.0115 133.187 20.9859 132.476 21.9959C132.15 21.743 131.799 21.5231 131.429 21.3396C130.58 20.9259 128.971 20.4759 128.063 20.8665C127.872 20.949 127.828 21.0309 127.75 21.2152C127.813 21.5696 128.022 21.7652 128.345 21.9134C128.735 22.0927 129.224 22.1552 129.645 22.249C131.13 22.579 132.925 22.894 134.032 24.0396C134.73 24.7621 135.036 25.7259 135.023 26.7196C135.005 27.994 134.538 29.1977 133.602 30.0796C132.205 31.3971 130.119 31.5921 128.293 31.5484C126.105 31.519 124.283 30.7659 122.61 29.3921C123.538 28.4971 124.308 27.3727 125.097 26.3521C126.115 27.0846 127.003 27.524 128.251 27.7459C128.753 27.8352 129.844 27.8209 130.235 27.4609C130.394 27.314 130.388 27.2684 130.388 27.0671C129.732 25.809 126.145 25.9746 124.544 24.6215C123.773 23.969 123.414 23.0521 123.342 22.0602C123.248 20.7477 123.427 19.6977 124.331 18.6865C125.494 17.3871 127.285 17.1015 128.934 17.009ZM47.6024 17.0721C47.6236 17.0684 47.6442 17.0627 47.6648 17.0609C50.32 16.7527 52.2572 17.889 54.2762 19.4284C53.2979 20.5002 52.2547 21.5221 51.2328 22.5534C50.6438 21.9152 50.0012 21.3877 49.1272 21.2096C48.2749 21.0371 47.3073 21.1846 46.5892 21.6896C45.9384 22.1465 45.5348 22.8777 45.4019 23.654C45.2979 24.2692 45.363 24.9012 45.5903 25.4821C45.6311 25.5873 45.6775 25.6901 45.7294 25.7902C45.83 25.9858 45.9491 26.1712 46.0851 26.344C46.1809 26.4619 46.2851 26.5726 46.397 26.6752C46.6222 26.88 46.8771 27.0492 47.1532 27.1771C47.2912 27.2399 47.4336 27.2926 47.5793 27.3346C47.7253 27.3766 47.8745 27.4069 48.0254 27.4252C49.3199 27.5815 50.3612 26.9165 51.3414 26.1734L53.0352 27.9902C53.4283 28.4459 53.8875 28.8484 54.3254 29.2602C53.5799 29.9723 52.7075 30.5379 51.7538 30.9277C51.1828 31.1619 50.5874 31.3311 49.9788 31.4321C47.8413 31.7984 45.493 31.4252 43.7186 30.1352C42.1676 29.0084 41.1675 27.4071 40.8911 25.5059C40.6085 23.5571 41.064 21.4865 42.2631 19.9096C43.5733 18.1865 45.5048 17.3477 47.6024 17.0721ZM13.4161 17.4609C14.9085 17.4475 16.4004 17.4492 17.8919 17.4659C17.8333 20.7784 17.8782 24.1009 17.8714 27.4146L24.0535 27.414C24.0641 28.5509 24.1833 29.8227 24.0367 30.9415C24.0092 31.1515 24.0541 31.0702 23.8901 31.1977C20.4324 31.2946 16.9255 31.2546 13.4673 31.1652L13.4161 17.4609ZM87.4766 17.2996C88.3451 17.4227 91.0016 17.3721 91.9206 17.2959L91.9225 31.2096C91.618 31.4046 88.0718 31.2896 87.4242 31.3121L87.428 22.2715C87.4298 20.629 87.3481 18.9365 87.4766 17.2996Z" fill="#C5C8CD"/>
</svg>
