<svg width="110" height="52" viewBox="0 0 110 52" fill="none" xmlns="http://www.w3.org/2000/svg">
<path d="M18.2263 0.311882C22.9259 0.0973818 27.5194 1.49098 31.1726 4.46538C35.0007 7.58278 37.2847 11.9079 37.7385 16.8017C38.1772 21.5305 36.5402 26.1962 33.4822 29.8147C29.958 33.9851 25.2531 36.0326 19.8725 36.5013C17.2146 36.7756 13.9241 36.5468 11.2125 36.5026C7.62086 36.4454 4.01806 36.4961 0.425083 36.5058L0.449966 26.1741C0.424428 22.2754 0.111426 18.1466 1.05764 14.3278C1.38702 13.0182 1.8632 11.7492 2.47728 10.5448C2.93782 9.64221 3.47473 8.78003 4.08223 7.96758C4.28479 7.69718 4.49455 7.4322 4.71151 7.17263C8.20168 2.95348 12.8227 0.840982 18.2263 0.311882ZM89.7309 0.132482C90.0341 0.0869818 90.355 0.0986818 90.6627 0.0947818C91.6003 0.0863746 92.5371 0.147864 93.4653 0.278732C94.7037 0.45295 95.9217 0.748183 97.1015 1.16013C98.1336 1.52026 99.1321 1.96917 100.086 2.50173C100.631 2.80444 101.161 3.13464 101.672 3.49103C101.928 3.66942 102.179 3.85363 102.426 4.04353C102.55 4.13887 102.672 4.2355 102.793 4.33343C103.156 4.62717 103.508 4.93463 103.847 5.25513C103.961 5.36173 104.073 5.47007 104.183 5.58013C110.249 11.5003 109.651 17.4576 109.641 25.0736L109.692 36.4746C104.176 36.4629 98.6423 36.4259 93.1274 36.5299C88.4324 36.4584 84.1041 35.9371 80.2151 33.0706C80.0907 32.9787 79.9669 32.8853 79.8438 32.7904C79.599 32.5999 79.3586 32.4037 79.1229 32.2022C78.8869 32.0009 78.6566 31.7933 78.4321 31.5795C77.9819 31.1528 77.5531 30.7044 77.1473 30.2359C76.9451 30.0013 76.7484 29.762 76.5573 29.5183C76.2708 29.1527 75.9984 28.7762 75.7408 28.3899C75.225 27.6174 74.7674 26.8081 74.3715 25.9687C74.1752 25.5482 73.9934 25.1211 73.8267 24.6882C73.717 24.3994 73.6139 24.1081 73.5177 23.8146C73.4214 23.5208 73.333 23.2245 73.2525 22.926C73.1709 22.6281 73.0974 22.3282 73.0318 22.0264C72.9005 21.43 72.7995 20.8273 72.7293 20.2207C72.6959 19.9282 72.6691 19.635 72.6487 19.3413C72.6287 19.0474 72.6165 18.7531 72.6121 18.4586C72.6065 18.1643 72.6087 17.87 72.6186 17.5759C72.6277 17.2815 72.6445 16.9874 72.669 16.6938C72.6808 16.5474 72.6943 16.4009 72.7096 16.2544C72.7416 15.9618 72.78 15.6699 72.8249 15.3789C72.8695 15.0878 72.9221 14.798 72.9827 14.5098C73.0416 14.2212 73.1084 13.9342 73.1831 13.6492C73.256 13.3639 73.3368 13.0806 73.4253 12.7997C73.5576 12.378 73.7049 11.9611 73.8667 11.5497C73.9737 11.2753 74.0886 11.0039 74.2111 10.7359C74.7582 9.52604 75.4384 8.37985 76.2391 7.31823C79.7574 2.69998 84.1093 0.896232 89.7309 0.132482ZM44.8072 0.0213318C46.2967 0.00486515 47.7862 -0.00206818 49.2757 0.000531818C55.2876 0.0154818 60.312 0.985932 64.6973 5.40138C65.232 5.95135 65.7326 6.53309 66.1962 7.14338C66.4745 7.50968 66.7388 7.8863 66.9885 8.27243C67.1541 8.53031 67.3141 8.79167 67.4685 9.05633C68.3907 10.6496 69.0708 12.3695 69.4866 14.1601C69.5548 14.4584 69.6164 14.7581 69.6713 15.0591C69.7257 15.3601 69.7722 15.6624 69.8107 15.9658C69.8698 16.4206 69.9115 16.8775 69.9358 17.3354C69.9609 17.7934 69.9686 18.2522 69.9587 18.7108C69.8978 23.355 67.8247 28.0493 64.4818 31.2961C58.2657 37.1773 52.6218 36.487 44.7869 36.4961C44.6167 32.4264 44.7162 28.3113 44.7044 24.2371C44.6848 16.1641 44.7193 8.09195 44.8079 0.0206818M71.2193 40.6704C72.3992 40.6366 73.6048 40.6327 74.7441 40.9791C76.2221 41.4289 77.4387 42.4104 78.1466 43.78C78.7929 45.0299 78.9886 46.4963 78.544 47.8464C78.0051 49.4798 76.8906 50.4516 75.3885 51.2225C73.1909 52.1045 70.7976 51.8783 68.486 51.825C68.6308 48.1408 68.5489 44.402 68.5096 40.7133L71.2193 40.6704ZM70.8074 49.7502C72.2205 49.7333 73.5078 49.745 74.7998 49.0762C75.6019 48.4782 76.1631 47.6806 76.298 46.6757C76.3119 46.5635 76.3208 46.4507 76.3249 46.3377C76.3274 46.2246 76.325 46.1114 76.3176 45.9984C76.3088 45.8857 76.2951 45.7733 76.2764 45.6617C76.2463 45.4948 76.2045 45.3302 76.1513 45.169C76.0252 44.7925 75.833 44.4411 75.5836 44.131C74.8856 43.2587 73.813 42.8349 72.7188 42.7354C72.2486 42.6908 71.7778 42.6769 71.3063 42.6938L70.8879 42.7439C70.6908 45.0696 71.125 47.4284 70.8074 49.7502ZM102.003 40.6619C103.273 40.528 104.79 40.5254 106.046 40.7016C107.118 40.8517 108.221 41.2346 108.873 42.1446C109.512 43.0377 109.586 44.3071 109.393 45.3608C109.155 46.6575 108.37 47.3335 107.323 48.0225C108.013 49.3102 108.935 50.5036 109.66 51.7828L107.353 51.825L107.3 51.8465C106.674 51.6105 105.45 49.2907 104.992 48.6095C104.458 48.551 103.893 48.5939 103.355 48.5861C103.351 49.6553 103.311 50.7389 103.384 51.8062L101.267 51.799C101.101 49.9641 101.191 48.0674 101.19 46.222C101.19 44.4332 101.089 42.5612 101.289 40.7848C101.51 40.6528 101.75 40.6762 102.003 40.6619ZM106.621 46.0368C106.987 45.5538 107.378 44.8616 107.275 44.2298C107.2 43.7715 106.883 43.3919 106.503 43.1404C105.606 42.545 104.458 42.6392 103.433 42.6665C103.494 43.9893 103.564 45.3146 103.46 46.638C104.608 46.6244 105.596 46.6497 106.621 46.0368ZM85.0568 40.3941C87.259 40.2628 88.769 41.0422 90.4355 42.3812C89.8822 42.9467 89.2909 43.4537 88.6747 43.9496C87.6185 43.2249 86.5243 42.5892 85.1878 42.6899C84.6883 42.7264 84.2017 42.864 83.7579 43.0943C83.314 43.3246 82.9224 43.6426 82.6072 44.0289C82.4486 44.2264 82.3108 44.4394 82.1959 44.6646C82.139 44.7776 82.0877 44.8932 82.0421 45.0111C81.9982 45.1292 81.9593 45.2492 81.9255 45.3705C81.8423 45.6757 81.8002 45.9904 81.8004 46.3065C81.7998 46.4958 81.814 46.6849 81.843 46.872C81.9812 47.8061 82.4978 48.6153 83.2731 49.16C84.2573 49.8516 85.6737 50.0473 86.8497 49.8269C87.3566 49.7327 88.1227 49.4759 88.3833 48.9852C88.4887 48.7856 88.4265 48.7057 88.344 48.5198C87.6669 47.9887 86.4824 48.2234 85.6684 48.2793C85.6324 47.6559 85.5663 46.9676 85.6868 46.354L85.8335 46.2649C87.4692 46.2454 89.0925 46.2285 90.7282 46.2987C90.7289 47.5792 90.7845 48.8662 90.7328 50.1461C89.7545 51.1341 88.2203 51.7444 86.8556 51.929C85.0929 52.1669 83.0747 51.8172 81.6413 50.7285C80.4175 49.7983 79.667 48.4626 79.4693 46.9487C79.2656 45.3965 79.7083 43.8872 80.6755 42.6561C81.7762 41.2541 83.3137 40.6034 85.0568 40.3941ZM21.3635 40.6652C23.2559 40.6502 25.7953 40.4331 27.3138 41.7975C28.0223 42.4345 28.3648 43.325 28.3785 44.2629C28.3929 45.2873 28.0249 46.2857 27.2935 47.0189C26.2307 48.083 24.8334 48.1564 23.4222 48.172C23.0176 48.1768 22.6129 48.1848 22.2082 48.1961C22.1964 49.3986 22.2102 50.603 22.2121 51.8062L19.8987 51.8153C19.8856 48.109 19.8926 44.4029 19.9196 40.697C20.4042 40.7074 20.8796 40.6918 21.3635 40.6652ZM22.2049 46.302C23.3181 46.2825 24.5276 46.38 25.5032 45.7579C25.8333 45.2548 26.145 44.5944 25.993 43.9756C25.8955 43.5791 25.5969 43.2723 25.2498 43.0708C24.3639 42.5554 23.2134 42.6457 22.222 42.6535C22.2305 43.8606 22.292 45.0995 22.2049 46.302ZM29.4773 40.6964L31.798 40.7094C31.6539 41.6889 31.671 43.895 31.8949 44.8551C33.6935 44.836 35.492 44.8447 37.2906 44.8811C37.0968 43.559 37.2729 42.0542 37.2611 40.7068C38.022 40.7263 38.7862 40.7133 39.5477 40.7133C39.4901 41.6194 39.553 42.5333 39.5543 43.4413L39.5222 48.77C39.5229 49.732 39.5674 50.7116 39.4829 51.669C39.3114 51.8315 39.1745 51.7834 38.946 51.7912C38.3724 51.7613 37.7955 51.7925 37.2212 51.8094C37.284 50.2059 37.2696 48.5984 37.2736 46.9929C35.4234 46.9649 33.573 46.955 31.7227 46.963C31.7273 48.5685 31.8144 50.2202 31.6572 51.8185C30.9376 51.721 30.1682 51.7867 29.4452 51.8348C29.5317 48.1233 29.3431 44.404 29.4773 40.6964ZM92.5172 40.6606C94.864 40.7503 97.2233 40.6626 99.5722 40.6957C99.5604 41.3549 99.5381 42.0139 99.5054 42.6724L94.6257 42.7309L94.6237 45.0273C96.1927 45.0194 97.7617 45.0248 99.3305 45.0436C99.3508 45.741 99.3345 46.4417 99.3338 47.1392L94.6191 47.1665L94.6263 49.6644L99.656 49.6826C99.6146 50.39 99.6109 51.0991 99.6448 51.8068L92.4019 51.8003C92.3816 50.6856 92.2873 40.9824 92.5172 40.6606ZM45.9171 40.3265C46.8457 41.62 47.4743 43.3458 48.1605 44.7881C49.2672 47.1164 50.4472 49.4337 51.4503 51.8075C50.6777 51.8309 49.905 51.8205 49.1316 51.814C48.799 51.2212 48.5128 50.6134 48.228 49.9979L45.7868 49.9667C45.0552 49.9619 44.3233 49.9671 43.5912 49.9823C43.3411 50.5738 43.0373 51.1458 42.7485 51.7204L40.2667 51.736C42.2679 47.992 43.8839 44.0497 45.9171 40.3265ZM44.3751 48.2357L45.6565 48.2487C46.2308 48.2513 46.809 48.2416 47.382 48.2637C47.0395 47.3927 46.6289 45.8177 45.9466 45.1749C45.3835 46.1681 44.7981 47.1736 44.3751 48.2357ZM59.7475 40.6788C62.1324 40.6424 64.5689 40.8277 66.9446 40.6632L66.9354 42.6548C65.3063 42.7088 63.6712 42.6945 62.0407 42.7348L62.0368 45.156C63.5236 45.1378 65.0109 45.1324 66.4987 45.1398L66.4941 47.1307C65.2179 47.1008 63.3405 46.9013 62.116 47.2042L62.0459 47.3862L62.0394 49.7002C63.6982 49.6932 65.3569 49.6956 67.0153 49.7073C66.9828 50.4062 66.9745 51.1061 66.9904 51.8055L59.7279 51.8081C59.6395 48.0992 59.758 44.389 59.7475 40.6788ZM5.63611 40.3259C6.11413 40.751 10.6311 50.4418 11.3311 51.8062H8.89775C8.63583 51.2186 8.37652 50.6323 8.14602 50.0317L6.16062 49.9914C5.22816 49.9862 4.29614 49.9916 3.36455 50.0076C3.12227 50.5959 2.90684 51.1991 2.68093 51.7945C1.88991 51.7958 1.10937 51.7275 0.320312 51.8263C1.04912 49.8867 2.01236 48.0173 2.89047 46.1401C3.79804 44.2012 4.64865 42.2265 5.63611 40.3259ZM4.24135 48.2981C4.68139 48.2747 5.145 48.2188 5.58373 48.2708L7.13433 48.2858C6.71249 47.1943 6.23695 46.1239 5.70945 45.0787C5.2203 46.1323 4.63162 47.2081 4.24135 48.2981ZM52.2905 40.6983C53.0514 40.7159 53.811 40.7009 54.5719 40.6873C54.3879 43.2931 54.4697 47.0514 54.5817 49.6956L58.5093 49.6846C58.5237 50.2956 58.6422 51.1497 58.4438 51.7282L58.2473 51.8192C56.2626 51.853 54.2864 51.8309 52.3016 51.8036L52.2401 44.3617C52.2381 43.1469 52.1811 41.9086 52.2905 40.6983ZM12.3971 40.6944C13.1174 40.7133 13.8403 40.7107 14.5606 40.7178C14.5999 43.6812 14.5357 46.6458 14.5894 49.6085C16.0008 49.6224 17.4123 49.6254 18.8241 49.6176C18.83 50.1448 18.9819 51.3843 18.7148 51.7964L12.3892 51.801C12.4416 50.473 12.367 49.1334 12.3539 47.8035C12.3233 45.434 12.3377 43.0643 12.3971 40.6944Z" fill="#C5C8CD"/>
</svg>
