<svg width="152" height="26" viewBox="0 0 152 26" fill="none" xmlns="http://www.w3.org/2000/svg">
<path d="M47.9356 2.50915L52.2574 2.50193C54.0899 5.7637 55.7097 9.20175 57.377 12.5596C57.4948 9.287 57.4167 5.97827 57.393 2.70276L63.6128 2.69121L63.617 23.8512C61.5384 23.8331 59.4117 23.7356 57.3414 23.9184L57.3407 18.4583C56.7424 19.7146 56.2069 21.0113 55.6498 22.2879C55.3743 22.7798 55.2223 23.3412 54.9315 23.8375L50.7269 23.8418C49.925 22.5292 49.1259 21.2021 48.4495 19.8143C49.0708 18.1223 50.0624 16.5055 50.8873 14.9075L50.3015 13.6743C48.7277 16.9809 47.5939 20.5172 46.0397 23.8461C43.786 23.8339 41.3971 23.6598 39.1602 23.9018C39.4684 22.7849 40.0151 21.694 40.4634 20.6306L42.4856 15.7701C44.3209 11.3611 46.0222 6.88203 47.9356 2.50915ZM137.127 2.65581L137.195 2.68832C137.345 3.11888 137.165 15.0303 137.17 16.5648C137.176 18.9921 137.27 21.4144 137.257 23.8425C135.233 23.8331 133.082 23.6785 131.076 23.9068L131.092 14.05C129.666 15.9341 128.26 17.8146 126.719 19.6011C125.161 17.8348 123.788 15.8012 122.372 13.9084C122.269 16.4672 122.471 19.0377 122.306 21.5951C122.284 22.3449 122.308 23.089 122.335 23.8382C120.349 23.8303 118.271 23.7009 116.299 23.9097C116.241 16.8371 116.185 9.73707 116.29 2.66664C117.988 2.73166 119.7 2.68832 121.399 2.66664C123.168 5.03911 125.03 7.34077 126.818 9.69879C128.548 7.30032 130.499 5.0066 132.322 2.67676C133.923 2.69891 135.525 2.69169 137.127 2.65508M76.6362 2.69337C78.716 2.70156 80.7955 2.69891 82.8748 2.68543C82.9006 7.26564 82.8058 11.8574 82.7995 16.4405C82.7968 18.8462 83.0087 21.3256 82.8044 23.7168L82.7291 23.7977C81.2578 24.0166 78.2302 23.8368 76.6166 23.8324C75.3681 21.7761 74.1539 19.6976 72.9747 17.5978C72.2976 16.4123 71.548 15.2261 70.9867 13.9785C70.9937 15.7593 71.0613 17.5393 71.0641 19.3194C71.0669 20.8336 70.9832 22.3435 71.0599 23.857C69.0441 23.8361 67.0282 23.8328 65.0123 23.8469C64.9872 20.1321 65.0751 16.4109 65.0862 12.694C65.096 9.36863 65.0221 6.03751 65.0772 2.7136L70.7482 2.69699C72.6811 6.01535 74.6359 9.31999 76.6125 12.6109C76.7261 9.31156 76.6125 5.99633 76.6362 2.69337ZM21.0585 2.69337C23.0925 2.60235 25.1641 2.68615 27.2016 2.69699L27.2107 10.2197C29.1157 10.2799 31.0209 10.2885 32.9264 10.2457C32.9062 7.72438 32.9731 5.19876 32.9919 2.67676C35.0136 2.70132 37.0351 2.70565 39.0563 2.68976C38.9517 5.06439 39.2139 23.3022 38.9719 23.7905L38.7418 23.8389C36.825 23.8317 34.8439 23.7248 32.9348 23.9011C32.9062 21.2136 32.8699 18.5096 33.0003 15.8257L27.2372 15.8763C27.1535 18.5233 27.1835 21.1963 27.2093 23.8454C25.1565 23.8483 23.0904 23.8035 21.0403 23.9213C20.9985 16.8448 21.0045 9.76886 21.0585 2.69337ZM12.214 0.410491C14.6943 0.26167 17.9451 1.04479 19.9623 2.58645C18.7518 4.73713 17.2533 6.75849 15.8218 8.75457C15.4146 8.53856 15.006 8.3175 14.5827 8.13761C13.1644 7.53438 11.6095 7.44191 10.1842 8.08271C8.93186 8.6462 8.01352 9.70168 7.53727 11.0187C7.33856 11.5774 7.22129 12.1637 7.18932 12.7583C7.15267 13.4527 7.23434 14.1485 7.43059 14.8136C7.51372 15.0982 7.61793 15.3757 7.74228 15.6437C7.84951 15.8709 7.97305 16.0894 8.11184 16.2975C8.20412 16.4361 8.30303 16.57 8.40819 16.6984C8.67139 17.0202 8.9724 17.3066 9.30421 17.5509C9.70272 17.8442 10.141 18.0747 10.6047 18.235C12.5529 18.9192 14.2424 18.2061 15.9766 17.3414C17.2688 19.1678 18.546 21.0055 19.8082 22.8543C19.9442 23.0905 20.0362 23.1555 19.9895 23.4322C18.9387 24.6798 15.6468 25.4261 14.0925 25.5576C10.5196 25.8596 6.9118 25.0049 4.15331 22.5429C1.75672 20.4045 0.620132 17.4245 0.387933 14.2075C0.121568 10.5303 1.17797 7.19051 3.50971 4.41854C5.68526 1.83007 9.00368 0.650338 12.214 0.409769M108.343 2.66953L114.47 2.68398C114.561 4.51173 114.482 6.36549 114.432 8.19468L114.443 12.8883C114.448 15.6921 114.561 18.649 112.917 21.0482C111.661 22.881 109.809 23.8469 107.696 24.1908C105.008 24.6278 101.775 24.367 99.5171 22.652C96.2635 20.1813 96.4421 16.1263 96.4386 12.3747C96.4358 10.2777 96.4451 8.18072 96.4665 6.08374C96.4741 5.01743 96.5606 3.85287 96.3891 2.80174L96.3716 2.70276L102.446 2.70204L102.435 10.5325C102.435 12.1644 102.341 13.886 102.571 15.5028C102.673 16.218 102.851 17.0683 103.326 17.6174C103.842 18.2148 104.777 18.537 105.542 18.5688C106.231 18.5977 106.97 18.2271 107.44 17.7199C107.777 17.3566 107.949 16.9599 108.054 16.4709C108.465 14.5636 108.325 12.4375 108.329 10.4906L108.343 2.66953ZM138.807 2.64136C140.387 2.76489 142.014 2.70204 143.599 2.69987L151.65 2.68326C151.635 4.51631 151.639 6.3496 151.66 8.18313C149.438 8.12244 147.213 8.18746 144.99 8.14267C145 8.91441 144.988 9.68627 144.955 10.4573C147.063 10.3013 149.261 10.4516 151.381 10.4479L151.362 15.8293C149.217 15.9066 147.062 15.8481 144.916 15.8655L144.911 17.5798C144.912 17.811 144.932 18.0039 144.982 18.2292C145.711 18.4431 150.385 18.2509 151.594 18.3073C151.626 20.1509 151.534 22.009 151.645 23.8483C149.813 23.8165 147.978 23.9148 146.144 23.8989C143.666 23.8779 141.141 23.7327 138.669 23.9119C138.8 22.1831 138.724 20.3575 138.73 18.6194L138.722 8.07043C138.717 6.58728 138.527 4.02698 138.807 2.64136ZM84.2004 2.68976C86.2288 2.73022 88.2663 2.69337 90.2954 2.69193C90.2376 7.86309 90.2829 13.0393 90.2857 18.2112C92.1888 18.2295 94.0917 18.2223 95.9944 18.1895C95.8926 20.0866 96.1178 22.0155 95.9365 23.9076C92.0533 23.6981 88.076 23.8483 84.1844 23.8714L84.2004 2.68976Z" fill="#C5C8CD"/>
</svg>
