<svg width="142" height="47" viewBox="0 0 142 47" fill="none" xmlns="http://www.w3.org/2000/svg">
<path d="M0.525505 0.103896C1.54603 0.0978163 2.56569 0.164572 3.57675 0.303656C4.08207 0.373493 4.58483 0.460804 5.08413 0.565433C5.91638 0.740622 6.73752 0.965148 7.54323 1.23783C8.18749 1.45675 8.82134 1.70529 9.44277 1.98268C9.9088 2.19076 10.3671 2.41591 10.8166 2.65769C11.2661 2.89912 11.7072 3.15605 12.139 3.428C13.2909 4.15541 14.3712 4.99084 15.3655 5.92304C20.367 10.6174 22.0327 16.3334 22.2744 23.0025C23.2841 23.0404 24.3003 23.0214 25.3113 23.0253C25.7393 16.5847 26.9529 11.4288 31.6066 6.66202C35.7451 2.42268 41.1525 0.345436 47.0341 0.282113C47.1547 5.17166 46.2785 9.69236 43.4214 13.7581C40.5011 17.9119 35.8988 21.0382 31.0047 22.3301C29.0863 22.8367 27.0428 23.0828 25.0846 23.4216C25.966 23.4915 26.8454 23.5652 27.7183 23.7095C33.5934 24.6822 39.2855 27.9743 42.7771 32.8573C45.1776 36.2147 46.5501 39.9938 46.9573 44.0941C47.042 44.9493 47.1696 45.9239 47.0263 46.7765C46.8107 46.9247 46.6733 46.8921 46.4153 46.8986C45.6036 46.8669 44.7943 46.7891 43.9914 46.6655C43.3492 46.5655 42.7119 46.4363 42.0814 46.2784C41.1353 46.0419 40.2069 45.7391 39.3031 45.3723C38.7007 45.1277 38.1097 44.8559 37.5319 44.5576C35.6514 43.586 33.9279 42.3358 32.4196 40.849C27.8049 36.3655 25.4396 30.3466 25.3191 23.9419C24.3281 23.9274 23.3369 23.9304 22.3461 23.951C22.3441 29.8655 20.2524 35.62 16.2097 39.9625C11.9853 44.5021 6.45145 46.6649 0.328125 46.8705C0.36265 42.4693 1.49872 37.9956 3.8321 34.2491C4.02143 33.9469 4.218 33.6494 4.42164 33.3567C4.72656 32.917 5.04727 32.4885 5.38313 32.072C5.94202 31.3772 6.54105 30.7159 7.17713 30.0914C7.94024 29.3417 8.75501 28.6467 9.61539 28.0115C10.1887 27.5879 10.7815 27.1914 11.3918 26.8234C12.4603 26.179 13.5797 25.6236 14.7388 25.1626C15.5664 24.8332 16.4125 24.5527 17.2728 24.3225C18.9893 23.8577 20.7807 23.6501 22.5135 23.2421C22.4244 23.2386 22.3353 23.2338 22.2464 23.2277C15.7426 22.7094 10.2342 20.5643 5.92185 15.4985C2.55141 11.5359 0.118368 5.36815 0.526156 0.103896M50.4554 10.6611C53.4558 10.6239 58.0262 10.3099 60.8071 11.152C61.9373 11.4941 62.9665 12.1659 63.5124 13.245C64.0257 14.2607 64.0857 15.6225 63.7157 16.6885C63.2323 18.0816 62.1829 18.7586 60.9165 19.3422C62.2128 19.8821 63.4062 20.4454 64.1208 21.7445C64.885 23.135 64.7814 24.6887 64.3501 26.1543C64.0883 26.7894 63.7332 27.3724 63.2401 27.8542C61.1673 29.8805 57.7702 29.5397 55.113 29.5136C53.5722 29.4966 52.0318 29.494 50.4919 29.5058C50.5316 23.2329 50.6202 16.9314 50.4554 10.6611ZM54.0017 26.5903C56.1071 26.6948 58.5564 27.0401 60.4084 25.805C61.0181 24.9825 61.2618 24.2435 61.0989 23.2134C60.9947 22.5488 60.6664 22.0083 60.1114 21.6244C58.5284 20.5297 55.8302 20.8606 53.988 20.9063C53.96 22.7949 53.9144 24.7037 54.0017 26.5903ZM53.9887 13.3762C53.9746 15.0484 53.9739 16.7208 53.9867 18.393C55.5371 18.4322 57.395 18.6633 58.8887 18.2122C59.5186 17.9857 59.9635 17.6044 60.2631 16.9947C60.3997 16.7092 60.4785 16.3994 60.4952 16.0833C60.5118 15.7671 60.466 15.4508 60.3602 15.1525C60.1127 14.4605 59.5642 13.95 58.8978 13.6654C57.8477 13.2175 56.6165 13.2698 55.4987 13.3076L53.9887 13.3762ZM79.1608 13.6745C80.3925 13.4876 81.6508 13.592 82.8351 13.9794C84.0193 14.3669 85.0967 15.0266 85.9811 15.9058C86.3526 16.274 86.6862 16.6786 86.9771 17.1135C87.1225 17.3312 87.2577 17.5556 87.3823 17.7859C87.5063 18.016 87.6187 18.2522 87.7191 18.4935C87.8192 18.7352 87.9081 18.9813 87.9855 19.2312C88.0624 19.4813 88.1268 19.7352 88.1784 19.9917C88.2304 20.2483 88.2695 20.5074 88.2956 20.7679C88.3496 21.2887 88.3513 21.8136 88.3008 22.3347C88.2891 22.4652 88.2737 22.5954 88.2546 22.7251C88.2175 22.9842 88.1675 23.2413 88.1047 23.4954C88.0414 23.7489 87.9664 23.9995 87.88 24.2461C87.5725 25.1108 87.1205 25.9167 86.5433 26.6295C86.3778 26.832 86.203 27.0268 86.0196 27.2131C85.8357 27.399 85.6426 27.5754 85.4411 27.7419C85.1394 27.9924 84.8193 28.2198 84.4835 28.4221C84.2596 28.5567 84.0297 28.6809 83.7943 28.7942C83.3224 29.0193 82.8298 29.1979 82.3234 29.3276C82.0702 29.3912 81.8141 29.443 81.556 29.4829C79.5979 29.7799 77.5994 29.3372 75.9486 28.2406C75.7316 28.0955 75.5214 27.9404 75.3187 27.7758C75.116 27.6108 74.9216 27.4356 74.7364 27.251C74.3664 26.8812 74.0329 26.4765 73.7403 26.0426C73.5952 25.8251 73.4602 25.6009 73.3358 25.3709C73.1494 25.0255 72.9891 24.6665 72.8564 24.297C72.7248 23.9273 72.619 23.5488 72.5398 23.1644C72.4878 22.908 72.4486 22.6492 72.4225 22.3889C72.3545 21.7375 72.3683 21.0803 72.4636 20.4324C72.5006 20.1733 72.5506 19.9162 72.6134 19.6621C72.6767 19.4085 72.7517 19.158 72.8381 18.9113C73.1013 18.1705 73.4709 17.4721 73.9351 16.838C74.012 16.7323 74.0919 16.6289 74.1748 16.5279C74.3396 16.3247 74.5144 16.13 74.6986 15.9443C75.1597 15.4806 75.6753 15.0746 76.234 14.7353C76.9059 14.3291 77.6337 14.0241 78.3941 13.8299C78.6469 13.7653 78.9028 13.7134 79.1608 13.6745ZM81.1443 26.0309C82.3364 25.6523 83.3188 25.113 83.9331 23.9634C84.5825 22.7466 84.6457 21.2347 84.2229 19.9317C83.8823 18.8826 83.2289 17.9706 82.2368 17.4575C81.4186 17.0345 80.5711 16.9679 79.6721 17.0371C78.4625 17.3387 77.5146 17.8433 76.8502 18.9518C76.1506 20.119 75.9773 21.661 76.3382 22.9712C76.6411 24.0711 77.3505 25.0262 78.3504 25.5831C79.2605 26.0896 80.1425 26.1046 81.1443 26.0309ZM104.193 10.81C105.31 10.7956 106.428 10.7967 107.545 10.8132C107.522 13.901 107.525 16.9888 107.554 20.0766C109.067 17.8949 110.923 15.883 112.624 13.8423C114.069 13.8623 115.514 13.873 116.959 13.8743C114.651 16.3308 112.411 18.7893 110.22 21.3548C111.59 22.774 112.851 24.297 114.127 25.8004C115.152 26.9415 116.077 28.1519 116.976 29.3935L112.885 29.3948C111.255 27.1054 109.207 25.1222 107.557 22.8315C107.529 25.0139 107.524 27.1966 107.543 29.3791C106.424 29.3574 105.303 29.3472 104.183 29.3485L104.193 10.81ZM96.7289 13.5877C97.0969 13.5335 97.4708 13.5485 97.8415 13.5674C98.7874 13.6144 100.346 13.5949 100.992 14.3684C101.702 15.2164 101.325 17.09 101.253 18.1201C100.602 17.6658 99.9293 17.2669 99.1671 17.0299C98.7562 16.9019 98.3311 16.8254 97.9014 16.8021C97.6438 16.7885 97.3855 16.795 97.1288 16.8217C96.7865 16.8561 96.4486 16.9256 96.1205 17.0293C95.7925 17.1332 95.4757 17.2695 95.1746 17.436C94.1799 17.9909 93.4926 18.8794 93.1949 19.9806C92.8347 21.3137 92.9884 22.8073 93.7056 23.9954C94.3382 25.0432 95.3511 25.7365 96.5341 26.0152C98.3691 26.4474 99.8322 25.8729 101.348 24.912L101.344 25.9023C101.302 26.7875 101.3 27.6779 101.282 28.5638C100.408 29.0939 99.5313 29.419 98.5112 29.5365C96.4032 29.7813 93.892 29.2453 92.2204 27.8914C90.6003 26.5805 89.7567 24.6189 89.5509 22.5775C89.3235 20.3221 89.7633 17.936 91.2348 16.1591C92.6777 14.4167 94.5427 13.7914 96.7289 13.5877ZM121.881 13.6752C121.974 13.6673 122.068 13.6625 122.161 13.6608C123.225 13.6497 125.047 13.6543 125.81 14.5094C126.548 15.3346 126.295 16.8132 126.247 17.8355C125.123 17.2219 123.982 16.5651 122.668 16.5397C122.149 16.5299 121.69 16.6004 121.315 16.9901C121.107 17.2069 120.942 17.4745 120.973 17.7872C121.095 18.9936 125.345 20.5989 126.389 21.6074C127.207 22.398 127.643 23.3974 127.624 24.5392C127.605 25.7756 127.086 27.1093 126.173 27.9593C124.879 29.1631 123.223 29.3504 121.544 29.3171C120.162 29.0971 118.945 28.7178 117.668 28.1421C117.655 26.9844 117.656 25.8268 117.673 24.6691C118.15 24.9642 118.64 25.2373 119.143 25.4884C120.248 26.0413 121.747 26.6178 122.97 26.1641C123.632 25.9179 123.898 25.538 124.202 24.9224L124.167 24.8467C123.275 22.8171 120.739 22.4372 119.087 21.1805C118.213 20.5159 117.461 19.6183 117.343 18.4864C117.235 17.4419 117.625 16.2133 118.285 15.3986C119.198 14.2692 120.495 13.8377 121.881 13.6752ZM134.454 21.708C135.262 20.0342 136.933 15.2719 138.132 14.1608C138.824 13.5191 140.758 13.8031 141.686 13.8286C140.627 16.3465 139.295 18.8102 138.116 21.2778C136.936 23.6357 135.447 27.6975 133.817 29.6115C132.541 30.1051 131.028 29.8936 129.692 29.8074C130.773 28.4476 131.67 26.9997 132.551 25.5067C130.836 21.5369 128.956 17.6906 127.03 13.8214L130.985 13.8227C131.32 14.9116 131.866 15.9652 132.338 17.0006C133.056 18.5639 133.761 20.1328 134.454 21.7073M67.0027 10.6807C68.1487 10.6591 69.2951 10.6643 70.4409 10.6964C70.5432 14.563 70.4448 18.4518 70.4559 22.3229C70.4617 24.438 70.6467 27.4808 70.4376 29.494C69.3146 29.5075 68.1916 29.5067 67.0685 29.4914C66.9578 27.5343 67.0392 25.5289 67.0294 23.5659L67.0027 10.6807Z" fill="#C5C8CD"/>
</svg>
