<svg width="32" height="32" viewBox="0 0 32 32" fill="none" xmlns="http://www.w3.org/2000/svg">
<path fill-rule="evenodd" clip-rule="evenodd" d="M24.9998 10.6659C24.9998 9.69347 24.6134 8.76084 23.9258 8.07321C23.2382 7.38558 22.3055 6.99927 21.3331 6.99927H10.6664C9.69396 6.99927 8.76133 7.38558 8.0737 8.07321C7.38606 8.76084 6.99976 9.69347 6.99976 10.6659V21.3326C6.99976 22.3051 7.38606 23.2377 8.0737 23.9253C8.76133 24.613 9.69396 24.9993 10.6664 24.9993H21.3331C22.3055 24.9993 23.2382 24.613 23.9258 23.9253C24.6134 23.2377 24.9998 22.3051 24.9998 21.3326V10.6659ZM18.6664 13.3326V18.6659C18.6664 18.9312 18.7718 19.1855 18.9593 19.373C19.1469 19.5606 19.4012 19.6659 19.6664 19.6659C19.9316 19.6659 20.186 19.5606 20.3735 19.373C20.5611 19.1855 20.6664 18.9312 20.6664 18.6659V13.3326C20.6664 13.0674 20.5611 12.813 20.3735 12.6255C20.186 12.438 19.9316 12.3326 19.6664 12.3326C19.4012 12.3326 19.1469 12.438 18.9593 12.6255C18.7718 12.813 18.6664 13.0674 18.6664 13.3326ZM17.3331 18.6659V14.6659C17.3331 14.0471 17.0873 13.4536 16.6497 13.016C16.2121 12.5784 15.6186 12.3326 14.9998 12.3326H13.6664C13.0476 12.3326 12.4541 12.5784 12.0165 13.016C11.5789 13.4536 11.3331 14.0471 11.3331 14.6659V18.6659C11.3331 18.9312 11.4384 19.1855 11.626 19.373C11.8135 19.5606 12.0679 19.6659 12.3331 19.6659C12.5983 19.6659 12.8527 19.5606 13.0402 19.373C13.2277 19.1855 13.3331 18.9312 13.3331 18.6659V17.6659H15.3331V18.6659C15.3331 18.9312 15.4384 19.1855 15.626 19.373C15.8135 19.5606 16.0679 19.6659 16.3331 19.6659C16.5983 19.6659 16.8527 19.5606 17.0402 19.373C17.2277 19.1855 17.3331 18.9312 17.3331 18.6659ZM13.3331 15.6659H15.3331V14.6659C15.3331 14.5775 15.298 14.4927 15.2355 14.4302C15.1729 14.3677 15.0882 14.3326 14.9998 14.3326H13.6664C13.578 14.3326 13.4932 14.3677 13.4307 14.4302C13.3682 14.4927 13.3331 14.5775 13.3331 14.6659V15.6659Z" fill="#6A68E0"/>
<path fill-rule="evenodd" clip-rule="evenodd" d="M23.9998 16.9993H29.3332C29.5984 16.9993 29.8527 16.894 30.0403 16.7065C30.2278 16.5189 30.3332 16.2646 30.3332 15.9993C30.3332 15.7341 30.2278 15.4798 30.0403 15.2922C29.8527 15.1047 29.5984 14.9993 29.3332 14.9993H23.9998C23.7346 14.9993 23.4803 15.1047 23.2927 15.2922C23.1052 15.4798 22.9998 15.7341 22.9998 15.9993C22.9998 16.2646 23.1052 16.5189 23.2927 16.7065C23.4803 16.894 23.7346 16.9993 23.9998 16.9993ZM16.9998 7.99935V2.66602C16.9998 2.4008 16.8945 2.14645 16.7069 1.95891C16.5194 1.77137 16.2651 1.66602 15.9998 1.66602C15.7346 1.66602 15.4803 1.77137 15.2927 1.95891C15.1052 2.14645 14.9998 2.4008 14.9998 2.66602V7.99935C14.9998 8.26457 15.1052 8.51892 15.2927 8.70646C15.4803 8.89399 15.7346 8.99935 15.9998 8.99935C16.2651 8.99935 16.5194 8.89399 16.7069 8.70646C16.8945 8.51892 16.9998 8.26457 16.9998 7.99935ZM14.9998 23.9993V29.3327C14.9998 29.5979 15.1052 29.8523 15.2927 30.0398C15.4803 30.2273 15.7346 30.3327 15.9998 30.3327C16.2651 30.3327 16.5194 30.2273 16.7069 30.0398C16.8945 29.8523 16.9998 29.5979 16.9998 29.3327V23.9993C16.9998 23.7341 16.8945 23.4798 16.7069 23.2922C16.5194 23.1047 16.2651 22.9993 15.9998 22.9993C15.7346 22.9993 15.4803 23.1047 15.2927 23.2922C15.1052 23.4798 14.9998 23.7341 14.9998 23.9993ZM7.99984 14.9993H2.6665C2.40129 14.9993 2.14693 15.1047 1.9594 15.2922C1.77186 15.4798 1.6665 15.7341 1.6665 15.9993C1.6665 16.2646 1.77186 16.5189 1.9594 16.7065C2.14693 16.894 2.40129 16.9993 2.6665 16.9993H7.99984C8.26505 16.9993 8.51941 16.894 8.70694 16.7065C8.89448 16.5189 8.99984 16.2646 8.99984 15.9993C8.99984 15.7341 8.89448 15.4798 8.70694 15.2922C8.51941 15.1047 8.26505 14.9993 7.99984 14.9993ZM23.9998 12.9993H27.3332C27.5984 12.9993 27.8527 12.894 28.0403 12.7065C28.2278 12.5189 28.3332 12.2646 28.3332 11.9993C28.3332 11.7341 28.2278 11.4798 28.0403 11.2922C27.8527 11.1047 27.5984 10.9993 27.3332 10.9993H23.9998C23.7346 10.9993 23.4803 11.1047 23.2927 11.2922C23.1052 11.4798 22.9998 11.7341 22.9998 11.9993C22.9998 12.2646 23.1052 12.5189 23.2927 12.7065C23.4803 12.894 23.7346 12.9993 23.9998 12.9993ZM12.9998 7.99935V4.66602C12.9998 4.4008 12.8945 4.14645 12.7069 3.95891C12.5194 3.77137 12.2651 3.66602 11.9998 3.66602C11.7346 3.66602 11.4803 3.77137 11.2927 3.95891C11.1052 4.14645 10.9998 4.4008 10.9998 4.66602V7.99935C10.9998 8.26457 11.1052 8.51892 11.2927 8.70646C11.4803 8.89399 11.7346 8.99935 11.9998 8.99935C12.2651 8.99935 12.5194 8.89399 12.7069 8.70646C12.8945 8.51892 12.9998 8.26457 12.9998 7.99935ZM10.9998 23.9993V27.3327C10.9998 27.5979 11.1052 27.8523 11.2927 28.0398C11.4803 28.2273 11.7346 28.3327 11.9998 28.3327C12.2651 28.3327 12.5194 28.2273 12.7069 28.0398C12.8945 27.8523 12.9998 27.5979 12.9998 27.3327V23.9993C12.9998 23.7341 12.8945 23.4798 12.7069 23.2922C12.5194 23.1047 12.2651 22.9993 11.9998 22.9993C11.7346 22.9993 11.4803 23.1047 11.2927 23.2922C11.1052 23.4798 10.9998 23.7341 10.9998 23.9993ZM7.99984 10.9993H4.6665C4.40129 10.9993 4.14693 11.1047 3.9594 11.2922C3.77186 11.4798 3.6665 11.7341 3.6665 11.9993C3.6665 12.2646 3.77186 12.5189 3.9594 12.7065C4.14693 12.894 4.40129 12.9993 4.6665 12.9993H7.99984C8.26505 12.9993 8.51941 12.894 8.70694 12.7065C8.89448 12.5189 8.99984 12.2646 8.99984 11.9993C8.99984 11.7341 8.89448 11.4798 8.70694 11.2922C8.51941 11.1047 8.26505 10.9993 7.99984 10.9993ZM23.9998 20.9993H27.3332C27.5984 20.9993 27.8527 20.894 28.0403 20.7065C28.2278 20.5189 28.3332 20.2646 28.3332 19.9993C28.3332 19.7341 28.2278 19.4798 28.0403 19.2922C27.8527 19.1047 27.5984 18.9993 27.3332 18.9993H23.9998C23.7346 18.9993 23.4803 19.1047 23.2927 19.2922C23.1052 19.4798 22.9998 19.7341 22.9998 19.9993C22.9998 20.2646 23.1052 20.5189 23.2927 20.7065C23.4803 20.894 23.7346 20.9993 23.9998 20.9993ZM20.9998 7.99935V4.66602C20.9998 4.4008 20.8945 4.14645 20.7069 3.95891C20.5194 3.77137 20.2651 3.66602 19.9998 3.66602C19.7346 3.66602 19.4803 3.77137 19.2927 3.95891C19.1052 4.14645 18.9998 4.4008 18.9998 4.66602V7.99935C18.9998 8.26457 19.1052 8.51892 19.2927 8.70646C19.4803 8.89399 19.7346 8.99935 19.9998 8.99935C20.2651 8.99935 20.5194 8.89399 20.7069 8.70646C20.8945 8.51892 20.9998 8.26457 20.9998 7.99935ZM18.9998 23.9993V27.3327C18.9998 27.5979 19.1052 27.8523 19.2927 28.0398C19.4803 28.2273 19.7346 28.3327 19.9998 28.3327C20.2651 28.3327 20.5194 28.2273 20.7069 28.0398C20.8945 27.8523 20.9998 27.5979 20.9998 27.3327V23.9993C20.9998 23.7341 20.8945 23.4798 20.7069 23.2922C20.5194 23.1047 20.2651 22.9993 19.9998 22.9993C19.7346 22.9993 19.4803 23.1047 19.2927 23.2922C19.1052 23.4798 18.9998 23.7341 18.9998 23.9993ZM7.99984 18.9993H4.6665C4.40129 18.9993 4.14693 19.1047 3.9594 19.2922C3.77186 19.4798 3.6665 19.7341 3.6665 19.9993C3.6665 20.2646 3.77186 20.5189 3.9594 20.7065C4.14693 20.894 4.40129 20.9993 4.6665 20.9993H7.99984C8.26505 20.9993 8.51941 20.894 8.70694 20.7065C8.89448 20.5189 8.99984 20.2646 8.99984 19.9993C8.99984 19.7341 8.89448 19.4798 8.70694 19.2922C8.51941 19.1047 8.26505 18.9993 7.99984 18.9993Z" fill="#6A68E0"/>
</svg>
