<svg width="32" height="32" viewBox="0 0 32 32" fill="none" xmlns="http://www.w3.org/2000/svg">
<g clip-path="url(#clip0_64_3427)">
<path d="M16 8.50049C11.8645 8.50049 8.5 11.865 8.5 16.0005C8.5 20.136 11.8645 23.5005 16 23.5005C20.1355 23.5005 23.5 20.136 23.5 16.0005C23.5 11.865 20.1355 8.50049 16 8.50049ZM16.9375 19.7505H15.0625V17.8755H13.1875V19.7505H11.3125V12.2505H16.9375V19.7505ZM20.6875 19.7505H18.8125V12.2505H20.6875V19.7505Z" fill="#6A68E0"/>
<path d="M13.1875 14.1255H15.0625V16.0005H13.1875V14.1255Z" fill="#6A68E0"/>
<path d="M29.1251 16.0005C29.1251 15.4107 29.0853 14.8186 29.0065 14.2337L31.8635 11.4767L27.8495 4.52424L24.0322 5.6203C23.0973 4.89439 22.0679 4.29902 20.9725 3.85055L20.0141 0.000488281H11.9861L11.0276 3.85055C9.93218 4.29903 8.90285 4.8944 7.96791 5.6203L4.15072 4.52424L0.136719 11.4767L2.99366 14.2337C2.91491 14.8186 2.87509 15.4107 2.87509 16.0005C2.87509 16.5902 2.91491 17.1824 2.99366 17.7672L0.136719 20.5243L4.15072 27.4767L7.96797 26.3807C8.90291 27.1066 9.93224 27.702 11.0277 28.1504L11.9861 32.0005H20.014L20.9725 28.1504C22.0679 27.7019 23.0973 27.1066 24.0322 26.3807L27.8495 27.4767L31.8635 20.5243L29.0065 17.7672C29.0854 17.1816 29.125 16.5914 29.1251 16.0005ZM25.3751 16.0005C25.3751 21.1699 21.1695 25.3755 16.0001 25.3755C10.8307 25.3755 6.62509 21.1699 6.62509 16.0005C6.62509 10.8311 10.8307 6.62549 16.0001 6.62549C21.1695 6.62549 25.3751 10.8311 25.3751 16.0005Z" fill="#6A68E0"/>
</g>
<defs>
<clipPath id="clip0_64_3427">
<rect width="32" height="32" fill="white" transform="translate(0 0.000488281)"/>
</clipPath>
</defs>
</svg>
