<svg width="32" height="32" viewBox="0 0 32 32" fill="none" xmlns="http://www.w3.org/2000/svg">
<g clip-path="url(#clip0_64_3403)">
<path d="M8 26.6849C7.99221 27.9361 8.38464 29.157 9.12 30.1694C4.35556 29.8672 0 28.1249 0 24.9072V23.3427C2.35675 24.9908 5.12822 25.9454 8 26.0983V26.6849ZM8.07111 19.4494C8.06439 19.4564 8.05931 19.4648 8.05624 19.474C8.05316 19.4833 8.05217 19.4931 8.05333 19.5027C8.01799 19.6783 8.00013 19.8569 8 20.036V23.4316C3.69778 22.9338 0 21.2272 0 18.2583V16.6938C2.36628 18.3624 5.16085 19.3186 8.05333 19.4494H8.07111ZM15.0044 12.9427C12.6311 13.5509 10.5251 14.9258 9.01333 16.8538C4.28444 16.5516 0 14.8094 0 11.6094V10.4005C3.14764 12.4967 6.89105 13.5136 10.6667 13.2983C12.1201 13.3036 13.5713 13.1846 15.0044 12.9427ZM21.3333 10.4005V11.6094C21.331 11.7581 21.3192 11.9066 21.2978 12.0538C19.9632 12.0535 18.631 12.1665 17.3156 12.3916C18.7669 11.9832 20.1294 11.308 21.3333 10.4005ZM10.6667 0.000488281C5.33333 0.000488281 0 1.77827 0 5.31604C0 8.88938 5.33333 10.6316 10.6667 10.6316C16 10.6316 21.3333 8.88938 21.3333 5.31604C21.3333 1.77827 16 0.000488281 10.6667 0.000488281ZM21.3333 28.0183C17.5375 28.1836 13.7918 27.1036 10.6667 24.9427V26.6849C10.6667 30.2227 16 32.0005 21.3333 32.0005C26.6667 32.0005 32 30.2227 32 26.6849V24.9427C28.8749 27.1036 25.1291 28.1836 21.3333 28.0183ZM21.3333 14.7205C15.4489 14.7205 10.6667 17.1027 10.6667 20.036C10.6667 22.9694 15.4489 25.3516 21.3333 25.3516C27.2178 25.3516 32 22.9694 32 20.036C32 17.1027 27.2178 14.7205 21.3333 14.7205Z" fill="#6A68E0"/>
</g>
<defs>
<clipPath id="clip0_64_3403">
<rect width="32" height="32" fill="white" transform="translate(0 0.000488281)"/>
</clipPath>
</defs>
</svg>
