<svg width="32" height="32" viewBox="0 0 32 32" fill="none" xmlns="http://www.w3.org/2000/svg">
<path d="M24.2092 12.8638C23.2794 12.8638 22.5229 13.6203 22.5229 14.55C22.5229 15.4798 23.2794 16.2363 24.2092 16.2363C25.139 16.2363 25.8954 15.4798 25.8954 14.55C25.8955 13.6203 25.1391 12.8638 24.2092 12.8638Z" fill="#6A68E0"/>
<path d="M31.9064 19.5967L30.1045 9.80954C29.6779 7.49266 27.6625 5.81104 25.3124 5.81104H22.0028C21.7775 5.81103 21.5598 5.89215 21.3895 6.03954L19.4855 7.6866H12.5144L10.6104 6.03954C10.4401 5.89216 10.2224 5.81105 9.99711 5.81104H6.68755C4.33736 5.81104 2.32186 7.4926 1.89542 9.80954L0.093487 19.5967C-0.456638 22.5843 1.47605 25.4611 4.44605 26.0718C6.52886 26.5 8.63624 25.7229 9.94574 24.0438L12.0041 21.4045H19.9959L22.0543 24.0438C23.3559 25.7127 25.4583 26.5026 27.554 26.0718C30.5169 25.4625 32.4577 22.5907 31.9064 19.5967ZM10.4244 15.4875H9.06611V16.8458C9.06611 17.3635 8.64636 17.7833 8.12861 17.7833C7.61086 17.7833 7.19111 17.3635 7.19111 16.8458V15.4875H5.83286C5.31511 15.4875 4.89536 15.0677 4.89536 14.55C4.89536 14.0322 5.31511 13.6125 5.83286 13.6125H7.19117V12.2541C7.19117 11.7363 7.61092 11.3166 8.12867 11.3166C8.64642 11.3166 9.06617 11.7363 9.06617 12.2541V13.6125H10.4244C10.9422 13.6125 11.3619 14.0322 11.3619 14.55C11.3619 15.0677 10.9422 15.4875 10.4244 15.4875ZM24.2092 18.1112C22.2455 18.1112 20.6479 16.5137 20.6479 14.55C20.6479 12.5863 22.2455 10.9887 24.2092 10.9887C26.1728 10.9887 27.7704 12.5863 27.7704 14.55C27.7704 16.5137 26.1729 18.1112 24.2092 18.1112Z" fill="#6A68E0"/>
</svg>
