<svg width="32" height="32" viewBox="0 0 32 32" fill="none" xmlns="http://www.w3.org/2000/svg">
<g clip-path="url(#clip0_64_3390)">
<path fill-rule="evenodd" clip-rule="evenodd" d="M1.13135 15.865H6.53789V32.0004H1.13135V15.865ZM9.24189 9.19168H14.6484V32.0012H9.24189V9.19168ZM17.3517 15.865H22.7582V32.0004H17.3517V15.865ZM25.4615 8.93774H30.868V32.0004H25.4615V8.93774Z" fill="#6A68E0"/>
<path d="M3.83469 12.1533C5.28119 12.1533 6.45381 10.9807 6.45381 9.53415C6.45381 8.08766 5.28119 6.91504 3.83469 6.91504C2.38819 6.91504 1.21558 8.08766 1.21558 9.53415C1.21558 10.9807 2.38819 12.1533 3.83469 12.1533Z" fill="#6A68E0"/>
<path d="M11.9453 5.45649C13.3918 5.45649 14.5644 4.28387 14.5644 2.83738C14.5644 1.39088 13.3918 0.218262 11.9453 0.218262C10.4988 0.218262 9.32617 1.39088 9.32617 2.83738C9.32617 4.28387 10.4988 5.45649 11.9453 5.45649Z" fill="#6A68E0"/>
<path d="M20.0551 12.1726C21.5016 12.1726 22.6743 10.9999 22.6743 9.55344C22.6743 8.10694 21.5016 6.93433 20.0551 6.93433C18.6087 6.93433 17.436 8.10694 17.436 9.55344C17.436 10.9999 18.6087 12.1726 20.0551 12.1726Z" fill="#6A68E0"/>
<path d="M28.1648 5.23872C29.6113 5.23872 30.7839 4.0661 30.7839 2.6196C30.7839 1.17311 29.6113 0.000488281 28.1648 0.000488281C26.7183 0.000488281 25.5457 1.17311 25.5457 2.6196C25.5457 4.0661 26.7183 5.23872 28.1648 5.23872Z" fill="#6A68E0"/>
<path d="M4.64209 7.24094L9.73563 3.42742L10.586 4.56055L5.49249 8.37481L4.64209 7.24094ZM14.4143 3.18604L18.9262 7.69714L17.9266 8.70256L13.4141 4.19219L14.4143 3.18604ZM21.3814 7.96215L25.9604 3.38313L26.9658 4.38855L22.3868 8.96831L21.3814 7.96215Z" fill="#6A68E0"/>
</g>
<defs>
<clipPath id="clip0_64_3390">
<rect width="32" height="32" fill="white" transform="translate(0 0.000488281)"/>
</clipPath>
</defs>
</svg>
