<svg width="32" height="32" viewBox="0 0 32 32" fill="none" xmlns="http://www.w3.org/2000/svg">
<g clip-path="url(#clip0_64_3411)">
<path d="M23.9999 20.0006C27.6818 20.0006 30.6666 17.0158 30.6666 13.3339C30.6666 9.652 27.6818 6.66724 23.9999 6.66724C20.318 6.66724 17.3333 9.652 17.3333 13.3339C17.3333 17.0158 20.318 20.0006 23.9999 20.0006Z" fill="#6A68E0"/>
<path d="M23.6653 4.68449C22.8147 1.98049 20.3147 0.000488281 17.3333 0.000488281C13.6573 0.000488281 10.6667 2.99116 10.6667 6.66716C10.6667 9.64849 12.6467 12.1485 15.3507 12.9992C15.4368 10.8215 16.3405 8.75636 17.8815 7.21534C19.4225 5.67432 21.4877 4.77066 23.6653 4.68449ZM0.656 16.0032C0.481044 16.006 0.314203 16.0774 0.191476 16.2021C0.0687494 16.3269 -2.23932e-05 16.4948 5.46963e-09 16.6698V28.6672C5.46963e-09 28.844 0.0702379 29.0135 0.195262 29.1386C0.320286 29.2636 0.489856 29.3338 0.666667 29.3338H3.496C3.64099 29.3339 3.78204 29.2866 3.89777 29.1993C4.0135 29.1119 4.09761 28.9893 4.13733 28.8498L7.088 18.4525C7.18009 18.1283 7.14602 17.7813 6.99266 17.4813C6.83929 17.1812 6.578 16.9504 6.26133 16.8352C5.05333 16.3952 3.2 15.9605 0.656 16.0032ZM29.3333 23.3338C26.6667 23.3338 21.3333 26.7085 18.6667 26.7085C16 26.7085 13 24.6672 13 24.6672C13 24.6672 16.592 25.3338 18.6667 25.3338C20.7413 25.3338 21.3333 24.6258 21.3333 23.6672C21.3333 21.3338 17.3707 20.9712 15.3653 20.6658C13.3973 19.5698 12.3747 18.7032 9.11467 18.4272C9.09864 18.6192 9.06471 18.8094 9.01333 18.9952L6.33467 28.4352C9.368 29.8152 14.592 32.0005 17.3333 32.0005C21.3333 32.0005 32 26.6672 32 25.3338C32 24.0005 30.6667 23.3338 29.3333 23.3338Z" fill="#6A68E0"/>
</g>
<defs>
<clipPath id="clip0_64_3411">
<rect width="32" height="32" fill="white" transform="translate(0 0.000488281)"/>
</clipPath>
</defs>
</svg>
