<svg width="30" height="31" viewBox="0 0 30 31" fill="none" xmlns="http://www.w3.org/2000/svg">
<g clip-path="url(#clip0_335_18657)">
<path d="M24.2977 18.0567C24.2977 21.3185 23.0153 24.2716 20.9242 26.4532C18.716 28.7572 15.6032 30.1938 12.1605 30.1938C5.45613 30.1938 0.0234375 24.7611 0.0234375 18.0567C0.0234375 17.1522 0.12457 16.2689 0.310781 15.4175C1.51863 9.98491 6.36076 5.91968 12.1605 5.91968C14.305 5.91968 16.3163 6.47304 18.0615 7.45214C18.0668 7.45214 18.0721 7.45214 18.0774 7.45747L22.5895 11.8473C23.6751 13.6617 24.2977 15.7848 24.2977 18.0567Z" fill="#2F2E3C"/>
<path d="M20.9242 26.4533C18.716 28.7573 15.6032 30.1939 12.1605 30.1939C5.45613 30.1939 0.0234375 24.7612 0.0234375 18.0568C0.0234375 17.1523 0.12457 16.269 0.310781 15.4176C2.31147 22.2231 8.6008 27.1876 16.0555 27.1876C17.7476 27.1876 19.3864 26.9321 20.9242 26.4533ZM24.0036 10.4332L22.5895 11.8473L22.5881 11.8458C22.1318 12.3021 20.7637 11.6736 19.5322 10.4421C18.3008 9.21061 17.6723 7.84239 18.1285 7.38624L18.0615 7.45215L19.5394 5.97424" fill="#20202B"/>
<path d="M24.0002 10.4327C24.4564 9.97647 23.8279 8.60842 22.5965 7.37706C21.3651 6.14569 19.9971 5.5173 19.5409 5.97352C19.0847 6.42973 19.7131 7.79778 20.9445 9.02915C22.1759 10.2605 23.544 10.8889 24.0002 10.4327Z" fill="#2F2E3C"/>
<path d="M25.5266 5.0846L22.0882 8.523C22.0463 8.56505 21.9965 8.59841 21.9417 8.62118C21.8868 8.64394 21.828 8.65566 21.7687 8.65565C21.6486 8.65554 21.5334 8.60784 21.4484 8.523C21.3639 8.43801 21.3164 8.323 21.3164 8.2031C21.3164 8.08321 21.3639 7.9682 21.4484 7.88321L23.0742 6.25747L23.0766 6.25507L24.8868 4.4454C24.9717 4.36056 25.0868 4.3129 25.2067 4.3129C25.3267 4.3129 25.4418 4.36056 25.5266 4.4454C25.5687 4.48734 25.602 4.53716 25.6247 4.592C25.6475 4.64684 25.6592 4.70563 25.6592 4.765C25.6592 4.82437 25.6475 4.88315 25.6247 4.938C25.602 4.99284 25.5687 5.04265 25.5266 5.0846Z" fill="#8FA3A9"/>
<path d="M25.5275 5.0846L23.7172 6.89485C23.6753 6.9369 23.6255 6.97027 23.5707 6.99303C23.5158 7.0158 23.457 7.02751 23.3977 7.02751C23.2776 7.0274 23.1624 6.9797 23.0775 6.89485C22.902 6.71878 22.9014 6.43413 23.075 6.25747L23.0775 6.25507L24.8877 4.4454C24.9725 4.36056 25.0876 4.3129 25.2076 4.3129C25.3276 4.3129 25.4426 4.36056 25.5275 4.4454C25.5695 4.48734 25.6028 4.53716 25.6256 4.592C25.6483 4.64684 25.66 4.70563 25.66 4.765C25.66 4.82437 25.6483 4.88315 25.6256 4.938C25.6028 4.99284 25.5695 5.04265 25.5275 5.0846Z" fill="#EC1422"/>
<path d="M9.95518 8.17934C7.25454 8.60133 15.0218 14.5011 19.4644 16.7278C20.0842 17.0385 20.8212 16.6242 20.8915 15.9344C20.9689 15.1745 20.9048 14.104 20.3754 12.7908C19.442 10.4762 14.1232 7.51418 9.95518 8.17934Z" fill="#525464"/>
<path d="M25.3357 3.2409C25.2763 3.24091 25.2175 3.22921 25.1626 3.20649C25.1077 3.18376 25.0578 3.15044 25.0158 3.10844C24.9738 3.06644 24.9405 3.01658 24.9178 2.9617C24.8951 2.90683 24.8834 2.84801 24.8834 2.78861V0.646133C24.8834 0.396289 25.0858 0.193848 25.3357 0.193848C25.5855 0.193848 25.788 0.396289 25.788 0.646133V2.78867C25.7879 2.90861 25.7403 3.02363 25.6554 3.10843C25.5706 3.19323 25.4556 3.24088 25.3357 3.2409ZM25.3357 9.60371C25.2763 9.60372 25.2175 9.59202 25.1626 9.5693C25.1077 9.54657 25.0578 9.51326 25.0158 9.47126C24.9738 9.42926 24.9405 9.37939 24.9178 9.32452C24.8951 9.26964 24.8834 9.21082 24.8834 9.15143V7.00889C24.8834 6.75904 25.0858 6.5566 25.3357 6.5566C25.5855 6.5566 25.788 6.75904 25.788 7.00889V9.15148C25.7879 9.27142 25.7403 9.38644 25.6554 9.47124C25.5706 9.55605 25.4556 9.6037 25.3357 9.60371ZM23.9795 3.73467C23.9134 3.73476 23.8481 3.72035 23.7882 3.69243C23.7283 3.66452 23.6753 3.62379 23.6328 3.57313L22.2556 1.93174C22.2174 1.88625 22.1886 1.83368 22.1707 1.77704C22.1529 1.7204 22.1463 1.66079 22.1515 1.60162C22.1567 1.54245 22.1735 1.48488 22.2009 1.4322C22.2283 1.37952 22.2659 1.33276 22.3114 1.29459C22.3568 1.2564 22.4094 1.22754 22.4661 1.20967C22.5227 1.19179 22.5823 1.18526 22.6415 1.19043C22.7006 1.19561 22.7582 1.21239 22.8109 1.23983C22.8636 1.26726 22.9103 1.3048 22.9485 1.35031L24.3257 2.99164C24.3639 3.03713 24.3928 3.0897 24.4107 3.14634C24.4285 3.20298 24.4351 3.26259 24.4299 3.32176C24.4247 3.38093 24.4079 3.43849 24.3805 3.49118C24.3531 3.54386 24.3155 3.59062 24.27 3.62879C24.1887 3.69727 24.0858 3.73478 23.9795 3.73467ZM28.0694 8.60873C28.0033 8.60883 27.938 8.59441 27.8781 8.56649C27.8182 8.53858 27.7652 8.49785 27.7227 8.44719L26.3455 6.80592C26.3073 6.76043 26.2784 6.70786 26.2606 6.65122C26.2427 6.59458 26.2362 6.53497 26.2413 6.4758C26.2465 6.41663 26.2633 6.35906 26.2907 6.30638C26.3182 6.2537 26.3557 6.20694 26.4012 6.16877C26.4931 6.09169 26.6118 6.05426 26.7313 6.06471C26.8508 6.07516 26.9612 6.13263 27.0383 6.22449L28.4156 7.86576C28.4538 7.91125 28.4826 7.96382 28.5005 8.02046C28.5184 8.0771 28.5249 8.13671 28.5197 8.19588C28.5145 8.25505 28.4978 8.31262 28.4703 8.3653C28.4429 8.41798 28.4054 8.46474 28.3599 8.50291C28.2786 8.57135 28.1757 8.60884 28.0694 8.60873ZM23.2581 4.98471C23.232 4.98471 23.2057 4.98248 23.179 4.97779L21.069 4.60572C21.0105 4.59541 20.9546 4.57368 20.9045 4.54178C20.8544 4.50987 20.8111 4.46841 20.7771 4.41976C20.743 4.37111 20.7189 4.31623 20.706 4.25824C20.6932 4.20026 20.6919 4.14032 20.7022 4.08184C20.7125 4.02334 20.7342 3.96744 20.7661 3.91733C20.798 3.86723 20.8394 3.82391 20.8881 3.78984C20.9368 3.75577 20.9917 3.73163 21.0496 3.7188C21.1076 3.70596 21.1676 3.70469 21.2261 3.71504L23.3361 4.08711C23.4473 4.10687 23.5472 4.16755 23.6159 4.25721C23.6847 4.34687 23.7174 4.45901 23.7076 4.57157C23.6978 4.68413 23.6462 4.78896 23.5631 4.86541C23.4799 4.94187 23.3711 4.98443 23.2581 4.98471ZM29.5242 6.08961C29.4981 6.08961 29.4717 6.08738 29.4451 6.0827L27.3351 5.71063C27.2766 5.70032 27.2208 5.67859 27.1707 5.64668C27.1206 5.61477 27.0773 5.57331 27.0432 5.52466C27.0091 5.47601 26.985 5.42113 26.9722 5.36315C26.9593 5.30517 26.958 5.24522 26.9683 5.18674C27.0117 4.94076 27.2461 4.77623 27.4922 4.81994L29.6022 5.19201C29.6607 5.20232 29.7165 5.22405 29.7666 5.25596C29.8167 5.28787 29.86 5.32933 29.8941 5.37798C29.9282 5.42663 29.9523 5.48151 29.9651 5.53949C29.978 5.59747 29.9793 5.65741 29.969 5.7159C29.9505 5.8205 29.8958 5.91527 29.8145 5.98359C29.7332 6.05192 29.6304 6.08945 29.5242 6.08961ZM27.1634 4.29605C27.0638 4.29615 26.9669 4.26337 26.8879 4.2028C26.8088 4.14222 26.7519 4.05724 26.7261 3.96104C26.7003 3.86484 26.7069 3.76281 26.745 3.67078C26.7831 3.57875 26.8505 3.50187 26.9368 3.45207L28.7924 2.38074C28.8962 2.32203 29.0189 2.30669 29.134 2.33806C29.2491 2.36944 29.3471 2.44498 29.4067 2.54826C29.4663 2.65155 29.4828 2.7742 29.4524 2.88953C29.4221 3.00486 29.3474 3.10354 29.2446 3.16408L27.3891 4.23541C27.3205 4.27513 27.2427 4.29605 27.1634 4.29605Z" fill="#F49F00"/>
</g>
<defs>
<clipPath id="clip0_335_18657">
<rect width="30" height="30" fill="white" transform="translate(0 0.193848)"/>
</clipPath>
</defs>
</svg>
