<svg width="50" height="50" viewBox="0 0 50 50" fill="none" xmlns="http://www.w3.org/2000/svg">
<g clip-path="url(#clip0_330_15772)">
<path d="M41.0776 29.5081C41.0776 34.8356 38.9831 39.6591 35.5676 43.2224C31.9609 46.9856 26.8767 49.3321 21.2536 49.3321C10.3031 49.3321 1.42969 40.4587 1.42969 29.5081C1.42969 28.0308 1.59487 26.5881 1.89902 25.1975C3.87184 16.3242 11.7807 9.6843 21.2536 9.6843C24.7562 9.6843 28.0413 10.5881 30.8918 12.1873C30.9005 12.1873 30.9091 12.1873 30.9178 12.196L38.2876 19.366C40.0607 22.3295 41.0776 25.7973 41.0776 29.5081Z" fill="#2F2E3C"/>
<path d="M35.5676 43.2225C31.9609 46.9857 26.8767 49.3322 21.2536 49.3322C10.3031 49.3322 1.42969 40.4588 1.42969 29.5083C1.42969 28.0309 1.59487 26.5882 1.89902 25.1976C5.1668 36.3132 15.4394 44.4219 27.6154 44.4219C30.3791 44.4219 33.0559 44.0046 35.5676 43.2225ZM40.5973 17.0563L38.2876 19.366L38.2852 19.3636C37.54 20.1089 35.3054 19.0824 33.294 17.0709C31.2826 15.0595 30.2561 12.8247 31.0013 12.0797L30.8918 12.1873L33.3057 9.77341" fill="#20202B"/>
<path d="M40.5937 17.0555C41.3388 16.3104 40.3123 14.0759 38.301 12.0647C36.2897 10.0534 34.0552 9.02708 33.3101 9.77222C32.565 10.5174 33.5914 12.7519 35.6027 14.7631C37.614 16.7743 39.8485 17.8007 40.5937 17.0555Z" fill="#2F2E3C"/>
<path d="M43.0876 8.32032L37.4716 13.9364C37.4031 14.0051 37.3218 14.0596 37.2322 14.0967C37.1426 14.1339 37.0466 14.153 36.9496 14.153C36.7535 14.1529 36.5654 14.0749 36.4266 13.9364C36.2885 13.7976 36.2109 13.6097 36.2109 13.4139C36.2109 13.2181 36.2885 13.0302 36.4266 12.8914L39.082 10.236L39.0859 10.2321L42.0427 7.27629C42.1812 7.13772 42.3692 7.05988 42.5651 7.05988C42.7611 7.05988 42.9491 7.13772 43.0876 7.27629C43.1563 7.3448 43.2107 7.42617 43.2479 7.51574C43.285 7.60532 43.3041 7.70134 43.3041 7.79831C43.3041 7.89528 43.285 7.9913 43.2479 8.08087C43.2107 8.17044 43.1563 8.25181 43.0876 8.32032Z" fill="#8FA3A9"/>
<path d="M43.0887 8.32032L40.1319 11.2771C40.0634 11.3458 39.9821 11.4002 39.8925 11.4374C39.8029 11.4746 39.7069 11.4937 39.6099 11.4937C39.4138 11.4936 39.2257 11.4156 39.0869 11.2771C38.8003 10.9895 38.7993 10.5246 39.083 10.236L39.0869 10.2321L42.0437 7.27629C42.1822 7.13772 42.3702 7.05988 42.5662 7.05988C42.7621 7.05988 42.9501 7.13772 43.0887 7.27629C43.1573 7.3448 43.2117 7.42617 43.2489 7.51574C43.286 7.60532 43.3051 7.70134 43.3051 7.79831C43.3051 7.89528 43.286 7.9913 43.2489 8.08087C43.2117 8.17044 43.1573 8.25181 43.0887 8.32032Z" fill="#EC1422"/>
<path d="M17.6515 13.3751C13.2405 14.0643 25.9271 23.7006 33.1832 27.3376C34.1955 27.845 35.3993 27.1683 35.5141 26.0416C35.6407 24.8005 35.536 23.0521 34.6712 20.9072C33.1467 17.1265 24.4594 12.2886 17.6515 13.3751Z" fill="#525464"/>
<path d="M42.7746 5.30894C42.6775 5.30895 42.5815 5.28986 42.4918 5.25274C42.4022 5.21561 42.3208 5.1612 42.2522 5.0926C42.1836 5.024 42.1292 4.94256 42.092 4.85293C42.0549 4.76329 42.0358 4.66722 42.0358 4.57021V1.07082C42.0358 0.662747 42.3665 0.332092 42.7746 0.332092C43.1826 0.332092 43.5133 0.662747 43.5133 1.07082V4.57031C43.5132 4.7662 43.4354 4.95406 43.2969 5.09258C43.1583 5.23109 42.9705 5.30892 42.7746 5.30894ZM42.7746 15.7015C42.6775 15.7015 42.5815 15.6824 42.4918 15.6453C42.4022 15.6082 42.3208 15.5538 42.2522 15.4852C42.1836 15.4166 42.1292 15.3352 42.092 15.2455C42.0549 15.1559 42.0358 15.0598 42.0358 14.9628V11.4633C42.0358 11.0552 42.3665 10.7246 42.7746 10.7246C43.1826 10.7246 43.5133 11.0552 43.5133 11.4633V14.9629C43.5132 15.1588 43.4354 15.3467 43.2969 15.4852C43.1583 15.6237 42.9705 15.7015 42.7746 15.7015ZM40.5595 6.11543C40.4516 6.11559 40.3449 6.09204 40.247 6.04645C40.1492 6.00085 40.0626 5.93433 39.9932 5.85158L37.7438 3.17065C37.6815 3.09635 37.6343 3.01049 37.6052 2.91797C37.576 2.82545 37.5653 2.7281 37.5738 2.63145C37.5822 2.53481 37.6096 2.44078 37.6544 2.35474C37.6992 2.26869 37.7605 2.19232 37.8348 2.12997C37.9091 2.06759 37.995 2.02045 38.0875 1.99126C38.18 1.96207 38.2774 1.9514 38.374 1.95985C38.4707 1.9683 38.5647 1.99572 38.6508 2.04052C38.7368 2.08533 38.8132 2.14665 38.8755 2.22098L41.125 4.90182C41.1874 4.97612 41.2345 5.06198 41.2637 5.1545C41.2929 5.24701 41.3036 5.34437 41.2951 5.44101C41.2867 5.53765 41.2592 5.63168 41.2144 5.71773C41.1696 5.80377 41.1083 5.88015 41.034 5.9425C40.9012 6.05436 40.7331 6.11562 40.5595 6.11543ZM47.2397 14.0764C47.1317 14.0766 47.0251 14.053 46.9272 14.0074C46.8294 13.9618 46.7427 13.8953 46.6734 13.8125L44.4239 11.1318C44.3615 11.0575 44.3144 10.9716 44.2852 10.8791C44.256 10.7866 44.2454 10.6893 44.2538 10.5926C44.2623 10.496 44.2897 10.4019 44.3345 10.3159C44.3793 10.2299 44.4406 10.1535 44.5149 10.0911C44.665 9.96524 44.859 9.9041 45.0541 9.92117C45.2493 9.93824 45.4296 10.0321 45.5556 10.1821L47.8051 12.8629C47.8675 12.9372 47.9146 13.023 47.9438 13.1156C47.973 13.2081 47.9836 13.3054 47.9752 13.4021C47.9667 13.4987 47.9393 13.5927 47.8945 13.6788C47.8497 13.7648 47.7884 13.8412 47.7141 13.9036C47.5813 14.0153 47.4133 14.0766 47.2397 14.0764ZM39.3812 8.15716C39.3385 8.15716 39.2956 8.15353 39.252 8.14587L35.8057 7.53815C35.7101 7.52132 35.6189 7.48583 35.537 7.43371C35.4552 7.38159 35.3845 7.31387 35.3289 7.23441C35.2732 7.15495 35.2338 7.06531 35.2128 6.97061C35.1918 6.87591 35.1897 6.778 35.2066 6.68247C35.2233 6.58692 35.2588 6.49562 35.3109 6.41379C35.363 6.33195 35.4307 6.26119 35.5102 6.20555C35.5897 6.14991 35.6793 6.11048 35.7741 6.08951C35.8688 6.06855 35.9667 6.06646 36.0622 6.08337L39.5086 6.69109C39.6903 6.72336 39.8533 6.82247 39.9656 6.96892C40.0779 7.11536 40.1313 7.29853 40.1154 7.48238C40.0994 7.66622 40.0152 7.83744 39.8793 7.96232C39.7434 8.0872 39.5658 8.15671 39.3812 8.15716ZM49.6158 9.96184C49.5731 9.96184 49.5302 9.9582 49.4866 9.95054L46.0403 9.34283C45.9448 9.32599 45.8535 9.2905 45.7717 9.23838C45.6899 9.18627 45.6192 9.11854 45.5635 9.03908C45.5079 8.95962 45.4685 8.86998 45.4475 8.77528C45.4265 8.68058 45.4244 8.58267 45.4412 8.48715C45.5122 8.08538 45.8949 7.81665 46.2969 7.88805L49.7432 8.49576C49.8387 8.5126 49.93 8.54809 50.0118 8.60021C50.0936 8.65232 50.1643 8.72005 50.22 8.79951C50.2756 8.87896 50.3151 8.96861 50.336 9.06331C50.357 9.15801 50.3591 9.25592 50.3423 9.35144C50.3121 9.52229 50.2228 9.67707 50.09 9.78868C49.9572 9.90028 49.7893 9.96158 49.6158 9.96184ZM45.7598 7.03236C45.5971 7.03253 45.439 6.97898 45.3098 6.88004C45.1807 6.7811 45.0878 6.6423 45.0456 6.48517C45.0034 6.32805 45.0143 6.1614 45.0765 6.01108C45.1388 5.86077 45.2489 5.73519 45.3897 5.65386L48.4205 3.90402C48.59 3.80812 48.7906 3.78307 48.9785 3.83431C49.1664 3.88556 49.3265 4.00895 49.4239 4.17764C49.5213 4.34633 49.5482 4.54666 49.4986 4.73504C49.449 4.92341 49.327 5.08459 49.1592 5.18348L46.1286 6.93331C46.0165 6.99819 45.8893 7.03236 45.7598 7.03236Z" fill="#F49F00"/>
</g>
<defs>
<clipPath id="clip0_330_15772">
<rect width="49" height="49" fill="white" transform="translate(0.945312 0.332092)"/>
</clipPath>
</defs>
</svg>
