<svg width="52" height="51" viewBox="0 0 52 51" fill="none" xmlns="http://www.w3.org/2000/svg">
<g clip-path="url(#clip0_330_15767)">
<path d="M23.3518 36.3212C23.6335 41.0464 22.6168 42.9171 19.2203 43.4435C15.8205 43.9699 12.5308 41.1373 11.8638 37.1108C11.5595 35.2621 11.2551 31.5051 10.8666 29.8601L7.94924 21.9137C7.78087 21.2119 5.85758 17.8654 5.55322 16.4083C4.93479 13.4441 6.90989 10.5614 9.96643 9.95975C9.96643 9.95975 14.5124 9.07299 15.3122 8.91632C16.1119 8.75651 18.4982 8.60611 18.4982 8.60611C21.7749 8.60611 23.355 10.2449 23.355 13.4159C23.355 15.2552 19.9876 18.0847 19.9876 18.0847C19.9876 18.0847 15.2215 22.5248 16.889 25.8243C18.55 29.1237 22.3448 30.0763 23.3518 36.3212ZM19.5473 7.79455C20.9007 7.79455 22.0016 6.23098 22.0016 4.31019C22.0016 2.3894 20.9007 0.832092 19.5473 0.832092C18.1841 0.832092 17.0833 2.39254 17.0833 4.31019C17.0865 6.23098 18.1841 7.79455 19.5473 7.79455ZM14.3181 7.44048C15.1891 7.32141 15.7493 6.22471 15.5647 4.99014C15.3834 3.75557 14.5286 2.85315 13.6576 2.97535C12.7899 3.09442 12.2297 4.19112 12.411 5.42569C12.5923 6.65712 13.4471 7.55955 14.3181 7.44048ZM10.5913 8.4181C11.2227 8.27397 11.5562 7.43421 11.3393 6.54432C11.1191 5.65443 10.4327 5.04654 9.80454 5.19068C9.17639 5.33482 8.83966 6.17144 9.05983 7.06447C9.27677 7.95436 9.95996 8.56224 10.5913 8.4181ZM7.57689 10.3295C8.12733 10.1196 8.31512 9.31426 7.99457 8.53404C7.67402 7.75382 6.97141 7.29007 6.42097 7.50315C5.87053 7.71622 5.68274 8.51837 6.00328 9.2986C6.32383 10.0788 7.02645 10.5394 7.57689 10.3295ZM4.29369 10.5551C3.92781 10.693 3.80153 11.2256 4.012 11.7458C4.22246 12.2628 4.69195 12.5699 5.05783 12.432C5.42371 12.2941 5.54998 11.7583 5.33952 11.2413C5.12582 10.7212 4.65957 10.4141 4.29369 10.5551ZM42.9474 18.091C42.9474 18.091 38.5018 16.8282 37.7182 16.6089C36.9346 16.3833 34.571 16.0355 34.571 16.0355C31.304 15.766 29.5879 17.27 29.3095 20.4285C29.1411 22.2553 32.2462 25.3542 32.2462 25.3542C32.2462 25.3542 36.6044 30.1734 34.6487 33.3194C32.6995 36.4654 28.8367 37.1077 27.2858 43.2398C26.5864 47.918 27.438 49.8701 30.7665 50.6817C34.1112 51.4901 37.634 48.9332 38.6604 44.9851C39.1299 43.1615 39.7613 39.4452 40.2988 37.8378L43.9058 30.164C44.1357 29.4747 46.3471 26.3037 46.781 24.878C47.6552 21.9795 45.9391 18.9401 42.9474 18.091ZM33.5932 15.133C34.9466 15.2458 36.1802 13.7857 36.3518 11.868C36.5234 9.95035 35.565 8.30843 34.2084 8.19563C32.8549 8.08283 31.6213 9.543 31.4497 11.4607C31.2781 13.3783 32.2397 15.0234 33.5932 15.133ZM38.8353 15.2145C39.6901 15.4056 40.6193 14.5753 40.9107 13.3658C41.1957 12.1531 40.7391 11.0157 39.8843 10.8246C39.0295 10.6334 38.1003 11.4638 37.8121 12.6733C37.5207 13.8859 37.9837 15.0234 38.8353 15.2145ZM42.4617 16.4961C43.0736 16.6903 43.8086 16.1451 44.1065 15.2772C44.4044 14.4092 44.1454 13.5444 43.5334 13.3501C42.9215 13.1558 42.1832 13.7011 41.8853 14.569C41.5875 15.437 41.8465 16.3018 42.4617 16.4961ZM46.6968 15.9383C46.1626 15.6814 45.4179 16.0793 45.0325 16.8313C44.6472 17.5834 44.7638 18.3981 45.2981 18.655C45.8291 18.9119 46.577 18.514 46.9623 17.762C47.3476 17.0099 47.2278 16.1921 46.6968 15.9383ZM48.5489 19.1469C48.1959 18.9777 47.7006 19.2441 47.4415 19.7423C47.189 20.2405 47.2634 20.7857 47.6196 20.9549C47.9725 21.1273 48.4679 20.8609 48.727 20.3596C48.9827 19.8614 48.905 19.3193 48.5489 19.1469Z" fill="white"/>
</g>
<defs>
<clipPath id="clip0_330_15767">
<rect width="51.6667" height="50" fill="white" transform="translate(0.113281 0.832092)"/>
</clipPath>
</defs>
</svg>
