<svg width="31" height="31" viewBox="0 0 31 31" fill="none" xmlns="http://www.w3.org/2000/svg">
<g clip-path="url(#clip0_335_18652)">
<path d="M13.6767 21.4873C13.8457 24.3224 13.2357 25.4448 11.1978 25.7607C9.15793 26.0765 7.18412 24.377 6.78392 21.9611C6.6013 20.8519 6.41869 18.5977 6.18556 17.6107L4.43517 12.8428C4.33415 12.4217 3.18017 10.4138 2.99756 9.53959C2.6265 7.76106 3.81156 6.03141 5.64549 5.67044C5.64549 5.67044 8.37307 5.13839 8.85292 5.04438C9.33277 4.9485 10.7646 4.85826 10.7646 4.85826C12.7306 4.85826 13.6786 5.84153 13.6786 7.74414C13.6786 8.84773 11.6582 10.5454 11.6582 10.5454C11.6582 10.5454 8.79852 13.2095 9.79902 15.1891C10.7956 17.1688 13.0725 17.7404 13.6767 21.4873ZM11.394 4.37132C12.2061 4.37132 12.8666 3.43318 12.8666 2.28071C12.8666 1.12823 12.2061 0.193848 11.394 0.193848C10.5761 0.193848 9.91559 1.13011 9.91559 2.28071C9.91753 3.43318 10.5761 4.37132 11.394 4.37132ZM8.2565 4.15888C8.7791 4.08744 9.11519 3.42942 9.00445 2.68868C8.89566 1.94794 8.38278 1.40648 7.86019 1.4798C7.33954 1.55125 7.00345 2.20926 7.11224 2.95C7.22103 3.68887 7.73391 4.23032 8.2565 4.15888ZM6.02043 4.74545C6.39926 4.65897 6.59936 4.15512 6.4692 3.62118C6.33709 3.08725 5.92524 2.72252 5.54835 2.809C5.17146 2.89548 4.96942 3.39746 5.10152 3.93327C5.23169 4.46721 5.6416 4.83194 6.02043 4.74545ZM4.21176 5.89229C4.54202 5.76632 4.6547 5.28315 4.46237 4.81502C4.27004 4.34688 3.84847 4.06864 3.51821 4.19648C3.18794 4.32432 3.07527 4.80562 3.2676 5.27375C3.45992 5.74188 3.8815 6.01825 4.21176 5.89229ZM2.24184 6.02765C2.02231 6.11037 1.94655 6.42998 2.07282 6.74207C2.1991 7.05228 2.48079 7.23652 2.70032 7.1538C2.91985 7.07108 2.99561 6.74959 2.86934 6.43938C2.74112 6.12729 2.46137 5.94305 2.24184 6.02765ZM25.434 10.5492C25.434 10.5492 22.7667 9.79152 22.2965 9.65991C21.8264 9.52455 20.4082 9.31586 20.4082 9.31586C18.448 9.15418 17.4184 10.0566 17.2513 11.9517C17.1503 13.0478 19.0133 14.9071 19.0133 14.9071C19.0133 14.9071 21.6283 17.7987 20.4548 19.6862C19.2853 21.5738 16.9677 21.9592 16.0371 25.6385C15.6175 28.4454 16.1284 29.6167 18.1255 30.1036C20.1324 30.5887 22.246 29.0545 22.8619 26.6857C23.1436 25.5915 23.5224 23.3617 23.8449 22.3973L26.0091 17.793C26.147 17.3794 27.4739 15.4768 27.7342 14.6214C28.2588 12.8823 27.2291 11.0587 25.434 10.5492ZM19.8215 8.77441C20.6336 8.84209 21.3738 7.96599 21.4767 6.81539C21.5797 5.6648 21.0046 4.67965 20.1906 4.61197C19.3786 4.54429 18.6384 5.42039 18.5354 6.57099C18.4325 7.72158 19.0095 8.70861 19.8215 8.77441ZM22.9668 8.82329C23.4797 8.93797 24.0372 8.43976 24.2121 7.71406C24.383 6.98648 24.1091 6.30402 23.5962 6.18933C23.0834 6.07465 22.5258 6.57287 22.3529 7.29857C22.178 8.02615 22.4559 8.70861 22.9668 8.82329ZM25.1426 9.59223C25.5098 9.70879 25.9508 9.38167 26.1295 8.86089C26.3083 8.34012 26.1528 7.82122 25.7857 7.70466C25.4185 7.58809 24.9756 7.91522 24.7968 8.436C24.6181 8.95677 24.7735 9.47567 25.1426 9.59223ZM27.6837 9.25758C27.3632 9.10342 26.9163 9.34218 26.6852 9.7934C26.454 10.2446 26.5239 10.7334 26.8445 10.8876C27.1631 11.0418 27.6118 10.803 27.843 10.3518C28.0742 9.90056 28.0023 9.40987 27.6837 9.25758ZM28.7949 11.1828C28.5832 11.0812 28.286 11.241 28.1305 11.54C27.979 11.8389 28.0237 12.166 28.2374 12.2675C28.4491 12.3709 28.7464 12.2111 28.9018 11.9103C29.0553 11.6114 29.0086 11.2862 28.7949 11.1828Z" fill="white"/>
</g>
<defs>
<clipPath id="clip0_335_18652">
<rect width="31" height="30" fill="white" transform="translate(0 0.193848)"/>
</clipPath>
</defs>
</svg>
